/* XPM */
static const char *UXVpdF8x[] = {
/* columns rows colors chars-per-pixel */
"64 64 233 2 ",
"   c #341A19",
".  c #391D1B",
"X  c #3C201C",
"o  c #353134",
"O  c #44261B",
"+  c #48381C",
"@  c #6F2B1B",
"#  c #532D25",
"$  c #4E3228",
"%  c #573928",
"&  c #493537",
"*  c #573D36",
"=  c #472C27",
"-  c #6B3C32",
";  c #75382B",
":  c #574E1C",
">  c #52441E",
",  c #574B1E",
"<  c #73761D",
"1  c #6E6F1F",
"2  c #5B4827",
"3  c #5B4234",
"4  c #5C453B",
"5  c #5D493D",
"6  c #554D30",
"7  c #634B3D",
"8  c #644A36",
"9  c #6A5731",
"0  c #6B6727",
"q  c #6A7122",
"w  c #737720",
"e  c #757924",
"r  c #73732A",
"t  c #767B2A",
"y  c #787D2E",
"u  c #787B21",
"i  c #797E32",
"p  c #7A7D3B",
"a  c #747736",
"s  c #726F2E",
"d  c #605B1E",
"f  c #353248",
"g  c #533F44",
"h  c #413C55",
"j  c #4C3A4B",
"k  c #34424B",
"l  c #374B53",
"z  c #294A55",
"x  c #3D5A68",
"c  c #295C65",
"v  c #347779",
"b  c #30656C",
"n  c #2B605D",
"m  c #484746",
"M  c #5E4B41",
"N  c #584947",
"B  c #494456",
"V  c #564C56",
"C  c #5D5758",
"Z  c #545152",
"A  c #624E43",
"S  c #644E4B",
"D  c #6B5344",
"F  c #64534B",
"G  c #6A564B",
"H  c #68564A",
"J  c #745849",
"K  c #655A52",
"L  c #6B5C53",
"P  c #6B5E5A",
"I  c #665656",
"U  c #705D54",
"Y  c #765552",
"T  c #634951",
"R  c #556156",
"E  c #65614D",
"W  c #616444",
"Q  c #666353",
"!  c #6C635C",
"~  c #6C6656",
"^  c #726156",
"/  c #73645B",
"(  c #75695E",
")  c #796452",
"_  c #776E49",
"`  c #494963",
"'  c #55576D",
"]  c #575A73",
"[  c #584F66",
"{  c #635D66",
"}  c #4E6B6D",
"|  c #6B6461",
" . c #6E6964",
".. c #6C676C",
"X. c #736763",
"o. c #746A64",
"O. c #7A6C64",
"+. c #736E6A",
"@. c #7A6865",
"#. c #76726C",
"$. c #7C736C",
"%. c #7C756B",
"&. c #757273",
"*. c #7C7672",
"=. c #7E7D73",
"-. c #7D7B7C",
";. c #706E74",
":. c #823929",
">. c #953A28",
",. c #A63C27",
"<. c #8E3C1F",
"1. c #B64F2E",
"2. c #97442B",
"3. c #C5532E",
"4. c #D56C3F",
"5. c #A56546",
"6. c #81776F",
"7. c #887566",
"8. c #827771",
"9. c #827C74",
"0. c #837E79",
"q. c #8A6B67",
"w. c #A97C68",
"e. c #975D4C",
"r. c #7D812B",
"t. c #7A8036",
"y. c #7B8138",
"u. c #37827C",
"i. c #7F8076",
"p. c #70827E",
"a. c #818333",
"s. c #818175",
"d. c #898175",
"f. c #84837B",
"g. c #89867D",
"h. c #8A897E",
"j. c #968872",
"k. c #AB8977",
"l. c #B78872",
"z. c #C4955C",
"x. c #E3894B",
"c. c #C5946C",
"v. c #DB9F72",
"b. c #E1AA7B",
"n. c #377780",
"m. c #2C67AB",
"M. c #356BAB",
"N. c #346EB1",
"B. c #3A73B6",
"V. c #3B74B7",
"C. c #3F70A5",
"Z. c #305D91",
"A. c #537489",
"S. c #6D768A",
"D. c #737A8A",
"F. c #437BBD",
"G. c #4B7FB3",
"H. c #547DAC",
"J. c #467FC0",
"K. c #817F84",
"L. c #3D8C8C",
"P. c #449999",
"I. c #438A8D",
"U. c #7A8698",
"Y. c #7A8388",
"T. c #548EAE",
"R. c #7A8BA5",
"E. c #7191B5",
"W. c #5AAEB5",
"Q. c #4C83C4",
"!. c #548BCB",
"~. c #598FCF",
"^. c #5D93D1",
"/. c #5A90CF",
"(. c #6E96C3",
"). c #6196D5",
"_. c #659BD9",
"`. c #7999C3",
"'. c #6CA1DE",
"]. c #78A4D4",
"[. c #67B1C6",
"{. c #6FA4E0",
"}. c #71A6E3",
"|. c #75A9E5",
" X c #7AAEE9",
".X c #79ACE7",
"XX c #7EB1EC",
"oX c #66C2CC",
"OX c #6DC9D6",
"+X c #79D8E8",
"@X c #868581",
"#X c #898681",
"$X c #8C8B84",
"%X c #8D8E89",
"&X c #848687",
"*X c #908D86",
"=X c #908E8A",
"-X c #8F908C",
";X c #829689",
":X c #92928D",
">X c #919086",
",X c #828A97",
"<X c #8A949B",
"1X c #949591",
"2X c #999994",
"3X c #979998",
"4X c #A5968B",
"5X c #89A69C",
"6X c #ADAC8B",
"7X c #8A99A7",
"8X c #929DA5",
"9X c #879CB6",
"0X c #818FA4",
"qX c #8AA1B8",
"wX c #94A8B8",
"eX c #9CB2BE",
"rX c #B4AAA2",
"tX c #DAB687",
"yX c #EEBE8A",
"uX c #97C5BE",
"iX c #A2C2B3",
"pX c #F5CD96",
"aX c #87A6CA",
"sX c #86ABD5",
"dX c #8CB2DE",
"fX c #A8BEC7",
"gX c #81AFE3",
"hX c #86B4E9",
"jX c #86B9F3",
"kX c #8ABCF5",
"lX c #83B6F0",
"zX c #809FC6",
"xX c #ACC2CB",
/* pixels */
"e e e e e e e e e e e e e e e t t t t t t t t t t t t t t t t t t t t t t t t t e e e e e e e e e e w w w < < < < < < < < < < < ",
"e e s.=.=.=.=.i.=.=.=.=.=.i.t t t t t t t t t y y y y y y y y y y y $X$X$X$X#X#X#X#Xh.#Xh.h.e e e e =.=.=.=.=.=.=.=.=.=.=.=.< < ",
"e f.=.=.=.=.=.=.=.=.=.i.i.s.f.t t t t y y y y y y y y y y y y y y :X$X$X%X$X$X$X$X$X$X$X#X#X:Xe e f.=.=.=.=.=.=.=.=.=.=.=.=.f.< ",
"e f.=.=.=.=.=.=.=.i.s.s.s.s.@Xt t y y y y y y i i i i i i i i i a K.-.-.-.#X%X%X$X$X$X$X#X#X:Xe e f.=.=.=.=.=.=.=.=.=.=.=.=.f.< ",
"e f.=.=.=.=.=.=.i.s.s.s.s.s.#Xy y y y y i i i i i i i i i i i a C ' ] [ ` ;.#X%X%X%X$X$X$X#X:Xe e f.=.=.=.=.=.=.=.=.=.=.=.=.f.< ",
"e f.=.=.=.=.i.i.s.s.s.s.s.s.$Xy y y i i i i i i i i t.i t.a W ] S.wXwXD.` h =.%X%X%X$X$X$X$X:Xt e @X=.=.=.=.=.=.=.=.=.=.=.=.f.< ",
"e f.=.=.i.i.i.s.i.s.i.s.s.s.$Xi i i i i i i t.t.i p p p a N ` 7XfXxX7X] B V -.#X%X%X%X$X$X$X:Xt t @Xi.=.=.=.=.=.=.=.=.=.=.=.f.< ",
"e f.i.i.i.i.s.s.i.s.s.s.s.s.$Xi i i i i t.t.t.y._ $.$.o.B h A.7XqXqXS.` B & o V $X%X%X%X%X$X:Xt t #Xs.=.=.=.=.=.=.=.=.=.=.=.f.< ",
"e @Xi.i.i.s.s.s.s.s.s.s.s.s.$Xi i i t.t.t.y.y.p ^ %X%X&.f V @.q.@.q.Y j f P & & @X%X%X%X%X%X:Xy t #Xs.s.=.=.=.=.=.=.=.=.=.=.f.< ",
"e @Xi.i.s.s.s.s.s.s.s.f.s.f.$Xi t.t.t.y.y.p p p ^ 1X$X{ & :.1.3.,.3.1.- & C g & s.$X%X%X%X%X:Xy y #Xs.s.i.=.=.=.=.=.=.=.=.=.f.< ",
"e @Xs.s.s.s.s.s.s.s.f.f.f.f.$Xt.t.y.p _ _ ^ ^ / L { C # <.5.w.l.l.w.e.; @ o j N ^ / $.f.$X%X:Xi y #Xs.s.s.i.=.=.=.=.=.=.=.=.f.< ",
"e #Xi.s.s.s.s.s.s.s.f.f.f.f.%Xy.y._ ) O.$.$X$X%XP f h ..4XrXeXxXxXeXD.[ I ' f | $X9.O./ / $.:Xi y $Xs.s.s.s.=.=.=.=.=.=.=.=.f.< ",
"e @Xs.s.s.s.s.s.s.f.f.f.f.f.@X_ _ f.%X$X0./ / / U ..h ] 7XfXxXxXwXU.A.h ` ` f I ^ O.0.%X%XO.#Xi i $Xs.s.s.s.i.=.=.=.=.=.=.=.f.< ",
"e @Xs.s.s.s.s.s.f.f.f.f.=.o.X.f.#X#X8.X.0.:X:X1XO.%X&.8.] S.D.S.] ` B T j f V @X:X#Xg./ g.$.L D 9 0.0.s.s.s.s.=.=.=.=.=.=.=.f.< ",
"e Q %X%X%X%X%X%X%X%X%X0./ 9.:X%Xf.@.$.@X-X-X:X:X8.:X4Xw.& q.=Xg e.& &.k.& 4 $.:X:X:X:X:X$.8.6.0.$.L / 0.$X%X%X$X$X$X$X#X#X%XE < ",
"e t Q Q Q Q Q ~ ~ ! L O.%X%X%XO.0.$X%X$X:X:X:X:X2X0.2X6.& k.rX) yXJ 4Xk.& F %X%X%X:X:X:X:X#X$.*.f.f.9.H A Q Q Q Q Q Q Q Q Q w < ",
"e t t t y y y i i 9 f.:X:Xf.O.#X%X%X-X:X:X:X1X=XX.+.%X@XN J c.tXpXc.l.J K / 2X1X%X-X-X:X%X%X-X$.^ 9.#X#X^ s t t e e e e e w < < ",
"t t f.f.f.f.f.9.@.$.9.0.0.$.%X%X%X%X:X:X1X1X%X-.| P &.X.; # 7 b.pXv.9 # - Y %X%X1X1X%X%X&X$X%X%X#X/ 8.$.$.U ^ s.f.s.s.s.s.s.e w ",
"t $Xf.f.f.f.s.( #X%X-X$.+.%X%X%X-X:X1X1X%X-.&.&.&.F I :.>.@ ; 5.5.5.; @ >.:.9.@X@X%X1X:X%X$X$X$X$X#XH 0.$X%X8.L s.f.s.s.s.s.f.w ",
"t $Xf.f.f.f.^ %X#X#X0.8.%X%X:X:X:X1X:X&.....| S S *.+.- :.1.3.4.x.4.3.1.:.- ! +.*.-.-.&X-X%X$X$X$X#X#X/ 0.#Xg.8./ f.s.s.s.s.g.w ",
"t $Xf.f.f.%.^ #X#X8.O.:X-X:X1X:X1X2X&...! I I *.*.p.I.I.l ; 5.z.z.z.5.; l I.L.Y.#.o.-.-.@X:X%X$X@X#X#X9.^ #Xf.d.D s.s.s.s.s.#Xw ",
"e %Xs.s.9.L O.f.f.o.g.:X:X1X3X2X2X+.! I | *.&X<XaX].P.[.L.z b P.P.P.v z L.oXL.R.,X%XX.#.&.@X1X:X$X#X$X$XO.8.f.f.G ( 9.9.9.s.#Xw ",
"e $X/ G G A U U U L X.o.=X3X3X3X+.| I X.D.qXgXkX XT.n.OXT.b P.oXOXoXP.b T.OXb ].hXaX,X0.o.&.0.1X:X%X*.X./ D U U U 7 D D U *.#Xw ",
"e ( f.%X%X#X#X#X@Xf.@X@X*.0.X.-.P I &.9XhXXX).Q.^.T.x uX5XR } ;XiX;X} R 5XuXl C.!. XjXaX&X! #.0.*.*.f.%X%X#X#Xh.h.g.g.g.9.3 N w ",
"e D %X#X#X#X#X#X#X#X$X$X$X%X=X+.S  .aXhX XF.!.}.Q.Z.m tX6X} K j.rXj.Q } 6XtXo E._.F.^.jXsX,XF :X1X%X$X#X#X#X#Xh.h.g.g.g.d.$   d ",
"e D %Xg.g.#X#X#X#X$X$X$X%X%X-XP | aXkX).F.{.^.m.F.H.m c.7.u.L.[.+X[.P.u.7.c.o Z.)..X!.Q.XXhX+.*.1X$X$X#X#X$X#Xh.h.g.g.g.d.$   : ",
"e D *X#X#X7XqX9X%X$X$X%X%X%X%XF R.jX_.Q.'.Q.N.!. X].] J m c L.OX+XOXP.c 4 J ` C.N._.XXQ.!.lXzX| 2X$X$X$X%X$X$XsXqX%X$Xg.d.$   : ",
"e D *X#X#XsX7X7X7X%X%X%X%X:X#X..hXjXB._.).m.J.kXkXkXgX} o * J $.A.} m o x A.gXXXB.B.}.|.V.).jX..2X$X$X%X%X%X$XsX9XsX<Xh.d.$   : ",
"e D *X#X$XaX7X9X<X%X%X%X:X1X#XR.kX^.Q.{.B.V.|.kXkXkXkXE.; 1.4.,.O @ ,.* E.kXkXkX_.m.V.kX!.B.jXE.2X$X%X%X%X%X%XdX8X9X<X$Xd.$   : ",
"e 7 :X$X%X1X8X8X=X-X:X-X:X1X#X`.kXF.!.}.m.F.jXkXkXkXkX9X>.4.x.,.& k B } [.kXkXkXjXm.m.kX).m.jXsX2X%X%X%X%X%X*X7X7X*X$X$Xd.$   : ",
"e 7 :X%X%X%X-X:X=X:X:X:X:X:X#XE.kXF.!.|.B.F.lXkXkXkXkX`.V U ) M k b I.P.A.].jXkXXXm.B.kX).m.jX].2X%X%X%X%X*X>X*X*X%X%X$Xd.$   : ",
"e 8 :X>X%X%X*X=X:X:X:X:X:X:X#XU.kX~.F. X!.N._.kXkXjX].A.n.v v b z I.oX[.v } ].kX!.m.^.kX!.B.jXR.2X%X=X-X:X>X>X>X>Xh.h.$Xd.$   : ",
"e 8 2X1X1X:X:X:X:Xg.*.9.9.$.$.I hXXXN.).XXB.B. XkX].x n.W.P.u.n o l x x l k ]._.m.!.lX}.B.~.hXY.*.*.$.$.8.8.g.:X*Xh.h.:Xd.$   : ",
"e % 9.9.*.*.*.*.*.$.#X#X$X%X%X0.U.hX^.F.{.'.J.F._.(.k k l l k f A.].].].].(.).B.Q.XXXXF.Q.XX9X$X$X#Xf.9./ X.#.#.#.#.#.#./ O   : ",
"e % #. .! ! ! / ! D $X%X%X%X%X%X%X0XlX!.B.}.lX!.B.T.T.E.(.(.(.(.].kXjX.X).V.B.).lX}.F.V.|.sX$X@X@Xf.f.#X$.o.^ ^ ^ Q ! ! L O   : ",
"e % o.K ^ g.f.9.8.L L 1X%X%X%X%X:X1X0XhX'.B.F..XlX_.Q.V.B.F.!.!.Q.F.B.V.Q.|.jX X!.N.Q.hX9X0.f.%X$X@Xf.@XF 8.f.#X$X*X8 ! L O O 1 ",
"e G A 3 H #Xf.f.9.O.H #X%X%X%X%X-X:X=X,XsX|.!.V.!.}.XX X'._.^.^.^._.{.XXjX}.^.V.F.'.gXR.-.$X-X%X$X#X$X#.F s.f.#X#Xf.3 5 3 O 1 w ",
"e %XO.^ 4 f.g.f.f.f.L P @X:X%X-X:X1X1X1X0.,XaXhX_.J.V.V.Q./.).).).).Q.F.B.F.!. XsXU.%X%X%X%X%X%X$X%X+.F L f.f.h.#Xo.$ . : 0 w w ",
"e %Xh.h.7 ! 0.f.f.f.s.^ o.$X2X:X:X1X:X:X:Xf.$.+.0XsXgX X|.'.).).)._.}..X XsXR.+.0.$X:X%X%X=X%X%X%X#.A ^ *.f.f.$Xo.3 X + w w w < ",
"e =Xh.h.9.* #.#Xf.9.$.G L &.o.9.1X:X:X:X:X-X%X%X*.$.*.*.-.&X,X,XU.Y.D.-.&X+.9.:X1X:X:X:X:X%X:X:X#.K A G / g.#Xg.K O   0 e w < < ",
"e *Xh.h.h.H F =.$.6.#XO.F ! *.$.2X:X:X:X:X-X%X%X%X$.0.$X$X*X$X#X#X#X#X9.^ f.%X:X:X:X:X:X:X:X=X+.P A ( $.$.L 6.! * . + w w w < < ",
"e *Xh.h.h.f.7 ! *.%X#X%X%X8.U $.9.$X2X1X:X:X:X:X=Xg.:X1X1X1X:X:X:X:X-X%X1Xo.=X=X:X:X:X1X:X0.! F H $.s.9.9.0.G F X > q e w w < < ",
"w *Xh.h.h.h.O.7 o.s.$X$X#X#X8.( o.#.0.$X:X:X:X:X6.:X:X:X:X:X:X:X:X=X%X%X:Xf.0.-X:X:X%X0.+.P K o.$.f.f.f.9.L 4 $ > w e w w w < < ",
"w *Xh.h.h.h.h.O.G +.=.%X#X$X%X%XO.^ X.#.#.#Xg.1XO.1X:X:X:X:XqX:X<X<X=X=X%X*X8.:Xg.$.! ! K K ( 9.f.f.f.0.! A $ > q e e w w < < < ",
"w %Xh.h.h.#X#X*X~ A o.#.f.%X%X:X:X6.$.G / / o.o.U 2X:X:X:X:XwXdXsX1X:X=X%X*XL ( ( K K L $.$.f.f.f.f.X.F M O 2 w e e w w < < < < ",
"w %Xh.h.h.h.#X:Xe 0 3 H #.*.:X1X$.#X$Xf.$./ 7 7 G 1X:X:X:X:XwXdXsX2X:X:X%X*XA 8 3 $.O.%X%X#X*.#Xf.| K * 2 d w e e w w w < < < < ",
"< ~ :X:X:X:X:X~ e e q 2 H | +.K =X%X$X#X#Xf.f.f./ 2X:X:X:X:XaX2X8X3X:X:X:X*X/ $.#Xg.f.%X%X%Xf.X.K F 3 d w e e e e w w < < < < < ",
"< < ~ ~ ~ ~ ~ e e e e r 0 8 A K *.*.@X:X:Xf.f.f.^ 2X:X:X:X:X:X:X:X:X:X:X=X*X^ $.g.%X:X:X$.! F L % 2 0 e e e e e w w w < < < < < ",
"< < < w w e e e e e e e t r 0 2 F !  . . .9.0.9.H %X%X$X#X#X@Xf.f.f.@X$X$X8.H / 8.o.L L K M 3 2 0 e e e e e e w w w < < < < < < ",
"< < s.s.s.s.s.s.s.e e e e e t r 9 8 F K K ! ! P 3 *.#.+.+.+.+.+.+. .o.+.+./ 3 F Q K F A 3 7 0 e e e e e e e w w w < < < < < < < ",
"< h.s.s.s.s.s.s.s.e e e e e e t t r 9 2 2 M M 5 % #.+.+. . . . . . . . .| ! % 3 5 3 7 7 ( =.#Xe e e e e e w w w < < < < < < < < ",
"< g.s.s.s.s.s.s.s.s.e e e e e e t t t r r r s s % +. .L ! | ! | | | ! ! ! ! = & O.*.9.s.s.s.#Xe e e e e w w w < < < < < < < < < ",
"< g.s.s.s.s.s.s.s.s.s.s.s.s.#Xe e t e t t t t y 9 A 4 4 5 M M M M M M 5 5 4 = $.f.f.f.f.s.s.#Xe e e e w w w < < < < < < < < < < ",
"< g.s.s.s.s.s.s.s.s.s.s.s.s.#Xe e e e e e t t t a.i r r a i r r r 0.*.*.*.$.=.s.f.f.f.f.s.s.#Xe e e w w < < < < < < < < < < < < ",
"< g.s.s.s.s.s.s.s.s.s.s.s.s.#Xe e e e e e e e e r.r.t r.r.q t t t $Xf.f.f.f.s.s.f.f.s.s.s.s.#Xe w w w w < < < < < < < < < < < < ",
"< g.s.s.s.s.s.s.s.s.s.s.s.s.#Xe e e e e e e e e q q e y r.q e e e $Xf.f.f.s.s.s.f.s.s.s.s.s.#Xw w w w < < < < < < < < < < < < < ",
"< g.s.s.s.s.s.s.s.s.s.s.s.s.#Xe e e e e e e e e e e e q q e e e e #Xs.s.s.s.s.s.s.s.s.s.s.s.#Xw w < < < < < < < < < < < < < < < ",
"< g.s.s.s.s.s.s.s.s.s.s.s.s.#Xw w e e e e e e e e e e e e e e e e #Xs.s.s.s.s.s.s.s.s.s.s.s.#X< < < < < < < < < < < < < < < < < ",
"< g.s.s.s.s.s.s.s.s.s.s.s.s.h.< w w w w w e e e e e e e e e e e e #Xs.s.s.s.s.s.s.s.s.s.s.s.g.< < < < < < < < < < < < < < < < < ",
"< g.9.s.s.s.s.s.s.s.s.s.s.s.g.< < w w w w w w w e e e e e e e e e %X%X%X%X%Xs.s.s.s.s.s.s.s.g.< < < < < < < < < < < < < < < < < ",
"< g.9.9.9.s.s.s.s.s.s.s.s.s.g.< < < < < w w w w w w w w w w w w e e w E E E %Xs.s.s.s.s.s.s.g.< < < < < < < < < < < < < < < < < ",
"< g.9.9.9.9.s.s.s.s.s.s.s.s.g.< < < < < < < < < < w w < w w w w w w < < < < E %Xs.s.s.s.s.s.g.< < < < < < < < < < < < < < < < < ",
"< E $X$X$X$X$X$X$X$X$X$X%X$XE < < < < < < < < < < < < < < < < < < < < < < < < E %X%X%X%X$X$X< < < < < < < < < < < < < < < < < < ",
"u r.r.E E E E E E E E E E E < < < < < < < < < < < < < < < < < < < < < < < < < < E E E E E E < < < < < < < < < < < < < < < < < < "
};
