/* XPM */
static const char *Qm94K1dhbGw_[] = {
/* columns rows colors chars-per-pixel */
"64 64 165 2 ",
"   c #4C2711",
".  c #4D2812",
"X  c #4B2B18",
"o  c #483122",
"O  c #4D3826",
"+  c #4F3A29",
"@  c #563825",
"#  c #5C3C26",
"$  c #553A29",
"%  c #5D3D28",
"&  c #573F30",
"*  c #625317",
"=  c #60561F",
"-  c #615A1F",
";  c #65601E",
":  c #6E6F1C",
">  c #72741B",
",  c #5D412F",
"<  c #5A4D2E",
"1  c #574131",
"2  c #594434",
"3  c #574738",
"4  c #594639",
"5  c #57493C",
"6  c #5D4A3B",
"7  c #5C5030",
"8  c #625B20",
"9  c #6A5E24",
"0  c #614532",
"q  c #634936",
"w  c #644D3B",
"e  c #605336",
"r  c #67503F",
"t  c #6A523E",
"y  c #635839",
"u  c #685C3B",
"i  c #5C4E42",
"p  c #5E5246",
"a  c #5F5449",
"s  c #624F40",
"d  c #625244",
"f  c #6B5644",
"g  c #6D5946",
"h  c #62564B",
"j  c #64594E",
"k  c #6C5A4B",
"l  c #645C51",
"z  c #6A5E53",
"x  c #676156",
"c  c #6A6155",
"v  c #676258",
"b  c #6B655C",
"n  c #6E685E",
"m  c #746353",
"M  c #71655A",
"N  c #786758",
"B  c #756A5C",
"V  c #796B5D",
"C  c #6F6A60",
"Z  c #746D63",
"A  c #796C61",
"S  c #777066",
"D  c #777166",
"F  c #777167",
"G  c #757066",
"H  c #787165",
"J  c #787167",
"K  c #797167",
"L  c #787267",
"P  c #797267",
"I  c #7A7267",
"U  c #797267",
"Y  c #767168",
"T  c #787268",
"R  c #787368",
"E  c #797369",
"W  c #797468",
"Q  c #797568",
"!  c #797569",
"~  c #7A7469",
"^  c #79746A",
"/  c #79756A",
"(  c #7A756A",
")  c #7A766A",
"_  c #7B766B",
"`  c #7B776B",
"'  c #7E7768",
"]  c #7E7769",
"[  c #7F7769",
"{  c #7B756A",
"}  c #7E786B",
"|  c #7C786D",
" . c #7E796F",
".. c #7D796E",
"X. c #7F7B70",
"o. c #7F7B71",
"O. c #7F7C72",
"+. c #7F7D72",
"@. c #7E7970",
"#. c #817A6A",
"$. c #807C71",
"%. c #817F74",
"&. c #827F74",
"*. c #837F74",
"=. c #837D73",
"-. c #838075",
";. c #838176",
":. c #838177",
">. c #848277",
",. c #858277",
"<. c #858377",
"1. c #868377",
"2. c #868477",
"3. c #868377",
"4. c #888577",
"5. c #848178",
"6. c #858378",
"7. c #868378",
"8. c #878379",
"9. c #86837A",
"0. c #87837A",
"q. c #868478",
"w. c #878478",
"e. c #868479",
"r. c #878479",
"t. c #878579",
"y. c #86847A",
"u. c #87857A",
"i. c #87857B",
"p. c #87857C",
"a. c #868478",
"s. c #888579",
"d. c #88857A",
"f. c #89867A",
"g. c #88867B",
"h. c #89867B",
"j. c #88867A",
"k. c #88867C",
"l. c #89877C",
"z. c #89877D",
"x. c #88867D",
"c. c #89877E",
"v. c #89867A",
"b. c #8A887D",
"n. c #8A887F",
"m. c #8B897F",
"M. c #8B897E",
"N. c #8C8A7F",
"B. c #8B887D",
"V. c #8B8980",
"C. c #8C8A81",
"Z. c #8D8B81",
"A. c #8C8A80",
"S. c #8D8B82",
"D. c #8E8B81",
"F. c #918E85",
"G. c #928F85",
"H. c #918E84",
"J. c #929087",
"K. c #939086",
"L. c #959289",
"P. c #969289",
"I. c #98958C",
"U. c #99958D",
"Y. c #99958D",
/* pixels */
"> > > > > = o o o o o @ # % , , 0 0 0 0 0 0 0 0 0 q q q q q q q q q q q q q q q 0 0 0 0 0 0 0 2 0 0 0 0 0 0 0 0 0 0 9 > > > > > ",
"> > > > 8 y b b b b b M N N V V V V V A A V V V N N B B B B B B B B B B N N N N N N N N N N N B V N N N N N N N N V u 8 > > > > ",
"> > : ; e M V.V.n.n.n.n.V.S.S.S.S.S.S.S.S.V.k.u.8.<.<.8.<.<.<.<.<.<.<.<.<.<.8.8.8.8.;.;.<.<.8.u.k.k.g.g.g.g.g.g.u.k.M e ; : > > ",
"> > ; + Z n.V.V.n.n.n.n.V.S.S.S.S.S.S.S.S.n.u.<.<.<.<.8.<.<.<.<.<.<.<.<.<.<.8.8.8.>.>.;.<.<.<.<.u.k.g.g.g.g.g.g.g.u.k.Z + ; > > ",
"> 8 e H 8.S.S.S.S.S.S.S.S.V.g.u.u.u.u.u.u.u.8.<.<.<.<.<.<.<.<.<.<.<.<.<.<.u.k.k.n.p.8.<.<.<.<.<.8.u.k.k.g.g.g.g.g.g.g.$.Z e 8 > ",
"= y B S.S.S.S.n.n.n.n.n.k.k.8.<.<.<.<.<.<.<.<.<.<.<.<.<.<.<.<.<.<.<.8.u.p.k.V.S.S.k.8.;.<.<.;.<.<.8.u.g.g.g.g.g.g.g.g.g.k.M y = ",
"o M S.S.S.S.V.u.u.u.u.u.u.<.<.<.<.<.<.<.;.$.X.X.X.X.+.+.+.+.+.+.+.+.&.8.8.8.8.8.u.;.&.;.<.<.<.<.<.<.<.u.g.g.g.g.g.g.g.g.u.n.M o ",
"o M S.S.S.S.V.u.u.u.u.n.k.<.<.<.<.<.<.;.| b z c c c c b b b b b b b b B b b b b b b B | ;.<.<.<.<.<.<.u.g.g.g.g.g.g.g.g.u.n.M o ",
"o M S.S.S.S.n.u.u.u.u.g.u.<.<.<.<.<.&.! c s q q w w w w d d d d d d s s s w w w w w d c ! &.<.<.<.<.<.u.g.g.g.g.g.g.g.g.u.n.M o ",
"o B F.S.N.N.V.u.u.u.u.u.8.<.<.<.<.;.! z 6 q q q w w w w d d d r r w w w w w q q q q q w c ! ;.<.<.<.<.u.g.g.g.g.g.g.g.g.u.n.M o ",
"o A I.S.g.g.n.u.2.u.u.u.8.<.<.<.<.X.c 6 0 k m M Z Z Z Z Z Z Z Z Z Z Z Z Z B b m m m k 0 6 c X.<.<.<.<.u.g.g.g.g.g.g.g.g.u.n.M o ",
"o A I.S.g.u.u.u.2.u.u.u.u.<.<.<.<.} f q k m B Z Z S S S H H H H S S H H H Z Z Z Z B m k w f } <.<.<.<.u.g.g.g.g.g.g.g.g.u.S.M o ",
"o A I.S.g.u.u.u.2.2.u.u.u.<.<.<.<.[ t w M B Z S S S S S H H H H R R R R H H H H S Z B B t t [ <.<.<.<.8.u.g.g.g.g.g.g.g.2.F.B o ",
"o A I.S.g.u.u.u.2.2.u.u.u.<.2.2.2.[ t w M Z S S S S S S H H H R ! ! ! H H H H S S H H H f t [ <.<.<.<.<.8.g.g.g.g.g.g.g.u.P.Z o ",
"o A I.S.g.u.u.u.2.2.2.u.u.2.2.2.2.[ t w B S H S S S S H ! ! ! ! ! ! ! ! R R R R H H H H f t [ 2.2.2.2.<.8.g.g.g.g.g.g.g.2.J.B o ",
"o A I.S.g.u.u.u.2.2.u.g.g.2.2.2.u.[ t d Z ! ! ! R H S H ! ! ! ! _ ! ! ! ! R R H H H H H f t [ 2.2.2.2.u.u.u.g.g.g.g.g.g.g.K.B o ",
"o A I.S.g.u.u.u.u.u.2.g.g.u.u.u.u.[ t f _ _ _ _ _ ! R R ! _ _ _ _ _ _ ! ! ! R H H R H H g t [ u.2.2.2.g.g.<.g.g.g.g.g.g.g.P.Z o ",
"o A I.S.g.u.u.u.u.2.2.g.g.u.u.u.u.} t f _ _ | | _ ! ! ! _ _ | | | | | [ ! [ R R R ! R R f t [ u.2.u.2.g.g.<.g.g.g.g.g.g.g.J.B o ",
"o A I.S.g.u.u.u.u.u.2.g.g.u.2.u.u.#.t g _ | | | | _ _ _ | | | | | | | | _ [ ! ! [ ! R H f t } u.2.u.2.g.g.<.g.g.g.g.g.g.g.P.Z o ",
"o A I.S.g.g.k.u.u.u.u.g.g.u.2.u.u.#.t g | X.| | | | | | | | X.X.X.| | | | _ [ ! [ ! R R f t #.u.2.u.2.g.g.<.g.g.g.g.g.g.u.P.A o ",
"o A I.S.k.n.V.u.u.u.u.g.g.2.2.2.u.#.t g | | | | | | | X.| | | | | | | | | | _ [ [ ! R R f t #.g.g.2.u.u.g.<.g.g.g.g.g.g.u.P.A o ",
"o A I.S.S.S.n.u.u.u.2.g.B.g.2.2.g.#.t g | | | | | _ _ | | | | | | | | | | | | | _ ! ! ! g f =.g.g.u.u.u.2.g.g.g.g.g.g.g.u.P.A o ",
"o A I.S.S.n.g.u.2.2.2.g.n.g.g.g.g.#.f g [ | | | _ Z Z Z _ | | | #.X.X.X.X.X.| | _ _ ! R g g =.k.g.4.u.8.<.g.g.g.g.g.g.g.u.P.A o ",
"o A I.S.S.n.u.2.2.2.2.g.N.N.n.g.g.=.m k m ! | _ Z b b B Z H H R | X.X.X.X.X.X.X.| _ H m k N 4.n.g.g.g.u.2.g.g.g.g.g.g.g.u.P.A o ",
"o A I.S.S.k.u.u.2.2.2.n.N.S.S.n.g.4.#.m f m B M z k k k k z z c N V V V V V V B B B m f N <.N.n.g.g.g.g.g.<.g.g.g.g.g.g.u.P.A o ",
"o A I.S.k.u.u.u.2.2.2.g.N.D.S.n.g.g.4.#.N g t w w q q q q q q w t t t t t t t t t t g V =.N.S.n.g.g.g.g.g.<.g.g.g.g.g.g.u.P.A o ",
"o A I.S.g.u.u.u.2.2.u.g.n.D.S.n.g.g.g.g.=.N m m m m m m m m m m m m m m m m m m m m V 4.N.N.n.g.g.g.g.g.g.u.g.g.g.g.g.g.u.P.A o ",
"o M H.F.k.u.u.u.u.u.u.u.k.S.S.n.g.g.g.g.g.4.g.g.g.g.g.g.g.g.g.g.4.g.g.g.g.g.g.g.g.g.N.S.N.B.g.g.g.g.g.g.g.g.g.g.g.g.g.g.N.N.m o ",
"o d [ H.N.g.u.2.u.u.u.<.u.g.n.N.B.g.B.g.g.g.g.g.g.g.g.g.g.g.g.g.g.B.B.B.B.B.B.B.B.B.N.n.B.B.B.g.g.g.g.g.g.g.g.g.g.g.g.n.N.! d o ",
"o 6 b ! B.H.n.g.u.u.u.;.$.<.B.N.N.B.B.B.B.B.g.g.g.g.g.g.g.g.g.g.g.B.B.B.B.B.B.B.B.B.B.B.B.B.B.g.g.g.g.g.g.g.g.g.g.g.S.g.H b 6 o ",
"o 6 c c | N.J.H.H.H.H.N.n.N.F.K.K.K.G.H.F.F.H.H.H.H.H.D.H.H.H.H.D.D.D.D.D.D.D.D.D.H.H.H.H.H.H.F.H.H.F.F.F.F.H.H.F.H.g.[ c c 6 o ",
"o 6 c c H <.P.P.K.P.P.J.F.H.H.H.F.F.F.F.F.F.F.S.S.S.N.N.N.N.N.N.N.N.S.S.D.D.S.N.N.N.S.S.S.S.S.S.H.S.H.S.H.S.S.S.S.S.$.Z c c 6 o ",
"o 6 c M *.N.n.n.k.g.g.&.| ! ! ! _ X.X.X.X.X.X._ ! ! ! R R R R R ! X.&.&.&.&.X._ R R R R R R ! _ R Y Z Z Z Y Y Y Y Y $.$.b c 6 o ",
"o 6 B <.N.n.8.<.| Y S Z C b b b Z Y S Z Z Z Z Z n n n n n n n n Z Z Z Z Z Z Z Z n b b b C C C b b n c c c b b b b b S X.*.B 6 o ",
"o d R g.&.X.| | Z b b n n n b b C Z Z Z n n n n n n n n n b n n n n n n C n n n n n b b b b b b b b n c c b b b b b n Z 8.H p o ",
"o j _ Z Z C C C b n n n n b b n b n n b b b b n b n n n n b b n n n n n n n n B n n n b b C C b b b b b b n n b b b b b Z _ j o ",
"o z @.n n n n n n n n n b b b b b b b b b b b b b b b b b b n b b b b b b b n n b b b b C Z Z n b b b n c c c b b b b b n _ z o ",
"o z @.C b n n n n n n n n b n n n n b b c d d d s s d s s s s s s s s s s s w w w w d b Z Z Z n b b b n c c c b b b b b n / l o ",
"o z @.C n n n n n n n n n n n n n n n z d 2 1 1 1 1 1 1 1 1 1 1 1 1 1 1 1 1 1 1 1 1 4 h b Z Z n b b b b c c b b b b b b b Y j o ",
"o z @.C n n n n n n n n n n b n b b z d 1 4 5 i d d d d d d d d d d d d d d d d d d i 6 h b Z b b b n b c c n n b b b b b G h o ",
"o j _ C b b n b n n n n b c c c b c s 2 4 i a h j l l l l l l l z z z z z z z z z z h p 6 d b b b b b c c c n n b b b b b Z h o ",
"o j Y C b b n b b n n n b c c c b z 1 & i p h l l l l l l l l z z z z z z z z z z z z z 4 6 z n b n b c b c n n b b b b b Z h o ",
"o h Y C n C C b b b b n n c c c b z 1 $ p h j l l l j l l l z z z z z z z z z z z z z z 6 4 z n n n n n b b b n b b b b b Z h o ",
"o h Y C C C C b b b n n n b c c b z 1 1 p h j l l l j j l l z z z z z z h h l z z z z z 6 2 z b b b b n c c b n b b b b b Z h o ",
"o h S C C C C b n n n n n n c c c l 1 2 h h j j l j j l l l l l l l l h h h h l z z z z 4 2 z c c c b b b b b b b b b b b C h o ",
"o h S C C C C b n n n n n n c c c j 2 2 h h h h j j j j l l l l l l h h h h h h j l j j 2 2 l c c c c b b b b b b b b b b C a o ",
"o h Z C C C C C n n n n n b v v c j 2 2 a h h h h j j j l l j h h h h h h h h h h h h h 2 2 j c c c c c b b b b b b b b b C a o ",
"o h Z C C C C C b n n n c v v v c j 1 2 a a a h h j j j l j j h h h h h h h h h h h h h 2 2 j c x x x c b b b b b b b b b C a o ",
"o h Z C C C C C b n n n c x x x x h 1 1 a a a h h j j j j j j j h h h h h h h h h h h h 2 1 j v c c c c c v v v b b b b c C a o ",
"o p C C C C C C n n n n c x z z x h 1 1 a a a a h h h j j j j j h h h h h h h h h h h h 2 1 h v x c c c v l l x b b b b c C a o ",
"o p C C C C C C C n n n c z z z z h 1 1 p a a a h h h h j j h h h h h h h a a a a a a a 1 , h x x z x z z l l x b b b b b C a o ",
"o p C C C C C C C n n n v l z z z h 1 1 p p p p h h h h h h h h h h h h a a a a a a a a 1 1 h z z z z z l l l x b n n b b C a o ",
"o p C C C C C C b n c v x l l l z h 6 2 6 p p p p h h h h h h h h h h h a a a a a a p i 4 4 h z z z z l l l l z v b b b b C a o ",
"o p C C C C C n c z z l l l l l z z z s 1 6 i i p d d d h h h d p p p p p p p p p p i 2 p l z z z z z l l l l l z c b b b C a o ",
"o p n C C C n c z l z z l l l l l z x c h 2 $ $ $ $ $ $ $ $ $ $ $ $ $ $ $ $ $ $ $ $ 1 d j z z z l l l l l l l l z c b b b C p o ",
"o p n C b b n z z z l l l l l l l l z c c d 6 6 6 6 6 6 6 6 6 6 6 6 6 6 6 6 6 6 6 6 w j z l z z l l z l l l l l z c b b b C p o ",
"o p n n v c n z l l l l l l l j l l l l x b b b b b b b b b b b b M M n b b b b b b b x l l z l l l l l l l l l z c b b b n p o ",
"o p n n b c z l l l l l l l j j l l l l l l z z z z z x b b b b b b b b b b b x z z x z l l l l l l l l l l l l z c b b b n p o ",
"= < p b n c z l l l l l l l l l l l l l l l l l j l j l z x x x x x x b b b c z l l l l l l l l l l l l l l l l l z z c b p 7 = ",
"> - < h c c z l l l l l l l l l l l l l l l l l j j j j l l l l l l z x v c x z l l l l l l l l l l l l l l l l l l z z h < - > ",
"> > ; O h c z l l l l l l l l l l l l l l l l l l l l l l l l l l l l l l l l l l l l l l l l l l l l l l l l l l l v h O ; > > ",
"> > : ; < p v l l l l l l l l j l l l l l l l l l l l l l l l l l l l l l l l l l l l l l l l l l l l l l l l l z n p < ; : > > ",
"> > > > - < i 5 5 5 5 5 5 5 5 3 2 2 2 2 2 2 2 2 2 2 2 2 2 2 2 2 2 2 2 2 2 2 2 2 2 2 2 2 2 2 2 2 2 2 2 2 2 2 2 2 2 6 < - > > > > ",
"> > > > > = o o o o o o o o o X                                                                                     * > > > > > "
};
