/* XPM */
static const char *Q29sbGVjdGFibGVfMg__[] = {
/* columns rows colors chars-per-pixel */
"64 64 154 2 ",
"   c #1D171D",
".  c #1E181D",
"X  c #221C1F",
"o  c #251F20",
"O  c #272121",
"+  c #2B2523",
"@  c #2E2824",
"#  c #312B25",
"$  c #3D2B25",
"%  c #4D4F14",
"&  c #4F5014",
"*  c #515316",
"=  c #555719",
"-  c #585418",
";  c #57581A",
":  c #595A1B",
">  c #666D17",
",  c #676D18",
"<  c #696E19",
"1  c #6D721A",
"2  c #72751B",
"3  c #76791E",
"4  c #787A1F",
"5  c #765C20",
"6  c #6B6F24",
"7  c #7E6525",
"8  c #6E7224",
"9  c #6E742E",
"0  c #747523",
"q  c #767A21",
"w  c #797C21",
"e  c #71762C",
"r  c #767A29",
"t  c #787C2C",
"y  c #747732",
"u  c #747833",
"i  c #7B7E32",
"p  c #757A3A",
"a  c #787C3D",
"s  c #757C43",
"d  c #9E6C20",
"f  c #847822",
"g  c #98743F",
"h  c #957A29",
"j  c #A67B24",
"k  c #D76D26",
"l  c #C57E3D",
"z  c #C2753B",
"x  c #895644",
"c  c #8D5C45",
"v  c #875442",
"b  c #906147",
"n  c #926348",
"m  c #B66B4F",
"M  c #B57144",
"N  c #B76D50",
"B  c #B86F51",
"V  c #BA7452",
"C  c #BD7B55",
"Z  c #7E8125",
"A  c #7F8134",
"S  c #7F843F",
"D  c #7D8243",
"F  c #7D8352",
"G  c #EAA331",
"H  c #FAAF3A",
"J  c #FAE23A",
"K  c #81834C",
"L  c #86894D",
"P  c #888F66",
"I  c #848D6A",
"U  c #9B8C64",
"Y  c #899066",
"T  c #8A936E",
"R  c #94946A",
"E  c #98976E",
"W  c #9A996F",
"Q  c #9C8F71",
"!  c #8B937A",
"~  c #989877",
"^  c #9D9B7B",
"/  c #989371",
"(  c #A68C64",
")  c #A28E6C",
"_  c #A5916D",
"`  c #A89270",
"'  c #A39D7F",
"]  c #C68543",
"[  c #C08357",
"{  c #EAA543",
"}  c #F89F64",
"|  c #FCA16E",
" . c #E5A273",
".. c #E7AE7F",
"X. c #FEA370",
"o. c #E7B07F",
"O. c #FAE44C",
"+. c #8F9881",
"@. c #9E9B8F",
"#. c #959B88",
"$. c #A39D83",
"%. c #96A097",
"&. c #9DA19C",
"*. c #A3A28A",
"=. c #AEA28F",
"-. c #A2A083",
";. c #AFA694",
":. c #AAA896",
">. c #9CA5A6",
",. c #B2AEA4",
"<. c #E7AB80",
"1. c #E7AA80",
"2. c #FBD3A2",
"3. c #FCD3A3",
"4. c #FBD4A2",
"5. c #FCD3A4",
"6. c #FDD3A5",
"7. c #FDD2A7",
"8. c #FED2A7",
"9. c #FED2A8",
"0. c #FED2A8",
"q. c #F7F4DF",
"w. c #F9F8DD",
"e. c #FAF8DF",
"r. c #FAF8DE",
"t. c #F9F8DE",
"y. c #FAF8E0",
"u. c #FAF9E1",
"i. c #FAF8E1",
"p. c #FAF9E3",
"a. c #FAF9E2",
"s. c #FBF9E4",
"d. c #FBF9E5",
"f. c #FAF9E4",
"g. c #FBFAE6",
"h. c #FBFAE7",
"j. c #FBFAE8",
"k. c #FBFAE9",
"l. c #FBFAEA",
"z. c #FCFBEB",
"x. c #FCFBEA",
"c. c #FCFBEC",
"v. c #FCFBED",
"b. c #FCFBEE",
"n. c #FCFBEF",
"m. c #FCFCEF",
"M. c #FCFCEF",
"N. c #FDFCF0",
"B. c #FDFCF2",
"V. c #FDFCF3",
"C. c #FDFDF4",
"Z. c #FEFDF7",
"A. c #FDFDF3",
"S. c #FEFEF8",
/* pixels */
"2 2 2 2 2 2 2 2 2 2 2 2 2 2 2 2 2 2 2 2 2 2 2 2 2 2 2 2 2 2 2 2 2 2 2 2 2 2 2 2 2 2 2 2 2 2 2 2 2 2 2 2 2 2 2 2 2 2 2 2 2 2 2 2 ",
"2 2 2 2 2 2 2 2 2 2 2 2 2 2 2 2 2 2 2 2 2 2 2 2 2 2 2 2 2 2 2 2 2 2 2 2 2 2 2 2 2 2 2 2 2 2 2 2 2 2 2 2 2 2 2 2 2 2 2 2 2 2 2 2 ",
"2 2 2 2 2 2 2 2 2 2 2 2 2 2 2 2 2 2 2 2 2 2 2 2 2 2 2 2 2 2 2 2 2 2 2 2 2 2 2 2 2 2 2 2 2 2 2 2 2 2 2 2 2 2 2 2 2 2 2 2 2 2 2 2 ",
"2 2 2 2 2 2 2 2 2 2 2 2 2 2 2 2 2 2 2 2 2 2 2 2 2 2 2 2 2 2 2 2 2 2 2 2 2 2 2 2 2 2 2 2 2 2 2 2 2 2 2 2 2 2 2 2 2 2 2 2 2 2 2 2 ",
"2 2 2 2 2 2 2 2 2 2 2 2 2 2 2 2 2 2 2 2 2 2 2 2 2 2 2 2 2 2 2 2 2 2 2 2 2 2 2 2 2 2 2 2 2 2 2 2 2 2 2 2 2 2 2 2 2 2 2 2 2 2 2 2 ",
"2 2 2 2 2 2 2 2 2 2 2 2 2 2 2 2 2 2 2 2 2 2 2 2 2 2 2 2 2 2 2 2 2 2 2 2 2 2 2 2 2 2 2 2 2 2 2 2 2 2 2 2 2 2 2 2 2 2 2 2 2 2 2 2 ",
"2 2 2 2 2 2 2 2 2 2 2 2 2 2 2 2 2 2 2 2 2 2 2 2 2 2 2 2 2 2 2 2 2 2 2 2 2 2 2 w 3 2 2 2 2 2 2 2 2 2 2 2 2 2 2 2 2 2 2 2 2 2 2 2 ",
"2 2 2 2 2 2 2 2 2 2 2 2 2 2 2 2 2 2 2 2 2 2 2 2 2 2 2 2 2 2 2 2 2 2 2 2 2 2 2 3 q 2 2 2 2 2 2 2 2 2 2 2 2 2 2 2 2 2 2 2 2 2 2 2 ",
"2 2 2 2 2 2 2 2 2 2 2 2 2 2 2 2 2 2 2 2 2 2 2 2 2 2 2 2 2 2 2 2 2 2 2 w Z w 3 1 1 2 2 2 2 2 2 2 2 2 2 2 2 2 2 2 2 2 2 2 2 2 2 2 ",
"2 2 2 2 2 2 2 2 2 2 2 2 2 2 2 2 2 2 2 2 2 2 2 2 2 2 2 2 2 2 2 2 2 2 2 2 q w w 1 > 1 w Z w 2 2 2 2 2 2 2 2 2 2 2 2 2 2 2 2 2 2 2 ",
"2 2 2 2 2 2 2 2 2 2 2 2 2 2 2 2 2 2 2 2 2 2 2 2 2 2 2 2 2 2 2 2 2 3 w w 1 2 q 2 1 2 w w 3 2 2 2 2 2 2 2 2 2 2 2 2 2 2 2 2 2 2 2 ",
"2 2 2 2 2 2 2 2 2 2 2 2 2 2 2 2 2 2 2 2 2 2 2 2 2 2 2 2 2 2 2 2 2 2 3 w w 1 1 2 3 w q 2 2 2 2 2 2 2 2 2 2 2 2 2 2 2 2 2 2 2 2 2 ",
"2 2 2 2 2 2 2 2 2 2 2 2 2 2 q A i 2 2 2 2 2 2 2 2 2 2 2 2 2 2 2 2 2 1 1 q 2 1 > 1 3 1 1 2 2 2 2 2 2 2 2 2 2 2 2 2 2 2 2 2 2 2 2 ",
"2 2 2 2 2 2 2 2 2 2 2 2 2 q L ;.' i 2 2 2 2 2 2 2 2 2 2 2 2 2 2 2 2 2 1 1 2 2 1 < < 1 2 2 2 2 2 2 2 2 2 2 2 2 2 2 2 2 2 2 2 2 2 ",
"2 2 2 2 2 2 2 2 2 2 2 2 2 i $.( _ R 2 2 2 2 2 2 2 2 2 2 2 2 2 2 2 2 2 2 1 1 3 q 2 2 2 2 2 2 2 2 2 2 2 2 2 2 2 2 2 2 2 2 2 2 2 2 ",
"2 2 2 2 2 2 2 2 2 2 2 2 2 2 y $.R < 2 2 2 2 2 2 2 2 2 2 2 2 2 2 2 2 2 2 2 2 3 1 1 2 2 2 2 2 2 2 2 2 2 2 2 2 2 2 2 2 2 2 2 2 2 2 ",
"2 2 2 2 2 2 2 2 2 2 2 2 2 2 1 , < 2 2 2 2 2 2 2 2 2 2 2 2 2 2 2 2 2 2 2 2 2 1 1 2 2 2 2 2 2 2 2 2 2 2 2 2 2 2 2 3 3 2 2 2 2 2 2 ",
"2 2 2 2 2 2 2 2 2 2 2 2 2 2 2 2 2 2 2 2 2 2 2 2 2 2 2 2 2 2 2 2 2 2 2 2 2 2 2 2 2 2 2 2 2 2 2 2 2 2 2 2 2 2 2 q Z w 2 2 2 2 2 2 ",
"2 2 2 2 2 2 2 2 2 2 2 2 2 2 2 2 2 2 2 2 2 2 2 2 2 2 2 2 2 2 2 2 2 2 2 2 2 2 2 2 2 2 2 2 2 2 2 2 2 2 2 2 2 2 q w w 2 2 2 2 2 2 2 ",
"2 2 2 2 2 2 2 2 2 2 2 2 2 2 2 2 2 2 2 2 2 3 3 3 3 3 3 3 4 4 w w w 4 3 3 3 3 3 3 3 2 2 2 2 2 2 2 2 2 3 2 2 D L r 1 2 2 2 2 2 2 2 ",
"2 2 2 2 2 2 2 2 2 2 2 2 2 2 2 2 2 2 2 2 3 3 3 3 3 4 w w w w w w w w w w 4 3 3 3 3 3 2 2 2 2 2 2 2 2 Z 3 D #.@.F q 2 2 2 2 2 2 2 ",
"2 2 2 2 2 2 2 2 2 2 2 2 2 2 2 2 2 2 2 2 3 3 3 4 X X o O O O O O O O O o X X X . . 3 3 2 2 2 2 2 2 1 w w I Q ) ! t 2 2 2 2 2 2 2 ",
"2 2 2 2 2 2 2 2 2 2 2 2 2 2 2 2 2 2 2 2 3 3 4 X N C.C.B.B.B.B.B.B.B.B.C.C.C.C.S.0.. 3 3 2 2 2 2 2 2 2 q , I ! 6 < 2 2 2 2 2 2 2 ",
"2 2 2 2 2 2 2 2 2 2 2 2 2 2 2 2 2 2 2 2 ] ] X 7.7.V V B.B.m.m.m.m.B.B.B.B.C.7.0.0.X.. 3 3 2 2 2 2 2 1 2 , < 1 > 2 2 2 2 2 2 2 2 ",
"2 2 2 2 2 2 2 2 2 2 2 2 2 2 2 2 2 2 2 3 H k o 7.V <.<.V n.n.n.n.n.n.7.7.7.7.7.X.X.X.. & 3 2 2 2 2 2 2 1 < q 2 1 2 2 2 2 2 2 2 2 ",
"2 2 2 2 2 2 2 2 2 2 2 2 2 2 2 2 2 2 ] H q.J H  .7.V V V C C C C C C V V V V V V o X * * & 3 2 2 2 2 2 2 2 3 1 2 2 2 2 2 2 2 2 2 ",
"2 2 2 2 2 2 2 2 2 2 2 2 2 2 2 2 2 2 ] k J J k  .n.7.3.2.4.4.4.o.............<.+ = = = * & 3 2 2 2 2 2 2 2 2 2 2 2 2 2 2 2 2 2 2 ",
"2 2 2 2 2 2 2 2 2 2 2 2 2 2 2 2 2 3 3 w H k B.m.n.z.k.h.h.h.h.h.h.h.h.k.z.7.7.@ : = = * 3 3 2 2 2 2 2 2 2 2 2 2 2 2 2 2 2 2 2 2 ",
"2 2 2 2 2 2 2 2 2 2 2 2 2 2 2 2 2 3 4 w ] M B.n.z.v x C a.c c c a.c x C k.z.7.@ : = w w 3 3 3 2 2 2 2 2 2 2 2 2 2 2 2 2 2 2 2 2 ",
"2 2 2 2 2 2 2 2 2 2 2 2 2 2 2 2 2 3 w w w + m.n.z.h.h.a.a.e.e.e.a.a.a.h.h.k.7.@ : ; w w 3 3 3 2 2 2 2 2 2 2 2 2 2 2 2 2 2 2 2 2 ",
"2 2 2 2 2 2 2 2 2 2 2 2 2 2 2 2 2 3 w w w @ n.n.k.x c c c b [ b b e.c c h.k.3.# : : w w 3 3 3 2 2 2 2 2 2 2 2 2 2 2 2 2 2 2 2 2 ",
"2 2 2 2 2 2 2 2 2 2 2 2 2 2 2 2 2 3 w w w @ n.z.k.h.a.a.e.e.e.e.e.e.a.a.h.k.3.# : : w w 4 3 3 2 2 2 2 2 2 2 2 2 2 2 2 2 2 2 2 2 ",
"2 2 2 2 2 2 2 2 2 2 2 2 2 2 2 2 2 3 w w w @ n.z.k.x c c e.e.n n b [ a.c h.h.3.# : : w w 4 3 3 2 2 2 2 2 2 2 2 2 2 2 2 2 2 2 2 2 ",
"2 2 2 2 2 2 2 2 2 2 2 2 2 2 2 2 2 3 w w w @ n.z.k.h.a.a.e.e.e.e.e.e.a.a.h.k.3.# : : w w 4 3 3 2 2 2 2 2 2 2 2 2 2 2 2 2 2 2 2 2 ",
"2 2 2 2 2 2 2 2 2 2 2 2 2 2 2 2 2 3 w w w @ n.n.k.x c c [ [ b e.b e.c c h.k.3.# : : w w 3 3 3 2 2 2 2 2 2 2 2 2 2 2 2 2 2 2 2 2 ",
"2 2 2 2 2 2 2 2 2 2 2 2 2 2 2 2 2 3 w w w + m.n.k.h.h.a.a.a.e.e.a.a.a.h.h.k.3.# : ; w w 3 3 3 2 2 2 2 2 2 2 2 2 2 2 2 2 2 2 2 2 ",
"2 2 2 2 2 2 2 2 2 2 2 2 2 2 2 2 2 3 4 w w + B.n.z.k.h.h.a.a.a.a.a.a.h.h.k.z.3.@ : ; w w 3 3 3 2 2 2 2 2 2 2 2 2 2 2 2 2 2 2 2 2 ",
"2 2 2 2 2 2 2 2 2 2 2 2 2 2 2 2 2 3 3 w w O B.m.n.z.k.h.h.a.a.C C x x x z.n.7.@ : = w 4 3 3 3 2 2 2 2 2 2 2 2 2 2 2 2 2 2 2 2 2 ",
"2 2 2 2 2 2 2 2 2 2 2 2 2 2 2 2 2 3 3 w w O B.B.n.n.z.k.h.h.h.h.h.h.k.z.n.7.7.+ ; = w 3 3 3 2 2 2 2 2 2 2 2 2 2 w 2 2 2 2 2 2 2 ",
"2 2 2 2 2 2 2 2 2 2 2 2 2 2 2 2 2 3 3 4 w o C.B.7.7.7.3.3.2.4.4.2.3.......<.<.O = = 4 3 3 3 2 2 2 2 2 w w 3 2 2 w 3 2 2 2 2 2 2 ",
"2 2 2 2 2 2 2 2 2 2 2 2 2 2 2 2 2 3 3 3 4 X C.7.V V V V V V V V V V V V V V V B X = 3 3 3 2 2 2 2 2 2 3 Z w 3 2 1 q 2 2 w 2 2 2 ",
"2 2 2 2 2 2 2 2 2 2 2 2 2 2 2 2 2 2 3 3 3 X 0.B <.<.V 7.B.m.n.n.m.m.B.B.B.C.C.0.X.X 3 3 3 2 2 2 2 2 2 2 1 q w T ! r 3 3 1 2 2 2 ",
"2 2 2 2 2 2 2 2 2 2 2 w 2 2 2 2 2 2 3 3 3 X 0.0.N <.V 7.B.B.B.B.B.B.B.C.C.C.0.0.| $ - 3 2 2 2 2 2 2 2 w 2 1 q U >.r q w , 2 2 2 ",
"2 2 2 2 2 2 w w 3 2 2 w 3 2 2 2 2 2 2 3 3 . 0.0.0.N 7.C.C.C.C.C.C.C.C.C.0.0.0.0.} z 5 % 2 2 2 2 2 2 2 1 E ~ e 0 s 2 1 1 1 2 2 2 ",
"2 2 2 2 2 2 3 Z w 3 2 1 q 2 i +.P 2 2 2 3 3 . m N 0.0.0.0.7.7.7.7.0.0.0.0.X.X.} g { j 7 2 2 2 2 2 2 2 R _ ) ^ 8 / ^ 0 1 2 2 2 2 ",
"2 2 2 2 2 2 2 1 w w 2 < 2 3 S &.Q Y 2 2 2 3 3   . . X X X X X X X X X X . .   z { O.G l 2 2 2 2 2 2 2 a $.=.K ~ _ ,.r 2 2 2 2 2 ",
"2 2 2 2 2 2 w 2 1 w q t -.W r F &.#.2 2 2 2 2 3 & & & * * * * * * * * & & & & 5 j G d f 2 2 2 2 2 2 2 1 p a 2 :.;.D 2 2 2 2 2 2 ",
"2 2 2 2 2 2 1 q 2 1 A ' ( _ E 8 p u 2 2 2 2 2 2 2 % & & & & & & & & & & % % % % 7 l h 2 2 2 2 2 2 2 2 2 1 1 2 p a 1 2 2 2 2 2 2 ",
"2 2 2 2 2 2 1 1 q > 1 K ;.$.u i $.R 2 2 2 2 2 2 2 2 2 2 3 3 3 3 3 3 2 2 2 2 2 2 2 2 2 2 2 2 2 2 2 2 2 2 2 2 2 1 1 2 2 2 2 2 2 2 ",
"2 2 2 2 2 2 2 2 2 1 1 2 p u i $.( _ R 2 2 2 2 2 2 2 2 2 2 2 2 2 2 2 2 2 2 2 2 2 2 2 2 2 2 2 2 2 2 2 2 2 2 2 2 2 2 2 2 2 2 2 2 2 ",
"2 2 2 2 2 2 2 r #.! 2 2 i *.~ K ;.^ e 2 2 2 2 2 2 2 2 2 2 2 2 2 2 2 2 2 2 2 2 2 2 2 2 2 2 2 2 2 2 2 2 2 2 2 2 2 2 2 2 2 2 2 2 2 ",
"2 2 2 2 2 2 2 q ) %.2 i $.` *.0 u e 2 2 2 2 2 2 2 2 2 2 2 2 2 2 2 2 2 2 2 2 2 2 2 2 2 2 2 2 2 2 2 2 2 2 2 2 2 2 2 2 2 2 2 2 2 2 ",
"2 2 2 2 2 2 2 2 6 9 2 A ,.$.e 2 1 2 2 2 2 2 2 2 2 2 2 2 2 2 2 2 2 2 2 2 2 2 2 2 2 2 2 2 2 2 2 2 2 2 2 2 2 2 2 2 2 2 2 2 2 2 2 2 ",
"2 2 2 2 2 2 2 2 2 2 2 2 e e 2 2 2 2 2 2 2 2 2 2 2 2 2 2 2 2 2 2 2 2 2 2 2 2 2 2 2 2 2 2 2 2 2 2 2 2 2 2 2 2 2 2 2 2 2 2 2 2 2 2 ",
"2 2 2 2 2 2 2 2 2 2 2 2 2 2 2 2 2 2 2 2 2 2 2 2 2 2 2 2 2 2 2 2 2 2 2 2 2 2 2 2 2 2 2 2 2 2 2 2 2 2 2 2 2 2 2 2 2 2 2 2 2 2 2 2 ",
"2 2 2 2 2 2 2 2 2 2 2 2 2 2 2 2 2 2 2 2 2 2 2 2 2 2 2 2 2 2 2 2 2 2 2 2 w Z 3 2 2 2 2 2 2 2 2 2 2 2 2 2 2 2 2 2 2 2 2 2 2 2 2 2 ",
"2 2 2 2 2 2 2 2 2 2 2 2 2 2 2 2 2 2 2 2 2 2 2 2 2 2 2 2 2 2 2 2 2 2 2 2 2 w w q 2 2 2 w Z 3 2 2 2 2 2 2 2 2 2 2 2 2 2 2 2 2 2 2 ",
"2 2 2 2 2 2 2 2 2 2 2 2 2 2 2 2 2 2 2 2 2 2 2 2 2 2 2 2 2 2 2 2 2 2 2 2 2 1 2 w 2 2 3 Z 3 2 2 2 2 2 2 2 2 2 2 2 2 2 2 2 2 2 2 2 ",
"2 2 2 2 2 2 2 2 2 2 2 2 2 2 2 2 2 2 2 2 2 2 2 2 2 2 2 2 2 2 2 2 2 2 2 2 2 2 1 , 1 3 w w 2 2 2 2 2 2 2 2 2 2 2 2 2 2 2 2 2 2 2 2 ",
"2 2 2 2 2 2 2 2 2 2 2 2 2 2 2 2 2 2 2 2 2 2 2 2 2 2 2 2 2 2 2 2 2 2 2 2 2 2 2 2 2 3 w 1 1 2 2 2 2 2 2 2 2 2 2 2 2 2 2 2 2 2 2 2 ",
"2 2 2 2 2 2 2 2 2 2 2 2 2 2 2 2 2 2 2 2 2 2 2 2 2 2 2 2 2 2 2 2 2 2 2 2 2 2 2 2 2 1 , 1 2 2 2 2 2 2 2 2 2 2 2 2 2 2 2 2 2 2 2 2 ",
"2 2 2 2 2 2 2 2 2 2 2 2 2 2 2 2 2 2 2 2 2 2 2 2 2 2 2 2 2 2 2 2 2 2 2 2 2 2 2 2 2 2 2 2 2 2 2 2 2 2 2 2 2 2 2 2 2 2 2 2 2 2 2 2 ",
"2 2 2 2 2 2 2 2 2 2 2 2 2 2 2 2 2 2 2 2 2 2 2 2 2 2 2 2 2 2 2 2 2 2 2 2 2 2 2 2 2 2 2 2 2 2 2 2 2 2 2 2 2 2 2 2 2 2 2 2 2 2 2 2 ",
"2 2 2 2 2 2 2 2 2 2 2 2 2 2 2 2 2 2 2 2 2 2 2 2 2 2 2 2 2 2 2 2 2 2 2 2 2 2 2 2 2 2 2 2 2 2 2 2 2 2 2 2 2 2 2 2 2 2 2 2 2 2 2 2 "
};
