/* XPM */
static const char *RW5lbXlfQXR0YWNrX0xlZnRfMQ__[] = {
/* columns rows colors chars-per-pixel */
"64 64 217 2 ",
"   c #3F1C0E",
".  c #212E11",
"X  c #253314",
"o  c #2A3917",
"O  c #2C3B19",
"+  c #2B3619",
"@  c #323D1C",
"#  c #3A3D1C",
"$  c #3C200F",
"%  c #28292D",
"&  c #352C2B",
"*  c #382B29",
"=  c #38362A",
"-  c #2C2D31",
";  c #302E31",
":  c #2F3035",
">  c #34353B",
",  c #37383E",
"<  c #393C36",
"1  c #2E362A",
"2  c #4C2313",
"3  c #512615",
"4  c #512C1F",
"5  c #49371B",
"6  c #65331F",
"7  c #6A331E",
"8  c #4A2E25",
"9  c #452D26",
"0  c #49312B",
"q  c #5B3726",
"w  c #443A3A",
"e  c #583C34",
"r  c #6D3521",
"t  c #663824",
"y  c #733A24",
"u  c #743B26",
"i  c #623F33",
"p  c #2F401A",
"a  c #32431C",
"s  c #354A1D",
"d  c #394D1E",
"f  c #374716",
"g  c #354223",
"h  c #3D4A29",
"j  c #3D5321",
"k  c #3B403C",
"l  c #4B4D12",
"z  c #49481C",
"x  c #4E5012",
"c  c #47571A",
"v  c #535514",
"b  c #565915",
"n  c #5A5C15",
"m  c #585B1A",
"M  c #5E6116",
"N  c #5A6516",
"B  c #616317",
"V  c #646A17",
"C  c #646619",
"Z  c #666A18",
"A  c #6A6D19",
"S  c #6E721A",
"D  c #72751B",
"F  c #76791F",
"G  c #454B2A",
"H  c #4B4E2A",
"J  c #584426",
"K  c #425B24",
"L  c #46562A",
"P  c #585923",
"I  c #464838",
"U  c #475736",
"Y  c #555737",
"T  c #7C412B",
"R  c #72472C",
"E  c #655C28",
"W  c #6C4131",
"Q  c #7D4732",
"!  c #6C5A3D",
"~  c #4E6D2A",
"^  c #496428",
"/  c #506E2D",
"(  c #53722C",
")  c #58742F",
"_  c #596A35",
"`  c #5A7633",
"'  c #6D6D24",
"]  c #686D2B",
"[  c #766C2C",
"{  c #677825",
"}  c #767A21",
"|  c #7A7C22",
" . c #7D7B29",
".. c #757627",
"X. c #6B6035",
"o. c #756535",
"O. c #647739",
"+. c #787B3B",
"@. c #3C3D45",
"#. c #423F45",
"$. c #3F4048",
"%. c #41424A",
"&. c #474545",
"*. c #4A5541",
"=. c #5D5355",
"-. c #524849",
";. c #6B5F44",
":. c #685859",
">. c #735D57",
",. c #596649",
"<. c #696444",
"1. c #737C42",
"2. c #797F47",
"3. c #6A6956",
"4. c #796357",
"5. c #7B7257",
"6. c #756E50",
"7. c #786761",
"8. c #7A7A73",
"9. c #767467",
"0. c #83452E",
"q. c #884932",
"w. c #864B35",
"e. c #8B553B",
"r. c #91533B",
"t. c #857C31",
"y. c #8B7D39",
"u. c #817435",
"i. c #855543",
"p. c #925A47",
"a. c #975E51",
"s. c #836C42",
"d. c #8A6D4B",
"f. c #9E624C",
"g. c #96664C",
"h. c #8C744B",
"j. c #97774A",
"k. c #856959",
"l. c #9A6755",
"z. c #8B7359",
"x. c #947B51",
"c. c #93755B",
"v. c #997857",
"b. c #A2644E",
"n. c #A26A53",
"m. c #AA6D58",
"M. c #AC735B",
"N. c #A57D5A",
"B. c #B0735D",
"V. c #987867",
"C. c #8C756A",
"Z. c #AC7A68",
"A. c #B57B65",
"S. c #B57C68",
"D. c #7A941D",
"F. c #7A8C0E",
"G. c #7E8125",
"H. c #6C8A25",
"J. c #6A8448",
"K. c #7D8246",
"L. c #7D865A",
"P. c #778665",
"I. c #849B14",
"U. c #92AB17",
"Y. c #8C803A",
"T. c #92813E",
"R. c #B3C507",
"E. c #CCDF05",
"W. c #D1E504",
"Q. c #ECFF00",
"!. c #82844C",
"~. c #948142",
"^. c #9B834A",
"/. c #998657",
"(. c #8C8554",
"). c #A38453",
"_. c #A78859",
"`. c #A98357",
"'. c #858E68",
"]. c #85926D",
"[. c #94946A",
"{. c #899377",
"}. c #989976",
"|. c #9B8C6A",
" X c #AD8365",
".X c #A58169",
"XX c #AD8469",
"oX c #AD8B6B",
"OX c #A68A65",
"+X c #B38C64",
"@X c #B38A6C",
"#X c #BC846C",
"$X c #A6916D",
"%X c #B8916C",
"&X c #AE8376",
"*X c #BB9176",
"=X c #B19376",
"-X c #9BA67A",
";X c #929589",
":X c #B9978E",
">X c #A09D9D",
",X c #AA9282",
"<X c #A9A498",
"1X c #AEAC92",
"2X c #9CA5A6",
"3X c #ABADA5",
"4X c #B1AFAF",
"5X c #B2A9A2",
"6X c #B1B5AB",
"7X c #99AA85",
"8X c #D0AB9C",
"9X c #D5AEA0",
"0X c #CBB5AC",
"qX c #BAC19B",
"wX c #C4C7BF",
"eX c #D4C8C4",
"rX c gray82",
/* pixels */
"D D D D D D D D D D D D D D D D D D D D D D D D D D D D D D D D D D D D D D D D D D D D D D D D D D D D D D D D D D D D D D D D ",
"D D D D D D D D D D D D D D D D D D D D D D D D D D D D D D D D D D D D D D D D D D D D D D D D D D D D D D D D D D D D D D D D ",
"D D D D D D D D D D D D D D D D D D D D D D D D D D D D D D D D D D D D D D D D D D D D D D D D D D D D D D D D D D D D D D D D ",
"D D D D D D D D D D D D D D D D D D D D D D D D D D D D D D D D D D D D D D D D D D D D D D D D D D D D D D D D D D D D D D D D ",
"D D D D D D D D D D D D D D D D D D D D D D D D D D D D D D D D D D D D D D D D D D D D D D D D D D D D D D D D D D D D D D D D ",
"D D D D D D D D D D D D D D D D D D D D D D D D D D D D D D D D D D D D D D D D D D D D D D D D D D D D D D D D D D D D D D D D ",
"D D D D D D D D D D D D D D D D D D D D D D D D D D D D D D D D D D D D D D D | F D D D D D D D D D D D D D D D D D D D D D D D ",
"D D D D D D D D D D D D D D D D D D D D D D D D D D D D D D D D D D D D F D D F } F D D D D D D D D D D D D D D D D D D D D D D ",
"D D D D D D D D D D D D D D D D D D D D D D D D D D ~.oXj.D D D D D D } G.| F S S D D F D D D D D D D D D D D D D D D D D D D D ",
"D D D D D D D D D D D D D D D D D D D D D D D D t._.OX7.V.D D D D D D D } | } S V S | G.| D D D D D D D D D D D D D D D D D D D ",
"D D D D D D D D D D D D D D D D D D D D D D D y.k.7.>.%.C.D D D D F | } S D } F S D } | F D D D D D D D D D D D D D D D D D D D ",
"D D D D D D D D D D D D D D D D D D D D D D S +X>.$.%.:.c.D D D D D F | _.OXV.x. .} } D D D D D D D D D D D D D D D D D D D D D ",
"D D D D D D D D D D D D D D } /.*XT.D D S A y.@X:.@.&.@XT.D D D ~.%X@X%X/.~ s 6.).F S S D D D D D D D D D D D D D D D D D D D D ",
"D D D D D D D D D D D D D } /.:XK.OXD S Z [ c.:.#.> &.@XD D D T./.1.1.1._ s O 6./.A S D D D D D D D D D D D D D D D D D D D D D ",
"D D D D D D D D D D D D D Y.0X1X` =XD A [ x.5.@.> < Y @XD /././.2./ K K d O ;.h. .D D D D D D D D D D D D D D D D D D D D D D D ",
"D D D D D D D D D D D S A ).0X3X/ /./.[ OX!.^ < < U O.OXoX/.( ( / K p O a Y _.t.S D D D D D D D D D D D D D D D D D D D D D D D ",
"D D D D D D D D D D S Z ' ).:X8.a ^ (.x.1.) ( / / ( ( ` L G ( ( K O O O Y  Xy.S D D D D D D D D D D D D D D D D F F D D D D D D ",
"D D D D D D D D D D Z n /.0X5X8.@ ^ _ X.) ( ( ( ( ( ~ j K ^ ( K a O O <.h.Y.D D D D D D D D D D D D D D D D D } G.| D D D D D D ",
"D D D D D D D D D A B v *XeX4X8.@ j K c D.H.~ K D.U.D.f K ~ K a O a ! x.t.D D D D D D D D D D D D D D D D D } } | D D D D D D D ",
"D D D D D D D D S Z n x *XeX4X8.h O d { W.U.^ O R.Q.W.c K K O O @ Y  Xt.D D D D D D D D D D D D D D F D D G.!...S D D D D D D D ",
"D D D D D D D D A B v l *XeX4X;X6X,.O c E.I.a O R.Q.W.c a a O O ;.x.~.D D D D D D D D D D D D D D D G.F K.;X>XL.} D D D D D D D ",
"D D D D D D D D Z n x l *XeX4X>XrX3.O f F.N a j I.U.F.f O O O <.h.t.D D D D D D D D D D D D D D D S | | '.|.$X{. .D D D D D D D ",
"D D D D D D D D Z n l l *XeX4X>XrX9.G O a s j ( ~ j O O o o O v.). .D D D D D D D D D D D D D D D D D } Z '.{.' A D D D D D D D ",
"D D D D D D D D Z n l l *XeX4X>XrX8Xd.p ^ ( ( ( d O O O X . O R M.).t.D D D D D D D D D D D D D D D S D Z A S V D D D D D D D D ",
"D D D D D D D D Z n l l *XeX4X>XrX9Xh.c.O.( ~ d p X g ].Y . O t w.m.).D D D D D D D D D D D D D D D D S A } D S D D D D D D D D ",
"D D D D D D D D Z n l l *XeX4X>XrX9Xl @XO.^ j O O X O P.U X O 5 t r.M.).D D D D D D D D D D D D D D D D D F S D D D D D D D D D ",
"D D D D D D D D Z n l l *X0X3X<XwX8Xl @XO.j O O o O O . X O O O J q.q.A.D D D D D D D D D D D D D D D D D D D D D D D D D D D D ",
"D D D D D D D D Z n l l @X<.;X6XJ.=Xo.XXH O O O X ,.7Xh O O O O J q.q.A.D D D D D D D D D D D D D D D D D D D D D D D D D D D D ",
"D D D D D D D D Z n l l u.d.k.5.( 2.x.XXG X h ].h G 3.g O # J J R q.q.A.D D D D D D D D D D D D D D D D D D D D D D D D D D D D ",
"D D D D D D D D Z n l h..X.X! z ( J.[.$XG X U 1X*.+ O O @ q q.q.q.q.q.A.D D D D D D D D D D D D D D D D D D D D D D D D D D D D ",
"D D D D D D D D A n v c.O O K ( ( -XqX1XL O 1 %.%.k o O 5 y q.q.q.q.q.A.D D D D D D D D D D D D D D D D D D D D D D D D D D D D ",
"D D D D D D D D A B v h.c.G a d d L.-X}.h j L , @.k o O q 0.q.q.q.q.q.A.D D D D D D D D D D D D D D D D D D D D D D D D D D D D ",
"D D D D D D D A B n v l XXH O g _ L.}.'.h d j 1 , < 5 5 t T T 0.q.q.q.A.D D D D D D D D D D D D D D D D D D D D D D D D D D D D ",
"D D D D D D S Z M b v l XXH + G [.}.}.[.Y G h @ = 0 7 7 7 7 7 T 0.Q Q A.D D D D D D D D D D D D D D D D D D D D D D D D D D D D ",
"D D D D D D D A M v l l  Xq $ q oX*X*X*XXXXXd.6 t t 7 7 7 7 7 r e &.&.V.T.D D D D D D D D D D D D D D D D D D D D D D D D D D D ",
"D D D D D D D S C n l l  Xq   t XXl l l X.k.>.e 4 3 3 3 3 3 3 9 w %.%.:.z.~.D D D D D D D D D D D D D D D D D D D D D D D D D D ",
"D D D D D D D D Z n x x x.i.W i.x.b x.oXoX4.%.%.8 2 2 2 2 2 2 & > %.%.%.:.V.).D D D D D D D D D D D D D D D D D D D D D D D D D ",
"D D D D D D D D Z n x v ' ).+X).+X@X/.( ( U %.%.q 7 7 7 7 7 7 * > %.%.%.%.&.&X~.D D D D D D D D D D D D D D D D D D D D D D D D ",
"D D D D D D D D Z n v n Z S S _.2.1.<.*.*.&.%.%.q 7 r T 0.0.T * - : : @.%.%.=.C.T.D D D D D D D D D D D D D D D | D D D D D D D ",
"D D D D D D D D A C M C A D A oXL U *.%.%.%.@.> 0 q r 0.q.Q e & % % % , %.%.%.:.c.^.D D D D D D D D D } | F D D | F D D D D D D ",
"D D D D D D D D S A A Z Z Z M .Xg k %.%.%.$., % % 9 r 0.q.W % % % % % > @.@.%.%.=..X^.D D D D D D D D F G.| F D S } D D | D D D ",
"D D D D D D D D D D D A B n o.c.%.%.%.%.%.> % % % 9 r 0.q.i % % % % % % - - @.%.%.-.V.T.D D D D D D D D S } } ].{...F F S D D D ",
"D D D D D D D D D D D A b o.k.>.%.%.%.$.> - % % % 9 r 0.q.e.k.w % % % % % % : > > %.:.z.t.D D D D D D | D S } |.2X..} } Z D D D ",
"D D D D D D | | F D D A s.V.>.%.%.%.%.@.- % % % % 0 u 0.q.f. X>.w % % % % % % % - , @.7.+XD D D D D D S [.}.....1.D S S S D D D ",
"D D D D D D F G.} F A n @X=.%.%.%.%.%.@.- % % ; ; e q.q.q.b. Xs.4.- % % % % % % % % , 4.+XY.D D D D D [.$X$X}.' [.}.} S D D D D ",
"D D D D D D D S } D Z v XX-.: > %.%.@.- % % I c.Z.l.q.q.m.j.X.l d.V.: % % % % % & q i w.f. XD D D D D +.,X1X!.}.$X5X .D D D D D ",
"D D D D D D | D A A n P :X&.% - > @., % % -.4.o.E j.m.w.M.E l l l d.k.w % % % & 8 7 T q.r.#XD D D D D S +.+.' <X1XK.D D D D D D ",
"D D D D D D S } A n P 3.&X:.w & & w w & * k.j.o.v [ N.r.M.v x l l l s.>.w % % 8 7 7 T q.w.A.).D D D D D S S D +.+.S D D D D D D ",
"D D D D D D S S A v l Y C.,Xg.6 6 t t r T w.b. X[ Z #XT n.M v x l l l s.k.% % 8 7 7 T q.q.w.M.D D D D D D D D S S D D D D D D D ",
"D D D D D D D S Z n l l H c.l.7 7 7 7 7 y T r.b.N...^.M.j.A B v x l l l d.V.i q 7 7 y T q.q.B.D D D D D D D D D D D D D D D D D ",
"D D D D D D D ..;X9.v l c 9.c.p.a.T 7 7 7 u 0.q.n.j. .D D S A B v x l l l s.g.Q 7 7 7 u q.q.B. .D D D D D D D D D D D D D D D D ",
"D D D D D D D } |.;Xn P 3.;.C.N.Z.p.r 7 7 7 y 0.u f._.D D D D A M v x l l l s.g.y 7 7 u q.q.M.).t.D D D D D D D D D D D D D D D ",
"D D D D D D D D ' ] B P 8.3.z l E v.l.7 7 7 7 r m.x. .D D D D D A M v x l l l d.M.y 7 7 y 0.r.n._.). .D D D D D D D D D D D D D ",
"D D D D D D D D D A Z B P m l l l P e.7 7 7 7 7 S.D D D D D D D D A B v l l l l d.n.Q 7 7 u 0.r.m.M.j.Y.D D D D D D D D D D D D ",
"D D D D D D D D D D S A B n v l E v.f.7 7 7 y w.N.D D D D D D D D D A B v x l l l s.g.T 7 7 u 0.q.q.f.`.^.D D D D D D D D D D D ",
"D D D D D D D D D D D D S Z n x N.p.r 7 7 7 w.+X~.D D D D D D D D D D A C m v l l l h.n.7 7 7 y q.q.q.r.#XD D D D D D D D D D D ",
"D D D D D D D D D D D D D A n v E g.A.A.A.A.N.T.D D D D D D D D D D D S A Z m v l l l v.A.A.A.A.#X#X#XA.^.D D D D D D D D D D D ",
"D D D D D D D D D D D D S Z n x l l v n Z D D D D D D D D D D D D D D D D Z M m x l l v v v n C A D D D D D D D D D D D D D D D ",
"D D D D D D D D D D D D S Z n v v v n C S D D D D D D D D D D D D D D D D S V b v b m m v v n B A D D D D D D D D D D D D D D D ",
"D D D D D D D D D D D D S Z B B B B Z S D D D D D D D D D D D D D D D D D D S A C C Z M M B B Z A D D D D D D D D D D D D D D D ",
"D D D D D D D D D D D D D D S S S S S D D D D D D D D D D D D D D D D D D D D D S Z V A S S S S D D D D D D D D D D D D D D D D ",
"D D D D D D D D D D D D D D D D D D D D D D D D D D D D D D D D D D D D D D D D D D D D D D D D D D D D D D D D D D D D D D D D ",
"D D D D D D D D D D D D D D D D D D D D D D D D D D D D D D D D D D D D D D D D D D D D D D D D D D D D D D D D D D D D D D D D ",
"D D D D D D D D D D D D D D D D D D D D D D D D D D D D D D D D D D D D D D D D D D D D D D D D D D D D D D D D D D D D D D D D "
};
