/* XPM */
static const char *RW5lbXlfQXR0YWNrX1JpZ2h0XzI_[] = {
/* columns rows colors chars-per-pixel */
"64 64 230 2 ",
"   c #2D3D1A",
".  c #263415",
"X  c #373D1C",
"o  c #3D2116",
"O  c #29292D",
"+  c #392E2D",
"@  c #363639",
"#  c #2E2E33",
"$  c #4C2414",
"%  c #592A18",
"&  c #542A1A",
"*  c #4A3B1C",
"=  c #6A331E",
"-  c #64341E",
";  c #493629",
":  c #443A38",
">  c #553227",
",  c #6C3521",
"<  c #673928",
"1  c #743B25",
"2  c #753E2A",
"3  c #7A3F28",
"4  c #783E27",
"5  c #6B3F30",
"6  c #2F401A",
"7  c #32421C",
"8  c #374A1B",
"9  c #3A501F",
"0  c #3B4523",
"q  c #3B4D21",
"w  c #394727",
"e  c #3D5321",
"r  c #394135",
"t  c #4B4D12",
"y  c #4E5113",
"u  c #465C1E",
"i  c #535514",
"p  c #565914",
"a  c #5B5D16",
"s  c #585715",
"d  c #55431F",
"f  c #5E6116",
"g  c #566916",
"h  c #5A731E",
"j  c #616417",
"k  c #646619",
"l  c #666918",
"z  c #6A6D19",
"x  c #666C17",
"c  c #6D711A",
"v  c #72751B",
"b  c #76791F",
"n  c #474A28",
"m  c #594123",
"M  c #455827",
"N  c #5E5823",
"B  c #565833",
"V  c #4B5037",
"C  c #7D422C",
"Z  c #78492E",
"A  c #635B24",
"S  c #675D2B",
"D  c #6A4234",
"F  c #754433",
"G  c #635D3C",
"H  c #7A583A",
"J  c #4C642B",
"K  c #4E6B2A",
"L  c #476226",
"P  c #53692C",
"I  c #57752B",
"U  c #5B6836",
"Y  c #5B7532",
"T  c #6C6826",
"R  c #736A2B",
"E  c #6B7525",
"W  c #747523",
"Q  c #767A21",
"!  c #797C22",
"~  c #71762C",
"^  c #7A7E2A",
"/  c #797729",
"(  c #69663A",
")  c #736435",
"_  c #78693A",
"`  c #65773A",
"'  c #787934",
"]  c #3C3D44",
"[  c #483F41",
"{  c #3F4147",
"}  c #42424A",
"|  c #4A474B",
" . c #514C51",
".. c #575659",
"X. c #52494A",
"o. c #6E584E",
"O. c #5E6A52",
"+. c #6E6343",
"@. c #7A6949",
"#. c #6D7240",
"$. c #757943",
"%. c #6F6E51",
"&. c #5E5D61",
"*. c #7A7676",
"=. c #746667",
"-. c #83452E",
";. c #834934",
":. c #884931",
">. c #874F3A",
",. c #8C523D",
"<. c #827B2D",
"1. c #836D3E",
"2. c #897E35",
"3. c #877B37",
"4. c #907F3D",
"5. c #975E48",
"6. c #8D5744",
"7. c #846D4D",
"8. c #8B6346",
"9. c #99674B",
"0. c #88774A",
"q. c #957A4C",
"w. c #8A6754",
"e. c #9D6651",
"r. c #8A7653",
"t. c #9C7D55",
"y. c #987858",
"u. c #A56A54",
"i. c #A9765B",
"p. c #B0795F",
"a. c #A1634C",
"s. c #98766A",
"d. c #8A7476",
"f. c #896E64",
"g. c #A67B67",
"h. c #A67F73",
"j. c #B47963",
"k. c #7E8125",
"l. c #7E802E",
"z. c #7F8237",
"x. c #769122",
"c. c #7D8243",
"v. c #7D8352",
"b. c #798762",
"n. c #8E803A",
"m. c #878236",
"M. c #97AD11",
"N. c #D7EB05",
"B. c #C6DB09",
"V. c #878348",
"C. c #9B854B",
"Z. c #978549",
"A. c #8E8256",
"S. c #938455",
"D. c #9B8454",
"F. c #988359",
"G. c #989A58",
"H. c #A58A54",
"J. c #A4845B",
"K. c #AA8B5B",
"L. c #A58658",
"P. c #A48A56",
"I. c #868E68",
"U. c #9D8C64",
"Y. c #97966C",
"T. c #9D8972",
"R. c #8B937A",
"E. c #9D9C7A",
"W. c #9A9573",
"Q. c #889468",
"!. c #A38B6B",
"~. c #A88A63",
"^. c #B58B6A",
"/. c #AA9369",
"(. c #B6946C",
"). c #A98879",
"_. c #B88B72",
"`. c #A99777",
"'. c #B99877",
"]. c #9EA17D",
"[. c #A9A972",
"{. c #BBA17C",
"}. c #C39577",
"|. c #C88D78",
" X c #868584",
".X c #979B8A",
"XX c #92978D",
"oX c #A39E83",
"OX c #B99A85",
"+X c #B89C93",
"@X c #9BA09A",
"#X c #A5A588",
"$X c #B9A283",
"%X c #B4B287",
"&X c #ACA594",
"*X c #ADB08B",
"=X c #B2AEAA",
"-X c #B8B6B6",
";X c #B4ADAA",
":X c #9CA5A6",
">X c #C79B84",
",X c #C58A82",
"<X c #C5A389",
"1X c #C6A993",
"2X c #D1B29A",
"3X c #D7B8A6",
"4X c #CFB6AA",
"5X c #D1C2B8",
"6X c #E2C7BA",
"7X c #E5C9BC",
"8X c #E2C4B7",
"9X c #C9C8C8",
"0X c #DBCCC7",
"qX c #D8D7D8",
"wX c #EACDC3",
"eX c #EDD4CC",
"rX c #EAD1C9",
"tX c #EFD9D1",
"yX c #E9D7D1",
"uX c #F0DCD5",
"iX c #F2DFD9",
"pX c #F2E1DA",
"aX c #E8E6E6",
"sX c #F8EEEA",
"dX c #F5E9E5",
"fX c #F8F0ED",
"gX c #FBF5F3",
"hX c #FCF8F7",
"jX c #FFFFFF",
"kX c #F4F5F5",
/* pixels */
"v v v v v v v v v v v v v v v v v v v v v v v v v v v v v v v v v v v v v v v v v v v v v v v v v v v v v v v v v v v v v v v v ",
"v v v v v v v v v v v v v v v v v v v v v v v v v v v v v v v v v v v v v v v v v v v v v v v v v v v v v v v v v v v v v v v v ",
"v v v v v v v v v v v v v v v v v v v v v v v v v v v v v v v v v v v v v v v v v v v v v v v v v v v v v v v v v v v v v v v v ",
"v v v v v v v v v v v v v v v v v v v v v v v v v v v v v v v v v v v v v v v v v v v v v v v v v v v v v v v v v v v v v v v v ",
"v v v v v v v v v v v v v v v v v v v v v v v v v v v v v v v v v v v v v v v v v v v v v v v v v v v v v v v v v v v v v v v v ",
"v v v v v v v v v v v v v v v v v v v v v v v v v v v v v v v v v v v v v v v v v v v v v v v v v v v v v v v v v v v v v v v v ",
"v v v v v v v v v v v v v v v v v v v v v v v v v v v v v v v v v v v v v v v ! b v v v v v v v v v v v v v v v v v v v v v v v ",
"v v v v v v ^ l.l.l.m./.<X1X/.<.v v v v v v v v v v v v v v v v v v v v b v v b Q b v v v v v v v v v v v v v v v v v v v v v v ",
"v v v v v H.3XwXwXwXwXwXyX0X4X$XZ.v v v v v v v v v v v v v v v v v v ! k.! b c c v v b v v v v v v v v v v v v v v v v v v v v ",
"v v v <.K.3XsXjXjXjXjXjXjXkXqX4X<XH./ v v v v v v v v v v v v v v v v v Q ! ! c x c ! k.! v v v v v v v v v v v v v v v v v v v ",
"v v C.3XeXgXjXjXjXjXjXjXjXjXaX9X;X4X$XZ.v v v v v v v v v v v v v b ! ! c v Q b c v ! ! b v v v v v v v v v v v v v v v v v v v ",
"v z <XpXhXjXjXjXjXjXjXjXjXjXhXaX=X-X0X1XC.v v v v v v v v v v v v v b ! ! c ' y.<.! Q v v v v v v v v v v v v v v v v v v v v v ",
"l D.3XsXjXjXjXjXjXjXjXjXjXjXjXkX9X=X9X5X1X<XD.v v v v v v v v v v v c v Q b r.=.r.h.L.c v v v v v v v v v v v v v v v v v v v v ",
"a <XfXjXjXjXjXjXjXjXjXjXjXjXjXjXkXqX=X-X-X&XU./.H.v v v v <.q.~.C./ v z c v y.o.] | }.v v v v v v v v v v v v v v v v v v v v v ",
"i <XfXjXjXjXjXjXjXjXjXjXjXjXjXjXjXhX9X:X XM L P (.K.v v v K.+.M A.Z.'.~.3.z n.y.@ } _.Z.v v n.K.n.v v v v v v v v v v v v v v v ",
"t <XfXjXjXjXjXjXjXjXjXjXjXjXjXjXjXjXjXfX;Xn   6 ` '.H.c v <._ n e L P $.S.D.<.).r @  .y.Z.v ~.$.K.v v v v v v v v v v v v v v v ",
"t _.pXhXjXjXjXjXjXjXjXjXjXjXjXjXjXjXhXuX`.+.B B Q.*X<XV.l c q.7.0 6 e P Y 0.0.S.J r V #.S.V.D.` ~.v v v v v v v b b v v v v v v ",
"t ) 1XiXhXjXjXjXjXjXjXjXjXjXjXjXjXjXtX'.' t.J.~.W.E.%X{.'.q.k t.@.0 7 e K J U U I J K Y $.r.$.M _.v v v v v v Q k.! v v v v v v ",
"t t ) $XpXjXjXjXjXjXjXjXjXjXjXjXjXfX>XR p j z Z.(.`.].*X%X(.p T q.r.n   8 L M u x.x.K I x.P M 8 _.v v v v v Q ! ! v v v v v v v ",
"t t t !.rXhXjXjXjXjXjXjXjXjXjXjXjXsX_.i i p j z <.K.%.b.Q.~.J._ i q.@.0   e e g B.B.u E M.h q n ^.v b v v c.V.Q c v v v v v v v ",
"i t t S `.dXhXjXjXjXjXjXjXjXjXjXjXsX}.j a p p f l ^.G B U ` $.r.y.N 7.@.7 7 7 g N.N.9 g M.g 8 7.Z.v k.b c..X.Xv.Q v v v v v v v ",
"p y t t _ _.>XeXjXjXjXjXjXjXjXjXjXsX}.z l a i i a 3.^._.+.6 M I U._.1.q.y.7     9 I L 8 6   0 y.v c ! ! I.T.!.R.^ v v v v v v v ",
"f i t t t t y.eXjXjXjXjXjXjXjXjXjXsX}.<.c k p y i a l / D.^.( M ` ` S.q.g.  . .   8 K K L M r.C.v v v Q x I.R.E z v v v v v v v ",
"l f p i t t A !.uXhXjXjXjXjXjXjXjXhXeX{.<.z j p i i a j z 3.F.7.J K ` S._ 0 V O..   9 L P H i.2.v v c v x z c x v v v v v v v v ",
"c z j p y t t S OXuXgXhXjXjXjXjXjXjXgXrX(.c z j a p i p f l W 0.+.M J ` 0.G n V   . 6 e M Z 5.i.2.v v c z Q v c v v v v v v v v ",
"v v z j i t t t S OX6XpXhXjXjXjXjXjXjXdX1X2.v c z j a i p a j <.r.7.( J ` ` M w O.. 7 7 8 m C a.K.Z.v v v b c v v v v v v v v v ",
"v v c l a i t t t t ) '.rXjXjXjXjXjXjXhXuX'.v v c c l a i i p a a _ y.@.q M M q V . b.w . X Z :.$.K.v v v v v v v v v v v v v v ",
"v v v c l a i y t t t N !.pXhXjXjXjXjXjXhX7XK.v v v c l a i i i i i A 7.@.n d *   @ O.w   m C :.n ~.2.v v v v v v v v v v v v v ",
"v v v v c l j p i t t t ) 1X7XuXjXjXjXjXjXsX6X'.2.v v c l j a i i y t N 7.H < - ; { : ; m C :.:.X G 0.K.n.v v v v v v v v v v v ",
"v v v v v c z k a i t t t t ) '.tXjXjXjXjXjXhXuX^.v v v c z k a i y t t ) 8.2 = < @ > 2 -.:.:.:.w.n M #.D.n.v v v v v v v v v v ",
"v v v v v v v c l a i y t t t S '.eXpXhXjXjXjXhX7X(.<.v v v c l a i t t t e.C = < ; , 4 C -.:.:.|.7.n e #.K.H.H./ v v v v v v v ",
"v v v v v v v v c l f p i t t t A t.'.6XeXgXjXjXjXtX3X{.<.v v c k p y t t 9.5.1 = = = = = 1 C e.K.C.r.B q $.A.S.V.n.v v v v v v ",
"v v v v v v v v v c z k a i t t t t i R (.tXhXjXjXjXgXrX'.<.v v z f i t t A 8.D % % % % % % < i.' c 4.r.+.B M M #.S.Z.<.v v v v ",
"v v v v v v v v v v v c l f p i y t t i R {.eXdXjXjXjXgXeX<X'.2.c j p y S y.f.X.o $ $ $ $ $ & i.a j z / K.@.M q M J r.K.v v v v ",
"v v v v v v v v v v v v c z l j p i t t i R ~.}.rXrXgXjXhXhXuX5X'./ a i y.=. .] + 1 1 4 C < D g.T a a j l D.A.P U G @.K.v v v v ",
"v v v v v v v v v v v v v v c z l a i y t y i T /.(.eXgXjXjXhXgXeX1X/.A h. .} @ + 5 -.-.-.< V f.t.p i i p t.r.U 7.r.@.<.v v v v ",
"v v v v v v v v v v v v v v v v c l f p i y y i a R {.rXdXhXjXjXgXsXwX!.).| ] # O + F -.-.< [  .s.t.i y i k _ @.4.c c v v v v v ",
"v v v v v v v v v v v v v v v v v c z k j p i y i p T L.}.eXdXgXjXjXjXiX).&.] # O O + 5 C 5 V } } s.t.i i p j z v v v v v v v v ",
"v v v v v v v v v v v v v v v v v v v c z k a i y y y i T L._.6XjXjXjXjXjX=X..@ O O O : F :.;.X.} } h.a f j z c ! v v v v v v v ",
"v v v v v v v v v v v v v v v v v v v v v c l j p i y y i p f L.7XdXgXjXjXhXkX9X&...X.w.6.;.F : } } h.z v v c v ! b v v v v v v ",
"v v v v v v v v v v v v v v v v v v v v v v c z l j p i y y i p r.>X6XaXaXjXjXkXqXqX*.T.w.D ; # ] } s.0.! ! b v c Q v v ! v v v ",
"v v v v v v v v v v v v v v v v v v v v v v v v c z l f i y t y y t !.+XXXqXaXhXjXjXqX0X+Xo.@ O ] } &.r.q.Q ! Q.R.Q b b c v v v ",
"v v v v v v v v v v v ! v v v v v v v v v v v v v v v z j p i t t t N @. ... X9XqXjXjXhXsX5X*. .@ ] } ..f./ Q U.:X/ Q ! x v v v ",
"v v v v v v ! ! b v v ! b v v v v v v v v v v v v v v c z k a i t t t s.| @ [ ..*.gXgXhXjXkXqX9X..{ } | d.<X~ W $.v c c c v v v ",
"v v v v v v b k.! b v c Q v ' .XI.v v v v v v v v v v v v c l a y t t g.F 5 > ; | 3X3X8XsXjXjXjX9X=.}  .d.>XE.E Y.E.W c v v v v ",
"v v v v v v v c ! ! v z b b z.@XW.I.v v v v v v v v v v v v z f i t t j.:.4 , = F _.t 7.>X2X3XdXjXaX9X Xo.,XV.W./.;X/ v v v v v ",
"v v v v v v ! v c ! Q ^ #XY./ v.@X.Xv v v v v v v v v v v v z f i t t j.:.4 = = ;._.t t t t _ <Xd.qXkXqX9X2XC.&X&Xc.v v v v v v ",
"v v v v v v c Q v c l.`.~./.Y.E ' ' v v v v v v v v v v v v z f i t t q.i.C = = ;._.i y t t t 0.s.1XOX4XaXyX2XOX'.m.v v v v v v ",
"v v v v v v c c Q x c V.&XoX' ' oXY.v v v v v v v v v v v v z f i t t t ^.-., , >.^.f p y t t t p ^.5.w.).OX4X6XwX1Xm.^ ^ ! b v ",
"v v v v v v v v v c c v ' ' ' oX~./.Y.v v v v v v v v v v v c j p t t ) i.-., 2 u.4.z j a i y t i ~.6.= = C g.4XwXwX4X%X%XG.l.v ",
"v v v v v v v / .XR.v v ' #XE.V.&XE.~ v v v v v v v v v v v c l a i t i.e.C , ;.(.v v z l a i t y R 9.>.= 1 C u.K./.[.[.[.G.^ v ",
"v v v v v v v W !.@Xv ' #X/.#XW ' ~ c v v v v v v v v v v v v c j i t j.:.1 = ;.(.v v v v l a y t y q.5.= = 1 ,.p./ W Q Q b v v ",
"v v v v v v v v T ~ v z.=XoX~ v c v v v v v v v v v v v v v v z f i ) e.-., C e.H.v v v v z f i t t A 8.;.= = 3 i.H.c v v v v v ",
"v v v v v v v v v v v v ~ ~ v v v v v v v v v v v v v v v v c l R y.p.a.-.;.e.C./ v v v v c j p y t y 1.9.= = 1 5.i.2.v v v v v ",
"v v v v v v v v v v v v v v v v v v v v v v v v v v v v v v c j t.u.:.-.4 9.L.v v v v v v v l a i t t s 9.,.C 1 C 5.^.v v v v v ",
"v v v v v v v v v v v v v v v v v v v v v v v v v v v v v c l a 9.u.u.u.9.q.<.v v v v v v v z j p y t i 1.^.i.e.5.8.n.v v v v v ",
"v v v v v v v v v v v v v v v v v v v v v v v v v v v v c l f i A t.L.L.K.m.! Q b v v ! k.b c l a i t y p k / H.K.<.v v v v v v ",
"v v v v v v v v v v v v v v v v v v v v v v v v v v v v z j p i i a l c v c v ! b v b k.b v v c l f p i p j z v v v v v v v v v ",
"v v v v v v v v v v v v v v v v v v v v v v v v v v v v z k f a j l z v v v c x c b ! ! b v v v c l j f f l c v v v v v v v v v ",
"v v v v v v v v v v v v v v v v v v v v v v v v v v v v c z z z z c v v v v v v v b ! c c v v v v v c z z c v v v v v v v v v v ",
"v v v v v v v v v v v v v v v v v v v v v v v v v v v v v v v v v v v v v v v v v c x c v v v v v v v v v v v v v v v v v v v v ",
"v v v v v v v v v v v v v v v v v v v v v v v v v v v v v v v v v v v v v v v v v v v v v v v v v v v v v v v v v v v v v v v v ",
"v v v v v v v v v v v v v v v v v v v v v v v v v v v v v v v v v v v v v v v v v v v v v v v v v v v v v v v v v v v v v v v v ",
"v v v v v v v v v v v v v v v v v v v v v v v v v v v v v v v v v v v v v v v v v v v v v v v v v v v v v v v v v v v v v v v v "
};
