/* XPM */
static const char *RW5lbXlfSWRsZV9MZWZ0[] = {
/* columns rows colors chars-per-pixel */
"64 64 228 2 ",
"   c #1E2B0F",
".  c #212E10",
"X  c #263314",
"o  c #2A3917",
"O  c #2C3C19",
"+  c #2A3618",
"@  c #333D1B",
"#  c #3D391A",
"$  c #372716",
"%  c #29292D",
"&  c #362B2A",
"*  c #353D21",
"=  c #2D2E33",
"-  c #302E31",
";  c #33343A",
":  c #3B393D",
">  c #363435",
",  c #2F3035",
"<  c #3F1C0E",
"1  c #411E10",
"2  c #4C2415",
"3  c #512615",
"4  c #512B1D",
"5  c #493B1D",
"6  c #57381E",
"7  c #65331F",
"8  c #6A331E",
"9  c #4C322C",
"0  c #553122",
"q  c #59372A",
"w  c #453938",
"e  c #4E342D",
"r  c #6E3621",
"t  c #673725",
"y  c #733A24",
"u  c #763E2A",
"i  c #7A3F28",
"p  c #773C26",
"a  c #2F401A",
"s  c #32441C",
"d  c #384D1F",
"f  c #364A1D",
"g  c #3A501F",
"h  c #3C4D21",
"j  c #384322",
"k  c #3C5321",
"l  c #3D4636",
"z  c #4B4D12",
"x  c #49461D",
"c  c #4E5113",
"v  c #475917",
"b  c #525514",
"n  c #575915",
"m  c #5A5D15",
"M  c #5B5C1A",
"N  c #58561C",
"B  c #5E6116",
"V  c #616417",
"C  c #646619",
"Z  c #666A18",
"A  c #6A6D19",
"S  c #646A16",
"D  c #6E721A",
"F  c #667711",
"G  c #72751B",
"H  c #76791F",
"J  c #494D28",
"K  c #5A4326",
"L  c #425C24",
"P  c #455427",
"I  c #595723",
"U  c #465435",
"Y  c #595636",
"T  c #565735",
"R  c #574937",
"E  c #77412B",
"W  c #7C412A",
"Q  c #665C2A",
"!  c #7C4631",
"~  c #754939",
"^  c #675B3C",
"/  c #684432",
"(  c #476226",
")  c #4E6C29",
"_  c #4A6428",
"`  c #506E2C",
"'  c #53722C",
"]  c #586D32",
"[  c #5A7532",
"{  c #4F6530",
"}  c #6C6B24",
"|  c #686728",
" . c #6E732A",
".. c #747522",
"X. c #767A21",
"o. c #7A7B23",
"O. c #77782A",
"+. c #69673A",
"@. c #7B693A",
"#. c #746632",
"$. c #66763A",
"%. c #797A38",
"&. c #71692B",
"*. c #3C3D45",
"=. c #3F4246",
"-. c #41424A",
";. c #4A464A",
":. c #5B5558",
">. c #574E50",
",. c #6A5B46",
"<. c #695958",
"1. c #725B55",
"2. c #73564E",
"3. c #5B684B",
"4. c #7C694C",
"5. c #736744",
"6. c #6D7641",
"7. c #777C45",
"8. c #676753",
"9. c #677552",
"0. c #726752",
"q. c #786762",
"w. c #757375",
"e. c #716F67",
"r. c #83452E",
"t. c #864831",
"y. c #894A32",
"u. c #844731",
"i. c #8C523C",
"p. c #91533B",
"a. c #837C2E",
"s. c #857C31",
"d. c #837339",
"f. c #8C7E39",
"g. c #887C34",
"h. c #9D5F48",
"j. c #955B47",
"k. c #8B5845",
"l. c #8C6D4C",
"z. c #846B48",
"x. c #98654A",
"c. c #8A7649",
"v. c #94784B",
"b. c #9D6A51",
"n. c #8A7054",
"m. c #897A55",
"M. c #9A7A55",
"N. c #95785A",
"B. c #987757",
"V. c #836A5C",
"C. c #A56B54",
"Z. c #A6785B",
"A. c #A16F4E",
"S. c #856B65",
"D. c #9B7869",
"F. c #8A7975",
"G. c #96756C",
"H. c #A87C69",
"J. c #B47C66",
"K. c #A67D71",
"L. c #A56C62",
"P. c #728B1C",
"I. c #7E8125",
"U. c #708C21",
"Y. c #7E804A",
"T. c #7D8243",
"R. c #788557",
"E. c #6D8348",
"W. c #738360",
"Q. c #91A714",
"!. c #91803E",
"~. c #8E8139",
"^. c #97A90C",
"/. c #B2C80D",
"(. c #ECFF00",
"). c #85834D",
"_. c #958242",
"`. c #9B844A",
"'. c #8A8451",
"]. c #9D8452",
"[. c #988658",
"{. c #A38653",
"}. c #AC8B5C",
"|. c #A68857",
" X c #A68A56",
".X c #9C8861",
"XX c #95946B",
"oX c #8A9379",
"OX c #999879",
"+X c #8B8F6C",
"@X c #A58262",
"#X c #AD866A",
"$X c #A98A67",
"%X c #B38D62",
"&X c #B58269",
"*X c #BB856C",
"=X c #B48D6A",
"-X c #BD8A6C",
";X c #B38265",
":X c #AA936A",
">X c #B59066",
",X c #BA916B",
"<X c #B5936E",
"1X c #AB8574",
"2X c #AC987D",
"3X c #BE9578",
"4X c #9EA87D",
"5X c #A0A77F",
"6X c #928E8E",
"7X c #999B8B",
"8X c #989796",
"9X c #8E8F80",
"0X c #AF9786",
"qX c #AFAE94",
"wX c #AAA8A8",
"eX c #B3AEAA",
"rX c #B9B1AE",
"tX c #B9B6B6",
"yX c #9CA5A6",
"uX c #C99A8F",
"iX c #CAAB93",
"pX c #CDB3AA",
"aX c #D3B5AA",
"sX c #C0BFBF",
"dX c #D4BEB7",
"fX c #C5AEA6",
"gX c #BCC19C",
"hX c #CBC9C9",
/* pixels */
"G G G G G G G G G G G G G G G G G G G G G G G G G G G G G G G G G G G G G G G G G G G G G G G G G G G G G G G G G G G G G G G G ",
"G G G G G G G G G G G G G G G G G G G G G G G G G G G G G G G G G G G G G G G G G G G G G G G G G G G G G G G G G G G G G G G G ",
"G G G G G G G G G G G G G G G G G G G G G G G G G G G G G G G G G G G G G G G G G G G G G G G G G G G G G G G G G G G G G G G G ",
"G G G G G G G G G G G G G G G G G G G G G G G G G G G G G G G G G G G G G G G G G G G G G G G G G G G G G G G G G G G G G G G G ",
"G G G G G G G G G G G G G G G G G G G G G G G G G G G G G G G G G G G G G G G G G G G G G G G G G G G G G G G G G G G G G G G G ",
"G G G G G G G G G G G G G G G G G G G G G G G G G G G G G G G G G G G G G G G G G G G G G G G G G G G G G G G G G G G G G G G G ",
"G G G G G G G G G G G G G G G G G G G G G G G G G G s.|.].o.G G G G G G G G G o.H G G G G G G G G G G G G G G G G G G G G G G G ",
"G G G G G G G G G G G G G G G G G G G G G G G G s.}.}.S.G. XG G G G G G H G G H X.H G G G G G G G G G G G G G G G G G G G G G G ",
"G G G G G G G G G G G G G G G G G G G G G G G O.n.q.q.;.q.}.G G G G G X.I.o.H D D G G H G G G G G G G G G G G G G G G G G G G G ",
"G G G G G G G G G G G G G G G G G G G G G G D |.S.-.*.>.V.a.G G G G G G ].:X@XB.s.D o.I.o.G G G G G G G G G G G G G G G G G G G ",
"G G G G G G G G G G G G G G G s.}.s.G G D A O.|.S.*.; K._.G G G _.,X,X,X$X[ g ^ %XG o.o.H G G G G G G G G G G G G G G G G G G G ",
"G G G G G G G G G G G G G G G }.).'.G D Z } B.q.;.; ; K.G G G g.].7.7.7.$.h a ^ >Xo.X.G G G G G G G G G G G G G G G G G G G G G ",
"G G G G G G G G G G G G G G X.3X6.'.a.A } c.m.;.; > U #XG `.[.[.).' L L k O Y z.f.H D D G G G G G G G G G G G G G G G G G G G G ",
"G G G G G G G G G G G D D ..'.iX6.m.].d.].[.` l > l ' [.=X@X$.' ' _ s O @ J N.f.A A D G G G G G G G G G G G G G G G G G G G G G ",
"G G G G G G G G G G G A Z  .OXuXT L 7.%X).[ ' ` ` ` ' [ { h ` ' ( O O O J @X`.X.G G G G G G G G G G G G G G G G G G G G G G G G ",
"G G G G G G G G G G G Z V B  .uXT L ] ^ ] ' ' ' ' ' ' L k ( ' L f O O Y c.`.H D D G G G G G G G G G G G G G G G G G G G G G G G ",
"G G G G G G G G G G G Z B m V #XJ d L g P.U.' ( U.Q.Q.v k ' ( f O O Y c.f.G D D G G G G G G G G G G G G G G G G H H G G G G G G ",
"G G G G G G G G G G G Z m b m $XY @ s ) /./.) s ^.(.(.F k _ a O @ j @X!.G G G G G G G G G G G G G G G G G G G X.I.o.G G G G G G ",
"G G G G G G G G G G G Z m c b @.M.,.O s /.^.s O ^.(.(.F a s O O T |.`.G G G G G G G G G G G G G G G G G G G X.o.o.G G G G G G G ",
"G G G G G G G G G G G Z m c z z v.4.O O F F O k P.^.Q.v O O O Y l._.G G G G G G G G G G G G G G G G H G G I.).O.D G G G G G G G ",
"G G G G G G G G G G G A B b z z N ^ J O s f d ) ) L O O o + O z.M.*X*X*X;X_.G G G G G G G G G G G G I.H T.7X7XR.X.G G G G G G G ",
"G G G G G G G G G G G D C n c z z z.N.s L ' ' ' k O O O X . o K y.y.y.y.j.-X%X%X%X%Xg.G G G G G G D o.o.+XXX:XoXO.G G G G G G G ",
"G G G G G G G G G G G G A B b z z z l.D.$.' ` k s o . W.9.  o 6 i y.K I +.7.Y.Y.Y.Y.'.~.G G G G G G G X.Z +XoX} A G G G G G G G ",
"G G G G G G G G G G G G D C n c z z z @XY.) L a O X   9.3.X # t W y.5 f L L L L L ) 7.'.$X{.G G G G D G Z A D S G G G G G G G G ",
"G G G G G G G G G G G G G A V n c z z @X7.L O O o O * X X @ t W y.r.5 O O O O O O ( ) ` ' [.{.o.G G G D A X.G D G G G G G G G G ",
"G G G G G G G G G G G G G G A V b z z @X+.a O O X U qXT o @ E u.r.r # O O O O O O s s d ' $.'. Xo.G G G G H D G G G G G G G G G ",
"G G G G G G G G G G G G G G G Z m c z @X^ o O R.U j R.P # 6 W y.r.i 6 5 K z.^ n.n.n.Y a g _ R.iX XG G G G G G G G G G G G G G G ",
"G G G G G G G G G G G G G G G A m c c.:XT X O 9X8.+ O @ 5 r r.y.y.y.i r ! &XN b n d.z.J O { +XgXiX%XG g.M.H.H.`.G G G G G G G G ",
"G G G G G G G G G G G G G G G A m @.[.[ d O O =.-.l O 6 8 r r.y.y.y.y.i ! &Xc z c b c.M.j 9.4XgXgXiX>X>X~ 1 4 ;XG G G G G G G G ",
"G G G G G G G G G G G G G G G Z d.m.$.h O # 0 > *.w 6 7 y r.y.y.y.y.y.x.B.c.n c z c b v.H.XXOX5XqXqX2X~ 4 < 4 ;XG G G G G G G G ",
"G G G G G G G G G G G G G G A c.[.6.k O Y ~ t e w w 8 8 y W W r.y.y.y.C.|.A V n c z z b d.:X2X2XqX4XR.x x K k.v.G G G G G G G G ",
"G G G G G G G G G G G _.=X<X=X$X$.k @ J N.b.E r e 9 8 8 8 8 8 i r.r.i.Z.O.G A V n c z z b &.{.#XXXE.' ' ) m.}.o.G G G G G G G G ",
"G G G G G G G G G a.}.|.$.$.$.$.h O J D.z.l.J.E 7 t 8 8 8 8 8 r r r J.f.G G G A V n b c c b N.J ] [ ' ' k 5.}.G G G G G G G G G ",
"G G G G G G G G _.'.'.7.P k k P 4.+.n.@.z z z.C.! 3 3 3 3 3 3 3 3 3 2.N.f.G G G A C B n b z N.O d k k k 5.c.s.G G G G G G G G G ",
"G G G G G G G D =X$.( L d d P ^ M.} n c z z z.H.~ 2 2 2 2 2 2 2 2 $ : 1.N.1X].G G A C m b z 1X3.* + O O D.s.G G G G G G G G G G ",
"G G G G G D A C =XT O s ) ' ).}.s.A V n @.#X@X:.q 8 8 8 8 8 8 8 0 % *.-.-.-.G.,X=Xf.Z n c z aXhXR $ O O D.G G G G G G G G G G G ",
"G G G G A Z B n #XT ,.5.h ( ).%XG G A c.V.<.<.;.q 8 8 i r.r.r.r.t % *.-.-.-.:.<.<.@XC b z Q 0XhX9XR q N.].G G G G G G G G G G G ",
"G G G G A B b c @.4.z.&.4.T 5.%XG G M.G.:.-.-.-.w 0 8 y r.y.y.y./ % ; ; : -.-.-.;.1XV b Q 0XpXeX8XF.G.,XG G G G G G G G G G G G ",
"G G G G Z m b c z c n Z |.4.4. XA M.D.;.-.-.-.-.; & 8 8 y r.y.! t % % % = *.-.-.;.D.B.b Z.dXtX6X8XrXdX>XG G G G o.G G G G G G G ",
"G G G G A V m n b b m A o.].]...c.S.;.-.-.-.-.-.; & 8 8 8 y r.q % % % % = *.-.-.-.;.S.I M.dXtX6XsXaX}.~.o.H G G o.H G G G G G G ",
"G G G G A A Z Z B n B A G D A v.S.:.-.-.-.-.=.; = % 9 0 8 r r.e % % % % % , *.-.-.-.S..XdXrXeXtXpX:XO.H I.o.H G D X.G G o.G G G ",
"G G G G G D D D A C Z A D A M.D.>.-.-.-.-.-.*.= % % % 0 8 r i 9 % % % % % % ; *.-.-.q.0XtXeXeXdX<Xo.G G D X.o.+XoXO.H H D G G G ",
"G G G G G G G G D D D ..A V K.-.-.-.-.-.-.-.*.= % - - q r 8 8 9 % % % % % % % , -.;.e.6X6XtXdX}.s.G G o.G D X..XyXO.X.o.Z G G G ",
"G G G G G G o.o.H G G G C b D.= = : -.-.; = = % 1.z.K.J.x.8 8 y q % % % % % % % ; 8XwX8XsXpX:Xs.G G G D XXOXO...7.G D D D G G G ",
"G G G G G G H I.o.H A m M c D.% % , : -., % - 2.z.Q z I l.j.y y ~ 1.: % % % :.w.:.8XeXrXaX:Xo.G G G G XX:X:XOX .XXOX..D G G G G ",
"G G G G G G G D o...Z c c z D.& & & > ;.> & w Z.v.z z z Q v.i.y i.@X1.> , ;.8XeXw.F.8XfX-X{.G G G G G %.0XqX).OX:XeXo.G G G G G ",
"G G G G G G o.G D ..C I 8.,.J.7 7 7 r u.y 7 t y C.b z z z #.Z.j.i.#XB.1.-.tXwXw.> q ! i.i.J.G G G G G D %.%.G qXqXY.G G G G G G ",
"G G G G G G D X.G A | e.,.,.K.Z.E 8 y u.r.p 8 8 C.#.b c b b | b.b.#.z l.G.e.:.;.0 7 i y.y.J.a.G G G G G D D G %.%.D G G G G G G ",
"G G G G G G D D X.S M Y e.8.J B.L.j.i.W r.r.y y h.Z.d.n m B B b z z z z n.1.,./ 8 8 i y.y.C.Z.g.G G G G G G G D D G G G G G G G ",
"G G G G G G G G G A V n J J I q.#X0XK.E r.t.y.y.y.h.=XV V A A B b z z z I M.Z.b.8 8 p y.y.y.C.%XG G G G G G G G G G G G G G G G ",
"G G G G G G G O.7XoXA B I e.8.T e.8.l.;Xi.i y.y.y.h.=XA A D D A m b c z z z z J.8 8 r y y.y.C.%XG G G G G G G G G G G G G G G G ",
"G G G G G G G ..$X8XD  .+Xm.e.c J x z @.b.j.i r.y.h.,XG G G G D A V m b c z z l.b.E 8 r u.y.C.%XG G G G G G G G G G G G G G G G ",
"G G G G G G G G }  .G %.wXOX| n c z z Q B.x.r W r.h.,XG G G G G D A Z m b z z N v.j.E r W r.x.}.`.G G G G G G G G G G G G G G G ",
"G G G G G G G G G G G G  . .A V n b Q Z.j.r 8 8 i h.,XG G G G G G G D C n z z z Q M.b.8 8 W y.p.*X=X Xo.G G G G G G G G G G G G ",
"G G G G G G G G G G G G G G G A V | l.j.u 8 8 8 r i.,XG G G G G G G G A B b z z z N v.C.r y W y.h.b.Z.{.G G G G G G G G G G G G ",
"G G G G G G G G G G G G G G G D C l.x.r 8 8 r k.j.x.!.G G G G G G G G D D A n z z z b *Xy 8 y W t.y.p.Z.v.G G G G G G G G G G G ",
"G G G G G G G G G G G G G G D Z m b.u u u u u.;X}.s.G G G G G G G G G G G G C n c z b ;X! u u W y.p.p.p.;XG G G G G G G G G G G ",
"G G G G G G G G G G G G G D Z m b l.&X&X&X*X;X_.G G G G G G G G G G G G G A Z V b z z c.;X*X*X*X-X-X-X-X`.G G G G G G G G G G G ",
"G G G G G G G G G G G G D A m b c z b n B Z D G G G G G G G G G G G G G G G Z m b c b b b b n V A G G G G G G G G G G G G G G G ",
"G G G G G G G G G G G G D A B n n n m V A D G G G G G G G G G G G G G G G G D Z B M M b b n m V A G G G G G G G G G G G G G G G ",
"G G G G G G G G G G G G G A Z C C C A D G G G G G G G G G G G G G G G G G G G D A B B V C C C Z A G G G G G G G G G G G G G G G ",
"G G G G G G G G G G G G G G G G G G G G G G G G G G G G G G G G G G G G G G G G G G G G G G D D G G G G G G G G G G G G G G G G ",
"G G G G G G G G G G G G G G G G G G G G G G G G G G G G G G G G G G G G G G G G G G G G G G G G G G G G G G G G G G G G G G G G ",
"G G G G G G G G G G G G G G G G G G G G G G G G G G G G G G G G G G G G G G G G G G G G G G G G G G G G G G G G G G G G G G G G "
};
