/* XPM */
static const char *RXhpdCtPcGVu[] = {
/* columns rows colors chars-per-pixel */
"64 64 200 2 ",
"   c #341A1A",
".  c #391E1C",
"X  c #3C221C",
"o  c #3B2326",
"O  c #45271C",
"+  c #4C361B",
"@  c #4E3228",
"#  c #513628",
"$  c #573A2D",
"%  c #4F3838",
"&  c #553E35",
"*  c #452A24",
"=  c #54491E",
"-  c #64601F",
";  c #68661F",
":  c #73761D",
">  c #5E4625",
",  c #5E5622",
"<  c #5B4234",
"1  c #5F493D",
"2  c #5B4639",
"3  c #604F26",
"4  c #66592A",
"5  c #655729",
"6  c #61463A",
"7  c #624A3D",
"8  c #624E34",
"9  c #695736",
"0  c #6D6A25",
"q  c #6B6627",
"w  c #6A7223",
"e  c #747720",
"r  c #757924",
"t  c #777B2A",
"y  c #787D2E",
"u  c #757726",
"i  c #797E32",
"p  c #76723E",
"a  c #787939",
"s  c #706733",
"d  c #5E4C42",
"f  c #544547",
"g  c #5E5146",
"h  c #624D43",
"j  c #634E4A",
"k  c #645145",
"l  c #6A5244",
"z  c #64534B",
"x  c #6A564B",
"c  c #67584F",
"v  c #6C594D",
"b  c #665846",
"n  c #715C4E",
"m  c #665552",
"M  c #665A53",
"N  c #6B5C54",
"B  c #6B5E5B",
"V  c #685856",
"C  c #715D52",
"Z  c #725F58",
"A  c #65614D",
"S  c #736646",
"D  c #666353",
"F  c #6C6254",
"G  c #6E6B56",
"H  c #676659",
"J  c #6C635C",
"K  c #6F6C59",
"L  c #736156",
"P  c #756952",
"I  c #72645C",
"U  c #74695E",
"Y  c #787347",
"T  c #6C6562",
"R  c #6E6A65",
"E  c #6E696B",
"W  c #6B656C",
"Q  c #736662",
"!  c #746B64",
"~  c #796C64",
"^  c #736D6A",
"/  c #796D69",
"(  c #7C7265",
")  c #75716C",
"_  c #7C736C",
"`  c #7E7A6F",
"'  c #757273",
"]  c #7C7572",
"[  c #7E7D73",
"{  c #7D7B7C",
"}  c #7B7778",
"|  c #736A70",
" . c #81766E",
".. c #80796F",
"X. c #817771",
"o. c #827C74",
"O. c #837E7A",
"+. c #887F74",
"@. c #7C802E",
"#. c #7F8226",
"$. c #7A8035",
"%. c #7B8139",
"&. c #7F8076",
"*. c #838733",
"=. c #848836",
"-. c #818175",
";. c #898175",
":. c #84837B",
">. c #89867D",
",. c #8A897E",
"<. c #2B66AA",
"1. c #2F69AD",
"2. c #316BAF",
"3. c #336EB1",
"4. c #3771B4",
"5. c #3A73B6",
"6. c #3E77B9",
"7. c #3F78BA",
"8. c #7F7D81",
"9. c #437BBD",
"0. c #477FC1",
"q. c #7E818A",
"w. c #7B8597",
"e. c #7A8BA6",
"r. c #7A93BA",
"t. c #7C91AB",
"y. c #4C84C4",
"u. c #5087C8",
"i. c #548BCB",
"p. c #598FCF",
"a. c #5C93D1",
"s. c #5990CE",
"d. c #6197D5",
"f. c #6299D6",
"g. c #669BD9",
"h. c #699EDB",
"j. c #7C99C2",
"k. c #6DA1DE",
"l. c #7EA2D1",
"z. c #6EA4E0",
"x. c #71A6E2",
"c. c #74A9E4",
"v. c #79ACE7",
"b. c #7AAEE9",
"n. c #7EB1EC",
"m. c #858582",
"M. c #898681",
"N. c #878884",
"B. c #8C8B84",
"V. c #83858A",
"C. c #8E8E89",
"Z. c #8D8E8A",
"A. c #908D86",
"S. c #908E8A",
"D. c #8F908C",
"F. c #91908A",
"G. c #92928D",
"H. c #94958F",
"J. c #92928D",
"K. c #919086",
"L. c #828C9C",
"P. c #838A93",
"I. c #8B959B",
"U. c #959590",
"Y. c #949591",
"T. c #979892",
"R. c #999995",
"E. c #9C9D9A",
"W. c #91989B",
"Q. c #818FA4",
"!. c #8E9BA5",
"~. c #8695A7",
"^. c #929CA2",
"/. c #929EA9",
"(. c #849BB5",
"). c #8B9EB2",
"_. c #869FBB",
"`. c #88A1BC",
"'. c #8AA1B9",
"]. c #95A7BB",
"[. c #809FC6",
"{. c #86A4C6",
"}. c #85A6CD",
"|. c #8BAACC",
" X c #92ACC7",
".X c #92AECB",
"XX c #86AAD4",
"oX c #8DAED3",
"OX c #84ACDB",
"+X c #83A7D3",
"@X c #8DB2DC",
"#X c #85B2E6",
"$X c #83B4EC",
"%X c #88B6EA",
"&X c #89B8EE",
"*X c #88B2E2",
"=X c #83B6F1",
"-X c #86B9F3",
";X c #8ABDF6",
":X c #81AEE3",
/* pixels */
"r r r r r r r r r r r r r r r t t r t t t t t t t t t t t t t t t t t t t t t r r r r r r r r r r r e e e : : : : : : : : : : : ",
"r r -.[ [ [ [ &.[ [ [ [ [ &.t t t t t t t t t y y y y y y y y y y y B.B.B.B.N.N.N.N.,.,.,.,.r r r r [ [ [ [ [ [ [ ` [ [ [ [ : : ",
"r :.[ [ [ [ [ [ [ [ [ &.&.-.:.t t t t y y y y y y y y y y y y y y G.B.B.Z.B.B.B.B.B.N.N.N.N.F.r r :.[ [ [ [ [ [ ` ` ` ` [ [ :.: ",
"r :.[ [ [ [ [ [ [ &.-.-.-.-.M.t t y y y y y y i i i i i i i i i i G.Z.Z.Z.Z.Z.Z.B.B.B.B.N.N.F.r r :.[ [ [ [ [ [ [ ` ` ` [ [ :.: ",
"r :.[ [ [ [ [ [ &.-.-.-.-.-.N.y y y y y i i i i i i i i i i i i i H.Z.Z.Z.Z.Z.Z.Z.B.B.B.B.N.F.r r :.[ [ [ [ [ [ [ [ ` ` [ [ :.: ",
"r :.[ [ [ [ &.&.-.-.-.-.-.-.B.y y y i i i i i i i i $.i $.$.$.$.i U.Z.Z.Z.Z.Z.Z.Z.Z.B.B.B.B.F.t r M.[ [ [ [ [ [ [ [ [ ` [ [ :.: ",
"r :.[ [ &.&.&.-.-.-.&.-.-.-.B.i i i i i i i $.$.p _ _ _ _  . . . . . ._ / % o T Z.Z.Z.B.B.B.F.t t M.&.[ [ [ [ [ [ [ [ ` [ [ :.: ",
"r :.&.&.&.&.-.-.-.-.-.-.-.-.B.i i i i i $.$.$.$.S Z.Z.Z.Z.F.F.F.F.F.F.Z.N.^ % f C.Z.Z.Z.Z.B.G.t t M.-.[ [ [ [ [ [ [ [ [ [ [ :.: ",
"r M.&.&.&.-.-.-.-.-.-.-.-.-.B.i i i $.$.$.%.%.%.S H.Z.G.G.G. X XoX!.F.F.F.:.2 f Z.Z.Z.Z.Z.Z.G.y t N.-.-.[ [ [ [ [ [ [ [ [ [ :.: ",
"r M.&.&.-.-.-.-.-.-.-.:.-.:.B.i $.$.$.a p P P P C Y.G.G.G.G.@X X.X^.G.G.G.B.j j ~ _ O.>.Z.Z.G.y y N.-.-.&.[ [ [ [ [ [ [ [ [ :.: ",
"r M.-.-.-.-.-.-.-.-.:.:.:.:.B.$.$.p S ( _ B.B.B.U U.G.G.G.H.@X]. XW.Y.G.G.A.U ] N.X.~ ~ / O.G.i y N.-.-.-.&.[ [ [ [ [ [ [ [ :.: ",
"r M.&.-.-.-.-.-.-.-.:.:.:.:.B.p Y :.Z.B.O.L I I C G.H.H.U.U.R.R.R.U.U.U.H.A.C L C / O.Z.Z./ U.i y B.-.-.-.-.[ [ [ [ [ [ [ [ :.: ",
"r M.-.-.-.-.-.-.-.:.:.:.:._ ~ :.M.M.X.Q O.D.F.H.~ U.H.U.U.Y.U.U.U.U.U.U.Y.S.X.G.G.M.:.L >._ L 9 s B.-.-.-.-.&.[ [ [ [ [ [ [ :.: ",
"r M.-.-.-.-.-.-.:.:.:.[ Q o.G.Z.:.~ / M.Z.Z.D.G. .G.U.U.U.U.T.U.U.T.U.U.U.>.o.D.G.G.F.F.(  . .O._ v I [ -.-.-.[ [ [ [ [ [ [ :.: ",
"r D Z.Z.Z.Z.Z.Z.Z.Z.~ / Z.Z.Z.~ O.B.B.B.G.G.F.F.T.O.T.U.R.E.E.E.E.E.R.U.R.Q Z.Z.Z.G.G.G.G.N._ ] :.:.O.N ( Z.Z.B.B.B.B.N.N.Z.A : ",
"r t D D D D D H H z :.G.G.O./ M.Z.Z.D.G.G.H.H.S.Q / Z.Z.{ } { { { { N.Y.Y.Q T.Y.Z.D.D.G.Z.Z.Z./ L O.N.N.L D D D D D D D D D e : ",
"r t t t y y y y Y ( X.O.O._ Z.Z.Z.Z.G.G.Y.Y.Z.} T B ' } ^ ! ! ! ^ ^ ] { m.Q Z.Z.Y.G.Z.Z.N.B.Z.Z.M.U X._ _ S s t r r r r r e e : ",
"r t :.:.:.:.:.~ M.Z.D._ / Z.Z.Z.Z.G.G.U.Z.{ ' ' ' z B B N N N B I I Q Q ^ Q N.M.m.Z.Y.D.Z.B.B.B.B.N.x O.B.Z.X.U :.-.-.-.-.-.e e ",
"r B.:.:.:.:.Q Z.N.N.O.X.Z.Z.G.G.G.G.G.' E E T j j ] ] ] O.O.O.O.m.m.N.} ^ Q I / [ { { N.D.B.B.B.N.M.M.I O.N.>...( :.-.-.-.-.:.: ",
"t B.:.:.:.O.U N.>.X./ G.D.G.G.Y.Y.T.' E B V V ] } O.m.L.~.(._._._.`.).~.8.^ ' m._ ! } } N.G.Z.N.M.M.M.O.L M.>.-.N :.-.-.-.-.>.e ",
"t B.:.:.:.Q ( :.:.Q >.G.G.Y.R.T.R.^ B V J } q.L.{.%X-X$Xb.b.c.c.c.c.b.n.=X&XXX~.P.Z.Q ^ ' m.Y.G.B.N.B.B.~ X.>.>.v ` -.-.-.-.N.e ",
"r B.~ v v h C C C v Q Q S.R.R.E.^ T m Q 8.`.*X;Xb.i.y.i.d.g.x.c.x.g.f.i.0.i.h.;X%X{.P.O.! ' O.U.G.Z.[ I I l n n n l v v L -.N.e ",
"r _ :.Z.Z.M.M.M.:.:.M.N.[ O.Q O.B m ' (.&Xn.d.y.a.d.a.y.9.5.1.1.2.5.9.u.d.h.g.y.u.v.-X}.V.J _ O.] ] :.Z.B.,.N.>.,.>.>.>.+.7 B e ",
"r C Z.N.N.N.M.N.M.N.B.B.B.Z.S.^ j R {.&Xb.9.i.z.y.5.2.9.i.g.c.c.x.f.y.5.3.6.i.b.g.9.a.-XXXP.z G.H.Z.B.N.N.N.N.,.,.>.>.>.+.@ o ; ",
"r C Z.>.>.N.N.N.N.B.B.B.Z.Z.D.B J }.;Xd.9.z.a.2.9.g.n.;X;X;X;X;X;X;X;X;Xb.i.5.4.d.v.i.y.n.#X^ [ U.B.B.N.N.B.N.,.,.>.>.>.;.@   - ",
"r C Z.N.N.~.`.).Z.B.B.Z.Z.Z.Z.z t.-Xf.y.k.y.3.i.b.;X;X;X;X;X;X;X;X;X;X;X;X=Xc.9.3.g.n.y.i.=X[.T R.B.B.B.Z.B.B.XX`.Z.B.>.;.@   - ",
"r C A.N.N.OX!.!.!.Z.Z.Z.Z.G.M.E %X=X5.g.f.1.0.;X;X;X;X;X;X;X;X;X;X;X;X;X;X;X;Xn.5.4.x.c.6.d.=XW R.B.B.Z.A.Z.B.OX).XXI.,.;.@   - ",
"r n S.N.B.}.!.).I.Z.Z.Z.G.U.M.e.;Xa.y.z.5.5.c.;X;X;X;X;X;X;X;X;X;X;X;X;X;X;X;X;Xh.<.6.;Xi.5.-Xr.R.B.Z.Z.A.Z.Z.OX!.).I.B.;.@   - ",
"r n F.B.Z.Y./.^.S.D.F.Z.G.Y.M.j.;X9.i.x.1.9.-X;X;X;X;X;X;X;X;X;X;X;X;X;X;X;X;X;X=X<.1.;Xf.<.-XOXR.Z.Z.Z.Z.B.A.!.!.A.B.B.;.@   - ",
"r n H.Z.A.A.Z.F.S.F.F.S.G.G.M.r.-X9.i.c.4.9.$X;X;X;X;X;X;X;X;X;X;X;X;X;X;X;X;X;Xn.<.5.;Xf.<.-Xl.R.Z.Z.Z.Z.A.K.A.A.Z.Z.B.;.@   - ",
"r 7 H.F.Z.Z.S.S.F.F.G.G.G.G.M.w.;Xs.9.b.y.3.h.;X;X;X;X;X;X;X;X;X;X;X;X;X;X;X;X;Xi.<.a.;Xi.4.-Xe.R.Z.F.D.F.F.K.K.K.,.,.B.;.@   - ",
"r 8 T.H.H.H.H.H.H.>.] [ O.] _ m #Xn.3.f.n.5.5.b.;X;X;X;X;X;X;X;X;X;X;X;X;X;X;Xh.2.i.=Xc.5.p.#Xq.] ] _ _ X.X.>.H.A.,.,.F.;.@   - ",
"r > O.O.[ ] [ [ [ _ M.M.B.Z.Z.:.w.%Xa.9.z.k.0.9.h.=X;X;X;X;X;X;X;X;X;X;X;Xb.f.5.y.$Xn.9.y.n._.B.B.N.:.o.I Q ) _ ) _ ) ) I O   - ",
"r > ) R J J I I J l B.Z.Z.Z.Z.Z.Z.Q.=Xi.5.x.$Xi.4.y.g.n.;X;X;X;X;X;X=Xv.d.9.5.f.=Xc.9.7.c.+XB.M.M.:.:.N._ Q F F F F J J N O   - ",
"r 6 R M L >.:.-.[ N V U.Z.Z.Z.Z.G.U.Q.#Xk.5.9.b.=Xg.y.5.5.9.u.u.y.9.4.6.y.c.=Xb.i.3.y.$X(.O.M.Z.B.M.:.M.z o.:.N.B.S.7 J N O = e ",
"r ~ h 2 x B.:.:.O._ z N.Z.Z.Z.D.G.G.S.L.XXc.i.5.i.x.n.b.k.g.a.a.a.g.z.n.=Xx.a.7.9.k.:Xe.{ B.D.Z.B.B.B._ z -.:.N.N.:.< 1 < + e : ",
"r Z.N...h :.,.:.:.:.N B M.G.D.D.G.Y.U.Y.O.L.}.#Xh.0.6.9.y.a.f.f.f.d.y.9.5.9.i.b.+Xw.Z.Z.Z.Z.Z.Z.Z.Z.^ h N :.:.,.N.~ # X 0 r : : ",
"r Z.,.,.N J -.:.:.:.:.L ! B.R.Y.G.Y.Y.G.G.:.] ^ Q.XX#Xb.c.z.d.d.d.g.x.v.b.XXe.| O.Z.Y.Z.Z.G.D.Z.Z._ h L ` :.:.B.^ < X = r e : e ",
"r Z.,.,.N.< ) B.:.O._ x N ' ^ o.U.G.Y.G.G.D.D.Z.] _ ] } 8.V.P.L.w.q.8.{ N./ O.G.Y.Y.Y.G.G.G.G.G._ M k c I ,.N.>.M O   r r e e : ",
"r A.,.,.N.U z [ _  .M./ z J ] _ R.G.G.G.G.D.Z.Z.Z._ O.B.B.B.B.M.M.M.M.O.I :.Z.G.Y.Y.G.G.G.F.S.^ B h U _ _ N ..J $ . = r r e e : ",
"r K.,.,.N.N.C J [ Z.B.Z.Z.X.C _ O.B.T.U.G.G.G.F.Z.>.U.U.U.U.G.G.G.G.D.Z.U.^ S.S.G.G.G.U.G.:.J z c _ -.O.O.O.x z X q r r e e : : ",
"r A.,.,.,.N.O.z ! -.B.B.N.M.X.~ ~ ) O.Z.F.H.U.G.X.H.G.G.H.G.G.G.G.G.G.Z.G.m.O.G.U.G.B.O.^ B M Q _ :.:.:.O.N 2 # , r r r e e : : ",
"e A.,.,.,.,.N.O.N ^ [ Z.B.B.Z.Z.~ L Q _ _ M.M.T._ U.G.G.G.H.'.G.W.W.G.S.Z.S.o.G.>._ T J M N Q O.:.:.:.-.J g @ , r r r e e e : : ",
"e A.,.,.,.,.N.N.U.x ! ) :.Z.Z.F.G.X._ x I I ^ Q L T.H.H.H.H.].@XoXY.G.G.S.S.N Q U N M N _ _ :.:.:.:.Q z d O , r r r r e e : : : ",
"e Z.,.,.,.,.,.F.U G 8 c ) ] H.U._ B.B.M._ U 7 h v T.U.H.H.H.].@XoXT.G.G.F.A.k 6 6 _ _ Z.Z.B.X.B.:.T M < 3 0 r r r r : : : : : : ",
"e Z.,.,.,.,.,.F.t t @.q x R ^ V F.Z.B.B.N.:.:.:.I T.H.H.H.H..XR./.^.F.F.F.A.I _ N.M.:.Z.Z.Z.>.! M z < 0 r r r r r e : : : : : : ",
": G H.H.H.H.H.K r t w w 0 4 h N [ ] M.H.U.:.:.:.L R.H.H.H.H.H.H.H.H.F.F.F.A.L _ N.Z.J.J._ I z N $ 4 u r r r r r r e : : : : : : ",
": : G G G G K r r r r t t t u 5 z J R R R O.O.O.x S.S.B.N.M.M.M.M.:.M.B.B.X.x U o.~ F N M d < 5 t r r r r r r r e e e : : : : : ",
": : : e e r r r r r r r t t t t 0 9 b V M T T J < [ ] ) ) ) ^ ^ ^ ^ ^ ^ ) Q 2 z F c k k 8 4 0 t r r r r r r r e e e : : : : : : ",
": : -.-.-.-.-.-.-.r r r r r t t t y 0 4 4 h d 7 $ ) ^ ^ R R R R R R R R R I $ 2 1 k N c [ :.r r r r r r r r e e e : : : : : : : ",
": >.-.-.-.-.-.-.-.r r r r r r t t t t y y y y y > ^ R N J T T T T R T T J J * g :.:.:.:.:.:.N.r r r r r r e e e : : : : : : : : ",
": >.-.-.-.-.-.-.-.-.r r r r r r r t t t t t y y q h 1 1 d d d d d d d d d 1 & :.:.:.:.:.-.-.N.r r r r r e e e : : : : : : : : : ",
": >.-.-.-.-.-.-.-.-.-.-.-.-.N.r r r r t t t t $.=.t t t t =.=.y y Z.:.:.:.:.:.:.:.:.-.-.-.-.N.r r r r e e e : : : : : : : : : : ",
": >.-.-.-.-.-.-.-.-.-.-.-.-.N.r r r r r r t t t *.*.t t $.*.t t t Z.:.:.:.:.:.-.:.:.-.-.-.-.N.r r r e e e : : : : : : : : : : : ",
": >.-.-.-.-.-.-.-.-.-.-.-.-.N.r r r r r r r r r @.@.t @.@.w t t t B.:.:.-.-.-.-.:.:.-.-.-.-.N.r e e e e : : : : : : : : : : : : ",
": >.-.-.-.-.-.-.-.-.-.-.-.-.N.r r r r r r r r r w w r y @.w r r t B.-.-.-.-.-.-.:.-.-.-.-.-.N.e e e e : : : : : : : : : : : : : ",
": >.-.-.-.-.-.-.-.-.-.-.-.-.N.r r r r r r r r r r r r w w r r r r N.-.-.-.-.-.-.-.-.-.-.-.-.N.e e : : : : : : : : : : : : : : : ",
": >.-.-.-.-.-.-.-.-.-.-.-.-.N.e e r r r r r r r r r r r r r r r r N.-.-.-.-.-.-.-.-.-.-.-.-.N.: : : : : : : : : : : : : : : : : ",
": >.-.-.-.-.-.-.-.-.-.-.-.-.,.: e e e e e r r r r r r r r r r r r N.-.-.-.-.-.-.-.-.-.-.-.-.>.: : : : : : : : : : : : : : : : : ",
": >.o.-.-.-.-.-.-.-.-.-.-.-.>.: : e e e e e e e r r r r r r r r r Z.Z.Z.Z.Z.-.-.-.-.-.-.-.-.>.: : : : : : : : : : : : : : : : : ",
": >.o.o.o.-.-.-.-.-.-.-.-.-.>.: : : : : e e e e e e e e e e e e e e e A A A Z.-.-.-.-.-.-.-.>.: : : : : : : : : : : : : : : : : ",
": >.o.o.o.o.-.-.-.-.-.-.-.-.>.: : : : : : : : : : e e : e e e e e e : : : : A Z.-.-.-.-.-.-.>.: : : : : : : : : : : : : : : : : ",
": A B.B.B.B.B.B.B.B.B.B.Z.B.A : : : : : : : : : : : : : : : : : : : : : : : : A Z.Z.Z.Z.B.B.: : : : : : : : : : : : : : : : : : ",
"r #.#.A A A A A A A A A A A : : : : : : : : : : : : : : : : : : : : : : : : : : A A A A A A : : : : : : : : : : : : : : : : : : "
};
