/* XPM */
static const char *RXhpdCtDbG9zZWQ_[] = {
/* columns rows colors chars-per-pixel */
"64 64 179 2 ",
"   c #321612",
".  c #331812",
"X  c #3F2416",
"o  c #3F2914",
"O  c #3C231E",
"+  c #422215",
"@  c #422915",
"#  c #43261C",
"$  c #47291B",
"%  c #493015",
"&  c #4F3C16",
"*  c #4C351D",
"=  c #4A2E21",
"-  c #4C3024",
";  c #4E3529",
":  c #543621",
">  c #553926",
",  c #553B2A",
"<  c #5A3F2D",
"1  c #563E30",
"2  c #504216",
"3  c #564C17",
"4  c #594F17",
"5  c #5D431C",
"6  c #5C5318",
"7  c #62561F",
"8  c #615C19",
"9  c #656616",
"0  c #656C17",
"q  c #65601A",
"w  c #6A651B",
"e  c #6D6C1B",
"r  c #706F1C",
"t  c #72751B",
"y  c #594426",
"u  c #5C432D",
"i  c #5C4829",
"p  c #5B4433",
"a  c #5E4A37",
"s  c #5A473B",
"d  c #5D4B3B",
"f  c #634B26",
"g  c #625224",
"h  c #665B22",
"j  c #66502B",
"k  c #67592D",
"l  c #6B5D2D",
"z  c #614733",
"x  c #624C37",
"c  c #634D3C",
"v  c #675130",
"b  c #685332",
"n  c #64513E",
"m  c #69553C",
"M  c #6E6A23",
"N  c #6E6528",
"B  c #726F21",
"V  c #706728",
"C  c #716C2A",
"Z  c #727221",
"A  c #797625",
"S  c #777820",
"D  c #797B22",
"F  c #716931",
"G  c #766E3E",
"H  c #747032",
"J  c #5C4C41",
"K  c #5E5043",
"L  c #634F41",
"P  c #655343",
"I  c #6A5645",
"U  c #635A46",
"Y  c #6D5847",
"T  c #635548",
"R  c #695749",
"E  c #645A4B",
"W  c #6B5C4C",
"Q  c #715F47",
"!  c #715E4C",
"~  c #655D52",
"^  c #6B5E51",
"/  c #64604B",
"(  c #6F614E",
")  c #706141",
"_  c #74614E",
"`  c #676055",
"'  c #6C6253",
"]  c #6C6852",
"[  c #6D655A",
"{  c #6F685D",
"}  c #726454",
"|  c #776B56",
" . c #726659",
".. c #746A5C",
"X. c #796C5D",
"o. c #746E61",
"O. c #796E61",
"+. c #767165",
"@. c #7A7365",
"#. c #777468",
"$. c #7B7669",
"%. c #7C7A6E",
"&. c #7F7D71",
"*. c #807666",
"=. c #80776A",
"-. c #817A6D",
";. c #817F72",
":. c #7F8226",
">. c #868172",
",. c #858273",
"<. c #868373",
"1. c #848072",
"2. c #838174",
"3. c #828077",
"4. c #858174",
"5. c #868175",
"6. c #858275",
"7. c #868275",
"8. c #858376",
"9. c #868377",
"0. c #878577",
"q. c #858275",
"w. c #888174",
"e. c #888276",
"r. c #888577",
"t. c #898577",
"y. c #898375",
"u. c #838178",
"i. c #838279",
"p. c #838278",
"a. c #848178",
"s. c #848279",
"d. c #878378",
"f. c #86827A",
"g. c #868478",
"h. c #878579",
"j. c #878578",
"k. c #878679",
"l. c #87857B",
"z. c #878579",
"x. c #888579",
"c. c #8A8578",
"v. c #8A8478",
"b. c #898678",
"n. c #888679",
"m. c #898679",
"M. c #898779",
"N. c #8A8679",
"B. c #8A8779",
"V. c #88857A",
"C. c #88867A",
"Z. c #8A877A",
"A. c #8B877A",
"S. c #8A867A",
"D. c #8B877D",
"F. c #89877F",
"G. c #89867E",
"H. c #89867B",
"J. c #8B8879",
"K. c #8B887A",
"L. c #8B897A",
"P. c #8B887B",
"I. c #8B897B",
"U. c #8C897A",
"Y. c #8C897B",
"T. c #8D8A7B",
"R. c #8B897C",
"E. c #8C897C",
"W. c #8D897C",
"Q. c #8D8A7D",
"!. c #8C897D",
"~. c #908C7F",
"^. c #8C8980",
"/. c #8D8B83",
"(. c #8E8C83",
"). c #8D8B83",
"_. c #918E82",
"`. c #939186",
"'. c #939189",
/* pixels */
"t t t t t t t t t t t t t t t t t t t t t t t t t t t t t t t t t t t t t t t t t t t t t t t t t t t t t t t t t t t t t t t t ",
"t t ;.%.%.%.%.%.%.%.%.%.%.%.t t t t t t t t t t t t t t t t t t t t j.j.j.j.j.j.j.j.j.j.j.j.t t t t %.%.%.%.%.%.%.%.%.%.%.%.t t ",
"t 8.%.%.%.%.%.%.%.%.%.%.%.%.3.t t t t t t t t t t t t t t t t t t (.j.j.j.j.j.j.j.j.j.j.j.j.(.t t s.%.%.%.%.%.%.%.%.%.%.%.%.s.t ",
"t 3.%.%.%.%.%.%.%.%.%.%.%.%.p.t t t t t t t t t t t t t t t t t t (.j.j.j.j.j.j.j.j.j.j.j.j.(.t t s.%.%.%.%.%.%.%.%.%.%.%.%.s.t ",
"t p.%.%.%.%.%.%.%.%.%.%.%.%.p.t t t t t t t t t t t t t t t t t t (.j.j.j.j.j.j.j.j.j.j.j.j.(.t t s.%.%.%.%.%.%.%.%.%.%.%.%.s.t ",
"t p.%.%.%.%.%.%.%.%.%.%.%.%.p.t t t t t t t t t t t t t t t t t t (.j.j.j.j.j.j.j.j.j.j.j.j.(.t t s.%.%.%.%.%.%.%.%.%.%.%.%.s.t ",
"t p.%.%.%.%.%.%.%.%.%.%.%.%.p.t t t t t t t t t t t t t t Z Z Z Z F.8.8.1.;.&.8.j.j.j.j.j.j.(.t t s.%.%.%.%.%.%.%.%.%.%.%.%.s.t ",
"t s.%.%.%.%.%.%.%.%.%.%.%.%.p.t t t t t t t t t C Q ! ! ! _ _ _ _ _ ! ! I - O ~ 8.j.j.j.j.j.(.t t s.%.%.%.%.%.%.%.%.%.%.%.%.s.t ",
"t s.%.%.%.%.%.%.%.%.%.%.%.%.p.t t t t t t t t t G -.;.8.8.t.8.8.8.8.x.0.-.P # J &.j.j.j.x.x.(.t t s.%.%.%.%.%.%.%.%.%.%.%.%.s.t ",
"t s.%.%.%.%.%.%.%.%.%.%.%.%.p.t t t t t t t r e G ;.j.x.x.1.@.X.X.=.x.x.t...- s @.8.j.j.x.x.(.t t s.%.%.%.%.%.%.%.%.%.%.%.%.s.t ",
"t s.%.%.%.%.%.%.%.%.%.%.%.%.p.t t t t t M l v b _ ;.x.x.x.1.@.O.O.-.x.x.K.X.u p P ..=.1.8.0.(.t t s.%.%.%.%.%.%.%.%.%.%.%.%.s.t ",
"t s.%.%.%.%.%.%.%.%.%.%.%.%.p.t t C F ) ! X.@.@.@.;.x.x.x.;.-.e.x.x.K.x.K.X.W ..#. .Y  .@.-.).t t s.%.%.%.%.%.%.%.%.%.%.%.%.s.t ",
"t s.%.%.%.%.%.%.%.%.%.%.%.%.;.Z H | @.$.@.} Y Y } ;.x.K.K.x.x.x.x.x.K.K.K.X.Y I Y ..%.$.@.| ;.t t s.%.%.%.%.%.%.%.%.%.%.%.%.s.t ",
"t s.%.%.%.%.%.%.%.%.%.%.#.X...O.@.@.X.} | =.t.1.=.-.t.K.K.x.K.U.K.U.K.K.W.X.@.x.j.$.| | @. . .l N $.#.%.%.%.%.%.%.%.%.%.%.%.s.t ",
"t U F.F.F.F.F.F.F.F.s.;...X.-.;.$. .} O.;.1.1.1.=.-.U.U.U.U.U.U.W.W.U.K.x.X.@.j.0.x.8.$. .| ...._ I O.;.j.F.F.F.F.F.F.F.F.)./ t ",
"t t U U U U K U U U U } 8.8.-.X...$.-.-.1.8.1.1.X.| W.x.x.x.x.x.K.R.R.W.e.$.-.3.8.0.x.x.x.$. .X.#.-.O.P n U U U U / / / / / t t ",
"t t t t t t t t t N } -.j.$.| @.;.8.8.8.0.t.t.$.I I -.$.o.X.o.o.o.o.%.s.-.@.;.8.8.8.j.s.8.8.;...} #.;.@.m e t t t t t t t t t t ",
"t t ;.;.;.;.;.%.X...O.@.=...-.8.8.8.8.0.0.8.;. .p p R W R R R R W W ' ..[ X.%.8.s.8.8.3.%.;.8.s.$. .#.O.| } X.%.;.;.;.;.;.;.t t ",
"t F.;.;.;.;.%.@.@.;.;.X...%.8.8.8.8.8.8.%.o.` E d u c c c x c c n n I R P W ..#.%.;.8.8.;.;.;.;.3.O.Y O.;.-.X.X.%.;.;.;.;.;.j.t ",
"t F.;.;.;.%.X.@.8.;.@.X.;.8.s.0.t.t.-.X.~ K d d d c c P W }  . . . . .R c P W  .....#.;.3.3.;.;.;.;.X. .$.8.8. .o.&.;.;.;.;.G.t ",
"t F.;.;.;.@.} -.-.#. .x.j.j.x.x.x.-.[ K d s p P '  . .......X.o.+.#.#.+.' R [  .^ ^ [ o.%.8.3.;.;.;.;.$.W %.;.@.} %.;.;.;.;.G.t ",
"t F.%.%.$.}  .$.#.} X.8.x.R.W.W.8.[ d s d P '  . .........X.+.+.#.#.+.o.....+.+.o. .' ^ { %.s.s.;.;.;.;.Y X.%.-.W X.%.%.%.;.G.t ",
"t F.@.#.@.! O.X...Y #.#.%.-.8.v...s p a (  . ...+.+.+.+.+.#.@.#.#.#...o.#.@.@.+.+.+.X.^ W ` %.-.$.#.$.$.$. .X.@...! @.@.@.$.F.t ",
"t $.@.;.-.$.$.@.#.#.#.#.X.X.X. .J p P [  . . . . . .{ ......o.o.o...' [ o.o.o.+.+.+.+.#. .I  .O.X.X.@.-.-.=.=.=.=.=.=.=.-.I { t ",
"t Y W.j.8.;.;.;.;.&.&.;.;.;.#.W p P [ ...... .' T R R R E W W ' ' ' ' ' ' ' W ' o.+.+.#.#.' P ;.W.x.8.8.8.8.8.8.8.8.8.8.w.- O w ",
"t Y F.8.8.;.%.-.;.;.;.;.;.;.;.P p ` ........ .W ' ........X.o.o.+.+.o.o.+.#...'  .+.+.#.#.o.P #.x.8.;.8.8.8.8.-.-.e.e.8.w.-   8 ",
"t Y W.8.8.%.%.$.-.3.3.;.;.8.-.p P [ o.........' [ +.+.+.+.+.+.+.@.#.#.#.@.@.+.[ ' o.+.#.#.#.' ^ ;.8.;.8.8.8.8.@.-.;.1.t.w.-   8 ",
"t Y W.8.8.#.;.$.#.8.8.8.8.x.-.p R o.o.o.o...' ^ [ +.+.+.+.+.#.#.@.@.@.@.@.#.+.[ [ o.+.+.+.+.o.P -.8.8.8.v.v.e.@.-.@.-.x.w.-   8 ",
"t Y W.s.8.@.@.@.$.j.j.8.j.W.;.p R +.+.+.+.o.^ W { #.@.#.#.@.@.@.@.#.#.@.@.@.+.[  .+.+.+.+.+.+.c -.8.8.x.v.x.x.X.@.@.;.x.w.-   8 ",
"t Y (.x.x.;.-.;.j.x.x.j.j.R.;.p E +.+.+.+.#.o.' ..#.#.%.%.#.@.#.#.#.#.@.@.@.+. ...+.+.+.+.+.+.c -.x.j.x.x.x.U.=.-.x.x.x.w.-   8 ",
"t c _.R.x.A.W.W.x.x.x.x.x.x.-.p E #.+.#.#.#.+. ...#.$.%.%.$.#.#.#.%.%.#.#.#.#...o.#.+.+.+.+.o.c -.x.x.x.x.x.W.W.W.W.W.R.w.-   8 ",
"t j `.W.x.A.x.x.x.x.x.x.8.$.X.< R #.#.#.#.#.+...o.#.$.$.%.$.$.$.%.%.%.%.%.%.#...+.#.+.+.o.o.[ c O.-.s.x.x.W.W.W.x.1.e.R.e.-   8 ",
"t f `.(.W.F.F.F.x.;.@.@.$.$.X.c P %.%.%.%.%.+...o.#.#.#.$.%.%.%.%.%.%.%.%.%.#...+.#.#.+.o...W } @.$.#.O.O.#.8.F.x.8.e.R.-.=   8 ",
"t 5 ;.;.%.#.#.#.#. .O.$.-.j.;.X.W #.%.%.%.%.+.o.o.#.#.#.$.%.%.%.%.%.%.%.%.%.#.X.+.#.#.@.+. .' $.;.;.#.X.R ^ o.#.#.#.#.#.X.$   8 ",
"t u o.[ ' ' ' ^ R I @.x.j.3.2.;.#.O.#.%.%.%.#...o.#.%.%.%.%.%.%.%.%.%.%.%.%.#...+.#.#.#. .} O.%.-.-.;.;.Y W W ^ ^ ' ^ ` ^ + . q ",
"t u [ ~ W @.O.X.} I Y R.8.8.8.8.8.-.@.#.%.%.#.+.o.X.o.o.o.o.o.O.o.X.X.X.X.X. ...#.#.#.X.' X.-.;.;.;.-.;.c  .X.@.@.=.R ` W + 2 e ",
"t X.L c c ;.;.%.#...P $.s.s.8.8.8.j.-.X.O.%.%.$.#.#.#.@.@.#.$.#.@.#.X. .o.#.@.#.#.+. .} X.-.8.8.8.3.;. .P #.;.s.x.;.p 1 u & e t ",
"t )... .c o.8.;.-.$.' P %.F.j.j.j.x.x.-.X...@.%.%.&.%.%.%.%.-.-.%.%.$.@.$.%.%.%. . .X.#.;.8.s.s.8.8...p ^ %.8.s.8.' = % 8 w t t ",
"t (.j.0.} R &.3.;.-.@.P [ %.;.s.x.x.x.x.;.@.X.....X.#.%.%.%.%.%.%.%.%.%.%.o.....O.$.8.j.j.j.j.x.;...d c ..%.8.x.X., X 3 t t t t ",
"t ).j.j.%.P o.3.;.$. .P L o.o.#.x.x.x.x.0.8.-.@...} } } }  . . . .} } ..o. .X.$.8.x.F.x.x.x.R.x.o.P a P W ;.j.;.P $ o w t t t t ",
"t (.j.j.0...R o.$.=.$.X.W ' [ X.8.W.F.x.x.8.8.;.=.| X.*.*.*.*.@.@.@.@.O...X.-.v.x.F.F.F.F.F.%...T P ' ..X.@.#.W ; @ 4 t t t t t ",
"t (.j.j.j.;.Y T X.8.j.8.%.X.!  .#.;.x.x.x.x.8.8.=.*.8.A.U.x.t.8.8.8.8.;.=.@.;.e.x.F.W.x.;.#.^ P P  .@.%.%.X.P p % 6 e t t t t t ",
"t (.j.j.j.j.$.I ^ #.s.s.;.;.#. .W  .#.-.8.x.W.8.-.;.t.t.x.t.t.t.e.8.8.8.8.@.=.x.W.x.;.#.[ T P ' O.%.-.%.#.E , * 6 e t t t t t t ",
"t (.j.j.j.j.0.@.} [ #.8.8.8.s.-.| W W ' X.@.=.=.=.e.x.x.A.t.w.1.;.8.8.8.v.O.@.=.@.X.' R P P ' #.-.-.%.@.^ s * 6 e t t t t t t t ",
"t (.j.j.j.j.j.).W n ` +.;.F.F.R.;.X. .I n I ' } | e.x.A.U.t.;.;.;.e.x.x.x.X.! _ R c c W  .X.@.%.-.%.[ E s * 6 e t t t t t t t t ",
"t (.j.j.j.j.j.(.t w k n o.#.8.8.=.;.-.#.O.W z z ! t.W.W.U.A.-.X.*.e.A.x.K.O.x u P  .@.-.1.;.-.-.#.` K y 7 q e t t t t t t t t t ",
"t ] '.'.'.'.'.] t t 9 7 n E .. .$.F.j.3.;.@. . .X.c.W.~.W.t.;.w.;.e.U.A.U.@.R ' #.-.8.x.R.t.@. .~ s i w e t t t t t t t t t t t ",
"t t ] ] ] ] ] t t t t t M h i P o.o.$.x.8.;.%.$.*.A._._.~.W.U.W.W.U.W.W.W.@.' @.;.8.8.-. .W P c y h e t t t t t t t t t t t t t ",
"t t t t t t t t t t t t t e w h x T [ { { o.o. .} $.;.%.%.%.%.$.$.#.%.;.;.} n W .. .' W T p y 7 w t t t t t t t t t t t t t t t ",
"t t ;.;.;.;.;.;.;.t t t t t t e w g a T T E ~ T P  .o.{ { { { [ [ [ [ [ ..P u n U P d a p R w t t t t t t t t t t t t t t t t t ",
"t F.;.;.;.;.;.;.;.t t t t t t t t e w h h i , > p ` [ [ ` ` ` ` ` ~ ~ ~ ` d : : > c W  .X.%.j.t t t t t t t t t t t t t t t t t ",
"t F.;.;.;.;.;.;.;.;.t t t t t t t t t t t e e w k ^ E R E ~ ~ ~ ~ ~ ~ ~ ~ s = J X.@.%.%.&.;.F.t t t t t t t t t t t t t t t t t ",
"t F.;.;.;.;.;.;.;.;.;.;.;.;.F.t t t t t t t t S V y > > > , , , , , , , , = s +.&.;.;.;.;.;.F.t t t t t t t t t t t t t t t t t ",
"t F.;.;.;.;.;.;.;.;.;.;.;.;.F.t t t t t t t t t D A e e B A e e e %.#.#.#.+.#.&.;.;.;.;.;.;.F.t t t t t t t t t t t t t t t t t ",
"t F.;.;.;.;.;.;.;.;.;.;.;.;.F.t t t t t t t t t D D t D D 0 t t t F.;.;.;.;.;.;.;.;.;.;.;.;.F.t t t t t t t t t t t t t t t t t ",
"t F.;.;.;.;.;.;.;.;.;.;.;.;.F.t t t t t t t t t 0 0 t D D 0 t t t F.;.;.;.;.;.;.;.;.;.;.;.;.F.t t t t t t t t t t t t t t t t t ",
"t F.;.;.;.;.;.;.;.;.;.;.;.;.F.t t t t t t t t t t t t 0 0 t t t t F.;.;.;.;.;.;.;.;.;.;.;.;.F.t t t t t t t t t t t t t t t t t ",
"t F.;.;.;.;.;.;.;.;.;.;.;.;.F.t t t t t t t t t t t t t t t t t t F.;.;.;.;.;.;.;.;.;.;.;.;.F.t t t t t t t t t t t t t t t t t ",
"t F.;.;.;.;.;.;.;.;.;.;.;.;.F.t t t t t t t t t t t t t t t t t t F.;.;.;.;.;.;.;.;.;.;.;.;.F.t t t t t t t t t t t t t t t t t ",
"t F.;.;.;.;.;.;.;.;.;.;.;.;.F.t t t t t t t t t t t t t t t t t t ).).).).).;.;.;.;.;.;.;.;.F.t t t t t t t t t t t t t t t t t ",
"t F.;.;.;.;.;.;.;.;.;.;.;.;.F.t t t t t t t t t t t t t t t t t t t t / / / ).;.;.;.;.;.;.;.F.t t t t t t t t t t t t t t t t t ",
"t F.;.;.;.;.;.;.;.;.;.;.;.;.F.t t t t t t t t t t t t t t t t t t t t t t t / ).;.;.;.;.;.;.F.t t t t t t t t t t t t t t t t t ",
"t / ).).).).).).).).).).).)./ t t t t t t t t t t t t t t t t t t t t t t t t / ).).).).).).t t t t t t t t t t t t t t t t t t ",
"D :.:./ / / / / / / / / / / t t t t t t t t t t t t t t t t t t t t t t t t t t / / / / / / t t t t t t t t t t t t t t t t t t "
};
