/* XPM */
static const char *R3Jhc3MlMjgxJTI5[] = {
/* columns rows colors chars-per-pixel */
"64 64 210 2 ",
"   c #72751B",
".  c #73761C",
"X  c #7A7D21",
"o  c #777A1F",
"O  c #74771C",
"+  c #74781E",
"@  c #777A21",
"#  c #74771D",
"$  c #787B20",
"%  c #7E8125",
"&  c #7B7E23",
"*  c #75781E",
"=  c #6A7019",
"-  c #6F741C",
";  c #73761D",
":  c #777B20",
">  c #797D22",
",  c #787B21",
"<  c #6D731B",
"1  c #666C17",
"2  c #6E721A",
"3  c #7A7D22",
"4  c #7F8226",
"5  c #6D721A",
"6  c #70741D",
"7  c #777A20",
"8  c #6C711A",
"9  c #72771E",
"0  c #767A1F",
"q  c #797C22",
"w  c #6E731C",
"e  c #72751C",
"r  c #75781F",
"t  c #767920",
"y  c #757821",
"u  c #7F8137",
"i  c #7B7E30",
"p  c #6C7119",
"a  c #6F731C",
"s  c #767A20",
"d  c #666D17",
"f  c #74781F",
"g  c #6F731A",
"h  c #8B8A4E",
"j  c #AFA696",
"k  c #A39D7E",
"l  c #7C7E31",
"z  c #686E18",
"x  c #7C7E32",
"c  c #A29B80",
"v  c #A68C63",
"b  c #A5916D",
"n  c #94946A",
"m  c #70731A",
"M  c #747731",
"N  c #A09F86",
"B  c #919269",
"V  c #6A6E19",
"C  c #6E741C",
"Z  c #6E731A",
"A  c #676C18",
"S  c #7C7F23",
"D  c #787C22",
"F  c #76791E",
"G  c #7D8240",
"H  c #82884B",
"J  c #747924",
"K  c #71741B",
"L  c #72761D",
"P  c #7C8024",
"I  c #76791F",
"U  c #7D8342",
"Y  c #999884",
"T  c #9E9B8F",
"R  c #7C8351",
"E  c #767A23",
"W  c #6B7019",
"Q  c #868F6B",
"!  c #9C8F71",
"~  c #A08E6F",
"^  c #8C9279",
"/  c #787D2B",
"(  c #72761C",
")  c #71761D",
"_  c #676D19",
"`  c #828B68",
"'  c #889278",
"]  c #686F24",
"[  c #696F18",
"{  c #70741C",
"}  c #676E18",
"|  c #6A6F1A",
" . c #6B701B",
".. c #70741B",
"X. c #6A6F19",
"o. c #72761E",
"O. c #797C21",
"+. c #6D721B",
"@. c #8A936E",
"#. c #899379",
"$. c #767A26",
"%. c #73771E",
"&. c #6C721B",
"*. c #9B8C64",
"=. c #9CA5A6",
"-. c #767A2A",
";. c #666D18",
":. c #7B7E22",
">. c #97976C",
",. c #9B9B7B",
"<. c #727728",
"1. c #767127",
"2. c #757C43",
"3. c #72761F",
"4. c #6B711A",
"5. c #797D32",
"6. c #8F9881",
"7. c #888F66",
"8. c #93946A",
"9. c #A5916E",
"0. c #A78F6A",
"q. c #9D9A7A",
"w. c #6C7124",
"e. c #949571",
"r. c #9F9E7E",
"t. c #727622",
"y. c #71751B",
"u. c #7F843F",
"i. c #9DA19D",
"p. c #9C9071",
"a. c #787C3A",
"s. c #A59C81",
"d. c #AEA28F",
"f. c #82834D",
"g. c #989877",
"h. c #A6906C",
"j. c #B2ADA3",
"k. c #787A27",
"l. c #787B2D",
"z. c #A2A083",
"x. c #9A996F",
"c. c #777B28",
"v. c #7D8354",
"b. c #9DA09A",
"n. c #919A85",
"m. c #6F721A",
"M. c #777A38",
"N. c #797C3F",
"B. c #70731F",
"V. c #AAA896",
"C. c #AFA593",
"Z. c #7E8047",
"A. c #73761E",
"S. c #777B21",
"D. c #7F8131",
"F. c #A39D7F",
"G. c #A68D66",
"H. c #A6926D",
"J. c #98976E",
"K. c #6F7423",
"L. c #72793E",
"P. c #727834",
"I. c #787B3D",
"U. c #6F731D",
"Y. c #757920",
"T. c #6C711F",
"R. c #80824A",
"E. c #A39C80",
"W. c #757933",
"Q. c #7D7F35",
"!. c #939369",
"~. c #70741F",
"^. c #757938",
"/. c #747832",
"(. c #7B7D33",
"). c #A59D80",
"_. c #A5926E",
"`. c #969569",
"'. c #767A29",
"]. c #939D8E",
"[. c #8E977D",
"{. c #797C30",
"}. c #A3A28A",
"|. c #9A9A78",
" X c #9F997C",
".X c #73772E",
"XX c #777723",
"oX c #A08D6B",
"OX c #96A097",
"+X c #A69F85",
"@X c #A89270",
"#X c #A4A289",
"$X c #707420",
"%X c #737733",
"&X c #72762D",
"*X c #72741C",
"=X c #6E6E23",
"-X c #6E742E",
";X c #7E8035",
":X c #B2AEA6",
">X c #A39D83",
",X c #71762C",
"<X c #72751F",
"1X c #70752F",
"2X c #70742B",
"3X c #7D8025",
"4X c #7A7D23",
"5X c #71761E",
"6X c #7D8024",
"7X c #676D18",
/* pixels */
"                                                                                                                                ",
"                                                                                                                                ",
"                                                                                                                                ",
"                                                                                                                                ",
"                                                                                                                                ",
"                                                                              .                                                 ",
"                                                                              X o                                               ",
"                                                                      . O .   + @ #                                             ",
"                                                                      $ % & * = - ; . O .                                       ",
"                                                                    . . : > , < 1 2 3 4 3 .                                     ",
"                                                                  * & $ 5 6 7 # 8 9 , & *                                       ",
"                                                                    0 q , w - e r , t .                                         ",
"                            y u i                                   p a s # p d - f 8 g                                         ",
"                          y h j k l                                   p - ; . 5 z z g                                           ",
"                          x c v b n                                     p 2 o s .                                               ",
"                          m M N B V                                         0 C Z                                               ",
"                            g A V                                           p 2                               . * *             ",
"                                                                                                            . 7 % S .           ",
"                                                                                                            7 , D .             ",
"                                                                                                  . F .   G H J = K             ",
"                                                                                                  L P I U Y T R E               ",
"                                                                                                  W q q Q ! ~ ^ / (             ",
"                                                                                                    ) 7 _ ` ' ] [ K             ",
"                                                                                                    p { } |  .1 ..              ",
"                                                                                                      p X.t o.W K               ",
"                                                                                                          * p K                 ",
"                                                                                                                                ",
"                                                                                                                                ",
"                                                                                                                                ",
"                                                                                                                                ",
"                                                                                                                                ",
"                                                                                                                                ",
"                                                                                                                                ",
"                                                                                                                                ",
"                                                                                                                                ",
"                                                                                                                                ",
"                                                                                                                                ",
"                                                                                                                                ",
"                                                                                                                O..             ",
"                                                                                                      $ 3 I .   3 I             ",
"                                                                                                      F % q I . +.7 .   3       ",
"                                                                                                        - s , @.#.$.I I -       ",
"                    . O.                                                                              O.%.&.s *.=.-.7 , ;.      ",
"          . :.3 I   . q *                                                                             w >.,.<.1.2.3.8 4.2       ",
"            o % , I K +.7   5.6.7.                                                                    8.9.0.q.w.e.r.t.2         ",
"            y.w , , %.z # I u.i.p.7.                                                                  a.s.d.f.g.h.j.k.          ",
"          . & o.&., s l.z.x.c.v.b.n.                                                                  m.M.N.B.V.C.Z.A.          ",
"          y.< S.o.&.D.F.G.H.J.K.L.P.                                                                    m.2 y.M.I.U.            ",
"            Z 4.Y.d T.R.C.E.W.Q.N !.                                                                          m.2               ",
"              m . g g ~.^./.(.).v _.`.                                                                                          ",
"              '.].[.  y.{.}.|.f.j  X.X                                                                                          ",
"              XXoXOX  i +X@X#X$X%X&Xm                                                                                           ",
"              *X=X-X  ;X:X>X,XK g m                                                                                             ",
"                m m   <X1X2Xm                                                                                                   ",
"                        m ..                                                                                                    ",
"                                                                        $ 3XI                                                   ",
"                                                                        . 3 4X7 #     3 3X*                                     ",
"                                                                          8 5X, #   I 6Xo                                       ",
"                                                                          y.W 7X2 I , , #                                       ",
"                                                                            y.K   I , &.Z                                       ",
"                                                                                  = ;.2                                         ",
"                                                                                                                                ",
"                                                                                                                                ",
"                                                                                                                                "
};
