/* XPM */
static const char *UF9kb3duXzI_[] = {
/* columns rows colors chars-per-pixel */
"64 64 226 2 ",
"   c #191919",
".  c #2E1E19",
"X  c #212218",
"o  c #2B2B19",
"O  c #2A261C",
"+  c #363619",
"@  c #35241D",
"#  c #1C1D22",
"$  c #1C2728",
"%  c #1C2E33",
"&  c #1D343C",
"*  c #1E302F",
"=  c #2B2624",
"-  c #2C263C",
";  c #352A39",
":  c #21383A",
">  c #383338",
",  c #323225",
"<  c #1F2019",
"1  c #5A271B",
"2  c #553318",
"3  c #692A1B",
"4  c #732B19",
"5  c #7A2C1B",
"6  c #74361A",
"7  c #66351B",
"8  c #492B26",
"9  c #593328",
"0  c #413C34",
"q  c #443F3F",
"w  c #553935",
"e  c #50352A",
"r  c #753C35",
"t  c #6B3627",
"y  c #2D4337",
"u  c #494A1A",
"i  c #53551A",
"p  c #585A1B",
"a  c #504E1A",
"s  c #714319",
"d  c #71541A",
"f  c #665D1A",
"g  c #5F611C",
"h  c #666B19",
"j  c #6A6D1B",
"k  c #65671A",
"l  c #726D1B",
"z  c #6D721B",
"x  c #72751B",
"c  c #76791F",
"v  c #5C5C25",
"b  c #53522A",
"n  c #575826",
"m  c #4A4536",
"M  c #5B4536",
"N  c #43583D",
"B  c #5C5A3A",
"V  c #4D4928",
"C  c #684738",
"Z  c #784B38",
"A  c #695030",
"S  c #4B6038",
"D  c #4E6136",
"F  c #5B652F",
"G  c #636323",
"H  c #686B24",
"J  c #796627",
"K  c #6D7226",
"L  c #767A21",
"P  c #797C22",
"I  c #747729",
"U  c #787B35",
"Y  c #646431",
"T  c #1E3D48",
"R  c #342C45",
"E  c #38344A",
"W  c #3D3854",
"Q  c #2C3142",
"!  c #483948",
"~  c #443C5A",
"^  c #573E4B",
"/  c #6C3E41",
"(  c #453F60",
")  c #1F414F",
"_  c #35454A",
"`  c #224C5B",
"'  c #254954",
"]  c #24525F",
"[  c #304B4C",
"{  c #346459",
"}  c #265963",
"|  c #295B66",
" . c #2C6969",
".. c #366A6B",
"X. c #2E7274",
"o. c #327877",
"O. c #316C73",
"+. c #48464B",
"@. c #42455C",
"#. c #4C5A58",
"$. c #535958",
"%. c #554C4A",
"&. c #754C44",
"*. c #6E524D",
"=. c #4D6452",
"-. c #736B4C",
";. c #494765",
":. c #555C77",
">. c #51526A",
",. c #645B6B",
"<. c #526F6F",
"1. c #6F7272",
"2. c #822F1D",
"3. c #92381C",
"4. c #893725",
"5. c #9A3926",
"6. c #A73D29",
"7. c #A03F1D",
"8. c #9F421F",
"9. c #895139",
"0. c #855739",
"q. c #934B36",
"w. c #B44528",
"e. c #AE4D31",
"r. c #976C37",
"t. c #A4421E",
"y. c #C7522F",
"u. c #D5632F",
"i. c #DA6A3B",
"p. c #845A51",
"a. c #8F5A47",
"s. c #B65B42",
"d. c #856A54",
"f. c #956B57",
"g. c #8A745B",
"h. c #996F56",
"j. c #A66649",
"k. c #AA775B",
"l. c #B47858",
"z. c #A86E52",
"x. c #837B77",
"c. c #89766C",
"v. c #C46D43",
"b. c #C77952",
"n. c #7E8125",
"m. c #7F8237",
"M. c #34827D",
"N. c #7D8249",
"B. c #668377",
"V. c #568179",
"C. c #83854C",
"Z. c #878E68",
"A. c #98956B",
"S. c #9B9878",
"D. c #919175",
"F. c #A48B69",
"G. c #A7916D",
"H. c #A6977A",
"J. c #B18C75",
"K. c #B79857",
"L. c #CA845B",
"P. c #D9884B",
"I. c #EE934E",
"U. c #F09850",
"Y. c #E78649",
"T. c #CA8963",
"R. c #D3946B",
"E. c #D5A474",
"W. c #E2A97A",
"Q. c #3B7684",
"!. c #5D6B84",
"~. c #407E8C",
"^. c #636D86",
"/. c #67748B",
"(. c #657991",
"). c #737E93",
"_. c #388985",
"`. c #399189",
"'. c #459999",
"]. c #468E8E",
"[. c #748499",
"{. c #6C908F",
"}. c #549EAE",
"|. c #7D91A4",
" X c #7096A0",
".X c #4EA9A9",
"XX c #53ACAE",
"oX c #58ACB6",
"OX c #58B4B8",
"+X c #70B3B2",
"@X c #5EBBC1",
"#X c #63BCC5",
"$X c #6BCAD5",
"%X c #72D1DE",
"&X c #6DC5D1",
"*X c #78D8E8",
"=X c #78D5E4",
"-X c #979B8A",
";X c #96958B",
":X c #A39D83",
">X c #A19481",
",X c #A39B9A",
"<X c #9CA497",
"1X c #A6A389",
"2X c #AEA695",
"3X c #BCAD8C",
"4X c #8599AA",
"5X c #838DA0",
"6X c #8FA4B3",
"7X c #9CB1BE",
"8X c #92ABB0",
"9X c #B3AEA7",
"0X c #B1B1B1",
"qX c #EBB986",
"wX c #CFB394",
"eX c #9AC6BD",
"rX c #F6CE96",
"tX c #F3C791",
"yX c #F8D098",
"uX c #EAC38F",
"iX c #E2C1A8",
"pX c #A9BFC9",
"aX c #A6BAC4",
"sX c #9FB5C1",
"dX c #ADC3CC",
"fX c #F3EADB",
/* pixels */
"x x x x x x x x x x x x x x x x x x x x x x x x x x x x x x x x x x x x x x x x x x x x x x x x x x x x x x x x x x x x x x x x ",
"x x x x x x x x x x x x x x x x x x x x x x x x x x x x x x x x x x x x x x x x x x x x x x x x x x x x x x x x x x x x x x x x ",
"x x x x x x x x x x x x x x x x x x x x x x x x x x x x x x Y B B B B B B b b H x x x x x x x x x x x x x x x x x x x x x x x x ",
"x x x x x x x x x x x x x x x x x x x x x x x x x x x x x K %.;.;.;.;.;.;.E > v x x x x x x x x x x x x x x x x x x x x x x x x ",
"x x x x x x x x x x x x x x x x x x x x x x x x x x x x Y %.>.^.[.5X5X/.:.W > v x x x x x x x x x x x x x x x x x x x x x x x x ",
"x x x x x x x x x x x x x x x x x x x x x x x x x x z H %.>.^.|.sXpXaX4X!.@.> v x x x x x x x x x x x x x x x x x x x x x x x x ",
"x x x x x x x x x x x x x x x x x x x x x x x x x x v 0 #.^.4X7XpX7X|.^.>.W > G c x x x x x x x x x x x x x x x x x x x x x x x ",
"x x x x x x x x x x x x x x x x x x x x x x x x z G m R :.|.7XdXdX7X|.^.>.W > G L c x x x x x x x x x x x x x x x x x x x x x x ",
"x x x x x x x x x x x x x x x x x x x x x x x x G 0 E ~ ).aXpXdXdXdXaX4X!.@.> v z x x c x x x x x x x x x x x x x x x x x x x x ",
"x x x x x x x x x x x x x x x x x x x x x x z v m ; W >.).6X6X6X6X6X6X[.:.@.E m n j P n.P x x x x x x x x x x x x x x x x x x x ",
"x x x x x x x x x x x x x x x x x x x x x x H 0 - - @./.(.(.(.(.(.(.(.:.;.( ~ R 0 H P P c x x x x x x x x x x x x x x x x x x x ",
"x x x x x x x x x x x x x x x x x x x x x x H 0 R E %.*.f.h.d.p.p.d.h.a.r ^ ~ R 0 K L x x x x x x x x x x x x x x x x x x x x x ",
"x x x x x x x x x x x x x x L m.U x x x x z G 0 R ~ / 8.y.u.w.7.7.w.u.w.3./ ~ R 0 G j z x x x x x x x x x x x x x x x x x x x x ",
"x x x x x x x x x x x x x L C.2XH.U x x x n 0 8 9 r q.y.u.u.w.t.w.u.u.w.7.t e 8 8 0 b x x x x x x x x x x x x x x x x x x x x x ",
"x x x x x x x x x x x x x U :XF.G.Z.G G G 0 ; 1 5 8.e.v.b.b.j.j.b.b.v.e.4.6 3 1 8 ; 0 G j x x x x x x x x x x x x x x x x x x x ",
"x x x x x x x x x x x x x x U :XA.v 0 > > 8 1 5 8.y.j.1.;X9X9X9X9X,Xx.,.^ r 2.3 8 ; ; > n x x x x x x x x x x x x x x x x x x x ",
"x x x x x x x x x x x x x x z h j v ; R R ! &.a.k.T.>X|.7XdXdXdXdX7X4X(.>.*.r C %.@.E - b x x x x x x x x x x x c c x x x x x x ",
"x x x x x x x x x x x x x x x x x v ; E ~ :./.6X0X0XaXaXdXdXdXdXdXdXaX4X^.>.;.:.^.!.>.R b x x x x x x x x x x L n.P x x x x x x ",
"x x x x x x x x x x x x x x x x x G b m W ;.!.|.8XpXdXdXdXdXdXaX6X4X4X[.:.;.W >.:.:.;.R b x x x x x x x x x L P P x x x x x x x ",
"x x x x x x x x x x x x x x x x x x x b - W ;.!.[.7XpXpXpXpXpX7X[././.:.~ E R W ~ ~ W - b x x x x x c x x N.C.L z x x x x x x x ",
"x x x x x x x x x x x x x x x x x x x G n g.S.,.>.:.^./././.1.:.>.;.@.W E *.p.^ E E q b G x x x x x n.c N.-X-XN.L x x x x x x x ",
"x x x x x x x x x x x x x x x x x x x x c K.wX*.; ; ~ ,.;.W ! ! ! ! - E +.f.z.^ - - V x x x x x x z P P Z.A.G.D.I x x x x x x x ",
"x x x x x x x x x x x x x x x x x x x x c K.T.a.C C c.0X1.; &.k.J.g.= ,.0XJ.0.8 # # y z x x x x x x x L h Z.D.H j x x x x x x x ",
"x x x x x x x x x x x x x x x x x x x x c r.l.r.9.9.J.fXx.= h.W.tXG.= x.fXG.9 @   o a x x x x x x x z x h j z h x x x x x x x x ",
"x x x x x x x x x x x x x x x x x x x x x L r.0.9.9.J.fXx.= F.tXrXG.= x.fX1.O   o p j x x x x x x x x z j L x z x x x x x x x x ",
"x x x x x x x x x x x x x x x x x x x x x x x J Z t h.iXF.Z E.yXyXE.-.H.iX*.  + a j x x x x x x x x x x x c z x x x x x x x x x ",
"x x x x x x x x x x x x x x x x x x x x x x x x p o C T.T.T.qXyXyXrXtXW.T.C O p x x x x x x x x x x x x x x x x x x x x x x x x ",
"x x x x x x x x x x x x x x x x x x x x x x x x h a b C z.T.E.W.W.W.W.k.C b a h x x x x x x x x x x x x x x x x x x x x x x x x ",
"x x x x x x x x x x x x x x x x x x x x x x x x l l a < Z b.L.L.L.L.b.Z < a l l x x x x x x x x x x x x x x x x x x x x x x x x ",
"x x x x x x x x x x x x x x x x x x x x x x l d s s 7 1 9 M 0.j.j.0.M 9 1 7 s s d l x x x x x x x x x x x x x x x x x x x x x x ",
"x x x x x x x x x x x x x x x x x x x x x l d 6 4 2.2.2.1 8 Z j.r.Z 8 1 2.2.2.4 6 d l x x x x x x x x x x x x x x x x x x x x x ",
"x x x x x x x x x x x x x x x x x x x x x d 6 4 2.6.w.w.6.e.v.P.P.v.e.6.w.w.6.2.4 6 d x x x x x x x x x x x x x x x x x x x x x ",
"x x x x x x x x x x x x x x x x x x x x x b 9 3 2.6.w.y.y.i.Y.U.U.Y.i.y.y.w.6.2.t C B F H x x x x x x x x x x x x x x x x x x x ",
"x x x x x x x x x x x x x x x x x x x x x N _ 9 4 4 5.y.i.I.I.U.U.I.I.i.y.5.5 4 C <...' D x x x x x x x x x x x x x x x x x x x ",
"x x x x x x x x x x x x x x x x x x x H S { ..1.1.$.*.&.g.A.A.A.A.A.A.g.&.w %.,.{.XX_.` S x x x x x x x x x x x x x x x x x x x ",
"x x x x x x x x x x x x x x x x x x x S ` X.'.&X&X'.X.` X.`.`.`.`.`.`.X.` ` | oX=X*X}.` S x x x x x x x x x x x x x x x x x x x ",
"x x x x x x x x x x x x x x x x x x x S ` ].#X%X#Xo. .X.'.@X@X@X@X@X@X'.X.} | '.OX%XoXo.{ N H x x x x x x x x x x x x x x x x x ",
"x x x x x x x x x x x x x x x x x x x S ` }.=X%XoX} } M.XX%X=X*X*X=X$XoX`. .' X.'.&X+X]...[ F x x x x x x x x x x x x x x x x x ",
"x x x x x x x x x x x x x x x x x x x S ` }.%XOX_.: T } _..X&X*X*X&X.X'.`.#.w [ <.>XH.F.d.C J x x x x x x x x x P x x x x x x x ",
"x x x x x x x x x x x x x x x x x x x S ` {.8X{.<.m 0 E #.B.8XeXeX8XB.<.<.%.w _ $.l.R.E.j.A H x x x x P P c x x P c x x x x x x ",
"x x x x x x x x x x x x x x x x x x x S ` c.R.J.F.l.a.t q.s.L.E.E.L.s.q.t q ' ' $.l.E.tXd.o p x x x x c n.P c x z L x x P x x x ",
"x x x x x x x x x x x x x x x x x x x Y %.h.T.E.W.W.k.w &.f.H.3X3X3XJ.c.1.<.| ) %.R.qXyXd.X i x x x x x z L P Z.D.I c c z x x x ",
"x x x x x x x x x x x P x x x x x x x J 9.l.R.qXrXrXH.' O.].#X=X=X=X=X=X%X.Xo.: M wXyXyXd.X i x x x x P x z L F.<XI L P h x x x ",
"x x x x x x P P c x x P c x x x x x x J 9.l.R.qXyXyX1XX.'.OX$X*X*X*X*X&XoX_.} % , -.d.d.m X i x x x x z A.S.I I -.x z z z x x x ",
"x x x x x x c n.P L x z L x U -XZ.x x J 9.j.T.W.uXuX1X`.OX%X%X%X%X%X%XXX_. .) %   X X X X o p x x x x A.G.G.S.K D.S.K z x x x x ",
"x x x x x x x z P P c j c c m.<XA.Z.x J 9.C M B -.1.V.`.'..X.X.X.X'.~.O.| } ' T y a i i i p h x x x x U :X2XC.S.G.9XI x x x x x ",
"x x x x x x P x z P L I 1XA.I N.<X-Xx J Z e o $ % ) | o.o.o.M.M.M...+.+.+.+.+._ N H x x x x x x x x x z U U x 2X2XN.x x x x x x ",
"x x x x x x z L x z m.H.F.G.A.K U U x x J k n y ) ' ` } } } } } } $.q.e.e.e.q.t s j x x x x x x x x x x z z x U U z x x x x x x ",
"x x x x x x z z L h z C.2X:XU U :XA.x x x x K S _ _ +.%.+.E Q Q +.Z 6.6.6.6.5.3 2 j x x x x x x x x x x x x x z z x x x x x x x ",
"x x x x x x x x x z z x U U U :XF.G.A.x x x x K f 7 4.e.4.3 @ @ 5.6.5 5 4 4 3 @ + k x x x x x x x x x x x x x x x x x x x x x x ",
"x x x x x x x I -XD.x x U 1XS.C.2XS.I x x x x x f 2 3 5.2.3 @ @ 4.4.4 &.1.1.1.<.<.=.F x x x x x x x x x x x x x x x x x x x x x ",
"x x x x x x x L F.<Xx U :XG.1XK U I x x x x x x p o @ 3 3 3 @ . 1 3 4 1.=X=X=X=XoX| N z x x x x x x x x x x x x x x x x x x x x ",
"x x x x x x x x K K x m.9X:XI x z z x x x x j a , : [ =.=.#., = > $.{. XXXXXXXXX'.| N z x x x x x x x x x x x x x x x x x x x x ",
"x x x x x x x x x z x x I I x x x x x x x x k + $ ' O.`.`.M.y $ T Q.&XoX`.`.`._.X.' N z x x x x x x x x x x x x x x x x x x x x ",
"x x x x x x x x x x x x x x x x x x x x x x k + %  ._.`.`.M.y $ T O.'.'.`.`._.O.' % y z x x x x x x x x x x x x x x x x x x x x ",
"x x x x x x x x x x x x x x x x x x x x x x k + * }  . . . .: $ T } o.o.o.X. .' : , a x x x x x x x x x x x x x x x x x x x x x ",
"x x x x x x x x x x x x x x x x x x x x x x k +   $ $ $ $ $   $ T ` ] ] ] : $ $ , p j P n.c x x x x x x x x x x x x x x x x x x ",
"x x x x x x x x x x x x x x x x x x x x x x j a + + o         # % & & & & $     o u g P c x x x x x x x x x x x x x x x x x x x ",
"x x x x x x x x x x x x x x x x x x x x x x x x z z a                               u L c x x x x x x x x x x x x x x x x x x x ",
"x x x x x x x x x x x x x x x x x x x x x x x x x x k u u u o             + u u u u p z z x x x x x x x x x x x x x x x x x x x ",
"x x x x x x x x x x x x x x x x x x x x x x x x x x x x x j + X X X X X X i x x x z h z x x x x x x x x x x x x x x x x x x x x ",
"x x x x x x x x x x x x x x x x x x x x x x x x x x x x x z g i i i i i i h x x x x x x x x x x x x x x x x x x x x x x x x x x ",
"x x x x x x x x x x x x x x x x x x x x x x x x x x x x x x x x x x x x x x x x x x x x x x x x x x x x x x x x x x x x x x x x ",
"x x x x x x x x x x x x x x x x x x x x x x x x x x x x x x x x x x x x x x x x x x x x x x x x x x x x x x x x x x x x x x x x "
};
