/* XPM */
static const char *UF9kb3duXzE_[] = {
/* columns rows colors chars-per-pixel */
"64 64 226 2 ",
"   c #1A1A1B",
".  c #281D1A",
"X  c #222218",
"o  c #2B281A",
"O  c #383919",
"+  c #1B272B",
"@  c #1C2D34",
"#  c #1D333D",
"$  c #292825",
"%  c #2D263D",
"&  c #362B3A",
"*  c #333331",
"=  c #191F22",
"-  c #46221A",
";  c #5A281C",
":  c #583719",
">  c #6B2A1B",
",  c #722D1E",
"<  c #75381A",
"1  c #68381B",
"2  c #492926",
"3  c #47352B",
"4  c #583729",
"5  c #413C33",
"6  c #433A3A",
"7  c #55312E",
"8  c #66382A",
"9  c #753728",
"0  c #753C35",
"q  c #673127",
"w  c #37472D",
"e  c #3F401C",
"r  c #4B4C1A",
"t  c #45471B",
"y  c #4E501A",
"u  c #56581A",
"i  c #524C1A",
"p  c #714719",
"a  c #72581A",
"s  c #5E611A",
"d  c #666B1A",
"f  c #6A6D1B",
"g  c #63651A",
"h  c #726B1B",
"j  c #6D721B",
"k  c #72751B",
"l  c #76791F",
"z  c #544B2B",
"x  c #575628",
"c  c #474435",
"v  c #584938",
"b  c #5B5A39",
"n  c #465131",
"m  c #77572B",
"M  c #6B4537",
"N  c #794B39",
"B  c #73523E",
"V  c #64542A",
"C  c #4D6138",
"Z  c #58662D",
"A  c #636423",
"S  c #666A21",
"D  c #6A6B24",
"F  c #7B6627",
"G  c #6D7428",
"H  c #767A21",
"J  c #797C22",
"K  c #747729",
"L  c #787B35",
"P  c #646632",
"I  c #1E3945",
"U  c #342C45",
"Y  c #37344A",
"T  c #3D3853",
"R  c #283142",
"E  c #483C48",
"W  c #443C5A",
"Q  c #593E50",
"!  c #6C3E41",
"~  c #453F60",
"^  c #1F4452",
"/  c #25464B",
"(  c #3A4747",
")  c #234A57",
"_  c #26525C",
"`  c #365258",
"'  c #285A67",
"]  c #335F6B",
"[  c #2A656A",
"{  c #2D6570",
"}  c #336B70",
"|  c #585449",
" . c #444759",
".. c #565555",
"X. c #4E4A4F",
"o. c #654647",
"O. c #635549",
"+. c #73524C",
"@. c #4D6756",
"#. c #73694F",
"$. c #484764",
"%. c #4D5469",
"&. c #52526E",
"*. c #565D77",
"=. c #504660",
"-. c #665A6D",
";. c #506A6F",
":. c #6E6D6D",
">. c #822F1D",
",. c #86351D",
"<. c #9A3C1C",
"1. c #993925",
"2. c #893A29",
"3. c #AA3E2A",
"4. c #A03F1D",
"5. c #9F421F",
"6. c #895139",
"7. c #855636",
"8. c #984B33",
"9. c #B54629",
"0. c #BA5429",
"q. c #A64930",
"w. c #8E7732",
"e. c #B46437",
"r. c #A4421E",
"t. c #C54A31",
"y. c #C95736",
"u. c #C4512C",
"i. c #D5632F",
"p. c #D8683A",
"a. c #C5613E",
"s. c #845A51",
"d. c #8C5744",
"f. c #936653",
"g. c #A5664A",
"h. c #AB7658",
"j. c #B47351",
"k. c #A56F50",
"l. c #817B78",
"z. c #8B7364",
"x. c #A75A46",
"c. c #C8774C",
"v. c #CE764A",
"b. c #E07A44",
"n. c #7E8125",
"m. c #7F8237",
"M. c #33817E",
"N. c #7D8243",
"B. c #7D8352",
"V. c #6D8474",
"C. c #4C8162",
"Z. c #83854C",
"A. c #BC815F",
"S. c #878E68",
"D. c #95956B",
"F. c #889377",
"G. c #9B9878",
"H. c #968F6C",
"J. c #A48A69",
"K. c #A7916D",
"L. c #A88876",
"P. c #B09477",
"I. c #C7845B",
"U. c #D48549",
"Y. c #EB924E",
"T. c #F09850",
"R. c #E98F4D",
"E. c #CC8862",
"W. c #D89D71",
"Q. c #CB916C",
"!. c #C4A277",
"~. c #E2A879",
"^. c #3C7A85",
"/. c #5E6983",
"(. c #497B82",
"). c #62748C",
"_. c #6C758A",
"`. c #667991",
"'. c #697389",
"]. c #398787",
"[. c #3D958F",
"{. c #439696",
"}. c #498F97",
"|. c #6C8484",
" X c #76889A",
".X c #759194",
"XX c #549BAA",
"oX c #7B92A1",
"OX c #54A9AE",
"+X c #5AABB6",
"@X c #55AFB3",
"#X c #6FACB1",
"$X c #49A09F",
"%X c #5FB0C0",
"&X c #64BCC8",
"*X c #6CCAD5",
"=X c #6DC9D5",
"-X c #75D5E4",
";X c #78D8E8",
":X c #979B8A",
">X c #939492",
",X c #A39D83",
"<X c #A39B9A",
"1X c #9BA09A",
"2X c #A6A289",
"3X c #ADA796",
"4X c #879CAD",
"5X c #838DA0",
"6X c #8FA4B3",
"7X c #95A9B7",
"8X c #9CB2BE",
"9X c #96A7A7",
"0X c #B3AEA7",
"qX c #B5B8A6",
"wX c #AEB1B2",
"eX c #E5BB88",
"rX c #CFB595",
"tX c #F8D098",
"yX c #F5CB94",
"uX c #E2C1A8",
"iX c #9FB5C1",
"pX c #A9BEC8",
"aX c #A7BBC5",
"sX c #91C1C2",
"dX c #ADC3CC",
"fX c #F3EADB",
/* pixels */
"k k k k k k k k k k k k k k k k k k k k k k k k k k k k k k k k k k k k k k k k k k k k k k k k k k k k k k k k k k k k k k k k ",
"k k k k k k k k k k k k k k k k k k k k k k k k k k k k k k k k k k k k k k k k k k k k k k k k k k k k k k k k k k k k k k k k ",
"k k k k k k k k k k k k k k k k k k k k k k k k k k k k k k k D P b b b b x z z x f k k k k k k k k k k k k k k k k k k k k k k ",
"k k k k k k k k k k k k k k k k k k k k k k k k k k k k k k k P X.$.$.$.$.Y U % 5 S k k k k k k k k k k k k k k k k k k k k k k ",
"k k k k k k k k k k k k k k k k k k k k k k k k k k k k P | | ..*.). X5X5X/.$.Y 5 S k k k k k k k k k k k k k k k k k k k k k k ",
"k k k k k k k k k k k k k k k k k k k k k k k k k k j S | $.&.*.`.4XaXpXiXoX*.T 5 S k k k k k k k k k k k k k k k k k k k k k k ",
"k k k k k k k k k k k k k k k k k k k k k k k k k k x 5 %./. X6X7XiXdX7X X/.$.Y 5 S k k k k k k k k k k k k k k k k k k k k k k ",
"k k k k k k k k k k k k k k k k k k k k k k k k j A c U *.oX8XdXdXdXdX6X).%.T & z D k k k k k k k k k k k k k k k k k k k k k k ",
"k k k k k k k k k k k k k k k k k k k k k k k k A 5 Y W _.aXpXdXdXdXdX4X).$.& x S k k k k k k k k k k k k k k k k k k k k k k k ",
"k k k k k k k k k k k k k k k k k k k k k k f x c & T &.`.6X6X6X6X6X6X X*.$.Y c x f J n.J k k k k k k k k k k k k k k k k k k k ",
"k k k k k k k k k k k k k k k k k k k k k k S 5 % %  .).).`.`.`.`.`.`.*.$.~ W U 5 S J J l k k k k k k k k k k k k k k k k k k k ",
"k k k k k k k k k k k k k k k k k k k k k k S 5 U Y X.+.f.k.f.s.s.f.k.d.0 Q W U 5 D H k k k k k k k k k k k k k k k k k k k k k ",
"k k k k k k k k k k k k k k H m.L k k j f f A 5 U W ! 5.u.i.9.<.4.0.i.0.<.! W U 5 A f j k k k k k k k k k k k k k k k k k k k k ",
"k k k k k k k k k k k k k H Z.3XG.L k x c c 5 2 7 0 8.u.i.i.9.r.0.i.i.0.<.9 7 2 2 5 x k k k k k k k k k k k k k k k k k k k k k ",
"k k k k k k k k k k k k k L ,XJ.K.S.S c % & & ; < 5.0.c.c.v.g.g.c.c.c.q.2., > ; 2 & 5 A f k k k k k k k k k k k k k k k k k k k ",
"k k k k k k k k k k k k k k L ,XD.x 5 & % 2 ; < 5.u.g.l.>X0X0X0X0X<Xl.-.Q 0 ,.> 2 & & * x k k k k k k k k k k k k k k k k k k k ",
"k k k k k k k k k k k k k k j d f x & U U E o.s.h.E.,X5X7XdXdXdXdX8X4X).&.o.0 M X. .Y U z k k k k k k k k k k k l l k k k k k k ",
"k k k k k k k k k k k k k k k k k x & Y W *._.9XwXwXaXaXdXdXdXdXdXdXaX4X).&.=.*.)./.%.U z k k k k k k k k k k H n.J k k k k k k ",
"k k k k k k k k k k k k k k k k k S z c T $./. X7XpXdXdXdXdXdXaX6X4X4X`.*.$.T %.*.*.$.U z k k k k k k k k k H J J k k k k k k k ",
"k k k k k k k k k k k k k k k k k k k z % T $.*. X8XpXpXpXpXpX8X X).).*.W Y U T W W T % z k k k k k l k k N.Z.K j k k k k k k k ",
"k k k k k k k k k k k k k k k k k k k S x #.z...%.*./._._._.:.*.$. . .T Y +.s.E U Y 6 x S k k k k k n.l N.:X:XB.H k k k k k k k ",
"k k k k k k k k k k k k k k k k k k k k k k.j.o.& & W -.=.T E E E & % Y =.f.j.o.& & z k k k k k k j J J S.H.K.F.K k k k k k k k ",
"k k k k k k k k k k k k k k k k k k k k k w.d.N M M z.qX:.* z.P.h.+.$ :.qXL.d.N M M m k k k k k k k k H d S.F.D f k k k k k k k ",
"k k k k k k k k k k k k k k k k k k k k k F 7.7.6.6.P.fXl.$ K.yX~.f.$ l.fXL.M N 7.7.F k k k k k k k j k d f j d k k k k k k k k ",
"k k k k k k k k k k k k k k k k k k k k k k F 7.6.6.P.fXl.$ K.tXyXJ.$ l.fX:.o M 7.F k k k k k k k k k j f H k j k k k k k k k k ",
"k k k k k k k k k k k k k k k k k k k k k k k F m 8 z.uXJ.B !.tXtX!.B J.uX#.o V F k k k k k k k k k k k k l j k k k k k k k k k ",
"k k k k k k k k k k k k k k k k k k k k k k k k u o M E.E.E.eXtXtXeXE.E.E.M o u k k k k k k k k k k k k k k k k k k k k k k k k ",
"k k k k k k k k k k k k k k k k k k k k k k k k d y z M k.E.W.~.~.W.E.k.M z y d k k k k k k k k k k k k k k k k k k k k k k k k ",
"k k k k k k k k k k k k k k k k k k k k k k k k k h i . B c.I.I.I.I.c.B . i h h k k k k k k k k k k k k k k k k k k k k k k k k ",
"k k k k k k k k k k k k k k k k k k k k k k k k h p 1 ; 4 v 6.g.g.6.v 9 2.< p p a h k k k k k k k k k k k k k k k k k k k k k k ",
"k k k k k k k k k k k k k k k k k k k k k k k h a ,.>.>.; 2 0 8.8.7.4 6.y.r.>., 1 A D k k k k k k k k k k k k k k k k k k k k k ",
"k k k k k k k k k k k k k k k k k k k k k k h p ,.r.9.9.3.3.9.y.v.U.c.U.R.y.3.>.4 ( C k k k k k k k k k k k k k k k k k k k k k ",
"k k k k k k k k k k k k k k k k k k k k k k D b N 1.9.t.y.p.p.b.R.T.T.R.b.y.q.s.:.(.;.Z S k k k k k k k k k k k k k k k k k k k ",
"k k k k k k k k k k k k k k k k k k k k k k G C.;.9 1.t.p.R.Y.Y.T.T.T.b.t.1.N oX=X=XXX_ C k k k k k k k k k k k k k k k k k k k ",
"k k k k k k k k k k k k k k k k k k k k k Z @.}.OX|.s.1.q.e.e.e.e.e.e.q.1.8 ..#X;X;XXX) C k k k k k k k k k k k k k k k k k k k ",
"k k k k k k k k k k k k k k k k k k k k k C ] %X-X-X.X, > , , , , , > > , 6 ] +X-X-XXX' C k k k k k k k k k k k k k k k k k k k ",
"k k k k k k k k k k k k k k k k k k k F m X.] %X*X@X(.X.;..X.X.X.X|.@.@.@.` ' {.@X@XOXXX;.C S k k k k k k k k k k k k k k k k k ",
"k k k k k k k k k k k k k k k k k k k F 6.| ;.+X+X[.[ / }.*X-X;X;X&X[.].M.[ _ } ].{.@X-X}.) Z k k k k k k k k k k k k k k k k k ",
"k k k k k k k k k k k k k k k k k k k F 6.f.z.;.} ' / + } OX=X;X;X&X[.} ' _ ) ' ^.+X*X;X}.) Z k k k k k k k k k J k k k k k k k ",
"k k k k k k k k k k k k k k k k k k k F 6.j.A.#... .*   ( V.#X=X=X@X[.} Y I I ^ ;.#XsXsX|...P k k k k J J l k k J l k k k k k k ",
"k k k k k k k k k k k k k k k k k k k F 6.j.E.A.k.d.7   8 x.V.{.{.[.[.@.q o + I %.L.!.!.A.h.w.k k k k l n.J l k j H k k J k k k ",
"k k k k k k k k k k k k k k k k k k k V 4 d.j.j.g.M 3 @ 7 d.z.F.F.V.:.O.7 $   @ | Q.~.~.W.I.w.k k k k k j H J S.F.K l l j k k k ",
"k k k k k k k k k k k J k k k k k k k t   4 6.6.M o @ ^ ) ` h.T.T.b.y.+.) @     v rXtXtX~.I.w.k k k k J k j H H.9XK H J d k k k ",
"k k k k k k J J l k k J l k k k k k k t   o 3 3 * @ ) { ].XX9XqXqX3X<X|.[ #     v rXtXtX~.I.w.k k k k j D.G.G K #.k j j j k k k ",
"k k k k k k l n.J l k j H k L :XS.k k r X X X X + ^ [ ].@X-X-X;X;X-X-X@X]./     v !.eXeXW.j.w.k k k k D.K.K.G.G D.G.G j k k k k ",
"k k k k k k k j J J l f k l m.1XH.S.k g u u u u n / _ [ ].OX=X;X;X=X@X].' 6 - . $ v O.O.v z A k k k k L ,X3XZ.G.K.0XJ k k k k k ",
"k k k k k k J k j J H K 2XD.K B.1X:Xk k k k k k A ( (  .] ].OX&X&XOX].] ( 8 , - o o o o o O u k k k k j L #.k 3X3XN.k k k k k k ",
"k k k k k k j J k j m.G.J.K.D.G L L k k k k k k h 8 9 q.O.' { { } { ' ( q 1.3., : u s s s g f k k k k k j j k L L k k k k k k k ",
"k k k k k k j j H d j Z.3X,XL L ,XD.k k k k k k a < 5.p.g.#.| X.E Y I 7 1.3.9.,.< h k k k k k k k k k k k k k j j k k k k k k k ",
"k k k k k k k k k j j k L L L ,XJ.K.D.k k k k k a < q.R.R.U.a.q.9 - X q t.t.9.,.< h k k k k k k k k k k k k k k k k k k k k k k ",
"k k k k k k k K :XF.k k L 2XG.Z.3XG.K k k k k k h a m 7.e.p.y.q.8 *   ; 1.1.1.; : d k k k k k k k k k k k k k k k k k k k k k k ",
"k k k k k k k H J.1Xk L ,XK.2XG L K k k k k k k k k y   9 t.t.8. .I   - > > > . O g k k k k k k k k k k k k k k k k k k k k k k ",
"k k k k k k k k D G k m.0X,XK k j k k k k k k k k k r   * o.o.X.) I   $ 6 6 & $ O g k k k k k k k k k k k k k k k k k k k k k k ",
"k k k k k k k k k k k k K G k k k k k k k k k k j d r + / ] ' _ ) I   @ ) / I $ O d k k k k k k k k k k k k k k k k k k k k k k ",
"k k k k k k k k k k k k k k k k k k k k k k k k g O w [ }.+X{.} ' I   @ ) # $ r g j k k k k k k k k k k k k k k k k k k k k k k ",
"k k k k k k k k k k k k k k k k k k k k k k k k u $ _ $X=X-XOXM.' I   + I + X t g j k k k k k k k k k k k k k k k k k k k k k k ",
"k k k k k k k k k k k k k k k k k k k k k k k k Z / ^.=X-X-XOXM.' I     =     X O d k J n.l k k k k k k k k k k k k k k k k k k ",
"k k k k k k k k k k k k k k k k k k k k k k k k Z * ] XXXXXX].[ / @   o O O O e r f l n.l k k k k k k k k k k k k k k k k k k k ",
"k k k k k k k k k k k k k k k k k k k k k k k k u o @ ) ) ) ) I +     t j j f d j l J J k k k k k k k k k k k k k k k k k k k k ",
"k k k k k k k k k k k k k k k k k k k k k k k k d y O @ @ @ @ @ e t t u k k k k k l J j j k k k k k k k k k k k k k k k k k k k ",
"k k k k k k k k k k k k k k k k k k k k k k k k k k y X X X X O s k k k k k k k k j d j k k k k k k k k k k k k k k k k k k k k ",
"k k k k k k k k k k k k k k k k k k k k k k k k k k d u u u u u f k k k k k k k k k k k k k k k k k k k k k k k k k k k k k k k ",
"k k k k k k k k k k k k k k k k k k k k k k k k k k k k k k k k k k k k k k k k k k k k k k k k k k k k k k k k k k k k k k k k ",
"k k k k k k k k k k k k k k k k k k k k k k k k k k k k k k k k k k k k k k k k k k k k k k k k k k k k k k k k k k k k k k k k "
};
