/* XPM */
static const char *UF9JZGxl[] = {
/* columns rows colors chars-per-pixel */
"64 64 224 2 ",
"   c #1B1C1B",
".  c #271A18",
"X  c #282819",
"o  c #393A19",
"O  c #362A1F",
"+  c #191F22",
"@  c #1E2828",
"#  c #292825",
"$  c #362824",
"%  c #2E263C",
"&  c #352A39",
"*  c #3B3638",
"=  c #293630",
"-  c #57251A",
";  c #482E1B",
":  c #772B1A",
">  c #773A1A",
",  c #683019",
"<  c #492C28",
"1  c #572D27",
"2  c #573629",
"3  c #413C33",
"4  c #453F3F",
"5  c #5B3D36",
"6  c #463729",
"7  c #753C35",
"8  c #6B372B",
"9  c #3F401C",
"0  c #2F4C3C",
"q  c #494B1A",
"w  c #41421C",
"e  c #56581B",
"r  c #4E501A",
"t  c #74451A",
"y  c #6D501A",
"u  c #5E611A",
"i  c #666B19",
"p  c #6A6E1B",
"a  c #66681A",
"s  c #72691B",
"d  c #6D721B",
"f  c #72751B",
"g  c #76791F",
"h  c #53522A",
"j  c #5B5B27",
"k  c #484636",
"l  c #5D5C3B",
"z  c #524A31",
"x  c #67483A",
"c  c #784632",
"v  c #7A543E",
"b  c #71542D",
"n  c #4C6037",
"m  c #5B692B",
"M  c #636422",
"N  c #6A6C23",
"B  c #6C7427",
"V  c #767A21",
"C  c #797C22",
"Z  c #747728",
"A  c #787B35",
"S  c #69682F",
"D  c #1E3A46",
"F  c #342C45",
"G  c #233E49",
"H  c #393549",
"J  c #3D3753",
"K  c #2E2741",
"L  c #493A45",
"P  c #443C5A",
"I  c #573E4B",
"U  c #6C3E41",
"Y  c #453F60",
"T  c #364349",
"R  c #214A5A",
"E  c #2A4753",
"W  c #29575B",
"Q  c #355D5C",
"!  c #314F4B",
"~  c #255662",
"^  c #365B67",
"/  c #2A656C",
"(  c #376766",
")  c #2E7274",
"_  c #337B7A",
"`  c #30706F",
"'  c #2C605C",
"]  c #5A4949",
"[  c #45455A",
"{  c #4C5857",
"}  c #54514B",
"|  c #644846",
" . c #72514A",
".. c #576740",
"X. c #57704C",
"o. c #484764",
"O. c #565C77",
"+. c #4F506B",
"@. c #645B6B",
"#. c #4E716F",
"$. c #6A6972",
"%. c #75724C",
"&. c #832F1D",
"*. c #87321E",
"=. c #9A3C1C",
"-. c #8B3422",
";. c #983924",
":. c #A73C27",
">. c #A03F1D",
",. c #9F421F",
"<. c #98563A",
"1. c #8F4732",
"2. c #B4412B",
"3. c #B7482A",
"4. c #B35031",
"5. c #9D6A3B",
"6. c #A4421E",
"7. c #C2462E",
"8. c #C9542F",
"9. c #D5632F",
"0. c #D8693C",
"q. c #845A51",
"w. c #8B5747",
"e. c #B05A42",
"r. c #886755",
"t. c #936C55",
"y. c #917358",
"u. c #A6664A",
"i. c #A16D59",
"p. c #AC7757",
"a. c #B67553",
"s. c #817B78",
"d. c #92766F",
"f. c #CC7449",
"g. c #CA6F47",
"h. c #7E8125",
"j. c #7F8237",
"k. c #3B897D",
"l. c #57814C",
"z. c #7D8249",
"x. c #548B7B",
"c. c #668377",
"v. c #83854C",
"b. c #9A8767",
"n. c #97956B",
"m. c #9B9878",
"M. c #8C9072",
"N. c #A58B69",
"B. c #A5916D",
"V. c #A9987A",
"C. c #B6917C",
"Z. c #B18771",
"A. c #B79857",
"S. c #D38852",
"D. c #ED944E",
"F. c #F09850",
"G. c #E8894A",
"H. c #CC8862",
"J. c #DB9D71",
"K. c #D48F65",
"L. c #D5A372",
"P. c #E2AD7E",
"I. c #377A81",
"U. c #5D6982",
"Y. c #467E83",
"T. c #62748C",
"R. c #6B748A",
"E. c #667991",
"W. c #6B758B",
"Q. c #398E86",
"!. c #398785",
"~. c #3A918A",
"^. c #3F9491",
"/. c #449898",
"(. c #4C908B",
"). c #77879B",
"_. c #699799",
"`. c #559CA9",
"'. c #4D9BA3",
"]. c #7C8FA2",
"[. c #4CA6A5",
"{. c #59A6AE",
"}. c #5AB5BA",
"|. c #57ACB5",
" X c #69ACB8",
".X c #6FA9AE",
"XX c #5EBBC1",
"oX c #64BBC3",
"OX c #6ECDD9",
"+X c #69C7D1",
"@X c #65C3CC",
"#X c #75D4E3",
"$X c #78D8E8",
"%X c #7CD6E3",
"&X c #979B8A",
"*X c #8F9291",
"=X c #A39D83",
"-X c #A39B9A",
";X c #9BA09A",
":X c #A6A289",
">X c #AEA695",
",X c #B9B28E",
"<X c #879CAD",
"1X c #838DA0",
"2X c #8FA4B3",
"3X c #95A9B7",
"4X c #93ACAE",
"5X c #B3AEA7",
"6X c #B1B1B1",
"7X c #EBB986",
"8X c #CBB39D",
"9X c #9AC6BD",
"0X c #F2C48F",
"qX c #F4CA94",
"wX c #F8D098",
"eX c #EDC48F",
"rX c #E4D1A4",
"tX c #E3C1A8",
"yX c #9FB5C1",
"uX c #A9BEC8",
"iX c #A7BBC5",
"pX c #9CD6D1",
"aX c #ADC3CC",
"sX c #F5EBDB",
/* pixels */
"f f f f f f f f f f f f f f f f f f f f f f f f f f f f f f f f f f f f f f f f f f f f f f f f f f f f f f f f f f f f f f f f ",
"f f f f f f f f f f f f f f f f f f f f f f f f f f f f f f f f f f f f f f f f f f f f f f f f f f f f f f f f f f f f f f f f ",
"f f f f f f f f f f f f f f f f f f f f f f f f f f f f f f f f f f f f f f f f f f f f f f f f f f f f f f f f f f f f f f f f ",
"f f f f f f f f f f f f f f f f f f f f f f f f f f f f f f f f N l l l l l l l l S B f f f f f f f f f f f f f f f f f f f f f ",
"f f f f f f f f f f f f f f f f f f f f f f f f f f f f f f f f S } o.o.o.o.o.o.Y } N f f f f f f f f f f f f f f f f f f f f f ",
"f f f f f f f f f f f f f f f f f f f f f f f f f f f f f S } } } O.T.).1X1XW.O.o.[ k j f f f f f f f f f f f f f f f f f f f f ",
"f f f f f f f f f f f f f f f f f f f f f f f f f f f d N } o.+.O.E.<XiXuXyX].U.o.J K k f f f f f f f f f f f f f f f f f f f f ",
"f f f f f f f f f f f f f f f f f f f f f f f f f f f j 3 { U.).2X3XyXaX3X).U.o.J F % k f f f f f f f f f f f f f f f f f f f f ",
"f f f f f f f f f f f f f f f f f f f f f f f f f p M z F O.].3XaXaXaXaX<XT.+.J * 3 3 h f f f f f f f f f f f f f f f f f f f f ",
"f f f f f f f f f f f f f f f f f f f f f f f f f M 3 H P W.iXuXaXaXaXaX<XT.o.* h M B Z C f f f f f f f f f f f f f f f f f f f ",
"f f f f f f f f f f f f f f f f f f f f f f f d j k & J +.E.2X2X2X2X2X2X).O.[ H k j B C g f f f f f f f f f f f f f f f f f f f ",
"f f f f f f f f f f f f f f f f f f f f f f f N 3 % % [ T.T.E.E.E.E.E.E.O.o.Y P F 3 N f f f f f f f f f f f f f f f f f f f f f ",
"f f f f f f f f f f f f f f V j.A f f f f f f a 3 K H ]  .t.i.r.q.q.r.t.w.7 I P F 3 M d f f f f f f f f f f f f f f f f f f f f ",
"f f f f f f f f f f f f f V v.>XV.A f f f f d M 3 F P U ,.8.9.3.=.>.3.9.3.=.U P F * M d f f f f f f f f f f f f f f f f f f f f ",
"f f f f f f f f f f f f f A =XN.B.n.f f f f h 3 < 1 7 1.8.9.9.3.6.3.9.9.3.=.8 1 < < 3 h f f f f f f f f f f f f f f f f f f f f ",
"f f f f f f f f f f f f f f A =Xn.p p M M M 6 & 1 > ,.4.g.f.f.u.u.f.f.g.4.-.> , - < % 3 M p f f f f f f f f f f f f f f f f f f ",
"f f f f f f f f f f f f f f d i p f j 3 * * < - > ,.8.u.s.-X5X5X5X5X-Xs.@.I 7 *., < % & * j f f f f f f f f f f g g f f f f f f ",
"f f f f f f f f f f f f f f f f f f j & K F L | q.p.H.C.1X3XaXaXaXaX3X<XT.+.| 7 x ] [ H % h f f f f f f f f f V h.C f f f f f f ",
"f f f f f f f f f f f f f f f f f f j & H P O.W.2X6X6XiXiXaXaXaXaXaXaXiX<XT.+.o.O.U.U.+.K h f f f f f f f f V C C f f f f f f f ",
"f f f f f f f f f f f f f f f f f f M h 4 J o.U.].3XuXaXaXaXaXaXiX3X<X<X).O.o.J +.O.O.o.K h f f f f g f f z.v.V d f f f f f f f ",
"f f f f f f f f f f f f f f f f f f f f h % J +.U.).3XuXuXuXuXuX3X).T.T.O.P H F J P Y J % h f f f f h.g z.&X&Xz.V f f f f f f f ",
"f f f f f f f f f f f f f f f f f f f f M j y.m.@.+.O.U.R.W.R.$.O.o.[ [ J H  .q.I H H 4 h M f f f d C C M.n.B.M.Z f f f f f f f ",
"f f f f f f f f f f f f f f f f f f f f f g A.7X| % & P @.o.J L L L & % H [ t.p.I % & z f f f f f f f V i M.M.N p f f f f f f f ",
"f f f f f f f f f f f f f f f f f f f f f g A.Z.z $ 5 d.6X$.&  .i.i. .# @.6XZ.<.6 $ 5 b f f f f f f d f i p d i f f f f f f f f ",
"f f f f f f f f f f f f f f f f f f f f f g 5.u.6 $ c C.sXs.# t.J.J.t.# s.sXC.c $ O b s f f f f f f f d p V f d f f f f f f f f ",
"f f f f f f f f f f f f f f f f f f f f f f C N o $ c C.sXs.# N.0X0XN.# s.sXC.c $ O a f f f f f f f f f f g d f f f f f f f f f ",
"f f f f f f f f f f f f f f f f f f f f f f f p q 6 2 y.tXV.r.L.wXwXL.v N.tXy.2 6 q p f f f f f f f f f f f f f f f f f f f f f ",
"f f f f f f f f f f f f f f f f f f f f f f f f f e X x H.P.qXwXwXwX7XH.H.H.x X e f f f f f f f f f f f f f f f f f f f f f f f ",
"f f f f f f f f f f f f f f f f f f f f f f f d y , ; 1 x p.P.0XwXwX7XK.u.x 1 - t y s f f f f f f f f f f f f f f f f f f f f f ",
"f f f f f f f f f f f f f f f f f f f f f f f s > : : - . v H.P.eXeXP.H.v . - : : > s f f f f f f f f f f f f f f f f f f f f f ",
"f f f f f f f f f f f f f f f f f f f f f f y t ;.;.: , - c u.p.p.p.p.u.c - , : ;.;.t y f f f f f f f f f f f f f f f f f f f f ",
"f f f f f f f f f f f f f f f f f f f f f f t : :.:.*.&.&.1.<.<.5.5.<.<.1.&.&.*.:.:.: t f f f f f f f f f f f f f f f f f f f f ",
"f f f f f f f f f f f f f f f f f f f f f f t : : -.:.2.2.3.4.f.S.S.f.4.3.2.2.:.-.: : t f f f f f f f f f f f f f f f f f f f f ",
"f f f f f f f f f f f f f f f f f f f f B X...x 5 8 ;.2.7.8.0.G.F.F.G.0.8.7.2.;.8 5 x ..X.B f f f f f f f f f f f f f f f f f f ",
"f f f f f f f f f f f f f f f f f f f f l.k.k._ W H , ;.7.0.D.F.F.F.F.D.0.7.;., H W _ k.k.l.f f f f f f f f f f f f f f f f f f ",
"f f f f f f f f f f f f f f f f f f f f l.~.[.[.I.Q 4 5  .y.n.n.n.n.n.n.y. .5 4 Q I.[.[.~.l.f f f f f f f f f f f f f f f f f f ",
"f f f f f f f f f f f f f f f f f f f f l.~.XXOX[._ ~ R R ) ~.~.~.~.~.~.) R R ~ _ [.OXXX~.l.f f f f f f f f f f f f f f f f f f ",
"f f f f f f f f f f f f f f f f f f f f ../ |.#X@X'.~ ~ ) /.XXXXXXXXXXXX/.) ~ ~ '.@X#X|./ ..f f f f f f f f f f f f f f f f f f ",
"f f f f f f f f f f f f f f f f f f f f n R `.$X$X X^ ( Q.|.OX#X$X$X#XOX|.Q.( ^  X$X$X`.R n f f f f f f f f f f C f f f f f f f ",
"f f f f f f f f f f f f f f f f f f f f n R `.$X$X.X] { Q./.[.+X$X$X+X[./.Q.{ ] .X$X$X`.R n f f f f f C C g f f C g f f f f f f ",
"f f f f f f f f f f f f f f f f f f f f n G _.pXpX4X .} #.#.c.4X9X9X4Xc.#.#.}  .4XpXpX_.G n f f f f f g h.C g f d V f f C f f f ",
"f f f f f f f f f f f f f f f f f f f f q # M.rXrX,Xx.{ 8 1.e.S.J.J.S.e.1.8 { x.,XrXrXM.@ q f f f f f f d V C M.M.Z g g d f f f ",
"f f f f f f f f f f f C f f f f f f f f q   b.qX7X,X(.#.}  .t.V.,X,XV.t. .} #.(.,X7XqXb.  q f f f f f C f d V b.;XZ V C i f f f ",
"f f f f f f C C g f f C g f f f f f f f q   b.0XJ.N.(.Q.Q.Q.(.oX%X%XoX(.Q.Q.Q.(.N.J.0Xb.  q f f f f f d n.m.B Z %.f d d d f f f ",
"f f f f f f g h.C V f d V f A &XM.f f f q   t.J.a.r.( _ Q.[.}.OX$X$XOX}.[.Q._ ( r.a.J.t.  q f f f f f n.B.B.m.B n.m.B d f f f f ",
"f f f f f f f d C C g p g g j.;Xn.M.f f q X  .a.w.| E / !.|.#X#X$X$X#X#X|.!./ E x <.a.v X q f f f f f A =X>Xv.m.B.5XZ f f f f f ",
"f f f f f f C f d C V Z :Xn.Z z.;X&Xf f a e h z } T E W / !.|.+X$X$X+X|.!./ W E * < 2 h e a f f f f f d A A f >X>Xz.f f f f f f ",
"f f f f f f d V f d j.V.N.B.n.B A A f f f d q # = G T T [ #.x._. X X`.#.Q T G G # X X q f f f f f f f f d d f A A d f f f f f f ",
"f f f f f f d d V i d v.>X=XA A =Xn.f f f f a e # # 1 7 <.<.e.w.| T k x 8 1 $ # r u u a f f f f f f f f f f f d d f f f f f f f ",
"f f f f f f f f f d d f A A A =XN.B.n.f f f f a ; - &.2.0.8.7.-.- . ; *.-.-.< = u f f f f f f f f f f f f f f f f f f f f f f f ",
"f f f f f f f Z &XM.f f A :Xm.v.>Xm.Z f f f f s , &.2.0.D.0.3.-.- . - 2.3.3.| ! m f f f f f f f f f f f f f f f f f f f f f f f ",
"f f f f f f f V N.;Xf A :XB.:XB A Z f f f f f s > *.2.0.F.0.7.-.- = * |  . .{ ( m f f f f f f f f f f f f f f f f f f f f f f f ",
"f f f f f f f f N B f j.5X=XZ f d f f f f f f s > -.2.0.D.0.3.-.1 T R R R R ) x.S f f f f f f f f f f f f f f f f f f f f f f f ",
"f f f f f f f f f f f f Z B f f f f f f f f f N z L ]  .%. .| L H E ~ ` (.`./.k.0 q p f f f f f f f f f f f f f f f f f f f f f ",
"f f f f f f f f f f f f f f f f f f f f f f N m Q ~ ~ ~ W ~ W R R R / ^.}.#X}.!.! o e p f f f f f f f f f f f f f f f f f f f f ",
"f f f f f f f f f f f f f f f f f f f f f f n Q ` _ _ _ _ _ _ ~ R R I.XXOX$XOX}.!.Q o q f f f f f f f f f f f f f f f f f f f f ",
"f f f f f f f f f f f f f f f f f f f f a e ! / ^.[.[./.~.~.!.W D D ^ `.{.{.{.`._ W @ w C g f f f f f f f f f f f f f f f f f f ",
"f f f f f f f f f f f f f f f f f f f f r X Q ~.XXOXOX}.~.~.k.E + + @ = = = = = = @   w g f f f f f f f f f f f f f f f f f f f ",
"f f f f f f f f f f f f f f f f f f f f q   0 ( Y.(.(.#.' W W @ X o o o o o o o o o o e f f f f f f f f f f f f f f f f f f f f ",
"f f f f f f f f f f f f f f f f f f f f q                       X e d d d d d d d f V p d f f f f f f f f f f f f f f f f f f f ",
"f f f f f f f f f f f f f f f f f f f f u q q q q q q q q q q q r p f f f f f f f p i d f f f f f f f f f f f f f f f f f f f f ",
"f f f f f f f f f f f f f f f f f f f f f f f f f f f f f f f f f f f f f f f f f f f f f f f f f f f f f f f f f f f f f f f f ",
"f f f f f f f f f f f f f f f f f f f f f f f f f f f f f f f f f f f f f f f f f f f f f f f f f f f f f f f f f f f f f f f f ",
"f f f f f f f f f f f f f f f f f f f f f f f f f f f f f f f f f f f f f f f f f f f f f f f f f f f f f f f f f f f f f f f f "
};
