/* XPM */
static const char *UF9MZWZ0XzI_[] = {
/* columns rows colors chars-per-pixel */
"64 64 229 2 ",
"   c #191A19",
".  c #221C1A",
"X  c #2C1D1A",
"o  c #351E18",
"O  c #232318",
"+  c #29211D",
"@  c #2A2B1A",
"#  c #38261C",
"$  c #3C3D19",
"%  c #363619",
"&  c #191F22",
"*  c #1B2428",
"=  c #1D343D",
"-  c #1E353A",
";  c #1B2C33",
":  c #372A24",
">  c #2D263C",
",  c #352B3B",
"<  c #3B3639",
"1  c #2D312C",
"2  c #201E1E",
"3  c #44231B",
"4  c #56271A",
"5  c #41361F",
"6  c #6C2B1B",
"7  c #622819",
"8  c #712D1E",
"9  c #703A19",
"0  c #472927",
"q  c #582E25",
"w  c #58372B",
"e  c #443C37",
"r  c #4F362F",
"t  c #65392A",
"y  c #713629",
"u  c #3F401C",
"i  c #494B1A",
"p  c #42441B",
"a  c #5A5C1A",
"s  c #53541A",
"d  c #514B1B",
"f  c #6E511A",
"g  c #666B1A",
"h  c #6A6E1B",
"j  c #65681A",
"k  c #72681B",
"l  c #6E721B",
"z  c #72751B",
"x  c #76791F",
"c  c #4E4C2B",
"v  c #534E2B",
"b  c #54532A",
"n  c #5A5A26",
"m  c #484336",
"M  c #5C5B3A",
"N  c #564C38",
"B  c #68412F",
"V  c #67402F",
"C  c #675924",
"Z  c #784A39",
"A  c #754E30",
"S  c #59662C",
"D  c #566633",
"F  c #636422",
"G  c #686B23",
"H  c #7C6429",
"J  c #786B24",
"K  c #6D7325",
"L  c #767A21",
"P  c #797C22",
"I  c #747728",
"U  c #777A35",
"Y  c #6A6D35",
"T  c #5E611A",
"R  c #1E3B45",
"E  c #1D3944",
"W  c #342D48",
"Q  c #393548",
"!  c #3B3551",
"~  c #3D3854",
"^  c #293B43",
"/  c #453947",
"(  c #433D5D",
")  c #463A54",
"_  c #402F40",
"`  c #633E48",
"'  c #453F60",
"]  c #294B4C",
"[  c #204959",
"{  c #274952",
"}  c #285858",
"|  c #36514C",
" . c #275964",
".. c #3B5E62",
"X. c #2B656C",
"o. c #396869",
"O. c #337C7B",
"+. c #316A76",
"@. c #2F5450",
"#. c #574846",
"$. c #565A48",
"%. c #46455B",
"&. c #504850",
"*. c #71504A",
"=. c #716C4E",
"-. c #4C4C6A",
";. c #484564",
":. c #56566A",
">. c #535874",
",. c #574E65",
"<. c #5A637E",
"1. c #517170",
"2. c #767667",
"3. c #687D74",
"4. c #6B6A70",
"5. c #486859",
"6. c #85331C",
"7. c #91371C",
"8. c #883924",
"9. c #983B23",
"0. c #A33D27",
"q. c #A03F1D",
"w. c #A3411E",
"e. c #9A4A34",
"r. c #8A523A",
"t. c #845733",
"y. c #8B4C31",
"u. c #B5442B",
"i. c #B15330",
"p. c #B46336",
"a. c #C55431",
"s. c #D1602D",
"d. c #D86938",
"f. c #C56238",
"g. c #865744",
"h. c #905A46",
"j. c #AE5641",
"k. c #976449",
"l. c #986756",
"z. c #896657",
"x. c #A56A4C",
"c. c #B37355",
"v. c #8F7765",
"b. c #A87964",
"n. c #BD7D61",
"m. c #C87449",
"M. c #E17A44",
"N. c #7E8125",
"B. c #7F8237",
"V. c #33807D",
"C. c #7D8243",
"Z. c #7D8352",
"A. c #558478",
"S. c #718072",
"D. c #83854C",
"F. c #B7825E",
"G. c #868E68",
"H. c #96966C",
"J. c #889377",
"K. c #9B9878",
"L. c #928C6C",
"P. c #A48D68",
"I. c #A6916D",
"U. c #BB9A78",
"Y. c #B38F6C",
"T. c #D48755",
"R. c #E9914E",
"E. c #E9914E",
"W. c #CD8765",
"Q. c #D38E64",
"!. c #D1996E",
"~. c #D9A779",
"^. c #C0A87F",
"/. c #E2A97A",
"(. c #387681",
"). c #5C6882",
"_. c #636D84",
"`. c #68748A",
"'. c #677991",
"]. c #388785",
"[. c #3B938C",
"{. c #3D9690",
"}. c #439A98",
"|. c #44888F",
" X c #74899A",
".X c #6F8C91",
"XX c #47A19E",
"oX c #7B8DA1",
"OX c #7D92A4",
"+X c #56ACB3",
"@X c #50A9AC",
"#X c #64A7A7",
"$X c #4D9EA5",
"%X c #5FBCC2",
"&X c #64BBC7",
"*X c #66C4CD",
"=X c #6BC8D5",
"-X c #71D0DD",
";X c #78D8E8",
":X c #75D4E3",
">X c #979B8A",
",X c #898E90",
"<X c #A39D83",
"1X c #A78C83",
"2X c #97A095",
"3X c #A6A289",
"4X c #ACA595",
"5X c #B2B095",
"6X c #869AAA",
"7X c #808CA0",
"8X c #96ABB8",
"9X c #9CB1BD",
"0X c #93A4AF",
"qX c #B1BABE",
"wX c #AEB4B1",
"eX c #DDB387",
"rX c #E9B786",
"tX c #E3B99C",
"yX c #F1C38E",
"uX c #F5CB95",
"iX c #F8D098",
"pX c #EAC691",
"aX c #F5DCB7",
"sX c #9FB5C1",
"dX c #A6BBC5",
"fX c #A9BEC8",
"gX c #ACBBC2",
"hX c #ADC3CC",
"jX c #ECE1D2",
/* pixels */
"z z z z z z z z z z z z z z z z z z z z z z z z z z z z z z z z z z z z z z z z z z z z z z z z z z z z z z z z z z z z z z z z ",
"z z z z z z z z z z z z z z z z z z z z z z z z z z z z z z z z z z z z z z z z z z z z z z z z z z z z z z z z z z z z z z z z ",
"z z z z z z z z z z z z z z z z z z z z z z z z z z z z z z z z z z z z z z z z z z z z z z z z z z z z z z z z z z z z z z z z ",
"z z z z z z z z z z z z z z z z z z z z z z z z z z z z z z z z K =.=.=.=.M M M M M b n z z z z z z z z z z z z z z z z z z z z ",
"z z z z z z z z z z z z z z z z z z z z z z z z z z z z z z z z U 3.'.'.<.;.;.;.' ~ W m z z z z z z z z z z z z z z z z z z z z ",
"z z z z z z z z z z z z z z z z z z z z z z z z z z z z z Y $.=.S.6X0X0X6X7X`.>.-.~ W m z z z z z z z z z z z z z z z z z z z z ",
"z z z z z z z z z z z z z z z z z z z z z z z z z z z K G $.-._.OXsXhXhXfXsXoX).;.~ < c z z z z z z z z z z z z z z z z z z z z ",
"z z z z z z z z z z z z z z z z z z z z z z z z z z z Y &.:._.6X9XfXhXhX8X X).;.! < b G z z z z z z z z z z z z z z z z z z z z ",
"z z z z z z z z z z z z z z z z z z z z z z z z z h F $.-._.OX9XhXhXdX9XoX).-.~ < c G x z z z z z z z z z z z z z z z z z z z z ",
"z z z z z z z z z z z z z z z z z z z z z z z z z F e %.).6XdXfXhXhX8X X).;.! < b g P N.P z z z z z z z z z z z z z z z z z z z ",
"z z z z z z z z z z z z z z z z z z G n b b C f f v Q -.`.oX8XdXhXhXsX6X'.>.( Q m n K P x z z z z z z z z z z z z z z z z z z z ",
"z z z z z z z z z z z z z z z z z z n , > > 0 4 4 w ) >.`.'. X8XhXhXhXhX6X`.>.( W e G z z z z z z z z z z z z z z z z z z z z z ",
"z z z z z z z z z z z z z z L B.U b m ! ! ! , 0 6 y y *.g.l.b.,X6X6X6X6X X`.>.( W e F l z z z z z z z z z z z z z z z z z z z z ",
"z z z z z z z z z z z z z L D.4XL.< W ( ;.;.! _ y 9.9.9.w.i.d.v.`.`._._._._.:.) W < F l z z z z z z z z z z z z z z z z z z z z ",
"z z z z z z z z z z z z z U <XP.v./ W ( -.<.>.:.&.` ` r.a.s.d.m.x.h.g.g.*.#.w r 0 0 e b z z z z z z z z z z z z z z z z z z z z ",
"z z z z z z z z z z z z z z U <X2.< W ( >.'. X X_.>.-.*.c.d.d.d.s.u.w.q.6.6 7 4 4 0 > e F F F h z z z z z z z z z z z z z z z z ",
"z z z z z z z z z z z z z z l g n < W ( >.'.6X9X8X6X`._.2.c.d.d.d.s.i.q.7.7.6 4 0 , > , < < e S z z z z z z z z x x z z z z z z ",
"z z z z z z z z z z z z z z z z G c e ~ -.).oX8XdXsX6XOXOX1XW.W.W.W.n.x.l.l.*.#./ W W W W W , n z z z z z z z L N.P z z z z z z ",
"z z z z z z z z z z z z z z z z z l b , ! ;.). X9XhXdXdXdXgXqXqXqXqXqXqXqXwX7X<.-.( ( ( ( W , n z z z z z z L P P z z z z z z z ",
"z z z z z z z z z z z z z z z z z z F c m ! -.<.'.7X6X8XhXhXhXhXhXhXhXhX9X6X'.>.;.' ' ( ! m c F z z x z z C.D.I l z z z z z z z ",
"z z z z z z z z z z z z z z z z z z z z v > ~ ;.( -.).7XfXfXfXfXfXfXfXfX6X`.>.( ' ( ( ~ > b z z z z N.x C.>X>XZ.L z z z z z z z ",
"z z z z z z z z z z z z z z z z z z z z c * *.z.) ! %.>.`.`.`.`.`.<.<.<.:.%.~ W W W W e b F z z z l P P G.H.I.J.I z z z z z z z ",
"z z z z z z z z z z z z z z z z z z z z i   g.n.*._ , / %.,.,.,.,./ / / Q > , , > > , c z z z z z z z L g G.J.G h z z z z z z z ",
"z z z z z z z z z z z z z z z z z z z z i   g.W.c.k.Z Z *.l.b.U.U.b.b.U.=.& r t : : b G z z z z z z l z g h l g z z z z z z z z ",
"z z z z z z z z z z z z z z z z z z z z s : k.Q.!.F.Z g.b.F.Q.rXyX/.~.~.=.  0 t 5 p g z z z z z z z z l h L z l z z z z z z z z ",
"z z z z z z z z z z z z z z z z z z z z H Z x.Q.rXU.r 2.aXeXQ.rXiXuX~.x.V   . # s g z z z z z z z z z z z x l z z z z z z z z z ",
"z z z z z z z z z z z z z z z z z z z z H r.F./.yXU.< 2.jXtXQ.rXuXrXF.B :     @ a z z z z z z z z z z z z z z z z z z z z z z z ",
"z z z z z z z z z z z z z z z z z z z z H r.!.uXiXU.< 2.jXtXQ.rXyX!.k.+       @ a z z z z z z z z z z z z z z z z z z z z z z z ",
"z z z z z z z z z z z z z z z z z z z z H r.!.iXiXeXP.3XaXrXQ.~.!.c.Z +     % d j z z z z z z z z z z z z z z z z z z z z z z z ",
"z z z z z z z z z z z z z z z z z z z z H r.!.pXuXiXiXuXuX/.W.W.c.r.w X . . s z z z z z z z z z z z z z z z z z z z z z z z z z ",
"z z z z z z z z z z z z z z z z z z z z H r.x.F.rXiXiXrX~.!.W.c.r.w 3 4 4 4 f z z z z z z z z z z z z z z z z z z z z z z z z z ",
"z z z z z z z z z z z z z z z z z z z z J t.t.k.!.rXeX!.m.m.c.r.t 0 q 8.8.6.f k z z z z z z z z z z z z z z z z z z z z z z z z ",
"z z z z z z z z z z z z z z z z z z z z z J t.r.k.x.x.k.k.k.r.w 0 8.i.m.f.0.8.f k z z z z z z z z z z z z z z z z z z z z z z z ",
"z z z z z z z z z z z z z z z z z z z z z z H A B t A y.e.e.e.A A p.d.M.f.0.y w F z z z z z z z z z z z z z z z z z z z z z z z ",
"z z z z z z z z z z z z z z z z z z z z z z z j % # 7 9.a.a.a.m.R.R.M.a.0.8 e | S z z z z z z z z z z z z z z z z z z z z z z z ",
"z z z z z z z z z z z z z z z z z z z z J H H C % o 7 6.9.9.0.i.p.p.i.0.Z $.1.|.5.D K z z z z z z z z z z z z z z z z z z z z z ",
"z z z z z z z z z z z z z z z z z z z z H r.r.Z : o 7 6 8 8 8 8 8 8 6 6 $.[.%X=X(.| G z z z z z z z z z z z z z z z z z z z z z ",
"z z z z z z z z z z z z z z z z z z z z H r.r.r.V q 3 &..X.X.X.X.X1.$./ 1.%X-X=X|.o.| D z z z z z z z z z z z z z z z z z z z z ",
"z z z z z z z z z z z z z z z z z z z z H r.r.r.r.t + o.:X;X;X-X&X}.O.[ |.=X=X*XXXV...$.J z z z z z z z z z z z P z z z z z z z ",
"z z z z z z z z z z z z z z z z z z z z H r.r.r.r.t + o.:X;X:X+XXX[.O.[  .(.|.XX{.A.v.k.t.J z z z z z P P x z z P x z z z z z z ",
"z z z z z z z z z z z z z z z z z z z z C B B B V r . ..&X*X&XXX|.A.5.| ^ R ..A..X>X!.n.r.H z z z z z x N.P x z l L z z P z z z ",
"z z z z z z z z z z z z z z z z z z z z d + + + + .   ] }.}.}.[.A.k.e.y 0 * N z.^.pXpX!.r.H z z z z z z l L P J.J.I x x l z z z ",
"z z z z z z z z z z z P z z z z z z z z a $ $ $ $ % # N G.J.J.2.=.e.8.w :   w k.~.uXrXF.w C z z z z z P z l L P.0XI L P g z z z ",
"z z z z z z P P x z z P x z z z z z z z z l l l l k 9 e.R.E.R.d.u.6.w { -   w k.~.rX!.g.. i z z z z z l H.K.I I =.z l l l z z z ",
"z z z z z z x N.P x z l L z U >XG.z z z z z z z z F m 2.5X5X5X4X,X4.5.+.} - < w *.=.Z r   i z z z z z H.I.I.K.K H.K.K l z z z z ",
"z z z z z z z l P P x h x x B.2XH.G.z z z z z z z S ] |.-X:X;X;X=XXX[.[.+.[ -           O i z z z z z U <X4XD.K.I.5XP z z z z z ",
"z z z z z z P z l P L I 3XH.I Z.2X>Xz z z z z z z S ] +.@X*X;X;X:X*X+X[.].O.} - 0 3 . % s j z z z z z l U =.K 4X4XC.x z z z z z ",
"z z z z z z l P z l B.K.P.I.H.K U U z z z z z z k C &...O.$X&X&X&X&X@X].V.O...Q q 4 + % a h z z z z z z l l z U U z z z z z z z ",
"z z z z z z l l L g l D.4X<XU U <XH.z z z z z k f 9 e.*.}  .+.+.+.+.X. . . .e q 6 q ^ - @ s z z z z z z z z z l l z z z z z z z ",
"z z z z z z z z z l l z U U U <XP.I.G.S D D G k 9 8.a.x.=.$.#.&.Q ^ E E ^ Q q 6 q e { =   i z z z z z z z z z z z z z z z z z z ",
"z z z z z z z I >XJ.z z U 3XK.D.4XK.D @.{ { D k 9 y.T.R.R.m.u.8.4 +     # 6 6 6 Q { [ =   i z z z z z z z z z z z z z z z z z z ",
"z z z z z z z L P.2Xz U <XI.3XK U I D {  .X.5.D $.=.m.R.E.d.u.8 o .     X 3 0 e { [ [ =   i z z z z z z z z z z z z z z z z z z ",
"z z z z z z z z K K z B.wX<XI z l z D { X.].X. .O.3.j.d.E.d.u.q             = [ [ [ [ =   i z z z z z z z z z z z z z z z z z z ",
"z z z z z z z z z z z z I I z z z z n ; } [.}.@X+X#X3.l.d.e.q d i i i i %   = [ [ [ [ =   i z z z z z z z z z z z z z z z z z z ",
"z z z z z z z z z z z z z z z z z z s O ] ].+X-X:X=XXX3.j.t O s z z l j p * E [ [ [ [ =   i z z z z z z z z z z z z z z z z z z ",
"z z z z z z z z z z z z z z z z z z s O -  .].@X=X:X=X#X3.| O s z z a % 1 R [ [ [ [ [ =   i z z z z z z z z z z z z z z z z z z ",
"z z z z z z z z z z z z z z z z z z a % 1 R X.].+X*X*X@XO.]   p a a p   ; R R R R R R ;   $ a a T h z z z z z z z z z z z z z z ",
"z z z z z z z z z z z z z z z z z z l j p * R  .].}.}.(. .-   O @ @ O     & & & & & &     O @ @ % j z z z z z z z z z z z z z z ",
"z z z z z z z z z z z z z z l a i i i i %   ; E } } } ] = *             @ $ $ $ $ u u u $ $ $ $ i j z z z z z z z z z z z z z z ",
"z z z z z z z z z z z z z z h $                                         p l l l l z L h l l l l z z z z z z z z z z z z z z z z ",
"z z z z z z z z z z z z z z l a i i i i i i i i i i i i i i i i i i i i a z z z z l g l z z z z z z z z z z z z z z z z z z z z ",
"z z z z z z z z z z z z z z z z z z z z z z z z z z z z z z z z z z z z z z z z z z z z z z z z z z z z z z z z z z z z z z z z ",
"z z z z z z z z z z z z z z z z z z z z z z z z z z z z z z z z z z z z z z z z z z z z z z z z z z z z z z z z z z z z z z z z ",
"z z z z z z z z z z z z z z z z z z z z z z z z z z z z z z z z z z z z z z z z z z z z z z z z z z z z z z z z z z z z z z z z "
};
