/* XPM */
static const char *UF9MZWZ0XzE_[] = {
/* columns rows colors chars-per-pixel */
"64 64 227 2 ",
"   c #1A1A19",
".  c #221C19",
"X  c #291B18",
"o  c #381E18",
"O  c #252519",
"+  c #2A291A",
"@  c #38251B",
"#  c #313219",
"$  c #3C3D19",
"%  c #39371B",
"&  c #191F21",
"*  c #1B2628",
"=  c #1C2E34",
"-  c #1E3337",
";  c #1F302F",
":  c #282729",
">  c #35362A",
",  c #2C273C",
"<  c #392A38",
"1  c #253737",
"2  c #3B3739",
"3  c #302D27",
"4  c #1F2018",
"5  c #41231D",
"6  c #562619",
"7  c #573018",
"8  c #6D2B1B",
"9  c #652919",
"0  c #722D1E",
"q  c #773219",
"w  c #492B26",
"e  c #542B22",
"r  c #473127",
"t  c #59382B",
"y  c #493938",
"u  c #583A38",
"i  c #402832",
"p  c #6C3628",
"a  c #411F18",
"s  c #3F401C",
"d  c #35452D",
"f  c #494B1A",
"g  c #42431C",
"h  c #4E501A",
"j  c #5A5C1A",
"k  c #54561B",
"l  c #574819",
"z  c #6D581A",
"x  c #666A1A",
"c  c #6A6D1C",
"v  c #63661B",
"b  c #736C1D",
"n  c #6E721B",
"m  c #72751B",
"M  c #76791F",
"N  c #4A482B",
"B  c #554D28",
"V  c #585728",
"C  c #454232",
"Z  c #4A4635",
"A  c #5B5A3A",
"S  c #515233",
"D  c #7F5F2C",
"F  c #7A572E",
"G  c #684931",
"H  c #74483B",
"J  c #6C4C2F",
"K  c #556230",
"L  c #6A6C22",
"P  c #636523",
"I  c #746F20",
"U  c #7A6726",
"Y  c #6E7226",
"T  c #767921",
"R  c #797C22",
"E  c #747729",
"W  c #787B35",
"Q  c #6A6D34",
"!  c #1E3C47",
"~  c #332D46",
"^  c #3A3647",
"/  c #3B3452",
"(  c #3C3953",
")  c #3F3C58",
"_  c #2E2741",
"`  c #443744",
"'  c #423D5B",
"]  c #583C47",
"[  c #453F60",
"{  c #623F4A",
"}  c #1F4452",
"|  c #1F414E",
" . c #274648",
".. c #204656",
"X. c #204959",
"o. c #284A53",
"O. c #2A5957",
"+. c #364A52",
"@. c #325F68",
"#. c #275C64",
"$. c #31766F",
"%. c #327878",
"&. c #2E696B",
"*. c #2C625D",
"=. c #594846",
"-. c #464558",
";. c #504F4F",
":. c #674845",
">. c #655458",
",. c #7A5B56",
"<. c #775245",
"1. c #526356",
"2. c #766A5B",
"3. c #6A6E4E",
"4. c #464262",
"5. c #4A4A68",
"6. c #515673",
"7. c #535B76",
"8. c #585D78",
"9. c #55556A",
"0. c #6F5D64",
"q. c #57627B",
"w. c #506E65",
"e. c #76666D",
"r. c #89361C",
"t. c #893A23",
"y. c #973824",
"u. c #A13D26",
"i. c #A1401D",
"p. c #864736",
"a. c #825A30",
"s. c #89523A",
"d. c #87533B",
"f. c #91482D",
"g. c #AA4924",
"h. c #B3452A",
"j. c #B1522F",
"k. c #B66739",
"l. c #C54A31",
"z. c #CA5630",
"x. c #D06736",
"c. c #895744",
"v. c #945C42",
"b. c #844E42",
"n. c #936652",
"m. c #AA6C4D",
"M. c #AA7453",
"N. c #B57554",
"B. c #AF6D50",
"V. c #AC7962",
"C. c #867374",
"Z. c #CF7342",
"A. c #E37E46",
"S. c #7E8125",
"D. c #7F8237",
"F. c #34837E",
"G. c #7D8243",
"H. c #7D8358",
"J. c #46867D",
"K. c #658B77",
"L. c #84864C",
"P. c #B2845A",
"I. c #9A8765",
"U. c #96966C",
"Y. c #8A937A",
"T. c #9A9A79",
"R. c #8C8E6D",
"E. c #A38C68",
"W. c #A6916D",
"Q. c #A69B7A",
"!. c #B6886D",
"~. c #CA845E",
"^. c #D38C51",
"/. c #EE944E",
"(. c #E98F4C",
"). c #CA8864",
"_. c #D08961",
"`. c #C89269",
"'. c #D39972",
"]. c #D3AB7E",
"[. c #5D6C85",
"{. c #5C6A85",
"}. c #62748C",
"|. c #687589",
" X c #6A7C93",
".X c #6B758B",
"XX c #3A8985",
"oX c #3A928B",
"OX c #3E9791",
"+X c #429B97",
"@X c #4C928B",
"#X c #76879C",
"$X c #728893",
"%X c #4F9CA5",
"&X c #798DA1",
"*X c #7594A3",
"=X c #4EA6A7",
"-X c #5AB3B9",
";X c #5EBBC1",
":X c #62BEC5",
">X c #66C4CD",
",X c #71D0DD",
"<X c #76D6E6",
"1X c #91948D",
"2X c #A39D83",
"3X c #A6A289",
"4X c #AEA694",
"5X c #899EAE",
"6X c #8498A9",
"7X c #8EA2B2",
"8X c #95A9B7",
"9X c #9DACB3",
"0X c #A9B6BB",
"qX c #B1BABE",
"wX c #B2AEA4",
"eX c #96A097",
"rX c #DAAB88",
"tX c #CFBB90",
"yX c #E7B886",
"uX c #E1B496",
"iX c #F0C28D",
"pX c #E2CEBC",
"aX c #9FB4C1",
"sX c #A9BFC9",
"dX c #A5B9C3",
"fX c #ACC2CB",
"gX c #F4E6D4",
/* pixels */
"m m m m m m m m m m m m m m m m m m m m m m m m m m m m m m m m m m m m m m m m m m m m m m m m m m m m m m m m m m m m m m m m ",
"m m m m m m m m m m m m m m m m m m m m m m m m m m m m m m m m m m m m m m m m m m m m m m m m m m m m m m m m m m m m m m m m ",
"m m m m m m m m m m m m m m m m m m m m m m m m m m m m m m m m m m m m m m m m m m m m m m m m m m m m m m m m m m m m m m m m ",
"m m m m m m m m m m m m m m m m m m m m m m m m m m m m m m m m m Q 3.3.A A A A A B P m m m m m m m m m m m m m m m m m m m m m ",
"m m m m m m m m m m m m m m m m m m m m m m m m m m m m m m m m m 3.}.7.4.4.4.[ / , B m m m m m m m m m m m m m m m m m m m m m ",
"m m m m m m m m m m m m m m m m m m m m m m m m m m m m m L A 1.3.$X7X6X#X[.6.4./ , B m m m m m m m m m m m m m m m m m m m m m ",
"m m m m m m m m m m m m m m m m m m m m m m m m m m m m L Q ;.8. X7XfXfXdX&X{.4./ 2 V m m m m m m m m m m m m m m m m m m m m m ",
"m m m m m m m m m m m m m m m m m m m m m m m m m m m I A ;.q. X8XdXfXfXdX&Xq.( Z V L m m m m m m m m m m m m m m m m m m m m m ",
"m m m m m m m m m m m m m m m m m m m m m m m m m m L V ;.8. X5XsXfXfXdX7X X6.~ C m m M m m m m m m m m m m m m m m m m m m m m ",
"m m m m m m m m m m m m m m m m m m m m m m m m m m B ^ 9. X8XdXfXfXfX5X X7.' ~ C n R S.R m m m m m m m m m m m m m m m m m m m ",
"m m m m m m m m m m m m m m m m m m m P V V V z z z Z / 8.$X6X8XsXfXfX8X&X{.5.~ C m R R M m m m m m m m m m m m m m m m m m m m ",
"m m m m m m m m m m m m m m m m m m m N , , < 6 6 6 y 4.{.}. X*XdXfXfXfXaX#X7.~ Z T T m m m m m m m m m m m m m m m m m m m m m ",
"m m m m m m m m m m m m m m T D.W P N ` / / ^ i e q p p <.,.9.}.6X6X6X6X6X$Xq.' ` N V n m m m m m m m m m m m m m m m m m m m m ",
"m m m m m m m m m m m m m T L.4XQ.S , / [ 4.' ~ u t.y.i.i.f.{ 9.|.|.[.|.|.|.q.-./ , B m m m m m m m m m m m m m m m m m m m m m ",
"m m m m m m m m m m m m m W 2XE.W.>., / 4.7.q.7.9.{ f.z.z.j.f.p.b.<.=.<.b.:.u u w w V m m m m m m m m m m m m m m m m m m m m m ",
"m m m m m m m m m m m m m m W 2XU.N , / 5.{. X#X.X8.n.Z.x.x.h.g.g.r.8 q r.q 9 6 6 e B P P P P L m m m m m m m m m m m m m m m m ",
"m m m m m m m m m m m m m m n x c B , / 5.{.#X8X8X8X1XC.B.x.x.z.z.g.r.q 8 r.q 9 w < < 2 2 2 2 N c m m m m m m m M M m m m m m m ",
"m m m m m m m m m m m m m m m m m V C ^ ' 6..X5XaXfX8X6X!.).).).).V.M.n.,.n.n.,.>.-.+.) / ~ _ C c m m m m m m T S.R m m m m m m ",
"m m m m m m m m m m m m m m m m m n c C ~ ' 6.}.6XfXsXdXsXqXqXqXqXqX0X0X0X0X0X0X6X}.[.{.5.( ~ C c m m m m m T T R m m m m m m m ",
"m m m m m m m m m m m m m m m m m m m V Z ^ ' 6..X5X0XfXfXfXfXfXfXfXfXfXsX8X5X5X&X X{.7.5.' ~ C c m M m m D.L.E n m m m m m m m ",
"m m m m m m m m m m m m m m m m m m m m L y ~ ' 6.}.5XsXsXsXfXfXfXfXfXfXaX&X}.}.}.}.7.[ ' ) ~ C c m S.M G.2X3XH.T m m m m m m m ",
"m m m m m m m m m m m m m m m m m m m m I G u ^ ( -.8..X.X X&X6X6X6X6X6X&X$X[.7.6.6.5.' / ^ S P n n R R R.U.U.Y.E m m m m m m m ",
"m m m m m m m m m m m m m m m m m m m m I a.H ] ` < ` -.' 4.q.[.[.[.[.[.[.{.7.4.' ( ( ( ^ C P m m m m T x R.Y.L c m m m m m m m ",
"m m m m m m m m m m m m m m m m m m m m I a.v.n.c.H H :.` ~ ( -.5.5.5.5.5.-.( ~ , : : : N P n m m m n m x c n x m m m m m m m m ",
"m m m m m m m m m m m m m m m m m m m m I a.m.`.M.G n.V.,.=.>.0.e.0.>.-.^ ` < , : # # % j m m m m m m n c T m n m m m m m m m m ",
"m m m m m m m m m m m m m m m m m m m m I a.M.yXE.3 R.pX'.!.].rXuX'.N.G : u u : % v v x n m m m m m m m m M n m m m m m m m m m ",
"m m m m m m m m m m m m m m m m m m m m I a.M.yXI.  1XgXrX'.yXiXyX`.B.t . r r . $ n m m m m m m m m m m m m m m m m m m m m m m ",
"m m m m m m m m m m m m m m m m m m m m I a.M.yXI.  1XgXrX'.yXyX_.B.s.r         $ n m m m m m m m m m m m m m m m m m m m m m m ",
"m m m m m m m m m m m m m m m m m m m m I a.m.'.P.<.!.uX'._.).P.m.H r +     O g j m m m m m m m m m m m m m m m m m m m m m m m ",
"m m m m m m m m m m m m m m m m m m m m b F v.N.~._._.~.~.B.s.p.p.t . . . . % x m m m m m m m m m m m m m m m m m m m m m m m m ",
"m m m m m m m m m m m m m m m m m m m m c N t v.B.~._.~.c.t r e p 9 6 6 6 l j n m m m m m m m m m m m m m m m m m m m m m m m m ",
"m m m m m m m m m m m m m m m m m m m m x g % G d.m.B.B.p 5 r t t.t.r.0 q z m m m m m m m m m m m m m m m m m m m m m m m m m m ",
"m m m m m m m m m m m m m m m m m m m m n v k # 3 r p t.y.g.k.Z.Z.x.h.t.q z m m m m m m m m m m m m m m m m m m m m m m m m m m ",
"m m m m m m m m m m m m m m m m m m m m m m j O X o 9 y.j.Z.(.(.A.x.l.y.8 l j n m m m m m m m m m m m m m m m m m m m m m m m m ",
"m m m m m m m m m m m m m m m m m m m m m m j O o 9 y.l.A././.(.z.l.l.y.9 @ % v m m m m m m m m m m m m m m m m m m m m m m m m ",
"m m m m m m m m m m m m m m m m m m m m m m j O : y p u.j.k.k.j.u.y.y.8 5 : ; g j m m m m m m m m m m m m m m m m m m m m m m m ",
"m m m m m m m m m m m m m m m m m m m m m m k O = X.y 0 0 0 8 8 8 8 8 @ * ! ! * $ m m m m m m m m m m m m m m m m m m m m m m m ",
"m m m m m m m m m m m m m m m m m m m U U U G 1 @.%X*X$X$X|.;.;.1.1.1.1 * ! +.u J D U m m m m m m m m m m m m m m m m m m m m m ",
"m m m m m m m m m m m m m m m m m m M a.s.v.,.O.@X<X<X<X,X-X@.#.XXXXF. .& - +.H s.s.U m m m m m m m m m m m m m R m m m m m m m ",
"m m m m m m m m m m m m m m m m m m M a.v.`.Q.J.=X<X<X<X-XXX . .F.%.#.-   * > H s.s.U m m m m m m m m R R M m m R M m m m m m m ",
"m m m m m m m m m m m m m m m m m m m D v.].tX@X=X>X>X:X@XO.-  .$.@.^ :     + t J a.U m m m m m m m m M S.R M m n T m m R m m m ",
"m m m m m m m m m m m m m m m m m m m D v.].tX@XoX+X+XoXo.= ! ..X.-.9 @       X g b m m m m m m m m m m n T R R.Y.E M M n m m m ",
"m m m m m m m m m m m R m m m m m m m V H `.].Y.K.w.w.O.> w u :.:.=.=.3   # $ $ k m m m m m m m m m m R m n T I.9XE T R x m m m ",
"m m m m m m R R M m m R M m m m m m n $ 3 m._._.M.d.r . 6 r.h.l.l.n.XX .O k n n m m m m m m m m m m m n U.T.Y E 3.m n n n m m m ",
"m m m m m m M S.R M m n T m W 1XR.m m j B G <.2.>.;.^ 1 2 =.2.2.2.w.&.- O j m m m m m m m m m m m m m U.W.W.T.Y U.T.T n m m m m ",
"m m m m m m m n R R m c M M D.eXI.H.c n v # * ! ..} X.X.X.#.F.XXXX&.o.: + j m m m m m m m m m m m m m W 2X4XL.T.W.wXR m m m m m ",
"m m m m m m R m n R T E 3XU.E 3.;.C $ j v #   * - X.#.%.%.%.XXF.&.;.p.p 7 z m m m m m m m m m m m m m n W 3.m 4X4XG.m m m m m m ",
"m m m m m m n T m n D.Q.E.W.U.k 4   * g k #   X : ! O.$.$.$.$.@.-.b.z.g.f.z b m m m m m m m m m m m m m n n m W W n m m m m m m ",
"m m m m m m n n T x n L.4X2XW V : = ! ; +   X 6 5 * ; ; ; ; ; y f.Z.(.^.x.f.z b m m m m m m m m m m m m m m m n n m m m m m m m ",
"m m m m m m m m m n n m W W W 2.O = ..- = = 3 9 6 o X     . X p z.A./.`.E.,.A K K K L m m m m m m m m m m m m m m m m m m m m m ",
"m m m m m m m E 1XY.m m W 3XT.A : = X...} } ^ 9 8 9 o     X 6 f.(././.R.@XJ.$.O.o.o.K m m m m m m m m m m m m m m m m m m m m m ",
"m m m m m m m T E.eXm W 3XW.3Xk O = X.X.X.X. .y t 8 a     . o p x.P.U.K.oX=X%X%.#.X.K m m m m m m m m m m m m m m m m m m m m m ",
"m m m m m m m m L Y m D.wX2XE k O = ....X.X.X.X.2 8 5         e h.n.oXoX+X>X>X+X$.X.K m m m m m m m m m m m m m m m m m m m m m ",
"m m m m m m m m m m m m E Y m x k > = ! ..X.X.X. .2 :   $ f f B :.w.oX=X:X,X>X+X&.= N m m m m m m m m m m m m m m m m m m m m m ",
"m m m m m m m m m m m m m m m m m h O 1 | ..X.X.} | 1 # k m m K  .&.oX;X<X,X-XXXO.O h m m m m m m m m m m m m m m m m m m m m m ",
"m m m m m m m m m m m m m m m m m x k > = ! X.X.! * s j c m m V : O.oX;X,X-XXX .d k x m m m m m m m m m m m m m m m m m m m m m ",
"m m m m m m m m m m m m m m m m m x k #   - ! ! =   $ j j j j N 1 *.oX-X-XXXO.* # k j v E M m m m m m m m m m m m m m m m m m m ",
"m m m m m m m m m m m m m m m m m h O       & &     4 O O O O d $.F.oXOXXX .*     O O # j m m m m m m m m m m m m m m m m m m m ",
"m m m m m m m m m m m m m m m m m j $ $ $ $ $ $ $ $ +         ; O.O.O.O.O.; O # $ s s g v m m m m m m m m m m m m m m m m m m m ",
"m m m m m m m m m m m m m m m m m m n n n n n n n n g                       # v n m T n n m m m m m m m m m m m m m m m m m m m ",
"m m m m m m m m m m m m m m m m m m m m m m m m m m j f f f f f f f f f f f k c m n x n m m m m m m m m m m m m m m m m m m m m ",
"m m m m m m m m m m m m m m m m m m m m m m m m m m m m m m m m m m m m m m m m m m m m m m m m m m m m m m m m m m m m m m m m ",
"m m m m m m m m m m m m m m m m m m m m m m m m m m m m m m m m m m m m m m m m m m m m m m m m m m m m m m m m m m m m m m m m ",
"m m m m m m m m m m m m m m m m m m m m m m m m m m m m m m m m m m m m m m m m m m m m m m m m m m m m m m m m m m m m m m m m "
};
