/* XPM */
static const char *UF9SaWdodF8y[] = {
/* columns rows colors chars-per-pixel */
"64 64 222 2 ",
"   c #1A1A19",
".  c #221D1B",
"X  c #3A1E18",
"o  c #1F2018",
"O  c #222318",
"+  c #29211D",
"@  c #2D2C19",
"#  c #3D3E19",
"$  c #35341B",
"%  c #372A1C",
"&  c #191F22",
"*  c #1C2E34",
"=  c #1B282C",
"-  c #342722",
";  c #2D263C",
":  c #362B39",
">  c #263635",
",  c #393638",
"<  c #312A26",
"1  c #48251E",
"2  c #572719",
"3  c #573018",
"4  c #6C2B1B",
"5  c #68291A",
"6  c #712D1E",
"7  c #74331A",
"8  c #4B2A26",
"9  c #522B26",
"0  c #493229",
"q  c #593729",
"w  c #473838",
"e  c #563634",
"r  c #652D22",
"t  c #68392A",
"y  c #79372C",
"u  c #3D4221",
"i  c #4A4C1A",
"p  c #444519",
"a  c #53551A",
"s  c #595A1B",
"d  c #504A1C",
"f  c #6E551A",
"g  c #5F611C",
"h  c #6A6D1B",
"j  c #656919",
"k  c #6E721B",
"l  c #72751B",
"z  c #76791F",
"x  c #72681A",
"c  c #49462D",
"v  c #534D2B",
"b  c #5B5B26",
"n  c #57562A",
"m  c #464335",
"M  c #5C5B38",
"N  c #534F35",
"B  c #69412F",
"V  c #644929",
"C  c #7F5F2C",
"Z  c #77572C",
"A  c #684737",
"S  c #734A3B",
"D  c #6F522B",
"F  c #556434",
"G  c #57662F",
"H  c #666723",
"J  c #7A6726",
"K  c #6D7225",
"L  c #767A21",
"P  c #797C22",
"I  c #747729",
"U  c #787B35",
"Y  c #626136",
"T  c #1E3A46",
"R  c #1E3B47",
"E  c #342C46",
"W  c #263B45",
"Q  c #39324C",
"!  c #393648",
"~  c #3C3754",
"^  c #2F2842",
"/  c #453A46",
"(  c #443D5E",
")  c #413854",
"_  c #523D43",
"`  c #633E48",
"'  c #453F60",
"]  c #22444B",
"[  c #204958",
"{  c #244854",
"}  c #2B5A59",
"|  c #364F4E",
" . c #265963",
".. c #2B666C",
"X. c #2E6771",
"o. c #336D73",
"O. c #2B5659",
"+. c #5B574B",
"@. c #4E4E52",
"#. c #6F5149",
"$. c #4F6453",
"%. c #6D6E4D",
"&. c #464262",
"*. c #4B4968",
"=. c #4D526B",
"-. c #535874",
";. c #595065",
":. c #59627B",
">. c #4C726C",
",. c #6F7370",
"<. c #605367",
"1. c #85361D",
"2. c #983C1C",
"3. c #9A3B26",
"4. c #853A24",
"5. c #AA3F2B",
"6. c #A5421E",
"7. c #974B34",
"8. c #885138",
"9. c #855337",
"0. c #8C482C",
"q. c #A74329",
"w. c #AE5132",
"e. c #B36336",
"r. c #C75631",
"t. c #D76636",
"y. c #CE6336",
"u. c #8A5445",
"i. c #915C49",
"p. c #8B634A",
"a. c #9A6548",
"s. c #98785B",
"d. c #976656",
"f. c #A46B4D",
"g. c #AF704F",
"h. c #A87455",
"j. c #B06D51",
"k. c #8E7572",
"l. c #B17D65",
"z. c #A65945",
"x. c #D87742",
"c. c #C7734B",
"v. c #E07B44",
"b. c #7E8125",
"n. c #7F8237",
"m. c #33807D",
"M. c #7D8243",
"N. c #7D8352",
"B. c #4F897C",
"V. c #728876",
"C. c #83854C",
"Z. c #878E68",
"A. c #96966C",
"S. c #889377",
"D. c #9B9878",
"F. c #94886D",
"G. c #A58B67",
"H. c #A5916D",
"J. c #B19578",
"K. c #C9835D",
"L. c #D98A4E",
"P. c #E68B4B",
"I. c #E9944F",
"U. c #CA8865",
"Y. c #D8976B",
"T. c #D2956B",
"R. c #D8A579",
"E. c #3A7A84",
"W. c #5E6D86",
"Q. c #4C7E86",
"!. c #636D86",
"~. c #68748A",
"^. c #677A91",
"/. c #767F94",
"(. c #378885",
"). c #3B928D",
"_. c #3D9690",
"`. c #429A97",
"'. c #52878C",
"]. c #748599",
"[. c #759194",
"{. c #698D93",
"}. c #4C98A2",
"|. c #7D92A4",
" X c #7F8EA1",
".X c #59B5BA",
"XX c #53A8AF",
"oX c #5FB7C1",
"OX c #64BBC8",
"+X c #66C4CD",
"@X c #71D0DD",
"#X c #6DCAD7",
"$X c #77D7E7",
"%X c #979B8A",
"&X c #8C908C",
"*X c #A39D83",
"=X c #A29D95",
"-X c #9BA094",
";X c #A6A289",
":X c #AEA695",
">X c #ACB29E",
",X c #8599AA",
"<X c #8EA3B2",
"1X c #97ACB9",
"2X c #9CB2BE",
"3X c #93A3A9",
"4X c #B1BABE",
"5X c #ADB4AE",
"6X c #D6AF87",
"7X c #E9B885",
"8X c #EEC18C",
"9X c #F1C48F",
"0X c #F4CA94",
"qX c #F8D098",
"wX c #E4C693",
"eX c #ECD3B7",
"rX c #A5BBC6",
"tX c #A9BFC9",
"yX c #A7B9C2",
"uX c #9FB5C1",
"iX c #ADC3CC",
"pX c #F4E6D4",
/* pixels */
"l l l l l l l l l l l l l l l l l l l l l l l l l l l l l l l l l l l l l l l l l l l l l l l l l l l l l l l l l l l l l l l l ",
"l l l l l l l l l l l l l l l l l l l l l l l l l l l l l l l l l l l l l l l l l l l l l l l l l l l l l l l l l l l l l l l l ",
"l l l l l l l l l l l l l l l l l l l l l l l l l l l l l l l l l l l l l l l l l l l l l l l l l l l l l l l l l l l l l l l l ",
"l l l l l l l l l l l l l l l l l l l l H v M M M M M %.%.%.%.I l l l l l l l l l l l l l l l l l l l l l l l l l l l l l l l l ",
"l l l l l l l l l l l l l l l l l l l l v ; ~ ' &.&.&.-.^.^.~.%.l l l l l l l l l l l l l l l l l l l l l l l l l l l l l l l l ",
"l l l l l l l l l l l l l l l l l l l l v ; ~ &.-.!.].,X<X<X<XV.%.+.Y K l l l l l l l l l l l l l l l l l l l l l l l l l l l l ",
"l l l l l l l l l l l l l l l l l l l l n , Q &.:.].1XrXiXiXrX,X~.-.+.H K l l P z l l l l l l l l l l l l l l l l l l l l l l l ",
"l l l l l l l l l l l l l l l l l l l l H b m Q &.:.].<XiXiXiXuX,X^.-.@.Y l l z L z l l l l l l l l l l l l l l l l l l l l l l ",
"l l l l l l l l l l l l l l l l l l l l l l n w ! &.:.].1XrXiXiXyX,X^.-.+.H K k k l l z l l l l l l l l l l l l l l l l l l l l ",
"l l l l l l l l l l l l l l l l l l l l l l h b w Q &.:.].<XiXiXiXrX,X~.=., b k j k P b.P l l l l l l l l l l l l l l l l l l l ",
"l l l l l l l l l l l l l l l l l l l l l l H v ! ~ =.!.,X1XiXiXrX1X,X^.=.Q v f f b b n n H l l l l l l l l l l l l l l l l l l ",
"l l l l l l l l l l l l l l l l l l l l l l c ^ ~ =.W.,XtXiXiXiX2X].^.^.-.( e 2 2 8 : ; ; v l l l l l l l l l l l l l l l l l l ",
"l l l l l l l l l l l l l l L n.U l l l l l c ^ ~ =.W.].,X,X,X,X&Xk.d.p.#.y y 6 9 : Q Q Q m v H l l l l l l l l l l l l l l l l ",
"l l l l l l l l l l l l l L C.:XD.U l l k h c : ) *.:.!.!.!.!.~.k.c.r.6.2.3.3.4.w Q &.&.' Q : b l l l l l l l l l l l l l l l l ",
"l l l l l l l l l l l l l U *XG.H.A.l l b m 0 8 9 e A #.u.u.u.f.j.t.y.r.7.` ` #.;.-.:.-.&.Q : b l l l l l l l l l l l l l l l l ",
"l l l l l l l l l l l l l l U *XZ.g H H c ; 8 2 2 2 5 7 2.6.q.r.t.t.t.c.p.*.-.:.^.].^.:.&.Q : b l l l l l l l l l l l l l l l l ",
"l l l l l l l l l l l l l l k j j c , , : ; ; : 9 5 1.2.2.w.y.t.t.t.j.k.,.W. X1X1X<X].:.&.Q : b l l l l l l l l z z l l l l l l ",
"l l l l l l l l l l l l l l l l H , ^ E E E E Q _ #.d.f.d.l.U.U.U.U.J.,X|.|.1XtX2X,X!.=.~ / c H l l l l l l l L b.P l l l l l l ",
"l l l l l l l l l l l l l l l l H , E ( ( ( ( &.:.].1X4X4X4X4X4X4X4XyXrXrXrXiXyX|.!.=.~ ^ v h l l l l l l l L P P l l l l l l l ",
"l l l l l l l l l l l l l l l l h n m Q ~ ' ' &.-.!.,X1XiXiXiXiXiXiXiXiX2X,X,X/.!.=.~ / c H l l l l z l l M.C.L k l l l l l l l ",
"l l l l l l l l l l l l l l l l l l b : Q ( ( ( ( =.W.,XrXrXrXrXtXtXtXtX,X!.-.( &.) ^ c l l l l l l b.z M.%X%XN.L l l l l l l l ",
"l l l l l l l l l l l l l l l l l l H n m Q Q Q Q ~ &.=.:.:.:.~.~.~.~.~.-.&.~ ) #.#.: c l l l l l k P P Z.A.H.S.I l l l l l l l ",
"l l l l l l l l l l l l l l l l l l l l n , ; ; : : ; E / / / ;.<.;.;.&./ : / @.h.a.- # k l l l l l l L j Z.S.K h l l l l l l l ",
"l l l l l l l l l l l l l l l l l l l l H b $ + e e < +.J.G.h.J.J.l.d.#.S S i.h.K.a.- # k l l l l l k l j h k j l l l l l l l l ",
"l l l l l l l l l l l l l l l l l l l l l l i $ q q . #.R.R.R.7X7XY.U.l.p.B h.Y.T.f.0 d l l l l l l l k h L l k l l l l l l l l ",
"l l l l l l l l l l l l l l l l l l l l l l h s $ .   0 a.T.9X0X7XY.6XeXF.- G.7XY.g.8.Z l l l l l l l l l z k l l l l l l l l l ",
"l l l l l l l l l l l l l l l l l l l l l l l j $     - q h.7X9X9XY.6XpX&X. G.0X7XU.i.C l l l l l l l l l l l l l l l l l l l l ",
"l l l l l l l l l l l l l l l l l l l l l l l j $         #.T.7X9XY.6XpX&X  G.qX0XR.a.C l l l l l l l l l l l l l l l l l l l l ",
"l l l l l l l l l l l l l l l l l l l l l l l h a # o     A g.T.R.T.R.eX6Xs.6XqXqXR.a.C l l l l l l l l l l l l l l l l l l l l ",
"l l l l l l l l l l l l l l l l l l l l l l l l l s @ . . q 8.g.K.K.R.9X0XqXqX0X9XR.a.J l l l l l l l l l l l l l l l l l l l l ",
"l l l l l l l l l l l l l l l l l l l l l l l l l f 3 2 2 1 0 S f.K.T.R.7XqXqX8XT.h.8.C l l l l l l l l l l l l l l l l l l l l ",
"l l l l l l l l l l l l l l l l l l l l l l l l x f 1.1.0.r 1 q 9.g.l.c.T.6X6XR.f.9.9.J l l l l l l l l l l l l l l l l l l l l ",
"l l l l l l l l l l l l l l l l l l l l l l l x f 1.q.r.x.e.3.9 0 9.i.i.a.f.f.a.8.9.J l l l l l l l l l l l l l l l l l l l l l ",
"l l l l l l l l l l l l l l l l l l l l l l l h v t 3.r.v.t.y.8.B 7.7.7.7.S t B Z J l l l l l l l l l l l l l l l l l l l l l l ",
"l l l l l l l l l l l l l l l l l l l l l l l H | ! r 3.r.x.I.P.x.r.r.r.3.6 1 @ s l l l l l l l l l l l l l l l l l l l l l l l ",
"l l l l l l l l l l l l l l l l l l l l l l G $.>.Q.$.S 3.w.e.e.w.q.3.3.1.4 X + V J J J l l l l l l l l l l l l l l l l l l l l ",
"l l l l l l l l l l l l l l l l l l l l l k $.X.oX+X`.$.4 4 4 6 6 6 6 6 4 5 X + B 8.8.C l l l l l l l l l l l l l l l l l l l l ",
"l l l l l l l l l l l l l l l l l l l l G $...(.OX@X+X'./ @.>.{.[.[.[.[.;.X 9 t S 8.8.C l l l l l l l l l l l l l l l l l l l l ",
"l l l l l l l l l l l l l l l l l l l l F | o.`.oX#X#X}.[ X._..X@X$X$X$XQ.  q 8.8.8.8.C l l l l l l l l l l l l P l l l l l l l ",
"l l l l l l l l l l l l l l l l l l J C p.s.V.).`.`.E.X.[ X.).`.XX#X$X$XQ.  q 8.8.8.8.C l l l l l l l P P z l l P z l l l l l l ",
"l l l l l l l l l l l l l l l l l l J 9.g.Y.*X{.B.>.] W ! $.>.B.`..X+X+X>.  0 B B B B D l l l l l l l z b.P z l k L l l P l l l ",
"l l l l l l l l l l l l l l l l l l J 9.G.9XwX6Xs.A < - r 0.z.,.).`.`.`.}   . + + + + p l l l l l l l l k L P Z.S.L z z k l l l ",
"l l l l l l l l l l l P l l l l l l H q s.7X9X7Xh.t + < e y q.p.,.V.S.S.+.X $ # # # # a l l l l l l l P l k L G.3XI L P j l l l ",
"l l l l l l P P z l l P z l l l l l a O S U.7X7Xh.t + * [ w 6 5.y.P.I.I.e.4 f k k k k l l l l l l l l k A.D.I I %.l k k k l l l ",
"l l l l l l z b.P z l k L l U %XZ.l a O 0 S %.%.A , > { X.>.$.S.=X>X>X>X,.w b l l l l l l l l l l l l A.H.H.D.K A.D.K k l l l l ",
"l l l l l l l k P P z h z z n.-XA.Z.s @           * { ..(.).`.+X$X$X$X@X}.{ F l l l l l l l l l l l l U *X:XC.D.H.>XP l l l l l ",
"l l l l l l P l k P L I ;XA.I N.-X%Xj a #   X 1 > { X.m.(.XX+X@X$X$X#XXXE.{ F l l l l l l l l l l l l k U %.K :X:XM.z l l l l l ",
"l l l l l l k L l k n.D.G.H.A.K U U h j u & 1 5 w O.o.m.m.}.OXOXOXOXXX(.o.@.M x l l l l l l l l l l l l k k l U U l l l l l l l ",
"l l l l l l k k L j k C.:X*XU U *XA.s $ > W 0 4 r w }  . ...o.o.o.o.X. .+.7.4.f x l l l l l l l l l l l l l l k k l l l l l l l ",
"l l l l l l l l l k k l U U U *XG.H.%.O * [ , q 4 r w W T T W ! @.@.+.%.a.y.3.7 x K G G G H l l l l l l l l l l l l l l l l l l ",
"l l l l l l l I %XS.l l U ;XD.C.:XD.n O * [ [ ] q 4 4 1     . 1 y q.y.L.I.P.w.7 x G | { { F l l l l l l l l l l l l l l l l l l ",
"l l l l l l l L G.-Xl U *XH.;XK U I a O * [ [ { ! 0 1 X       X 5 5.t.I.P.x.p.+.F $... .[ F l l l l l l l l l l l l l l l l l l ",
"l l l l l l l l K I l n.>X*XI l k l a O * [ [ [ [ T &           1 3.y.I.x.w.,.(.....(.o.{ F l l l l l l l l l l l l l l l l l l ",
"l l l l l l l l l l l l I I l l l l a O * [ [ [ [ T & @ i i i i d q 0.y.f.,.{..XXX}.)...* v l l l l l l l l l l l l l l l l l l ",
"l l l l l l l l l l l l k l l l l l a O * [ [ [ [ R = # j h l l g @ 8 w.,.`.OX$X@XoX).}   i l l l l l l l l l l l l l l l l l l ",
"l l l l l l l l l l l l l l l l l l a O * [ [ [ [ { R > $ a l l g @ , >.{.+X@X@X.X_.X.]   i l l l l l l l l l l l l l l l l l l ",
"l l l l l l l l l l l l l l l j s s p   = T T T T T T *   # s s i O > o.}.+X+XoX`.X.] > $ s l l l l l l l l l l l l l l l l l l ",
"l l l l l l l l l l l l l l h p O O O     & & & & & &     o O O O   * [ o.`.`.).X.] = u j h l l l l l l l l l l l l l l l l l l ",
"l l l l l l l l l l l l l l k a # # # # # # # # # # # @             & * ] } } } ] *   @ i i i i a h l l l l l l l l l l l l l l ",
"l l l l l l l l l l l l l l l l k k k k k k k k k k k i                                         @ g l l l l l l l l l l l l l l ",
"l l l l l l l l l l l l l l l l l l l l l l l l l l l j i i i i i i i i i i i i i p p p i i i i a h l l l l l l l l l l l l l l ",
"l l l l l l l l l l l l l l l l l l l l l l l l l l l l l l l l l l l l l l l l l l l l l l l l l l l l l l l l l l l l l l l l ",
"l l l l l l l l l l l l l l l l l l l l l l l l l l l l l l l l l l l l l l l l l l l l l l l l l l l l l l l l l l l l l l l l ",
"l l l l l l l l l l l l l l l l l l l l l l l l l l l l l l l l l l l l l l l l l l l l l l l l l l l l l l l l l l l l l l l l "
};
