/* XPM */
static const char *UF9SaWdodF8x[] = {
/* columns rows colors chars-per-pixel */
"64 64 225 2 ",
"   c #1A1A19",
".  c #221C19",
"X  c #291B18",
"o  c #381E18",
"O  c #242518",
"+  c #2B291A",
"@  c #38251B",
"#  c #323319",
"$  c #373819",
"%  c #3C3D19",
"&  c #3F331F",
"*  c #191F22",
"=  c #1B2629",
"-  c #1C2E34",
";  c #1E3337",
":  c #1F302F",
">  c #282729",
",  c #36362A",
"<  c #2C273C",
"1  c #392A38",
"2  c #253737",
"3  c #3B3739",
"4  c #302D27",
"5  c #41231C",
"6  c #562619",
"7  c #573018",
"8  c #6D2B1B",
"9  c #652919",
"0  c #722D1E",
"q  c #773219",
"w  c #492B26",
"e  c #542B22",
"r  c #473127",
"t  c #59382B",
"y  c #493938",
"u  c #583A38",
"i  c #402832",
"p  c #6C3628",
"a  c #3F401C",
"s  c #314632",
"d  c #494B1A",
"f  c #42431B",
"g  c #4E501A",
"h  c #53541A",
"j  c #5A5C1A",
"k  c #57591A",
"l  c #574819",
"z  c #6D581B",
"x  c #666A1A",
"c  c #6A6D1B",
"v  c #63671A",
"b  c #736C1D",
"n  c #6E721B",
"m  c #72751B",
"M  c #76791F",
"N  c #49482A",
"B  c #544D29",
"V  c #53522B",
"C  c #5B5926",
"Z  c #474432",
"A  c #5C5A3A",
"S  c #515233",
"D  c #7F5F2C",
"F  c #7A572E",
"G  c #74483B",
"H  c #6A4B2F",
"J  c #556230",
"K  c #666723",
"L  c #746F20",
"P  c #7A6726",
"I  c #6E7227",
"U  c #767A21",
"Y  c #797C22",
"T  c #747729",
"R  c #7B7E32",
"E  c #757937",
"W  c #686A33",
"Q  c #5E601A",
"!  c #1E3B47",
"~  c #332D46",
"^  c #3A3647",
"/  c #3B3452",
"(  c #3C3954",
")  c #2E2741",
"_  c #443744",
"`  c #423D5B",
"'  c #503942",
"]  c #613F4B",
"[  c #453F60",
"{  c #1F4452",
"}  c #1F414E",
"|  c #274648",
" . c #204656",
".. c #204959",
"X. c #2A4A52",
"o. c #2A5957",
"O. c #354A52",
"+. c #325F68",
"@. c #275C64",
"#. c #31766F",
"$. c #327878",
"%. c #2E696B",
"&. c #2C625D",
"*. c #594846",
"=. c #464558",
"-. c #504F4F",
";. c #674845",
":. c #655458",
">. c #78564C",
",. c #526356",
"<. c #76685B",
"1. c #6C704E",
"2. c #464262",
"3. c #4A4A68",
"4. c #535B76",
"5. c #545975",
"6. c #55556A",
"7. c #6F5D64",
"8. c #57627B",
"9. c #506E65",
"0. c #76666D",
"q. c #89361C",
"w. c #893A23",
"e. c #973824",
"r. c #A13D26",
"t. c #A1401D",
"y. c #864736",
"u. c #825A30",
"i. c #89523A",
"p. c #87523B",
"a. c #91482D",
"s. c #AA4924",
"d. c #B3452A",
"f. c #B1522F",
"g. c #B66739",
"h. c #C54A31",
"j. c #CA5630",
"k. c #D06736",
"l. c #895744",
"z. c #945C42",
"x. c #844E42",
"c. c #936652",
"v. c #A96C4D",
"b. c #AA7452",
"n. c #B57554",
"m. c #AE6D50",
"M. c #AC7962",
"N. c #867374",
"B. c #CF7342",
"V. c #E37E46",
"C. c #7E8125",
"Z. c #7F8237",
"A. c #34837E",
"S. c #7D8243",
"D. c #7D8352",
"F. c #47867D",
"G. c #658B77",
"H. c #83854C",
"J. c #B3845A",
"K. c #858C67",
"L. c #96956B",
"P. c #8A937A",
"I. c #9B9878",
"U. c #958B6B",
"Y. c #A48C67",
"T. c #A5916D",
"R. c #A69B7A",
"E. c #B6886D",
"W. c #CA845E",
"Q. c #D38C51",
"!. c #EE944E",
"~. c #E98F4C",
"^. c #CA8864",
"/. c #D08961",
"(. c #C89269",
"). c #D59970",
"_. c #D3AB7E",
"`. c #5D6C85",
"'. c #5C6A85",
"]. c #62748C",
"[. c #687589",
"{. c #697B92",
"}. c #6B758B",
"|. c #398A84",
" X c #3A928B",
".X c #3E9791",
"XX c #429B97",
"oX c #4A908B",
"OX c #738897",
"+X c #4F9CA5",
"@X c #798DA1",
"#X c #7594A3",
"$X c #4EA6A7",
"%X c #5AB3B9",
"&X c #5EBBC1",
"*X c #62BEC6",
"=X c #66C4CD",
"-X c #71D0DD",
";X c #76D6E6",
":X c #989B89",
">X c #8C8F8B",
",X c #A39D82",
"<X c #9BA09A",
"1X c #A6A289",
"2X c #AEA695",
"3X c #899EAE",
"4X c #8498A9",
"5X c #8EA2B2",
"6X c #95A9B7",
"7X c #9DACB3",
"8X c #A9B6BB",
"9X c #B1BABE",
"0X c #B2AEA4",
"qX c #DAAB88",
"wX c #CFBB91",
"eX c #E7B886",
"rX c #E1B496",
"tX c #C79980",
"yX c #F0C28D",
"uX c #E2CEBC",
"iX c #9FB4C1",
"pX c #A9BFC9",
"aX c #A5B9C3",
"sX c #ACC2CB",
"dX c #F4E6D4",
/* pixels */
"m m m m m m m m m m m m m m m m m m m m m m m m m m m m m m m m m m m m m m m m m m m m m m m m m m m m m m m m m m m m m m m m ",
"m m m m m m m m m m m m m m m m m m m m m m m m m m m m m m m m m m m m m m m m m m m m m m m m m m m m m m m m m m m m m m m m ",
"m m m m m m m m m m m m m m m m m m m m m m m m m m m m m m m m m m m m m m m m m m m m m m m m m m m m m m m m m m m m m m m m ",
"m m m m m m m m m m m m m m m m m m m m m K V A A A A A 1.1.E m m m m m m m m m m m m m m m m m m m m m m m m m m m m m m m m m ",
"m m m m m m m m m m m m m m m m m m m m m V < / [ 2.2.2.5.].1.m m m m m m m m m m m m m m m m m m m m m m m m m m m m m m m m m ",
"m m m m m m m m m m m m m m m m m m m m m V < / 2.5.`.@X4X5XOX1.,.A I m m m m M m m m m m m m m m m m m m m m m m m m m m m m m ",
"m m m m m m m m m m m m m m m m m m m m m V 3 / 2.'.@XaXsXsX5X{.4.-.W I m m m Y M m m m m m m m m m m m m m m m m m m m m m m m ",
"m m m m m m m m m m m m m m m m m m m m m K C Z ( 8.@XaXsXsXaX6X{.8.-.A L m m M U M m m m m m m m m m m m m m m m m m m m m m m ",
"m m m m m m m m m m m m m m m m m m m m m m m Z ~ 6.{.5XaXsXsXpX3X{.4.-.W I M n n m m M m m m m m m m m m m m m m m m m m m m m ",
"m m m m m m m m m m m m m m m m m m m m m m m Z ~ ` 5.{.3XsXsXsXaX6X{.6.^ V Y n x n Y C.Y m m m m m m m m m m m m m m m m m m m ",
"m m m m m m m m m m m m m m m m m m m m m m m Z ~ 3.'.@X6XsXsXsX6X4XOX4./ Z z z j C C C K m m m m m m m m m m m m m m m m m m m ",
"m m m m m m m m m m m m m m m m m m m m m m m Z ~ 4.@XiXsXsXsXaX@X].].8.2.y 7 7 6 1 < < Z m m m m m m m m m m m m m m m m m m m ",
"m m m m m m m m m m m m m m U Z.R m m m m K N _ ` 8.OX4X4X4X4X4X].6.>.>.G p q e i ^ / / _ N K m m m m m m m m m m m m m m m m m ",
"m m m m m m m m m m m m m U H.2XR.R m m m B < / =.8.[.[.[.[.[.`.6.] a.t.t.e.e.u ~ ` 2.2./ < V m m m m m m m m m m m m m m m m m ",
"m m m m m m m m m m m m m R ,XY.T.L.m m m C w w u u ;.x.;.*.;.x.y.a.f.j.j.a.] 6.4.8.5.2./ < V m m m m m m m m m m m m m m m m m ",
"m m m m m m m m m m m m m m E :XK.C K K K B 6 6 6 9 q q.q 8 q.s.s.d.k.k.B.c.4.}.OX{.'.3./ < V m m m m m m m m m m m m m m m m m ",
"m m m m m m m m m m m m m m n v N 3 3 3 3 1 1 w 9 q q.8 q q.s.j.j.k.k.m.N.>X6X6X6XOX'.3./ < V m m m m m m m m m M M m m m m m m ",
"m m m m m m m m m m m m m m m c Z ) ~ / ( O.=.:.<.c.c.<.c.v.M.^.^.^.^.E.4X6XsXiX3X}.5.` ^ Z C m m m m m m m m U C.Y m m m m m m ",
"m m m m m m m m m m m m m m m c Z ~ ( 3.'.`.].4X8X8X8X8X8X8X9X9X9X9X9XpXaXpXsX4X].5.` ~ Z x n m m m m m m m U Y Y m m m m m m m ",
"m m m m m m m m m m m m m m m c Z ~ ` 3.5.'.].@X3X3X6XpXsXsXsXsXsXsXsXsXsX8X3X}.5.` ^ Z C m m m m m M m m S.H.T n m m m m m m m ",
"m m m m m m m m m m m m m m m c Z ~ ( ` ` 5.].].].].@XiXsXsXsXsXsXsXpXpXpX3X].6.` ~ y K m m m m m m C.M S.:X:XD.U m m m m m m m ",
"m m m m m m m m m m m m m m m n C S ^ / ` 3.5.5.4.`.OX@X4X4X4X4X4X@X{.}.}.4.=.( ^ u H L m m m m m n Y Y K.U.T.P.R m m m m m m m ",
"m m m m m m m m m m m m m m m m m K Z ^ ( ( ( ` 2.4.'.`.`.`.`.`.`.8.2.` =._ 1 _ ' G u.L m m m m m m m U x K.P.I c m m m m m m m ",
"m m m m m m m m m m m m m m m m m n K N > > > < ~ ( =.3.3.3.3.3.=.( ~ _ ;.;.G l.c.z.u.L m m m m m m n m x c n x m m m m m m m m ",
"m m m m m m m m m m m m m m m m m m m j $ # # > < 1 _ ^ =.:.7.0.7.:.*.>.M.c.H b.(.v.u.L m m m m m m m n c U m n m m m m m m m m ",
"m m m m m m m m m m m m m m m m m m m n v v v $ > u u > H n.).rXwXqXE.tXuXU.+ Y.eXb.u.L m m m m m m m m m M n m m m m m m m m m ",
"m m m m m m m m m m m m m m m m m m m m m m n % . r r . t m.(.eXyXyX).qXdX>X  Y.eXb.u.L m m m m m m m m m m m m m m m m m m m m ",
"m m m m m m m m m m m m m m m m m m m m m m n %         r i.m.).eXyX).qXdX>X  Y.eXb.u.L m m m m m m m m m m m m m m m m m m m m ",
"m m m m m m m m m m m m m m m m m m m m m m m j a O     + r G v.J.^.^.).rXE.>.J.).v.u.L m m m m m m m m m m m m m m m m m m m m ",
"m m m m m m m m m m m m m m m m m m m m m m m m v $ . . . . t y.y.i.m.W.W././.W.n.z.F b m m m m m m m m m m m m m m m m m m m m ",
"m m m m m m m m m m m m m m m m m m m m m m m m c j l 6 6 6 9 0 e r t l.W./.W.n.z.t r x m m m m m m m m m m m m m m m m m m m m ",
"m m m m m m m m m m m m m m m m m m m m m m m m m m z q 0 q.w.w.t r 5 p m.m.v.p.H & a v m m m m m m m m m m m m m m m m m m m m ",
"m m m m m m m m m m m m m m m m m m m m m m m m m m z q w.d.k.B.B.g.f.e.w.p r @ # h v n m m m m m m m m m m m m m m m m m m m m ",
"m m m m m m m m m m m m m m m m m m m m m m m m n j l 8 e.h.k.V.~.~.B.f.e.9 o . O j m m m m m m m m m m m m m m m m m m m m m m ",
"m m m m m m m m m m m m m m m m m m m m m m m m v $ @ 9 e.h.h.j.~.!.!.V.h.e.9 o O j m m m m m m m m m m m m m m m m m m m m m m ",
"m m m m m m m m m m m m m m m m m m m m m m m j f 2 > 5 8 e.e.r.f.g.g.f.r.p y > O j m m m m m m m m m m m m m m m m m m m m m m ",
"m m m m m m m m m m m m m m m m m m m m m m m % = ! ! * @ 8 8 8 8 8 8 8 0 y ..- + j m m m m m m m m m m m m m m m m m m m m m m ",
"m m m m m m m m m m m m m m m m m m m m m P D H u | ! * 2 ,.,.,.-.-.[.OXOX#X+X+.2 H D D P m m m m m m m m m m m m m m m m m m m ",
"m m m m m m m m m m m m m m m m m m m m m P i.i.G O.; * | A.|.|.@.+.%X-X;X;X;XoXo.>.z.i.D m m m m m m m m m m m Y m m m m m m m ",
"m m m m m m m m m m m m m m m m m m m m m P i.i.G , =   ; @.$.A.| | |.%X;X;X;X$XF.R.(.z.D m m m m m m Y Y M m m Y M m m m m m m ",
"m m m m m m m m m m m m m m m m m m m m m P u.H t +     > ^ +.$.| ; o.oX*X=X=X$XoXwX_.z.P M m m m m m M C.Y M m n U m m Y m m m ",
"m m m m m m m m m m m m m m m m m m m m m m b f X       @ 9 =... .! - X. XXXXX XoXwX_.c.P m m m m m m m n U Y P.P.T M M n m m m ",
"m m m m m m m m m m m Y m m m m m m m m m m m h % % #   , *.;.;.;.u w , o.9.9.G.P.tX(.G C m m m m m m Y m n U Y.<XT U Y x m m m ",
"m m m m m m Y Y M m m Y M m m m m m m m m m m m n n k O | |.c.h.h.d.q.6 . r p.b.^./.v.4 % m m m m m m n L.I.I T 1.m n n n m m m ",
"m m m m m m M C.Y M m n U m R :XK.m m m m m m m m m j O ; %.9.<.<.<.*.3 2 ^ -.:.<.>.H d j m m m m m m L.T.T.I.I L.I.L n m m m m ",
"m m m m m m m n Y Y M c M M Z.<XL.K.m m m m m m m m j + > X.%.|.|.A.@......... .! = # v n c c c n m m E ,X2XH.I.T.0XY m m m m m ",
"m m m m m m Y m n Y U R 1XL.T D.<X:Xm m m m m m m m z 7 p y.-.%.A.|.$.$.$.@. .; =   # v j $ $ % Q m m n E E L 2X2XS.m m m m m m ",
"m m m m m m n U m n Z.R.Y.T.L.I E E m m m m m m m b z a.s.j.x.=.+.#.#.#.#.o.! > X   + h f =   O h m m m n n m E E m m m m m m m ",
"m m m m m m n n U x n H.2X,XE R ,XL.m m m m m m b z a.k.Q.~.k.a.y : : : : = = 5 6 X   + : ! = O h m m m m m m n n m m m m m m m ",
"m m m m m m m m m n n m E E R ,XY.T.L.m m K J J J A >.Y.(.!.V.j.p X       X o 6 9 4 = = !  .- O h m m m m m m m m m m m m m m m ",
"m m m m m m m T :XP.m m R 1XI.H.2XI.T m m J X.X.o.#.F.oXL.!.!.~.a.6 X     o 9 8 9 ^ { {  ...- O h m m m m m m m m m m m m m m m ",
"m m m m m m m U Y.<Xm R ,XT.1XL E T n m m J ..@.$.+X$X XG.L.J.k.p @ .     5 8 t y | ....{ ..- O h m m m m m m m m m m m m m m m ",
"m m m m m m m m I I m Z.0X,XT m n m m m m J ..#.XX=X=XXX X Xc.d.e         5 8 y ........ . .- O h m m m m m m m m m m m m m m m ",
"m m m m m m m m m m m m T I m m m m m m m N - %.XX=X-X*X$X X9.;.B d d %   > 3 | ........! - , h v m m m m m m m m m m m m m m m ",
"m m m m m m m m m m m m m m m m m m m m m g + o.|.%X-X;X&X X%.| J m m j + 2 } { .... .} 2 O g m m m m m m m m m m m m m m m m m ",
"m m m m m m m m m m m m m m m m m m m m m x k s | |.%X-X&X Xo.> C m m c v N = ! ....! - , k v m m m m m m m m m m m m m m m m m ",
"m m m m m m m m m m m m m m m m m m m c j j k # = o.|.%X%X X&.2 N j j j j %   - ! ! ;   $ j v m m m m m m m m m m m m m m m m m ",
"m m m m m m m m m m m m m m m m m m m j + O O     = | |..X XA.#.s O + O O       * *       O g m m m m m m m m m m m m m m m m m ",
"m m m m m m m m m m m m m m m m m m m v f % % % $ O : o.o.o.o.o.:         + % $ % a a a % % j m m m m m m m m m m m m m m m m m ",
"m m m m m m m m m m m m m m m m m m m m m n n n v #                       f n n n m U c n n m m m m m m m m m m m m m m m m m m ",
"m m m m m m m m m m m m m m m m m m m m m m m m c h d d d d d d d d d d d j m m m n x n m m m m m m m m m m m m m m m m m m m m ",
"m m m m m m m m m m m m m m m m m m m m m m m m m m m m m m m m m m m m m m m m m m m m m m m m m m m m m m m m m m m m m m m m ",
"m m m m m m m m m m m m m m m m m m m m m m m m m m m m m m m m m m m m m m m m m m m m m m m m m m m m m m m m m m m m m m m m ",
"m m m m m m m m m m m m m m m m m m m m m m m m m m m m m m m m m m m m m m m m m m m m m m m m m m m m m m m m m m m m m m m m "
};
