/* XPM */
static const char *UF9VcF8y[] = {
/* columns rows colors chars-per-pixel */
"64 64 229 2 ",
"   c #191A19",
".  c #271C1A",
"X  c #3C1E18",
"o  c #232318",
"O  c #2A2B19",
"+  c #2A211D",
"@  c #37361A",
"#  c #362A1F",
"$  c #1A2428",
"%  c #1C2C32",
"&  c #1D343D",
"*  c #272525",
"=  c #372923",
"-  c #2D273B",
";  c #342B3B",
":  c #2A3437",
">  c #3A3838",
",  c #31362A",
"<  c #1C1E23",
"1  c #50321B",
"2  c #652A1B",
"3  c #7A2C1B",
"4  c #742919",
"5  c #7A371C",
"6  c #6F3419",
"7  c #452928",
"8  c #48342A",
"9  c #59392A",
"0  c #463937",
"q  c #573A35",
"w  c #502C2D",
"e  c #773E32",
"r  c #6A372B",
"t  c #394123",
"y  c #494B1A",
"u  c #45441B",
"i  c #56581A",
"p  c #4F511A",
"a  c #6E501A",
"s  c #5E611A",
"d  c #676B19",
"f  c #6A6D1B",
"g  c #65671A",
"h  c #6D721B",
"j  c #72751B",
"k  c #76791F",
"l  c #726A1B",
"z  c #49482A",
"x  c #524D2A",
"c  c #5B5B25",
"v  c #56542A",
"b  c #494536",
"n  c #5D473C",
"m  c #465B39",
"M  c #5C5B3B",
"N  c #69402F",
"B  c #6B4336",
"V  c #784936",
"C  c #745531",
"Z  c #4C6038",
"A  c #5A6734",
"S  c #666824",
"D  c #796824",
"F  c #6D7224",
"G  c #767A21",
"H  c #797C22",
"J  c #747729",
"K  c #787B35",
"L  c #636332",
"P  c #1F3D49",
"I  c #2E2741",
"U  c #322B45",
"Y  c #39324F",
"T  c #39334A",
"R  c #3B3552",
"E  c #3C3C54",
"W  c #233D47",
"Q  c #543D48",
"!  c #453B57",
"~  c #413847",
"^  c #673D41",
"/  c #453F60",
"(  c #1F4351",
")  c #1F404E",
"_  c #354549",
"`  c #204655",
"'  c #214959",
"]  c #2C4753",
"[  c #334755",
"{  c #26525B",
"}  c #385257",
"|  c #24444E",
" . c #38655F",
".. c #275C65",
"X. c #275965",
"o. c #2B666B",
"O. c #326263",
"+. c #2D6E71",
"@. c #337978",
"#. c #347074",
"$. c #564549",
"%. c #575548",
"&. c #47445A",
"*. c #47534A",
"=. c #6E564F",
"-. c #726E4F",
";. c #464261",
":. c #494564",
">. c #4A4B68",
",. c #484A65",
"<. c #4E526D",
"1. c #52546B",
"2. c #555C77",
"3. c #504D68",
"4. c #695A67",
"5. c #476A65",
"6. c #58657C",
"7. c #467477",
"8. c #587071",
"9. c #736661",
"0. c #777271",
"q. c #4A664E",
"w. c #822F1D",
"e. c #983C1C",
"r. c #86321D",
"t. c #883A26",
"y. c #973924",
"u. c #A93D27",
"i. c #A4421E",
"p. c #884026",
"a. c #894A3A",
"s. c #885337",
"d. c #9A563B",
"f. c #94492C",
"g. c #A94228",
"h. c #B6462A",
"j. c #AD5034",
"k. c #A86738",
"l. c #CB4E33",
"z. c #C85434",
"x. c #C95B2B",
"c. c #DC6831",
"v. c #D8673C",
"b. c #C4723D",
"n. c #CE6536",
"m. c #955945",
"M. c #895C52",
"N. c #9A6147",
"B. c #946C57",
"V. c #AC6C4C",
"C. c #A36C4A",
"Z. c #B97958",
"A. c #AB7254",
"S. c #867676",
"D. c #B17968",
"F. c #D87842",
"G. c #C9754D",
"H. c #E27C45",
"J. c #7E8125",
"K. c #7F8237",
"L. c #3D867D",
"P. c #7D8243",
"I. c #7D8352",
"U. c #4A867C",
"Y. c #6D8176",
"T. c #83854C",
"R. c #868E68",
"E. c #95956B",
"W. c #9B9878",
"Q. c #928F74",
"!. c #A48B68",
"~. c #A5916D",
"^. c #AD9271",
"/. c #F09850",
"(. c #F09750",
"). c #EC8F4D",
"_. c #D08860",
"`. c #C69678",
"'. c #C88B68",
"]. c #CEAA7B",
"[. c #CE865F",
"{. c #3B7985",
"}. c #5C6982",
"|. c #5F7089",
" X c #63758D",
".X c #667289",
"XX c #687B92",
"oX c #697288",
"OX c #378984",
"+X c #399189",
"@X c #449B99",
"#X c #4E8F95",
"$X c #78889D",
"%X c #6D8692",
"&X c #46A09E",
"*X c #519AA6",
"=X c #7C8FA2",
"-X c #52ACAE",
";X c #5BADB6",
":X c #5AB5BB",
">X c #57B3B7",
",X c #4CA6A6",
"<X c #72B0B5",
"1X c #6DB9C7",
"2X c #65C2CB",
"3X c #6CCAD5",
"4X c #76CAD7",
"5X c #76D6E5",
"6X c #78D8E8",
"7X c #78D1E0",
"8X c #979B8A",
"9X c #869195",
"0X c #A39D83",
"qX c #A49490",
"wX c #9BA09A",
"eX c #A6A289",
"rX c #AEA695",
"tX c #8297A8",
"yX c #8B95A3",
"uX c #94A8B6",
"iX c #9CB2BE",
"pX c #93A4AF",
"aX c #B4AEA7",
"sX c #AAB6BC",
"dX c #9FB5C1",
"fX c #A7BCC6",
"gX c #86C6CD",
"hX c #8BCED0",
"jX c #ACC2CB",
/* pixels */
"j j j j j j j j j j j j j j j j j j j j j j j j j j j j j j j j j j j j j j j j j j j j j j j j j j j j j j j j j j j j j j j j ",
"j j j j j j j j j j j j j j j j j j j j j j j j j j j j j j j j j j j j j j j j j j j j j j j j j j j j j j j j j j j j j j j j ",
"j j j j j j j j j j j j j j j j j j j j j j j j j j j j j j j j j j j j j j j j j j j j j j j j j j j j j j j j j j j j j j j j ",
"j j j j j j j j j j j j j j j j j j j j j j j F L M M M M M M M L F j j j j j j j j j j j j j j j j j j j j j j j j j j j j j j ",
"j j j j j j j j j j j j j j j j j j j j j j j S %./ ;.;.:.:.:.;.*.S j j j j j j j j j j j j j j j j j j j j j j j j j j j j j j ",
"j j j j j j j j j j j j j j j j j j j j j j c b &.,.2.oX9XyX$X.X2.%.%.%.L j j j j j j j j j j j j j j j j j j j j j j j j j j j ",
"j j j j j j j j j j j j j j j j j j j j j j b I R ,.}.=XdXfXfXtXXX2.1.,.%.F F H k j j j j j j j j j j j j j j j j j j j j j j j ",
"j j j j j j j j j j j j j j j j j j j j j j b - U R ,.}.$XuXjXdXuXpX$X|.1.%.L k G k j j j j j j j j j j j j j j j j j j j j j j ",
"j j j j j j j j j j j j j j j j j j j j j j v 0 0 > E <. X=XiXfXjXjXuXXX2.&.M c f j j k j j j j j j j j j j j j j j j j j j j j ",
"j j j j j j j j j j j j j j j j j j j j j j f S S v > ,. XXX$XuXjXjXuXXX2.! T > c h H J.H j j j j j j j j j j j j j j j j j j j ",
"j j j j j j j j j j j j j j j j j j j j j j j f c z ; E 2.}.XXtXpXpX=X}.>.R U ; z c F H k j j j j j j j j j j j j j j j j j j j ",
"j j j j j j j j j j j j j j j j j j j j j j j S 0 - - Y ;.2. XXXXXXX}.:.R I - - - 0 F j j j j j j j j j j j j j j j j j j j j j ",
"j j j j j j j j j j j j j j G K.K j j j j j j S 0 U Y ;.2.2.2.2.<.>.&.R Y Y 0 7 7 8 z z z S j j j j j j j j j j j j j j j j j j ",
"j j j j j j j j j j j j j G T.rXW.K j j j j h S > U ! 1.|.2.:.>.:.E T U Y ! q 2 2 w ; I I x f j j j j j j j j j j j j j j j j j ",
"j j j j j j j j j j j j j K 0X!.~.E.j j j j v > ; ; w Q <.2.}.$XyX9XXX2.=.e t.3 2 w ~ R R ~ b S j j j j j j j j j j j j j j j j ",
"j j j j j j j j j j j j j j K 0XE.f j j f S b U ; 7 2 r Q 4.S.wXaXaXwXS.M.i.i.e.r q :.:./ Y ; c j j j j j j j j j j j j j j j j ",
"j j j j j j j j j j j j j j h d f j j j c > T ! w 2 r.t.t.j.G.G.G.G.G.G.n.x.h.t.^ &.6.2.;.Y ; c j j j j j j j j k k j j j j j j ",
"j j j j j j j j j j j j j j j j j j j j x - &.3.$.B e t.e.h.x.c.c.c.c.c.G.V.A.B.0..X X6.;.Y ; c j j j j j j j G J.H j j j j j j ",
"j j j j j j j j j j j j j j j j j j j j x - <..X.X6.:.^ e.e.i.x.c.c.c.c.A.oXpXsXfXuX%X6.;.Y ; c j j j j j j G H H j j j j j j j ",
"j j j j j j j j j j j j j j j j j j j j x I ;.6.|.|.2.4.=.M.M.D.`.`.`.`.qXtXdXfXuX=X}.>.R b x S j j k j j P.T.G h j j j j j j j ",
"j j j j j j j j j j j j j j j j j j j j x - R :.6. X X X X XXXuXjXjXjXjXjXjXfXiX$X}.:.R - x j j j j J.k P.8X8XI.G j j j j j j j ",
"j j j j j j j j j j j j j j j j j j j j S v > ; E ,.<.6. X XXX$XtXtXtXtXtXtX$X.X3.! Y 0 v S j j j h H H R.Q.~.Q.J j j j j j j j ",
"j j j j j j j j j j j j j j j j j j j j j j u * * I R ,.6.6.6.6.6.}.}.}.}.}.>.! T ; - z j j j j j j j G d R.Q.F f j j j j j j j ",
"j j j j j j j j j j j j j j j j j j j j j j C 9 = < * - : : : : : R E E E E Y T q q * z h j j j j j h j d f h d j j j j j j j j ",
"j j j j j j j j j j j j j j j j j j j j j j D C # . = = = 7 8 8 q Q $.$.Q 0 0 0 q 9 @ y j j j j j j j h f G j h j j j j j j j j ",
"j j j j j j j j j j j j j j j j j j j j j j j g @ = N V V N.Z.Z.Z.Z.Z.Z.N.V V B 7 @ i f j j j j j j j j j k h j j j j j j j j j ",
"j j j j j j j j j j j j j j j j j j j j j j j f y 8 9 N s.V._._._._._._.V.s.N 9 8 y f j j j j j j j j j j j j j j j j j j j j j ",
"j j j j j j j j j j j j j j j j j j j j j j j j j i O 8 s.V._._._._._._.V.s.8 O i j j j j j j j j j j j j j j j j j j j j j j j ",
"j j j j j j j j j j j j j j j j j j j j j j i u a a 5 t.j.j.d.d.d.d.d.d.f.5 2 1 s j j j j j j j j j j j j j j j j j j j j j j j ",
"j j j j j j j j j j j j j j j j j j j j h g @ . 2 y.h.l.l.g.5 5 5 3 3 3 4 4 4 6 a h j j j j j j j j j j j j j j j j j j j j j j ",
"j j j j j j j j j j j j j j j j j j j j i @ 1 2 y.h.F.H.H.F.b.b.b.h.u.u.u.u.r.2 b Z F j j j j j j j j j j j j j j j j j j j j j ",
"j j j j j j j j j j j j j j j j j j j j z $ 8 e g.z.F.).(./././.).v.z.l.h.h.a.=.5.5.A F j j j j j j j j j j j j j j j j j j j j ",
"j j j j j j j j j j j j j j j j j j j j m P O.5.V y.z.F.(././.(.).).v.l.u.t.0.<X1X*X .Z j j j j j j j j j j j j j j j j j j j j ",
"j j j j j j j j j j j j j j j j j j d i q.{.OXL.q.V y.j.b.F.H.H.H.H.n.g.m.9.<X5X2X*X..*.h j j j j j j j j j j j j j j j j j j j ",
"j j j j j j j j j j j j j j j j j j i O 7.3X,X+XOX5.r 3 3 g.l.l.l.l.g.w.0.4X7X3X,XOXX.m h j j j j j j j j j j j j j j j j j j j ",
"j j j j j j j j j j j j j j j j j j p o 7.5X2X-X@X#.$.b %.S.qXqXQ.B.=.q 8.:X:X:X>X-X#X7.Z S j j j j j j j j j j j j j j j j j j ",
"j j j j j j j j j j j j j j j j j j i o 7.5X5X3X&X@.{ o.+X:X6X6X3X&X@.' +.+X+X@X2X6X5X*X' Z j j j j j j j j j j j j j j j j j j ",
"j j j j j j j j j j j j j j j j g y x C Y.-X-X@XO._ 0 *.+X:X6X6X3X&X@.' X.+.@.@X2X3X:XOX' Z j j j j j j j j j j j j j j j j j j ",
"j j j j j j j j j j j j j j j j s O n Z.Q.#XU.#.: . 1 %.U.<XhXhX<X#X5.[ | ` o.+X:X:X#X7.} M j j j j j j j j j j H j j j j j j j ",
"j j j j j j j j j j j j j j j j s O n G.^.!.B.%.= * > $.m.^.].].`.A.a.9 = $ | ..#.8.Q.!.A.N.s.D j j j H H k j j H k j j j j j j ",
"j j j j j j j j j j j j j j j j s O 9 V.Z.Z.N.V , & { 4.D.`.].].`.D.B.B > $ & W _ =.Z._._.V.s.D j j j k J.H k j h G j j H j j j ",
"j j j j j j j j j j j j j j j j s O 7 s.d.d.s.V _ { @.*XdXgXhXhXhXgX<XU.O.P % * n N.G._._.V.s.D j j j j h G H R.Q.J k k h j j j ",
"j j j j j j j j j j j H j j j j g y 8 9 9 9 9 q _ ..OX-X5X6X6X6X7X2X-X+X+.` % + N d.V.Z._.V.s.D j j j H j h G !.pXJ G H d j j j ",
"j j j j j j H H k j j H k j j j j h p o       $ P ..OX-X5X6X6X6X3X&X+X+X+.` % + N s.s.C.[.V.s.D j j j h E.W.J J -.j h h h j j j ",
"j j j j j j k J.H k j h G j K 8XR.j g y y y y y 8 *.O.{.#X#X#X#X#X#.+.+.} 0 * . = 9 V m.V.N.D D j j j E.~.~.W.F E.W.F h j j j j ",
"j j j j j j j h H H k f k k K.wXE.R.j j j j j l 6 9 _ } } [ ] ] ] ] [ ] q 4 X     = V s.s.D j j j j j K 0XrXT.W.~.aXH j j j j j ",
"j j j j j j H j h H G J eXE.J I.wX8Xj j j j j l 6 p.C.A.A.N.a.r r a.a.a.t.4 X o u i D D D D j j j j j h K -.j rXrXP.j j j j j j ",
"j j j j j j h H j h K.W.!.~.E.F K K j j j j l l 5 f.b.F.F.z.u.r.3 u.h.h.t.9 = * y g h j j j j j j j j j h h j K K j j j j j j j ",
"j j j j j j h h G d h T.rX0XK K 0XE.j j j j a 5 u.g.p.p.p.t.w.3 4 3 w.w.q _ W W , u g j j j j j j j j j j j j h h j j j j j j j ",
"j j j j j j j j j h h j K K K 0X!.~.E.j j j a 3 y.f.9.9.9.9.9.B q n n n *.' ' ) $ @ g j j j j j j j j j j j j j j j j j j j j j ",
"j j j j j j j J 8XQ.j j K eXW.T.rXW.J j j j a 4 4 =.<X4X4X4X1X7.{ @.L.L.o.' ' ) $ @ g j j j j j j j j j j j j j j j j j j j j j ",
"j j j j j j j G !.wXj K eX~.eXF K J j j j j v $.9.%X;X:X:X:X-X#.' o.+.+.X.` P : @ p f j j j j j j j j j j j j j j j j j j j j j ",
"j j j j j j j j F J j K.aX0XJ j h j j j j h *...:X2X@X+X+X+XOXo.' ` ` ` ` ` % O i j j j j j j j j j j j j j j j j j j j j j j j ",
"j j j j j j j j j h j j J J j j j j j j A *. .@.@X,X+X+X+X+XOXo.( & % % % % t p d j j j j j j j j j j j j j j j j j j j j j j j ",
"j j j j j j j j j j j j j j j j j j j j m ` +.+XOXL.OXOXOXOX@...P $   o o O p j j j j j j j j j j j j j j j j j j j j j j j j j ",
"j j j j j j j j j j j j j j j j j j j j z % O.OX+.X.X.......X.' P $ O p i S f j j j j j j j j j j j j j j j j j j j j j j j j j ",
"j j j j j j j j j j j j j j j j j j j j y   { #.X.' ' ' ' ' ` P & $ @ f j H H G k j j H J.k j j j j j j j j j j j j j j j j j j ",
"j j j j j j j j j j j j j j j j j j j j y   P { ' ' ' ' ' ' ( % <   @ f j h j H k j k J.k j j j j j j j j j j j j j j j j j j j ",
"j j j j j j j j j j j j j j j j j j j j i @ , & & & & & & & & $ o @ p h j j h d h k H H k j j j j j j j j j j j j j j j j j j j ",
"j j j j j j j j j j j j j j j j j j j j j f @                   O i j j j j j j j k H h h j j j j j j j j j j j j j j j j j j j ",
"j j j j j j j j j j j j j j j j j j j j j j i y y y y y y y y y p f j j j j j j j h d h j j j j j j j j j j j j j j j j j j j j ",
"j j j j j j j j j j j j j j j j j j j j j j j j j j j j j j j j j j j j j j j j j j j j j j j j j j j j j j j j j j j j j j j j ",
"j j j j j j j j j j j j j j j j j j j j j j j j j j j j j j j j j j j j j j j j j j j j j j j j j j j j j j j j j j j j j j j j ",
"j j j j j j j j j j j j j j j j j j j j j j j j j j j j j j j j j j j j j j j j j j j j j j j j j j j j j j j j j j j j j j j j "
};
