/* XPM */
static const char *UF9VcF8z[] = {
/* columns rows colors chars-per-pixel */
"64 64 224 2 ",
"   c #1A1B1C",
".  c #241D1A",
"X  c #311D18",
"o  c #212118",
"O  c #29261B",
"+  c #352B1B",
"@  c #373819",
"#  c #1E1C22",
"$  c #1A2529",
"%  c #1C2E35",
"&  c #1D3239",
"*  c #24272A",
"=  c #382922",
"-  c #2B263A",
";  c #352A3A",
":  c #3A3738",
">  c #2E362D",
",  c #231F2E",
"<  c #502B19",
"1  c #672A1A",
"2  c #752B1B",
"3  c #7B2D1B",
"4  c #77361B",
"5  c #6D3D1C",
"6  c #482B28",
"7  c #4B3527",
"8  c #58352A",
"9  c #443B36",
"0  c #503337",
"q  c #662D21",
"w  c #70372C",
"e  c #3F4421",
"r  c #4A4C1B",
"t  c #43451B",
"y  c #53551A",
"u  c #5A5D1A",
"i  c #514F1A",
"p  c #71501A",
"a  c #5D6119",
"s  c #63651B",
"d  c #666A1B",
"f  c #6A6D1B",
"g  c #676B18",
"h  c #71691B",
"j  c #6D721B",
"k  c #72751B",
"l  c #76791F",
"z  c #464726",
"x  c #5B5B26",
"c  c #56552B",
"v  c #494536",
"b  c #5D5C3A",
"n  c #4B5131",
"m  c #664735",
"M  c #744735",
"N  c #6F5D2E",
"B  c #4D6137",
"V  c #576730",
"C  c #676A25",
"Z  c #776D21",
"A  c #786B23",
"S  c #6D7225",
"D  c #767A21",
"F  c #797C22",
"G  c #747729",
"H  c #7B7E32",
"J  c #757937",
"K  c #6B6536",
"L  c #1E3A45",
"P  c #2F2A41",
"I  c #312B45",
"U  c #342F49",
"Y  c #263D46",
"T  c #36324C",
"R  c #393649",
"E  c #3C3954",
"W  c #423945",
"Q  c #413B59",
"!  c #553E51",
"~  c #673D41",
"^  c #1F404E",
"/  c #1F4452",
"(  c #26454C",
")  c #214959",
"_  c #244752",
"`  c #25535D",
"'  c #364D4D",
"]  c #275965",
"[  c #29646A",
"{  c #2D6468",
"}  c #2D6D71",
"|  c #32797A",
" . c #326D6F",
".. c #3F6158",
"X. c #44474A",
"o. c #585747",
"O. c #47455C",
"+. c #4E5957",
"@. c #554F53",
"#. c #6A4A47",
"$. c #74504F",
"%. c #4D635A",
"&. c #6C7044",
"*. c #464362",
"=. c #494563",
"-. c #4A4B67",
";. c #4D556D",
":. c #535975",
">. c #51536B",
",. c #785F61",
"<. c #685761",
"1. c #57627C",
"2. c #4F7167",
"3. c #6D7173",
"4. c #832F1D",
"5. c #87361D",
"6. c #983D1E",
"7. c #9A3A25",
"8. c #893A25",
"9. c #A73D28",
"0. c #815C2F",
"q. c #864834",
"w. c #954832",
"e. c #875436",
"r. c #8F4C31",
"t. c #A7482A",
"y. c #B5442C",
"u. c #A54735",
"i. c #B75229",
"p. c #A25B2D",
"a. c #C64C34",
"s. c #C85835",
"d. c #CC5531",
"f. c #C86C3B",
"g. c #D96A37",
"h. c #D1713E",
"j. c #8C5848",
"k. c #B35C42",
"l. c #9A6645",
"z. c #8A6955",
"x. c #A56748",
"c. c #B67554",
"v. c #AE6F54",
"b. c #8C736D",
"n. c #A3786A",
"m. c #DD7341",
"M. c #C67F59",
"N. c #C86A40",
"B. c #E07A44",
"V. c #7E8125",
"C. c #7F8237",
"Z. c #33807E",
"A. c #7D8243",
"S. c #7D8352",
"D. c #4A8276",
"F. c #65897B",
"G. c #83854C",
"H. c #88825D",
"J. c #95956B",
"K. c #9B9A79",
"L. c #908E72",
"P. c #A68C67",
"I. c #A5916D",
"U. c #A5997A",
"Y. c #B08671",
"T. c #CB855D",
"R. c #C28651",
"E. c #D18147",
"W. c #F09850",
"Q. c #E98A4B",
"!. c #D08860",
"~. c #CA8862",
"^. c #DDA268",
"/. c #3D7888",
"(. c #5C6983",
"). c #547585",
"_. c #62748D",
"`. c #69778F",
"'. c #697A91",
"]. c #6D778C",
"[. c #887C84",
"{. c #378C85",
"}. c #398986",
"|. c #389089",
" X c #3E9791",
".X c #499196",
"XX c #76899B",
"oX c #718A90",
"OX c #549CA9",
"+X c #788CA0",
"@X c #7C95A3",
"#X c #4AA4A3",
"$X c #52ADAF",
"%X c #56ACB4",
"&X c #5AB4BA",
"*X c #61A2A4",
"=X c #62BDC7",
"-X c #77BEC9",
";X c #5FBCC2",
":X c #6ECDD9",
">X c #71CADA",
",X c #69C6D1",
"<X c #78D8E8",
"1X c #78D5E3",
"2X c #979B8A",
"3X c #939991",
"4X c #A39D83",
"5X c #AD9389",
"6X c #9BA09A",
"7X c #A6A289",
"8X c #AEA596",
"9X c #BCA88F",
"0X c #838DA0",
"qX c #879AAA",
"wX c #96A8B5",
"eX c #9EB3BF",
"rX c #8DA7A9",
"tX c #B2AEA4",
"yX c #C09E8D",
"uX c #9AC6BD",
"iX c #A1B7C2",
"pX c #A6BCC6",
"aX c #9FB5C1",
"sX c #ACC2CB",
/* pixels */
"k k k k k k k k k k k k k k k k k k k k k k k k k k k k k k k k k k k k k k k k k k k k k k k k k k k k k k k k k k k k k k k k ",
"k k k k k k k k k k k k k k k k k k k k k k k k k k k k k k k k k k k k k k k k k k k k k k k k k k k k k k k k k k k k k k k k ",
"k k k k k k k k k k k k k k k k k k k k k k k k k k k k k C b b b b b b b b C k k k k k k k k k k k k k k k k k k k k k k k k k ",
"k k k k k k k k k k k k k k k k k k k k k k k k k k k k k o.=.=.=.=.*.*.*.O.b k k k k k k k k k k k k k k k k k k k k k k k k k ",
"k k k k k k k k k k k k k k k k k k k k k k k k k k k C o.3.0X0X0X0X'.1.;.O.b k k k k k k k k k k k k k k k k k k k k k k k k k ",
"k k k k k k k k k k k k k k k k k k k k k k k k k k S &.>.0XsXsXsXpXqX_.:.Q b k k k k k k k k k k k k k k k k k k k k k k k k k ",
"k k k k k k k k k k k k k k k k k k k k k k k k k C o.3.qXeXsXsXiXqX`.:.Q U x F l k k k k k k k k k k k k k k k k k k k k k k k ",
"k k k k k k k k k k k k k k k k k k k k k k k k C o.>.'.pXiXwXwX0X(.;.Q R 9 x l D l k k k k k k k k k k k k k k k k k k k k k k ",
"k k k k k k k k k k k k k k k k k k k k k k k S o.>.1.@XsXrX'.1.-.E U I n S S j j k k l k k k k k k k k k k k k k k k k k k k k ",
"k k k k k k k k k k k k k k k k k k k k k k k C X.*.(.XXrXqX@XXX(.-.E T v x C j g j F V.F k k k k k k k k k k k k k k k k k k k ",
"k k k k k k k k k k k k k k k k k k k k k k k C 9 E (.'.'.qXsXpXwXXX1.*.T ; x l j k F F l k k k k k k k k k k k k k k k k k k k ",
"k k k k k k k k k k k k k k k k k k k k k k x v ; T ;.(._.XXqXqX+X(.-.E I - 9 c C F D k k k k k k k k k k k k k k k k k k k k k ",
"k k k k k k k k k k k k k k D C.H k k k k k v - P T O.:._._._._.1.=.E I - ; ; ; x S d f k k k k k k k k k k k k k k k k k k k k ",
"k k k k k k k k k k k k k D G.8XU.H k k k k v P T *.:.:.;.;.;.*.E T T E 9 6 6 6 9 9 v c k k k k k k k k k k k k k k k k k k k k ",
"k k k k k k k k k k k k k H 4XP.I.J.k k C C 9 I W O.1.:.-.:.:.>.O.E Q ! 8 1 1 < ; I I v C f k k k k k k k k k k k k k k k k k k ",
"k k k k k k k k k k k k k k J 4XJ.f k k c : ; ; 6 0 =.:.(.XXwXwX0X_.<.q.8.5.2 < W Q Q R : c k k k k k k k k k k k k k k k k k k ",
"k k k k k k k k k k k k k k j g f k f x v T ; 6 q w ~ $.b.5X9X9X5Xb.l.t.9.6.w 0 =.-.*.E - c k k k k k k k k k k l l k k k k k k ",
"k k k k k k k k k k k k k k k k k k x : R Q 0 1 5.6.7.t.f.h.h.h.h.h.g.g.i.6.w =.1.1.-.E - c k k k k k k k k k D V.F k k k k k k ",
"k k k k k k k k k k k k k k k k k k x ; E :.@.#.#.w 7.t.i.d.g.g.g.g.N.v.n.n.[.].'.(.-.E - c k k k k k k k k D D F k k k k k k k ",
"k k k k k k k k k k k k k k k k k k x ; -._._.(.;.@.8.6.7.i.g.g.g.g.v.].qXsXsXiXXX(.-.E - c k k k k l k k A.G.D j k k k k k k k ",
"k k k k k k k k k k k k k k k k k k x ; E :.(._.(.1.,.,.,.Y.yXyXyXyX8XwXeXsXwXXX(.-.E 9 c C k k k k V.l A.2X2XS.D k k k k k k k ",
"k k k k k k k k k k k k k k k k k k x : R E ;.(.(._._._._.qXiXiXiXiXiXiXeXwXXX1.=.E : n k k k k k j F F L.I.I.L.H k k k k k k k ",
"k k k k k k k k k k k k k k k k k k f C z * U E -.:._._._.XXXXXX+X+X+X+X].1.-.E T : c C k k k k k k k D g H.L.C f k k k k k k k ",
"k k k k k k k k k k k k k k k k k k k k y = * - U ' ;.;.;.;.;.1.1.1.1.1.-.E I - - : d k k k k k k k j k g f j g k k k k k k k k ",
"k k k k k k k k k k k k k k k k k k k k N M 6   # * * * * * * P T T T T U P *     @ s k k k k k k k k j f D k j k k k k k k k k ",
"k k k k k k k k k k k k k k k k k k k k A N m = . . = 8 m m m #.$.$.#.0 ; , #   + r f k k k k k k k k k k l j k k k k k k k k k ",
"k k k k k k k k k k k k k k k k k k k k k k N M = = M x.T.T.T.T.T.T.c.e.8     o y k k k k k k k k k k k k k k k k k k k k k k k ",
"k k k k k k k k k k k k k k k k k k k k k k A N + . 6 M x.c.!.!.!.!.c.e.8   @ i d k k k k k k k k k k k k k k k k k k k k k k k ",
"k k k k k k k k k k k k k k k k k k k k k k k s @ . . 6 q.x.M.M.M.M.v.r.8 . i h f f k k k k k k k k k k k k k k k k k k k k k k ",
"k k k k k k k k k k k k k k k k k k k k k k k h q < < 1 4 q.r.r.r.r.w.u.t.8.4 p 7 r f k k k k k k k k k k k k k k k k k k k k k ",
"k k k k k k k k k k k k k k k k k k k k k k C C 5 2 4.4.4.4.4.8.r.r.t.s.s.s.t.2 < + y d k k k k k k k k k k k k k k k k k k k k ",
"k k k k k k k k k k k k k k k k k k k k k k B ' 8 4.9.y.y.y.y.f.E.m.E.Q.Q.Q.s.9.2 < + r k k k k k k k k k k k k k k k k k k k k ",
"k k k k k k k k k k k k k k k k k k k k C V 2.).3.j.u.y.a.d.g.Q.W.W.W.W.Q.B.s.7.M v * e j k k k k k k k k k k k k k k k k k k k ",
"k k k k k k k k k k k k k k k k k k k k B ` OX>X>X@XM 7.a.g.Q.W.W.W.W.W.m.a.7.w 2. .) B j k k k k k k k k k k k k k k k k k k k ",
"k k k k k k k k k k k k k k k k k k k k B ) .X;X:X-XoXz.7.i.m.m.m.m.h.k.t.7.M %.D.|..X2.r a k k k k k k k k k k k k k k k k k k ",
"k k k k k k k k k k k k k k k k k k k k B ) | .X,X1X1XoX2 7.a.a.a.a.t.2 2 2 %.|.|.#X:X.X  r k k k k k k k k k k k k k k k k k k ",
"k k k k k k k k k k k k k k k k k k C B 2.OX&X&X%X$X$X).W o.3.3X6X6XoX2.X.W  . X$X,X1X.X  r k k k k k k k k k k k k k k k k k k ",
"k k k k k k k k k k k k k k k k k k V _ .X:X1X:X#X{.}.} ) }  X,X<X<X=X X .( { }.&X:X:X.X= r d j k k k k k k k k k k k k k k k k ",
"k k k k k k k k k k k k k k k k k k V _ | #X,X:X#XZ.[ ] ) }  X=X<X<X=X X%.8 : ( }.#X#XF.l.m @ u k k k k k k k k F k k k k k k k ",
"k k k k k k k k k k k k k k k k k Z K +.2.F.*X%X}.[ ( Y R +.F.rXuXuXrXF.o.8 + * ..D.F.L.!.M o y k k k F F l k k F l k k k k k k ",
"k k k k k k k k k k k k k k k k Z 0.l.c.Y.Y.3.] ] ( $ = q w.k.T.^.^.T.k.#.( * O m z.P.~.!.M o y k k k l V.F l k j D k k F k k k ",
"k k k k k k k k k k k k k k k k Z 0.x.T.!.T.z.X.Y & % : o.z.Y.9X9X9X9XY.3.[ ( > m e.v.c.c.m o y k k k k j D F L.L.G l l j k k k ",
"k k k k k k k k k k k F k k k k Z 0.x.T.!.T.x.M = $ L [ }.&X1X1X1X1X1X1X&X{.[ ' m e.e.e.e.7 o y k k k F k j D P.6XG D F g k k k ",
"k k k k k k F F l k k F l k k k Z 0.x.T.c.x.e.M = $ ^ [ {.#X&X:X<X<X<X<X&X{.[ _ 9 7 7 7 7 7 r s k k k j J.K.G G &.k j j j k k k ",
"k k k k k k l V.F l k j D k H 2XH.0.l.M.x.e.q.M = $ Y { }.}.|.&X>X>X>X>X%X}.{ Y * o o o o r k k k k k J.I.I.K.S J.K.S j k k k k ",
"k k k k k k k j F F l f l l C.6XI.b.0.l.e.e.8 = . O 6 X.] [ [ | /./././. .] X.8 i y y y y s k k k k k J 4X8XG.K.I.tXF k k k k k ",
"k k k k k k F k j F D H 7XJ.G S.6X2XA 0.0.0.7 O   X 1 8 X.X.X.' ' X.+.+.+.+.8 4 h k k k k k k k k k k j J &.k 8X8XA.k k k k k k ",
"k k k k k k j D k j C.U.P.I.J.S J J k Z Z Z s y O X 1 8.u.u.w.w w w.k.R.R.R.r.4 h k k k k k k k k k k k j j k J J k k k k k k k ",
"k k k k k k j j D g j A.8X4XJ H 4XJ.k k k k s r > * 7 w 9.9.9.4.3 7.i.f.f.f.t.8.p h k k k k k k k k k k k k k j j k k k k k k k ",
"k k k k k k k k k j j k J J H 4XP.I.J.k k k t * L _ _ 9 2 2 2 2 2 2 3 3 3 3 9.y.5.p h k k k k k k k k k k k k k k k k k k k k k ",
"k k k k k k k G 3XK.k k H 7XK.G.8XK.G k k j @ $ L ) ) ' o.o.o.v X.3.3.3.3.3.j.7.3 5 h k k k k k k k k k k k k k k k k k k k k k ",
"k k k k k k k D P.6Xk H 4XI.7XS J G k k k j @ $ L ) ) [ {.{.}.[  .=X1X1X1X1X3.2 2 5 h k k k k k k k k k k k k k k k k k k k k k ",
"k k k k k k k k S G k C.tX4XG k j k k k k k u r > & / ] [ [ [ ` ] .X$X$X$X$X*XoX+.n C k k k k k k k k k k k k k k k k k k k k k ",
"k k k k k k k k k j k k G G k k k k k k k k k d @ * Y ^ ^ ^ ^ _ ] Z.|.|.|.|.&X=X/.' V S k k k k k k k k k k k k k k k k k k k k ",
"k k k k k k k k k k k k k k k k k k k k k k k j s r * $ $ $ $ L ] Z.|.|.|.|..X#X}. .' B k k k k k k k k k k k k k k k k k k k k ",
"k k k k k k k k k k k k k k k k k k k k k k k k k s @ + + o   L ] } | | | | | Z.}.| _ n j k k k k k k k k k k k k k k k k k k k ",
"k k k k k k k k k k k k k k k k k k k k k k k k k j d s s @   L ) ` ` ` ` ` ` ] |  .% z F l k k k k k k k k k k k k k k k k k k ",
"k k k k k k k k k k k k k k k k k k k k k k k k k k k k k t   % L / ) ) ) ) ) ) [ ` $ t l k k k k k k k k k k k k k k k k k k k ",
"k k k k k k k k k k k k k k k k k k k k k k k k k k k k k t     $ L ) ) ) ) ) ) ) L $ e k k k k k k k k k k k k k k k k k k k k ",
"k k k k k k k k k k k k k k k k k k k k k k k k k k k k k u t O   $ % % % % % % % > z y j k k k k k k k k k k k k k k k k k k k ",
"k k k k k k k k k k k k k k k k k k k k k k k k k k k k k k f @ o o o o o o o o o @ a j k k k k k k k k k k k k k k k k k k k k ",
"k k k k k k k k k k k k k k k k k k k k k k k k k k k k k k j a y y y y y y y y y u j k k k k k k k k k k k k k k k k k k k k k ",
"k k k k k k k k k k k k k k k k k k k k k k k k k k k k k k k k k k k k k k k k k k k k k k k k k k k k k k k k k k k k k k k k ",
"k k k k k k k k k k k k k k k k k k k k k k k k k k k k k k k k k k k k k k k k k k k k k k k k k k k k k k k k k k k k k k k k "
};
