/* XPM */
static const char *UF9VcF8x[] = {
/* columns rows colors chars-per-pixel */
"64 64 213 2 ",
"   c #1B1B1A",
".  c #311E19",
"X  c #252619",
"o  c #2A2A19",
"O  c #3C221D",
"+  c #3C3D1A",
"@  c #34351B",
"#  c #1C1C21",
"$  c #1C2628",
"%  c #1C3139",
"&  c #272727",
"*  c #372722",
"=  c #2A352A",
"-  c #2C263C",
";  c #342B3B",
":  c #283637",
">  c #39373A",
",  c #353623",
"<  c #202020",
"1  c #482319",
"2  c #5E2A18",
"3  c #73291A",
"4  c #7A2C1B",
"5  c #7B351C",
"6  c #652A1B",
"7  c #452A2A",
"8  c #572C25",
"9  c #453A37",
"0  c #573935",
"q  c #4F362C",
"w  c #682F22",
"e  c #68372B",
"r  c #7B3B28",
"t  c #6F3A33",
"y  c #32473A",
"u  c #42441A",
"i  c #484A1B",
"p  c #46481C",
"a  c #4F521C",
"s  c #585A1A",
"d  c #74451A",
"f  c #6D501A",
"g  c #5E611A",
"h  c #666B19",
"j  c #6A6D1B",
"k  c #63671A",
"l  c #73691B",
"z  c #6D721B",
"x  c #72751B",
"c  c #76791F",
"v  c #4C492E",
"b  c #554E2C",
"n  c #5A5A27",
"m  c #484533",
"M  c #5D5C3B",
"N  c #515031",
"B  c #6F4B34",
"V  c #4C6038",
"C  c #676924",
"Z  c #6D7426",
"A  c #767A21",
"S  c #797C22",
"D  c #747729",
"F  c #646432",
"G  c #787B35",
"H  c #7A6927",
"J  c #1E3D48",
"K  c #2E2841",
"L  c #322B45",
"P  c #243D46",
"I  c #38354A",
"U  c #3B3653",
"Y  c #3D3A55",
"T  c #423846",
"R  c #543D48",
"E  c #453C5A",
"W  c #673D41",
"Q  c #453F60",
"!  c #1F404E",
"~  c #1F4350",
"^  c #24434B",
"/  c #214B5A",
"(  c #234B54",
")  c #27545D",
"_  c #364F55",
"`  c #285865",
"'  c #385A66",
"]  c #2B676A",
"[  c #326466",
"{  c #2E7174",
"}  c #317B7B",
"|  c #367875",
" . c #347170",
".. c #594748",
"X. c #575647",
"o. c #494658",
"O. c #505451",
"+. c #644847",
"@. c #6A564C",
"#. c #765750",
"$. c #576740",
"%. c #57704C",
"&. c #77684F",
"*. c #494564",
"=. c #494866",
"-. c #4D526D",
";. c #54566D",
":. c #545B75",
">. c #545B77",
",. c #504D68",
"<. c #685A68",
"1. c #45766C",
"2. c #59657C",
"3. c #4E7069",
"4. c #88321E",
"5. c #983C1C",
"6. c #8A3924",
"7. c #993A25",
"8. c #A83D28",
"9. c #A4421E",
"0. c #8A533A",
"q. c #8F4734",
"w. c #A84328",
"e. c #B44728",
"r. c #B25035",
"t. c #827132",
"y. c #AE703A",
"u. c #CA4D32",
"i. c #CD5C37",
"p. c #CF5C32",
"a. c #DC6831",
"s. c #D4633B",
"d. c #C3713D",
"f. c #CE6434",
"g. c #875B49",
"h. c #AC5942",
"j. c #9B6146",
"k. c #896A59",
"l. c #B37352",
"z. c #B87858",
"x. c #AB6F53",
"c. c #8A7A70",
"v. c #AE7E6C",
"b. c #D67441",
"n. c #CA754D",
"m. c #E27C45",
"M. c #7E8125",
"N. c #7F8237",
"B. c #3D8C7E",
"V. c #57814C",
"C. c #7D8249",
"Z. c #4E867A",
"A. c #668377",
"S. c #83854C",
"D. c #95956B",
"F. c #9B9878",
"G. c #8F9070",
"H. c #A48D68",
"J. c #A5916D",
"K. c #A8997A",
"L. c #CB845B",
"P. c #E78749",
"I. c #ED914E",
"U. c #F09850",
"Y. c #C49378",
"T. c #DDA268",
"R. c #377E82",
"E. c #5C6982",
"W. c #5F7089",
"Q. c #64748C",
"!. c #687B92",
"~. c #687388",
"^. c #398E86",
"/. c #388685",
"(. c #3A918B",
"). c #449898",
"_. c #498E90",
"`. c #79889C",
"'. c #628B8F",
"]. c #549EAE",
"[. c #4D9BA3",
"{. c #7D90A3",
"}. c #4EA9A9",
"|. c #4CA5A5",
" X c #58ACB6",
".X c #59B4B9",
"XX c #69ACB8",
"oX c #5EBAC1",
"OX c #5FB0C0",
"+X c #66BDC3",
"@X c #6DCBD7",
"#X c #72D1DF",
"$X c #65C3CC",
"%X c #78D8E8",
"&X c #77D5E4",
"*X c #8D9891",
"=X c #A39D83",
"-X c #A59997",
";X c #9BA09A",
":X c #A6A289",
">X c #AEA695",
",X c #BFB28E",
"<X c #8397A9",
"1X c #8B95A3",
"2X c #94A8B7",
"3X c #90A9AD",
"4X c #B4AEA7",
"5X c #A0ACB4",
"6X c #9AC6BD",
"7X c #9FB5C1",
"8X c #A7BDC7",
"9X c #91C1C2",
"0X c #ACC2CB",
/* pixels */
"x x x x x x x x x x x x x x x x x x x x x x x x x x x x x x x x x x x x x x x x x x x x x x x x x x x x x x x x x x x x x x x x ",
"x x x x x x x x x x x x x x x x x x x x x x x x x x x x x x x x x x x x x x x x x x x x x x x x x x x x x x x x x x x x x x x x ",
"x x x x x x x x x x x x x x x x x x x x x x x x x x x x x x x x x x x x x x x x x x x x x x x x x x x x x x x x x x x x x x x x ",
"x x x x x x x x x x x x x x x x x x x x x Z F M M M M M M M F Z x x x x x x x x x x x x x x x x x x x x x x x x x x x x x x x x ",
"x x x x x x x x x x x x x x x x x x x x x C O.Q Q *.*.*.*.*.O.F x x x x x x x x x x x x x x x x x x x x x x x x x x x x x x x x ",
"x x x x x x x x x x x x x x x x x x x x n m o.=.>.~.1X1X`.~.:.O.X.X.F x x x x x x x x x x x x x x x x x x x x x x x x x x x x x ",
"x x x x x x x x x x x x x x x x x x x x m K U =.E.`.7X8X8X<X!.>.-.=.X.Z z x x S c x x x x x x x x x x x x x x x x x x x x x x x ",
"x x x x x x x x x x x x x x x x x x x x m - L U =.E.`.2X0X7X2X3X`.W.;.O.F x x c A x x x x x x x x x x x x x x x x x x x x x x x ",
"x x x x x x x x x x x x x x x x x x x x b 9 > > U -.Q.{.5X8X0X0X2X!.>.o.X.C Z z z x x x x x x x x x x x x x x x x x x x x x x x ",
"x x x x x x x x x x x x x x x x x x x x j C C n > =.Q.!.`.2X0X0X2X!.>.E I 9 C z h z S M.S x x x x x x x x x x x x x x x x x x x ",
"x x x x x x x x x x x x x x x x x x x x x z n v ; Y >.E.!.{.2X2X{.E.=.U L ; v n j x S S c x x x x x x x x x x x x x x x x x x x ",
"x x x x x x x x x x x x x x x x x x x x x C 9 - - I *.>.Q.!.!.!.E.*.U K - - - 9 Z S A x x x x x x x x x x x x x x x x x x x x x ",
"x x x x x x x x x x x x x x A N.G x x x x C > L I *.>.>.:.:.;.=.o.U I U 9 7 7 7 v v v v b C x x x x x x x x x x x x x x x x x x ",
"x x x x x x x x x x x x x A S.>XK.G z j j C > L E -.W.:.*.=.*.U L L U E 0 2 2 8 ; K K - ; n x x x x x x x x x x x x x x x x x x ",
"x x x x x x x x x x x x x G =XH.J.D.n m m 9 ; ; q R -.>.E.`.1X1X!.>.@.r 6.5 6 8 T Y Y L ; n x x x x x x x x x x x x x x x x x x ",
"x x x x x x x x x x x x x x G =XD.j b - L I ; 7 6 e R <.c.-X4X4X-Xc.g.w.9.5.w 0 *.*.Q I ; n x x x x x x x x x x x x x x x x x x ",
"x x x x x x x x x x x x x x z h j x b K =.;.0 6 4.6.6.r.n.n.n.n.n.n.f.p.e.6.W o.2.:.*.I ; n x x x x x x x x x x c c x x x x x x ",
"x x x x x x x x x x x x x x x x x x b K -.W.O.B t 6.5.e.p.a.a.a.a.a.n.l.x.k.<.:.2.-.Y T m C x x x x x x x x x c M.S x x x x x x ",
"x x x x x x x x x x x x x x x x x x b K -.Q.Q.2.*.W 5.5.9.p.a.a.a.a.x.~.1X5X`.2.=.Y K N j x x x x x x x x x A A S x x x x x x x ",
"x x x x x x x x x x x x x x x x x x C v O.-.:.>.:.<.#.g.g.v.Y.Y.Y.Y.-X<X<X<XW.-.Y T v C x x x x x x c x x C.S.A z x x x x x x x ",
"x x x x x x x x x x x x x x x x x x x x v L Y ,.E.Q.Q.Q.!.2X0X0X0X0X0X8X{.E.-.Y K m x x x x x x x x M.c C.=X-XC.A x x x x x x x ",
"x x x x x x x x x x x x x x x x x x x x t.#.9 L _ =.;.E.!.`.<X<X<X<X`.~.2.-.Y T 0 B x x x x x x x z S S G.J.J.G.D x x x x x x x ",
"x x x x x x x x x x x x x x x x x x x x y.x.q # - L Y -.2.2.2.E.E.E.-.E E Y K 9 B H x x x x x x x x x A h G.G.Z j x x x x x x x ",
"x x x x x x x x x x x x x x x x x x x x t.H @   # < & - : : > U Y Y I L L K & , C l x x x x x x x x z x h j z h x x x x x x x x ",
"x x x x x x x x x x x x x x x x x x x x x h u o   < * 7 q q q R ....R 9 ; & * u h x x x x x x x x x x z j A x z x x x x x x x x ",
"x x x x x x x x x x x x x x x x x x x x x x h a X * B j.l.l.l.z.z.z.j.B 7 X a h x x x x x x x x x x x x x c z x x x x x x x x x ",
"x x x x x x x x x x x x x x x x x x x x x x x s X * q 0.l.l.l.l.l.l.0.q * X s x x x x x x x x x x x x x x x x x x x x x x x x x ",
"x x x x x x x x x x x x x x x x x x x x x x x s X     q 0.0.0.0.0.0.q     X s x x x x x x x x x x x x x x x x x x x x x x x x x ",
"x x x x x x x x x x x x x x x x x x x x x z f d 1 1 1 w r r r r r r w 1 1 1 d f z x x x x x x x x x x x x x x x x x x x x x x x ",
"x x x x x x x x x x x x x x x x x x x x x l 5 3 3 3 4 4 4 5 5 5 5 4 4 4 3 3 3 5 l x x x x x x x x x x x x x x x x x x x x x x x ",
"x x x x x x x x x x x x x x x x x x x x f d 7.7.4 4.8.8.w.r.d.d.r.w.8.8.4.4 7.7.d f x x x x x x x x x x x x x x x x x x x x x x ",
"x x x x x x x x x x x x x x x x x x x x d 4 8.8.4.8.i.i.s.P.U.U.P.s.i.i.w.4.8.8.4 d x x x x x x x x x x x x x x x x x x x x x x ",
"x x x x x x x x x x x x x x x x x x x x d 3 4 6.8.i.P.P.P.I.U.U.I.P.P.P.i.8.6.4 3 d x x x x x x x x x x x x x x x x x x x x x x ",
"x x x x x x x x x x x x x x x x x x Z %.$.N 0 e 7.r.d.b.m.m.m.m.m.m.b.d.r.7.e 0 N M %.Z x x x x x x x x x x x x x x x x x x x x ",
"x x x x x x x x x x x x x x x x x x V.B.B.| ) I w 4 5 w.u.u.u.u.u.u.w.5 4 w I ) | B.B.V.x x x x x x x x x x x x x x x x x x x x ",
"x x x x x x x x x x x x x x x x x x V.(.|.}.R.' 9 9 9 @.k.k.k.k.k.k.@.9 9 9 ' R.}.|.(.V.x x x x x x x x x x x x x x x x x x x x ",
"x x x x x x x x x x x x x x x x x x V.(..X@X|.} ` / / { (.(.(.(.(.(.{ / / ` } |.@XoX(.V.x x x x x x x x x x x x x x x x x x x x ",
"x x x x x x x x x x x x x x x x x x $.]  X&X$X[.` ` { ).oXoXoXoXoXoX).{ ` ` [.$X&X X] $.x x x x x x x x x x x x x x x x x x x x ",
"x x x x x x x x x x x x x x x x x x V / ].%X%XXX' [ ^. X@X&X%X%X&X@X X^.[ ' XX%X%X]./ V x x x x x x x x x x x x S x x x x x x x ",
"x x x x x x x x x x x x x x x x x x V / ].%X%XXX..O.^.).}.$X%X%X$X}.).^.O...XX%X%X]./ V x x x x x x x S S c x x S c x x x x x x ",
"x x x x x x x x x x x x x x x x x x N P '.9X9X1X@.X.3.3.A.3X6X6X3XA.3.3.X.@.1X9X9X'.P N x x x x x x x c M.S c x z A x x S x x x ",
"x x x x x x x x x x x x x x x x x x i $ &.Y.Y.F.Z.O.e q.h.L.T.T.L.h.q.e O.Z.F.Y.Y.&.$ i x x x x x x x x z A S G.G.D c c z x x x ",
"x x x x x x x x x x x S x x x x x x i   g.L.z.c.Z.1.X.#.k.K.,X,XK.k.#.X.1.Z.c.z.L.g.  i x x x x x x x S x z A H.;XD A S h x x x ",
"x x x x x x S S c x x S c x x x x x i   g.n.j.&.Z.^.^.^._.+X&X&X+X_.^.^.^.Z.&.j.L.g.  i x x x x x x x z D.F.D D &.x z z z x x x ",
"x x x x x x c M.S A x z A x G *XG.x g i b B q m [ } ^.|.oX@X%X%X@X.X|.^.} [ m q B b i g x x x x x x x D.J.J.F.Z D.F.Z z x x x x ",
"x x x x x x x z S S c j x c N.;XJ.G.x x u     $ ~ ] /. X&X&X&X#X#X#X X/.] ~ $     u x x x x x x x x x G =X>XS.F.J.4XD x x x x x ",
"x x x x x x S x z S A D :XD.D C.;X*Xx x k a y J ~ ) ] /.}.}.}.}.}.}./.] ) J $ o i k x x x x x x x x x z G G x >X>XC.x x x x x x ",
"x x x x x x z A x z N.K.H.J.D.Z G G x x x C y P ^ _ o.3.Z.1.1. .| 1.' ^ P P = u h x x x x x x x x x x x z z x G G z x x x x x x ",
"x x x x x x z z A h z S.>X=XG G =XD.x x x k , & 8 r w.r.h.B 0 = > 0 e 8 * & i k z x x x x x x x x x x x x x x z z x x x x x x x ",
"x x x x x x x x x z z x G G G =XH.J.D.x x k @ O 4 w.s.s.i.w.3 . . 6 4 4.1 X u s z x x x x x x x x x x x x x x x x x x x x x x x ",
"x x x x x x x D *XF.x x G :XF.S.>XF.D x x k @ 1 8.s.I.I.P.i.7.O . 6 7.e.8     @ h x x x x x x x x x x x x x x x x x x x x x x x ",
"x x x x x x x A H.;Xx G =XJ.:XZ G D x x s u = > +.h.b.P.I.s.8.O 1 6.8.u.e % # X u s x x x x x x x x x x x x x x x x x x x x x x ",
"x x x x x x x x Z Z x N.4X=XD x z z x j + $ J / / +.r.b.P.s.7.O 8 e.u.r.+.~ $     + z x x x x x x x x x x x x x x x x x x x x x ",
"x x x x x x x x x z x x D D x x x x s + = J ] ] / _ +.@.&.@...P I ..+.+.3.] ^ %   + z x x x x x x x x x x x x x x x x x x x x x ",
"x x x x x x x x x x x x x x x x x x i   % ` } /.] ] ` ` ` ` ) / / ) ` ` { } ) : & u x x x x x x x x x x x x x x x x x x x x x x ",
"x x x x x x x x x x x x x x x x x x i   % ` } ). XOXOXOX X_.{ ` ` } } } ] ) % = a k x x x x x x x x x x x x x x x x x x x x x x ",
"x x x x x x x x x x x x x x x x x x s @ : ^ ] (.oX@X%X%X#X}.} ( ( ] ] ] ( P = p j x x S M.c x x x x x x x x x x x x x x x x x x ",
"x x x x x x x x x x x x x x x x x x j k + $ ^ ] (..X%X%X#X}.| : $ $ $ $ $ & a Z x x c M.c x x x x x x x x x x x x x x x x x x x ",
"x x x x x x x x x x x x x x x x x x x x a + : ^ )  ._._._. .( $ X @ + + + u g h z c S S x x x x x x x x x x x x x x x x x x x x ",
"x x x x x x x x x x x x x x x x x x x x x k @                   @ h z z z x x x x c S z z x x x x x x x x x x x x x x x x x x x ",
"x x x x x x x x x x x x x x x x x x x x x j s i i i i i i i i i s z x x x x x x x z h z x x x x x x x x x x x x x x x x x x x x ",
"x x x x x x x x x x x x x x x x x x x x x x x x x x x x x x x x x x x x x x x x x x x x x x x x x x x x x x x x x x x x x x x x ",
"x x x x x x x x x x x x x x x x x x x x x x x x x x x x x x x x x x x x x x x x x x x x x x x x x x x x x x x x x x x x x x x x ",
"x x x x x x x x x x x x x x x x x x x x x x x x x x x x x x x x x x x x x x x x x x x x x x x x x x x x x x x x x x x x x x x x "
};
