/* XPM */
static const char *V2FsbF9VcA__[] = {
/* columns rows colors chars-per-pixel */
"64 64 179 2 ",
"   c black",
".  c #4F2913",
"X  c #4F2914",
"o  c #502B15",
"O  c #502B16",
"+  c #512D19",
"@  c #512E1A",
"#  c #522E1A",
"$  c #522F1A",
"%  c #522F1B",
"&  c #4F311E",
"*  c #52311D",
"=  c #53311D",
"-  c #52311E",
";  c #53311E",
":  c #53311F",
">  c #53321E",
",  c #53321F",
"<  c #56331E",
"1  c #4F3422",
"2  c #4F3625",
"3  c #533220",
"4  c #533320",
"5  c #543320",
"6  c #543321",
"7  c #533422",
"8  c #543421",
"9  c #543422",
"0  c #543523",
"q  c #553622",
"w  c #543725",
"e  c #553726",
"r  c #583622",
"t  c #553826",
"y  c #553827",
"u  c #563827",
"i  c #533B2B",
"p  c #553928",
"a  c #563928",
"s  c #563929",
"d  c #563A2A",
"f  c #563B2A",
"g  c #573C2A",
"h  c #563C2B",
"j  c #573C2B",
"k  c #573C2D",
"l  c #573D2D",
"z  c #563E2D",
"x  c #573E2D",
"c  c #573D2E",
"v  c #573E2E",
"b  c #583B28",
"n  c #583F2F",
"m  c #583E30",
"M  c #583F30",
"N  c #6A7019",
"B  c #6F741C",
"V  c #72751B",
"C  c #73761C",
"Z  c #73761D",
"A  c #74771C",
"S  c #74771D",
"D  c #74781E",
"F  c #75781E",
"G  c #777A1F",
"H  c #5F402B",
"J  c #5A402E",
"K  c #584030",
"L  c #584031",
"P  c #594031",
"I  c #5B4231",
"U  c #584233",
"Y  c #594233",
"T  c #594234",
"R  c #594235",
"E  c #594436",
"W  c #5A4436",
"Q  c #5B4536",
"!  c #5A4537",
"~  c #5B4538",
"^  c #5A4739",
"/  c #5B483B",
"(  c #5B483C",
")  c #5C4A3E",
"_  c #5C4B3E",
"`  c #5C4C3F",
"'  c #5D4C3F",
"]  c #604532",
"[  c #604633",
"{  c #604734",
"}  c #777A21",
"|  c #787B20",
" . c #7A7D21",
".. c #7B7E23",
"X. c #5D4C40",
"o. c #5D4C41",
"O. c #5D4D41",
"+. c #5D4E42",
"@. c #5E4E43",
"#. c #5F4E43",
"$. c #5E4F43",
"%. c #5E4F44",
"&. c #5E4F45",
"*. c #5E5044",
"=. c #5E5145",
"-. c #5C5147",
";. c #5E5147",
":. c #5C5247",
">. c #5D5247",
",. c #5E5247",
"<. c #5E5048",
"1. c #5F5148",
"2. c #5D5248",
"3. c #5F5248",
"4. c #5F5349",
"5. c #5F524A",
"6. c #5F544A",
"7. c #665140",
"8. c #655444",
"9. c #665444",
"0. c #60554C",
"q. c #60554D",
"w. c #60564D",
"e. c #63574D",
"r. c #60564E",
"t. c #64574D",
"y. c #61584F",
"u. c #61594F",
"i. c #63584E",
"p. c #62594F",
"a. c #64584F",
"s. c #615851",
"d. c #645950",
"f. c #655A52",
"g. c #655D56",
"h. c #655E57",
"j. c #675F57",
"k. c #665F58",
"l. c #666057",
"z. c #676159",
"x. c #676259",
"c. c #68635A",
"v. c #68635B",
"b. c #69635B",
"n. c #69645B",
"m. c #6A645C",
"M. c #6A655C",
"N. c #6A655D",
"B. c #6B655D",
"V. c #6A665C",
"C. c #6B665D",
"Z. c #6B675D",
"A. c #6C665E",
"S. c #6C675E",
"D. c #6C685E",
"F. c #6D685F",
"G. c #6D695F",
"H. c #6D6861",
"J. c #716C64",
"K. c #716C65",
"L. c #726D65",
"P. c #726E66",
"I. c #736E66",
"U. c #736E67",
"Y. c #736E68",
"T. c #736F68",
"R. c #736F69",
"E. c #747069",
"W. c #75716B",
"Q. c #767469",
"!. c #7E8125",
"~. c #85837A",
"^. c #868579",
"/. c #87867A",
"(. c #918F88",
"). c #929088",
"_. c #94928B",
"`. c #99978F",
"'. c None",
/* pixels */
"                                                                                                                                ",
"                                                                                                                                ",
"                                                                                                                                ",
"                                                                                                                                ",
"                                                                                                                                ",
"] ] ] ] ] ] ] ] ] ] ] ] ] ] ] ] '.] ] ] ] ] ] ] ] ] ] ] ] ] ] ] ] ] ] ] ] ] ] ] ] ] ] ] ] ] ] ] '.] ] ] ] ] ] ] ] ] ] ] ] ] ] ] ",
"^.^.^.^.^.^.^.^.^.^.^.^.^.^.^.^.{ ^.^.^.^.^.^.^.^.^.^.^.^.^.^.^.^.^.^.^.^.^.^.^.^.^.^.^.^.^.^.^.{ ^.^.^.^.^.^.^.^.^.^.^.^.^.^.^.",
"^.^.^.^.^.^.^.^.^.^.^.^.^.^.^.^.7.^.^.^.^.^.^.^.^.^.^.^.^.^.^.^.^.^.^.^.^.^.^.^.^.^.^.^.^.^.^.^.7.^.^.^.^.^.^.^.^.^.^.^.^.^.^.^.",
"(.(.(.(.(.(.(.(.(.(.(.)._.`.`.`.9._.`.`.`._._._._._._._._._._._.(.(.(.(.(.(.(.(.(.(.(.)._.`.`.`.9._.`.`.`._._._._._._._._._._._.",
"G.G.G.G.G.G.G.G.G.G.G.G.G.G.G.G.I G.G.G.G.G.G.G.G.G.S.G.G.G.G.G.G.G.G.G.G.G.G.G.G.G.G.G.G.G.G.G.I G.G.G.G.G.G.G.G.G.S.G.G.G.G.G.",
"G.G.G.G.G.G.G.G.G.G.G.G.G.G.S.S.I G.G.G.S.S.G.G.G.S.S.S.S.S.S.S.G.G.G.G.G.G.G.G.G.G.G.G.G.G.S.S.I G.G.G.S.S.G.G.G.S.S.S.S.S.S.S.",
"G.G.G.G.G.G.G.G.G.G.G.S.S.S.S.S.I S.S.S.S.S.C.C.S.S.S.S.S.S.C.C.G.G.G.G.G.G.G.G.G.G.G.S.S.S.S.S.I S.S.S.S.S.C.C.S.S.S.S.S.S.C.C.",
"S.S.S.S.S.S.S.S.S.S.S.C.C.C.C.C.I C.C.C.C.C.C.C.C.C.C.C.C.C.C.C.S.S.S.S.S.S.S.S.S.S.S.C.C.C.C.C.I C.C.C.C.C.C.C.C.C.C.C.C.C.C.C.",
"C.C.C.C.C.C.C.C.C.C.C.C.C.C.C.C.J C.C.C.C.C.C.C.C.C.C.C.C.C.C.C.C.C.C.C.C.C.C.C.C.C.C.C.C.C.C.C.J C.C.C.C.C.C.C.C.C.C.C.C.C.C.C.",
"C.C.C.C.C.C.C.C.C.C.C.C.C.C.C.C.q C.C.n.n.n.n.n.n.n.n.n.n.n.n.n.C.C.C.C.C.C.C.C.C.C.C.C.C.C.C.C.q C.C.n.n.n.n.n.n.n.n.n.n.n.n.n.",
"n.n.C.n.n.n.n.n.n.n.n.n.n.n.n.n.> b.b.b.b.b.b.n.n.n.n.n.n.n.n.n.n.n.C.n.n.n.n.n.n.n.n.n.n.n.n.n.> b.b.b.b.b.b.n.n.n.n.n.n.n.n.n.",
"b.b.b.b.b.b.b.b.b.b.b.b.b.b.b.b.> b.b.b.b.b.b.b.b.b.b.b.b.b.b.b.b.b.b.b.b.b.b.b.b.b.b.b.b.b.b.b.> b.b.b.b.b.b.b.b.b.b.b.b.b.b.b.",
"z.z.z.z.z.z.z.z.z.z.z.z.z.z.z.z.> z.z.z.z.z.z.z.z.z.z.z.z.z.z.z.z.z.z.z.z.z.z.z.z.z.z.z.z.z.z.z.> z.z.z.z.z.z.z.z.z.z.z.z.z.z.z.",
"z.z.z.z.z.z.z.z.z.z.z.z.z.z.z.z.O z.z.z.z.z.z.z.z.z.z.z.z.z.z.z.z.z.z.z.z.z.z.z.z.z.z.z.z.z.z.z.O z.z.z.z.z.z.z.z.z.z.z.z.z.z.z.",
"O O O O O O O O O O O O O O O O :.O O O O O O X O O O O O O O O O O O O O O O O O O O O O O O O :.O O O O O O X O O O O O O O O ",
":.:.:.:.:.:.:.:.:.:.:.:.:.:.:.:.:.:.:.:.:.:.:.& :.:.:.:.:.:.:.2.:.:.:.:.:.:.:.:.:.:.:.:.:.:.:.:.:.:.:.:.:.:.:.& :.:.:.:.:.:.:.2.",
":.:.:.:.:.:.:.:.:.:.:.:.:.:.:.:.:.:.:.:.:.:.:.1 :.:.:.:.:.:.:.2.:.:.:.:.:.:.:.:.:.:.:.:.:.:.:.:.:.:.:.:.:.:.:.1 :.:.:.:.:.:.:.2.",
":.:.:.:.:.:.:.:.:.:.:.:.:.:.:.:.:.:.:.:.:.:.:.2 :.:.:.:.:.:.:.2.:.:.:.:.:.:.:.:.:.:.:.:.:.:.:.:.:.:.:.:.:.:.:.2 :.:.:.:.:.:.:.2.",
":.:.:.:.:.:.:.:.:.:.:.:.:.:.:.:.:.:.:.:.:.:.:.2 :.:.:.:.:.:.:.2.:.:.:.:.:.:.:.:.:.:.:.:.:.:.:.:.:.:.:.:.:.:.:.2 :.:.:.:.:.:.:.2.",
"y.y.y.y.y.y.y.y.y.y.y.y.y.y.y.y.y.y.y.y.y.y.y.i y.y.y.y.y.y.y.y.y.y.y.y.y.y.y.y.y.y.y.y.y.y.y.y.y.y.y.y.y.y.y.i y.y.y.y.y.y.y.y.",
"z.z.z.z.z.z.z.z.z.z.z.z.z.z.z.z.z.z.z.z.z.z.z.a z.z.z.z.z.z.z.z.z.z.z.z.z.z.z.z.z.z.z.z.z.z.z.z.z.z.z.z.z.z.z.a z.z.z.z.z.z.z.z.",
":.:.:.:.:.O.O.O.:.:.:.6.6.6.6.6.6.6.6.I I x j u a I 6.6.6.6.6.6.:.:.:.:.:.O.O.O.:.:.:.2.2.2.2.2.2.2.2.I I x j u a I 2.2.2.2.2.2.",
"C.C.C.C.C.C.O.t.T.T.T.T.T.T.T.T.T.L.L.L.L.L.L.L.L.L.L.L.L.L.L.L.L.L.T.T.L.L.O.C.C.C.C.C.C.C.C.C.C.C.C.C.C.C.C.C.C.C.C.C.C.C.C.C.",
"z.z.z.z.z.z.O.E.H.H.H.H.H.H.H.H.H.H.H.H.H.H.H.H.H.H.H.H.H.H.H.H.H.H.H.H.H.H.O.z.z.z.z.z.z.z.z.z.z.z.z.z.z.z.z.z.z.z.z.z.z.z.z.z.",
"z.z.z.z.z.z.O.E.H.H.H.H.H.H.H.H.H.H.H.H.H.H.H.H.H.H.H.H.H.H.H.H.H.H.H.H.H.H.O.z.z.z.z.z.z.z.z.z.z.z.z.z.z.z.z.z.z.z.z.z.z.z.z.z.",
"z.z.z.z.z.z.O.E.H.H.H.H.H.H.H.H.H.H.H.H.H.H.H.H.H.H.H.H.H.H.H.H.H.H.H.H.H.H.O.z.z.z.z.z.z.z.z.z.z.z.z.z.z.z.z.z.z.z.z.z.z.z.z.z.",
"z.z.z.z.z.z./ E.H.H.H.H.H.H.H.H.H.H.H.H.H.H.H.H.H.H.H.H.H.H.H.H.H.H.H.H.H.H.I z.z.z.z.z.z.z.z.z.z.z.z.z.z.z.z.z.z.z.z.z.z.z.z.z.",
"z.z.z.z.z.z.w T.H.H.H.H.H.H.H.H.H.H.H.H.H.H.H.H.H.H.H.H.H.H.H.H.H.H.H.H.H.H.4 z.z.z.z.z.z.z.z.z.z.z.z.z.z.z.z.z.z.z.z.z.z.z.z.z.",
"( ( ( x x w + + + > q u u Q Q Q Q Q Q Q Q Q n > q q q q 5 5 > > > > + + + + ^ 4 7 7 7 7 7 7 q u a x x x x x x x x x / 2.2.2.2.2.",
"b.b.b.b.b.b.h.f.f.f.f.f.f.a.a.a.y.y.y.y.y.y.e.x O.O.%.%.%.%.%.%.%.%.%.%.%.%.%.%.%.%.%.%.%.%.%.%.%.%.%.%.%.O.O.x C.C.C.C.C.C.C.C.",
"k.k.k.k.k.k.k.k.k.k.k.k.k.k.k.k.k.k.k.k.k.k.k.x 2.2.s.s.s.s.s.s.s.s.s.s.s.s.s.s.s.s.s.s.s.s.s.s.s.s.s.s.s.2.O.M k.k.k.k.k.k.k.k.",
"k.k.k.k.k.k.k.k.k.k.k.k.k.k.k.k.k.k.k.k.k.k.k.O.s.s.s.s.s.s.s.s.s.s.s.s.s.s.s.s.s.s.s.s.s.s.s.s.s.s.s.s.s.s.e.T h.k.k.k.k.k.k.k.",
"k.k.k.k.k.k.k.k.k.k.k.k.k.k.k.k.k.k.k.k.k.k.k.%.s.s.s.s.s.s.s.s.s.s.s.s.s.s.s.s.s.s.s.s.s.s.s.s.s.s.s.s.s.s.s.T h.k.k.k.k.k.k.k.",
"k.k.k.k.k.k.k.k.k.k.k.k.k.k.k.k.k.k.k.k.k.k.k.Q s.s.s.s.s.s.s.s.s.s.s.s.s.s.s.s.s.s.s.s.s.s.s.s.s.s.s.s.s.s.s.M k.k.k.k.k.k.k.k.",
"k.k.k.h.k.k.k.k.k.k.k.k.k.k.k.k.k.k.k.k.k.k.k.4 s.s.s.s.s.s.s.s.s.s.s.s.s.s.s.s.s.s.s.s.s.s.s.s.s.s.s.s.s.s.s.> k.k.k.k.k.k.k.k.",
"6.6.6.' O._ O.O.:.:.:.:.:.%.O.O.O.O.O.O.u u u + a a a j I ^ ' ' ' ' ' ' ' e.e.e.e.n n n n n n n n I a a a 4 > + u u O.O.O.O.O.O.",
"C.C.C.C.C.C._ C.C.C.C.C.C.C.C.C.C.C.C.C.C.C.C.C.C.C.C.C.C.C.C.C.C.C.C.C.C.%.2.2.Q C.C.C.C.C.C.C.C.C.C.C.C.C.C.C.C.C.C.C.C.C.C.C.",
"k.k.k.k.k.k._ k.k.k.k.k.k.k.k.k.k.k.k.k.k.k.k.k.k.k.k.k.k.k.k.k.k.k.k.k.k.k.x O.k.k.k.k.k.k.k.k.k.k.k.k.k.k.k.k.k.k.k.k.k.k.k.k.",
"k.k.k.k.k.k.:.k.k.k.k.k.k.k.k.k.k.k.k.k.k.k.k.k.k.k.k.k.k.k.k.k.k.k.k.k.k.k.Q k.k.k.k.k.k.k.k.k.k.k.k.k.k.k.k.k.k.k.k.k.k.k.k.k.",
"k.k.k.k.k.k.2.k.k.k.k.k.k.k.k.k.k.k.k.k.k.k.k.k.k.k.k.k.k.k.k.k.k.k.k.k.k.k.Q k.k.k.k.k.k.k.k.k.k.k.k.k.k.k.k.k.k.k.k.k.k.k.k.k.",
"k.k.k.k.k.k.I k.k.k.k.k.k.k.k.k.k.k.k.k.k.k.k.k.k.k.k.k.k.k.k.k.k.k.k.k.k.k.T k.k.k.k.k.k.k.k.k.k.k.k.k.k.k.k.k.k.k.k.k.k.k.k.k.",
"k.k.k.k.k.k.x k.k.k.k.k.k.k.k.k.k.k.k.k.k.k.k.k.k.k.k.k.k.k.k.k.k.k.k.k.k.k.x k.k.k.k.k.k.k.k.k.k.k.k.k.k.k.k.k.k.k.k.k.k.k.k.k.",
"r r r r r r < r r r r r r r r r k.r r r r r r r r r r r r r r r r r r r r r < r r r r r r r r r k.r r r r r r r r r r r r r r r ",
"Q.Q.Q.Q.Q.Q.Q.Q.Q.Q.Q.Q.Q.Q.Q.Q.H Q.Q.Q.Q.Q.Q.Q.Q.Q.Q.Q.Q.Q.Q.Q.Q.Q.Q.Q.Q.Q.Q.Q.Q.Q.Q.Q.Q.Q.Q.Q.H Q.Q.Q.Q.Q.Q.Q.Q.Q.Q.Q.Q.Q.Q.Q.",
"Q.Q.Q.Q.Q.Q.Q.Q.Q.Q.Q.Q.Q.Q.Q.Q.9.Q.Q.Q.Q.Q.Q.Q.Q.Q.Q.Q.Q.Q.Q.Q.Q.Q.Q.Q.Q.Q.Q.Q.Q.Q.Q.Q.Q.Q.Q.Q.9.Q.Q.Q.Q.Q.Q.Q.Q.Q.Q.Q.Q.Q.Q.Q.",
"Q.Q.Q.Q.Q.Q.Q.Q.Q.Q.Q.Q.Q.Q.Q.Q.9.Q.Q.Q.Q.Q.Q.Q.Q.Q.Q.Q.Q.Q.Q.Q.Q.Q.Q.Q.Q.Q.Q.Q.Q.Q.Q.Q.Q.Q.Q.Q.9.Q.Q.Q.Q.Q.Q.Q.Q.Q.Q.Q.Q.Q.Q.Q.",
"~.~.~.~.~.~.~.~.~.~.~.~.~.~.~.~.9.~.~.~.~.~.~.~.~.~.~.~.~.~.~.~.~.~.~.~.~.~.~.~.~.~.~.~.~.~.~.~.9.~.~.~.~.~.~.~.~.~.~.~.~.~.~.~.",
"l.l.l.l.l.l.l.l.l.l.l.l.l.l.l.l.9.l.l.l.l.l.l.l.l.l.l.l.l.l.l.l.l.l.l.l.l.l.l.l.l.l.l.l.l.l.l.l.9.l.l.l.l.l.l.l.l.l.l.l.l.l.l.l.",
"l.l.l.l.l.l.l.l.l.l.l.l.l.l.l.l.b l.l.l.l.l.l.l.l.l.l.l.l.l.l.l.l.l.l.l.l.l.l.l.l.l.l.l.l.l.l.l.b l.l.l.l.l.l.l.l.l.l.l.l.l.l.l.",
"> > > > > > > > > > > > > > > > . > > > > > > > > > > > > > > > > > > > > > > > > > > > > > > > . > > > > > > > > > > > > > > > ",
". . . . . . . . . . . . . . . . . . . . . . . . . . . . . . . . . . . . . . . . . . . . . . . . . . . . . . . . . . . . . . . . ",
"V V V V V V V V V V V V V V V V V V V V V V V V V V V V V V V V V V V V V V V V V V V V V V V V V V V V V V V V V V V V V V V V ",
"V V V V V V V V V V V V V V V V V V V V V V V V V V V V V V V V V V V V V V V V V V V V V V V V V V V V V V V V V V V V V V V V ",
"V V V V V V V V V V V V V V V V V V V V V V V V V V V V V V V V V V V V V V V V V V V V V V V V V V V V V V V V V V V V V V V V ",
"V V V V V V V V V V V V V V V V V V V V V V V V V V V V V V V V V V V V V V V V V V V V V V V V V V V V V V V V V V V V V V V V ",
"V V V V V V V V V V V V V V V V V V V V V V V V V V V V V V V V V V V V V V V C V V V V V V V V V V V V V V V V V V V V V V V V ",
"V V V V V V V V V V V V V V V V V V V V V V V V V V V V V V V V V V V V V V V ..F V V V V V V V V V V V V V V V V V V V V V V V ",
"V V V V V V V V V V V V V V V V V V V V V V V V V V V V V V V V V V V C A C V F } A V V V V V V V V V V V V V V V V V V V V V V ",
"V V V V V V V V V V V V V V V V V V V V V V V V V V V V V V V V V V V | !...F N B C C A C V V V V V V V V V V V V V V V V V V V "
};
