/* XPM */
static const char *V2FsbF9kb3du[] = {
/* columns rows colors chars-per-pixel */
"64 64 173 2 ",
"   c #72751B",
".  c #73761C",
"X  c #7A7D21",
"o  c #777A1F",
"O  c #74771C",
"+  c #74781E",
"@  c #777A21",
"#  c #74771D",
"$  c #787B20",
"%  c #7E8125",
"&  c #7B7E23",
"*  c #75781E",
"=  c #6A7019",
"-  c #6F741C",
";  c #73761D",
":  c #777B20",
">  c #797D22",
",  c #787B21",
"<  c #6D731B",
"1  c #666C17",
"2  c #6E721A",
"3  c #7A7D22",
"4  c #7F8226",
"5  c #6D721A",
"6  c #70741D",
"7  c #777A20",
"8  c #6C711A",
"9  c #72771E",
"0  c #767A1F",
"q  c #797C22",
"w  c #6E731C",
"e  c #72751C",
"r  c #75781F",
"t  c #767920",
"y  c #757821",
"u  c #7F8137",
"i  c #7B7E30",
"p  c #6C7119",
"a  c #6F731C",
"s  c #767A20",
"d  c #666D17",
"f  c #74781F",
"g  c #6F731A",
"h  c #8B8A4E",
"j  c #AFA696",
"k  c #A39D7E",
"l  c #7C7E31",
"z  c #686E18",
"x  c #7C7E32",
"c  c #A29B80",
"v  c #A68C63",
"b  c #A5916D",
"n  c #94946A",
"m  c #70731A",
"M  c #747731",
"N  c #A09F86",
"B  c #919269",
"V  c #6A6E19",
"C  c #6E741C",
"Z  c #6E731A",
"A  c #676C18",
"S  c #7C7F23",
"D  c #787C22",
"F  c #76791E",
"G  c #7D8240",
"H  c #82884B",
"J  c #747924",
"K  c #71741B",
"L  c #72761D",
"P  c #7C8024",
"I  c #76791F",
"U  c #7D8342",
"Y  c #999884",
"T  c #9E9B8F",
"R  c #7C8351",
"E  c #767A23",
"W  c #6B7019",
"Q  c #868F6B",
"!  c #9C8F71",
"~  c #A08E6F",
"^  c #8C9279",
"/  c #787D2B",
"(  c #72761C",
")  c #71761D",
"_  c #676D19",
"`  c #828B68",
"'  c #889278",
"]  c #686F24",
"[  c #696F18",
"{  c #70741C",
"}  c #676E18",
"|  c #6A6F1A",
" . c #6B701B",
".. c #70741B",
"X. c #5A3B27",
"o. c #868579",
"O. c #88877B",
"+. c #5E4532",
"@. c #624937",
"#. c #675544",
"$. c #918F88",
"%. c #929088",
"&. c #94928B",
"*. c #99978F",
"=. c #665444",
"-. c #6D695F",
";. c #6D685F",
":. c #5B4231",
">. c #6C685E",
",. c #6C675E",
"<. c #6B675D",
"1. c #6C665E",
"2. c #6B665D",
"3. c #6B655D",
"4. c #6A655C",
"5. c #6A665C",
"6. c #593D2A",
"7. c #6A645C",
"8. c #53321E",
"9. c #69645B",
"0. c #69635B",
"q. c #68635A",
"w. c #676259",
"e. c #68625A",
"r. c #676159",
"t. c #4F2913",
"y. c #5C5247",
"u. c #5A5046",
"i. c #4F311E",
"p. c #5C5147",
"a. c #5D5247",
"s. c #5D5248",
"d. c #4F3625",
"f. c #584132",
"g. c #615851",
"h. c #543624",
"j. c #5E5146",
"k. c #5D4D41",
"l. c #5F5349",
"z. c #563D2C",
"x. c #563B2A",
"c. c #553726",
"v. c #553827",
"b. c #594133",
"n. c #5A4336",
"m. c #5A4335",
"M. c #5A4436",
"N. c #5A4437",
"B. c #5B4639",
"V. c #583F30",
"C. c #6C675F",
"Z. c #6D6860",
"A. c #6F6B62",
"S. c #706C63",
"D. c #706B62",
"F. c #6F6A62",
"G. c #706B63",
"H. c #6D6960",
"J. c #6E6A61",
"K. c #573F30",
"L. c #5B483B",
"P. c #573C2D",
"I. c #543523",
"U. c #5A4739",
"Y. c #5B493C",
"T. c #5D4D42",
"R. c #5B473A",
"E. c #69645C",
"W. c #6C685F",
"Q. c #5C4B40",
"!. c #665F58",
"~. c #5C4B3F",
"^. c #5C493D",
/* pixels */
"                                                                                                                                ",
"                                                                                                                                ",
"                                                                                                                                ",
"                                                                                                                                ",
"                                                                                                                                ",
"                                                                              .                                                 ",
"                                                                              X o                                               ",
"                                                                      . O .   + @ #                                             ",
"                                                                      $ % & * = - ; . O .                                       ",
"                                                                    . . : > , < 1 2 3 4 3 .                                     ",
"                                                                  * & $ 5 6 7 # 8 9 , & *                                       ",
"                                                                    0 q , w - e r , t .                                         ",
"                            y u i                                   p a s # p d - f 8 g                                         ",
"                          y h j k l                                   p - ; . 5 z z g                                           ",
"                          x c v b n                                     p 2 o s .                                               ",
"                          m M N B V                                         0 C Z                                               ",
"                            g A V                                           p 2                               . * *             ",
"                                                                                                            . 7 % S .           ",
"                                                                                                            7 , D .             ",
"                                                                                                  . F .   G H J = K             ",
"                                                                                                  L P I U Y T R E               ",
"                                                                                                  W q q Q ! ~ ^ / (             ",
"                                                                                                    ) 7 _ ` ' ] [ K             ",
"                                                                                                    p { } |  .1 ..              ",
"X.X.X.X.X.X.X.X.X.X.X.X.X.X.X.X.  X.X.X.X.X.X.X.X.X.X.X.X.X.X.X.X.X.X.X.X.X.X.X.X.X.X.X.X.X.X.X.  X.X.X.X.X.X.X.X.X.X.X.X.X.X.X.",
"o.o.o.o.o.o.o.o.o.o.o.o.o.o.O.o.+.o.o.o.o.o.o.o.o.o.o.o.o.o.o.o.o.o.o.o.o.o.o.o.o.o.o.o.o.o.O.o.+.o.o.o.o.o.o.o.o.o.o.o.o.o.o.o.",
"o.o.o.o.o.o.o.o.o.o.o.o.o.o.o.o.@.o.o.o.o.o.o.o.o.o.o.o.o.o.o.o.o.o.o.o.o.o.o.o.o.o.o.o.o.o.o.o.@.o.o.o.o.o.o.o.o.o.o.o.o.o.o.o.",
"o.o.o.o.o.o.o.o.o.o.o.o.o.o.o.o.#.o.o.o.o.o.o.o.o.o.o.o.o.o.o.o.o.o.o.o.o.o.o.o.o.o.o.o.o.o.o.o.#.o.o.o.o.o.o.o.o.o.o.o.o.o.o.o.",
"$.$.$.$.$.$.$.$.$.$.$.%.&.*.*.*.=.&.*.*.*.&.&.&.&.&.&.&.&.&.&.&.$.$.$.$.$.$.$.$.$.$.$.%.&.*.*.*.=.&.*.*.*.&.&.&.&.&.&.&.&.&.&.&.",
"-.-.-.;.;.;.;.;.;.;.-.-.-.-.-.;.:.;.;.;.>.;.;.;.;.;.,.>.>.>.>.>.-.-.-.;.;.;.;.;.;.;.-.-.-.-.-.;.:.;.;.;.>.;.;.;.;.;.,.>.>.>.>.>.",
";.;.;.;.;.;.;.;.;.;.;.;.;.-.;.;.:.;.;.>.>.>.;.;.;.>.,.,.,.,.,.,.;.;.;.;.;.;.;.;.;.;.;.;.;.-.;.;.:.;.;.>.>.>.;.;.;.>.,.,.,.,.,.,.",
";.;.;.;.;.;.;.;.>.>.>.>.>.>.,.,.:.;.>.>.,.,.>.>.>.,.,.,.,.,.,.,.;.;.;.;.;.;.;.;.>.>.>.>.>.>.,.,.:.;.>.>.,.,.>.>.>.,.,.,.,.,.,.,.",
";.>.>.>.>.>.>.>.>.>.>.,.,.,.,.,.:.,.,.,.,.,.<.<.,.,.,.,.,.1.2.2.;.>.>.>.>.>.>.>.>.>.>.,.,.,.,.,.:.,.,.,.,.,.<.<.,.,.,.,.,.1.2.2.",
",.,.,.,.,.,.,.,.,.,.,.<.<.<.<.<.:.2.2.2.2.2.2.2.2.2.2.2.2.2.2.2.,.,.,.,.,.,.,.,.,.,.,.<.<.<.<.<.:.2.2.2.2.2.2.2.2.2.2.2.2.2.2.2.",
"<.2.2.2.2.2.2.2.2.2.2.2.2.2.2.2.:.2.2.2.2.2.3.3.4.4.4.4.5.5.5.5.<.2.2.2.2.2.2.2.2.2.2.2.2.2.2.2.:.2.2.2.2.2.3.3.4.4.4.4.5.5.5.5.",
"4.4.4.4.4.4.4.4.4.4.4.4.3.3.3.3.6.3.3.4.7.7.7.7.7.7.7.7.4.4.4.4.4.4.4.4.4.4.4.4.4.4.4.4.3.3.3.3.6.3.3.4.7.7.7.7.7.7.7.7.4.4.4.4.",
"4.4.4.4.4.4.4.4.4.4.4.4.4.4.7.4.8.9.9.9.9.9.9.9.9.9.9.9.9.9.9.9.4.4.4.4.4.4.4.4.4.4.4.4.4.4.7.4.8.9.9.9.9.9.9.9.9.9.9.9.9.9.9.9.",
"9.9.7.9.9.9.9.9.9.9.9.9.9.9.9.9.8.0.0.0.0.0.0.9.9.9.9.9.9.9.9.9.9.9.7.9.9.9.9.9.9.9.9.9.9.9.9.9.8.0.0.0.0.0.0.9.9.9.9.9.9.9.9.9.",
"0.0.0.0.0.0.0.0.0.0.0.0.0.0.q.q.8.q.q.q.q.q.q.q.q.q.q.q.q.q.0.0.0.0.0.0.0.0.0.0.0.0.0.0.0.0.q.q.8.q.q.q.q.q.q.q.q.q.q.q.q.q.0.0.",
"w.w.w.w.w.w.w.e.w.e.e.e.q.q.q.e.8.e.e.e.e.e.e.e.e.e.q.q.e.q.q.q.w.w.w.w.w.w.w.e.w.e.e.e.q.q.q.e.8.e.e.e.e.e.e.e.e.e.q.q.e.q.q.q.",
"r.r.r.r.r.r.r.r.r.r.r.r.r.r.r.r.8.r.r.r.r.r.r.r.r.r.r.r.r.r.r.r.r.r.r.r.r.r.r.r.r.r.r.r.r.r.r.r.8.r.r.r.r.r.r.r.r.r.r.r.r.r.r.r.",
"r.r.r.r.r.r.r.r.r.r.r.r.r.r.r.r.t.r.r.r.r.r.r.r.r.r.r.r.r.r.r.r.r.r.r.r.r.r.r.r.r.r.r.r.r.r.r.r.t.r.r.r.r.r.r.r.r.r.r.r.r.r.r.r.",
"t.t.t.t.t.t.t.t.t.t.t.t.t.t.t.t.y.t.t.t.t.t.t.t.t.t.t.t.t.t.t.t.t.t.t.t.t.t.t.t.t.t.t.t.t.t.t.t.u.t.t.t.t.t.t.t.t.t.t.t.t.t.t.t.",
"y.y.y.y.y.y.y.y.y.y.y.y.y.y.y.y.y.y.y.y.y.y.y.i.u.u.u.u.u.u.u.u.u.u.u.u.u.u.u.u.u.u.u.u.u.u.u.u.u.u.u.u.u.u.u.i.p.p.y.a.a.a.a.s.",
"y.y.y.y.y.y.y.y.y.y.y.y.y.y.y.y.y.y.y.y.y.y.y.i.u.u.u.u.u.u.u.u.u.u.u.u.u.u.u.u.u.u.u.u.u.u.u.u.u.u.u.u.u.u.u.i.y.y.a.a.a.a.a.s.",
"y.y.y.y.y.y.y.y.y.y.y.y.y.y.y.y.y.y.y.y.y.y.y.d.u.u.u.u.u.u.u.u.u.u.u.u.u.u.u.u.u.u.u.u.u.u.u.u.u.u.u.u.u.u.u.d.y.y.a.a.a.a.a.s.",
"y.y.y.y.y.y.y.y.y.y.y.y.y.y.y.y.y.y.y.y.y.y.y.d.u.u.u.u.u.u.u.u.u.u.u.u.u.u.u.u.u.u.u.u.u.u.u.u.u.u.u.u.u.u.u.d.y.y.y.a.a.a.a.s.",
"y.y.y.y.y.y.y.y.y.y.y.y.y.y.y.y.y.y.y.y.y.y.y.d.u.u.u.u.u.u.u.u.u.u.u.u.u.u.u.u.u.u.u.u.u.u.u.u.u.u.u.u.u.u.u.d.y.y.y.a.a.a.a.s.",
"y.y.y.y.y.y.y.y.y.y.y.y.y.y.y.y.y.y.y.y.y.y.y.d.u.u.u.u.u.u.u.u.u.u.u.u.u.u.u.u.u.u.u.u.u.u.u.u.u.u.u.u.u.u.u.d.p.p.y.a.a.a.a.a.",
"r.r.r.r.r.r.r.r.r.r.r.r.r.r.r.r.r.r.r.r.r.r.r.f.g.g.g.g.g.g.g.g.g.g.g.g.g.g.g.g.g.g.g.g.g.g.g.g.g.g.g.g.g.g.g.f.r.r.r.r.r.r.r.r.",
"r.r.r.r.r.r.r.r.r.r.r.r.r.r.r.r.r.r.r.r.r.r.r.h.g.g.g.g.g.g.g.g.g.g.g.g.g.g.g.g.g.g.g.g.g.g.g.g.g.g.g.g.g.g.g.h.r.r.r.r.r.r.r.r.",
"j.j.j.j.j.k.k.k.j.j.j.l.l.l.l.l.l.l.l.f.f.z.x.c.v.v.v.b.b.n.m.n.M.N.N.N.B.g.g.g.g.f.j.l.l.l.l.l.l.l.l.f.f.z.x.c.v.V.l.l.l.l.l.l.",
";.;.;.;.;.;.k.C.C.C.C.C.C.C.C.C.C.C.C.C.C.C.C.C.C.C.C.C.C.C.Z.A.S.S.S.D.D.f.g.g.f.F.G.A.C.C.C.C.C.C.C.C.C.C.C.C.C.C.C.C.C.C.C.C.",
"r.r.r.r.r.r.k.r.r.r.r.r.r.r.r.r.r.r.r.r.r.r.r.r.r.r.r.r.r.r.r.r.r.r.r.r.r.H.f.f.J.r.r.r.r.r.r.r.r.r.r.r.r.r.r.r.r.r.r.r.r.r.r.r.",
"r.r.r.r.r.r.k.r.r.r.r.r.r.r.r.r.r.r.r.r.r.r.r.r.r.r.r.r.r.r.r.r.r.r.r.r.r.r.f.F.r.r.r.r.r.r.r.r.r.r.r.r.r.r.r.r.r.r.r.r.r.r.r.r.",
"r.r.r.r.r.r.k.r.r.r.r.r.r.r.r.r.r.r.r.r.r.r.r.r.r.r.r.r.r.r.r.r.r.r.r.r.r.r.f.r.r.r.r.r.r.r.r.r.r.r.r.r.r.r.r.r.r.r.r.r.r.r.r.r.",
"r.r.r.r.r.r.k.r.r.r.r.r.r.r.r.r.r.r.r.r.r.r.r.r.r.r.r.r.r.r.r.r.r.r.r.r.r.r.f.r.r.r.r.r.r.r.r.r.r.r.r.r.r.r.r.r.r.r.r.r.r.r.r.r.",
"r.r.r.r.r.r.k.r.r.r.r.r.r.r.r.r.r.r.r.r.r.r.r.r.r.r.r.r.r.r.r.r.r.r.r.r.r.r.f.r.r.r.r.r.r.r.r.r.r.r.r.r.r.r.r.r.r.r.r.r.r.r.r.r.",
"r.r.r.r.r.r.f.r.r.r.r.r.r.r.r.r.r.r.r.r.r.r.r.r.r.r.r.r.r.r.r.r.r.r.r.r.r.r.f.r.r.r.r.r.r.r.r.r.r.r.r.r.r.r.r.r.r.r.r.r.r.r.r.r.",
"r.r.r.r.r.r.K.r.r.r.r.r.r.r.r.r.r.r.r.r.r.r.r.r.r.r.r.r.r.r.r.r.r.r.r.r.r.r.K.r.r.r.r.r.r.r.r.r.r.r.r.r.r.r.r.r.r.r.r.r.r.r.r.r.",
"L.L.L.P.P.h.I.c.P.l.l.l.l.l.l.l.l.l.l.l.U.L.Y.T.Y.Y.R.l.l.l.l.l.L.L.L.P.P.h.I.c.P.l.l.l.l.l.l.l.l.l.l.l.U.L.Y.T.Y.Y.R.l.l.l.l.l.",
"E.E.E.E.E.E.E.E.E.E.E.E.E.E.E.E.W.W.W.W.W.C.,.Q.C.C.C.C.C.C.C.C.E.E.E.E.E.E.E.E.E.E.E.E.E.E.E.E.W.W.W.W.W.C.,.Q.C.C.C.C.C.C.C.C.",
"!.!.!.!.!.!.!.!.!.!.!.!.!.!.!.!.!.!.!.!.!.!.!.~.!.!.!.!.!.!.!.!.!.!.!.!.!.!.!.!.!.!.!.!.!.!.!.!.!.!.!.!.!.!.!.~.!.!.!.!.!.!.!.!.",
"!.!.!.!.!.!.!.!.!.!.!.!.!.!.!.!.!.!.!.!.!.!.!.^.!.!.!.!.!.!.!.!.!.!.!.!.!.!.!.!.!.!.!.!.!.!.!.!.!.!.!.!.!.!.!.^.!.!.!.!.!.!.!.!."
};
