/* XPM */
static const char *V2FsbF9S[] = {
/* columns rows colors chars-per-pixel */
"64 64 82 1 ",
"  c black",
". c #55321C",
"X c #56341F",
"o c #573521",
"O c #583622",
"+ c #583724",
"@ c #583824",
"# c #666C17",
"$ c #676E18",
"% c #686E18",
"& c #6A7019",
"* c #6C7119",
"= c #6F731C",
"- c #6F741C",
"; c #72751B",
": c #70731F",
"> c #73761C",
", c #74771C",
"< c #767A1F",
"1 c #654935",
"2 c #686F24",
"3 c #6C7124",
"4 c #727622",
"5 c #767127",
"6 c #767A20",
"7 c #747924",
"8 c #787B21",
"9 c #797C22",
"0 c #7C7F23",
"q c #787A27",
"w c #727728",
"e c #767A2A",
"r c #787D2B",
"t c #777A38",
"y c #787C3A",
"u c #787B3D",
"i c #797C3F",
"p c #6C5847",
"a c #6D5A4B",
"s c #757C43",
"d c #6F6050",
"f c #6B6256",
"g c #736E63",
"h c #746F63",
"j c #746F64",
"k c #747064",
"l c #7E8125",
"z c #7D8342",
"x c #7E8047",
"c c #7C8351",
"v c #82834D",
"b c #82884B",
"n c #828B68",
"m c #868F6B",
"M c #9B8C64",
"N c #8A936E",
"B c #93946A",
"V c #97976C",
"C c #868579",
"Z c #9C8F71",
"A c #889278",
"S c #8C9279",
"D c #949571",
"F c #989877",
"G c #9B9B7B",
"H c #9D9A7A",
"J c #9F9E7E",
"K c #A78F6A",
"L c #A08E6F",
"P c #A6906C",
"I c #8E8D83",
"U c #8F8D84",
"Y c #908E86",
"T c #999884",
"R c #94928B",
"E c #9E9B8F",
"W c #A59C81",
"Q c #AEA28F",
"! c #AFA593",
"~ c #AAA896",
"^ c #9CA5A6",
"/ c #B2ADA3",
/* pixels */
";;;;;;;;;;;;;;;;;;;;;;;;;;;;;;;;;;;XXXXXXo+                     ",
";;;;;;;;;;;;;;;;;;;;;;;;;;;;;;;;;;;XUUUUIR+                     ",
";;;;;;;;;;;;;;;;;;;;;;;;;;;;;;;;;;;XCCCCCR+                     ",
";;;;;;;;;;;;;;;;;;;;;;;;;;;;;;;;;;;XCCCCCR+                     ",
";;;;;;;;;;;;;;;;;;;;;;;;;;;;;;;;;;;XCCCCCR+                     ",
";;;;;;;;;;>;;;;;;;;;;;;;;;;;;;;;;;;XCCCCCR+                     ",
";;;;;;;;;;9<;;;;;;;;;;;;;;;;;;;;;;;XCCCCCR+                     ",
";;;;;;>,>;<6,;;;;;;;;;;;;;;;;;;;;;;XCCCCCR+                     ",
";;;;;;8l9<&->>,>;;;;;;;;;;;;;;;;;;;XCCCCCR+                     ",
";;;;;>>698*#*9l9>;;;;;;;;;;;;;;;;;;XCCCCCR+                     ",
";;;;<98*>6,*>89<;;;;;;;;;;;;;;;;;;;XCCCCCR+                     ",
";;;;;<98=-><86>;;;;;;;;;;;;;;;;;;;;XCCCCCR+                     ",
";;;;;*=6,*#-<**;;;;;;;;;;;;;;;;;;;;XCCCCCRX                     ",
";;;;;;*->>*%%*;;;;;;;;;;;;;;;;;;;;;.CCCCCRO                     ",
";;;;;;;**<6>;;;;;;;;;;;;;;;;;;;;;;;oCCCCCR@                     ",
";;;;;;;;;<-*;;;;;;;;;;;;;;;;;;;;;;;XCCCCCR@                     ",
";;;;;;;;;**;;;;;;;;;;;;;;;><<;;;;;;XX1111o+                     ",
";;;;;;;;;;;;;;;;;;;;;;;;;>6l0>;;;;;XUUUUYR+                     ",
";;;;;;;;;;;;;;;;;;;;;;;;;689>;;;;;;XCCCCCR+                     ",
";;;;;;;;;;;;;;;;;;;;><>;zb7&;;;;;;;XCCCCCR+                     ",
";;;;;;;;;;;;;;;;;;;;>l<zTEc6;;;;;;;XCCCCCR+                     ",
";;;;;;;;;;;;;;;;;;;;&99mZLSr>;;;;;;XCCCCCR+                     ",
";;;;;;;;;;;;;;;;;;;;;>6$nA2%;;;;;;;XCCCCCR+                     ",
";;;;;;;;;;;;;;;;;;;;;*>$%&#;;;;;;;;XCCCCCR+                     ",
";;;;;;;;;;;;;;;;;;;;;;*%6>&;;;;;;;;XCCCCCR+                     ",
";;;;;;;;;;;;;;;;;;;;;;;;<*;;;;;;;;;XCCCCCR+                     ",
";;;;;;;;;;;;;;;;;;;;;;;;;;;;;;;;;;;XCCCCCR+                     ",
";;;;;;;;;;;;;;;;;;;;;;;;;;;;;;;;;;;XCCCCCR+                     ",
";;;;;;;;;;;;;;;;;;;;;;;;;;;;;;;;;;;XXCCCCR+                     ",
";;;;;;;;;;;;;;;;;;;;;;;;;;;;;;;;;;;XfXCCCR+                     ",
";;;;;;;;;;;;;;;;;;;;;;;;;;;;;;;;;;;XfXCCCR+                     ",
";;;;;;;;;;;;;;;;;;;;;;;;;;;;;;;;;;;XfjXCCR+                     ",
";;;;;;;;;;;;;;;;;;;;;;;;;;;;;;;;;;;Xghk11o+                     ",
";;;;;;;;;;;;;;;;;;;;;;;;;;;;;;;;;;;XgapRRR+                     ",
";;;;;;;;;;;;;;;;;;;;;;;;;;;;;;;;;;;XdRRCCR+                     ",
";;;;;;;;;;;;;;;;;;;;;;;;;;;;;;;;;;;XRCCCCR+                     ",
";;;;;;;;;;;;;;;;;;;;;;;;;;;;;;;;;;;XCCCCCR+                     ",
";;;;;;;;;;;;;;;;;;;;;;;;;;;;;;;;;;;XCCCCCR+                     ",
";;;;;;;;;;;;;;;;;;;;;;;;;;;9>;;;;;;XCCCCCR+                     ",
";;;;;;;;;;;;;;;;;;;;;;89<>;9<;;;;;;XCCCCCR+                     ",
";;;;;;;;;;;;;;;;;;;;;;<l9<>*6>;9;;;XCCCCCR+                     ",
";;;;;;;;;;;;;;;;;;;;;;;-68NA7<<-;;;XCCCCCR+                     ",
";;;;;;;;;;;;;;;;;;;;;;9>*6M^e68$;;;XCCCCCR+                     ",
";;;;;;;;;;;;;;;;;;;;;;=VGw5s>*&*;;;XCCCCCR+                     ",
";;;;;;;;;;;;;;;;;;;;;;BPKH3DJ4*;;;;XCCCCCRX                     ",
";;;;;;;;;;;;;;;;;;;;;;yWQvFP/q;;;;;.CCCCCRO                     ",
";;;;;;;;;;;;;;;;;;;;;;*ti:~!x>;;;;;oCCCCCR@                     ",
";;;;;;;;;;;;;;;;;;;;;;;**;tu=;;;;;;XCCCCCR@                     ",
";;;;;;;;;;;;;;;;;;;;;;;;;;**;;;;;;;XX1111o+                     ",
";;;;;;;;;;;;;;;;;;;;;;;;;;;;;;;;;;;XYYYYYR+                     ",
";;;;;;;;;;;;;;;;;;;;;;;;;;;;;;;;;;;XCCCCCR+                     ",
";;;;;;;;;;;;;;;;;;;;;;;;;;;;;;;;;;;XCCCCCR+                     ",
";;;;;;;;;;;;;;;;;;;;;;;;;;;;;;;;;;;XCCCCCR+                     ",
";;;;;;;;;;;;;;;;;;;;;;;;;;;;;;;;;;;XCCCCCR+                     ",
";;;;;;;;;;;;;;;;;;;;;;;;;;;;;;;;;;;XCCCCCR+                     ",
";;;;;;;8l<;;;;;;;;;;;;;;;;;;;;;;;;;XCCCCCR+                     ",
";;;;;;;>996,;;9l<;;;;;;;;;;;;;;;;;;XCCCCCR+                     ",
";;;;;;;;*>8,;<l<;;;;;;;;;;;;;;;;;;;XCCCCCR+                     ",
";;;;;;;;;&$*<88,;;;;;;;;;;;;;;;;;;;XCCCCCR+                     ",
";;;;;;;;;;;;<8**;;;;;;;;;;;;;;;;;;;XCCCCCR+                     ",
";;;;;;;;;;;;&$*;;;;;;;;;;;;;;;;;;;;XCCCCCR+                     ",
";;;;;;;;;;;;;;;;;;;;;;;;;;;;;;;;;;;XCCCCCR+                     ",
";;;;;;;;;;;;;;;;;;;;;;;;;;;;;;;;;;;XCCCCCR+                     ",
";;;;;;;;;;;;;;;;;;;;;;;;;;;;;;;;;;;XXXXXXXo                     "
};
