/* XPM */
static const char *V2FsbF9Eb3duX1I_[] = {
/* columns rows colors chars-per-pixel */
"64 64 150 2 ",
"   c #72751B",
".  c #4F2913",
"X  c #868579",
"o  c #94928B",
"O  c #5B3C29",
"+  c black",
"@  c #655444",
"#  c #73761C",
"$  c #75781E",
"%  c #7B7E23",
"&  c #767A1F",
"*  c #757821",
"=  c #7F8137",
"-  c #7B7E30",
";  c #6C7119",
":  c #8B8A4E",
">  c #AFA696",
",  c #A39D7E",
"<  c #7C7E31",
"1  c #7C7E32",
"2  c #A29B80",
"3  c #A68C63",
"4  c #A5916D",
"5  c #94946A",
"6  c #70731A",
"7  c #747731",
"8  c #A09F86",
"9  c #919269",
"0  c #6A6E19",
"q  c #6F731A",
"w  c #676C18",
"e  c #5A3B27",
"r  c #8B8A7F",
"t  c #604734",
"y  c #634D3C",
"u  c #99978F",
"i  c #675545",
"p  c #675544",
"a  c #86837B",
"s  c #6D685F",
"d  c #6C675E",
"f  c #6C685E",
"g  c #5B4231",
"h  c #6C665E",
"j  c #6B665D",
"k  c #6A665C",
"l  c #6A655C",
"z  c #6B675D",
"x  c #6B655D",
"c  c #6B665C",
"v  c #6A655B",
"b  c #6A645B",
"n  c #7E7B73",
"m  c #6B645C",
"M  c #69645A",
"N  c #69635B",
"B  c #68635A",
"V  c #686359",
"C  c #7A776F",
"Z  c #6A645C",
"A  c #69645B",
"S  c #6A635B",
"D  c #69635A",
"F  c #686259",
"G  c #53321E",
"H  c #68625A",
"J  c #686159",
"K  c #686158",
"L  c #79766E",
"P  c #69625A",
"I  c #676158",
"U  c #676157",
"Y  c #76736B",
"T  c #666057",
"R  c #676259",
"E  c #676258",
"W  c #676058",
"Q  c #676057",
"!  c #665F56",
"~  c #726F67",
"^  c #676159",
"/  c #666058",
"(  c #665F57",
")  c #655F55",
"_  c #655E55",
"`  c #5D5348",
"'  c #5C5247",
"]  c #4F311E",
"[  c #5C5147",
"{  c #5D5247",
"}  c #5D5248",
"|  c #5E5348",
" . c #5E5449",
".. c #5E544A",
"X. c #61574A",
"o. c #61574B",
"O. c #61584B",
"+. c #62584B",
"@. c #5E554A",
"#. c #62574B",
"$. c #62584C",
"%. c #4F3625",
"&. c #63584C",
"*. c #63594D",
"=. c #5F544A",
"-. c #5E5349",
";. c #5D5449",
":. c #5F554A",
">. c #655C50",
",. c #584132",
"<. c #543624",
"1. c #563D2C",
"2. c #563B2A",
"3. c #553726",
"4. c #553827",
"5. c #583F30",
"6. c #5F5349",
"7. c #543725",
"8. c #553725",
"9. c #4E2812",
"0. c #63594C",
"q. c #6C675F",
"w. c #563B2B",
"e. c #706C63",
"r. c #645A4D",
"t. c #5B483B",
"y. c #5B493C",
"u. c #5D4D42",
"i. c #5B473A",
"p. c #655C51",
"a. c #5C4B40",
"s. c #655C4F",
"d. c #6A6257",
"f. c #6B6358",
"g. c #6D665A",
"h. c #6D665B",
"j. c #6E675B",
"k. c #6E685B",
"l. c #665F58",
"z. c #5C4B3F",
"x. c #512D18",
"c. c #573B29",
"v. c #573B28",
"b. c #573A27",
"n. c #583F2D",
"m. c #502C16",
"M. c #5C493D",
"N. c #655D51",
"B. c #665D51",
"V. c #665E51",
/* pixels */
"                                                                      . X X X X X o O + + + + + + + + + + + + + + + + + + + + + ",
"                                                                      . o o o o o o O + + + + + + + + + + + + + + + + + + + + + ",
"                                                                      . . @ @ @ @ . O + + + + + + + + + + + + + + + + + + + + + ",
"                                                                      . X X X X X o O + + + + + + + + + + + + + + + + + + + + + ",
"                                                                      . X X X X X o O + + + + + + + + + + + + + + + + + + + + + ",
"                                                                      . X X X X X o O + + + + + + + + + + + + + + + + + + + + + ",
"                                                                      . X X X X X o O + + + + + + + + + + + + + + + + + + + + + ",
"                                                                      . X X X X X o O + + + + + + + + + + + + + + + + + + + + + ",
"                                                                      . X X X X X o O + + + + + + + + + + + + + + + + + + + + + ",
"                                                                    # . X X X X X o O + + + + + + + + + + + + + + + + + + + + + ",
"                                                                  $ % . X X X X X o O + + + + + + + + + + + + + + + + + + + + + ",
"                                                                    & . X X X X X o O + + + + + + + + + + + + + + + + + + + + + ",
"                            * = -                                   ; . X X X X X o O + + + + + + + + + + + + + + + + + + + + + ",
"                          * : > , <                                   . X X X X X o O + + + + + + + + + + + + + + + + + + + + + ",
"                          1 2 3 4 5                                   . X X X X X o O + + + + + + + + + + + + + + + + + + + + + ",
"                          6 7 8 9 0                                   . X X X X X o O + + + + + + + + + + + + + + + + + + + + + ",
"                            q w 0                                     . X X X X X o O + + + + + + + + + + + + + + + + + + + + + ",
"                                                                      . o o o o o o O + + + + + + + + + + + + + + + + + + + + + ",
"                                                                      . . @ @ @ @ . O + + + + + + + + + + + + + + + + + + + + + ",
"                                                                      . X X X X X o O + + + + + + + + + + + + + + + + + + + + + ",
"                                                                      . X X X X X o O + + + + + + + + + + + + + + + + + + + + + ",
"                                                                      . X X X X X o O + + + + + + + + + + + + + + + + + + + + + ",
"                                                                      . X X X X X o O + + + + + + + + + + + + + + + + + + + + + ",
"                                                                      . X X X X X o O + + + + + + + + + + + + + + + + + + + + + ",
"e e e e e e e e e e e e e e e e e e e e e   e e e e e e e e e e e . . . X X X X X o O + + + + + + + + + + + + + + + + + + + + + ",
"X X X X X X X X X X X X X X X X X X X X r t r X X X X X X X X X X X X X X X X X X o O + + + + + + + + + + + + + + + + + + + + + ",
"X X X X X X X X X X X X X X X X X X X X r y r X X X X X X X X X X X X X X X X X X u O + + + + + + + + + + + + + + + + + + + + + ",
"X X X X X X X X X X X X X X X X X X X X r i r X X X X X X X X X X X X X X X X X X u O + + + + + + + + + + + + + + + + + + + + + ",
"o o o o o o o o o o o o o o o o o o u u u p u u u o o o o o o o o o o o o u u u u a . + + + + + + + + + + + + + + + + + + + + + ",
"s s s s s d f f f f f f f f f f s s s s s g s s s d f f f f d d h h h j j j k l l a . + + + + + + + + + + + + + + + + + + + + + ",
"f s s s f d d d d d d f f f f f f f f f f g d d d d d d d z z j j j j j j x l l l a . + + + + + + + + + + + + + + + + + + + + + ",
"d f f f d d d d d d d d d d d d d d d z z g d d d d h h j j j j j j j c c c v b b n . + + + + + + + + + + + + + + + + + + + + + ",
"d z z d d d d d h j j j j j j j j j j j j g j j j j j j j j j j x x x m b b b b b n . + + + + + + + + + + + + + + + + + + + + + ",
"j j j j j j j j j j j j j j j j j j j j j g j x x x x x l l l l v v b M N N N N B n . + + + + + + + + + + + + + + + + + + + + + ",
"j x x l l l l k k k k k l l x x x x x x x g l l l l l l l l l l v b N N N B V V V C . + + + + + + + + + + + + + + + + + + + + + ",
"Z Z Z Z Z Z Z l l l l l A A A A A A A l l g l l l l l l l l l v S N N N D V V F F C . + + + + + + + + + + + + + + + + + + + + + ",
"A A A A A A A A A A A A A A A A A A A l A G l l l l A A A A M D D H H F J J J K K L . + + + + + + + + + + + + + + + + + + + + + ",
"N N A A A A A A A A A A A A N A A A A A N G A A A N N N N N P P H H F J J K K I U Y . + + + + + + + + + + + + + + + + + + + + + ",
"B B B B B B B B B N N N N N N N N N N N N G N N N N N N N D P H H F F J K U U T T Y . + + + + + + + + + + + + + + + + + + + + + ",
"H H H H H B B H B B B B B B B B B B N N N G N N N N N N N V F R R E W Q Q T ! ! ! ~ . + + + + + + + + + + + + + + + + + + + + + ",
"^ ^ ^ ^ ^ ^ ^ ^ ^ ^ ^ ^ ^ R R R R R R H R G H H H H H H H F J ^ ^ I W Q T T ! ! ! ~ . + + + + + + + + + + + + + + + + + + + + + ",
"^ ^ ^ ^ ^ ^ ^ ^ ^ ^ ^ ^ ^ ^ ^ ^ ^ ^ ^ ^ ^ G ^ ^ ^ ^ ^ ^ ^ I W / / T ( ! ! ) ) _ _ . + + + + + + + + + + + + + + + + + + + + + + ",
". . . . . . . . . . . . . . . . . . . . . ` . . . . . . . . . . . . . . . . . . . + + + + + + + + + + + + + + + + + + + + + + + ",
"' ' ] [ [ ' { { { { } } } } } } } ` ` ` ` ` ` |  . ............ X.o.O.O.+.O.+.+.. + + + + + + + + + + + + + + + + + + + + + + + ",
"' ' ] ' ' { { { { { } } } } ` } } ` ` ` ` ` ` |  . .........@.. #.+.+.$.$.+.+.+.. + + + + + + + + + + + + + + + + + + + + + + + ",
"' ' %.' ' { { { { { } } } } ` ` } ` ` ` ` ` ` |  . ............ +.&.&.&.*.*.+.+.. + + + + + + + + + + + + + + + + + + + + + + + ",
"' ' %.' ' ' { { { { } } } } ` ` ` ` ` ` ` ` ` |  . ............ &.$.*.$.$.+.+.+.. + + + + + + + + + + + + + + + + + + + + + + + ",
"' ' %.' ' ' { { { { } } } } ` ` ` ` ` ` ` ` ` |  . .........=.. *.$.*.$.*.+.+.+.. + + + + + + + + + + + + + + + + + + + + + + + ",
"' ' %.[ [ ' { { { { { } } } } ` ` ` ` ` ` ` ` -. .;.........:.. X.o.O.O.+.+.+.>.. + + + + + + + + + + + + + + + + + + + + + + + ",
"^ ^ ,.^ ^ ^ ^ ^ ^ ^ ^ ^ ^ ^ ^ ^ ^ ^ ^ ^ ^ ^ ^ ^ ^ ^ ^ ^ ^ ^ ^ . #.+.+.$.+.+.+.>.. + + + + + + + + + + + + + + + + + + + + + + + ",
"^ ^ <.^ ^ ^ ^ ^ ^ ^ ^ ^ ^ ^ ^ ^ ^ ^ ^ ^ ^ ^ ^ ^ ^ ^ ^ ^ ^ ^ ^ . +.&.&.&.*.*.>.>.. + + + + + + + + + + + + + + + + + + + + + + + ",
"1.2.3.4.5.6.6.6.6.6.6.6.6.6.,.,.7.8.,.,.,.,.6.6.6.6.,.,.,.9.9.0.&.$.*.$.$.0.>.>.. + + + + + + + + + + + + + + + + + + + + + + + ",
"q.q.q.q.q.q.q.q.q.q.q.q.q.q.q.q.q.<.q.q.q.q.q.q.q.q.q.q.q.q.q.. *.$.*.$.*.>.>.>.. + + + + + + + + + + + + + + + + + + + + + + + ",
"^ ^ ^ ^ ^ ^ ^ ^ ^ ^ ^ ^ ^ ^ ^ ^ ^ w.^ ^ ^ ^ ^ ^ ^ ^ ^ ^ ^ ^ e.. *.$.0.0.0.>.>.>.. + + + + + + + + + + + + + + + + + + + + + + + ",
"^ ^ ^ ^ ^ ^ ^ ^ ^ ^ ^ ^ ^ ^ ^ ^ ^ ,.^ ^ ^ ^ ^ ^ ^ ^ ^ ^ ^ ^ e.. r.0.0.0.>.>.>.>.. + + + + + + + + + + + + + + + + + + + + + + + ",
"^ ^ ^ ^ ^ ^ ^ ^ ^ ^ ^ ^ ^ ^ ^ ^ ^ 6.^ ^ ^ ^ ^ ^ ^ ^ ^ ^ ^ ^ e.. 0.0.0.0.>.>.>.>.. + + + + + + + + + + + + + + + + + + + + + + + ",
"^ ^ ^ ^ ^ ^ ^ ^ ^ ^ ^ ^ ^ ^ ^ ^ ^ 6.^ ^ ^ ^ ^ ^ ^ ^ ^ ^ ^ ^ e.. 0.0.0.>.>.>.>.>.. + + + + + + + + + + + + + + + + + + + + + + + ",
"^ ^ ^ ^ ^ ^ ^ ^ ^ ^ ^ ^ ^ ^ ^ ^ ^ 6.^ ^ ^ ^ ^ ^ ^ ^ ^ ^ ^ ^ e.. 0.0.0.>.>.>.>.>.. + + + + + + + + + + + + + + + + + + + + + + + ",
"^ ^ ^ ^ ^ ^ ^ ^ ^ ^ ^ ^ ^ ^ ^ ^ ^ 6.^ ^ ^ ^ ^ ^ ^ ^ ^ ^ ^ ^ e.. 0.0.>.>.>.>.>.>.. + + + + + + + + + + + + + + + + + + + + + + + ",
"^ ^ ^ ^ ^ ^ ^ ^ ^ ^ ^ ^ ^ ^ ^ ^ ^ 6.^ ^ ^ ^ ^ ^ ^ ^ ^ ^ ^ ^ e.. 0.0.>.>.>.>.>.>.. + + + + + + + + + + + + + + + + + + + + + + + ",
"t.y.u.y.y.i.6.6.6.6.6.6.6.6.6.6.6.6.6.6.6.6.6.6.6.6.,.,.,.9.9.p.0.>.>.>.>.>.>.>.. + + + + + + + + + + + + + + + + + + + + + + + ",
"q.d a.q.q.q.q.q.q.q.q.q.q.q.q.q.q.q.q.q.q.q.q.q.q.q.q.q.q.q.e.. s.d.d.f.g.h.j.k.. + + + + + + + + + + + + + + + + + + + + + + + ",
"l.l.z.l.l.l.l.l.l.l.l.l.l.l.l.l.l.l.l.l.l.l.l.l.l.l.l.l.l.l.e.x.c.v.b.b.b.b.c.n.m.+ + + + + + + + + + + + + + + + + + + + + + + ",
"l.l.M.l.l.l.l.l.l.l.l.l.l.l.l.l.l.l.l.l.l.l.l.l.l.l.l.l.l.l.e.. N.N.B.B.V.V.N.N.. + + + + + + + + + + + + + + + + + + + + + + + "
};
