/* XPM */
static const char *Q29sX1VfMw__[] = {
/* columns rows colors chars-per-pixel */
"64 64 211 2 ",
"   c #1A1B1B",
".  c #261D1A",
"X  c #331E1A",
"o  c #212218",
"O  c #29221C",
"+  c #2C2C1A",
"@  c #38241D",
"#  c #313219",
"$  c #37391A",
"%  c #3D3E19",
"&  c #191F22",
"*  c #1B2224",
"=  c #1A262B",
"-  c #1C2A2C",
";  c #1C2D34",
":  c #1D323A",
">  c #1E3236",
",  c #272825",
"<  c #3A2823",
"1  c #2D263F",
"2  c #372A3B",
"3  c #203A3E",
"4  c #253535",
"5  c #393236",
"6  c #2B3628",
"7  c #472219",
"8  c #5B2A1B",
"9  c #53261C",
"0  c #692C19",
"q  c #762C1D",
"w  c #78311D",
"e  c #452B25",
"r  c #562D24",
"t  c #4C3227",
"y  c #483226",
"u  c #56342A",
"i  c #412F3E",
"p  c #4C3537",
"a  c #563839",
"s  c #522F30",
"d  c #633C2C",
"f  c #6E382C",
"g  c #23413E",
"h  c #3C4222",
"j  c #42431A",
"k  c #4A4C1A",
"l  c #53551A",
"z  c #5A5C1A",
"x  c #5A541A",
"c  c #554D1B",
"v  c #615E1F",
"b  c #63651B",
"n  c #666B1A",
"m  c #6A6D1B",
"M  c #666D17",
"N  c #6E721B",
"B  c #72751B",
"V  c #76791F",
"C  c #79781E",
"Z  c #565529",
"A  c #484535",
"S  c #5B4738",
"D  c #554F2C",
"F  c #684239",
"G  c #754534",
"H  c #7C4937",
"J  c #7D5335",
"K  c #6B4D31",
"L  c #6B6D24",
"P  c #67662B",
"I  c #6E7121",
"U  c #777A21",
"Y  c #797C22",
"T  c #737325",
"R  c #656534",
"E  c #777039",
"W  c #1E3D49",
"Q  c #1E3944",
"!  c #322B44",
"~  c #3B2E41",
"^  c #372F4A",
"/  c #3A374A",
"(  c #3B3552",
")  c #3F3C59",
"_  c #3C3955",
"`  c #293141",
"'  c #483746",
"]  c #433C57",
"[  c #523940",
"{  c #453F60",
"}  c #1F4350",
"|  c #26484C",
" . c #37484D",
".. c #27504D",
"X. c #214655",
"o. c #214B59",
"O. c #234C54",
"+. c #3B5758",
"@. c #25545C",
"#. c #2A605F",
"$. c #285E66",
"%. c #28626A",
"&. c #2D6866",
"*. c #396969",
"=. c #2D6E72",
"-. c #2E7374",
";. c #337C7B",
":. c #574C4A",
">. c #585646",
",. c #494559",
"<. c #585054",
"1. c #705744",
"2. c #464362",
"3. c #4C4C6B",
"4. c #484965",
"5. c #4D516E",
"6. c #585766",
"7. c #545A74",
"8. c #565B75",
"9. c #4F5771",
"0. c #5A637B",
"q. c #4B7F76",
"w. c #796A71",
"e. c #70686C",
"r. c #695A5B",
"t. c #993C1C",
"y. c #863423",
"u. c #9A3824",
"i. c #A73C28",
"p. c #A5431E",
"a. c #8D432A",
"s. c #844E37",
"d. c #865236",
"f. c #975938",
"g. c #9E4D31",
"h. c #A94625",
"j. c #B4472B",
"k. c #BD5428",
"l. c #AA5833",
"z. c #B25F38",
"x. c #8B792D",
"c. c #B4663B",
"v. c #C4472F",
"b. c #C95B2B",
"n. c #CB4E33",
"m. c #D35E39",
"M. c #D6683A",
"N. c #CA6639",
"B. c #835447",
"V. c #9F5C49",
"C. c #9A5A45",
"Z. c #805954",
"A. c #9A6245",
"S. c #986654",
"D. c #886F52",
"F. c #AC6949",
"G. c #B17858",
"H. c #857476",
"J. c #94766C",
"K. c #A07A6F",
"L. c #C96A40",
"P. c #C57844",
"I. c #C87C55",
"U. c #E27C45",
"Y. c #7E8125",
"T. c #36847D",
"R. c #4D847A",
"E. c #408077",
"W. c #8C8025",
"Q. c #958470",
"!. c #AB8576",
"~. c #E9894A",
"^. c #F09850",
"/. c #EE954F",
"(. c #D08860",
"). c #C28962",
"_. c #CB845D",
"`. c #5C6A84",
"'. c #5F7089",
"]. c #63768D",
"[. c #6C748C",
"{. c #667991",
"}. c #6B7A91",
"|. c #6B768D",
" X c #368B85",
".X c #368A83",
"XX c #399089",
"oX c #4D9196",
"OX c #6C8096",
"+X c #78879B",
"@X c #46A09D",
"#X c #788CA0",
"$X c #778CA0",
"%X c #7C91A4",
"&X c #57A9AF",
"*X c #6BC9D4",
"=X c #62C0C8",
"-X c #77D7E7",
";X c #908C94",
":X c #AB8F84",
">X c #879AAB",
",X c #848FA2",
"<X c #8FA3B3",
"1X c #95A9B7",
"2X c #9DB2BF",
"3X c #B0ABA9",
"4X c #CBAA8E",
"5X c #A1B6C2",
"6X c #A5BAC5",
"7X c #A9BEC9",
"8X c #ACC2CB",
/* pixels */
"B B B B B B B B B B B B B B B B B B B B B B B B B B B B B B B B B B B B B B B B B B B B B B B B B B B B B B B B B B B B B B B B ",
"B B B B B B B B B B B B B B B B B B B B B B B B B B B B B B B B B B B B B B B B B B B B B B B B B B B B B B B B B B B B B B B B ",
"B B B B B B B B B B B B B B B B B B B B B B B B B B B B B B B B B B B B B B B B B B B B B B B B B B B B B B B B B B B B B B B B ",
"B B B B B B B B B B B B B B B B B B B B B B B B B B B B B B B B B B B B B B B B B B B B B B B B B B B B B B B B B B B B B B B B ",
"B B B B B B B B B B B B B B B B B B B B B B B B B B B B B B B B B B B B B B B B B B B B B B B B B B B B B B B B B B B B B B B B ",
"B B B B B B B B B B B B B B B B B B B B B B B B B B B B B B B B B B B B B B B B B B B B B B B B B B B B B B B B B B B B B B B B ",
"B B B B B B B B B B B B B B B B B B B B B I L L L L I B B B B B B B B B B B B Y V B B B B B B B B B B B B B B B B B B B B B B B ",
"B B B B B B B B B B B B B B B B B B B B B R :.:.:.:.R B B B B B B B B B B B B V U B B B B B B B B B B B B B B B B B B B B B B B ",
"B B B B B B B B B B B B B B B B B B B B B >.2.3.3.3.<.R P P P P I B B U Y.Y V N N B B B B B B B B B B B B B B B B B B B B B B B ",
"B B B B B B B B B B B B B B B B B B B B B >.4.0.'.'.8.,.,.,.,.>.L B B B U Y Y N M N Y Y.Y B B B B B B B B B B B B B B B B B B B ",
"B B B B B B B B B B B B B B B B B B B B B >.4.`.OX%X+X|.[.[.0.6.>.R R P I I U U N B Y Y V B B B B B B B B B B B B B B B B B B B ",
"B B B B B B B B B B B B B B B B B B B B B >.4.`.$X5X8X7X7X6X%X`.3.,.,.>.E R R P T U U B B B B B B B B B B B B B B B B B B B B B ",
"B B B B B B B B B B B B B B B B B B B B B P >.6.`.%X1X8X8X8X1X>X+X[.0.6.r.w.Q.D.E T m B B B B B B B B B B B B B B B B B B B B B ",
"B B B B B B B B B B B B B B B B B B B B B Y x.<.3.'.>X8X8X8X8X8X7X<X{.4.! H.4X4XG.P n B B B B B B B B B B B B B B B B B B B B B ",
"B B B B B B B B B B B B B B B B B B B B C W.x.:.,.'.>X8X8X8X8X6X>X}.7.) 1 <.Z.!.).K v m B B B B B B B B B B B B B B B B B B B B ",
"B B B B B B B B B B B B B B B B B B B B x.x.D.:._ 7.}.<X2X2X2X<X}.8.2.) ( ! ' 1.J D D Z m B B B B B B B B B B B B B B B B B B B ",
"B B B B B B B B B B B B B B B B B B B B x.R [ ] _ ( ,.8.[.+X+X}.7.4.2.5.0. .2 r r 5 5 5 Z B B B B B B B B B B B B B B B B B B B ",
"B B B B B B B B B B B B B B B B B L R R R S 2 ' ' ^ ] 5.].%X%X+X[.0.9.6.6.' 2 e e ~ ! 1 D B B B B B B B B B B B B B B B B B B B ",
"B B B B B B B B B B B B B B B B B R ,.,.,.p 8 8 s ] 5.'.>X6X6X6X6X>X{.<.r r r 2 ! ] ^ 1 D B B B B B B B B B B B B B B B B B B B ",
"B B B B B B B B B B B B B B B B B R ,.3.7.a 8 8 r f B.J.K.!.!.!.:X!.Z.H w 0 r i ( ] ( 1 D B B B B B B B B B B B B B B B B B B B ",
"B B B B B B B B B B B B B B B B B R ,.7.].:.8 8 0 t.j.M.k.t.t.h.b.b.p.t.t.w r ' 2.{ ( 1 D B B B B B B B B B B B B B B B B B B B ",
"B B B B B B B B B B B B B B B B B Z / 5.].6.p r 0 t.j.M.b.k.p.h.b.m.b.b.k.B.6.8.7.4.( 1 D B B B B B B B B B B B B B B B B B B B ",
"B B B B B B B B B B B B B B B B B Z 2 2.'.7.,.a f a.l.N.L.N.l.g.c.L.L.L.I.K.OX{.`.2./ 5 Z B B B B B B B B B B B B B B B B B B B ",
"B B B B B B B B B B B B B B B B B Z 2 _ 5.8.0.0.e.e.w.H.H.H.w.w.H.H.H.:X3X3X<X+X0._ A P L B B B B B B B B B B B B B B B B B B B ",
"B B B B B B B B B B B B B B B B B P A / ) 9.`.].].].OX$X#X#X#X$X$X$X#X<X8X5X<X}.8.<.S z n B B B B B B B B B B B B B B B B B B B ",
"B B B B B B B B B B B B B B B B B N L A ! ) 3.`.].].%X5X5X5X5X5X5X5X5X6X8X>X}.7.r.G.1.+ l B B B B B B B B B B B B B B B B B B B ",
"B B B B B B B B B B B B B B B B B b l D a ' _ 4.9.8.[.,X>X<X<X<X<X>X,X+X+X0.5.<.Z.G.A.t j l n B B B B B B B B B B B B B B B B B ",
"B B B B B B B B B B B B B B B B B l o t s.a 1 ! ^ ] 2.2.0.{.{.{.{.`.3._ ! ! 2 F C.I.F.d.t o l B B B B B B B B B B B B B B B B B ",
"B B B B B B B B B B B B B B B B B l o t s.p , p [ / ^ ^ ) 4.4.4.4.,.( ! 1 p a u F A.A.d.t o l B B B B B B B B B B B B B B B B B ",
"B B B B B B B B B B B B B B B B B l o y H e O d F i 2 2 2 ~ ~ ~ ~ ~ ~ 2 2 F G < < G s.H y o l B B B B B B B B B B B B B B B B B ",
"B B B B B B B B B B B B B B B B B l o O < O   < t d F F B.S.S.S.S.S.S.B.F H G < < G F e O o l B B B B B B B B B B B B B B B B B ",
"B B B B B B B B B B B B B B B B B l o   * * * . < d H d.F.(.(.(.(._.I.F.d.H d @ < F p =   o l B B B B B B B B B B B B B B B B B ",
"B B B B B B B B B B B B B B B B B l o - W W ` t 9 @ u s.F.(.(.(.(.G.A.f.s.u @ 9 r  .| W - o l U Y.V B B B B B B B B B B B B B B ",
"B B B B B B B B B B B B B B B B B l o 3 %.%.+.G q 7 e d J A.F.F.F.f.F d d e 7 q G +.%.%.3 o l B Y Y U B B B Y Y.V B B B B B B B ",
"B B B B B B B B B B B B B B B B B l o ...X.Xq.C.i.q 7 . O @ 8 w w 8 . . . 7 q i.C.q..X.X..o l B N B U B B V Y.V B B B B B B B B ",
"B B B B B B B B B B B B B B B B B l o ..XXXXR.B.u.u.a.J J d.f.l.l.f.d.J J a.u.u.B.R.XXXX..o l B B N M N V U U B B B B B B B B B ",
"B B B B B B B B B B B B B B B B B l o .. XXXE.S y.j.M./.^.^.^.^.^.^.^.^./.M.j.y.S E.XX X..o l B B B B B V U N N B B B B B B B B ",
"B B B B B B B B B B B B B B B B B l o 3 %.;.T.+.a y.j.M.~.^.^.^.^.^.^.~.M.j.y.a +.T.;.%.3 o l B B B B B N M N B B B B B B B B B ",
"B B B B B B B B B B B B B B B B B z + 4 } &.;.%. .u y.j.M.~.~.~.~.~.~.M.j.y.u  .%.;.&.} 4 + z B B B B B B B B B B B B B B B B B ",
"B B B B B B B B B B B B Y V B B B M z h = | %.-.*. .a y.j.m.m.m.m.m.m.j.y.a  .*.-.%.| = h z M B B B B B B B B B B B B B B B B B ",
"B B B B B B B B B B B B V U B B B B B l # 4 | #.&.o./ u H V.V.V.V.V.V.H u / o.&.#.| 4 # l B B B B B B B B B B B B B B B B B B B ",
"B B B B B B B B U Y.Y V N N B B B B B M b $ * = > X.X.| *.R.R.R.R.R.R.*.| X.X.> = * $ b M B B B B B B B B B B B B B B B B B B B ",
"B B B B B B B B B U Y U N M N Y Y.Y B B B l $ o * : W X.$.-.-.-.-.-.-.$.X.W : * o $ l B B B B B B B B B B B B B B B B B B B B B ",
"B B B B B B V Y U N B U B N B U Y V B B B B b #     ; X.o.o.o.o.o.o.o.o.X.;     # b B B B B B B B B B B B B B B B B B B B B B B ",
"B B B B B B B V Y U N N B V U U B B B B B B b # & > : > W o.%.=.=.=.=.=.=.O.> & # b B B B B B B B B B B B B B B B B B B B B B B ",
"B B B B B B B N N U B N M N V N N B B B B B b # = W :   : o.=.T.T.T.T.T.T.$.W = # b B B B B B B B B B B B B B B B B B B B B B B ",
"B B B B B B B B N N B B N M M N B B B B B B b #   = > Q > - 3 g g g g g g > =   # b B B B B B B B B B B B B B B B B B B B B B B ",
"B B B B B B B B B N N V U B B B B B B B B B n j O   = W -   . O e y y e @ X . + j n B B B B B B B B B B B B B B B B B B B B B B ",
"B B B B B B B B B B B V N N B B B B B B B B N b k o   *     7 w c.P.P.z.u.w 8 x b N B B B B B B B B B B B B B B B B B B B B B B ",
"B B B B B B B B B B B N N B B B B B B B B B B B b j $ $ O . 0 h.M.U.U.M.v.u.0 c z N B B B B B B B B B B B B B B B B B B B B B B ",
"B B B B B B B B B B B B B B B B B B B B B B B B B M M M % . y.v.n.n.n.n.v.u.0 @ $ n B B B B B B B B B B B B B B B B B B B B B B ",
"B B B B B B B B B B B B B B B B B B B B B B B B B B B B j o >.J.Q.:X:XJ.D.r.:.4 6 j z B B B B B B B B B B B B B B B B B B B B B ",
"B B B B B B B B B B B B B B B B B B B B B B B B B B B B j * &.@X*X-X-X&XXXXX.X$.Q & % N B B B B B B B B B B B B B B B B B B B B ",
"B B B B B B B B B B B B B B B B B B B B B B B B B B B B j * &.@X*X-X-X*X&X@X.X$.Q & % N B B B B B B B B B B B B B B B B B B B B ",
"B B B B B B B B B B B B B B B B B B B B B B B B B B B B j * &.@X*X-X-X-X*X@X;.@.3 , j B B B B B B B B B B B B B B B B B B B B B ",
"B B B B B B B B B B B B B B B B B B B B B B B B B B B B j * &.@X*X-X-X=X@X;.@.: 6 l b B B B B B B B B B B B B B B B B B B B B B ",
"B B B B B B B B B B B B B B B B B B B B B B B B B B B B j * ..;.oX&X&XoX&.O.Q 6 j m B Y Y.V B B B B B B B B B B B B B B B B B B ",
"B B B B B B B B B B B B B B B B B B B B B B B B B B B B j   * - 4 4 4 4 - * , Z m B V Y.V B B B B B B B B B B B B B B B B B B B ",
"B B B B B B B B B B B B B B B B B B B B B B B B B B B B l % % % % % % % % % j z N V Y Y B B B B B B B B B B B B B B B B B B B B ",
"B B B B B B B B B B B B B B B B B B B B B B B B B B B B B N N N B N N N N N N B B V U N N B B B B B B B B B B B B B B B B B B B ",
"B B B B B B B B B B B B B B B B B B B B B B B B B B B B B B B B B B B B B B B B B N M N B B B B B B B B B B B B B B B B B B B B ",
"B B B B B B B B B B B B B B B B B B B B B B B B B B B B B B B B B B B B B B B B B B B B B B B B B B B B B B B B B B B B B B B B ",
"B B B B B B B B B B B B B B B B B B B B B B B B B B B B B B B B B B B B B B B B B B B B B B B B B B B B B B B B B B B B B B B B ",
"B B B B B B B B B B B B B B B B B B B B B B B B B B B B B B B B B B B B B B B B B B B B B B B B B B B B B B B B B B B B B B B B "
};
