/* XPM */
static const char *Q29sX0RfMw__[] = {
/* columns rows colors chars-per-pixel */
"64 64 224 2 ",
"   c #1A1B1A",
".  c #281B19",
"X  c #361D18",
"o  c #28251B",
"O  c #313219",
"+  c #3A3D1D",
"@  c #38271D",
"#  c #1D343D",
"$  c #1D3137",
"%  c #1B282D",
"&  c #2C2824",
"*  c #372927",
"=  c #2C273A",
"-  c #342B3A",
";  c #253534",
":  c #25373B",
">  c #383339",
",  c #3F3734",
"<  c #2B3526",
"1  c #432119",
"2  c #46281F",
"3  c #572418",
"4  c #4F3819",
"5  c #652919",
"6  c #712A19",
"7  c #7B2C1B",
"8  c #77371D",
"9  c #6B3C19",
"0  c #492A27",
"q  c #562C25",
"w  c #583627",
"e  c #463A36",
"r  c #473532",
"t  c #783927",
"y  c #6E372E",
"u  c #23413E",
"i  c #334531",
"p  c #4B4C1A",
"a  c #414219",
"s  c #53551A",
"d  c #4C521F",
"f  c #74451A",
"g  c #71571A",
"h  c #5E611A",
"j  c #63651B",
"k  c #666B1A",
"l  c #6A6C1C",
"z  c #676B18",
"x  c #72671C",
"c  c #6D721B",
"v  c #72751B",
"b  c #76791F",
"n  c #5C5B26",
"m  c #53522A",
"M  c #5B5B2A",
"N  c #474535",
"B  c #415A3F",
"V  c #5C5A39",
"C  c #524F34",
"Z  c #69443A",
"A  c #744F2C",
"S  c #4D6137",
"D  c #566531",
"F  c #5B682C",
"G  c #666B23",
"H  c #6A6B22",
"J  c #636525",
"K  c #6D7121",
"L  c #777A20",
"P  c #797C22",
"I  c #747621",
"U  c #70672A",
"Y  c #1E3D49",
"T  c #2E2741",
"R  c #332C47",
"E  c #37324D",
"W  c #3B364B",
"Q  c #3B3853",
"!  c #233C45",
"~  c #463A49",
"^  c #553D4B",
"/  c #443D5A",
"(  c #1F4351",
")  c #26444B",
"_  c #204757",
"`  c #214A59",
"'  c #2A4D56",
"]  c #265559",
"[  c #3C595E",
"{  c #385249",
"}  c #285A66",
"|  c #2B6369",
" . c #356D69",
".. c #337A79",
"X. c #327078",
"o. c #56494A",
"O. c #575545",
"+. c #43435C",
"@. c #4D4150",
"#. c #574D58",
"$. c #4D4E51",
"%. c #7C5544",
"&. c #6D4F4D",
"*. c #58605B",
"=. c #7A6456",
"-. c #6A625B",
";. c #494965",
":. c #4B5668",
">. c #525572",
",. c #585B75",
"<. c #56536A",
"1. c #59617A",
"2. c #506E69",
"3. c #77726B",
"4. c #62637D",
"5. c #797975",
"6. c #676962",
"7. c #685F6B",
"8. c #903A1B",
"9. c #883522",
"0. c #983A25",
"q. c #AC3E29",
"w. c #A33D28",
"e. c #A6441F",
"r. c #96412C",
"t. c #844933",
"y. c #994934",
"u. c #885439",
"i. c #A84625",
"p. c #B6452B",
"a. c #B5502C",
"s. c #8E6A35",
"d. c #AE6537",
"f. c #C2462F",
"g. c #C85A2A",
"h. c #C84931",
"j. c #C44831",
"k. c #C65032",
"l. c #D5642F",
"z. c #D86539",
"x. c #C96B3C",
"c. c #855645",
"v. c #985B44",
"b. c #854F43",
"n. c #996248",
"m. c #96695B",
"M. c #8C715D",
"N. c #8E6F57",
"B. c #A26A4A",
"V. c #AB6B51",
"C. c #AC7355",
"Z. c #B47657",
"A. c #B27350",
"S. c #817D76",
"D. c #906E66",
"F. c #AD7A61",
"G. c #C27D5C",
"H. c #E17C45",
"J. c #7D8025",
"K. c #35857D",
"L. c #78817E",
"P. c #9A836C",
"I. c #AB8869",
"U. c #B98E6A",
"Y. c #AA8474",
"T. c #B6947A",
"R. c #B4976E",
"E. c #BE9C6F",
"W. c #C6835B",
"Q. c #CD8747",
"!. c #E48748",
"~. c #C48765",
"^. c #D48F65",
"/. c #CA9D76",
"(. c #D59E79",
"). c #CA926C",
"_. c #C9A673",
"`. c #E4AC71",
"'. c #3F7E83",
"]. c #537183",
"[. c #677489",
"{. c #6E7C92",
"}. c #6F7488",
"|. c #388786",
" X c #3A928A",
".X c #518A93",
"XX c #439192",
"oX c #738398",
"OX c #4AA4A3",
"+X c #56A5AA",
"@X c #5FADBD",
"#X c #57B1B5",
"$X c #5EBBC1",
"%X c #62B8C5",
"&X c #6DCCD8",
"*X c #70CFDB",
"=X c #77D7E7",
"-X c #869BAB",
";X c #8A9DAD",
":X c #8196A8",
">X c #919CA9",
",X c #99ACB9",
"<X c #94A6B3",
"1X c #AFB9BD",
"2X c #AC968E",
"3X c #D7B486",
"4X c #D8B092",
"5X c #E8B886",
"6X c #E1B99A",
"7X c #DBB9A2",
"8X c #F5CC94",
"9X c #F8D098",
"0X c #EFC38B",
"qX c #DCC8B1",
"wX c #E4C3A5",
"eX c #E6CDB3",
"rX c #E9D5BD",
"tX c #9FB5C1",
"yX c #A4BAC5",
"uX c #ADC3CC",
"iX c #D8CFC5",
"pX c #EDDBC5",
"aX c #F3EADB",
"sX c #EDE1D0",
/* pixels */
"v v v v v v v v v v v v v v v v v v v v v v v v v v v v v v v v v v v v v v v v v v v v v v v v v v v v v v v v v v v v v v v v ",
"v v v v v v v v v v v v v v v v v v v v v v v v v v v v v v v v v v v v v v v v v v v v v v v v v v v v v v v v v v v v v v v v ",
"v v v v v v v v v v v v v v v v v v v v v v v v v v v v v v v v v v v v v v v v v v v v v v v v v v v v v v v v v v v v v v v v ",
"v v v v v v v v v v v v v v v v v v v v v v v v v v v v v v v v v v v v v v v v v v v v v v v v v v v v v v v v v v v v v v v v ",
"v v v v v v v v v v v v v v v v v v v v v v v v v v v v v v v v v v v v v v v v v v v v v v v v v v v v v v v v v v v v v v v v ",
"v v v v v v v v v v v v v v v v v v v v v v v v v v v v v v v v H V O.O.O.O.O.O.O.V K v v v v v v v v v v v v v v v v v v v v v ",
"v v v v v v v v v v v v v v v v v v v v v v v v v v v v v K H H F #.;.>.>.>.;.;.;.$.J l v v v v v v v v v v v v v v v v v v v v ",
"v v v v v v v v v v v v v v v v v v v v v v v v v v v v v V $.$.#.1.{.-X;X;X{.1.;./ e m v v v v v v v v v v v v v v v v v v v v ",
"v v v v v v v v v v v v v v v v v v v v v v v v v v v l n O.>.,.[.oX;XyXyX,XoX1.;.E T N v v v v v v v v v v v v v v v v v v v v ",
"v v v v v v v v v v v v v v v v v v v v v v v v v v v n > :.[.-X,XyXyXuX<XoX1.;.E T = C P v v v v v v v v v v v v v v v v v v v ",
"v v v v v v v v v v v v v v v v v v v v v v v v v l n N E 1.-XtXuXuXuXuX;X[.:.W N N N M v v v v v v v v v v v v v v v v v v v v ",
"v v v v v v v v v v v v v v v v v v v v v v v v v n > E / oXuXuXuXuXuXuX;X[.+.> M L I v v v v v v v v v v v v v v v v v v v v v ",
"v v v v v v v v v v v v v v v v v v v v v v v l M N - Q ,.{.-X-X-X-X-X-X{.>.+.W N M k c v v v v v v v v v v v v v v v v v v v v ",
"v v v v v v v v v v v v v v v v v v v v v v v G e = T +.[.}.}.[.[.[.}.}.,./ / / R , G v v v v v v v v v v v v v v v v v v v v v ",
"v v v v v v v v v v v v v v v v v v v v v v v G e R E o.b.n.V.v.b.b.v.V.v.t ^ / R e G v v v v v v v v v v v v v v v v v v v v v ",
"v v v v v v v v v v v v v v v v v v v v v v H n r r ^ Z i.g.l.i.0.e.a.l.a.0.y ~ - r n H v v v v v v v v v v v v v v v v v v v v ",
"v v v v v v v v v v v v v v v v v v v v v v m , 0 q t i.g.l.l.i.e.g.l.l.a.0.t q q 0 r m v v v v v v v v v v v v v v v v v v v v ",
"v v v v v v v v v v v v v v v v v v l n n n r 0 5 9.i.d.A.Z.~.Z.C.~.G.A.v.t t 6 5 0 - , M G v v v v v v v v v v v v v v v v v v ",
"v v v v v v v v v v v v v v v v v v n > - - 0 5 9.i.g.V.}.>X1X1X1X1X>X}.,./ y 8.5 0 - = - m v v v v v v v v v v v v v v v v v v ",
"v v v v v v v v v v v v v v v v v v n - R E @.&.D.Y.).2X-X,XuXuXuXuXtX;X{.,.&.Z &.#.;.Q = m v v v v v v v v v v v v v v v v v v ",
"v v v v v v v v v v v v v v v v v v n - E ;.,.oX,XuXuXuXuXuXuXuXuXuXuXuX;X[.>.;.].[.[.:.T m v v v v v v v v v v v v v v v v v v ",
"v v v v v v v v v v v v v v v v v v H M N E ;.1.oX<XyXuXuXuXuXuXyX;X:X:X{.>./ Q ;.>.>.+.T m v v v v v v v v v v v v v v v v v v ",
"v v v v v v v v v v v v v v v v v v v v m > @.<.1.{.;X,X,X,X,X,X;X[.].].>./ ~ ~ / / / W > m v v v v v v v v v v v v v v v v v v ",
"v v v v v v v v v v v v v v v v v v v v H J N.m.#.+.;.,.4.4.4.<.;.+.Q Q E R &.m.^ R R N n H v v v v v v v v v v v v v v v v v v ",
"v v v v v v v v v v v v v v v v v v v v v v s.B.e = r #.}.<.W ^ o.o.~ = ~ 7.m.C.&.^ e C v v v v v v v v v v v v v v v v v v v v ",
"v v v v v v v v v v v v v v v v v v v v v v s.u.* * Z Y.iX5.& c.Z.Z.c.& 3.iXY.v.C.V.u.A v v v v v v v v v v v v v v v v v v v v ",
"v v v v v v v v v v v v v v v v v v v v v v U A @ o w P.aXS.& m.(.^.n.o S.aXT.u.B.B.s.U v v v v v v v v v v v v v v v v v v v v ",
"v v v v v v v v v v v v v v v v v v v v v v v j O     3.aXS.& I.5X^.n.o S.aXT.u.u.u.I v v v v v v v v v v v v v v v v v v v v v ",
"v v v v v v v v v v v v v v v v v v v v v v v l 4 X   &.6XT.P.3X8X5X~.c.I.6XF.t.A A x v v v v v v v v v v v v v v v v v v v v v ",
"v v v v v v v v v v v v v v v v v v v v v v v x 8 5 . Z G.`.8X8X9X9X5X^.W.W.B.t.t 8 x v v v v v v v v v v v v v v v v v v v v v ",
"v v v v v v v v v v v v v v v v v v v v v v g f 0.9.5 y n.W.`.0X9X9X5X^.Z.B.t.9.0.0.f g v v v v v v v v v v v v v v v v v v v v ",
"v v v v v v v v v v v v v v v v v v v v v v f 7 q.p.9.9.t.v.C./.3X3X/.C.v.t.9.9.p.q.7 f v v v v v v v v v v v v v v v v v v v v ",
"v v v v v v v v v v v v v v v v v v v v v v f 7 q.f.p.0.t w r %.B.B.%.r w 8 0.p.f.q.7 f v v v P J.b v v v v v v v v v v v v v v ",
"v v v v v v v v v v v v v v v v v v v v G D V Z r.q.q.9.3 1 1 t y.y.t 1 1 3 9.q.q.r.Z V D G v v P P L v v v P J.b v v v v v v v ",
"v v v v v v v v v v v v v v v v v v v v S '  .2.Z 7 7 3 . 1 6 w.j.j.w.6 1 . 3 7 7 Z 2. .' S v v c v P v v b J.b v v v v v v v v ",
"v v v v v v v v v v v v v v v v v v v v m # '.+X2.O.e *   * e Z %.%.Z e *   * e O.2.+X'.# m v v v c z c b P P v v v v v v v v v ",
"v v v v v v v v v v v v v v v v v v v v p   .X&XOX..] #   $ _ _ _ _ _ _ $   # } ..OX&X.X  p v v v v v v b P c c v v v v v v v v ",
"v v v v v v v v v v v v v v v v v v v v p   .X&XOX..] ) ! : : ) ' ' ) ; $ # ( } ..OX&X.X  p v v v v v v c z c v v v v v v v v v ",
"v v v v v v v v v v v v v v v v v v v v p   ].%XXX..[ :.6.3.5.5.L.5.-.C O.:.[ [ ..XX%X].  p v v v v v v v v v v v v v v v v v v ",
"v v v v v v v v v v v v P b v v v v v v p   ' X.| :.M.M.I.3XwXeXrX7X(.~._._.I.M.2.| X.'   p v v v v v v v v v v v v v v v v v v ",
"v v v v v v v v v v v v b L v v v v v v s O ; Y _ *.U.U.N.U.6X6XwXwXwX5X`.0X5XU.*.( Y ; O s v v v v v v v v v v v v v v v v v v ",
"v v v v v v v v P J.P b c c v v v v v v z j + % Y 2.3X0XR.T.eXqXeXrXpXqX_.8X8X3X2.Y % + j l v v v v v v v v v v v v v v v v v v ",
"v v v v v v v v v L P P c z c P J.P v v v v s + ; *.3X8XI.T.6XwXwX6X4X4X_.8X9X3X*.; + s v v v v v v v v v v v v v v v v v v v v ",
"v v v v v v b P P c v L v c v P P b v v v v v j O C 3X5X~.5XpXsXsXeX(./.3X8X9X3XC O j v v v v v v v v v v v v v v v v v v v v v ",
"v v v v v v v b P P c c v b P L v v v v v v v l 4 y B.W.Q.A.m.M.=.-.&.=.N.Z.Z.n.r O j v v v v v v v v v v v v v v v v v v v v v ",
"v v v v v v v c c L v c z c b c c v v v v v v x 9 6 8 r.k.p.p.p.r.W #   1 6 6 5 X O j v v v v v v v v v v v v v v v v v v v v v ",
"v v v v v v v v c c v v c z z c v v v v v v v z 4 w d.x.H.z.h.h.y.r %   2 6 6 5 X O j v v v v v v v v v v v v v v v v v v v v v ",
"v v v v v v v v v c c b L v v v v v v v v v v j O w Q.!.!.z.j.p.0.@   . * w q q & < s k v v v v v v v v v v v v v v v v v v v v ",
"v v v v v v v v v v v b c c v v v v v v v v v j O w Q.!.z.k.p.0.5 .     ; ) ) ! ! : < p v v v v v v v v v v v v v v v v v v v v ",
"v v v v v v v v v v v c c v v v v v v v v v v j O w x.z.h.j.p.9.3 .     $ _ } | | ] $ < s j v v v v v v v v v v v v v v v v v v ",
"v v v v v v v v v v v v v v v v v v v v v v v j O 0 p.h.h.j.p.9.3 .     $ _ X.|.|...` # o p v v v v v v v v v v v v v v v v v v ",
"v v v v v v v v v v v v v v v v v v v v v v v k i W =.M.M.M.=.w X .     % $ ) ] ] ) # %   p v v v v v v v v v v v v v v v v v v ",
"v v v v v v v v v v v v v v v v v v v v v v v G { } |. X X XK.u                           p v v v v v v v v v v v v v v v v v v ",
"v v v v v v v v v v v v v v v v v v v v v v D {  .|.#X$X$XOXK.u o a p p p p p p p p p p p j v v v v v v v v v v v v v v v v v v ",
"v v v v v v v v v v v v v v v v v v v v K G { } |.+X*X=X=X#XK.u O h v v v v v v v v v v v v v v v v v v v v v v v v v v v v v v ",
"v v v v v v v v v v v v v v v v v v v v D {  .|.#X&X=X=X=X#XK.u O h v v b J.b v v v v v v v v v v v v v v v v v v v v v v v v v ",
"v v v v v v v v v v v v v v v v v v v v S _ | |.+X%X@X@X+XXX| i a j v v v P P L v v v P J.b v v v v v v v v v v v v v v v v v v ",
"v v v v v v v v v v v v v v v v v v v v S _ ` } } } } ' : ; < d k c v v v c v P v v b J.b v v v v v v v v v v v v v v v v v v v ",
"v v v v v v v v v v v v v v v v v v v v F B B B B B O.N + + a j v v v v v v c z c b P P v v v v v v v v v v v v v v v v v v v v ",
"v v v v v v v v v v v v v v v v v v v v v c c c c c c c c c v v v v v v v v v v v b P c c v v v v v v v v v v v v v v v v v v v ",
"v v v v v v v v v v v v v v v v v v v v v v v v v v v v v v v v v v v v v v v v v c z c v v v v v v v v v v v v v v v v v v v v ",
"v v v v v v v v v v v v v v v v v v v v v v v v v v v v v v v v v v v v v v v v v v v v v v v v v v v v v v v v v v v v v v v v ",
"v v v v v v v v v v v v v v v v v v v v v v v v v v v v v v v v v v v v v v v v v v v v v v v v v v v v v v v v v v v v v v v v ",
"v v v v v v v v v v v v v v v v v v v v v v v v v v v v v v v v v v v v v v v v v v v v v v v v v v v v v v v v v v v v v v v v "
};
