/* XPM */
static const char *Q29sX1JfMw__[] = {
/* columns rows colors chars-per-pixel */
"64 64 231 2 ",
"   c #191A19",
".  c #0F130B",
"X  c #271C19",
"o  c #371E18",
"O  c #1E2418",
"+  c #242418",
"@  c #2B271B",
"#  c #35291C",
"$  c #33331A",
"%  c #3C3D19",
"&  c #39361B",
"*  c #2B2C11",
"=  c #191F22",
"-  c #161E20",
";  c #1A2527",
":  c #1D353E",
">  c #1E373A",
",  c #1B2C32",
"<  c #262928",
"1  c #362923",
"2  c #2D263D",
"3  c #2A2A39",
"4  c #352A39",
"5  c #223737",
"6  c #3B3838",
"7  c #333629",
"8  c #201D23",
"9  c #482319",
"0  c #5B3419",
"q  c #532C1A",
"w  c #662919",
"e  c #702818",
"r  c #7C2D1C",
"t  c #77351A",
"y  c #6E311E",
"u  c #462C28",
"i  c #592C25",
"p  c #483527",
"a  c #56382A",
"s  c #473A39",
"d  c #553C34",
"f  c #492D34",
"g  c #642C21",
"h  c #673528",
"j  c #673B33",
"k  c #7A3828",
"l  c #3A4429",
"z  c #42441B",
"x  c #494B1A",
"c  c #4A4D18",
"v  c #5A5C1A",
"b  c #54561B",
"n  c #514A1B",
"m  c #69521B",
"M  c #5F611A",
"N  c #64651B",
"B  c #6B6D1C",
"V  c #68681A",
"C  c #72691C",
"Z  c #6E721B",
"A  c #72751B",
"S  c #75791F",
"D  c #7C761E",
"F  c #554929",
"G  c #54532B",
"H  c #5B5A28",
"J  c #494532",
"K  c #444235",
"L  c #525036",
"P  c #694836",
"I  c #774836",
"U  c #7B5437",
"Y  c #6B512B",
"T  c #58662F",
"R  c #556530",
"E  c #636423",
"W  c #686B24",
"Q  c #777A21",
"!  c #7A7C22",
"~  c #757425",
"^  c #636334",
"/  c #746B29",
"(  c #1E3A45",
")  c #1E3D49",
"_  c #332C45",
"`  c #383649",
"'  c #3C3552",
"]  c #3E3B57",
"[  c #273244",
"{  c #423C5A",
"}  c #493B52",
"|  c #48394B",
" . c #6C3E41",
".. c #1F414E",
"X. c #1F4351",
"o. c #28484A",
"O. c #204858",
"+. c #264751",
"@. c #295857",
"#. c #374D4E",
"$. c #3C6657",
"%. c #275963",
"&. c #325C62",
"*. c #2C696E",
"=. c #2A6468",
"-. c #37686A",
";. c #327878",
":. c #316E6E",
">. c #57594C",
",. c #484359",
"<. c #594957",
"1. c #425A59",
"2. c #4E514C",
"3. c #6A5848",
"4. c #755452",
"5. c #724E46",
"6. c #6D6F49",
"7. c #454260",
"8. c #494A67",
"9. c #4A516A",
"0. c #515572",
"q. c #555C76",
"w. c #555369",
"e. c #615669",
"r. c #58627D",
"t. c #4A756D",
"y. c #687E73",
"u. c #6B6D6F",
"i. c #4F605D",
"p. c #86361D",
"a. c #983C1D",
"s. c #873625",
"d. c #963926",
"f. c #A63D29",
"g. c #845639",
"h. c #894932",
"j. c #A84628",
"k. c #B6452D",
"l. c #B65631",
"z. c #887734",
"x. c #B2532E",
"c. c #C54931",
"v. c #CA5A30",
"b. c #C56B3B",
"n. c #D96737",
"m. c #CF6833",
"M. c #8D5B48",
"N. c #AE5641",
"B. c #98674C",
"V. c #956856",
"C. c #896F54",
"Z. c #A87756",
"A. c #BB7C58",
"S. c #AA6A4C",
"D. c #906F66",
"F. c #B07F66",
"G. c #DD7341",
"H. c #D27C53",
"J. c #C16B46",
"K. c #7E8125",
"L. c #38837E",
"P. c #48837C",
"I. c #788979",
"U. c #B18B37",
"Y. c #B48557",
"T. c #958E69",
"R. c #A98566",
"E. c #B88868",
"W. c #BA906F",
"Q. c #90865B",
"!. c #C78A56",
"~. c #EE944E",
"^. c #EB8F4C",
"/. c #CB8962",
"(. c #D08A62",
"). c #D59B75",
"_. c #D4956A",
"`. c #D9A376",
"'. c #E3B17E",
"]. c #367E80",
"[. c #5C6983",
"{. c #676C84",
"}. c #62758D",
"|. c #69778C",
" X c #657991",
".X c #6B7E94",
"XX c #70788B",
"oX c #398987",
"OX c #3B928D",
"+X c #469897",
"@X c #4F8C88",
"#X c #6D8298",
"$X c #78869A",
"%X c #4D9EA5",
"&X c #7B90A3",
"*X c #53AAAE",
"=X c #56ABB3",
"-X c #5CB3BC",
";X c #4CA5A5",
":X c #64A7A7",
">X c #63BCC5",
",X c #66C3CC",
"<X c #6CC8D4",
"1X c #70CFDC",
"2X c #73D1DF",
"3X c #75D4E3",
"4X c #78D8E7",
"5X c #91878A",
"6X c #B19A87",
"7X c #8A9FAF",
"8X c #8498A9",
"9X c #8EA3B2",
"0X c #97ACB9",
"qX c #B7AFAA",
"wX c #AEB0B1",
"eX c #D0AB8B",
"rX c #E7B786",
"tX c #E2BA9B",
"yX c #DCBAA1",
"uX c #F3CA93",
"iX c #EDC18D",
"pX c #D6C4AC",
"aX c #E4C3A5",
"sX c #E5CAB1",
"dX c #E8D4BB",
"fX c #9FB5C1",
"gX c #A5BBC6",
"hX c #A2B7C2",
"jX c #ACC2CB",
"kX c #EDDBC4",
"lX c #EDE1CF",
/* pixels */
"A A A A A A A A A A A A A A A A A A A A A A A A A A A A A A A A A A A A A A A A A A A A A A A A A A A A A A A A A A A A A A A A ",
"A A A A A A A A A A A A A A A A A A A A A A A A A A A A A A A A A A A A A A A A A A A A A A A A A A A A A A A A A A A A A A A A ",
"A A A A A A A A A A A A A A A A A A A W H H ^ ^ ^ ^ ^ 6.~ A A A A A A A A A A A A A A A A A A A A A A A A A A A A A A A A A A A ",
"A A A A A A A A A A A A A A A A A A A G 4 | ,.,.,.,.w.|.6.A A A A A A A A A A A A A A A A A A A A A A A A A A A A A A A A A A A ",
"A A A A A A A A A A A A A A A A A A A G 2 ' 7.0.r.XX$X8XI.6.6.^ W A A A A A A A A A A A A A A A A A A A A A A A A A A A A A A A ",
"A A A A A A A A A A A A A A A A A A A G 2 ' 8.[.&XhXjXjX7X}.0.2.W A A A A A A A A A A A A A A A A A A A A A A A A A A A A A A A ",
"A A A A A A A A A A A A A A A A A A A E G s ] r.#X&X0XjXfX7X|.q.>.^ A A A A A ! S A A A A A A A A A A A A A A A A A A A A A A A ",
"A A A A A A A A A A A A A A A A A A A A A J _ 0.}.}.8XjXjXgX8X}.0.2.E B A A A A Q A A A A A A A A A A A A A A A A A A A A A A A ",
"A A A A A A A A A A A A A A A A A A A A A J _ ,.q.}.8XjXjXjXfX7X|.w.s H K.! A B Z A A A A A A A A A A A A A A A A A A A A A A A ",
"A A A A A A A A A A A A A A A A A A A A A J _ ,.r.#X9XjXjXjXfX9X#Xq.` J C W C B V Z ! K.! A A A A A A A A A A A A A A A A A A A ",
"A A A A A A A A A A A A A A A A A A A A A J _ 0.#X0XgXjXjXgX8X#X Xr.7.d 0 0 m C Z A Q ! S A A A A A A A A A A A A A A A A A A A ",
"A A A A A A A A A A A A A A A A A A A E G s ] r.#X7X9X9X9X7X5XD.C.4.5.j e i u F G H H G E A A A A A A A A A A A A A A A A A A A ",
"A A A A A A A A A A A A A A A A A A A G 2 ' 8.[. X X X X XXXS.v.j.a.a.a.a.i 2 2 2 2 2 2 G A A A A A A A A A A A A A A A A A A A ",
"A A A A A A A A A A A A A A A A A A A H u f d <.3.4.4.<.4.M.b.m.v.l.l.h. .<.9.9.8.] _ 2 G A A A A A A A A A A A A A A A A A A A ",
"A A A A A A A A A A A A A A A A A A B m q q q w e p.r w p.j.v.n.n.n.m.M.9.[..X X[.8.' 2 G A A A A A A A A A A A A A A A A A A A ",
"A A A A A A A A A A A A A A A A A E J s 4 u w t r t t p.j.v.m.n.n.J.D.5X8X9X9X#X[.8.' 2 G A A A A A A A A A A A A A A A A A A A ",
"A A A A A A A A A A A A A A W E E G _ _ _ f i k k j I h.S.H.H.H.H.E.$X9XjXgX9X.Xq.,.` 6 H A A A A A A A A A A A A A A A A A A A ",
"A A A A A A A A A A A A A B F 6 6 ` ] { { } } } <.e.u.u.5XqXqXqXqXwX0XgXjX9X.Xq.7._ K E B A A A A A A A A A A A A A A A A A A A ",
"A A A A A A A A A A A A A B K _ _ ] 9.q.{.{.{.{.XX$X&X&X0XjXjXjXjXjXjXhX9X#Xq.7.| s G A A A A A A A A A A A A A A A A A A A A A ",
"A A A A A A A A A A A A A B K _ ] 9.[.&XhXhXhXhXhXgXgXgXjXjXjXjXjXjXjX9X.Xq.,._ 6 E Z A A A A A A A A A A A A A A A A A A A A A ",
"A A A A A A A A A A A A A Z H J ` ] 9.{.$X8X7X7X7X7X7X7X7X7X7X8X$X$X$X{.9.{ ` J G B A A A A A A A A A A A A A A A A A A A A A A ",
"A A A A A A A A A A A A A A A E 6 2 2 ` 7.q.}.}.}.}.}.}.}.}.}.[.8.{ 7.' 2 2 6 H A A A A A A A A A A A A A A A A A A A A A A A A ",
"A A A A A A A A A A A A A A A B H J 2 _ ` ] 8.9.0.0.0.0.0.0.8.,.' <.V.V.M.s < v A A A A A A A A A A A A A A A A A A A A A A A A ",
"A A A A A A A A A A A A A A A A A H 6 4 3 4 _ ' { <.e.e.e.e.,.| 4 5.A.(.(.P + v A A A A A A A A A A A A A A A A A A A A A A A A ",
"A A A A A A A A A A A A A A A A A B E z 8 f j 4 s V.W.eXeXeXF.B.5.U M./.rX3.+ v A A A A A A A A A A A A A A A A A A A A A A A A ",
"A A A A A A A A A A A A A A A A A A A x   u a @ p S._.rXuXuX`./.F.V.P R.uXC.p M A A A A A A A A A A A A A A A A A A A A A A A A ",
"A A A A A A A A A A A A A A A A A A A x   X X   1 g.S._.rXuX`.).sX6X7 C.uXZ.I C A A A A A A A A A A A A A A A A A A A A A A A A ",
"A A A A A A A A A A A A A A A A A A A v % +     @ a U S._.'._._.tX6XU Z.'.Z.g./ A A A A A A A A A A A A A A A A A A A A A A A A ",
"A A A A A A A A A A A A A A A A A A A A B %         u g.S.(.(.(.(.(././.(.S.g./ A A A A A A A A A A A A A A A A A A A A A A A A ",
"A A A A A A A A A A A A A A A A A A A A A v z +     % p a P P M.A.(.(.A.S.I a V A A A A A A A A A A A A A A A A A A A A A A A A ",
"A A A A A A A A A A A A A A A A A A A A A A N $ X 0 h # & p @ u B.A.A.B.I u + v A A A A A A A A A A A A A A A A A A A A A A A A ",
"A A A A A A A A A A A A A A A A A A A A A A N $ 9 s.j.x.I p $.2.d d d a 1 @   $ A A A A A A A A A A A A A A A A A A A A A A A A ",
"A A A A A A A A A A A A A A A A A A A A A A N $ 9 s.l.^.l.d.2.;.+XP.o.>   - ; l A A A A A A ~ Q ! ~ ~ A A A A A A A A A A A A A ",
"A A A A A A A A A A A A A A A A A A A A A A N $ 0 r j.v.k.f.t t.>X<X-X=.; . G A A A A Q ~ C.T.T.T.T.Q.z.A A ! K.S A A A A A A A ",
"A A A A A A A A A A A A A A A A A A A A A A N $ w r d.h.k r g p $.@X<X+X@.. c A A A ! U.Y.).yXdXdXaXeXZ.N Q K.S A A A A A A A A ",
"A A A A A A A A A A A A A A A A A A A A A A N $ p i j >.>.P P 1.$.$.,X3X@XO * Z Z V Q !.'.aXaXaXtXtXR.Y N Q Q A A A A A A A A A ",
"A A A A A A A A A A A A A A A A A A A A A A N $ +.` #.-.L.P.@X+X@X:.@X1X=Xo.. v x % b / pXkXdXsXaXsXT.E Q ! Z Z A A A A A A A A ",
"A A A A A A A A A A A A A A A A A A A A A A N $ ( O.O.=.L.+X>X,X-X+Xt.<X<X@.. & a u 1 J 6XeXtXaXaXtXW./ Z Z Z A A A A A A A A A ",
"A A A A A A A A A A A A A A A A A A A A A A B v l +.O.%.oX*X<X4X3X<X%X*X3X-.; P g.U P d D.).sXlXlXkXrXY.Q A A A A A A A A A A A ",
"A A A A A A A A A A A A ! S A A A A A A A A A A b ` #.%.;.*X1X4X4X4X<X%X-X*.i.V.Y.Y.B.g.P P 3.3.6.6.z.U.z.A A A A A A A A A A A ",
"A A A A A A A A A A A A S Q A A A A A A A A A A v # 2.&.*.+X=X,X3X4X<X=XOXP.y.E.).rX`.Y.M.P 1 @ x V B A A A A A A A A A A A A A ",
"A A A A A A A A Q K.! S Z Z A A A A A A A A Z N x < K -.*.;.oX+X*X>X1X,X+X@XR./._.rXrX_.B.P @ $ N A A A A A A A A A A A A A A A ",
"A A A A A A A A A Q ! Q Z V Z ! K.! A A A A V % < ( +.1.1.&.*.;.oX+X;X%X@XI.E.(.(.'.iXE.M.a # x A A A A D A A A A A A A A A A A ",
"A A A A A A S ! Q Z A Q A Z A Q ! S A A A A N $ ; ..%.=.9.,.#.@.=.=.;.*.-.u.Z./.(.).`.Z.P 1 $ M A A A D D A A A A A A A A A A A ",
"A A A A A A A S ! Q Z Z A S Q Q A A A A A A N $ ; ..=.oXP.t.1.#.o.5 5 ( +.#.>.5.S.!.B.P F & x Z A A A A A A A A A A A A A A A A ",
"A A A A A A A Z Z Q A Z V Z S Z Z A A A A A N $ = , +.*.*.*.=.&.6 1 < < < 5 ; p F U H N V Z B A A A A A A A A A A A A A A A A A ",
"A A A A A A A A Z Z A A Z B B Z A A A A A Z v $     < +.+.+.+.` h r w y y 9 @ x v B A A A A A A A A A A A A A A A A A A A A A A ",
"A A A A A A A A A Z Z S Q A A A A A A A A c $ + X 9 i a 4 < u h d.l.b.b.b.I q N A A A A A A A A A A A A A A A A A A A A A A A A ",
"A A A A A A A A A A A S Z Z A A A A A B v & ; ; 1 w e e 9 o 9 e k.n.^.~.~.l.p.m C A A A A A A A A A A A A A A A A A A A A A A A ",
"A A A A A A A A A A A Z Z A A A A A A b @ 5 ) ) 6 g e e w q o 9 f.n.^.~.~.m.j.p.m C A A A A A A A A A A A A A A A A A A A A A A ",
"A A A A A A A A A A A A A A A A A A A x   : O.O.` g e e e w o o s.l.G.^.~.n.k.p.t C W R R T W A A A A A A A A A A A A A A A A A ",
"A A A A A A A A A A A A A A A A A A A x   : O.O.` g e e e w o X w d.c.G.~.n.k.p.t C R +.+.#.T A A A A A A A A A A A A A A A A A ",
"A A A A A A A A A A A A A A A A A A A x   : O.O.o.s u 9 9 9 X X o y k.v.G.v.k.5.>.R $.*.%.+.R A A A A A A A A A A A A A A A A A ",
"A A A A A A A A A A A A A A A A A A A x   : O.O.O.O.:             i k.c.c.c.N.y.;.%.*.oX*.+.R A A A A A A A A A A A A A A A A A ",
"A A A A A A A A A A A A A A A A A A A x   : O.O.O.O.:   $ c c c c n i d.c.B.y.:X-X*X+XOX@.5 H A A A A A A A A A A A A A A A A A ",
"A A A A A A A A A A A A A A A A A A A x   : O.O.O.O.( ; z V Z A A b + h N.y.;X<X4X1X=XoXo.+ b A A A A A A A A A A A A A A A A A ",
"A A A A A A A A A A A A A A A A A A A x   : O.O.O.O.X.( 5 & v A A b + #.y.:X<X3X<X*XoX%.> + b A A A A A A A A A A A A A A A A A ",
"A A A A A A A A A A A A A A A B M v v %   , ( ( ( ( ( ( ,   z v v z   o.;.*X,X,X=XoX=.) 5 & v A A A A A A A A A A A A A A A A A ",
"A A A A A A A A A A A A A A A N & + + O     = = = = = =     + + + +   > %.].+X+XoX%.( ; z V Z A A A A A A A A A A A A A A A A A ",
"A A A A A A A A A A A A A A A V x % % % % % % % % % % % @             ; : +.@.@.@.( ,   $ c c c c v Z A A A A A A A A A A A A A ",
"A A A A A A A A A A A A A A A A A Z Z Z Z Z Z Z Z Z Z Z z                                         % B A A A A A A A A A A A A A ",
"A A A A A A A A A A A A A A A A A A A A A A A A A A A A v x x x x x x x x x x x x x x x x x x x x b Z A A A A A A A A A A A A A ",
"A A A A A A A A A A A A A A A A A A A A A A A A A A A A A A A A A A A A A A A A A A A A A A A A A A A A A A A A A A A A A A A A ",
"A A A A A A A A A A A A A A A A A A A A A A A A A A A A A A A A A A A A A A A A A A A A A A A A A A A A A A A A A A A A A A A A "
};
