/* XPM */
static const char *Q29sX0RfMg__[] = {
/* columns rows colors chars-per-pixel */
"64 64 235 2 ",
"   c #181918",
".  c #23241B",
"X  c #2B2918",
"o  c #32331A",
"O  c #3B3D19",
"+  c #3F3219",
"@  c #231F22",
"#  c #1B2629",
"$  c #1D2F31",
"%  c #242825",
"&  c #372923",
"*  c #393626",
"=  c #2D263E",
"-  c #262732",
";  c #322B3D",
":  c #372837",
">  c #253838",
",  c #3B3637",
"<  c #2E3223",
"1  c #201E1E",
"2  c #4E2A1B",
"3  c #6F321B",
"4  c #492B25",
"5  c #592C26",
"6  c #493B2A",
"7  c #423C33",
"8  c #413C3B",
"9  c #5A3C34",
"0  c #693727",
"q  c #773926",
"w  c #633E3A",
"e  c #743B34",
"r  c #6B2F23",
"t  c #3F401C",
"y  c #3B4428",
"u  c #3F413C",
"i  c #4A4B1B",
"p  c #454619",
"a  c #53541C",
"s  c #59591A",
"d  c #524E1B",
"f  c #73471B",
"g  c #67581C",
"h  c #64651B",
"j  c #666A1B",
"k  c #6B6D1C",
"l  c #666D17",
"z  c #736A1D",
"x  c #6D721B",
"c  c #72751B",
"v  c #76791F",
"b  c #7A761E",
"n  c #5C5C26",
"m  c #54532A",
"M  c #5C5829",
"N  c #4B4434",
"B  c #4A4734",
"V  c #595737",
"C  c #524A30",
"Z  c #65423D",
"A  c #754A36",
"S  c #6F5330",
"D  c #596530",
"F  c #626223",
"G  c #686926",
"H  c #7A6628",
"J  c #6D7122",
"K  c #767A20",
"L  c #797C22",
"P  c #767221",
"I  c #686237",
"U  c #1E3B46",
"Y  c #322B44",
"T  c #372E46",
"R  c #253F44",
"E  c #3A324B",
"W  c #38324C",
"Q  c #3B3753",
"!  c #2F2842",
"~  c #543B49",
"^  c #443E5E",
"/  c #453B54",
"(  c #4D3B44",
")  c #6C3E41",
"_  c #1F4452",
"`  c #2A4946",
"'  c #35544B",
"]  c #2A5759",
"[  c #344E50",
"{  c #38655A",
"}  c #285E64",
"|  c #2B696C",
" . c #357A76",
".. c #346B6C",
"X. c #4E4D47",
"o. c #5A4B48",
"O. c #575544",
"+. c #575A4A",
"@. c #44435E",
"#. c #535451",
"$. c #4F4F53",
"%. c #695549",
"&. c #7B5849",
"*. c #6E4C4A",
"=. c #586555",
"-. c #6D6352",
";. c #484665",
":. c #56556B",
">. c #545874",
",. c #58617B",
"<. c #547169",
"1. c #6C5B67",
"2. c #91391C",
"3. c #A03F1D",
"4. c #8D3C27",
"5. c #9F421F",
"6. c #864A38",
"7. c #90552F",
"8. c #B24926",
"9. c #BA5429",
"0. c #A85132",
"q. c #886E28",
"w. c #B06B37",
"e. c #A4421E",
"r. c #C5592A",
"t. c #C74C31",
"y. c #C95835",
"u. c #D5632F",
"i. c #C6793D",
"p. c #D16839",
"a. c #875947",
"s. c #855A51",
"d. c #844A42",
"f. c #986648",
"g. c #8D6053",
"h. c #8A6C58",
"j. c #99735B",
"k. c #926C53",
"l. c #AA6747",
"z. c #A16C58",
"x. c #A7775B",
"c. c #B67855",
"v. c #AD6C48",
"b. c #827264",
"n. c #937A65",
"m. c #817473",
"M. c #AC7E65",
"N. c #CB734A",
"B. c #E07843",
"V. c #7E8125",
"C. c #3A8178",
"Z. c #488479",
"A. c #B08734",
"S. c #8C8025",
"D. c #CF933D",
"F. c #988569",
"G. c #A6856B",
"H. c #A68A78",
"J. c #B18B6E",
"K. c #94855F",
"L. c #C8845D",
"P. c #CC8C4A",
"I. c #E98F4C",
"U. c #D2A24A",
"Y. c #C38968",
"T. c #D49D7A",
"R. c #CF956F",
"E. c #D7A27B",
"W. c #DFAE6F",
"Q. c #E2B04B",
"!. c #65758C",
"~. c #717A8A",
"^. c #657991",
"/. c #6D778D",
"(. c #5B6782",
"). c #389089",
"_. c #378B84",
"`. c #479196",
"'. c #798498",
"]. c #6D8197",
"[. c #5BA4AD",
"{. c #54ABAF",
"}. c #7F91A2",
"|. c #62BFC7",
" X c #6DCBD7",
".X c #75D5E4",
"XX c #A99687",
"oX c #AF9B8D",
"OX c #B6A491",
"+X c #8598A9",
"@X c #909EAE",
"#X c #8FA4B3",
"$X c #96AAB6",
"%X c #B0B0AF",
"&X c #9C9394",
"*X c #D8A887",
"=X c #CCB59C",
"-X c #DCB698",
";X c #C9A88C",
":X c #E6B38D",
">X c #E2BC9B",
",X c #E2B895",
"<X c #E0AE8B",
"1X c #CCBAA3",
"2X c #D2BBA2",
"3X c #D7BEA6",
"4X c #E1BEA2",
"5X c #E7C29A",
"6X c #D4C1A5",
"7X c #DAC6AE",
"8X c #D7C3A9",
"9X c #C9C9BC",
"0X c #DCCBB2",
"qX c #DBC9B4",
"wX c #DFD1BD",
"eX c #E3C2A3",
"rX c #E7C8AB",
"tX c #E2CBB3",
"yX c #E6D4BA",
"uX c #F2D7BA",
"iX c #F3CDAE",
"pX c #A6BAC4",
"aX c #ACC2CC",
"sX c #EDDBC5",
"dX c #E4DBCB",
"fX c #E7D7C4",
"gX c #E8DDCD",
"hX c #ECE2CA",
"jX c #F5E4CB",
"kX c #EBE5D5",
"lX c #EDECDB",
"zX c #F2E9D7",
"xX c #F8F3DC",
"cX c #F9F5E3",
"vX c #DDD0C3",
/* pixels */
"c c c c c c c c c c c c c c c c c c c c c c c c c c c c c c c c c c c c c c c c c c c c c c c c c c c c c c c c c c c c c c c c ",
"c c c c c c c c c c c c c c c c c c c c c c c c c c c c c c c c c c c c c c c c c c c c c c c c c c c c c c c c c c c c c c c c ",
"c c c c c c c c c c c c c c c c c c c c c c c c c c c c c c c c c c c c c c c c c c c c c c c c c c c c c c c c c c c c c c c c ",
"c c c c c c c c c c c c c c c c c c c c c c c c c c c c c c c c c c c c c c c c c c c c c c c c c c c c c c c c c c c c c c c c ",
"c c c c c c c c c c c c c c c c c c c c c c c c c c c c c c c c c c c c c c c c c c c c c c c c c c c c c c c c c c c c c c c c ",
"c c c c c c c c c c c c c c c c c c c c c c c c c c c c c c c I O.O.O.O.O.O.O.O.O.V J c c c c c c c c c c c c c c c c c c c c c ",
"c c c c c c c c c c c c c c c c c c c c c c c c c c c x G G G #.;.:.>.>.>.>.;.;.;.$.F k c c c c c c c c c c c c c c c c c c c c ",
"c c c c c c c c c c c c c c c c c c c c c c c c c c c I X.$.#.>.!.+X@X@X@X@X/.,.;./ 8 m c c c c c c c c c c c c c c c c c c c c ",
"c c c c c c c c c c c c c c c c c c c c c c c c c k F V @.;.>./.+XpXaXaXpX$X'.,.;.Q ! B c c c c c c c c c c c c c c c c c c c c ",
"c c c c c c c c c c c c c c c c c c c c c c c c c F 7 E ^ >.!.@XpXaXaXaX#X].,.;.W ! = B K c c c c c c c c c c c c c c c c c c c ",
"c c c c c c c c c c c c c c c c c c c c c c c x n B ; Q >.(.^.+X#X#X#X#X'.>.;.E Y ; N n v c c c c c c c c c c c c c c c c c c c ",
"c c c c c c c c c c c c c c c c c c c c c c c G 7 = = @.!.^.^.^.^.^.^.^.>.;.W = = 7 G c c c c c c c c c c c c c c c c c c c c c ",
"c c c c c c c c c c c c c c c c c c c c c c c j 7 Y W o.&.g.z.g.s.s.g.z.s.e ~ W Y 7 F x c c c c c c c c c c c c c c c c c c c c ",
"c c c c c c c c c c c c c c c c c c c c c c x F 7 T / ) 5.9.u.8.3.3.8.u.9.2.) / T , F x c c c c c c c c c c c c c c c c c c c c ",
"c c c c c c c c c c c c c c c c c c c c c c m 7 4 5 e 0.r.u.u.8.e.9.r.u.9.2.0 5 4 4 7 m c c c c c c c c c c c c c c c c c c c c ",
"c c c c c c c c c c c c c c c c c c c c J F 6 : 5 3 5.9.N.N.N.l.l.N.N.N.0.4.3 3 5 4 : 7 F k c c c c c c c c c c c c c c c c c c ",
"c c c c c c c c c c c c c c c c c c c c M , 4 5 q 5.r.l.m.&X%X%X%X%X&Xm.1.~ e 2.3 4 : ; , M c c c c c c c c c c c c c c c c c c ",
"c c c c c c c c c c c c c c c c c c k n B W ( *.g.x.Y.H.+X$XaXaXaXaX$X+X(.^ w q w ~ E Y = m c c c c c c c c c c c c c c c c c c ",
"c c c c c c c c c c c c c c c c c c n , E ^ >./.@X%X%XpXpXpXaXaXaXaXaXpX'.^ E E :.,.;.Q = m c c c c c c c c c c c c c c c c c c ",
"c c c c c c c c c c c c c c c c c c M ; Q >.>.,.!.~.~.~.'.'.'.~.~.~.~.~.:.Q o.*.:.;.Q Q E V c c c c c c c c c c c c c c c c c c ",
"c c c c c c c c c c c c c c c c c c M ; ;.!.>.Q Y = = E ^ @.^ E ; ; ; = = ; g.c.o.; ; E ^ V c c c c c c c c c c c c c c c c c c ",
"c c c c c c c c c c c c c c c c c c M ; W @.Q Y - & 9 *.*.*.*.s.g.g.a.Z w Z z.L.z.g.g.*.E V c c c c c c c c c c c c c c c c c c ",
"c c c c c c c c c c c c c c c c c c n , , , : : @ & A a.k.a.6.c.L.L.c.A a.k.c.L.L.L.L.s., m c c c c c c c c c c c c c c c c c c ",
"c c c c c c c c c c c c c c c c c c k F n F S w & & A M.1Xb.6 f.L.L.f.6 b.1XJ.f.c.c.l.7.F G c c c c c c c c c c c c c c c c c c ",
"c c c c c c c c c c c c c c c c c c c c c c H S & & 9 h.OXb.o.h.G.x.h.o.b.OXn.&.f.f.7.H v c c c c c c c c c c c c c c c c c c c ",
"c c c c c c c c c c c c c c c c c c c c c c v G 6 * C h.G.H.XXoXOXoXXXXXXXXXH.n.j.g.H P c c c c c c c c c c c c c c c c c c c c ",
"c c c c c c c c c c c c c c c c c c c c c c L q.H S h.J.;X2XvXdXgXgXdXdXfXfXtX3X;Xx.H k c c c c c c c c c c c c c c c c c c c c ",
"c c c c c c c c c c c c c c c c c c c c c v S.A.A.j.J.T.T.*XtXgXkXkXhXuXuXiXrX:XT.Y.S F k c c c c c c c c c c c c c c c c c c c ",
"c c c c c c c c c c c c c c c c c c c c v q.A.U.U.P.E.E.E.T.-X4XeXeX-X,X<X<XE.Y.z.a.M s j c c c c c c c c c c c c c c c c c c c ",
"c c c c c c c c c c c c c c c c c c c c v q.A.D.Q.W.>XrXeX>XeXeXeX>X>X,X,X:XT.j.A Z d s j c c c c c c c c c c c c c c c c c c c ",
"c c c c c c c c c c c c c c c c c c c c v q.q.A.U.5XuXfXtXeXyXeX-X3X8X-XeXrX;Xj.e 0 0 g l c c c c c c c c c c c c c c c c c c c ",
"c c c c c c c c c c c c c c c c c c c c J G S 7.c.tXkXdX7X2X0X2X=X3X7X2XtXsX=Xj.A 0 0 m G J c c c c c c c c c c c c c c c c c c ",
"c c c c c c c c c c c c c c c c c c c c D ' ' $.-.9XkXdX7X1X2X2X2X2X7X7XwXhX1Xn.N u [ ' ' D c L V.v c c c c c c c c c c c c c c ",
"c c c c c c c c c c c c c c c c c c c c m R ] ..<.9XkXdXqX=X2X6X2X2X7X0XwXhX6Xn.X.' { ] ` m c c L L K v c c L V.v c c c c c c c ",
"c c c c c c c c c c c c c c c c c c c c i % { Z.<.9XkXdX3X=X0X0X2X=X6XyXtXhX6XF.=.{ C.{ % i c c x c K v c v V.v c c c c c c c c ",
"c c c c c c c c c c c c c c c c c c c c i . ' <.<.9XkXdX3X=X6X8X8X6X8X0X0XhX6XG.=.{ ..' . i c c c x l x v K K v c c c c c c c c ",
"c c c c c c c c c c c c c c c c c c c c i . R { <.9XlXkXwX7X0XtXyXyXyXwXfXhX6XH.=.{ ] > . i c c c c c c v K x x c c c c c c c c ",
"c c c c c c c c c c c c c c c c c c c c h a y ` =.9XlXcXlXzXzXzXhXsXfXyXdXzX6XH.+.` > y a h c c c c c c x l x c c c c c c c c c ",
"c c c c c c c c c c c c c c c c c c c c v v i * #.9XlXcXcXcXcXxXhXtX2X=X7XsX1XF.X.> < i v v c c c c c c c c c c c c c c c c c c ",
"c c c c c c c c c c c c L v c c c c c c v v j n -.9XkXzXjXjXjXjXuXuXrXrXrXrX;Xb., < a j v v c c c c c c c c c c c c c c c c c c ",
"c c c c c c c c c v c c v K v c c c c c c v v J I 1XtXeX>X>X5XeX>X>X>X-X-X*XR.h.N * h v v v c c c c c c c c c c c c c c c c c c ",
"c c c c c c c c K V.L v x x c c v c c c c v v G C OX-X*XE.*X,XeXeXeXeX4X-X-X*XJ.&.C F c v c c c c c c c c c c c c c c c c c c c ",
"c c c c c c c c c K L K x l x L V.L c c c v c F B XX*XT.T.*XrXsXsXsXsXsXsXyXrX*XG.A G c c c c c c c c c c c c c c c c c c c c c ",
"c c c c c c v L K x c K v x c K L v c c c v c F N J.T.T.E.>XsXzXzXzXzXzXzXsXiX:XR.v.q.z c c c c c c c c c c c c c c c c c c c c ",
"c c c c c c c v L K x x c v K K c c c c c c c G C g.M.Y.T.-X8X7X7X0X0X7X6X-X*XT.P.P.w.q.c c c c c c c c c c c c c c c c c c c c ",
"c c c c c c c x x K v x l x v x x c c c c c c z f 6.f.a.d.a.s.&.%.%.%.%.%.A 6.w.P.D.w.7.b c c c c c c c c c c c c c c c c c c c ",
"c c c c c c c c x x c c x l l x c c c c c c c z 3 6.w.w.7.6.q 0 4 & & & 4 2 A w.i.D.w.7.b c c c c c c c c c c c c c c c c c c c ",
"c c c c c c c c c x x v K c c c c c c c c c c z 3 q w.N.w.0.4.r 4 .     + 3 0.P.P.i.7.f v c c c c c c c c c c c c c c c c c c c ",
"c c c c c c c c c c c v x x c c c c c c c c c j 2 2 q 0.y.t.8.Z > #     5 8.p.I.I.i.4.f c c c c c c c c c c c c c c c c c c c c ",
"c c c c c c c c c c c x x c c c c c c c c c c l i + 2 0 6.6.d.$.] #     r t.B.I.I.p.2.f c c c c c c c c c c c c c c c c c c c c ",
"c c c c c c c c c c c c c c c c c c c c c c c c k a X - [ [ [  ...$     r t.B.I.p.8.3 f c c c c c c c c c c c c c c c c c c c c ",
"c c c c c c c c c c c c c c c c c c c c c c c l a y ` ] | | | | ] # # $ X.h.K.K.6.q f g c c c c c c c c c c c c c c c c c c c c ",
"c c c c c c c c c c c c c c c c c c c c c c c j o >  .).).)._.} U # $ _ | ).).C.> o h c c c c c c c c c c c c c c c c c c c c c ",
"c c c c c c c c c c c c c c c c c c c c c c c j o >  .).). .| R #   $ _ | ).{.{. .' y a c c c c c c c c c c c c c c c c c c c c ",
"c c c c c c c c c c c c c c c c c c c c c c c j o $ |  . .} U #     $ _ ..`.|. X{. .> y h l c c c c c c c c c c c c c c c c c c ",
"c c c c c c c c c c c c c c c c c c c c c c c j o # $ > > $ #       $ _ `. X X.X X{. .' o a c c c c c c c c c c c c c c c c c c ",
"c c c c c c c c c c c c c c c c c c c c c c h d X                   # U ..[.[.[.[.`. .`   i c c c c c c c c c c c c c c c c c c ",
"c c c c c c c c c c c c c c c c c c c c c c p .                       1 % > > > > > - #   i c c c c c c c c c c c c c c c c c c ",
"c c c c c c c c c c c c c c c c c c c c c c a O O o                 . O O O O O O O p p O s c c c c c c c c c c c c c c c c c c ",
"c c c c c c c c c c c c c c c c c c c c c c c x x s .               o j x x x x x v K k x c c c c c c c c c c c c c c c c c c c ",
"c c c c c c c c c c c c c c c c c c c c c c c c c j d i i i i i i i s x c c c c c l l x c c c c c c c c c c c c c c c c c c c c ",
"c c c c c c c c c c c c c c c c c c c c c c c c c c c c c c c c c c c c c c c c c c c c c c c c c c c c c c c c c c c c c c c c ",
"c c c c c c c c c c c c c c c c c c c c c c c c c c c c c c c c c c c c c c c c c c c c c c c c c c c c c c c c c c c c c c c c ",
"c c c c c c c c c c c c c c c c c c c c c c c c c c c c c c c c c c c c c c c c c c c c c c c c c c c c c c c c c c c c c c c c "
};
