/* XPM */
static const char *Q29sX1JfMg__[] = {
/* columns rows colors chars-per-pixel */
"64 64 232 2 ",
"   c #191A19",
".  c #251C1A",
"X  c #351E18",
"o  c #242518",
"O  c #2B221C",
"+  c #2B2B19",
"@  c #33231E",
"#  c #323319",
"$  c #3C3D19",
"%  c #373819",
"&  c #2F301A",
"*  c #191F22",
"=  c #1A2529",
"-  c #1E353C",
";  c #1B2B32",
":  c #272827",
">  c #362B27",
",  c #38342A",
"<  c #2D263D",
"1  c #2C293A",
"2  c #352A39",
"3  c #3A3737",
"4  c #253533",
"5  c #201E1E",
"6  c #482219",
"7  c #59281A",
"8  c #5B3318",
"9  c #652819",
"0  c #712919",
"q  c #792D1A",
"w  c #78341A",
"e  c #462C28",
"r  c #592C25",
"t  c #473526",
"y  c #56362A",
"u  c #4C3634",
"i  c #453A38",
"p  c #513634",
"a  c #642D22",
"s  c #63392C",
"d  c #72382D",
"f  c #494B1A",
"g  c #42451B",
"h  c #5B5C1C",
"j  c #55551C",
"k  c #504C1B",
"l  c #69511B",
"z  c #5F611A",
"x  c #63651B",
"c  c #6B6D1D",
"v  c #67691A",
"b  c #72691D",
"n  c #6E721B",
"m  c #72751B",
"M  c #76791E",
"N  c #7C761F",
"B  c #53522B",
"V  c #5C592B",
"C  c #595525",
"Z  c #484432",
"A  c #5C4537",
"S  c #4C4D2B",
"D  c #6B4735",
"F  c #774837",
"G  c #6B5831",
"H  c #57662F",
"J  c #636424",
"K  c #6A6A25",
"L  c #776A28",
"P  c #727420",
"I  c #777A20",
"U  c #7A7C22",
"Y  c #76742C",
"T  c #696933",
"R  c #766D30",
"E  c #1E3A45",
"W  c #1E3D49",
"Q  c #332C45",
"!  c #393649",
"~  c #3D3854",
"^  c #273244",
"/  c #443C58",
"(  c #48394B",
")  c #6C3E41",
"_  c #1F414E",
"`  c #1F4351",
"'  c #27464C",
"]  c #224654",
"[  c #204858",
"{  c #284C54",
"}  c #285A59",
"|  c #374A4D",
" . c #3F6555",
".. c #275A64",
"X. c #325F62",
"o. c #2A666C",
"O. c #337A78",
"+. c #346E71",
"@. c #57564B",
"#. c #484359",
"$. c #554C51",
"%. c #645A53",
"&. c #755452",
"*. c #6F5146",
"=. c #5C615A",
"-. c #736549",
";. c #6D6C4F",
":. c #474764",
">. c #535975",
",. c #515269",
"<. c #615669",
"1. c #58627D",
"2. c #596D66",
"3. c #687E73",
"4. c #6F6D6B",
"5. c #86351D",
"6. c #93391D",
"7. c #923928",
"8. c #A93E29",
"9. c #8A4F35",
"0. c #B7452D",
"q. c #B04C2D",
"w. c #887525",
"e. c #90732F",
"r. c #B1663C",
"t. c #A7441F",
"y. c #C54931",
"u. c #CB5B31",
"i. c #C7693B",
"p. c #D96737",
"a. c #CF6833",
"s. c #8D5A49",
"d. c #936555",
"f. c #967B59",
"g. c #8F6E4F",
"h. c #A3694B",
"j. c #A97857",
"k. c #BC7B58",
"l. c #B06F4C",
"z. c #906F65",
"x. c #AF644D",
"c. c #D27C53",
"v. c #D67142",
"b. c #7F8226",
"n. c #3A847D",
"m. c #678B7C",
"M. c #588075",
"N. c #B48A34",
"B. c #988231",
"V. c #CD9E3E",
"C. c #928562",
"Z. c #958A72",
"A. c #949275",
"S. c #8E8568",
"D. c #B58667",
"F. c #B08B6F",
"G. c #A08557",
"H. c #CA8B58",
"J. c #EE944E",
"K. c #EC8F4D",
"L. c #D1A54A",
"P. c #C98963",
"I. c #D18A62",
"U. c #D6976B",
"Y. c #D59C77",
"T. c #CB9772",
"R. c #D9A377",
"E. c #DDA86F",
"W. c #E5B07F",
"Q. c #E2B44B",
"!. c #3A7C84",
"~. c #5C6983",
"^. c #676C84",
"/. c #62758D",
"(. c #69778C",
"). c #677B92",
"_. c #70788B",
"`. c #378884",
"'. c #399089",
"]. c #459998",
"[. c #49908B",
"{. c #6D8298",
"}. c #78869A",
"|. c #7B90A3",
" X c #4CA5A6",
".X c #52ACAE",
"XX c #58ADB6",
"oX c #64A7A7",
"OX c #489F9F",
"+X c #6AC8D3",
"@X c #6CC9D5",
"#X c #76D6E5",
"$X c #91878A",
"%X c #B29A87",
"&X c #8A9FAF",
"*X c #8498A9",
"=X c #8EA3B2",
"-X c #97ACB9",
";X c #B5AFAB",
":X c #BDA88E",
">X c #C6A688",
",X c #D8A989",
"<X c #CAB69C",
"1X c #DCB698",
"2X c #DFB282",
"3X c #E6B587",
"4X c #E2BA97",
"5X c #E0AE8B",
"6X c #CEBBA2",
"7X c #D4BBA2",
"8X c #E1BEA2",
"9X c #F0C792",
"0X c #CDC0A5",
"qX c #D8C4AA",
"wX c #DDCBB3",
"eX c #DAC9B5",
"rX c #CFCCB8",
"tX c #E3C2A4",
"yX c #E8C8AA",
"uX c #E5D3B9",
"iX c #EACEB4",
"pX c #9FB5C1",
"aX c #A5BBC6",
"sX c #A2B7C2",
"dX c #ACC2CB",
"fX c #DDD4C5",
"gX c #EDDBC5",
"hX c #E4D9C8",
"jX c #F4DDC5",
"kX c #ECE2CB",
"lX c #F2E9D7",
"zX c #EEE5D3",
/* pixels */
"m m m m m m m m m m m m m m m m m m m m m m m m m m m m m m m m m m m m m m m m m m m m m m m m m m m m m m m m m m m m m m m m ",
"m m m m m m m m m m m m m m m m m m m m m m m m m m m m m m m m m m m m m m m m m m m m m m m m m m m m m m m m m m m m m m m m ",
"m m m m m m m m m m m m m m m m m m m K V V T T T T T ;.Y m m m m m m m m m m m m m m m m m m m m m m m m m m m m m m m m m m m ",
"m m m m m m m m m m m m m m m m m m m B 2 ( #.#.#.#.,.^.;.m m m m m m m m m m m m m m m m m m m m m m m m m m m m m m m m m m m ",
"m m m m m m m m m m m m m m m m m m m B < ~ :.,.1._.}.*Xm.;.;.T P m m m m m m m m m m m m m m m m m m m m m m m m m m m m m m m ",
"m m m m m m m m m m m m m m m m m m m B < ~ :.~.|.sXdXdX&X/.>.$.T m m m m m m m m m m m m m m m m m m m m m m m m m m m m m m m ",
"m m m m m m m m m m m m m m m m m m m J B i ~ 1.{.|.-XdX-X&X(.>.@.T m m m m m U M m m m m m m m m m m m m m m m m m m m m m m m ",
"m m m m m m m m m m m m m m m m m m m m m Z Q >././.*XdXdXaX*X(.>.@.J c m m m m I m m m m m m m m m m m m m m m m m m m m m m m ",
"m m m m m m m m m m m m m m m m m m m m m Z Q :.>./.*XdXdXdXpX&X(.,.i V b.U m c n m m m m m m m m m m m m m m m m m m m m m m m ",
"m m m m m m m m m m m m m m m m m m m m m Z Q :.1.{.=XdXdXdXpX=X{.>.! Z b b K c v n U b.U m m m m m m m m m m m m m m m m m m m ",
"m m m m m m m m m m m m m m m m m m m m m Z Q >.{.-XaXdXdXaX*X{.).1.:.p 8 8 l b n m I U M m m m m m m m m m m m m m m m m m m m ",
"m m m m m m m m m m m m m m m m m m m J B i ~ 1.{.&X=X=X=X&X$Xz.z.&.*.d w r e S B V V B J m m m m m m m m m m m m m m m m m m m ",
"m m m m m m m m m m m m m m m m m m m B < ~ :.~./.).).).)._.l.u.t.6.6.6.6.y < < < < < < B m m m m m m m m m m m m m m m m m m m ",
"m m m m m m m m m m m m m m m m m m m C e u p $.*.&.&.$.&.s.r.a.u.q.q.9.) $.,.,.:.~ Q < B m m m m m m m m m m m m m m m m m m m ",
"m m m m m m m m m m m m m m m m m m c l 7 7 7 7 0 6.w 9 5.t.u.p.p.p.a.s.,.~.).).~.:.~ < B m m m m m m m m m m m m m m m m m m m ",
"m m m m m m m m m m m m m m m m m J Z i > e 9 w w w w 5.t.u.a.p.p.v.z.$X*X=X=X{.~.:.~ < B m m m m m m m m m m m m m m m m m m m ",
"m m m m m m m m m m m m m m K J J B Q Q Q u r d d s F 9.x.c.c.c.c.D.}.=XdXaX=X).>.:.! 3 V m m m m m m m m m m m m m m m m m m m ",
"m m m m m m m m m m m m m c S 3 3 ! ~ / / / ( ( $.<.4.4.$X;X;X;X;X;X-XaXdX=X).>.:.! Z J c m m m m m m m m m m m m m m m m m m m ",
"m m m m m m m m m m m m m c Z Q Q ~ ,.>.^.^.^.^._.}.|.|.-XdXdXdXdXdXdXsX=X{.>.:.( i B m m m m m m m m m m m m m m m m m m m m m ",
"m m m m m m m m m m m m m c Z Q ~ ,.~.*XsXsXsXsXsXaXaXaXdXdXdXdXdXdXdX=X).>.#.Q i J m m m P P P P P P P P P P m m m m m m m m m ",
"m m m m m m m m m m m m m n V Z ! ~ :.^.}.*X&X&X&X&X&X&X&X&X&X*X}.}.}.^.,./ ! Z V P P P K T T T T T T T T T T T T K P m m m m m ",
"m m m m m m m m m m m m m m m J 3 < < ! #.>./././././././././.~.:.#.:.~ < < 3 J U U Y R g.f.S.A.A.A.A.A.A.A.A.Z.C.g.R P m m m m ",
"m m m m m m m m m m m m m m m c V Z < Q ! ~ :.,.>.>.>.>.>.>.:.#.~ $.d.d.s.u : J w.e.e.f.F.>X6XfXhXhXhXhXhXhXhXwX7X>Xj.R c m m m ",
"m m m m m m m m m m m m m m m m m V 3 1 1 1 Q ~ / $.<.<.<.<.#.( 2 *.k.I.I.D o K N.N.j.D.Y.Y.,XiXkXlXlXkXjXiXiXyX3XY.P.G z c m m ",
"m m m m m m m m m m m m m m m m m c J t 5 u s > i d.F.>X>X>XD.d.*.F s.P.3X*.+ L L.L.H.R.R.R.Y.1XtXtXtX1X4X5X5X,XP.j.s.C h v m m ",
"m m m m m m m m m m m m m m m m m m m f   t y O t h.U.3X9X9XR.P.j.d.D D.9Xg.t w.V.Q.E.4XyXtX4XtXyXtX4X4X4X4X4XT.f.G V j h v m m ",
"m m m m m m m m m m m m m m m m m m m f   . .   > 9.l.U.3X9XR.Y.wX%X, g.9XG.F e.N.L.9XuXgXwXtXiXtX1X7XqX1XtXyX>Xf.C j h x c m m ",
"m m m m m m m m m m m m m m m m m m m h $ o     O y F l.U.W.U.U.4X%X*.j.W.j.9.w.B.G.uXzXhXqX7XwX7X<X7XqX7XwXgX<Xf.V h v n m m m ",
"m m m m m m m m m m m m m m m m m m m m c $         t 9.l.I.I.I.I.I.P.I.I.h.9.L Y -.rXzXhXeX6X7X7X7XqXqXqXwXkX0XC.V h n M M m m ",
"m m m m m m m m m m m m m m m m m m m m m h g o     O t s D D s.k.I.I.k.h.F y K K Z 4.4.4.4.%.;.;.Z.<XwXwXuXkX0XC.V h P I M M m ",
"m m m m m m m m m m m m m m m m m m m m m m x #   . O O O . . e h.k.k.h.F e o j V : . . . . .     @.:XqXuXwXkX0XC.V h P M M M m ",
"m m m m m m m m m m m m m m m m m m m m m m x # @ w 9.r.9.5.9 7 y y y t > O   & t y s s s s s y O @.<XqXwXeXkX0XC.V h P M M M m ",
"m m m m m m m m m m m m m m m m m m m m m m x # 6 7.u.K.i.8.5.7 , ; ; ; = = = = , 9.h.h.h.h.9.D @ %.0XuXwXhXkX0XC.V h n M M M m ",
"m m m m m m m m m m m m m m m m m m m m m m x # X 0 t.u.t.5.q s  .+.+.} W W W W $.j.T.2X2XR.j.D @ %.eXhXuXhXzX0XC.V h n M M m m ",
"m m m m m m m m m m m m m m m m m m m m m m x # X 9 5.8.9.A @.=.[. X X].!.+.o.o.2.D.U.3X9X9Xj.D @ %.6X7X<XeXgX6Xf.C h n M M m m ",
"m m m m m m m m m m m m m m m m m m m m m m x # X 9 0 q @.n.n.].+X#X#X@X@X X`.`.m.D.I.I.3X9Xj.D @ %.qXiXyXyXyX>Xg.C h c m m m m ",
"m m m m m m m m m m m m m m m m m m m m m m x # : u u u | +.`.OX+X#X#X#X#X+X.X].m.D.I.I.Y.R.s.s -.Z.1X4X1X1X,XT.f.G C c m m m m ",
"m m m m m m m m m m m m m m m m m m m m m m x # = W [ [ [ [ O.].+X#X#X#X#X#X@X Xm.D.P.P.P.k.A i %XtXtXtX8X1X1X,XF.g.G K m m m m ",
"m m m m m m m m m m m m m m m m m m m m m m c h g 4 E [ [ [ ..O.OX.X.X.X.X.X XO.X.=.%.D D D -.F.eXgXgXgXgXgXuXyX,XD.e.L m m m m ",
"m m m m m m m m m m m m U M m m m m m m m m m m h o ; ' | | { ..O.`.`.`.`.n.+.{ _ _ - > > u F.gXlXlXlXlXlXlXjXiX3XU.l.w.P m m m ",
"m m m m m m m m m m m m M I m m m m m m m m m m h o @ r d s.2.O.o.........' 4 ; = = 3 -.g.f.>XqXwXwXwXwXqXqX1X,XE.H.H.e.w.m m m ",
"m m m m m m m m I b.U M n n m m m m m m m m n x f : > y F d.4.2.$.#.| ! ! :   + # # f G G G -.-.-.-.-.-.-.-.-.R e.N.V.N.w.N m m ",
"m m m m m m m m m I U I n v n U b.U m m m m v $ : E ' ' 2.M.d.q.q.7.a a a @ o k x x x x C C C C C C C C C C j C L e.N.B.w.N m m ",
"m m m m m m M U I n m I m n m I U M m m m m x # = _ ..o.O.[.4.s.s.F p u u : o h m m m n v x z h z x z z z z z x b w.w.w.N m m m ",
"m m m m m m m M U I n n m M I I m m m m m m x # = _ o.`.'.'.'.O...] [ ] ] ; o h m m m m m m n n n n n n n n n n m m m N m m m m ",
"m m m m m m m n n I m n v n M n n m m m m m x # * ; ' o.o.o.o.X.#.u u u u : o h m m m m m m m m m m m m m m m m m m m m m m m m ",
"m m m m m m m m n n m m n c c n m m m m m n h &     4 ] ] ] ] ! a q w w w 6 + h m m m m m m m m m m m m m m m m m m m m m m m m ",
"m m m m m m m m m n n M I m m m m m m m m k # o . 6 r y > : e s 7.q.i.i.i.9.8 x m m m m m m m m m m m m m m m m m m m m m m m m ",
"m m m m m m m m m m m M n n m m m m m c h , = = > 9 0 0 6 X 6 0 0.p.K.J.J.r.5.l b m m m m m m m m m m m m m m m m m m m m m m m ",
"m m m m m m m m m m m n n m m m m m m j + 4 W W 3 a 0 0 9 7 X 6 8.p.K.J.J.i.t.5.l b m m m m m m m m m m m m m m m m m m m m m m ",
"m m m m m m m m m m m m m m m m m m m f   - [ [ ! a 0 0 0 9 X @ 5.q.v.K.J.p.0.5.w b K H H H c m m m m m m m m m m m m m m m m m ",
"m m m m m m m m m m m m m m m m m m m f   - [ [ ! a 0 0 0 9 X . 9 7.y.v.J.p.0.5.w b H { { | H m m m m m m m m m m m m m m m m m ",
"m m m m m m m m m m m m m m m m m m m f   - [ [ ' i e 6 6 6 . . X q 0.u.v.u.0.*.@.H  .o...{ H m m m m m m m m m m m m m m m m m ",
"m m m m m m m m m m m m m m m m m m m f   - [ [ [ [ -             r 0.y.y.y.r.3.O...o.`.o.{ H m m m m m m m m m m m m m m m m m ",
"m m m m m m m m m m m m m m m m m m m f   - [ [ [ [ -   % f f f f k r 7.y.d.3.oXXX.X].'.} 4 C m m m m m m m m m m m m m m m m m ",
"m m m m m m m m m m m m m m m m m m m f   - [ [ [ [ E = g v n m m j o s r.3. X+X#X@XXX`.' o j m m m m m m m m m m m m m m m m m ",
"m m m m m m m m m m m m m m m m m m m f   - [ [ [ [ ` E 4 % h m m j o | 3.oX+X#X+X.X`...- o j m m m m m m m m m m m m m m m m m ",
"m m m m m m m m m m m m m m m c z h h $   ; E E E E E E ;   g h h g   ' O..X+X+XXX`.o.E 4 % h m m m m m m m m m m m m m m m m m ",
"m m m m m m m m m m m m m m m x % o o 5     * * * * * *     o o o o   - ..!.].].`...E = g v n m m m m m m m m m m m m m m m m m ",
"m m m m m m m m m m m m m m m v f $ $ $ $ $ $ $ $ $ $ $ +             = - { } } { E ;   # f f f f h n m m m m m m m m m m m m m ",
"m m m m m m m m m m m m m m m m m n n n n n n n n n n n g                                         $ c m m m m m m m m m m m m m ",
"m m m m m m m m m m m m m m m m m m m m m m m m m m m m h f f f f f f f f f f f f f f f f f f f f j n m m m m m m m m m m m m m ",
"m m m m m m m m m m m m m m m m m m m m m m m m m m m m m m m m m m m m m m m m m m m m m m m m m m m m m m m m m m m m m m m m ",
"m m m m m m m m m m m m m m m m m m m m m m m m m m m m m m m m m m m m m m m m m m m m m m m m m m m m m m m m m m m m m m m m "
};
