/* XPM */
static const char *Q29sX1VfMQ__[] = {
/* columns rows colors chars-per-pixel */
"64 64 223 2 ",
"   c #191919",
".  c #251C1A",
"X  c #391E18",
"o  c #212118",
"O  c #2B271C",
"+  c #3A241C",
"@  c #3C3C19",
"#  c #2F301A",
"$  c #1C1D23",
"%  c #1B272A",
"&  c #1D333B",
"*  c #1F3434",
"=  c #272524",
"-  c #362628",
";  c #2B253B",
":  c #352A39",
">  c #283637",
",  c #3A3636",
"<  c #333429",
"1  c #47231A",
"2  c #58261B",
"3  c #453D1B",
"4  c #67291A",
"5  c #732C1A",
"6  c #713F19",
"7  c #482B28",
"8  c #552C23",
"9  c #573729",
"0  c #453932",
"q  c #553934",
"w  c #45362D",
"e  c #633328",
"r  c #773525",
"t  c #70362D",
"y  c #2A423E",
"u  c #4B4C1B",
"i  c #43431B",
"p  c #53551C",
"a  c #5C581D",
"s  c #4F511A",
"d  c #70541A",
"f  c #5F611A",
"g  c #62631C",
"h  c #6A6D1B",
"j  c #676A19",
"k  c #72691C",
"l  c #6E721B",
"z  c #72751B",
"x  c #76791F",
"c  c #78751F",
"v  c #5B5A26",
"b  c #565427",
"n  c #4B4436",
"m  c #594538",
"M  c #505438",
"N  c #6B4635",
"B  c #764839",
"V  c #725A39",
"C  c #6E502E",
"Z  c #556732",
"A  c #666922",
"S  c #6B6D24",
"D  c #606B28",
"F  c #6C7121",
"G  c #6A742E",
"H  c #777A20",
"J  c #797C21",
"K  c #777624",
"L  c #696836",
"P  c #78672D",
"I  c #1D3944",
"U  c #2E2741",
"Y  c #342D48",
"T  c #332C45",
"R  c #3A334C",
"E  c #373548",
"W  c #3C3A55",
"Q  c #263A43",
"!  c #463946",
"~  c #44364E",
"^  c #423C5C",
"/  c #453B54",
"(  c #553A4A",
")  c #1F4251",
"_  c #294648",
"`  c #35434A",
"'  c #385547",
"]  c #214959",
"[  c #264754",
"{  c #324C54",
"}  c #3A4852",
"|  c #27565D",
" . c #345057",
".. c #3A5257",
"X. c #38665E",
"o. c #275862",
"O. c #345D62",
"+. c #366567",
"@. c #34746F",
"#. c #2E7375",
"$. c #347977",
"%. c #2F686E",
"&. c #4B4846",
"*. c #544B4A",
"=. c #474559",
"-. c #4A5A57",
";. c #4D584B",
":. c #675944",
">. c #745249",
",. c #72654A",
"<. c #796255",
"1. c #696B58",
"2. c #4A4B69",
"3. c #565A75",
"4. c #4D516D",
"5. c #58627C",
"6. c #4B7069",
"7. c #62647E",
"8. c #7F7669",
"9. c #6E5860",
"0. c #87341D",
"q. c #90371C",
"w. c #8A3724",
"e. c #973925",
"r. c #8D3F32",
"t. c #A43D29",
"y. c #A6441F",
"u. c #805D2E",
"i. c #864936",
"p. c #895139",
"a. c #924C31",
"s. c #B6432A",
"d. c #B14E2E",
"f. c #847925",
"g. c #94772D",
"h. c #C84830",
"j. c #CB5535",
"k. c #C7522E",
"l. c #D5642F",
"z. c #D8663A",
"x. c #C56238",
"c. c #865846",
"v. c #975944",
"b. c #854F43",
"n. c #B15B41",
"m. c #876D59",
"M. c #8E7254",
"N. c #996B4C",
"B. c #AD6A51",
"V. c #AB7B57",
"C. c #B77353",
"Z. c #AE714A",
"A. c #917E64",
"S. c #8A6D64",
"D. c #D17A4F",
"F. c #E47F46",
"G. c #7E8125",
"H. c #35827D",
"J. c #4A857A",
"K. c #518578",
"L. c #668376",
"P. c #B58933",
"I. c #9A822B",
"U. c #CD9C3C",
"Y. c #B18356",
"T. c #B19463",
"R. c #AB8575",
"E. c #998265",
"W. c #CB835B",
"Q. c #D58D57",
"!. c #D3894B",
"~. c #E6874A",
"^. c #EE944E",
"/. c #F09850",
"(. c #EB9652",
"). c #D08860",
"_. c #C4876B",
"`. c #DDA269",
"'. c #3A7985",
"]. c #5C6B84",
"[. c #5D6D87",
"{. c #467E8B",
"}. c #63768E",
"|. c #6E758C",
" X c #6A7486",
".X c #6B7C93",
"XX c #6F7687",
"oX c #378A85",
"OX c #3C948E",
"+X c #488C9B",
"@X c #459497",
"#X c #499183",
"$X c #778B93",
"%X c #4F9BA7",
"&X c #7A8EA2",
"*X c #4DA6A6",
"=X c #52ABAD",
"-X c #54A9A8",
";X c #58AFB4",
":X c #63A29C",
">X c #66BBC6",
",X c #71CEDC",
"<X c #73D1DF",
"1X c #68C5D0",
"2X c #78D8E8",
"3X c #78D5E4",
"4X c #B29A88",
"5X c #BFB28E",
"6X c #B2A391",
"7X c #869AAB",
"8X c #929AA4",
"9X c #8DA1B1",
"0X c #9AACBA",
"qX c #94AAAE",
"wX c #B1B6B4",
"eX c #DEAE8B",
"rX c #CFBDA6",
"tX c #9AC6BD",
"yX c #DBC5AB",
"uX c #AABFC9",
"iX c #A2B7C3",
"pX c #9FB5C0",
"aX c #ACC2CB",
/* pixels */
"z z z z z z z z z z z z z z z z z z z z z z z z z z z z z z z z z z z z z z z z z z z z z z z z z z z z z z z z z z z z z z z z ",
"z z z z z z z z z z z z z z z z z z z z z z z z z z z z z z z z z z z z z z z z z z z z z z z z z z z z z z z z z z z z z z z z ",
"z z z z z z z z z z z z z z z z z z z z z z z z z z z z z z z z z z z z z z z z z z z z z z z z z z z z z z z z z z z z z z z z ",
"z z z z z z z z z z z z z z z z z z z z z z z z z z z z z z z z z z z z z z z z z z z z z z z z z z z z z z z z z z z z z z z z ",
"z z z z z z z z z z z z z z z z z z z z z z z z z z z z z z z z z z z z z z z z z z z z z z z z z z z z z z z z z z z z z z z z ",
"z z z z z z z z z z z z z z z z z z z z z z z z z z z z z z z z z z z z z z z z z z z z z z z z z z z z z z z z z z z z z z z z ",
"z z z z z z z z z z z z z z z z z z z z z z z S S S S S S S S S S S z z z z z J x z z z z z z z z z z z z z z z z z z z z z z z ",
"z z z z z z z z z z z z z z z z z z z z z z S M *.*.*.*.*.*.*.*.*.M F z z z z x H z z z z z z z z z z z z z z z z z z z z z z z ",
"z z z z z z z z z z z z z z z z z z z z z A v &.2.2.3.7.7.7.7.3.4.-.L L L K x l l z z z z z z z z z z z z z z z z z z z z z z z ",
"z z z z z z z z z z z z z z z z z z z z z b , / 2.].&X0X0X0X0X9X.X5.=.=.=.L J l j l J G.J z z z z z z z z z z z z z z z z z z z ",
"z z z z z z z z z z z z z z z z z z z z z n U R =.3..X9XpXaXaXiX9X$X3.2.^ &.v S l z J J x z z z z z z z z z z z z z z z z z z z ",
"z z z z z z z z z z z z z z z z z z z z z n ; ; Y ^ 3.}.9XaXaXaXaXqX.X3.^ R , v x J H z z z z z z z z z z z z z z z z z z z z z ",
"z z z z z z z z z z z z z z z z z z z z z v n , U R =.3..X7X7X7X7X&X}.].3.W : 0 b F l l z z z z z z z z z z z z z z z z z z z z ",
"z z z z z z z z z z z z z z z z z z z z z z A 0 ; U R / 3.XX X X X XXX X X=.U ; , f l z z z z z z z z z z z z z z z z z z z z z ",
"z z z z z z z z z z z z z z z z z z z z z z A 0 T R ( t v.B.v.b.b.v.B.N.b.*.R T 0 A z z z z z z z z z z z z z z z z z z z z z z ",
"z z z z z z z z z z z z z z z z z z z z z A v 0 : ~ t e.d.l.d.y.e.d.l.k.y.B ( 0 0 v A z z z z z z z z z z z z z z z z z z z z z ",
"z z z z z z z z z z z z z z z z z z z z z b , 7 8 8 r q.d.l.l.k.y.d.l.l.l.d.r 8 7 , b l z z z z z z z z z z z z z z z z z z z z ",
"z z z z z z z z z z z z z z z z z z z A v , : 7 4 5 r t v.C.D._.V.V._.D.B.d.y.0.4 7 0 v A z z z z z z z z z z z z z z z z z z z ",
"z z z z z z z z z z z z z z z z z z z b : ; : 7 4 q.t / 3.XXqXwXwXwXwX8XXXB.l.y.0.4 7 : b z z z z z z z z z z z z z z z z z z z ",
"z z z z z z z z z z z z z z z z z A b 0 ; T R *.>.>.9.3..X7XiXaXaXaXaX0X7X4X_.R.S.9.&.R n b A z z z z z z z z z z z z z z z z z ",
"z z z z z z z z z z z z z z z z z v : ; U W 2.].}.}.}.}.7XuXuXuXuXuXuXuXuXuXaXaX0X$X5.2.R : v z z z z z z z z z z z z z z z z z ",
"z z z z z z z z z z z z z z z z z v : T W 2.].}.}.}.}.}.|.|.|.|.|.|.|.|.|.&X7X7X&X.X[.5.=.: v z z z z z z z z z z z z z z z z z ",
"z z z z z z z z z z z z z z z z z v : Y ^ 3.[.[.[.].].].4.^ ^ ^ ^ ^ ^ ^ ^ 3.].[.[.[.[.].=.: v z z z z z z z z z z z z z z z z z ",
"z z z z z z z z z z z z z z z z z p = ; Y =.2.2.2.W W W R Y Y Y Y Y Y Y Y R W 2.2.2.2.W ; = p z z z z z z z z z z z z z z z z z ",
"z z z z z z z z z z z z z z z z z p o $ ; E / ~ R : : ! ! ! ! ! ! ! ! , : : : R ~ ~ T ; $ o p z z z z z z z z z z z z z z z z z ",
"z z z z z z z z z z z z z z z z z p o     - , - - : &.<.<.<.<.<.<.<.<.*.: - - - - : =     o p z z z z z z z z z z z z z z z z z ",
"z z z z z z z z z z z z z z z z z g i @ @ n m 7 7 q :.m.m.m.m.m.m.m.m.>.q q w 7 7 w w @ @ i f z z z z z z z z z z z z z z z z z ",
"z z z z z z z z z z z z z z z z z z z l l P <.N q N >.m.m.m.m.m.m.m.m.<.B B N q q N V l l z z z z z z z z z z z z z z z z z z z ",
"z z z z z z z z z z z z z z z z z z z z z N.N.q 7 B b.c.N.V.V.V.V.V.V.N.B i.B 7 7 B P z z z z z z z z z z z z z z z z z z z z z ",
"z z z z z z z z z z z z z z z z z l F F F Z.Z.w + N i.i.B.W.W.).).W.W.B.i.i.N - + B P F F F l z z z z z z z z z z z z z z z z z ",
"z z z z z z z z z z z z z z z z z D M ' ' C B + . - 8 r i.a.C.).W.C.a.i.r 8 - . + e N ' ' M D z z z z z z z z z z z z z z z z z ",
"z z z z z z z z z z z z z z z l D Z | o.| q 4 1 + + 2 0.w.a.C.Q.Q.C.a.w.0.2 + + 1 4 q o.o.| Z D l z z z z z z z z z z z z z z z ",
"z z z z z z z z z z z z z z z D ;.X.$.H.$.*.5 e.t.t.t.s.x.!.~.(.(.~.!.x.s.t.t.t.e.5 *.$.$.$.X.;.G x z z z z z z z z z z z z z z ",
"z z z z z z z z z z z z z z z D ' %.*X*X*X-.e e.s.h.j.z.F././././././.F.z.j.h.t.e.e -.*X*X*X%.' G J H z z z J G.x z z z z z z z ",
"z z z z z z z z z z z z z z z D ' '.1X<X,X{.` e w.s.z.^.^././././././.^.^.z.s.w.e ` {.,X<X1X'.' D z J z z x G.x z z z z z z z z ",
"z z z z z z z z z z z z z z P L X.@X,X2X2X%X+.&.q >.c.M.M.M.M.M.M.M.M.M.M.c.>.q &.+.%X2X2X,X@XX.L k h l x J J z z z z z z z z z ",
"z z z z z z z z z z z z z z u.,.J.*X,X2X3X=XH.o.] ] ] ] ] ] ] ] ] ] ] ] ] ] ] ] o.H.=X3X2X,X*XJ.,.u.z z x J l l z z z z z z z z ",
"z z z z z z z z z z z z z z u.c.A.$X-X=X=X@._ [ o.%.#.#.#.$.+X%X%X+X$.#.#.o.] ] ] _ @.=X=X-X$XA.c.u.z z l j l z z z z z z z z z ",
"z z z z z z z z z z z z z z u.p.C.E.K.H.$.y $ & | $.oXoXOX*X1X2X2X>XOXoXH.O.[ [ Q = y 6.$.6.A.C.p.u.z z z z z z z z z z z z z z ",
"z z z z z z z z z z z z J K u.p.v.c.,.&.> %   % & | #.oX=X1X<X2X2X>XOX$.o.&.q ` Q 8 9 N , > V v.p.u.z z z z z z z z z z z z z z ",
"z z z z z z z z z z z z x K C N i.p.p.9         = , -.6.&XtXtXtXtXqXL.-.E n m ` ` r 0.w.2 + 9 t N C z z z z z z z z z z z z z z ",
"z z z z z z z z J G.J x l h 3 - B p.p.9         . 8 r.d.D.`.`.`.`.W.n.a.e -.@.o.&.a.s.s.w.2 + O O 3 h z z z z z z z z z z z z z ",
"z z z z z z z z z H J J l j u i 9 9 9 7 X 2 8 < > *.<.R.4X5X5X5X5X4XR.S.*.6.@.1.c.d.h.h.e.4 X o # s l z z z z z z z z z z z z z ",
"z z z z z z x J J l z H z l z g #     1 5 t.d.&.o.H.-X<X3X3X3X3X3X3X3X;XoX%...V.~.j.h.h.e.4 X # a z z z z z z z z z z z z z z z ",
"z z z z z z z x J J l l z x J h p 3 1 5 t.s.d.N.1.+.'.+X+X+X+X+X+X+X+X'.%.1.V.!.~.j.s.e.4 1 3 p h z z z z z z z z z z z z z z z ",
"z z z z z z z l l H z l j l x l l d 5 e.h.h.j.~.Y.-. . . . . .{ { {  . ...V.^.^.F.j.e.4 X o p z z z z z z z z z z z z z z z z z ",
"z z z z z z z z l l z z l h h l z d 5 e.h.h.j.~.Q.Y.V.V.V.V.V.N.v.v.V.V.V.Q.^.F.d.>.0 X . o p z z z z z z z z z z z z z z z z z ",
"z z z z z z z z z l l x H z z z z k 6 e.s.h.j.F.~././././././.~.k.j.~.~.~.!.C.n.>.{ I %   o p z z z z z z z z z z z z z z z z z ",
"z z z z z z z z z z z x l l z z z l k d 0.t.h.j.z.^./././././.!.a.e.j.j.j.c.-.=.} [ ) I % o p z z z z z z z z z z z z z z z z z ",
"z z z z z z z z z z z l l z z z z z z a 2 5 w.i.v.Y.T.T.T.T.Y.N.e 4 w.r.i.&.] ] ] ] ) I % o p z z z z z z z z z z z z z z z z z ",
"z z z z z z z z z z z z z z z z z z z u . . = Q O.J.#X#X#X#X+.` = . . > { [ ] ] ] ] & $   o p z z z z z z z z z z z z z z z z z ",
"z z z z z z z z z z z z z z z z z z z u   % & | #.oX@X;X;X=XoX| %     % & & & & & & %   # u g z z z z z z z z z z z z z z z z z ",
"z z z z z z z z z z z z z z z z z z z u   & | $.oXOX=X2X2X<X*X@.*                       u z z z z z z z z z z z z z z z z z z z ",
"z z z z z z z z z z z z z z z z z z z g u < & | '.;X1X2X2X<X*X@.*               = 3 u u g z z z z z z z z z z z z z z z z z z z ",
"z z z z z z z z z z z z z z z z z z z z z i = Q %.;X>X>X>X>X@X+.% = , , , , < < m V P z z z z z z z z z z z z z z z z z z z z z ",
"z z z z z z z z z z z z z z z z z z z z z j p < > _ { { { { _ *   &.6XwX6X6X4XR.Y.Z.u.k z z z z z z z z z z z z z z z z z z z z ",
"z z z z z z z z z z z z z z z z z z z z z z h i # < w 0 0 n &.&.&.8.rXyXyXeXeX`.Q.!.g.f.f.x z z z z z z z z z z z z z z z z z z ",
"z z z z z z z z z z z z z z z z z z z z z z z h g v b m m V :.:.:.:.,.,.,.V V g.P.U.P.I.f.z z z z z z z z z z z z z z z z z z z ",
"z z z z z z z z z z z z z z z z z z z z z z z z z h g a b b b b b b b b b p a P g.P.I.g.J z z z z z z z z z z z z z z z z z z z ",
"z z z z z z z z z z z z z z z z z z z z z z z z z z h j g f f f g f f f f f g k f.g.g.K z z z z z z z z z z z z z z z z z z z z ",
"z z z z z z z z z z z z z z z z z z z z z z z z z z z z z l l l l l l l l l l z z z h z z z z z z z z z z z z z z z z z z z z z ",
"z z z z z z z z z z z z z z z z z z z z z z z z z z z z z z z z z z z z z z z z z z z z z z z z z z z z z z z z z z z z z z z z ",
"z z z z z z z z z z z z z z z z z z z z z z z z z z z z z z z z z z z z z z z z z z z z z z z z z z z z z z z z z z z z z z z z ",
"z z z z z z z z z z z z z z z z z z z z z z z z z z z z z z z z z z z z z z z z z z z z z z z z z z z z z z z z z z z z z z z z "
};
