/* XPM */
static const char *Q29sX0xfMw__[] = {
/* columns rows colors chars-per-pixel */
"64 64 231 2 ",
"   c #191A19",
".  c #0F130B",
"X  c #271C19",
"o  c #371E18",
"O  c #1E2418",
"+  c #242418",
"@  c #2B271B",
"#  c #35291C",
"$  c #33331A",
"%  c #3C3D19",
"&  c #39361B",
"*  c #2B2C11",
"=  c #191F22",
"-  c #161E20",
";  c #1A2527",
":  c #1D353E",
">  c #1E373A",
",  c #1B2C32",
"<  c #262928",
"1  c #362923",
"2  c #2D263E",
"3  c #2E283D",
"4  c #232D32",
"5  c #352A39",
"6  c #223737",
"7  c #3B3838",
"8  c #333629",
"9  c #201D23",
"0  c #482319",
"q  c #5B3419",
"w  c #532C1A",
"e  c #662919",
"r  c #702818",
"t  c #7C2D1C",
"y  c #77351A",
"u  c #68381C",
"i  c #462C28",
"p  c #592C25",
"a  c #483527",
"s  c #56382A",
"d  c #473A39",
"f  c #553C34",
"g  c #492D34",
"h  c #673528",
"j  c #673B33",
"k  c #703325",
"l  c #3F401C",
"z  c #3A4429",
"x  c #494B1A",
"c  c #444619",
"v  c #5A5C1A",
"b  c #54561B",
"n  c #514A1B",
"m  c #685F1B",
"M  c #6D4F1B",
"N  c #5F611A",
"B  c #63651B",
"V  c #666A19",
"C  c #6B6D1C",
"Z  c #6A661A",
"A  c #726B1B",
"S  c #6E721B",
"D  c #72751B",
"F  c #76791F",
"G  c #78731D",
"H  c #554929",
"J  c #54532A",
"K  c #5B5A26",
"L  c #494532",
"P  c #444235",
"I  c #504E32",
"U  c #694836",
"Y  c #774836",
"T  c #7B5437",
"R  c #6B512B",
"E  c #58662F",
"W  c #556530",
"Q  c #636423",
"!  c #686B24",
"~  c #717321",
"^  c #777A20",
"/  c #797C21",
"(  c #797528",
")  c #636334",
"_  c #746C28",
"`  c #1E3A45",
"'  c #1E3D49",
"]  c #332C45",
"[  c #383649",
"{  c #3C3552",
"}  c #3E3B57",
"|  c #273244",
" . c #443C58",
".. c #48394B",
"X. c #6C3E41",
"o. c #1F414E",
"O. c #1F4351",
"+. c #28484A",
"@. c #204858",
"#. c #264751",
"$. c #295857",
"%. c #374D4E",
"&. c #3C6657",
"*. c #275963",
"=. c #325C62",
"-. c #2C696D",
";. c #2A6468",
":. c #37686A",
">. c #327878",
",. c #316E6E",
"<. c #484359",
"1. c #594957",
"2. c #425A59",
"3. c #50534C",
"4. c #6A5848",
"5. c #755452",
"6. c #724E46",
"7. c #6D6F49",
"8. c #454260",
"9. c #494A67",
"0. c #4A516A",
"q. c #515573",
"w. c #555C76",
"e. c #555369",
"r. c #615669",
"t. c #58627D",
"y. c #4A756D",
"u. c #687E73",
"i. c #6B6D6F",
"p. c #4F605D",
"a. c #86361D",
"s. c #983C1D",
"d. c #873625",
"f. c #963926",
"g. c #A63D29",
"h. c #845639",
"j. c #894932",
"k. c #A84628",
"l. c #B6452D",
"z. c #B65631",
"x. c #877830",
"c. c #B2532E",
"v. c #C54931",
"b. c #CA5A30",
"n. c #D96737",
"m. c #CA6937",
"M. c #8D5B48",
"N. c #AE5641",
"B. c #98674C",
"V. c #956856",
"C. c #896F54",
"Z. c #A87756",
"A. c #BB7C58",
"S. c #AA6A4C",
"D. c #906F66",
"F. c #B07F66",
"G. c #DD7341",
"H. c #D27C53",
"J. c #C16B46",
"K. c #7E8125",
"L. c #38837E",
"P. c #48837C",
"I. c #788979",
"U. c #B18B37",
"Y. c #B48557",
"T. c #948E69",
"R. c #A98566",
"E. c #B88868",
"W. c #BA906F",
"Q. c #90865B",
"!. c #C78A56",
"~. c #EE944E",
"^. c #EB8F4C",
"/. c #CB8962",
"(. c #D08A62",
"). c #D59B75",
"_. c #D4956A",
"`. c #D9A376",
"'. c #E3B17E",
"]. c #367E80",
"[. c #5C6983",
"{. c #676C84",
"}. c #62758D",
"|. c #69778C",
" X c #657991",
".X c #6B7E94",
"XX c #70788B",
"oX c #398987",
"OX c #3B928D",
"+X c #469897",
"@X c #4F8C88",
"#X c #6D8298",
"$X c #78869A",
"%X c #4D9EA5",
"&X c #7B90A3",
"*X c #53AAAE",
"=X c #56ABB3",
"-X c #5CB3BC",
";X c #4CA5A5",
":X c #64A7A7",
">X c #63BCC5",
",X c #66C3CC",
"<X c #6CC8D4",
"1X c #70CFDC",
"2X c #73D1DF",
"3X c #75D4E3",
"4X c #78D8E7",
"5X c #91878A",
"6X c #B19A87",
"7X c #8A9FAF",
"8X c #8498A9",
"9X c #8EA3B2",
"0X c #97ACB9",
"qX c #B7AFAA",
"wX c #AEB0B1",
"eX c #D0AB8B",
"rX c #E7B786",
"tX c #E2BA9B",
"yX c #DCBAA1",
"uX c #F3CA93",
"iX c #EDC18D",
"pX c #D6C4AC",
"aX c #E4C3A5",
"sX c #E5CAB1",
"dX c #E8D4BB",
"fX c #9FB5C1",
"gX c #A5BBC6",
"hX c #A2B7C2",
"jX c #ACC2CB",
"kX c #EDDBC4",
"lX c #EDE1CF",
/* pixels */
"D D D D D D D D D D D D D D D D D D D D D D D D D D D D D D D D D D D D D D D D D D D D D D D D D D D D D D D D D D D D D D D D ",
"D D D D D D D D D D D D D D D D D D D D D D D D D D D D D D D D D D D D D D D D D D D D D D D D D D D D D D D D D D D D D D D D ",
"D D D D D D D D D D D D D D D D D D D D D D D D D D D D D D D D D D D D D D ( 7.) ) ) ) ) K K ! D D D D D D D D D D D D D D D D ",
"D D D D D D D D D D D D D D D D D D D D D D D D D D D D D D D D D D D D D D 7.{.e.<.<.<.<.{ 5 J D D D D D D D D D D D D D D D D ",
"D D D D D D D D D D D D D D D D D D D D D D D D D D D D D D D D D D ~ ) 7.7.I.8X$XXXt.q.8.{ 2 J D D D D D D D D D D D D D D D D ",
"D D D D D D D D D D D D D D D D D D D D D D D D D D D D D D D D D D ! 3.q.}.7XjXjXhX&X[.9.{ 3 J D D D D D D D D D D D D D D D D ",
"D D D D D D D D D D D D D D D D D D D D D D D D D D D D D D D D S ) 3.w.|.7X0XjX0X&X#Xt.} d J Q D D D D D D D D D D D D D D D D ",
"D D D D D D D D D D D D D D D D D D D D D D D D D D D D D D D C Q 3.q.|.8XgXjXjX8X}.}.q.[ L D D D D D D D D D D D D D D D D D D ",
"D D D D D D D D D D D D D D D D D D D D D D D D D D D D D D D J d e.|.7XfXjXjXjX8X}.w.8.] L D D D D D D D D D D D D D D D D D D ",
"D D D D D D D D D D D D D D D D D D D D D D D D D D D S Z m m L [ w.#X9XfXjXjXjX9X#Xt.8.] L D D D D D D D D D D D D D D D D D D ",
"D D D D D D D D D D D D D D D D D D D D D D D D D D D Z u q q d <.t. X#X8XgXjXjXgX0X#Xq.[ L D D D D D D D D D D D D D D D D D D ",
"D D D D D D D D D D D D D D D D D D D D D D Q J J J J H i p y j 6.5.C.D.5X7X9X9X9X7X#Xt.} d J Q D D D D D D D D D D D D D D D D ",
"D D D D D D D D D D D D D D D D D D D D D D J 3 3 3 3 2 2 p s.s.s.s.k.b.S.XX X X X X X[.9.{ 2 J D D D D D D D D D D D D D D D D ",
"D D D D D D D D D D D D D D D D D D D D D D J 2 ] { 8.0.0.1.X.j.z.z.b.n.J.M.5.1.5.5.4.1.f g i H D D D D D D D D D D D D D D D D ",
"D D D D D D D D D D D D D D D D D D D D D D J 2 { 9.[. X.X[.e.M.n.n.n.n.b.k.a.e t a.r e w w w M C D D D D D D D D D D D D D D D ",
"D D D D D D D D D D D D D D D D D D D D D D J 2 { 9.[.#X9X9X8X5XD.J.n.n.n.b.k.a.y y t y e i 5 d L Q D D D D D D D D D D D D D D ",
"D D D D D D D D D D D D D D D D D D D D D D K 7 [ <.w..X0XgXjX9X$XE.H.H.H.H.S.j.Y j k k p g ] ] ] J Q Q ! D D D D D D D D D D D ",
"D D D D D D D D D D D D D D D D D D D D D D C Q P [ 8.w..X9XjXgX0XwXqXqXqXqX5Xi.i.r.1..... . . .} [ 7 7 I C D D D D D D D D D D ",
"D D D D D D D D D D D D D D D D D D D D D D D D J d [ 8.w.#X0XhXjXjXjXjXjXjX0X&X&X&XXX{.{.{.{.w.0.} ] ] P C D D D D D D D D D D ",
"D D D D D D D D D D D D D D D D D D D D D D D D S Q 7 [ <.w..X9XjXjXjXjXjXjXjXgXgXgXgXhXhXhXhX8X[.0.{ ] P C D D D D D D D D D D ",
"D D D D D D D D D D D D D D D D D D D D D D D D D C J P [  .0.{.$X$X$X8X7X7X7X7X7X9X7X7X7X8X$X{.9.} [ L K S D D D D D D D D D D ",
"D D D D D D D D D D D D D D D D D D D D D D D D D D D K 5 2 3 { 8. .9.[.}.}.}.}.}.}.}.}.}.w.8.[ 2 2 7 Q D D D D D D D D D D D D ",
"D D D D D D D D D D D D D D D D D D D D D D D D D D D v < d M.V.V.1.{ <.9.q.q.q.q.q.q.0.9.} [ ] 3 L K C D D D D D D D D D D D D ",
"D D D D D D D D D D D D D D D D D D D D D D D D D D D v + U (./.A.6.5 ..<.r.r.r.r.1. .{ ] 3 2 5 7 K D D D D D D D D D D D D D D ",
"D D D D D D D D D D D D D D D D D D D D D D D D D D D v + 4.rX/.M.T 6.B.R.eXeXeXW.V.d 5 j g 9 a Q C D D D D D D D D D D D D D D ",
"D D D D D D D D D D D D D D D D D D D D D D D D D D D m a C.uXR.U V.F./.`.uXuXrX_.S.a @ s i   x D D D D D D D D D D D D D D D D ",
"D D D D D D D D D D D D D D D D D D D D D D D D D D D _ Y Z.uXC.8 6XsX).`.uXrX_.S.h.1   X X   x D D D D D D D D D D D D D D D D ",
"D D D D D D D D D D D D D D D D D D D D D D D D D D D _ h.Z.'.Z.6.6XtX_._.'._.S.T s @     + % v D D D D D D D D D D D D D D D D ",
"D D D D D D D D D D D D D D D D D D D D D D D D D D D _ h.S././././.(././.(.S.h.a         % C D D D D D D D D D D D D D D D D D ",
"D D D D D D D D D D D D D D D D D D D D D D D D D D D Z s Y S.A.(.(.A.M.U U s a % X   + c v D D D D D D D D D D D D D D D D D D ",
"D D D D D D D D D D D D D D D D D D D D D D D D D D D v + i Y B.A.A.B.i + a & # h q X $ B D D D D D D D D D D D D D D D D D D D ",
"D D D D D D D D D D D D D D D D D D D D D D D D D D D $   @ 1 a f f f 3.&.a Y c.k.d.0 $ B D D D D D D D D D D D D D D D D D D D ",
"D D D D D D D D D D D D D D D D ~ ~ ~ ~ ~ ~ D D D D D z ; -   > +.P.@X,.2.f.z.^.z.d.0 $ B D D / K.F D D D D D D D D D D D D D D ",
"D D D D D D D D D D D D D D D x.Q.T.T.T.T.C.( / D D D D I . ; ;.-X<X>Xy.y g.l.b.k.t q $ B D D D / / ^ F D D / K.F D D D D D D D ",
"D D D D D D D D D D D D D D B Z.eXaXdXdXyX).Y.U./ D D D x . $.+X<X@X&.a k t k j.f.t e $ B D D D S D / F D F K.F D D D D D D D D ",
"D D D D D D D D D D D D D D B R R.tXtXaXaXaX'.!.( V D S * O P.2X>X&.&.2.U U 3.4.j p a $ B D D D D S V S F / / F D D D D D D D D ",
"D D D D D D D D D D D D D F D Q T.sXsXsXdXkXpX_ b % x v . +.=X1X@X,.@X+X@XP.L.:.%.[ #.$ B D D D D D D D F / S S D D D D D D D D ",
"D D D D D D D D D D D D D F ^ _ W.tXaXaXtXeX6XL 1 a s & . $.<X<Xy.+X-X,X>X+XL.;.@.@.` $ B D D D D D D D S V S D D D D D D D D D ",
"D D D D D D D D D D D D D F ^ Y.rXkXlXlXsX).D.f U T h.U ; :.3X*X%X<X3X3X<X*XoX*.@.#.z v C D D D D D D D D D D D D D D D D D D D ",
"D D D D D D D D D D D D / / x.U.x.7.7.4.4.U U h.B.A.Y.V.p.-.-X%X<X3X4X4X1X*X>.*.%.[ b D D D D D D D D D D D D D D D D D D D D D ",
"D D D D D D D D D F D D F / F D C V x @ 1 U M.Y.`.rX).E.u.P.OX=X<X3X3X,X=X+X-.=.3.# v D D D D D D D D D D D D D D D D D D D D D ",
"D D D D D D D D / K./ F S D F D F D B $ # U B.W.iXrX_./.R.@X+X,X1X>X*X+XoX>.-.:.P < x N S D D D D D D D D D D D D D D D D D D D ",
"D D D D D D D D D ^ / / S V G / K./ D x # a M.E.iX'.(.(.E.I.@X%X;X+XoX>.-.*.2.2.#.` < % V D D D D D D D D D D D D D D D D D D D ",
"D D D D D D F / / S D ^ F S / x./ F D N $ 1 U Z.`.).(./.Z.i.:.-.>.;.;.$.%.<.p.;.*.o.; $ B D D D D D D D D D D D D D D D D D D D ",
"D D D D D D D F / / S S D F / ^ D D D S c & H U B.!.S.6.3.%.o.' 6 6 +.%.2.y.P.oX;.o.; $ B D D D D D D D D D D D D D D D D D D D ",
"D D D D D D D S S ^ F S V S F S D D D D V S Z B K T H a ; 4 4 < < 1 7 =.;.-.-.-.#., = $ B D D D D D D D D D D D D D D D D D D D ",
"D D D D D D D D S S D D S V V S D D D D D D D D D C v x @ 0 k e e t h [ #.#.#.#.4     $ v S D D D D D D D D D D D D D D D D D D ",
"D D D D D D D D D S S F ^ D D D D D D D D D D D D D D m q j.m.m.m.l.f.h i 4 1 s p 0 X + $ b D D D D D D D D D D D D D D D D D D ",
"D D D D D D D D D D D F S S D D D D D D D D D D D D A M a.z.~.~.^.n.l.r 0 o 0 r r e 1 ; ; & v V D D D D D D D D D D D D D D D D ",
"D D D D D D D D D D D S S D D D D D D D D D D D D S M a.k.m.~.~.~.n.g.0 o w e r r e 7 ' ' 6 @ b D D D D D D D D D D D D D D D D ",
"D D D D D D D D D D D D D D D D D D D D ! E W E ! A y a.l.n.~.^.G.z.d.# o e r r r e [ @.@.:   x D D D D D D D D D D D D D D D D ",
"D D D D D D D D D D D D D D D D D D D D E %.#.#.W A y a.l.n.~.G.v.f.e X o e r r r e [ @.@.:   x D D D D D D D D D D D D D D D D ",
"D D D D D D D D D D D D D D D D D D D D W #.*.-.&.W 3.6.l.b.G.b.l.k o X X 0 0 0 i d #.@.@.:   x D D D D D D D D D D D D D D D D ",
"D D D D D D D D D D D D D D D D D D D D E #.-.oX-.*.>.u.N.v.v.v.l.p             : @.@.@.@.:   x D D D D D D D D D D D D D D D D ",
"D D D D D D D D D D D D D D D D D D D D K 4 $.OX+X=X-X:Xu.B.v.f.p n x x x x $   : @.@.@.@.:   x D D D D D D D D D D D D D D D D ",
"D D D D D D D D D D D D D D D D D D D D b + +.oX=X1X3X<X;Xu.N.h + b D D ~ ~ c ; ` @.@.@.@.:   x D D D D D D D D D D D D D D D D ",
"D D D D D D D D D D D D D D D D D D D D b + > *.oX*X<X3X<X:Xu.%.+ b D D v % 6 ` O.@.@.@.@.:   x D D D D D D D D D D D D D D D D ",
"D D D D D D D D D D D D D D D D D D D D v & 6 ' ;.oX=X,X,X*X>.+.  c v v c   , ` ` ` ` ` ` ,   % v v N C D D D D D D D D D D D D ",
"D D D D D D D D D D D D D D D D D D D D S V c ; ' *.oX+X+X].*.>   + + + +     = = = = = =     O + + & B D D D D D D D D D D D D ",
"D D D D D D D D D D D D D D D D S v x x x x $   , ` $.$.$.#.: ;             @ % % l l % % % % % % % x V D D D D D D D D D D D D ",
"D D D D D D D D D D D D D D D D V %                                         c S S V V V S S S S S S D D D D D D D D D D D D D D ",
"D D D D D D D D D D D D D D D D S b x x x x x x x x x x x x x x x x x x x x v D D D D D D D D D D D D D D D D D D D D D D D D D ",
"D D D D D D D D D D D D D D D D D D D D D D D D D D D D D D D D D D D D D D D D D D D D D D D D D D D D D D D D D D D D D D D D ",
"D D D D D D D D D D D D D D D D D D D D D D D D D D D D D D D D D D D D D D D D D D D D D D D D D D D D D D D D D D D D D D D D "
};
