/* XPM */
static const char *Q29sX0xfMg__[] = {
/* columns rows colors chars-per-pixel */
"64 64 233 2 ",
"   c #191A19",
".  c #251C1A",
"X  c #351E18",
"o  c #242518",
"O  c #2B221D",
"+  c #2B2A19",
"@  c #33241D",
"#  c #323319",
"$  c #3C3D19",
"%  c #373819",
"&  c #2F301A",
"*  c #191F22",
"=  c #1A2529",
"-  c #1E353C",
";  c #1B2B32",
":  c #262827",
">  c #372A26",
",  c #393428",
"<  c #2D263E",
"1  c #2D283B",
"2  c #352A39",
"3  c #3A3737",
"4  c #253533",
"5  c #201D23",
"6  c #482219",
"7  c #59281A",
"8  c #56341A",
"9  c #652819",
"0  c #712919",
"q  c #792D1A",
"w  c #78341A",
"e  c #613E19",
"r  c #462C28",
"t  c #592C25",
"y  c #473626",
"u  c #56362A",
"i  c #4C3634",
"p  c #453A39",
"a  c #563B34",
"s  c #492D34",
"d  c #642D22",
"f  c #63392C",
"g  c #72382D",
"h  c #3F401C",
"j  c #494B1A",
"k  c #43451B",
"l  c #5A5C1B",
"z  c #55551C",
"x  c #514B1B",
"c  c #685E1B",
"v  c #6D4F1B",
"b  c #5F611A",
"n  c #63651B",
"m  c #666A1A",
"M  c #6B6D1C",
"N  c #6A6619",
"B  c #726B1B",
"V  c #6E721B",
"C  c #72751B",
"Z  c #76791E",
"A  c #79791E",
"S  c #5B5424",
"D  c #54532A",
"F  c #5A5826",
"G  c #494433",
"H  c #5A4738",
"J  c #4D4E2A",
"K  c #6B4735",
"L  c #774738",
"P  c #6C5A35",
"I  c #71552D",
"U  c #57662F",
"Y  c #636423",
"T  c #6A6A26",
"R  c #727421",
"E  c #767921",
"W  c #7A7B22",
"Q  c #74742A",
"!  c #686834",
"~  c #766B2C",
"^  c #1E3A45",
"/  c #1E3D49",
"(  c #332C45",
")  c #393649",
"_  c #3D3854",
"`  c #273244",
"'  c #443C58",
"]  c #48394B",
"[  c #6C3E41",
"{  c #1F414E",
"}  c #1F4351",
"|  c #27464C",
" . c #224654",
".. c #204858",
"X. c #284C54",
"o. c #285A59",
"O. c #374A4D",
"+. c #3F6555",
"@. c #275A64",
"#. c #325F62",
"$. c #2A666C",
"%. c #337A78",
"&. c #346E71",
"*. c #58574B",
"=. c #484359",
"-. c #544C4F",
";. c #6A5749",
":. c #70514D",
">. c #5C615A",
",. c #6C6A44",
"<. c #716748",
"1. c #6F6F52",
"2. c #474764",
"3. c #535975",
"4. c #515269",
"5. c #615669",
"6. c #58627D",
"7. c #596D66",
"8. c #687E73",
"9. c #6F6D6C",
"0. c #86351D",
"q. c #93391D",
"w. c #923928",
"e. c #A93E29",
"r. c #8A4F35",
"t. c #B7452D",
"y. c #B04C2D",
"u. c #867924",
"i. c #937530",
"p. c #B1663C",
"a. c #A7441F",
"s. c #C54931",
"d. c #CB5B31",
"f. c #C7693B",
"g. c #D96737",
"h. c #CF6833",
"j. c #8D5A49",
"k. c #936555",
"l. c #917051",
"z. c #A3694B",
"x. c #A87857",
"c. c #BC7B58",
"v. c #B16D4E",
"b. c #8A6D66",
"n. c #AF644D",
"m. c #D27C53",
"M. c #D67142",
"N. c #7D8025",
"B. c #3A847D",
"V. c #678B7C",
"C. c #588075",
"Z. c #94822B",
"A. c #AF8B34",
"S. c #CDA03F",
"D. c #948667",
"F. c #949275",
"G. c #928A70",
"H. c #AB8163",
"J. c #B78667",
"K. c #B69273",
"L. c #AE884E",
"P. c #C9885C",
"I. c #EE944E",
"U. c #EC8F4D",
"Y. c #D1A54A",
"T. c #C98963",
"R. c #D18A62",
"E. c #D59C78",
"W. c #D19770",
"Q. c #D9A379",
"!. c #DFAF6F",
"~. c #E5B07F",
"^. c #E2B44B",
"/. c #3A7C84",
"(. c #5C6983",
"). c #676C84",
"_. c #62758D",
"`. c #69778C",
"'. c #677B92",
"]. c #70788B",
"[. c #378884",
"{. c #399089",
"}. c #459998",
"|. c #49908B",
" X c #6D8298",
".X c #78869A",
"XX c #7B90A3",
"oX c #4CA5A6",
"OX c #52ACAE",
"+X c #58ADB6",
"@X c #56A3A3",
"#X c #6AC8D3",
"$X c #6CC9D5",
"%X c #76D6E5",
"&X c #91878A",
"*X c #B09B89",
"=X c #8A9FAF",
"-X c #8498A9",
";X c #8EA3B2",
":X c #97ACB9",
">X c #B5AFAB",
",X c #B3AB9D",
"<X c #D8A784",
"1X c #C9B59A",
"2X c #DBB699",
"3X c #C8A98A",
"4X c #E6B486",
"5X c #E2B998",
"6X c #E0AE8B",
"7X c #D3BCA3",
"8X c #CBB9A2",
"9X c #E2BFA2",
"0X c #EFC793",
"qX c #D9C4AA",
"wX c #CBC9B6",
"eX c #DCCAB3",
"rX c #DAC8B4",
"tX c #D6C9B2",
"yX c #E4C2A3",
"uX c #E9C8AA",
"iX c #E2CAB2",
"pX c #EDD4B7",
"aX c #9FB5C1",
"sX c #A5BBC6",
"dX c #A2B7C2",
"fX c #ACC2CB",
"gX c #DDD4C5",
"hX c #E3DBCB",
"jX c #EBD9C5",
"kX c #EBE7D6",
"lX c #F2EAD8",
"zX c #F4E6CD",
"xX c #F9F5E3",
/* pixels */
"C C C C C C C C C C C C C C C C C C C C C C C C C C C C C C C C C C C C C C C C C C C C C C C C C C C C C C C C C C C C C C C C ",
"C C C C C C C C C C C C C C C C C C C C C C C C C C C C C C C C C C C C C C C C C C C C C C C C C C C C C C C C C C C C C C C C ",
"C C C C C C C C C C C C C C C C C C C C C C C C C C C C C C C C C C C Q ,.! ! ! ! ! F F Y C C C C C C C C C C C C C C C C C C C ",
"C C C C C C C C C C C C C C C C C C C C C C C C C C C C C C C C C C C 1.).4.=.=.=.=.] 2 D C C C C C C C C C C C C C C C C C C C ",
"C C C C C C C C C C C C C C C C C C C C C C C C C C C C C C C T ! ,.1.V.-X.X].6.4.2._ ( J C C C C C C C C C C C C C C C C C C C ",
"C C C C C C C C C C C C C C C C C C C C C C C C C C C C C C C T -.3._.=XfXfXdXXX(.2._ 1 D C C C C C C C C C C C C C C C C C C C ",
"C C C C C C C C C C C C C C C C C C C C C C C C C C C C C C ! *.3.`.=X:XfX:XXX X6._ p D Y C C C C C C C C C C C C C C C C C C C ",
"C C C C C C C C C C C C C C C C C C C C C C C C C C C C M Y *.3.`.-XsXfXfX-X_._.3.( G V C C C C C C C C C C C C C C C C C C C C ",
"C C C C C C C C C C C C C C C C C C C C C C C C C C C C F p 4.`.=XaXfXfXfX-X_.3.2.( G C C C C C C C C C C C C C C C C C C C C C ",
"C C C C C C C C C C C C C C C C C C C C C C C C V N c c G ) 3. X;XdXfXfXfX;X X6.2.( G W W C C C C C C C C C C C C C C C C C C C ",
"C C C C C C C C C C C C C C C C C C C C C C C C N e 8 8 i 2.6.'. X-XsXfXfXsX:X X3.( G W Z C C C C C C C C C C C C C C C C C C C ",
"C C C C C C C C C C C C C C C C C C C Y D D D D J r t w g :.:.b.b.&X=X;X;X;X=X X6._ p D Y C C C C C C C C C C C C C C C C C C C ",
"C C C C C C C C C C C C C C C C C C C D 1 1 1 1 < < t q.q.q.q.a.d.v.].'.'.'.'.'.(.2._ 1 D C C C C C C C C C C C C C C C C C C C ",
"C C C C C C C C C C C C C C C C C C C D < ( _ 2.4.4.-.[ r.y.y.d.h.p.j.:.-.:.:.:.-.a s r S C C C C C C C C C C C C C C C C C C C ",
"C C C C C C C C C C C C C C C C C C C D ( _ 2.(.'.'.).4.k.g.g.g.g.d.a.0.9 w q.0 7 7 7 7 S M C C C C C C C C C C C C C C C C C C ",
"C C C C C C C C C C C C C C C C C C C D ( _ 2.(. X;X;X-X&Xb.M.g.g.h.d.a.0.w q w w 9 r > p G Y C C C C C C C C C C C C C C C C C ",
"C C C C C C C C C C C C C C C C C C C F 3 ) 2.3.'.:XdXfX;X.Xc.m.m.m.m.n.r.K f g g t s ( ( ( D Y Y T C C C C C C C C C C C C C C ",
"C C C C C C C C C C C C C C C C C C C M Y G ) 2.3.'.=XfXsX:X>X>X>X>X>X&X9.9.5.-.] ] ' ' ' _ ) 3 3 J M C C C C C C C C C C C C C ",
"C C C C C C C C C C C C C C C C C C C C C D G ) 2.3. X:XdXfXfXfXfXfXfX:XXXXX.X].).).).).3.4._ ( ( G M C C C C C C C C C C C C C ",
"C C C C C Z C C C C R R R R R R R R R C C M Y p ) =.3.'.;XfXfXfXfXfXfXsXsXsXsXdXdXsXsXdX-X(.4._ ( G M C C C C C C C C C C C C C ",
"C C C C C C R T T ! ! ! ! ! ! ! ! ! ! ! ! T T D G ) ' 4.)..X.X.X-X=X=X=X=X=X=X=X=X=X-X.X).2._ ) G F V C C C C C C C C C C C C C ",
"C C C C W W Q ~ l.l.D.F.F.F.F.F.F.F.F.G.D.l.~ R F 3 < ( _ 2.=.2.(._._._._._._._._._.3.2.) < < 3 Y C C C C C C C C C C C C C C C ",
"C C C W u.i.i.x.K.3X7XgXhXhXhXhXhXhXhXeX7X3Xx.~ S : i j.k.k.-._ =.2.3.3.3.3.3.3.4.2._ ) ( 1 G F M C C C C C C C C C C C C C C C ",
"C C A Z.A.A.x.K.E.E.<XiXjXzXzXzXpXpXpXuX4XE.T.I j o K R.R.c.:.2 ] =.5.5.5.5.4.' _ ( 2 < 2 3 F C C C C C C C C C C C C C C C C C ",
"C C u.A.Y.Y.P.Q.Q.Q.E.2X9XyXyX2X2X6X<X<XT.x.j.S j o ;.4XT.j.L :.k.H.3X3X3XJ.k.p > a i 5 y Y M C C C C C C C C C C C C C C C C C ",
"C C u.A.S.^.!.5XuXyX5XyXyXyX5X5X5X5X5XE.x.P S z x , l.0XH.K k.H.T.Q.0X0X4XW.z.y O u r   j C C C C C C C C C C C C C C C C C C C ",
"C C u.Z.A.Y.0XpXjXiXyXpXyX2X7XqX2XyXuX3Xl.S z l c I x.0Xl., *XiXE.Q.0X4XR.v.r.>   . .   j C C C C C C C C C C C C C C C C C C C ",
"C C A u.Z.L.eXkXhXqX7XeX7X1X7XtX7XiXjX1Xl.F l m ~ r.x.~.x.;.*X5XW.W.~.W.v.L u O     o $ l C C C C C C C C C C C C C C C C C C C ",
"C C Z W Q 1.wXkXhXtX8X7X7X7XqXtXtXeXzXqXD.F l V ~ r.z.R.R.P.R.R.R.R.R.v.r.r         $ M C C C C C C C C C C C C C C C C C C C C ",
"C C Z E Q ,.wXkXhXtX1X7XqX1XG.1.9.9.9.1.H % $ n T u L z.c.R.R.c.j.K K H r O     o k l C C C C C C C C C C C C C C C C C C C C C ",
"C C Z W Q ,.wXkXhX7X1XeXeX1X*.  . . . . . . + z z o r L z.c.c.z.r . . O O O .   # n C C C C C C C C C C C C C C C C C C C C C C ",
"C C Z W Q ,.wXkXhX7X1X7XqX1X*.O u f f f f f u y &   O > y a a u 7 9 0.r.p.r.w @ # n C C C C C C C C C C C C C C C C C C C C C C ",
"C C Z E Q ,.wXkXkXeXtXeXiXqX*.@ K r.z.z.z.z.r., = = = = ; ; ; , 7 0.e.f.U.d.w.6 # n C C C C C W N.Z C C C C C C C C C C C C C C ",
"C C Z E Q ,.wXlXxXlXlXlXlXeX>.@ K x.Q.4X4XW.x.-./ / / / o.&.&.+.f q 0.a.d.a.0 X # n C C C C C C W W E C C C W N.Z C C C C C C C ",
"C C Z E Q ,.wXlXxXxXxXxXxXeX*.@ K x.0X0X4XE.J.7.$.$.&./.}.oXoX|.>.*.H r.e.0.9 X # n C C C C C C V C W C C Z N.Z C C C C C C C C ",
"C C Z E Q ,.wXkXlXzXzXzXzXeX;.@ K x.0X4XR.R.J.V.[.[.oX$X$X%X%X#X}.B.B.*.q 0 9 X # n C C C C C C C V m V Z W W C C C C C C C C C ",
"C C C C Q ,.8XiXyX5X5XyXyX2XD.;.a j.Q.E.R.R.J.V.}.OX#X%X%X%X%X#X}.[.&.O.i i s : # n C C C C C C C C C C Z W V V C C C C C C C C ",
"C C C C Q ! 3X2X<XQ.<X5X9XyXyX*XG a c.P.P.P.J.V.oX$X%X%X%X%X%X#X}.%.........{ = # n C C C C C C C C C C V m V C C C C C C C C C ",
"C C C C R ! *X<XE.E.<XuXjXjXjXrX*Xb.K K K ;.>.#.%.oXOXOXOXOXOX}.%.@.......^ 4 k l M C C C C C C C C C C C C C C C C C C C C C C ",
"C C C C T ! K.E.E.Q.5XjXlXlXlXlXlX,X-., , -  .{ o.&.%.[.[.[.[.%.@.X.O.O.| : o l C C C C C C C C C C C C C C C C C C C C C C C C ",
"C C C C R T l.H.J.E.2XqXeXeXeXeXtX1XK.x.x.G = = ; 4 | @.@.@.@.$.%.7.j.g t @ o l C C C C C C C C C C C C C C C C C C C C C C C C ",
"C C C C C R T P P P <.<.<.<.<.<.<.<.<.~ i.I y y &   : ) ) O.=.-.7.9.k.L t > : j n V C C C C C C C C C C C C C C C C C C C C C C ",
"C C C C C C M Y S S F F D x D F F F S S ~ i.i.i.z o @ d d d r.y.y.k.C.#.| | ^ : $ m C C C C C C C C C C C C C C C C C C C C C C ",
"C C C C C C C E M b l n n l b n Y n b n N u.i.u.c o : i i a L j.j.9.|.%.$.@.{ = # n C C C C C C C C C C C C C C C C C C C C C C ",
"C C C C C C C Z W E M V V C E R C V V V C C C C l o ; ........@.%.{.{.{.{.$.{ = # n C C C C C C C C C C C C C C C C C C C C C C ",
"C C C C C C C V V E C V m V Z V V C C C C C C C l o : i i i i -.#.$.$.$.$.| ; * # n C C C C C C C C C C C C C C C C C C C C C C ",
"C C C C C C C C V V C C V m m V C C C C C C C C l + 6 w w w q d O. . . . .:     & l V C C C C C C C C C C C C C C C C C C C C C ",
"C C C C C C C C C V V Z E C C C C C C C C C C C c 8 r.f.f.f.y.w.f r : > u t 6 . o # x C C C C C C C C C C C C C C C C C C C C C ",
"C C C C C C C C C C C Z V V C C C C C C C C C B v 0.y.I.I.U.g.t.q 6 X 6 0 0 9 > = = , l m C C C C C C C C C C C C C C C C C C C ",
"C C C C C C C C C C C V V C C C C C C C C C V v 0.e.h.I.I.U.g.e.6 X 7 9 0 0 d 3 / / 4 + z C C C C C C C C C C C C C C C C C C C ",
"C C C C C C C C C C C C C C C C C M U U U T B w 0.t.g.I.U.M.y.w.@ X 9 0 0 0 d ) ....-   j C C C C C C C C C C C C C C C C C C C ",
"C C C C C C C C C C C C C C C C C U O.X.X.U B w 0.t.g.I.M.s.w.9 . X 9 0 0 0 d ) ....-   j C C C C C C C C C C C C C C C C C C C ",
"C C C C C C C C C C C C C C C C C U X.@.$.+.U *.:.t.d.M.d.t.q X . . 6 6 6 r p | ....-   j C C C C C C C C C C C C C C C C C C C ",
"C C C C C C C C C C C C C C C C C U X.$.{.$.@.%.8.p.s.s.s.t.7             - ........-   j C C C C C C C C C C C C C C C C C C C ",
"C C C C C C C C C C C C C C C C C F 4 o.{.}.OX+X@X8.k.s.w.t x j j j j #   - ........-   j C C C C C C C C C C C C C C C C C C C ",
"C C C C C C C C C C C C C C C C C z o | [.+X$X%X#XoX8.p.f o z C C V m k = ^ ........-   j C C C C C C C C C C C C C C C C C C C ",
"C C C C C C C C C C C C C C C C C z o - @.[.OX$X%X#X@X8.O.o z C C l % 4 ^ } ........-   j Z C C C C C C C C C C C C C C C C C C ",
"C C C C C C C C C C C C C C C C C l % 4 / $.[.+X#X#XoX%.|   k l l k   ; ^ ^ ^ ^ ^ ^ ;   $ l l b M C C C C C C C C C C C C C C C ",
"C C C C C C C C C C C C C C C C C V m k = / @.[.}.}./.@.-   o o o o     * * * * * *     o o o % n C C C C C C C C C C C C C C C ",
"C C C C C C C C C C C C C V l j j j j #   ; ^ X.o.o.X.- =             + $ $ $ $ $ h h $ $ $ $ j m C C C C C C C C C C C C C C C ",
"C C C C C C C C C C C C C m %                                         k V V V V V m m m V V V C C C C C C C C C C C C C C C C C ",
"C C C C C C C C C C C C C V z j j j j j j j j j j j j j j j j j j j j l C C C C C C C C C C C C C C C C C C C C C C C C C C C C ",
"C C C C C C C C C C C C C C C C C C C C C C C C C C C C C C C C C C C C C C C C C C C C C C C C C C C C C C C C C C C C C C C C ",
"C C C C C C C C C C C C C C C C C C C C C C C C C C C C C C C C C C C C C C C C C C C C C C C C C C C C C C C C C C C C C C C C "
};
