/* XPM */
static const char *Q29sX1JfMQ__[] = {
/* columns rows colors chars-per-pixel */
"64 64 232 2 ",
"   c #191919",
".  c #231C1A",
"X  c #341E18",
"o  c #222218",
"O  c #2A281C",
"+  c #38221B",
"@  c #313219",
"#  c #3D3E19",
"$  c #1B2729",
"%  c #1D3036",
"&  c #362A23",
"*  c #2B2939",
"=  c #243838",
"-  c #3A3739",
";  c #372F2C",
":  c #191E20",
">  c #42221B",
",  c #4C241A",
"<  c #582619",
"1  c #443319",
"2  c #67281A",
"3  c #732B1A",
"4  c #792C1B",
"5  c #77331D",
"6  c #683119",
"7  c #562A22",
"8  c #483425",
"9  c #573729",
"0  c #4A3430",
"q  c #642E23",
"w  c #643A2B",
"e  c #783928",
"r  c #693C34",
"t  c #484A1A",
"y  c #53541B",
"u  c #5C5C1D",
"i  c #5A551E",
"p  c #5E441D",
"a  c #64501C",
"s  c #5F611A",
"d  c #64651B",
"f  c #676A1A",
"g  c #6B6D1D",
"h  c #6A681A",
"j  c #6E721B",
"k  c #72751B",
"l  c #76791E",
"z  c #78751F",
"x  c #726E1D",
"c  c #595626",
"v  c #474332",
"b  c #594837",
"n  c #5C5B38",
"m  c #504E29",
"M  c #664738",
"N  c #774835",
"B  c #685934",
"V  c #715632",
"C  c #5B682D",
"Z  c #6C6D23",
"A  c #676828",
"S  c #766727",
"D  c #6B7121",
"F  c #727320",
"G  c #777A20",
"H  c #797C21",
"J  c #777228",
"K  c #696833",
"L  c #7F6A3C",
"P  c #2E2840",
"I  c #2D2740",
"U  c #332C46",
"Y  c #3B354D",
"T  c #3A3551",
"R  c #3E3956",
"E  c #233C42",
"W  c #1E3A45",
"Q  c #463644",
"!  c #423C5A",
"~  c #583B44",
"^  c #1F4452",
"/  c #264448",
"(  c #224856",
")  c #334D52",
"_  c #32534B",
"`  c #275A64",
"'  c #2C6368",
"]  c #347B77",
"[  c #336B6F",
"{  c #524D48",
"}  c #565446",
"|  c #484659",
" . c #595854",
".. c #4C4D4E",
"X. c #6F5146",
"o. c #48624E",
"O. c #71664A",
"+. c #6C6259",
"@. c #464363",
"#. c #4A4967",
"$. c #4C546D",
"%. c #545A76",
"&. c #6E5961",
"*. c #59637D",
"=. c #50726A",
"-. c #75726E",
";. c #993C1C",
":. c #83331D",
">. c #893723",
",. c #983824",
"<. c #A63C28",
"1. c #895439",
"2. c #8F4E31",
"3. c #B8482B",
"4. c #B24D30",
"5. c #867927",
"6. c #8E6F31",
"7. c #AB5D2B",
"8. c #C94930",
"9. c #C64830",
"0. c #CB5632",
"q. c #DB6832",
"w. c #D7693A",
"e. c #D16736",
"r. c #84574A",
"t. c #95795A",
"y. c #8F6E4E",
"u. c #A46849",
"i. c #AC7654",
"p. c #96746A",
"a. c #8B706D",
"s. c #B47E69",
"d. c #D07347",
"f. c #7E8125",
"g. c #3A857E",
"h. c #6E8877",
"j. c #B78936",
"k. c #9A822B",
"l. c #BB8455",
"z. c #AF8750",
"x. c #928562",
"c. c #949275",
"v. c #908A6D",
"b. c #B78867",
"n. c #B69471",
"m. c #92835F",
"M. c #CB845D",
"N. c #D0904C",
"B. c #F09850",
"V. c #E98A4A",
"C. c #D18A61",
"Z. c #C99A77",
"A. c #D59D7A",
"S. c #CC9268",
"D. c #D9A479",
"F. c #D8A974",
"G. c #E4AD7D",
"H. c #D9AB4B",
"J. c #CD9C3C",
"K. c #5C6A84",
"L. c #5E7088",
"P. c #636D86",
"I. c #64748B",
"U. c #687A92",
"Y. c #737B8E",
"T. c #877E83",
"R. c #398985",
"E. c #3B928B",
"W. c #4C9292",
"Q. c #6F8399",
"!. c #75869A",
"~. c #6E8B8C",
"^. c #798DA1",
"/. c #7E93A5",
"(. c #59B5BA",
"). c #51A6AA",
"_. c #5BA1A0",
"`. c #5FBBC1",
"'. c #68B9C7",
"]. c #6BCAD5",
"[. c #78D8E8",
"{. c #75D5E4",
"}. c #AA9791",
"|. c #B0A893",
" X c #8699AA",
".X c #8EA3B2",
"XX c #98AEBB",
"oX c #94A8B6",
"OX c #9CB1BE",
"+X c #97A3AD",
"@X c #B0B2B1",
"#X c #828492",
"$X c #D8A886",
"%X c #CCB69C",
"&X c #DCB698",
"*X c #CBAB89",
"=X c #E7B688",
"-X c #E2BA98",
";X c #E0AE8B",
":X c #CDBAA1",
">X c #D2BBA2",
",X c #D8BEA5",
"<X c #C6BFB2",
"1X c #E1BEA2",
"2X c #F3CA94",
"3X c #F8D098",
"4X c #ECC394",
"5X c #CDC0A5",
"6X c #D8C4A9",
"7X c #C8C3B7",
"8X c #DDCBB2",
"9X c #DAC9B5",
"0X c #DFD1BD",
"qX c #E3C2A3",
"wX c #E7C8AB",
"eX c #E2CBB2",
"rX c #E6D4BA",
"tX c #F2D7BA",
"yX c #F3CEAD",
"uX c #A5BAC5",
"iX c #9FB5C0",
"pX c #ADC3CC",
"aX c #DDD4C5",
"sX c #EDDBC5",
"dX c #E3DBCB",
"fX c #E7D7C4",
"gX c #F5DDC5",
"hX c #EDE2CA",
"jX c #EBE6D6",
"kX c #F2EAD7",
"lX c #F6E7CE",
"zX c #F9F5E3",
/* pixels */
"k k k k k k k k k k k k k k k k k k k k k k k k k k k k k k k k k k k k k k k k k k k k k k k k k k k k k k k k k k k k k k k k ",
"k k k k k k k k k k k k k k k k k k k k k k k k k k k k k k k k k k k k k k k k k k k k k k k k k k k k k k k k k k k k k k k k ",
"k k k k k k k k k k k k k k k k k k k k k k k k k k k k k k k k k k k k k k k k k k k k k k k k k k k k k k k k k k k k k k k k ",
"k k k k k k k k k k k k k k k k k k k k k k k k k k k k k k k k k k k k k k k k k k k k k k k k k k k k k k k k k k k k k k k k ",
"k k k k k k k k k k k k k k k k k k k k k k k k k k k k k k k k k k k k k k k k k k k k k k k k k k k k k k k k k k k k k k k k ",
"k k k k k k k k k k k k k k k k k k k k k k k k k k k k k k k k k k k k k k k k k k k k k k k k k k k k k k k k k k k k k k k k ",
"k k k k k k k k k k k k k k j c v } } } } } } n Z k k k k k k k k k k k k k k H l k k k k k k k k k k k k k k k k k k k k k k k ",
"k k k k k k k k k k k k k k g v U ! @.#.#.#.#.| K Z Z D k k k k k k k k k k k l G k k k k k k k k k k k k k k k k k k k k k k k ",
"k k k k k k k k k k k k k k g v U ! #.*.K.K.K.*. .{ { n k k k k k k k H f.H l j j k k k k k k k k k k k k k k k k k k k k k k k ",
"k k k k k k k k k k k k k k j m - Y #.*.L.U.Q.!.P.%.$. .K Z k k k k k k G H H j f j H f.H k k k k k k k k k k k k k k k k k k k ",
"k k k k k k k k k k k k k k k g c - T @.%.U. XuXOX XU.%.| K k k k l H H j k G k j k H H l k k k k k k k k k k k k k k k k k k k ",
"k k k k k k k k k k k k k k k k A - U ! %.U..XpXpXuX XU.%. .K Z k k l H H j j k l H G k k k k k k k k k k k k k k k k k k k k k ",
"k k k k k k k k k k k k k k k k A - U ! %.U..XpXpXpXpX.XI.%.| K k k j j G k j f j l j j k k k k k k k k k k k k k k k k k k k k ",
"k k k k k k k k k k k k k k k a p 8 0 Y @.%.P.!. XoXuXiX.XP.| { n Z k j j k k j g g j k k k k k k k k k k k k k k k k k k k k k ",
"k k k k k k k k j g g g g g h p < < 7 ; Q ! @.#.P./.uXpXpXY.#.@...A k k j j l G k k k k k k k k k k k k k k k k k k k k k k k k ",
"k k k k k k k g m v v v v v 0 7 2 5 5 e e e &.P. XOXuXpXpX X%.#...A k k k k l j j k k k k k k k k k k k k k k k k k k k k k k k ",
"k k k k k k Z c - U T T T T Y 0 q :.;.;.;.;.r.T.}.@XOXOXOX/.I.#...A k k k k j j k k k k k k k k k k k k k k k k k k k k k k k k ",
"k k k k k k m - T @.%.*.*.*.*.#.~ q 5 ;.;.;.4.d.d.s.#X!.!.U.L.| - A k k k k k k k k k k k k k k k k k k k k k k k k k k k k k k ",
"k k k k k k v P R #.%.K.I.Q.^.Y.*. .X.r.2.3.0.q.q.d.p.a.a.a.&.{ 9 a h k k k k k k k k k k k k k k k k k k k k k k k k k k k k k ",
"k k k k k k v P R @.@.%.I. XuXuXoXY.P.P.t.q.q.q.q.q.e.e.e.4.2.,.:.6 p x k k k k k k k k k k k k k k k k k k k k k k k k k k k k ",
"k k k k k k c m n { Y | $.P.!. X X X X X}.Z.s.i.e.q.q.q.q.0.3.<.>.w b n n n A k k k k k k k k k k k k k k k k k k k k k k k k k ",
"k k k k k k k k k u - * * T @.*.Q.XXpXpXpXpX XY.i.q.q.q.q.q.e.4.>.| @.@.@.| B k k k k k k k k k k k k k k k k k k k k k k k k k ",
"k k k k k k k k k g c b r Q T #.*.!..XuXpXpXOX+X|.}.p.p.p.p.p.a.-.#XY.*.$.| K k k k k k k k k k k k k k k k k k k k k k k k k k ",
"k k k k k k k k k k k S N 9 U T @.*.!.OXuXuXuXpXpXOX^.Q.Q.Q.Q.Q.^.XX XI.%.! n k k k k k k k k k k k k k k k k k k k k k k k k k ",
"k k k k k k k k k k k i & 9 M Q T #.*.!.^.^.XXpXpXuXOXXXXXXXXXXXoX/.U.$.! U c k k k k k k k k k k k k k k k k k k k k k k k k k ",
"k k k k k k k k k k k y   8 w 0 Q ! @.%.*.K./.XXXXXXXXXXXXXXXX.X XP.$.! Y 0 c k k k k k k k k k k k k k k k k k k k k k k k k k ",
"k k k k k k k k k k k y   . & 9 M Q U U R #.P.Q.Q.Q.Q.Q.Q.Q.U.*.#.R U U v Z g k k k k k k k k k k k k k k k k k k k k k k k k k ",
"k k k k k k k k k k k y     . w r.y.-.-. .T @.$.$.$.$.$.$.$.$.| T P - v c k k k k k k k k k k k k k k k k k k k k k k k k k k k ",
"k k k k k k k k k k k y     . w u.$X2X2Xp.* I P P P * P P P I I * * v g k k k k k k k k k k k k k k k k k k k k k k k k k k k k ",
"k k k k k k k k k d t @     . w u.=X4XG.b.r.a.#XQ - X.r.r.X.r b m m c j k k k k k k k k k k k k k k k k k k k k k k k k k k k k ",
"k k k k j D D D D c O       . w u.F.G.C.C.C.,X<X .b s.C.M.u.1.S k k k k k k k k k k k k k k k k k k k k k k k k k k k k k k k k ",
"k k k k C _ _ _ _ _ E ; , X . w 1.i.s.M.C.C.t.+.r.i.D.S.u.6.S z k k k k k k k k k k k k k k k k k k k k k k k k k k k k k k k k ",
"k k D A o.` ' [ [ [ ` ..3 < > 9 N 1.u.M.C.M.r.M s.G.2XZ.1.S k k k k k k k k k k k k k k k k k H f.l k k k k k k k k k k k k k k ",
"k k C _ ' R.).'.'.).R.o.3 >.,.7 8 N u.M.C.C.Z.F.=X2X3XZ.1.S k k k k k k k k k k k k k k k k k k H H G k k k H f.l k k k k k k k ",
"D C o.' R.).].[.[.].(.=.3 ,.3.q > 9 N i.d.C.=X3X3X2X=Xb.M A k k k k k k k k k k k k k k k k k k j k H k k l f.l k k k k k k k k ",
"A _ ' g.).{.{.[.[.{.{.~.3 ,.9.>.< X 8 1.u.C.=X3X3X=XS.r.O m F F F F F F F k k k k k k k k k k k k j f j l H H k k k k k k k k k ",
"J O.-.h._.(.(.(.(.'.{._. .N ,.,.e X O 8 N i.l.S.S.z.X.b m n K K K K K K K K K K A Z k k k k k k k k k k l H j j k k k k k k k k ",
"5.l.C.C.v.E.E.R.R.).].`.E. .4 <.<.>     8 1.1.1.1.N b O.t.x.c.c.c.c.c.c.c.c.v.x.t.L J k k k k k k k k k j f j k k k k k k k k k ",
"5.l.S.G.*X|.h.' ' ] ).(.`.W. .N >.< , , , 8 9 V 6.6.t.n.*X:XaXdXdXdXdXdXdXfX8X,X*Xi.S g k k k k k k k k k k k k k k k k k k k k ",
"5.l.D.2X3X2X-.( ( ` ] W.'.).] } w w q q > o 8 6.j.i.n.A.A.$XeXsXlXlXhXtXtXtXwX=XA.M.B s g k k k k k k k k k k k k k k k k k k k ",
"5.l.D.2X3X2X-.( ( ( = / ) ` ` [ =.=.o.) * & V z.H.N.F.D.D.A.&X1XqXqX&X-X;X$X$XS.i.r.c u f k k k k k k k k k k k k k k k k k k k ",
"J y.i.n.n.n.=.( | ~ 8 + X ; ) ` [ ] ' / * 7 1.j.H.F.-XwXqX-XqXqXqX-X-X-X-X;XZ.t.V c i u f k k k k k k k k k k k k k k k k k k k ",
"d 8 & ; ; ; E ) r.4.4.>.2 2 7 & % ( / $ > 5 2.u.N.4XtXsXeXqXeX6X&X,X6X&XqXwX*Xt.c i u d g k k k k k k k k k k k k k k k k k k k ",
"f t # # O   0 X.4.9.9.3.,.:.2 X : % * + < 5 >.2.i.8XjXdX6X>X8X>X%X,X8X>XeXsX%Xt.c i f j k k k k k k k k k k k k k k k k k k k k ",
"k k k k t   e 9.9.8.8.9.9.,.2 X     X 2 3 3 5 e X.7XjXdX9X:X>X>X>X6X8X8XrXhX5Xx.c u j l l k k k k k k k k k k k k k k k k k k k ",
"k k d t 1 , ,.8.8.0.w.d.d.4.,.,     X 2 3 3 5 e X.7XjXdX9X%X>X6X>X5X6X8XrXhX5Xm.c u F G l l k k k k k k k k k k k k k k k k k k ",
"k k y o > 3 <.8.8.w.V.B.B.w.3.7     X < 3 3 5 e X.7XjXdX>X%X8X8X>X%X6XrXrXhX:Xx.c u F l l l k k k k k k k k k k k k k k k k k k ",
"k k y o > 3 <.0.w.V.B.B.B.w.3.7     . X , 3 5 e X.7XjXdX>X%X6X6X6X6X6X8X8XhX5Xx.c u F l l l k k k k k k k k k k k k k k k k k k ",
"k k y o > 3 ,.3.d.V.V.V.N.0.<.,         X 2 6 w X.7XjXjX0X6X8XeXrXrXrX0XfXhX5Xx.c u j G l l k k k k k k k k k k k k k k k k k k ",
"k k y o > 3 4 >.4.0.0.4.2.>.4 X         . + + ; { 7XkXzXkXkXkXkXhXsXfXrXdXkX5Xm.c u j G l k k k k k k k k k k k k k k k k k k k ",
"k k y o ; b b M 2.<.<.,.3 2 , .   $ $ $ $ = = - ..7XkXzXzXzXzXzXhXeX%X%X9XsX:Xt.c u j l l k k k k k k k k k k k k k k k k k k k ",
"k k y o / g.g.=.M 4 4 3 3 , .   $ W ^ ( ( ( ( )  .7XjXlXlXlXlXgXtXtXwXwXwXwX*Xt.c i g k l k k k k k k k k k k k k k k k k k k k ",
"k k y o _ E.).).~.-.-.-. .;       % % % % = = = ..@XeX1X-X-X-XqX1X-X-X&X&X$XZ.t.B c g k k k k k k k k k k k k k k k k k k k k k ",
"k k y o _ E.`.{.[.[.[.`.E._                 o O v |.&X$XD.$X-X1XqXqXqX1X&X&X*Xn.y.B Z k k k k k k k k k k k k k k k k k k k k k ",
"k k y o _ E.).(.].[.[.].`.W._ %         @ y y m n n.$XA.A.$XwXsXsXsXsXsXfXrXwX$Xb.1.S k k k k k k k k k k k k k k k k k k k k k ",
"j f t   / ] ] R.).'.'.'.'.W.[ =   o O O t k k Z K n.A.A.D.-XsXkXkXkXkXkXkXgXyX=XS.i.5.x k k k k k k k k k k k k k k k k k k k k ",
"d t O   $ = = = / ) ) ) ) / = $ O t u u d k k F A y.b.b.Z.&X6X8X8X8X8X8X6X&X$XD.N.N.6.5.5.l k k k k k k k k k k k k k k k k k k ",
"d t @ @ @ @ @ @ @ @ @ @ @ @ @ @ t d k k k k k k F S B B B O.O.O.O.O.O.O.O.B L 6.j.J.j.k.5.k k k k k k k k k k k k k k k k k k k ",
"j f d d d d d d d d d d d d d d f j k k k k k k k g d i c c c c c c c c c y i S 6.j.k.5.H k k k k k k k k k k k k k k k k k k k ",
"k k k k k k k k k k k k k k k k k k k k k k k k k k g f d s s s d s s s s s d h 5.5.5.z k k k k k k k k k k k k k k k k k k k k ",
"k k k k k k k k k k k k k k k k k k k k k k k k k k k k k j j j j j j j j j j k k k g k k k k k k k k k k k k k k k k k k k k k ",
"k k k k k k k k k k k k k k k k k k k k k k k k k k k k k k k k k k k k k k k k k k k k k k k k k k k k k k k k k k k k k k k k ",
"k k k k k k k k k k k k k k k k k k k k k k k k k k k k k k k k k k k k k k k k k k k k k k k k k k k k k k k k k k k k k k k k ",
"k k k k k k k k k k k k k k k k k k k k k k k k k k k k k k k k k k k k k k k k k k k k k k k k k k k k k k k k k k k k k k k k "
};
