/* XPM */
static const char *Q29sX0RfMQ__[] = {
/* columns rows colors chars-per-pixel */
"64 64 236 2 ",
"   c #1B1A19",
".  c #221C19",
"X  c #331D18",
"o  c #25231C",
"O  c #2C291B",
"+  c #3A3B1B",
"@  c #31271A",
"#  c #1D2D32",
"$  c #292724",
"%  c #35372A",
"&  c #292338",
"*  c #362B38",
"=  c #283737",
"-  c #3A3736",
";  c #372F26",
":  c #462319",
">  c #5A2A1A",
",  c #52291B",
"<  c #4F381C",
"1  c #682919",
"2  c #722B19",
"3  c #72301A",
"4  c #6F3119",
"5  c #472B25",
"6  c #552C26",
"7  c #58352E",
"8  c #463935",
"9  c #543735",
"0  c #48342E",
"q  c #663524",
"w  c #783929",
"e  c #3B4126",
"r  c #3C433C",
"t  c #42431A",
"y  c #4D4E1B",
"u  c #4B441A",
"i  c #53541C",
"p  c #5B5B1C",
"a  c #5C551C",
"s  c #6B591C",
"d  c #725A1B",
"f  c #5F611A",
"g  c #6B6E1C",
"h  c #64661B",
"j  c #6E721B",
"k  c #72751B",
"l  c #76791E",
"z  c #78751F",
"x  c #746D1F",
"c  c #464625",
"v  c #555222",
"b  c #5C5C26",
"n  c #53522A",
"m  c #585828",
"M  c #524C32",
"N  c #654737",
"B  c #7B4834",
"V  c #785C39",
"C  c #6A532E",
"Z  c #6A6C24",
"A  c #676727",
"S  c #796626",
"D  c #767A20",
"F  c #797C22",
"G  c #737223",
"H  c #6C6930",
"J  c #5F612A",
"K  c #2E2841",
"L  c #342C45",
"P  c #38344B",
"I  c #3C3954",
"U  c #253E43",
"Y  c #443949",
"T  c #433C58",
"R  c #543E45",
"E  c #623D47",
"W  c #354848",
"Q  c #37544B",
"!  c #2E4E54",
"~  c #377371",
"^  c #31615F",
"/  c #4C4C46",
"(  c #534D4C",
")  c #575646",
"_  c #48475A",
"`  c #585555",
"'  c #4D5353",
"]  c #7C5648",
"[  c #6E544E",
"{  c #726648",
"}  c #6D634F",
"|  c #4B4D6B",
" . c #474463",
".. c #4D536D",
"X. c #4C5364",
"o. c #56566A",
"O. c #545974",
"+. c #565772",
"@. c #4F5470",
"#. c #695662",
"$. c #59627B",
"%. c #4B726D",
"&. c #7D7975",
"*. c #6D6C6D",
"=. c #8E371D",
"-. c #863623",
";. c #993A25",
":. c #A43C27",
">. c #994429",
",. c #885236",
"<. c #96573A",
"1. c #904731",
"2. c #A64429",
"3. c #B44729",
"4. c #B95328",
"5. c #B45836",
"6. c #AB5131",
"7. c #847925",
"8. c #977B2A",
"9. c #8F6F34",
"0. c #AF7037",
"q. c #A2411D",
"w. c #C94C32",
"e. c #C45134",
"r. c #C95C2C",
"t. c #D76835",
"y. c #D16534",
"u. c #8B5B49",
"i. c #AF5942",
"p. c #9A6547",
"a. c #8F7A5C",
"s. c #86755F",
"d. c #97745B",
"f. c #916A4D",
"g. c #A96A4A",
"h. c #AF7554",
"j. c #866864",
"k. c #837A67",
"l. c #967665",
"z. c #857B75",
"x. c #92766E",
"c. c #AB7C61",
"v. c #C6764F",
"b. c #7E8125",
"n. c #3A837D",
"m. c #79837A",
"M. c #B58933",
"N. c #9A822B",
"B. c #C7943D",
"V. c #8B837C",
"C. c #A48665",
"Z. c #B78563",
"A. c #AB916C",
"S. c #BE916B",
"D. c #A79573",
"F. c #AF8D78",
"G. c #B38844",
"H. c #C7835D",
"J. c #CB974F",
"K. c #D49D7B",
"L. c #C99876",
"P. c #D6A378",
"I. c #DDA76F",
"U. c #E3A97A",
"Y. c #DDAE4B",
"T. c #5C6B84",
"R. c #477B87",
"E. c #64748C",
"W. c #6B7C92",
"Q. c #657990",
"!. c #676F87",
"~. c #3F9792",
"^. c #47938B",
"/. c #6E8399",
"(. c #76879B",
"). c #6E9090",
"_. c #7B90A3",
"`. c #53A8AA",
"'. c #69A8AB",
"]. c #48A09E",
"[. c #6CC5D0",
"{. c #938B8E",
"}. c #AF998E",
"|. c #B4AC8D",
" X c #899AAA",
".X c #909EAE",
"XX c #8DA1B1",
"oX c #9AAEBB",
"OX c #96A8B6",
"+X c #9EB2BF",
"@X c #99A3A7",
"#X c #BFBAAC",
"$X c #D8A887",
"%X c #CCB59C",
"&X c #DCB698",
"*X c #CEAA89",
"=X c #E4B288",
"-X c #E2BC9A",
";X c #E2B795",
":X c #E0AE8B",
">X c #CCBBA4",
",X c #D2BCA2",
"<X c #D6BEA6",
"1X c #E1BEA2",
"2X c #F1C48E",
"3X c #F8D098",
"4X c #EEC897",
"5X c #D5C1A5",
"6X c #DAC6AE",
"7X c #D9C4A9",
"8X c #C8C4B8",
"9X c #DDCBB2",
"0X c #DBC9B5",
"qX c #DFD1BD",
"wX c #E3C2A3",
"eX c #E8C8AA",
"rX c #E2CBB2",
"tX c #E6D4BA",
"yX c #F2D7BA",
"uX c #F3CEAD",
"iX c #9FB5C1",
"pX c #A5BAC5",
"aX c #ACC2CC",
"sX c #DED8CB",
"dX c #D9CEC2",
"fX c #EDDBC5",
"gX c #E5DCCB",
"hX c #E8D8C4",
"jX c #F5DDC5",
"kX c #ECE2CA",
"lX c #F5E4CB",
"zX c #EBE5D5",
"xX c #ECEBDC",
"cX c #F2E9D6",
"vX c #F8F3DC",
"bX c #F9F5E3",
/* pixels */
"k k k k k k k k k k k k k k k k k k k k k k k k k k k k k k k k k k k k k k k k k k k k k k k k k k k k k k k k k k k k k k k k ",
"k k k k k k k k k k k k k k k k k k k k k k k k k k k k k k k k k k k k k k k k k k k k k k k k k k k k k k k k k k k k k k k k ",
"k k k k k k k k k k k k k k k k k k k k k k k k k k k k k k k k k k k k k k k k k k k k k k k k k k k k k k k k k k k k k k k k ",
"k k k k k k k k k k k k k k k k k k k k k k k k k k k k k k k k k k k k k k k k k k k k k k k k k k k k k k k k k k k k k k k k ",
"k k k k k k k k k k k k k k k k k k k k k k k k k k k k k k k k k k k k k k k k k k k k k k k k k k k k k k k k k k k k k k k k ",
"k k k k k k k k k k k k k k k k k k k k k k k k k k k k k k k k k k k k k k k k k k k k k k k k k k k k k k k k k k k k k k k k ",
"k k k k k k k k k k k k k k k k k k k k k k k k k k k k k k k k k k k k k k k F l k k k k k k k k k k k k k k k k k k k k k k k ",
"k k k k k k k k k k k k k k k k k k k k k k k k k k k k k k k k k k k k k k k D D k k k k k k k k k k k k k k k k k k k k k k k ",
"k k k k k k k k k k k k k k k k k k k k k k k k k k k k k k k k k k k H ) ) ) ) J G k k k k k k k k k k k k k k k k k k k k k k ",
"k k k k k k k k k k k k k k k k k k k k k k k k k k k k k k Z Z Z Z Z ) | |  . .( Z F b.F k k k k k k k k k k k k k k k k k k k ",
"k k k k k k k k k k k k k k k k k k k k k k k k k k k k k G J ( ( ( ( o.T.T.$.| ( Z D F l k k k k k k k k k k k k k k k k k k k ",
"k k k k k k k k k k k k k k k k k k k k k k k k k k Z H H J ` @.O.$.$.W._./.T.| ( G D k k k k k k k k k k k k k k k k k k k k k ",
"k k k k k k k k k k k k k k k k k k k k k k k k k k J _ _ _ $.W.XXoXoX+XiX_.T.| ( Z j j k k k k k k k k k k k k k k k k k k k k ",
"k k k k k k k k k k k k k k k k k k k k k k k k g m ) @.T.W.(.XXpXaXaXiXXXW.O.` m Z j k k k k k k k k k k k k k k k k k k k k k ",
"k k k k k k k k k k k k k k k k k k k k k k k k J - _ E. XpXaXaXaXaXaXXXQ.O._ H k k k k k k k k k k k k k k k k k k k k k k k k ",
"k k k k k k k k k k k k k k k k k k k k k k g m c * I O.W. XpXaXaXaXaXXXE.| Y J j k k k k k k k k k k k k k k k k k k k k k k k ",
"k k k k k k k k k k k k k k k k k k k j g g A - K L P T O.Q.XXpXpXpXpX XT._ * m j k k k k k k k k k k k k k k k k k k k k k k k ",
"k k k k k k k k k k k k k k k k k k k b c u < * P .... .| O.W._._.(.!.+.W I I 8 n Z k k k k k k k k k k k k k k k k k k k k k k ",
"k k k k k k k k k k k k k k k k k g A c & 5 5 * Y o.+.| +.$.W.(.(.E...I L Y Y * 8 b A A g k k k k k k k k k k k k k k k k k k k ",
"k k k k k k k k k k k k k k k k k b 8 * & * * 5 6 7 ` T.(.OXoX+X+X XE.@.T 9 6 6 5 - - - m k k k k k k k k k k k k k k k k k k k ",
"k k k k k k k k k k k k k k k k k m * K L L L 6 1 4 B *.{.|.}.}.}.{.x.#.E 7 > > 6 L L & n k k k k k k k k k k k k k k k k k k k ",
"k k k k k k k k k k k k k k k k k m * P T T T 6 1 =.;.>.5.t.5.>.>.6.y.4.;.3 > > 6 T P & n k k k k k k k k k k k k k k k k k k k ",
"k k k k k k k k k k k k k k k k k m * P  .| +.` ] 6.4.4.r.t.3.q.3.r.t.4.;.2 > 7 R @._ K n k k k k k k k k k k k k k k k k k k k ",
"k k k k k k k k k k k k k k k k k m * P  .$.Q.Q.z.v.t.t.t.y.3.2.r.t.t.4.;.3 6 Y | T...K n k k k k k k k k k k k k k k k k k k k ",
"k k k k k k k k k k k k k k k k k Z m M P O.W. X@X}.F.x.x.l.j.j.j.x.x.j.#.R 8 X.T.E...K n k k k k k k k k k k k k k k k k k k k ",
"k k k k k k k k k k k k k k k k k k k m - X.Q.XXpXaXOX/./././././.W.Q.E.T._ L ..T.T.X.- m k k k k k k k k k k k k k k k k k k k ",
"k k k k k k k k k k k k k k k k k k k Z b ` O.W. XpXpXoXoXoXoXoXoX XW.$.| P K P I I / b Z k k k k k k k k k k k k k k k k k k k ",
"k k k k k k k k k k k k k k k k k k k k k { #.+.!.(. X.X.X.X X X X(.$.| I K & & & & c k k k k k k k k k k k k k k k k k k k k k ",
"k k k k k k k k k k k k k k k k k k k k k g.c.( P I  .+.+.@._ T T I P L K $         + j k k k k k k k k k k k k k k k k k k k k ",
"k k k k k k k k k k k k k k k g i y y a d <.p.u.[ 9 #.{.o.L ( [ [ R & _ &.Y     . X < s a y y i g k k k k k k k k k k k k k k k ",
"k k k k k k k k k k k k k k k f O     : 2 2 -.g.h.<.F.zX&.$ u.H.H.u.$ &.zX*.    X 1 2 2 :     O f k k k k k k k k k k k k k k k ",
"k k k k k k k k k k k k p t t e = ! %.` 2 -.;.<.<.,.c.;Xd.N Z.U.U.Z.N d.&X[     X 1 -.;.} %.! = e t t p k k k k k k k k k k k k ",
"k k k k k k k k k k j g c $ $ % W R.[.).w >.3.-.w ,.g.H.g.p.P.3X3XP.p.g.v.N     X 1 ;.i.{.[.R.W % $ $ c g j k k k k k k k k k k ",
"k k k k k k k k k k p + { A.A.C.d.m.`.'._.u.;.:.;.w 1.p.g.h.=X3X3X=Xh.g.p.0 . : 1 ;.d.@X'.`.m.l.C.A.A.{ + p F b.l k k k k k k k ",
"k k k k k k k k k k y   a.3X3X2XI.D.^.`.[.m.] u.<.-.w B p.H.P.=X=XP.H.p.N ; . 5 w <.V.[.`.^.D.U.2X3X3Xa.  i b.l k k k k k k k k ",
"k k k k k k k k k k y   a.3X3X3X2X|.^.~.].'.'.).*.6.-.; N p.p.p.p.p.p.N ; $ $ = ' %.^.].^.^.|.2X3X3X3Xa.  i D k k k k k k k k k ",
"k k k k k k k k k k a 5 C.3X3X3X3X|.%.~ ~ `.`.^.%.f.N 5 9 N N N N N N M 8 - P W ^ ~ n.~ ~ %.|.3X3X3X3XC.5 b j j k k k k k k k k ",
"k k k k k k k k k k S B S.3X3X3X3XD.% = ! ~ ^.~ X.%.} ] } *.&.z.z.z.z.z.x.V.m.&.*.*.~ ! = % A.3X3X3X3XS.B d j k k k k k k k k k ",
"k k k k k k k k k k S ,.h.S.C.a.a.[ o # # ! Q ) } } l.F.*X>XdXsXgXsXsXsXgXsX0X<X*Xl./ = # o [ a.a.C.S.h.,.S k k k k k k k k k k ",
"k k k k k k k k k k S ,.,.B 5             o < V 0.d.S.K.K.$XrXfXcXcXkXyXyXuXeX=XK.Z.9 o           5 B ,.,.S k k k k k k k k k k ",
"k k k k k k k k k k G S S S a y y +   X , q ,.G.J.J.P.P.P.K.&X1XwXwX&X;X:X$X$XH.d.u.q q > , u y y a S S S G k k k k k k k k k k ",
"k k k k k k k k D b.F l j j k k k a @ , -.>.6.B.Y.I.-XeXwX-XwXwXwX-X-X;X;X;XL.d.B B -.;.-.4 d k k k k k k k k k k k k k k k k k ",
"k k k k k k k k k D F D j g j F b.s > -.3.3.5.0.J.4XyXhXrXwXrX7X&X<X7X&XwXeX*Xd.B -.>.2.-.4 d k k k k k k k k k k k k k k k k k ",
"k k k k k k l F D j k D k j k D F d 4 ;.w.w.e.5.h.9XzXgX6X,X9X,X%X<X6X,XrXfX%Xd.B 1.2.2.-.> s k k k k k k k k k k k k k k k k k ",
"k k k k k k k l F D j j k l D D k d 2 ;.w.w.e.5.u.8XzXgX0X>X,X,X,X5X6X6XtXkX>Xl.B 1.>.-., @ p k k k k k k k k k k k k k k k k k ",
"k k k k k k k j j D k j g j l j j s , 2 :.3.e.5.u.8XzXgX0X%X,X5X,X5X6X9XtXkX>Xl.N q q , < u h k k k k k k k k k k k k k k k k k ",
"k k k k k k k k j j k k j g g j k i o : 2 2.e.5.u.8XzXgX<X%X9X9X,X%X5XtXrXkX>Xs.% O O o y k k k k k k k k k k k k k k k k k k k ",
"k k k k k k k k k j j l D k k k k h y < : 6 w N [ 8XzXgX<X%X5X7X7X5X7X9X0XkX>Xk.- $ + y h l k k k k k k k k k k k k k k k k k k ",
"k k k k k k k k k k k l j j k k k k k y o o O ; / 8XzXzXqX6X9XrXtXtXqXqXhXkX>Xk.r $ c g k l k k k k k k k k k k k k k k k k k k ",
"k k k k k k k k k k k j j k k k k k k h i p v % / 8XxXbXvXcXcXcXkXfXhXtXgXcX>Xk.r = % + p k k k k k k k k k k k k k k k k k k k ",
"k k k k k k k k k k k k k k k k k k k k k g b e ( 8XxXbXbXbXbXvXkXrX,X%X0XfX>Xk.W W W $ c h j k k k k k k k k k k k k k k k k k ",
"k k k k k k k k k k k k k k k k k k k k k y % W ' 8XzXcXlXlXlXlXyXyXrXeXeXeX*Xk.' ^ ^ ! = + p k k k k k k k k k k k k k k k k k ",
"k k k k k k k k k k k k k k k k k k k h i % = ! X.>XrXwX-X-XwXwX1X-X-X&X&X$XL.a.) Q ! U % t f k k k k k k k k k k k k k k k k k ",
"k k k k k k k k k k k k k k k k k k k y o = ! ~ %.|.&X$XP.$X;X1X1XwXwX1X&X&X*XF.] 8 $ $ y g j k k k k k k k k k k k k k k k k k ",
"k k k k k k k k k k k k k k k k k k k p t % = Q ' }.$XK.K.$XeXhXfXfXfXfXhXtXeX$XZ.V v u p k k k k k k k k k k k k k k k k k k k ",
"k k k k k k k k k k k k k k k k k k k k j t   o - A.L.K.K.-XfXcXcXcXvXvXcXjXuX=XI.h.7.x k k k k k k k k k k k k k k k k k k k k ",
"k k k k k k k k k k k k k k k k k k k k k f i i n f.c.S.L.&X7X6X0X9X9X6X7X&X$XI.J.J.8.7.7.l k k k k k k k k k k k k k k k k k k ",
"k k k k k k k k k k k k k k k k k k k k k k k k G H C C V { { { { { { { { V V 9.M.B.M.N.7.k k k k k k k k k k k k k k k k k k k ",
"k k k k k k k k k k k k k k k k k k k k k k k k k g h a v v v v v v v v v i a S 8.M.N.8.F k k k k k k k k k k k k k k k k k k k ",
"k k k k k k k k k k k k k k k k k k k k k k k k k k g h h f f f h f f f f f h g 7.8.8.z k k k k k k k k k k k k k k k k k k k k ",
"k k k k k k k k k k k k k k k k k k k k k k k k k k k k k j j j j j j j j j j k k k g k k k k k k k k k k k k k k k k k k k k k ",
"k k k k k k k k k k k k k k k k k k k k k k k k k k k k k k k k k k k k k k k k k k k k k k k k k k k k k k k k k k k k k k k k ",
"k k k k k k k k k k k k k k k k k k k k k k k k k k k k k k k k k k k k k k k k k k k k k k k k k k k k k k k k k k k k k k k k ",
"k k k k k k k k k k k k k k k k k k k k k k k k k k k k k k k k k k k k k k k k k k k k k k k k k k k k k k k k k k k k k k k k "
};
