/* XPM */
static const char *Q29sX1VfMg__[] = {
/* columns rows colors chars-per-pixel */
"64 64 221 2 ",
"   c #191A1B",
".  c #341E19",
"X  c #291E1B",
"o  c #212218",
"O  c #2C241B",
"+  c #323319",
"@  c #3A3C1A",
"#  c #3A281A",
"$  c #211E2A",
"%  c #1A2124",
"&  c #1B272A",
"*  c #1C2D34",
"=  c #1D343D",
"-  c #272829",
";  c #25322C",
":  c #2C273D",
">  c #352B39",
",  c #243937",
"<  c #39352F",
"1  c #191E20",
"2  c #58281A",
"3  c #4B301A",
"4  c #672B19",
"5  c #713918",
"6  c #762B1B",
"7  c #492A28",
"8  c #552D29",
"9  c #4A3529",
"0  c #493939",
"q  c #533637",
"w  c #55302E",
"e  c #763326",
"r  c #68372E",
"t  c #3D411E",
"y  c #3E4421",
"u  c #484A1A",
"i  c #44461A",
"p  c #53551A",
"a  c #56581B",
"s  c #5A5C1B",
"d  c #59551D",
"f  c #5B491C",
"g  c #6F591B",
"h  c #63661B",
"j  c #666A1A",
"k  c #6B6D1C",
"l  c #666D17",
"z  c #6D721B",
"x  c #72751B",
"c  c #76791F",
"v  c #797A1E",
"b  c #726A1B",
"n  c #404521",
"m  c #5B5A26",
"M  c #5A562A",
"N  c #474335",
"B  c #57493F",
"V  c #4D4E32",
"C  c #614438",
"Z  c #774635",
"A  c #6A5730",
"S  c #696A26",
"D  c #737521",
"F  c #767A21",
"G  c #7A7C22",
"H  c #7B7426",
"J  c #6C6C33",
"K  c #766E2E",
"L  c #556531",
"P  c #1E3943",
"I  c #1F3E4B",
"U  c #2E2A42",
"Y  c #332D45",
"T  c #263B49",
"R  c #39364A",
"E  c #3B3753",
"W  c #243E50",
"Q  c #463849",
"!  c #403A55",
"~  c #553D4A",
"^  c #453F60",
"/  c #1F4453",
"(  c #1F404C",
")  c #27464B",
"_  c #214656",
"`  c #204958",
"'  c #2A4954",
"]  c #334A55",
"[  c #26545E",
"{  c #33514C",
"}  c #265A64",
"|  c #265762",
" . c #365E61",
".. c #2A646B",
"X. c #2C686D",
"o. c #2C6D71",
"O. c #357A76",
"+. c #346D6E",
"@. c #2A605F",
"#. c #5A5447",
"$. c #46435A",
"%. c #554C4C",
"&. c #694A49",
"*. c #675755",
"=. c #75514A",
"-. c #736458",
";. c #464262",
":. c #484565",
">. c #4A4A67",
",. c #4F516E",
"<. c #55556B",
"1. c #555975",
"2. c #50536F",
"3. c #6E5A65",
"4. c #5A637C",
"5. c #4F7770",
"6. c #746762",
"7. c #716E73",
"8. c #84361E",
"9. c #89341C",
"0. c #863827",
"q. c #9A3924",
"w. c #A63D29",
"e. c #894939",
"r. c #93472F",
"t. c #AA4624",
"y. c #B44828",
"u. c #A35538",
"i. c #B15031",
"p. c #89792B",
"a. c #AE6D3D",
"s. c #A3411E",
"d. c #CC5D2B",
"f. c #C94C32",
"g. c #CC5434",
"h. c #CE5535",
"j. c #D86733",
"k. c #CF6935",
"l. c #9A5C48",
"z. c #89594D",
"x. c #AC5A46",
"c. c #8C6757",
"v. c #917252",
"b. c #AC6749",
"n. c #A26E5D",
"m. c #A37856",
"M. c #B86747",
"N. c #87747A",
"B. c #8B6E64",
"V. c #B87D69",
"C. c #D67B43",
"Z. c #C86B48",
"A. c #E17C44",
"S. c #7E8125",
"D. c #37827D",
"F. c #44837A",
"G. c #888327",
"H. c #AD8935",
"J. c #928664",
"K. c #949275",
"L. c #918972",
"P. c #B59564",
"I. c #B6876B",
"U. c #C88D58",
"Y. c #F09850",
"T. c #E98A4A",
"R. c #C88863",
"E. c #C99B79",
"W. c #D39E77",
"Q. c #CFA679",
"!. c #D0A54C",
"~. c #3A7783",
"^. c #5C6983",
"/. c #5F7089",
"(. c #636B83",
"). c #63768E",
"_. c #69768A",
"`. c #657991",
"'. c #6B7D94",
"]. c #747A8D",
"[. c #378C86",
"{. c #378683",
"}. c #389088",
"|. c #499183",
" X c #4B9192",
".X c #75869B",
"XX c #699394",
"oX c #47A19F",
"OX c #7B8CA0",
"+X c #7E90A3",
"@X c #52A7AD",
"#X c #58B3B8",
"$X c #52AAAD",
"%X c #6AADAE",
"&X c #4D9EA5",
"*X c #70C7D3",
"=X c #78D8E8",
"-X c #77D6E5",
";X c #98908E",
":X c #A4938F",
">X c #8999A9",
",X c #909EAE",
"<X c #8FA4B3",
"1X c #94A9B7",
"2X c #9DB2BE",
"3X c #AFA9A6",
"4X c #BCAE99",
"5X c #CFAD91",
"6X c #E2B795",
"7X c #E2B08C",
"8X c #DABDA2",
"9X c #EDCEB2",
"0X c #DFCCB7",
"qX c #93B8C2",
"wX c #A5BAC5",
"eX c #88C8CE",
"rX c #8BCED0",
"tX c #ADC3CC",
"yX c #DDD4C5",
"uX c #E4DAC9",
"iX c #F0E3D1",
/* pixels */
"x x x x x x x x x x x x x x x x x x x x x x c x F S S S J J J J J J J J J J S S S x x x x x x x x x x x x x x x x x x x x x x x ",
"x x x x x x x x x x x x x x x x x x x x x x v G H K v.v.J.K.K.K.K.K.K.K.K.L.J.v.K D x x x x x x x x x x x x x x x x x x x x x x ",
"x x x x x x x x x x x x x x x x x x x x x v p.p.p.m.I.5X8XyXuXuXuXuXyXyXuX0X8X5Xm.K k x x x x x x x x x x x x x x x x x x x x x ",
"x x x x x x x x x x x x x x x x x x x x v G.H.H.m.P.W.W.5X0XuXiXiXiX9X9X9X9X7XW.R.A s k x x x x x x x x x x x x x x x x x x x x ",
"x x x x x x x x x x x x x x x x x x x x p.H.!.!.U.W.W.W.E.5X8X8X8X8X6X7X7X7XR.m.z.M s h x x x x x x x x x x x x x x x x x x x x ",
"x x x x x x x x x x x x x x x x x x x x p.v.-.c.B.N.N.N.N.N.N.;X5X6X6X6X7XE.m.A A d s h x x x x x x x x x x x x x x x x x x x x ",
"x x x x x x x x x x x x x x x x x x x x H *.;.:.>.>.,.2.2.2.,.1.:X5X5X8X9X5Xv.M m s h l x x x x x x x x x x x x x x x x x x x x ",
"x x x x x x x x x x x x x x x x x x x x F #.:.1.^.^.'.,X,X>X'.4.7.7.7.:XuX8Xv.M m k z x x x x x x x x x x x x x x x x x x x x x ",
"x x x x x x x x x x x x x x x x x x x x F #.:.1.)..X<XtXtXwX,X.X(.1.,.].3X4XJ.M s D F v c x x x x x x x x x x x x x x x x x x x ",
"x x x x x x x x x x x x x x x x x x x x F #.;.:.(.1XwXtXtXtXwXwX2X>X).<.$.;XJ.m a k S.G.S.x x x x x x x x x x x x x x x x x x x ",
"x x x x x x x x x x x x x x x x x x x x c J %.! 2.>X2XtXtXtXtXwX1XOX^.$.U 3.-.M s D G S.F x x x x x x x x x x x x x x x x x x x ",
"x x x x x x x x x x x x x x x x x x x x c F J R E ^.>XtXtXtXtX2X.X^.:.E : U Q V S D G c c x x x x x x x x x x x x x x x x x x x ",
"x x x x x x x x x x x x x x x x x x x x x m N R E ;.4.].OX>X>XOX^.,.;.:.>.R > 9 f S x x c x x x x x x x x x x x x x x x x x x x ",
"x x x x x x x x x x x x x x x x x x k k S N > ! E Y E ;.4.'.'.).1.>.:.1.(.$.> 7 3 m S D x x x x x x x x x x x x x x x x x x x x ",
"x x x x x x x x x x x x x x x x x S N N N 9 7 w 0 ! >.4..X1X1X<X,X.X^.<.%.w 7 7 > 0 N N m x x x x x x x x x x x x x x x x x x x ",
"x x x x x x x x x x x x x x x x x m > U Y 7 2 2 8 ~ 3.7.;X3X3X3X3X:X7.&.4 4 2 > Y Y U : V x x x x x x x x x x x x x x x x x x x ",
"x x x x x x x x x x x x x x x x x m > Y E w 2 2 4 0.u.Z.b.l.l.b.Z.M.r.r.9.4 8 Q ! ! R : V x x x x x x x x x x x x x x x x x x x ",
"x x x x x x x x x x x x x x x x x m > E ,.~ w 8 4 9.y.j.d.y.s.t.d.d.y.y.y.Z %.$.^ ^ E : 9 a h x x x x x x x x x x x x x x x x x ",
"x x x x x x x x x x x x x x x x x m > ;./.2.Q 8 4 9.y.j.j.d.t.t.d.j.j.j.k.B.4.,.^ ! E : - O a x x x x x x x x x x x x x x x x x ",
"x x x x x x x x x x x x x x x x x m > E 1.1.1.*.*.=.c.n.n.n.c.z.n.n.n.I.E.:X+X(.,.;.E : $ o p x x x x x x x x x x x x x x x x x ",
"x x x x x x x x x x x x x x x x x m > R ;.1.).).).).`.`.`.`.`.`.`.`.`.>XtXtXwXOX^.:.E : $ o p x x x x x x x x x x x x x x x x x ",
"x x x x x x x x x x x x x x x x x m - : R ;.1.^.).)..X<X<X<X<X<X<X<X<X2XtXtXwXOX4.E : $   o p x x x x x x x x x x x x x x x x x ",
"x x x x x x x x x x x x x x x x x p o - U E ;.1.^.^.OXwXwXtXtXtXtXtXtXtXtXwX1X.X1.Q > %   o p x x x x x x x x x x x x x x x x x ",
"x x x x x x x x x x x x x x x x x p o * W T Y E $.>.^..X1XtXtXtXtXtXtXtXtX<X.X4.3.c.*.T & o p x x x x x x x x x x x x x x x x x ",
"x x x x x x x x x x x x x x x x x p o * _ T U > Q E >.1.].>X>X>X,X,X,X,X>X_.2.! %.c.-.` * o p x x x x x x x x x x x x x x x x x ",
"x x x x x x x x x x x x x x x x x p o * ` _ ] &.C Y Y R E ! E $.,.2.2.>.! R Y - ; ] ] ` * o p x x x x x x x x x x x x x x x x x ",
"x x x x x x x x x x x x x x x x x p o = .... .B w q q q &.&.&.=.-.6.6.&.q > $   * [ ...., o p x x x x x x x x x x x x x x x x x ",
"x x x x x x x x x x x x x x x x x p o ) [.[.O., # Z e.e.b.R.R.R.R.R.R.b.e.7     , O.[.[.) o p x x x x x x x x x x x x x x x x x ",
"x x x x x x x x x x x x x x x x x p o ) }.}.O.N 3 9 9 9 Z u.M.Z.Z.M.u.Z 9 O   . N O.}.}.) o p x x x x x x x x x x x x x x x x x ",
"x x x x x x x x x x x x x x x x x p o ) {.[.F.C 2 . O O 2 8.y.g.g.y.0.2 X X . 2 C F.[.{.) o p x x x x x x x x x x x x x x x x x ",
"x x x x x x x x x x x x x x x x x p o , ..O.F.C 6 0.r.a.a.k.C.A.A.C.k.u.0.0.0.6 B F.O..., o p x x x x x x x x x x x x x x x x x ",
"x x x x x x x x x x x x x x x x x s + ; I ..+.B e w.h.T.T.Y.Y.Y.Y.T.T.j.f.y.w.e B +...( ; + s x x x x x x x x x x x x x x x x x ",
"x x x x x x x x x x x x x x x x x l h y & ) [ ' 0 e t.h.A.Y.Y.Y.Y.T.j.g.f.q.e 0 ' [ ) & y h l F S.c x x x x x x x x x x x x x x ",
"x x x x x x x x x x x x x x x x x x x a @ , P / ) 0 r e.m.P.P.P.P.m.z.e.e.r 0 ) / P , @ a x x x G G F x x x G S.c x x x x x x x ",
"x x x x x x x x x x x x x x x x x x x z h @ % I _ ' ' ] +.|.|.|.|.O.] ] ] ' ' _ I % @ j z x x x z x F x x c S.c x x x x x x x x ",
"x x x x x x x x x x x x x x x x x x x x x a t ; P / | X. X#X#X#X#X@X X~.X.| / P ; t a x x x x x x z l z c F F x x x x x x x x x ",
"x x x x x x x x x x x x x x x x x x x x x x h + & W ..[.#X-X-X=X=X-X-X#X{...I & + h x x x x x x x x x x c F z z x x x x x x x x ",
"x x x x x x x x x x x x x x x x x x x x x x k s n ; < #.B.:XqX=X=X*X#X}...) ; n s k x x x x x x x x x x z l z x x x x x x x x x ",
"x x x x x x x x x x x x x x x x x x x x x x x x s o . 4 r.x.>XeXeX%X|.5.] < O p j x x x x x x x x x x x x x x x x x x x x x x x ",
"x x x x x x x x x x x x G c x x x x x x x x x x s o - R <.7.B.V.E.Q.P.b.r.e 2 # i j x x x x x x x x x x x x x x x x x x x x x x ",
"x x x x x x x x x x x x c F x x x x x x x x z h u - T } {.&XL.V.E.Q.Q.I.l.Z 8 X + h x x x x x x x x x x x x x x x x x x x x x x ",
"x x x x x x x x F S.G c z z x x x x x x x x h @ - T } D.$X*X*XeXeXrXrX%XF. .T % + h x x x x x x x x x x x x x x x x x x x x x x ",
"x x x x x x x x x F G F z l z G S.G x x x x h + * [ {.$X*X=X=X-X*X#X@X Xo.' * % + h x x x x x x x x x x x x x x x x x x x x x x ",
"x x x x x x c G F z x F x z x F G c x x x x h + , O.$X-X-X=X=X*XoXO.| ` ` *     + h x x x x x x x x x x x x x x x x x x x x x x ",
"x x x x x x x c G F z z x c F F x x x x x x h + - %.5.#X#X#X#X@X7.z.=.=.=.8 3 3 a l x x x x x x x x x x x x x x x x x x x x x x ",
"x x x x x x x z z F x z l z c z z x x x x x h + . 4 #.F.|.F.F.5.x.f.f.g.f.q.5 g x x x x x x x x x x x x x x x x x x x x x x x x ",
"x x x x x x x x z z x x z l l z x x x x x x h + . 4 Z l.l.l.=.Z i.h.A.A.C.r.5 g x x x x x x x x x x x x x x x x x x x x x x x x ",
"x x x x x x x x x z z c F x x x x x x x x h p ; - 8 0.y.y.w.e e w.i.C.C.C.u.8.g b x x x x x x x x x x x x x x x x x x x x x x x ",
"x x x x x x x x x x x c z z x x x x x x x u - , T ) q 8.8.e 0 0 e 8.0.r.r.t.t.8.g b x x x x x x x x x x x x x x x x x x x x x x ",
"x x x x x x x x x x x z z x x x x x x x z @ % P ` ` ] B B %.] ] *.6.6.6.6.e.w.8.5 b x x x x x x x x x x x x x x x x x x x x x x ",
"x x x x x x x x x x x x x x x x x x x x z @ % P ` ` ..D.D.D.} +.%X*X*X*X*X6.6 6 5 b x x x x x x x x x x x x x x x x x x x x x x ",
"x x x x x x x x x x x x x x x x x x x x x a t ; P / | o.o.o.| ..&X#X#X#X#XXX7.%.V k x x x x x x x x x x x x x x x x x x x x x x ",
"x x x x x x x x x x x x x x x x x x x x x x h + & ) _ _ _ _ _ | D.}.}.}.}.#X*X~.{ S x x x x x x x x x x x x x x x x x x x x x x ",
"x x x x x x x x x x x x x x x x x x x x x x k s n ; * * * * I | D.}.}.}.}.oX&X{.+.{ L x x x x x x x x x x x x x x x x x x x x x ",
"x x x x x x x x x x x x x x x x x x x x x x x x s + o o     P | O.{.{.{.{.{.{.[.O.` V z x x x x x x x x x x x x x x x x x x x x ",
"x x x x x x x x x x x x x x x x x x x x x x x x l s s s +   P ` | } } } } } ..D.+.= y z x x x x x x x x x x x x x x x x x x x x ",
"x x x x x x x x x x x x x x x x x x x x x x x x x x x x i   * I _ / ` ` ` ` [ o.@.& @ F S.c x x x x x x x x x x x x x x x x x x ",
"x x x x x x x x x x x x x x x x x x x x x x x x x x x x i     & I / / / ` ` ` [ ) % t G c x x x x x x x x x x x x x x x x x x x ",
"x x x x x x x x x x x x x x x x x x x x x x x x x x x x a @ o 1 * = = = = = = = , @ a F x x x x x x x x x x x x x x x x x x x x ",
"x x x x x x x x x x x x x x x x x x x x x x x x x x x x x h +                   + h F z z x x x x x x x x x x x x x x x x x x x ",
"x x x x x x x x x x x x x x x x x x x x x x x x x x x x x z a u u u u u u u u u a h l z x x x x x x x x x x x x x x x x x x x x ",
"x x x x x x x x x x x x x x x x x x x x x x x x x x x x x x x x x x x x x x x x x x x x x x x x x x x x x x x x x x x x x x x x ",
"x x x x x x x x x x x x x x x x x x x x x x x x x x x x x x x x x x x x x x x x x x x x x x x x x x x x x x x x x x x x x x x x ",
"x x x x x x x x x x x x x x x x x x x x x x x x x x x x x x x x x x x x x x x x x x x x x x x x x x x x x x x x x x x x x x x x "
};
