/* XPM */
static const char *Q29sX0xfMQ__[] = {
/* columns rows colors chars-per-pixel */
"64 64 227 2 ",
"   c #1A1A19",
".  c #231D1A",
"X  c #341D18",
"o  c #212218",
"O  c #2A281C",
"+  c #38241B",
"@  c #313219",
"#  c #3C3C1A",
"$  c #1C2728",
"%  c #1E3135",
"&  c #382A23",
"*  c #2B283C",
"=  c #243838",
"-  c #3A3738",
";  c #342F2C",
":  c #191E20",
">  c #42221A",
",  c #4B251B",
"<  c #58291B",
"1  c #5C311D",
"2  c #443319",
"3  c #682A1A",
"4  c #722A1A",
"5  c #792C1B",
"6  c #6D321C",
"7  c #77321C",
"8  c #482D24",
"9  c #572B22",
"0  c #4B3629",
"q  c #593829",
"w  c #4C3735",
"e  c #643B2C",
"r  c #6E352B",
"t  c #3A413D",
"y  c #484A1A",
"u  c #56561C",
"i  c #5A491E",
"p  c #654D1B",
"a  c #5F611A",
"s  c #64651B",
"d  c #6B6D1D",
"f  c #68691B",
"g  c #6E721B",
"h  c #72751B",
"j  c #76791E",
"k  c #78771F",
"l  c #706F1B",
"z  c #575625",
"x  c #474432",
"c  c #5A4737",
"v  c #5B5938",
"b  c #514F2B",
"n  c #664638",
"m  c #665B37",
"M  c #7B573C",
"N  c #764A31",
"B  c #5B682D",
"V  c #6C6D24",
"C  c #676827",
"Z  c #796626",
"A  c #6B7121",
"S  c #727321",
"D  c #777921",
"F  c #7A7B21",
"G  c #75742A",
"H  c #686635",
"J  c #7D693A",
"K  c #2E2840",
"L  c #2D2740",
"P  c #332C46",
"I  c #3A364B",
"U  c #3A3551",
"Y  c #3E3956",
"T  c #223C43",
"R  c #463644",
"E  c #423C5A",
"W  c #583B44",
"Q  c #274548",
"!  c #234856",
"~  c #334D52",
"^  c #32544B",
"/  c #275A64",
"(  c #2C6368",
")  c #347B77",
"_  c #336B6F",
"`  c #575546",
"'  c #484559",
"]  c #595855",
"[  c #4F4C4F",
"{  c #725147",
"}  c #49624E",
"|  c #6D6B44",
" . c #71674A",
".. c #726A51",
"X. c #464363",
"o. c #4A4967",
"O. c #4C546D",
"+. c #545A76",
"@. c #6E5961",
"#. c #5A647E",
"$. c #57637C",
"%. c #50726A",
"&. c #75726E",
"*. c #993C1C",
"=. c #83331D",
"-. c #8A3623",
";. c #983824",
":. c #A63C28",
">. c #865339",
",. c #914930",
"<. c #B8482B",
"1. c #B24D30",
"2. c #867A26",
"3. c #977B2A",
"4. c #8B6D35",
"5. c #A5431F",
"6. c #C94930",
"7. c #C64830",
"8. c #CB5632",
"9. c #DB6832",
"0. c #D7693A",
"q. c #D16736",
"w. c #85584A",
"e. c #95775C",
"r. c #8E6D52",
"t. c #A5694A",
"y. c #AC7756",
"u. c #8B7468",
"i. c #967668",
"p. c #89736E",
"a. c #B47E69",
"s. c #D07347",
"d. c #7F8226",
"f. c #3A857E",
"g. c #6E8877",
"h. c #96822B",
"j. c #B28A34",
"k. c #CD9E3E",
"l. c #BB8353",
"z. c #AE884E",
"x. c #918E73",
"c. c #B88564",
"v. c #B79874",
"b. c #B28869",
"n. c #CB845D",
"m. c #D08D4C",
"M. c #F09850",
"N. c #E98A4A",
"B. c #D1A54A",
"V. c #D18A61",
"C. c #C99A77",
"Z. c #D49D7A",
"A. c #CE9168",
"S. c #D9A479",
"D. c #D8A974",
"F. c #E4AD7D",
"G. c #E2B44B",
"H. c #5C6A84",
"J. c #5E7088",
"K. c #636D86",
"L. c #64748B",
"P. c #687A92",
"I. c #737B8E",
"U. c #877E83",
"Y. c #398985",
"T. c #3B928B",
"R. c #4C9292",
"E. c #6F8399",
"W. c #75869A",
"Q. c #6E8B8C",
"!. c #798DA1",
"~. c #7E93A5",
"^. c #59B5BA",
"/. c #51A6AA",
"(. c #5BA1A0",
"). c #5FBBC1",
"_. c #68B9C7",
"`. c #6BCAD5",
"'. c #78D8E8",
"]. c #75D5E4",
"[. c #828492",
"{. c #AA9791",
"}. c #8699AA",
"|. c #8EA3B2",
" X c #98AEBB",
".X c #94A8B6",
"XX c #9CB1BE",
"oX c #97A3AD",
"OX c #AAADA5",
"+X c #D8A886",
"@X c #CCB59C",
"#X c #DCB698",
"$X c #C9AA8A",
"%X c #E5B588",
"&X c #E2BA98",
"*X c #E0AE8B",
"=X c #CCBCA3",
"-X c #D2BBA2",
";X c #D7BDA5",
":X c #C6BFB2",
">X c #E1BEA2",
",X c #F3CA94",
"<X c #F1C995",
"1X c #D8C4A9",
"2X c #CBC9B6",
"3X c #DDCBB2",
"4X c #DAC9B5",
"5X c #DFD1BD",
"6X c #E4C2A3",
"7X c #E7C8AB",
"8X c #E2CBB2",
"9X c #E5D3B9",
"0X c #F2D7BA",
"qX c #F3CEAD",
"wX c #A5BAC5",
"eX c #9FB5C0",
"rX c #ADC3CC",
"tX c #DDD4C5",
"yX c #EDDBC5",
"uX c #E3DBCB",
"iX c #E7D7C4",
"pX c #F5DDC5",
"aX c #ECE2CA",
"sX c #EBE7D6",
"dX c #F2EAD7",
"fX c #F6E7CE",
"gX c #F9F5E3",
/* pixels */
"h h h h h h h h h h h h h h h h h h h h h h h h h h h h h h h h h h h h h h h h h h h h h h h h h h h h h h h h h h h h h h h h ",
"h h h h h h h h h h h h h h h h h h h h h h h h h h h h h h h h h h h h h h h h h h h h h h h h h h h h h h h h h h h h h h h h ",
"h h h h h h h h h h h h h h h h h h h h h h h h h h h h h h h h h h h h h h h h h h h h h h h h h h h h h h h h h h h h h h h h ",
"h h h h h h h h h h h h h h h h h h h h h h h h h h h h h h h h h h h h h h h h h h h h h h h h h h h h h h h h h h h h h h h h ",
"h h h h h h h h h h h h h h h h h h h h h h h h h h h h h h h h h h h h h h h h h h h h h h h h h h h h h h h h h h h h h h h h ",
"h h h h h h h h h h h h h h h h h h h h h h h h h h h h h h h h h h h h h h h h h h h h h h h h h h h h h h h h h h h h h h h h ",
"h h h h h h h h h h h h h h h h h h h h h h h h h h h h h h h h h h h h h h h G ` ` ` ` ` ` ` x z g h h h h h h h h h h h h h h ",
"h h h h h h h h h h h h h h h h h h h h h h h h h h h h h h h h h h h h S V V H o.o.o.o.o.X.E P x d h h h h h h h h h h h h h h ",
"h h h h h h h h h h h h h h h h h h h h h h h h h h h h h h h h h h h D H [ [ ] $.H.H.H.H.o.E P x d h h h h h h h h h h h h h h ",
"h h h h h h h h h h h h h h h h h h h h h h h h h h h h h h h h h h V H ] O.+.K.W.E.P.J.#.X.I w b g h h h h h h h h h h h h h h ",
"h h h h h h h h h h h h h h h h h h h h h h h h h h h h h h h h h h H ' +.P.}.XXwX}.P.+.X.U - z d h h h h h h h h h h h h h h h ",
"h h h h h h h h h h h h h h h h h h h h h h h h h h h h h h h h V H ] +.P.}.wXrXrX|.P.+.E P - C h h h h h h h h h h h h h h h h ",
"h h h h h h h h h h h h h h h h h h h h h h h h h h h h h h h h H ' +.L.|.rXrXrXrX|.P.+.E P - C h h h h h h h h h h h h h h h h ",
"h h h h h h h h h h h h h h h h h h h h h h h h h h h h h h V v [ ' K.|.wXwX.X}.W.K.+.X.I w 8 i a h h h h h h h h h h h h h h h ",
"h h h h h h h h h h h h h h h h h h h h h h h h h h h h h h C [ X.o.W.rXrXwX~.K.o.X.E R * 9 < < i f d d d d d g h h h h h h h h ",
"h h h h h h h h h h h h h h h h h h h h h h h h h h h h h h C [ o.+.}.rXrXwXXX}.K.@.r r 7 7 7 3 9 w x x x x x b d h h h h h h h ",
"h h h h h h h h h h h h h h h h h h h h h h h h h h h h h h C [ o.L.~.XXXXXXOX{.U.w.*.*.*.*.=.1 w I U U U U P - z V h h h h h h ",
"h h h h h h h h h h h h h h h h h h h h h h h h h h h h h h C - ' J.P.W.W.[.a.s.s.1.*.*.*.7 1 W o.$.$.$.$.+.X.I - b h h h h h h ",
"h h h h h h h h h h h h h h h h h h h h h h h h h h h h h f p q W @.p.p.p.i.s.9.9.8.<.,.w.{ ] #.I.!.E.L.H.+.o.Y K x h h h h h h ",
"h h h h h h h h h h h h h h h h h h h h h h h h h h h h l p 6 =.;.,.1.q.q.q.9.9.9.9.9.e.K.K.I..XwXwX}.L.+.X.X.Y K x h h h h h h ",
"h h h h h h h h h h h h h h h h h h h h h h h h h C v v v c e -.5.<.8.9.9.9.9.q.y.a.C.{.}.}.}.}.}.W.K.O.E I ` v b z h h h h h h ",
"h h h h h h h h h h h h h h h h h h h h h h h h h m ' X.X.X.[ -.1.q.9.9.9.9.9.y.I.}.rXrXrXrXXXE.#.X.U * * - z h h h h h h h h h ",
"h h h h h h h h h h h h h h h h h h h h h h h h h m ' O.H.I.[.&.u.i.i.i.i.i.{.{.oXXXrXrXwX.XW.#.o.U R e c z d h h h h h h h h h ",
"h h h h h h h h h h h h h h h h h h h h h h h h h v E +.L.}. X!.E.E.E.E.E.!.XXrXrXwXwXwXXXW.$.X.U P w N Z h h h h h h h h h h h ",
"h h h h h h h h h h h h h h h h h h h h h h h h h z P E +.P.~..X X X X X XXXwXrXrX X!.W.E.#.o.U R n q & u h h h h h h h h h h h ",
"h h h h h h h h h h h h h h h h h h h h h h h h h z w I E O.K.}.|. X X X X X X X X~.H.$.+.X.E R w e 8   y h h h h h h h h h h h ",
"h h h h h h h h h h h h h h h h h h h h h h h h h g V x P P Y o.#.P.E.E.E.E.E.E.E.K.o.Y P P R n q & .   y h h h h h h h h h h h ",
"h h h h h h h h h h h h h h h h h h h h h h h h h h h z x - K U ' O.O.O.O.O.O.O.O.X.U ] &.&.r.w.e .     y h h h h h h h h h h h ",
"h h h h h h h h h h h h h h h h h h h h h h h h h h h h d w * * L K K K K K K K K L * i.<X<X+Xt.e .     y h h h h h h h h h h h ",
"h h h h h h h h h h h h h h h h h h h h h h h h h h h h g z b b c e { w.w.{ - R U.p.w.c.F.<X%Xt.e .     @ y s h h h h h h h h h ",
"h h h h h h h h h h h h h h h h h h h h h h h h h h h h h h h h Z >.t.n.V.y.c ] 2X;XV.V.V.F.D.t.e .   .   O z A A A A g h h h h ",
"h h h h h h h h h h h h h h h h h h h h h h h h h h h h h h h h h Z 4.t.A.S.y.w.@.e.V.V.n.l.y.>.e . X , ; T ^ ^ ^ ^ ^ B h h h h ",
"h h h h h h h h h h h h h h h h h h h h h h h h h h h h h h h h h h Z >.C.,XF.l.n w.n.V.n.t.>.N e > < 4 [ / _ _ _ _ / } C A h h ",
"h h h h h h h h h h h h h h h h h h h h h h h h h h h h h h h h h h Z >.C.,X,X%XD.C.V.V.n.t.N 8 9 ;.-.4 } Y./._._./.Y.( ^ B h h ",
"h h h h h h h h h h h h h h h h h h h h h h h h h h h h h h h h h h C n c.%X,X,X,X%XV.s.y.M q + 3 <.:.4 %.^.`.'.'.`./.Y.( } B g ",
"h h h h h h h h h h h h h h h h h h h h h h h h h h h h h S S S S S z O w.A.%X<X<XF.V.t.>.8 X < -.7.;.4 Q.].'.'.'.'.]./.f.( ^ C ",
"h h h h h h h h h h h h h h h h h h h h h h h j h D V C C H H H H H H b m  .e.i.e.y.t.M 0 O X 5 ;.;.N ] (.].).^.^.^.^.(.g.&...G ",
"h h h h h h h h h h h h h h h h h h h h h h h F F G J r.r.x.x.x.x.x.x.x.x.p.p.i.r.w.>.0     > :.:.5 ] T.^.`./.Y.Y.Y.T.x.V.V.l.2.",
"h h h h h h h h h h h h h h h h h h h h h h F 2.3.4.e.v.$X-XtXuXuXuXuXuXuXiX3X;X$Xe.c 8 , , < -.N ] R.).^./.) ( ( g.OX$XF.A.l.2.",
"h h h h h h h h h h h h F j h h h h h h h j h.j.j.y.v.Z.Z.+X8XyXfXfXaX0X0X0X7X*XZ.c.w 8 9 r e e ` ) /._.R.) / ! ! &.<X,X,XS.l.2.",
"h h h h h h h h h h h h j D h h h h h h h 2.j.B.B.m.D.S.S.Z.#X>X6X6X#X#X*X+X+XA.t.{ & ; Q } %.%._ / / ~ Q = ! ! ! &.,X,X,XS.l.2.",
"h h h h h h h h D d.F j g g h h h h h h h 2.j.k.G.D.&X7X6X&X6X6X6X&X&X&X&X*XC.e.n 0 + O T ( ) _ ( ~ ; X > 8 W ' ! %.v.v.v.y.r.G ",
"h h h h h h h h h D F D g f g F d.F h h h 2.h.j.B.<X0XyX8X6X8X1X#X;X1X#X6X7X$Xr.q , < + $ Q ! % & 9 3 3 -.<.1.w.~ Q ; ; ; & 0 s ",
"h h h h h h j F D g h D h g h D F j h h h k 2.h.z.8XdXuX1X-X3X-X@X;X3X-X3XyX@Xr.q 1 3 < + ; % : X 3 =.;.:.6.6.1.{ w   O # # y f ",
"h h h h h h h j F D g g h j F D h h h h h j D G  .2XsXuX4X=X-X-X-X1X3X3X9XaX=Xi.q 1 6 6 3 +     X 3 ;.7.7.6.6.7.7.7   y g g h h ",
"h h h h h h h g g D h g f g j g g h h h h j D G | 2XsXuX4X@X-X1X-X1X1X3X9XaX=Xe.q 1 6 6 6 +     > ;.1.s.s.0.8.6.6.;., 2 y s h h ",
"h h h h h h h h g g h h g d d g h h h h h j D G | 2XsXuX-X@X3X3X-X@X1X8X3XaX=Xe.q 1 6 6 3 +     9 <.0.M.M.N.0.6.6.:.5 > o u h h ",
"h h h h h h h h h g g j D h h h h h h h h j D G | 2XsXuX-X@X1X1X1X1X1X3X3XaX=Xe.q 1 6 1 + .     9 <.0.M.M.M.N.0.8.:.5 > o u h h ",
"h h h h h h h h h h h j g g h h h h h h h j D G | 2XsXsX5X1X3X8X9X9X9X3XiXaX=Xu.q < 1 > o       , :.8.m.N.N.N.0.<.;.4 > o u h h ",
"h h h h h h h h h h h g g h h h h h h h h j D G | 2XdXgXdXdXdXdXaXyXiX9XuXfX=Xu.0 + + O o       X 5 -.,.1.8.8.<.-.5 4 > o u h h ",
"h h h h h h h h h h h h h h h h h h h h h j D G | 2XdXgXgXgXgXgXaX8X-X@X4XyX=Xu.- ; % % = % $   X , 3 4 ;.:.:.,.n c c ; o u h h ",
"h h h h h h h h h h h h h h h h h h h h h j D G | 2XsXfXfXfXfXpX0X0X8X7X7X7X$X..t = Q ! ! ! T $     > 4 5 5 5 n %.f.f.Q o u h h ",
"h h h h h h h h h h h h h h h h h h h h h h h G | =X8X6X&X&X&X6X>X&X&X#X#X+XC.r.x ; = = = % %       - ] &.&.&.Q././.T.^ o u h h ",
"h h h h h h h h h h h h h h h h h h h h h h h G H $X#X+XS.+X&X>X6X6X6X>X#X#X$Xb.{ 0 O .             ^ T.).'.'.'.'.^.T.^ o u h h ",
"h h h h h h h h h h h h h h h h h h h h h h h V H v.+XZ.Z.+X7XyXyXyXyXyXiX9X7X+Xc.M z #         % ^ R.).`.'.'.`.^./.T.^ o u h h ",
"h h h h h h h h h h h h h h h h h h h h h h h V H v.Z.Z.S.&XyXdXdXdXdXdXdXpXqX%XA.y.4.i O O O   = _ R._._._._./.Y.) ) Q   y f g ",
"h h h h h h h h h h h h h h h h h h h h h h h S C r.b.c.C.#X1X3X3X3X3X3X1X#X+XS.m.m.3.Z C u y O $ % Q ~ ~ ~ ~ Q = = = $   O y s ",
"h h h h h h h h h h h h h h h h h h h h h h h h S C m m m  . . . . . . . .M J 4.j.k.j.h.2.h s y @ @ @ @ @ @ @ @ @ @ @ @ @ @ y s ",
"h h h h h h h h h h h h h h h h h h h h h h h h h d s u z z z z z z z z z u u Z 3.j.j.3.F h g f s s s s s s s s s s s s s s f g ",
"h h h h h h h h h h h h h h h h h h h h h h h h h h d f s a a a s a a a a a s f 2.3.2.k h h h h h h h h h h h h h h h h h h h h ",
"h h h h h h h h h h h h h h h h h h h h h h h h h h h h h g g g g g g g g g g h h h d h h h h h h h h h h h h h h h h h h h h h ",
"h h h h h h h h h h h h h h h h h h h h h h h h h h h h h h h h h h h h h h h h h h h h h h h h h h h h h h h h h h h h h h h h ",
"h h h h h h h h h h h h h h h h h h h h h h h h h h h h h h h h h h h h h h h h h h h h h h h h h h h h h h h h h h h h h h h h ",
"h h h h h h h h h h h h h h h h h h h h h h h h h h h h h h h h h h h h h h h h h h h h h h h h h h h h h h h h h h h h h h h h "
};
