/* XPM */
static const char *Q29sbGVjdGFibGVfMQ__[] = {
/* columns rows colors chars-per-pixel */
"64 64 196 2 ",
"   c #4E4D1C",
".  c #504D1D",
"X  c #555716",
"o  c #565817",
"O  c #53531A",
"+  c #5A521D",
"@  c #575818",
"#  c #5B5C1A",
"$  c #5A5C17",
"%  c #645E1A",
"&  c #5F611C",
"*  c #666D17",
"=  c #61621D",
"-  c #676D18",
";  c #6B6E1B",
":  c #69631B",
">  c #6D721A",
",  c #72751B",
"<  c #7A761E",
"1  c #76791E",
"2  c #79791F",
"3  c #4D4026",
"4  c #5C4A2D",
"5  c #54442A",
"6  c #565421",
"7  c #595523",
"8  c #5A5822",
"9  c #574C34",
"0  c #5C4E3A",
"q  c #5D4A33",
"w  c #5D5136",
"e  c #5C513E",
"r  c #575133",
"t  c #655C21",
"y  c #664D34",
"u  c #634F39",
"i  c #625437",
"p  c #63543D",
"a  c #665739",
"s  c #775735",
"d  c #6D6D25",
"f  c #6E6E28",
"g  c #746F26",
"h  c #7C6324",
"j  c #6F7128",
"k  c #737520",
"l  c #767A20",
"z  c #797B21",
"x  c #727229",
"c  c #7E762C",
"v  c #7E7624",
"b  c #655B42",
"n  c #685D40",
"m  c #645E49",
"M  c #66634D",
"N  c #69664E",
"B  c #6C6950",
"V  c #7A6D55",
"C  c #866C25",
"Z  c #837C22",
"A  c #8B7D25",
"S  c #86673F",
"D  c #947B26",
"F  c #A77C2F",
"G  c #A97F29",
"H  c #B2793C",
"J  c #A67A36",
"K  c #A37254",
"L  c #A97959",
"P  c #B47B56",
"I  c #7D8025",
"U  c #808327",
"Y  c #9A872C",
"T  c #A9812A",
"R  c #AC8335",
"E  c #CB932E",
"W  c #C68638",
"Q  c #CB9132",
"!  c #D79F37",
"~  c #D1993F",
"^  c #D6A23D",
"/  c #DAB13E",
"(  c #BE8D4A",
")  c #BE8F60",
"_  c #BF9B75",
"`  c #C2885F",
"'  c #DB984B",
"]  c #E1BB44",
"[  c #E2A057",
"{  c #E3A74B",
"}  c #C38663",
"|  c #CB8E6C",
" . c #CE946E",
".. c #D4936A",
"X. c #D99663",
"o. c #C28F72",
"O. c #D08D70",
"+. c #C69372",
"@. c #CD9472",
"#. c #CD9B7E",
"$. c #C99A7B",
"%. c #D19774",
"&. c #D59A75",
"*. c #D29C79",
"=. c #E09E77",
"-. c #C2A37F",
";. c #D5A17D",
":. c #DBA27A",
">. c #DBA373",
",. c #E4C043",
"<. c #F0C84E",
"1. c #E5C57D",
"2. c #BB9D85",
"3. c #BC9F89",
"4. c #BFA58B",
"5. c #BEA285",
"6. c #BFA998",
"7. c #C09F87",
"8. c #CAA687",
"9. c #C1A58D",
"0. c #C9A988",
"q. c #D4A483",
"w. c #D6A985",
"e. c #D7A788",
"r. c #D6AB89",
"t. c #DAA986",
"y. c #DFB08D",
"u. c #C1A593",
"i. c #C5A993",
"p. c #CEB494",
"a. c #CDB599",
"s. c #D3B393",
"d. c #D0B997",
"f. c #D1B998",
"g. c #D5B89B",
"h. c #E2AC86",
"j. c #E2B38D",
"k. c #ECBA8E",
"l. c #EBBD96",
"z. c #E6BB96",
"x. c #CABCAC",
"c. c #ECC59E",
"v. c #F2C69C",
"b. c #C9C0AB",
"n. c #D5C3AA",
"m. c #DBCBAE",
"M. c #CECDBE",
"N. c #C9C3B5",
"B. c #DBCAB2",
"V. c #D5CBBB",
"C. c #DFD2BF",
"Z. c #DDD0B7",
"A. c #ECC6A1",
"S. c #EECAA4",
"D. c #EECBA9",
"F. c #F0CBA5",
"G. c #F5CEAA",
"H. c #F3D1AF",
"J. c #E5CEB4",
"K. c #E0CFBE",
"L. c #E4D3B6",
"P. c #E3D4BA",
"I. c #E9D4BB",
"U. c #EDDBBF",
"Y. c #EED6B3",
"T. c #F8D4B2",
"R. c #CFCEC1",
"E. c #D1CDC3",
"W. c #D2D0C1",
"Q. c #DBD5C4",
"!. c #E6DAC4",
"~. c #EBDCC3",
"^. c #EDDCCB",
"/. c #F1DBC4",
"(. c #F0DBC8",
"). c #EEDFD1",
"_. c #EBE2C6",
"`. c #ECE2CD",
"'. c #F2E4CD",
"]. c #F7E8CC",
"[. c #EDE5D2",
"{. c #EFEBDA",
"}. c #EEEAD4",
"|. c #F1E4D2",
" X c #F2EAD2",
".X c #FAECD7",
"XX c #F4ECDB",
"oX c #F5EBDA",
"OX c #FAF3DD",
"+X c #F6F1D9",
"@X c #F3EEE1",
"#X c #F4F2E3",
"$X c #FAF5E3",
"%X c #F9F9E5",
"&X c #FAF5EA",
"*X c #FCFAE8",
/* pixels */
", , , , , , , , , , , , , , , , , , , , , , , , , , , , , , , , , , , , , , , , , , , , , , , , , , , , , , , , , , , , , , , , ",
", , , , , , , , , , , , , , , , , , , , , , , , , , , , , , , , , , , , , , , , , , , , , , , , , , , , , , , , , , , , , , , , ",
", , , , , , , , , , , , , , , , , , , , , , , , , , , , , , , , , , , , , , , , , , , , , , , , , , , , , , , , , , , , , , , , ",
", , , , , , , , , , , , , , , , , , , , , , , , , , , , , , , , , , , , , , , , , , , , , , , , , , , , , , , , , , , , , , , , ",
", , , , , , , , , , , , , , , , , , , , , , , , , , , , , , , , , , , , , , , , , , , , , , , , , , , , , , , , , , , , , , , , ",
", , , , , , , , , , , , , , , , , , , , , , , , , , , , , , , , , , , , , , , , , , , , , , , , , , , , , , , , , , , , , , , , ",
", , , , , , , , , , , , , , , , , , , , , , , , , , , , , , , , , , , , , , , z 1 , , , , , , , , , , , , , , , , , , , , , , , ",
", , , , , , , , , , , , , , , , , , , , , , , , , , , , , , , , , , , , , , , 1 l , , , , , , , , , , , , , , , , , , , , , , , ",
", , , , , , , , , , , , , , , , , , , , , , , , , , , , , , , , , , , z I z 1 > > , , , , , , , , , , , , , , , , , , , , , , , ",
", , , , , , , , , , , , , , , , , , , , , , , , , , , , , , , , , , , , l z z > * > z I z , , , , , , , , , , , , , , , , , , , ",
", , , , , , , , , , , , , , , , , , , , , , , , , , , , , , , , , 1 z z > , l , > , z z 1 , , , , , , , , , , , , , , , , , , , ",
", , , , , , , , , , , , , , , , , , , , , , , , , , , , , , , , , , 1 z z > > , 1 z l , , , , , , , , , , , , , , , , , , , , , ",
", , , , , , , , , , , , , , , , , , , , , , , , , , , , , , , , , , > > l , > * > 1 > > , , , , , , , , , , , , , , , , , , , , ",
", , , , , , , , , , , , , , , , , , , , , , , , , , , , , , , , , , , > > , , > - - > , , , , , , , , , , , , , , , , , , , , , ",
", , , , , , , , , , , , , , , , , , , , , , , , , , , , , , , , , , , , > > 1 l , , , , , , , , , , , , , , , , , , , , , , , , ",
", , , , , , , , , , , , , , , , , , , , , , , , , , , , , , , , , , , , , , 1 > > , , , , , , , , , , , , , , , , , , , , , , , ",
", , , , , , , , , , , , , , , , , , , , , , , , , , , , , , , , , , , , , , > > , , , , , , , , , , , , , , , , , , , , , , , , ",
", , , , , , , , , , , , , , , , , , , , , , , , , , , , , , , , , , , , , , , , , , , , , , , , , , , , , , , , , , , , , , , , ",
", , , , , , , , , , , , , , , , , , , , , , , , , , , , , , , , , , , , , , , , , , , , , , , , , , , , , , , , , , , , , , , , ",
", , , , , , , , , , , , , , , , , , , , , , , , , , , , , , , l k k , , , , , , , , , , , , , , , , , , , , , , , , , , , , , , ",
", , , , , , , , , , , , , , , , , , , , , , 1 k d d f f f f f f f f f f f f d d d , , , , , , , , , , , , , , , , , , , , , , , ",
", , , , , , , , , , , , , , , , , , , , 1 1 k g 9 p m M M M N N M M M N M M M b w x , , , , , , , , , , , , , , , , , , , , , , ",
", , , , , , , , , , , , , , , , , , , 2 Z v c i K 6.x.N.R.E.R.W.E.R.E.E.E.M.V.x.-.i g > , , , , , , , , , , , , , , , , , , , , ",
", , , , , , , , , , , , , , , , , , , Z R J a +.r.+.#.^.{.@X#X#X@XXXoXoXoX|.H.v.j.` 5 : , , , , , , , , , , , , , , , , , , , , ",
", , , , , , , , , , , , , , , , , < Z Y ^ W S w. .:.;.#.~.'.`.'.^.^.S.S.F.A.l.=...P 5 O ; , , , , , , , , , , , , , , , , , , , ",
", , , , , , , , , , , , , , , , , v R ^ 1.] { >.l.*.@.*.;.e.w.q.q.;.*.&.&.%.} L y 5 + O $ > , , , , , , , , , , , , , , , , , , ",
", , , , , , , , , , , , , , , , , v R W ,.<.[ k./.D.c.A.S.S.c.j.j.j.j.j.j.t.+.p 7 O O X # > , , , , , , , , , , , , , , , , , , ",
", , , , , , , , , , , , , , , , , v Z Y ! ' Y.].|.^.I.U.~.U.J.I.L.I.J.I.~.S.0.p 6 @ @ # > , , , , , , , , , , , , , , , , , , , ",
", , , , , , , , , , , , , , , , , 1 z A R ) !.#XXXu.3.s._.9.2.4.~.9.3.s. X'.p.p 6 # ; , , , , , , , , , , , , , , , , , , , , , ",
", , , , , , , , , , , , , , , , , 1 z v c V Q.#X[.C.n.B.B.B.n.m.Z.Z.B.P.|. Xa.b 7 # , 1 1 1 , , , , , , , , , , , , , , , , , , ",
", , , , , , , , , , , , , , , , , 1 z z x B W.#X{.4.2.2.2.2.0.2.4.!.9.i.}. Xf.n 7 & k 1 1 1 , , , , , , , , , , , , , , , , , , ",
", , , , , , , , , , , , , , , , , 1 z z x B W.#X[.C.n.B.B.L.m.n.m.P.P.!.`. Xd.n 7 & k z 2 1 1 , , , , , , , , , , , , , , , , , ",
", , , , , , , , , , , , , , , , , 1 z z x B W.#X{.4.2.9._._.9.5.9.f._.a. X Xd.n 8 = k l 2 1 1 z I 1 , , , , , , , , , , , , , , ",
", , , , , , , , , , , , , , , , , 1 z z x B E.#X[.K.n.B.P.P.P.m.P.P.P.!.`. Xf.n 8 = k z 1 1 , , z z l , , , z I 1 , , , , , , , ",
", , , , , , , , , , , , , , , , , 1 z z x B E.#XXXu.2.7.s.s.i._.a._.i.i. X Xf.n 8 & k z 1 1 1 , > , z , , 1 I 1 , , , , , , , , ",
", , , , , , , , , , , , , , , , , 1 z z x N W.#X#X|.~.~._._.`.`.[._._.`.XX Xa.b 6 & , 1 1 1 1 , , > - > 1 z z , , , , , , , , , ",
", , , , , , , , , , , , , , , , , 1 1 l j N M.#X&X%X$X$XOXOX X'.~.!.!.`.oX Xa.b 6 # , z 1 1 , , , , , , 1 z > > , , , , , , , , ",
", , , , , , , , , , , , , , , , , 1 1 l f N R.#X&X*X%X%X%X$X+Xg.s.5.3.u. X'.s.p 6 # , 1 1 1 , , , , , , > - > , , , , , , , , , ",
", , , , , , , , , , , , , , , , , 1 1 l f M E.@XOXOX.X.X+X.X]./.I.L.J.I.~.F.0.i 6 # , 1 1 1 , , , , , , , , , , , , , , , , , , ",
", , , , , , , , , , , , z 1 , , , 1 1 l f M M.[.H.F.S.F.F.S.S.S.A.A.j.j.j.h.+.u 7 @ > 1 1 1 , , , , , , , , , , , , , , , , , , ",
", , , , , , , , , , , , 1 l , , , , 1 k f m b.A.*.@.@.*.q.e.e.r.q.q.q.q.q.*.o.L q t ; , , , , , , , , , , , , , , , , , , , , , ",
", , , , , , , , z I z 1 > > , , , 1 1 , d b 8.%.:.&.| z./.|.^.'.|.).[.`.).^.I.y.} 4 d , , , , , , , , , , , , , , , , , , , , , ",
", , , , , , , , , l z z > * > z U z 1 , d p 8.l.O.:.%.H.XX&X&X&X&X&X&X%X$X.XT.v...s t , , , , , , , , , , , , , , , , , , , , , ",
", , , , , , 1 z z > , l , > , z z 1 , , d r _ w.h.| l.(.oXXXXXXXXXXXXXoXT.G.v.k.X.H C : , , , , , , , , , , , , , , , , , , , , ",
", , , , , , , 1 z z > > , 1 z l , , , , , x w K K $.8.s.p.a.f.a.a.a.a.p.0. ...X.( ~ G C < , , , , , , , , , , , , , , , , , , , ",
", , , , , , , > > l , > * > 1 > > , , , , , d 3 5 9 0 0 0 e e e e e 0 0 0 4 y H ~ / E F < , , , , , , , , , , , , , , , , , , , ",
", , , , , , , , > > , , > - - > , , , , , , ; : O                 .         + h T Q G A < , , , , , , , , , , , , , , , , , , , ",
", , , , , , , , , > > 1 l , , , , , , , , , , , - @ X o o o @ @ o @ o X o X @ % C F D < , , , , , , , , , , , , , , , , , , , , ",
", , , , , , , , , , , 1 > > , , , , , , , , , , , > - - ; ; ; ; - ; ; - - - ; , < < < , , , , , , , , , , , , , , , , , , , , , ",
", , , , , , , , , , , > > , , , , , , , , , , , , , , , , , , , , , , , , , , , , , , , , , , , , , , , , , , , , , , , , , , , ",
", , , , , , , , , , , , , , , , , , , , , , , , , , , , , , , , , , , , , , , , , , , , , , , , , , , , , , , , , , , , , , , , ",
", , , , , , , , , , , , , , , , , , , , , , , , , , , , , , , , , , , , , , , , , , , , , , , , , , , , , , , , , , , , , , , , ",
", , , , , , , , , , , , , , , , , , , , , , , , , , , , , , , , , , , , , , , , , , , , , , , , , , , , , , , , , , , , , , , , ",
", , , , , , , , , , , , , , , , , , , , , , , , , , , , , , , , , , , , , , , , , , , , , , , , , , , , , , , , , , , , , , , , ",
", , , , , , , , , , , , , , , , , , , , , , , , , , , , , , , , , , , , , , , , , , , , , , , , , , , , , , , , , , , , , , , , ",
", , , , , , , , , , , , , , , , , , , , , , , , , , , , , , , , , , , , z I 1 , , , , , , , , , , , , , , , , , , , , , , , , , ",
", , , , , , , , , , , , , , , , , , , , , , , , , , , , , , , , , , , , , z z l , , , z I 1 , , , , , , , , , , , , , , , , , , ",
", , , , , , , , , , , , , , , , , , , , , , , , , , , , , , , , , , , , , > , z , , 1 I 1 , , , , , , , , , , , , , , , , , , , ",
", , , , , , , , , , , , , , , , , , , , , , , , , , , , , , , , , , , , , , > - > 1 z z , , , , , , , , , , , , , , , , , , , , ",
", , , , , , , , , , , , , , , , , , , , , , , , , , , , , , , , , , , , , , , , , 1 z > > , , , , , , , , , , , , , , , , , , , ",
", , , , , , , , , , , , , , , , , , , , , , , , , , , , , , , , , , , , , , , , , > - > , , , , , , , , , , , , , , , , , , , , ",
", , , , , , , , , , , , , , , , , , , , , , , , , , , , , , , , , , , , , , , , , , , , , , , , , , , , , , , , , , , , , , , , ",
", , , , , , , , , , , , , , , , , , , , , , , , , , , , , , , , , , , , , , , , , , , , , , , , , , , , , , , , , , , , , , , , ",
", , , , , , , , , , , , , , , , , , , , , , , , , , , , , , , , , , , , , , , , , , , , , , , , , , , , , , , , , , , , , , , , "
};
