/* XPM */
static const char *Q29sbGVjdGFibGVfMSUyODElMjk_[] = {
/* columns rows colors chars-per-pixel */
"64 64 188 2 ",
"   c #56531E",
".  c #5A541E",
"X  c #5C5C1E",
"o  c #615E1F",
"O  c #5F611A",
"+  c #666D17",
"@  c #62631B",
"#  c #666A19",
"$  c #6B6D1B",
"%  c #6E671D",
"&  c #746D1F",
"*  c #6E721B",
"=  c #72751B",
"-  c #78751F",
";  c #76791E",
":  c #79791E",
">  c #555222",
",  c #5E5524",
"<  c #5B5529",
"1  c #5D592A",
"2  c #67572C",
"3  c #6A5733",
"4  c #6D5B33",
"5  c #695936",
"6  c #705F3F",
"7  c #6E6E23",
"8  c #6F672A",
"9  c #6A682A",
"0  c #736C25",
"q  c #746429",
"w  c #727321",
"e  c #777A20",
"r  c #797C21",
"t  c #74742A",
"y  c #7A772C",
"u  c #666031",
"i  c #686137",
"p  c #6D6D32",
"a  c #69643C",
"s  c #7D693A",
"d  c #7F713B",
"f  c #6A6740",
"g  c #6E6C45",
"h  c #706446",
"j  c #716F46",
"k  c #72664A",
"l  c #71684C",
"z  c #787148",
"x  c #806929",
"c  c #847524",
"v  c #837B23",
"b  c #8D7E27",
"n  c #907F27",
"m  c #957C2B",
"M  c #9C792C",
"N  c #836A3B",
"B  c #9D753E",
"V  c #896948",
"C  c #876144",
"Z  c #807047",
"A  c #8B714C",
"S  c #9F7A4D",
"D  c #877957",
"F  c #8C7953",
"G  c #907F5D",
"H  c #9B7957",
"J  c #A37958",
"K  c #AB7947",
"L  c #7E8125",
"P  c #8C8025",
"I  c #9A832B",
"U  c #988231",
"Y  c #A7842D",
"T  c #B6892F",
"R  c #A98A31",
"E  c #A38A32",
"W  c #BE8B3C",
"Q  c #B78B33",
"!  c #BA9337",
"~  c #CD9C3C",
"^  c #CDA03F",
"/  c #92835F",
"(  c #AE884E",
")  c #8F8260",
"_  c #8E8568",
"`  c #928460",
"'  c #938C6D",
"]  c #938F73",
"[  c #949275",
"{  c #AB8060",
"}  c #B68660",
"|  c #B98C6E",
" . c #BD926B",
".. c #B59372",
"X. c #BD9F7F",
"o. c #C79045",
"O. c #CE9658",
"+. c #C69754",
"@. c #C8A245",
"#. c #D6A74C",
"$. c #E2B44B",
"%. c #C28B67",
"&. c #D59C6A",
"*. c #CB9C7C",
"=. c #C59879",
"-. c #D39D7A",
";. c #D89F7B",
":. c #D89C76",
">. c #DBA06F",
",. c #DFAF6F",
"<. c #D7A07D",
"1. c #DAA47E",
"2. c #D4A272",
"3. c #C8A887",
"4. c #C9A788",
"5. c #D8A480",
"6. c #DCA984",
"7. c #D5A98C",
"8. c #D9AA89",
"9. c #C4AD93",
"0. c #CCB59C",
"q. c #CDBB9D",
"w. c #DCB293",
"e. c #DAB69A",
"r. c #DDBC9F",
"t. c #E0AE8B",
"y. c #E3B28D",
"u. c #EBB88E",
"i. c #E2B693",
"p. c #E3BA96",
"a. c #E2BC9A",
"s. c #CEB7A1",
"d. c #CDBEA2",
"f. c #C5BCA6",
"g. c #D2BBA2",
"h. c #DCBFA1",
"j. c #D2BFAA",
"k. c #E1BEA2",
"l. c #E7C597",
"z. c #E5C09D",
"x. c #CDC0A5",
"c. c #D5C1A5",
"v. c #DBC3A6",
"b. c #D7C4AB",
"n. c #DAC6AD",
"m. c #DAC8AE",
"M. c #CBC9B6",
"N. c #CFCCB8",
"B. c #CAC5B6",
"V. c #D7C7B3",
"C. c #D9C5B2",
"Z. c #DDCBB2",
"A. c #DFCFB9",
"S. c #DFD1BD",
"D. c #E4C2A3",
"F. c #ECC6A5",
"G. c #E4C5AA",
"H. c #E5CAAE",
"J. c #E9CAAB",
"K. c #F3CEAD",
"L. c #E2CBB2",
"P. c #E1D1B6",
"I. c #EBD3B3",
"U. c #E2D4BB",
"Y. c #EDD5BD",
"T. c #F2D2B4",
"R. c #F2DCBF",
"E. c #DBCFC1",
"W. c #DFD9CA",
"Q. c #E1D5C4",
"!. c #ECD7C3",
"~. c #E6D8C0",
"^. c #EDDBC5",
"/. c #E3DBCB",
"(. c #EEDFCD",
"). c #F5DDC5",
"_. c #EFE1C7",
"`. c #ECE2CB",
"'. c #F5E5CC",
"]. c #F6E3C7",
"[. c #EBE6D5",
"{. c #ECEBDA",
"}. c #F1E6D2",
"|. c #F3EAD3",
" X c #F3ECDC",
".X c #F8F3DC",
"XX c #FAF6E4",
"oX c #F6F3E2",
/* pixels */
"= = = = = = = = = = = = = = = = = = = = = = = = = = = = = = = = = = = = = = = = = = = = = = = = = = = = = = = = = = = = = = = = ",
"= = = = = = = = = = = = = = = = = = = = = = = = = = = = = = = = = = = = = = = = = = = = = = = = = = = = = = = = = = = = = = = = ",
"= = = = = = = = = = = = = = = = = = = = = = = = = = = = = = = = = = = = = = = = = = = = = = = = = = = = = = = = = = = = = = = = ",
"= = = = = = = = = = = = = = = = = = = = = = = = = = = = = = = = = = = = = = = = = = = = = = = = = = = = = = = = = = = = = = = = ",
"= = = = = = = = = = = = = = = = = = = = = = = = = = = = = = = = = = = = = = = = = = = = = = = = = = = = = = = = = = = = = = = = ",
"= = = = = = = = = = = = = = = = = = = = = = = = = = = = = = = = = = = = = = = = = = = = = = = = = = = = = = = = = = = = = = = = ",
"= = = = = = = = = = = = = = = = = = = = = = = = = = = = = = = = = = = = = = = r ; = = = = = = = = = = = = = = = = = = = = = = = ",
"= = = = = = = = = = = = = = = = = = = = = = = = = = = = = = = = = = = = = = = ; e = = = = = = = = = = = = = = = = = = = = = = = ",
"= = = = = = = = = = = = = = = = = = = = = = = = = = = = = = = = = = = e L r ; * * = = = = = = = = = = = = = = = = = = = = = = = ",
"= = = = = = = = = = = = = = = = = = = = = = = = = = = = = = = = = = = = e r e * + * r L r = = = = = = = = = = = = = = = = = = = ",
"= = = = = = = = = = = = = = = = = = = = = = = = = = = = = = = = = ; r e * = e = * = e r ; = = = = = = = = = = = = = = = = = = = ",
"= = = = = = = = = = = = = = = = = = = = = = = = = = = = = = = = = = ; r e * * = ; e e = = = = = = = = = = = = = = = = = = = = = ",
"= = = = = = = = = = = = = = = = = = = = = = = = = = = = = = = = = = * * e = * + * ; * * = = = = = = = = = = = = = = = = = = = = ",
"= = = = = = = = = = = = = = = = = = = = = = = = = = = = = = = = = = = * * = = * + + * = = = = = = = = = = = = = = = = = = = = = ",
"= = = = = = = = = = = = = = = = = = = = = = = = = = = = = = = = = = = = * * ; e = = = = = = = = = = = = = = = = = = = = = = = = ",
"= = = = = = = = = = = = = = = = = = = = = = = = = = = = = = = = = = = = = = ; * * = = = = = = = = = = = = = = = = = = = = = = = ",
"= = = = = = = = = = = = = = = = = = = = = = = = = = = = = = = = = = = = = = * * = = = = = = = = = = = = = = = = = = = = = = = = ",
"= = = = = = = = = = = = = = = = = = = = = = = = = = = = = = = = = = = = = = = = = = = = = = = = = = = = = = = = = = = = = = = = ",
"= = = = = = = = = = = = = = = = = = = = = = = = = = = = = = = = = = = = = = = = = = = = = = = = = = = = = = = = = = = = = = = = ",
"= = = = = = = = = = = = = = = = = = = = = = = = = = = = = = = = = = = = = = = = = = = = = = = = = = = = = = = = = = = = = = = = ",
"= = = = = = = = = = = = = = = = = = = = = = = = = = = = = = = = = = = = = = = = = = = = = = = = = = = = = = = = = = = = = = = = ",
"= = = = = = = = = = = = = = = = = = = = = = = = = = = = = = = = = = = = = = = = = = = = = = = = = = = = = = = = = = = = = = = = ",
"= = = = = = = = = = = = = = = = = = = = = = = = = = = = = = = = = = = = = = = = = = = = = = = = = = = = = = = = = = = = = = = = ",
"= = = = = = = = = = = = = = = = = = = = = = = = = = = = = = = = = = = = = = = = = = = = = = = = = = = = = = = = = = = = = = = = ",
"= = = = = = = = = = = = = = = = = = = = = = = = = = = = = = = = = = = = = = = = = = = = = = = = = = = = = = = = = = = = = = = = ",
"= = = = = = = = = = = = = = = = = = = = = = = = = = = = = = = = = = = = = = = = = = = = = = = = = = = = = = = = = = = = = = = = ",
"= = = = = = = = = = = = = = = = = = = = = = = = = = = = = = = = = = = = = = = = = = = = = = = = = = = = = = = = = = = = = = = = ",
"= = = = = = = = = = = = = = = = = = = = = = = = = = = = = = = = = = = = = = = = = = = = = = = = = = = = = = = = = = = = = = = = ",
"= = = = = = = = = = = = = = = = = = = = = = = = = = = = = = = = = = = = = = = = = = = = = = = = = = = = = = = = = = = = = = = = ",
"= = = = = = = = = = = = = = = = = = = = = = = = = = = = = = = = = = = = = = = = = = = = = = = = = = = = = = = = = = = = = = = = ",
"= = = = = = = = = = = = = = = = = = = = = = = = = = = = = = = = = = = = = = = = = = = = = = = = = = = = = = = = = = = = = = = = ",
"= = = = = = = = = = = = = = = = = = = = = = = = = = = = = = = = = = = = = = = = = = = = = = = = = = = = = = = = = = = = = = = = ",
"= = = = = = = = = = = = = = = = = = = = = = = = = = = = = = = = = = = = = = = = = = = = = = = e L ; = = = = = = = = = = = = = = ",
"= = = = = = = = = = = = = = = = = = = = = = = = = = = = = = = = = = = = = = = = = = = = = = = = r r e = = = r L ; = = = = = = = ",
"= = = = = = = = = = = = = = = = = = = = = = = = = = = = = = = = = = = = = = = = = = = = = = = = * = e = = ; L ; = = = = = = = = ",
"= = = = = = = = = = = = = = = = = = = = = = = = = = = = = w w w w w w w w w = = = = = = = = = = = * + * ; e e = = = = = = = = = ",
"= = = = = = = = = = = = = = = = = = = = = = = = = e 7 9 9 p p p p p p p p p p 9 9 7 = = = = = = = = = = ; e * * = = = = = = = = ",
"= = = = = = = = = = = = = = = = = = = = = = = r r t s Z D _ ] [ [ [ [ [ [ ] ' ` F d 0 = = = = = = = = = * + * = = = = = = = = = ",
"= = = = = = = = = = = = = = = = = = = = = = r b m N H ..4.g.E.W././././.Q.E.A.h.3.J 8 $ = = = = = = = = = = = = = = = = = = = = ",
"= = = = = = = = = = = = r ; = = = = = = = : P R W S  .-.-.7.L.(.}.}.'.R.T.T.F.y.:.%.3 o $ = = = = = = = = = = = = = = = = = = = ",
"= = = = = = = = = = = = ; e = = = = = = = v E @.#.+.2.1.<.-.w.k.D.D.r.i.y.t.5.%.J C , X # = = = = = = = = = = = = = = = = = = = ",
"= = = = = = = = e L r ; * * = = = = = = = v R ^ $.,.p.F.D.a.D.F.D.a.p.p.i.i.*.H 4 2 . X # = = = = = = = = = = = = = = = = = = = ",
"= = = = = = = = = e r e * + * r L r = = = v I ! #.l.Y.!.L.G.I.G.r.h.v.e.D.J.3.F <   X @ + = = = = = = = = = = = = = = = = = = = ",
"= = = = = = ; r e * = e = * = e r ; = = = : v U ( P.[./.C.g.Z.g.0.g.n.g.L.^.q.G < X # * = = = = = = = = = = = = = = = = = = = = ",
"= = = = = = = ; r e * * = ; e e = = = = = ; e y z N.[./.V.s.g.g.g.c.n.n.A.`.x.` 1 X * ; ; = = = = = = = = = = = = = = = = = = = ",
"= = = = = = = * * e = * + * ; * * = = = = ; e t j M.[./.V.s.g.c.g.c.m.Z.U.`.x./ 1 X w e ; ; = = = = = = = = = = = = = = = = = = ",
"= = = = = = = = * * = = * + + * = = = = = ; e t g M.[./.j.0.Z.Z.g.0.c.P.A.`.d.` 1 X w ; : ; = = = = = = = = = = = = = = = = = = ",
"= = = = = = = = = * * ; e = = = = = = = = ; e t g M.[./.j.9.c.v.b.c.b.Z.Z.`.x.` 1 X w ; ; ; = = = = = = = = = = = = = = = = = = ",
"= = = = = = = = = = = ; * * = = = = = = = ; e t g M.{.[.S.b.Z.L.U.U.U.A.Q.`.x.` 1 , w e ; ; = = = = = = = = = = = = = = = = = = ",
"= = = = = = = = = = = * * = = = = = = = = ; e t g M.{.oX X|.|.|.`.^.~.U./.|.x.) 1 X w e ; = = = = = = = = = = = = = = = = = = = ",
"= = = = = = = = = = = = = = = = = = = = = ; e t g M. XXXXXXXXX.X_.L.g.0.C.^.d.G < X * = ; = = = = = = = = = = = = = = = = = = = ",
"= = = = = = = = = = = = = = = = = = = = = ; e t g B.[.|.'.'.'.].R.I.H.G.H.J.3.F < X $ = ; = = = = = = = = = = = = = = = = = = = ",
"= = = = = = = = = = = = = = = = = = = = = = = t f f.H.D.p.p.z.D.a.a.p.w.w.w.=.H 3 , $ = = = = = = = = = = = = = = = = = = = = = ",
"= = = = = = = = = = = = = = = = = = = = = = = t a 9.w.8.<.5.p.k.D.D.D.k.r.e.7.| V 4 7 = = = = = = = = = = = = = = = = = = = = = ",
"= = = = = = = = = = = = = = = = = = = = = = = 7 i X.5.;.-.8.J.!.^.^.^.^.!.Y.G.7.} N 0 = = = = = = = = = = = = = = = = = = = = = ",
"= = = = = = = = = = = = = = = = = = = = = = = 7 u ..*.-.<.p.^. X X X X X}.).K.u.&.K x & = = = = = = = = = = = = = = = = = = = = ",
"= = = = = = = = = = = = = = = = = = = = = = = w 9 A { | *.e.v.m.Z.Z.Z.C.v.w.6.&.O.o.M c v ; = = = = = = = = = = = = = = = = = = ",
"= = = = = = = = = = = = = = = = = = = = = = = = w 8 4 5 5 h k k l l l k h 6 s B W ~ T I v = = = = = = = = = = = = = = = = = = = ",
"= = = = = = = = = = = = = = = = = = = = = = = = = $ @ X > > > > > > > > >   . q M Q Y n r = = = = = = = = = = = = = = = = = = = ",
"= = = = = = = = = = = = = = = = = = = = = = = = = = $ # @ O O O @ O O O O O @ % c m b - = = = = = = = = = = = = = = = = = = = = ",
"= = = = = = = = = = = = = = = = = = = = = = = = = = = = = * * * * * * * * * * = = * + = = = = = = = = = = = = = = = = = = = = = ",
"= = = = = = = = = = = = = = = = = = = = = = = = = = = = = = = = = = = = = = = = = = = = = = = = = = = = = = = = = = = = = = = = ",
"= = = = = = = = = = = = = = = = = = = = = = = = = = = = = = = = = = = = = = = = = = = = = = = = = = = = = = = = = = = = = = = = ",
"= = = = = = = = = = = = = = = = = = = = = = = = = = = = = = = = = = = = = = = = = = = = = = = = = = = = = = = = = = = = = = = = "
};
