/* XPM */
static const char *RGVhdGhfMw__[] = {
/* columns rows colors chars-per-pixel */
"64 64 230 2 ",
"   c black",
".  c #1B1B19",
"X  c #2C1C19",
"o  c #29291A",
"O  c #342919",
"+  c #343519",
"@  c #3A3B1A",
"#  c #38361A",
"$  c #2B301F",
"%  c #1A1F21",
"&  c #1C282A",
"*  c #1E3438",
"=  c #1C2C31",
"-  c #232929",
";  c #26332B",
":  c #333B25",
">  c #322C3C",
",  c #3F2E3D",
"<  c #283A3B",
"1  c #363238",
"2  c #32292B",
"3  c #411F18",
"4  c #49261B",
"5  c #5A271A",
"6  c #4F361A",
"7  c #682A1D",
"8  c #722C1A",
"9  c #792D1C",
"0  c #6F361B",
"q  c #5B2C21",
"w  c #47342A",
"e  c #57392D",
"r  c #493834",
"t  c #5B3C33",
"y  c #442D31",
"u  c #632C22",
"i  c #6B3829",
"p  c #783828",
"a  c #743D36",
"s  c #3F401A",
"d  c #3A4D38",
"f  c #42451A",
"g  c #494B1C",
"h  c #4D521E",
"j  c #53551A",
"k  c #595B1A",
"l  c #565A1C",
"z  c #5D491A",
"x  c #69571B",
"c  c #715A1A",
"v  c #5E6219",
"b  c #666B1A",
"n  c #6A6D1C",
"m  c #646719",
"M  c #6D721B",
"N  c #72751B",
"B  c #76791F",
"V  c #7A6A1D",
"C  c #484829",
"Z  c #57462B",
"A  c #595927",
"S  c #474337",
"D  c #475B38",
"F  c #5D5C3B",
"G  c #524D33",
"H  c #6A4535",
"J  c #744738",
"K  c #705634",
"L  c #59672E",
"P  c #556530",
"I  c #4E6438",
"U  c #6A6D23",
"Y  c #646923",
"T  c #786924",
"R  c #6D7121",
"E  c #777A20",
"W  c #797C21",
"Q  c #717524",
"!  c #626235",
"~  c #1F3C47",
"^  c #312B44",
"/  c #273943",
"(  c #3B344D",
")  c #35374E",
"_  c #3C3754",
"`  c #2E2B44",
"'  c #40364C",
"]  c #453B54",
"[  c #523E47",
"{  c #1F404E",
"}  c #254548",
"|  c #36464C",
" . c #355447",
".. c #214454",
"X. c #244C55",
"o. c #224C5B",
"O. c #2C4C53",
"+. c #25535C",
"@. c #2B5959",
"#. c #375557",
"$. c #304953",
"%. c #295B64",
"&. c #375863",
"*. c #2A636A",
"=. c #2C6A6E",
"-. c #296267",
";. c #366D69",
":. c #35736E",
">. c #2D6E71",
",. c #2E7274",
"<. c #327B7B",
"1. c #317677",
"2. c #336474",
"3. c #34625A",
"4. c #46494C",
"5. c #5C574B",
"6. c #564854",
"7. c #4D5153",
"8. c #664749",
"9. c #614953",
"0. c #745650",
"q. c #55635B",
"w. c #7A685B",
"e. c #68704E",
"r. c #4A4966",
"t. c #4C5868",
"y. c #59536A",
"u. c #575B76",
"i. c #544F68",
"p. c #51726B",
"a. c #5B667A",
"s. c #4D6965",
"d. c #60687C",
"f. c #993B24",
"g. c #8A3D2A",
"h. c #A53B27",
"j. c #89311F",
"k. c #82621F",
"l. c #895737",
"z. c #93573A",
"x. c #934630",
"c. c #BA462C",
"v. c #AA4E31",
"b. c #A06439",
"n. c #C2462E",
"m. c #C74B31",
"M. c #D15937",
"N. c #CE5435",
"B. c #C96538",
"V. c #D56635",
"C. c #875843",
"Z. c #965944",
"A. c #886B59",
"S. c #996A50",
"D. c #A46C4C",
"F. c #A76B53",
"G. c #B46E52",
"H. c #AA7555",
"J. c #B77654",
"K. c #BA6A48",
"L. c #93766E",
"P. c #AC7A65",
"I. c #D87544",
"U. c #C9764B",
"Y. c #7D8025",
"T. c #34827D",
"R. c #5E8475",
"E. c #B6906C",
"W. c #B58556",
"Q. c #CD865F",
"!. c #C7825D",
"~. c #D88B4D",
"^. c #E98C4B",
"/. c #D08860",
"(. c #CB9674",
"). c #DB9D71",
"_. c #CD8F67",
"`. c #C7A87D",
"'. c #DCA477",
"]. c #3F7C8B",
"[. c #5D6B84",
"{. c #557684",
"}. c #646D86",
"|. c #68778A",
" X c #72788B",
".X c #857D82",
"XX c #378884",
"oX c #3E9391",
"OX c #389088",
"+X c #488C97",
"@X c #489797",
"#X c #52998F",
"$X c #6E8192",
"%X c #768498",
"&X c #6D9890",
"*X c #549CA9",
"=X c #4C9CA4",
"-X c #7998A4",
";X c #798DA1",
":X c #4BA3A4",
">X c #51ACAD",
",X c #5AAAB3",
"<X c #5AB3B8",
"1X c #64A9B3",
"2X c #61B6B8",
"3X c #7ABEBB",
"4X c #6FA19A",
"5X c #62BDC6",
"6X c #63BAC6",
"7X c #68C2CC",
"8X c #6DCBD7",
"9X c #74CDDA",
"0X c #77D2DF",
"qX c #75D3E2",
"wX c #7BD6E4",
"eX c #AF9A8A",
"rX c #B9AD99",
"tX c #8B9CAC",
"yX c #96AAB7",
"uX c #9EB3BF",
"iX c #90A5AB",
"pX c #A9B7BD",
"aX c #D5B385",
"sX c #F1C38F",
"dX c #F4CA94",
"fX c #A1B5C1",
"gX c #A5BAC5",
"hX c #8ABAC2",
"jX c #8CC8CB",
"kX c #ACC2CB",
/* pixels */
"N N N N N N N N N N N N N N N N N N N N N N N N N N N N N N N N N N N N N N N N N N N N N N N N N N N N N N N N N N N N N N N N ",
"N N N N N N N N N N N N N N N N N N N N N N N N N N N N N N N N N N N N N N N N N N N N N N N N N N N N N N N N N N N N N N N N ",
"N N N N N N N N N N N N N N N N N N N N N N N N N N N N N N N N N N N N N N N N N N N N N N N N N N N N N N N N N N N N N N N N ",
"N N N N N N N N N N N N N N N N N N N N N N N N N N N N N N N N N N N N N N N N N N N N N N N N N N N N N N N N N N N N N N N N ",
"N N N N N N N N N N N N N N N N N N N N N N N N N N N N N N N N N N N N N N N N N N N N N N N N N N N N N N N N N N N N N N N N ",
"N N N N N N N N N N N N N N N N N N N N N N N N N N N N N N N N N N N N N N N N N N N N N N N N N N N N N N N N N N N N N N N N ",
"N N N N N N N N N N N N N N N N N N N N N N N N N N N N N N N N N N N N N N N W B N N N N N N N N N N N N N N N N N N N N N N N ",
"N N N N N N N N N N N N N N N N N N N N N N N N N N N N N N N N N N N N N N N B E N N N N N N N N N N N N N N N N N N N N N N N ",
"N N N N N N N N N N N N N N N N N N N N N N N N N N N N N N N N N N N E Y.W B M M N N N N N N N N N N N N N N N N N N N N N N N ",
"N N N N N N N N N N N N N N N N N N N N N N N N N N N N N N N N N N N N E W E M b M W Y.W N N N N N N N N N N N N N N N N N N N ",
"N N N N N N N N N N N N N N N N N N N N N N N N N N N N N N N N N B W E M N E N M N E W B N N N N N N N N N N N N N N N N N N N ",
"N N N N N N N N N N N N N N N N N N N N N N N N N N N N N N N N N N B W E M M N B E E N N N N N N N N N N N N N N N N N N N N N ",
"N N N N N N N N N N N N N N N N N N N N N N N N N N N N N N N N N N M M E N M b M B M M N N N N N N N N N N N N N N N N N N N N ",
"N N N N N N N N N N N N N N N N N N N N N N N N N N N N N N N N N N N M M N N M n n M N N N N N N N N N N N N N N N N N N N N N ",
"N N N N N N N N N N N N N N N N N N N N N N N N N N N N N N N N N N N N M M B E N N N N N N N N N N N N N N N N N N N N N N N N ",
"N N N N N N N N N N N N N N N N N N N N N N N N N N N N N N N N N N N N N N B M M N N N N N N N N N N N N N N N N N N N N N N N ",
"N N N N N N N N N N N N N N N N N N N N N N N N N N N N N N N N N N N N N N M M N N N N N N N N N N N N N N N N N N N N N N N N ",
"N N N N N N N N N N N N N N N N N N N N N N N N N N N N N N N N N N N N N N N N N N N N N N N N N N N N N N N N N N N N N N N N ",
"N N N N N N N N N N N N N N N N N N N N N N N N N N N N N N N N N N N N N N N N N N N N N N N N N N N N N N N N N N N N N N N N ",
"N N N N N N N N N N N N N N N N N N N N N N N N N N N N N N N N N N N N N N N N N N N N N N N N N N N N N N N N N N N N N N N N ",
"N N N N N N N N N N N N N N N N N N N N N N N N N N N N N N N N N N N N N N N N N N N N N N N N N N N N N N N N N N N N N N N N ",
"N N N N N N N N N N N N N N N N N N N N N N N N N N N N N N N N N N N N N N N N N N N N N N N N N N N N N N N N N N N N N N N N ",
"N N N N N N N N N N N N N N N N N N N N N N N N N N N N N N N N N N N N N N N N N N N N N N N N N N N N N N N N N N N N N N N N ",
"N N N N N N N N N N N N N N N N N N N N N N N N N N N N N N N N N N N N N N N N N N N N N N N N N N N N N N N N N N N N N N N N ",
"N N N N N N N N N N N N N N N N N N N N N N N N N N N N N N N N N N N N N N N N N N N N N N N N N N N N N N N N N N N N N N N N ",
"N N N N N N N N N N N N N N N N N N N N N N N N N N N N N N N N N N N N N N N N N N N N N N N N N N N N N N N N N N N N N N N N ",
"N N N N N N N N N N N N N N N N N N N N N N N N N N N N N N N N N N N N N N N N N N N N N N N N N N N N N N N N N N N N N N N N ",
"N N N N N N N N N N N N N N N N N N N N N N N N N N N N N N N N N N N N N N N N N N N N N N N N N N N N N N N N N N N N N N N N ",
"N N N N N N N N N N N N N N N N N N N N N N N N N N N N N N N N N N N N N N N N N N N N N N N N N N N N N N N N N N N N N N N N ",
"N N N N N N N N N N N N N N N N N N N N N N N N N N N N N N N N N N N N N N N N N N N N N N N N N N N N N N N N N N N N N N N N ",
"N N N N N N N N N N N N N N N N N N N N N N N N N N N N N N N N N N N N N N N N N N N N N N N N N N N N N N N N N N N N N N N N ",
"N N N N N N N N N N N N N N N N N N N N N N N N N N N N N N N N N N N N N N N N N N N N N N N N N N N N N N N N N N N N N N N N ",
"N N N N N N N N N N N N N N N N N N N N N N N N N N N N N N N N N N N N N N N N N N N N N N N E Y.B N N N N N N N N N N N N N N ",
"N N N N N N N N N N N N N N N N N N M R R R M n n n N N N N N N N N N N N N N N N N N N N N N N W W E N N N W Y.B N N N N N N N ",
"N N N N N N N N N N N N N N N N N U D  . . .d : # s m N N N N N N N N N N N N N N N N N N N N N M N E N N B Y.B N N N N N N N N ",
"N N N N N N N N Y A A A A U R L P I 3.-.-.%.+.} * ; g j k n N N N N N N N N N N N N N N N N N N N M v n B E E N N N N N N N N N ",
"N N N N N N N n C > > > 1 A L  .X.@.<.XXXXXXXXT.-.~ & . o j N N N N N N N N N N N N N N N N N N N N N N N E M M N N N N N N N N ",
"N N N N N N N n C ` ( _ ( S d X.%.1.XX<.=.=.=.*.%...~ * < d D f f g N N M P U N N N N N N N N N N N N N M b M N N N N N N N N N ",
"N N N N N N N n C ^ r.r.r._ ` ..%.:.:.;.s.s.t.7.$.} | 4.7.@.X./ < : N N L  . .A N N N N N N N N N M N N N N N N N N N N N N N N ",
"N N N N N N N n C ) u.[.[.r._ ` * ; <   aX  `.P.H 2 x.K.W.R.@X,X@Xp.C.J #.;.=.| T N N N N N N N N N N N N N N N N N N N N N N N ",
"N N N N N N n x r ) a.%X;X}.r.] 8.0.A.E.  dXsX'.H.H p v.U.E.&X2X<X4XP.L.+X=X+X&.K k.V V N N n M N N N N N N N N N N N N N N N N ",
"N N N N N N x q y ' a.tXfXtX[.i.A._.aX  sX  dXsX'.H.w u m.I.E.#X2XjX`.rX0XqX,X&.r 8 8 0 x Y M N N M M N N N N N N N N N N N N N ",
"N N N N N N x u u a y.%XgXuX%Xi.6.8.S.H.H._.).)._.H.w 4 f.U.`.3X9XjX`.rXwXqX6XXX#.r q 5 O / D U n C g n N N N N N N N N N N N N ",
"N N N N M Y Z t p g.9.}.yXfXtXu._ , J J H C.D.!.Q.F.w 4 9 K.E.jXwXjX(.eX7X8X5XoX*.| i p Z 5.q.5.S O g l k n N N N N N N N N N N ",
"N N N N U S ( ] a g.9.u.%XyXyX|.r.y H e   !.  J.Q.F.w 4 9 v.P.jXwXhXP.A.@X5X5XoX*.4.z.B.~.~.~.~.z.5 O o $ k N N N N N N N N N N ",
"N N N N U 4.r.y.0.x.Z.A.$XyXgXtXa.' [ e !.  (.W.Z.H 5 8 x.L.yX9X7X&XC.J q.1X5XoX*.4.v.M.I.^.^.^.B.f.p 5 4 6 f f f C D D I Y N N ",
"N N N U ! q.a. XS.c.B.G..XyXkXfX X_ ] e   (.  H.t X 7 g.S.tX8X7X:X;.Z 7 a &X<XXX-.4.x.n.N.I.^.^.V.n.c.f.7 w < < < } O.+.O.L N N ",
"N N R ! 7.a.%XiXE.V.V.V.U.rXkXfX X] ( w.(.(.H.r o X 5 5.R.@X@X@X1.+.| r i p.XX-.o.| i h.m.N.M.M.N.m.n.f.a |.1X1X,X*XXX*.O.P N N ",
"N N R F i.%XyXpXeXG.B.V.I.rXkXuX|.$.) 7.w.w.5.< }  .7.s.>.,.,.=.%...< 2 w #.*.o.~ 1 u j.h.h.h.h.c.m.n.f.J -XwXqX7X>XoX>.O.P N N ",
"N N R F u.tXkXgXtX.XG.V.I.eXpXyX{.o.o.o.o.o.o.%.,.XXXX=.o.......o.} - . & / ..{ = X 5 8 8 8 8 9 f.c.c.f.J -XwX8X>XOXXX=. .L N N ",
"N N Q e.|.yXkXkXfXiXL.Z.v.K.L.a.&.o.o.-.<.<.<.1.=.=.<.@.= & & - d L A j g : & & % o z c c c z 4 4 u p J p.#X>X:XXX%.O.d P U N N ",
"N N Q e.$XyXkXkXkXuX%X0.x.v.l.#.2.].].+X:XoXOXXX*.+.@. .+ # + @ k N N N n g # + # f m N N M k @ + # 6 S ;.1.<.1.+.< : h M N N N ",
"N N Q e.$XyXkXkXkXuX%X0.f.f.J &.*X9X0XqX8X:XOXXX-.~ ; f n n n M N N N N N M n n n n N N N N M n b k O . = } +.o.* $ l n N N N N ",
"N N R e.d.tXkXgXyX;X|.0.p x.H &.*XwXqX7X:X<.@.} < ; C v N N N N N N N N N N N N N N N N N N N N N n j g g D D D C j b N N N N N ",
"N N R F y.%XyXtX$X[.a.6.i l.0.&.+X6X6X@X>.X.< $ o @ m N N N N N N N N N N N N N N N N N N N N N N N N M M M M M M M N N N N N N ",
"N N R F r.}.}.u.i.r.r.8.l.D.A.#.%.2.%.X.= & : k m b M N N N N N N N N N E Y.B N N N N N N N N N N N N N N N N N N N N N N N N N ",
"N N R F r.i.r._ ( ( ' 8.Z.J.H.w.w.5.< & . . @ b N N N N N N N N N N N N N W W E N N N W Y.B N N N N N N N N N N N N N N N N N N ",
"N N R F 4.] _ ^ > > 1 t z.J././.Q.D.w . . . @ b N N N N N N N N N N N N N M N E N N B Y.B N N N N N N N N N N N N N N N N N N N ",
"N N N U F S ^ > C A A K z.J.Q.Q.Q.D.w . . - C n N N N N N N N N N N N N N N M b M B E E N N N N N N N N N N N N N N N N N N N N ",
"N N N N n A S C Y N N T l.D.J.J.J.Z.Z # @ C A n N N N N N N N N N N N N N N N N N B E M M N N N N N N N N N N N N N N N N N N N ",
"N N N N N M M M N N N N T l.l.l.l.l.T M M M M N N N N N N N N N N N N N N N N N N M b M N N N N N N N N N N N N N N N N N N N N ",
"N N N N N N N N N N N N N T T T T T N N N N N N N N N N N N N N N N N N N N N N N N N N N N N N N N N N N N N N N N N N N N N N ",
"N N N N N N N N N N N N N N N N N N N N N N N N N N N N N N N N N N N N N N N N N N N N N N N N N N N N N N N N N N N N N N N N ",
"N N N N N N N N N N N N N N N N N N N N N N N N N N N N N N N N N N N N N N N N N N N N N N N N N N N N N N N N N N N N N N N N "
};
