/* XPM */
static const char *RGVhdGhfMQ__[] = {
/* columns rows colors chars-per-pixel */
"64 64 226 2 ",
"   c #191919",
".  c #251D1A",
"X  c #331C19",
"o  c #242518",
"O  c #2A231D",
"+  c #3A201B",
"@  c #323319",
"#  c #373819",
"$  c #3C3D1A",
"%  c #2F3019",
"&  c #1C2829",
"*  c #1E3132",
"=  c #252927",
"-  c #382B25",
";  c #2D263E",
":  c #2D263A",
">  c #322C3B",
",  c #392B37",
"<  c #22383A",
"1  c #3B3638",
"2  c #313821",
"3  c #47221A",
"4  c #5A281B",
"5  c #5A361C",
"6  c #692A1A",
"7  c #7B331E",
"8  c #76291C",
"9  c #492A25",
"0  c #55372A",
"q  c #433838",
"w  c #4F3329",
"e  c #643C2D",
"r  c #743229",
"t  c #39462C",
"y  c #3E4019",
"u  c #4A4B1A",
"i  c #45431B",
"p  c #4E501B",
"a  c #5A5D1B",
"s  c #53551B",
"d  c #68551C",
"f  c #624A19",
"g  c #64651B",
"h  c #666B1A",
"j  c #6B6D1C",
"k  c #666C17",
"l  c #7B6F1E",
"z  c #6D721A",
"x  c #72751B",
"c  c #76791F",
"v  c #78711D",
"b  c #4A4A29",
"n  c #524A2B",
"m  c #5B5B26",
"M  c #55542B",
"N  c #474438",
"B  c #5D5C3B",
"V  c #41593E",
"C  c #6B442C",
"Z  c #645728",
"A  c #7F5F2C",
"S  c #70582D",
"D  c #674336",
"F  c #784937",
"G  c #5C6429",
"H  c #636522",
"J  c #686A27",
"K  c #7A6825",
"L  c #777A20",
"P  c #797C22",
"I  c #787323",
"U  c #626233",
"Y  c #6E7220",
"T  c #332B45",
"R  c #39324E",
"E  c #36314C",
"W  c #3C3853",
"Q  c #203F46",
"!  c #1F3E49",
"~  c #473847",
"^  c #423C5A",
"/  c #563D4C",
"(  c #453F60",
")  c #244853",
"_  c #295B5A",
"`  c #2F4F48",
"'  c #275B65",
"]  c #2B6569",
"[  c #317373",
"{  c #327C7B",
"}  c #306D6E",
"|  c #35675F",
" . c #49454D",
".. c #594549",
"X. c #484659",
"o. c #56485A",
"O. c #515751",
"+. c #6C5051",
"@. c #464262",
"#. c #4A4968",
"$. c #515169",
"%. c #555974",
"&. c #6B5662",
"*. c #5B637E",
"=. c #56617A",
"-. c #436169",
";. c #66657A",
":. c #786D72",
">. c #5A624A",
",. c #8D371B",
"<. c #913826",
"1. c #AD3234",
"2. c #A61F35",
"3. c #CD3238",
"4. c #965D27",
"5. c #884A36",
"6. c #875536",
"7. c #93593E",
"8. c #954935",
"9. c #A9482A",
"0. c #A65635",
"q. c #B64931",
"w. c #896825",
"e. c #936128",
"r. c #916932",
"t. c #A9683A",
"y. c #A7441F",
"u. c #CD5E2C",
"i. c #C84C31",
"p. c #CF5837",
"a. c #DB6832",
"s. c #D16A36",
"d. c #9B3548",
"f. c #C83E42",
"g. c #935C41",
"h. c #875943",
"j. c #A85E44",
"k. c #9B6549",
"l. c #906853",
"z. c #A56949",
"x. c #B9694D",
"c. c #B57757",
"v. c #A9734F",
"b. c #8C6B69",
"n. c #AB7368",
"m. c #9A5A67",
"M. c #CD5350",
"N. c #DC7742",
"B. c #C76D46",
"V. c #D36D73",
"C. c #E76D77",
"Z. c #E26B56",
"A. c #7E8125",
"S. c #42807F",
"D. c #B7815D",
"F. c #B38D6C",
"G. c #C9855C",
"H. c #F09850",
"J. c #E7894A",
"K. c #C78869",
"L. c #D08860",
"P. c #D8976C",
"I. c #D5837A",
"U. c #C79678",
"Y. c #C6976E",
"T. c #D4A678",
"R. c #CFA37D",
"E. c #E3AC7C",
"W. c #5C6781",
"Q. c #62758D",
"!. c #6A758B",
"~. c #737E94",
"^. c #6A778E",
"/. c #AC7884",
"(. c #E27583",
"). c #3B928D",
"_. c #439897",
"`. c #4A9386",
"'. c #75879A",
"]. c #7D92A4",
"[. c #7B8DA0",
"{. c #54ADB2",
"}. c #62A6A5",
"|. c #5EBBC1",
" X c #61BDC5",
".X c #72D1DF",
"XX c #65C2CB",
"oX c #78D8E8",
"OX c #8F8B85",
"+X c #889BAB",
"@X c #9CADBA",
"#X c #95A8B6",
"$X c #9DB2BF",
"%X c #B29395",
"&X c #D8898F",
"*X c #E68891",
"=X c #DBAA89",
"-X c #D7B487",
";X c #E6AC92",
":X c #ED99A3",
">X c #D5A3AF",
",X c #E8AAB3",
"<X c #F6ACB6",
"1X c #EDB5B7",
"2X c #F4B1BB",
"3X c #ECA7A9",
"4X c #D596A3",
"5X c #EFC08C",
"6X c #F1C38E",
"7X c #F6CD95",
"8X c #F8D098",
"9X c #9FB5C1",
"0X c #A6BBC6",
"qX c #F5BBC2",
"wX c #ADC3CC",
"eX c #F5C4CB",
"rX c #F8CBD2",
"tX c #F8D7DB",
"yX c #EFD3CC",
"uX c #F3E4D2",
"iX c #FCDDE2",
"pX c #FCE7EA",
"aX c #FEEFF1",
"sX c #FEF4F5",
"dX c #FFFFFF",
"fX c #FEF7F8",
/* pixels */
"x x x x x x x x x x x x x x x x x x x x x x x x x x x x x x x x x x x x x x x x x x x x x x x x x x x x x x x x x x x x x x x x ",
"x x x x x x x x x x x x x x x x x x x x x x x x x x x x x x x x x x x x x x x x x x x x x x x x x x x x x x x x x x x x x x x x ",
"x x x x x x x x x x x x x x x x x x x x x x x x x x x x x x x x x x x x x x x x x x x x x x x x x x x x x x x x x x x x x x x x ",
"x x x x x x x x x x x x x x x x x x x x x x x x x x x J B B B B U Y x x x x x x x x x x x x x x x x x x x x x x x x x x x x x x ",
"x x x x x x x x x x x x x x x x x x x x x x x x x x x B X.@.@.@. .J x x x x x x x x x x x x x x x x x x x x x x x x x x x x x x ",
"x x x x x x x x x x x x x x x x x x x x x x x x x J B O.=.=.%.#. .J x x x x x x x x x x x x x x x x x x x x x x x x x x x x x x ",
"x x x x x x x x x x x x x x x x x x x x x x x x x U X.%.Q.~.~.%.o.U Y x x x x P c x x x x x x x x x x x x x x x x x x x x x x x ",
"x x x x x x x x x x x x x x x x x x x x x x x x x U X.%.Q.].#X~.=.O.B Y x x x c L x x x x x x x x x x x x x x x x x x x x x x x ",
"x x x x x x x x x x x x x x x x x x x x x x x x x U  .#.W.[.#X+X^.$. .Z I P c z z x x x x x x x x x x x x x x x x x x x x x x x ",
"x x x x x x x x x x x x x x x x x x x x x x x x x G 1 W #.W.'.#X+X%.^ 1 M P L z k z P A.P x x x x x x x x x x x x x x x x x x x ",
"x x x x x x x x x x x x x x x x x x x x x x x x x m 1 W %.^.+X9X@X!.#.R N M J x z x L P c x x x x x x x x x x x x x x x x x x x ",
"x x x x x x x x x x x x x x x x x x x x x x x x x m 1 X.Q.+XwXwX$X'.=.@.R > M x c L L x x x x x x x x x x x x x x x x x x x x x ",
"x x x x x x x x x x x x x x x x x x x x x x x j M N #.=.Q.+XwXwX9X'.*.@.R ; w f f d j H n n n H x x x x x x x x x x x x x x x x ",
"x x x x x x x x x x x x x x x x x x x x x x x h q W *.Q.Q.+X0X0X@X'.;.X.~ , 9 4 4 5 g M T ; > m x x x x x x x x x x x x x x x x ",
"x x x x x x x x x x x x x x x x x x x x x x x H q E #.=.Q.'.].].OXn.j.5.r r 7 7 w , q ~ W T > m x x x x x x x x x x x x x x x x ",
"x x x x x x x x x x x x x x x x x x x x x x j Z q , ~ o.;.;.:.:.b.B.u.9.y.<.<.r ~ W X.X.( R > m x x x x x x x x x x x x x x x x ",
"x x x x x x x x x x x x x x x x x x x x x x d 5 4 9 w e 5.5.8.z.B.s.a.u.7./ / o.%.!.+X^.@.R > m x x x x x x x x x x x x x x x x ",
"x x x x x x x x x x x x x x x x j m m m m m 0 9 4 6 6 ,.,.y.q.u.a.a.s.x.b.$.*.!.'.+X#X~.@.R > m x x x x x x x x x x x x x x x x ",
"x x x x x x x x x x x x x x x x H q > > > > > , 9 6 ,.,.,.q.a.a.a.a.x.:.!.Q.+X0X0X#X'.*.@.R > m x x x x x x x x x x x x x x x x ",
"x x x x x x x x x x x x x x x x H 1 ; ; T R R R ..+.b.n.n.F.U.U.U.U.%X+X+X+X$XwXwX#XW.#.W N n H x x x x x x x x x x x x x x x x ",
"x x x x x x x x x x x x x x x x H 1 ; ; E ^ ( #.W.'.9XwXwXwXwXwXwXwXwXwXwXwXwXwX0X+X$.W > M x x x x x x x x x x x x x x x x x x ",
"x x x x x x x x x x x x x x x x j m N > T E W @.$.W.'.#XwXwXwXwXwXwXwXwXwXwX#X].~.*.W q M H x x x x x x x x x x x x x x x x x x ",
"x x x x x x x x x x x x x x x x x x m 1 > ; R ^ ^ #.=.'.@X@X@X@X@X@X@X@X@X#X'.=.#.W T n x x x x x x x x x x x x x x x x x x x x ",
"x x x x x x x x x x x x x x x x x x j H N ; T T T E W X.$.$.$.%.;.;.;.;.%.$.X.W E ~ D S x x x x x x x x x x x x x x x x x x x x ",
"x x x x x x x x x x x x x x x x x x x x m 1 : : , q q ..+.....&.:.&.&.o./ q / ......D S x x x x x x x x x x x x x x x x x x x x ",
"x x x x x x x x x x x x x x x x x x x x j H # = e F F v.-XY.c.R.=XK.v.h.F F k.c.c.g.- i x x x x x x x x x x x x x x x x x x x x ",
"x x x x x x x x x x x x x x x x x x x x x z $ O C F e h.Y.T.E.6X6XP.K.F.l.0 k.L.L.k.- $ z x x x x x x x x x x x x x x x x x x x ",
"x x x x x x x x x x x x x x x x x x x x x x $ O C C O 9 6.Y.8X8X6XP.=XuXOX. h.L.L.k.- $ z x x x x x x x x x x x x x x x x x x x ",
"x x x x x x x x x x x x x x x x x x x x x x a i w -   9 5.D.E.6X5XP.=XuXOX  l.E.E.F.D Z x x x x x x x x x x x x x x x x x x x x ",
"x x x x x x x x x x e.3.M.M.q.9.e.w.w.l x x z a %     9 F z.L.E.-XP.=XyXOX- F.8X8XT.k.A x x x x x x x x x x x x x x x x x x x x ",
"x x x x x x x x x x 4.M.3XtXpXpXeX1X3X*XZ.M.C @ o     O - F z.v.D.G.P.=XU.F.-X8X8XT.k.w.x x x x x x x x x x x x x x x x x x x x ",
"x x x x x x x x x x v 0.:XpXdXdXfXsXsXaXpXrX&X2.X X + + X w F 5.7.c.G.G.E.8X8X7X6XT.k.A x x x x x x x x x x x x x x x x x x x x ",
"x x x x x x x x x x x l c.1XdXdXdXdXdXdXdXfXaXeX(.1.1.,.4 3 - C 6.g.z.G.E.8X8X6XE.G.g.A x x x L A.c x x x x x x x x x x x x x x ",
"x x x x x x x x x x x x I D.qXdXdXdXdXdXdXdXdXdXpXtXC.f.<.6 + w e e F h.c.T.T.Y.D.z.6.K x x x x P P L x x x P A.c x x x x x x x ",
"x x x x x x x x x x x x x r.K.eXdXdXdXdXdXdXdXdXdXdXiXqXC.3.6 + . . . O 0 g.g.g.7.6.I x x x x x z x L x x c A.c x x x x x x x x ",
"x x x x x x x x x x x x x v r.V.tXdXdXdXdXdXdXdXdXdXdXfXtX3XV.2.r 6 4 3 9 0 C K K K v x x x x x x z k z c L L x x x x x x x x x ",
"x x x x x x x x x x x x x x l t.*XfXdXdXdXdXdXdXdXdXdXdXdXsXtX2XC.M.1.8 3   u x x x x x x x x x x x x x c L z z x x x x x x x x ",
"x x x x x x x x x x x x x x x I r.I.<XpXdXdXdXdXdXdXdXdXdXdXdXdXrX,XV.d.9   n A A K v x x x x x x x x x z k z x x x x x x x x x ",
"x x x x x x x x x x x x x x x x v e.v.I.2XpXdXdXdXdXdXdXdXdXdXdXdXfXeX4Xm.r e 6.6.6.I x x x x x x x x x x x x x x x x x x x x x ",
"x x x x x x x x x x x x P c x x x x x 4.m.&X<XsXdXdXdXdXdXdXdXdXdXdXdXaXeX*Xn.q.5.6.I x x x x x x x x x x x x x x x x x x x x x ",
"x x x x x x x x x x x x c L x x x x x x U +.m.>X2XfXdXdXdXdXdXdXdXdXdXdXdXaXqX:XM.0.K x x x x x x x x x x x x x x x x x x x x x ",
"x x x x x x x x L A.P c z z x x x x x x Y J O.&./.>XrXaXdXdXdXdXdXdXdXdXdXdXdXdX<X&Xx.4.v x x x x x x x x x x x x x x x x x x x ",
"x x x x x x x x x L P L z k z P A.P x x x x G ` | :.%X,XrXsXdXdXdXdXdXdXdXdXdXdXdXaX<XI.v.e.x x x x x x x x x x x x x x x x x x ",
"x x x x x x c P L z x L x z x L P c x x x x x J ` ' S.b./.,XrXdXdXdXdXdXdXdXdXdXdXdXdXpX<XI.t.w.v x x x x x x x x x x x x x x x ",
"x x x x x x x c P L z z x c L L x x x x x x x h t Q ] } -.m.V.qXtXfXdXdXdXdXdXdXdXdXdXdXdXaX:XB.w.x x x x x x x x x x x x x x x ",
"x x x x x x x z z L x z k z c z z x x x x x x g # = ! ) ) )  .1.V.,XiXsXdXdXdXdXdXdXdXdXdXdXdX<Xv.I x x x x x x x x x x x x x x ",
"x x x x x x x x z z x x z k k z x x x x x x x z a b = - w e 8.9.1.3.C.1XiXdXdXdXdXdXdXdXdXdXdXdX3Xv.l x x x x x x x x x x x x x ",
"x x x x x x x x x z z c L x x x x x x x x x x z g u o X 4 <.i.p.p.p.q.1.V.yXpXdXdXdXdXdXdXdXdXdXaX&Xt.v x x x x x x x x x x x x ",
"x x x x x x x x x x x c z z x x x x x x x x x h i o   . . 7 i.N.J.J.t.7 8 1.V.tXaXfXdXdXdXdXdXdXdXrXI.e.v x x x x x x x x x x x ",
"x x x x x x x x x x x z z x x x x x x x x x x g @         6 9.N.H.H.s.<.,.6 5 1.&XrXaXfXfXdXdXdXdXdXqXV.w.x x x x x x x x x x x ",
"x x x x x x x x x x x x x x x x x x x x x x x g @         3 ,.s.H.H.N.i.<.8 d H ..d.*XyXrXpXaXaXsXsXaX1Xx.v x x x x x x x x x x ",
"x x x x x x x x x x x x x x x x x x x x x x x g @         X 4 0.N.J.G.l.+.O.>.V | ] X.+.0.q.3.Z.C.*X:X(.3.4.x x x x x x x x x x ",
"x x x x x x x x x x x x x x x x x x x x x x x g #           . <.p.J.F.`.).).} ' { { _ V z x x x v v l e.4.x x x x x x x x x x x ",
"x x x x x x x x x x x x x x x x x x x x x x x j a y o     # u 5 D :.[.|.|.|.{.{._.[ < t z x x x x x x x x x x x x x x x x x x x ",
"x x x x x x x x x x x x x x x x x x x x x x x x x a o     u k # * [ {..XoXoX.XXX_.] & $ z x x x x x x x x x x x x x x x x x x x ",
"x x x x x x x x x x x x x x x x x x x x x x x x x a o     u k # * [ {..XoXoX{._.[ ) & $ z x x x x x x x x x x x x x x x x x x x ",
"x x x x x x x x x x x x x x x x x x x x x x x x x g $ @ @ s k # * ] _. XXXXX_.[ ) < 2 p P c x x x x x x x x x x x x x x x x x x ",
"x x x x x x x x x x x x x x x x x x x x x x x x x z h g g k k # & ) } )._._.[ ) * 2 a L c x x x x x x x x x x x x x x x x x x x ",
"x x x x x x x x x x x x x x x x x x x x x x x x x x x x x x z p 2 < ) _ _ _ ) < 2 p Y L x x x x x x x x x x x x x x x x x x x x ",
"x x x x x x x x x x x x x x x x x x x x x x x x x x x x x x x x a %           o s L L z z x x x x x x x x x x x x x x x x x x x ",
"x x x x x x x x x x x x x x x x x x x x x x x x x x x x x x x x k s u u u u u p h z k z x x x x x x x x x x x x x x x x x x x x ",
"x x x x x x x x x x x x x x x x x x x x x x x x x x x x x x x x x x x x x x x x x x x x x x x x x x x x x x x x x x x x x x x x ",
"x x x x x x x x x x x x x x x x x x x x x x x x x x x x x x x x x x x x x x x x x x x x x x x x x x x x x x x x x x x x x x x x ",
"x x x x x x x x x x x x x x x x x x x x x x x x x x x x x x x x x x x x x x x x x x x x x x x x x x x x x x x x x x x x x x x x "
};
