/* XPM */
static const char *RGVhdGhfMg__[] = {
/* columns rows colors chars-per-pixel */
"64 64 218 2 ",
"   c #1B1B19",
".  c #2E1E19",
"X  c #1E201C",
"o  c #2B2A19",
"O  c #382119",
"+  c #343519",
"@  c #36391B",
"#  c #201D27",
"$  c #1B272B",
"%  c #1E2C2C",
"&  c #192023",
"*  c #1C2D31",
"=  c #1D333A",
"-  c #262824",
";  c #353927",
":  c #2B2A3A",
">  c #312A3D",
",  c #28393B",
"<  c #293529",
"1  c #4D261C",
"2  c #442519",
"3  c #5A381C",
"4  c #502B18",
"5  c #6D2919",
"6  c #67281A",
"7  c #732B19",
"8  c #572C23",
"9  c #48372B",
"0  c #513B2E",
"q  c #5B372A",
"w  c #443B38",
"e  c #492728",
"r  c #662D21",
"t  c #633429",
"y  c #763625",
"u  c #733830",
"i  c #3D401C",
"p  c #364933",
"a  c #404219",
"s  c #4C4D1A",
"d  c #49481A",
"f  c #56581A",
"g  c #575A1B",
"h  c #524B1A",
"j  c #715D1A",
"k  c #69561B",
"l  c #5F611A",
"z  c #62641B",
"x  c #666A1A",
"c  c #6B6F1B",
"v  c #6A6A18",
"b  c #6D721B",
"n  c #72751B",
"m  c #76791F",
"M  c #454825",
"N  c #55542A",
"B  c #5B5B26",
"V  c #435838",
"C  c #4F4C33",
"Z  c #67402F",
"A  c #6A4738",
"S  c #7C4834",
"D  c #675927",
"F  c #59672D",
"G  c #4E6136",
"H  c #536533",
"J  c #666927",
"K  c #796825",
"L  c #777A20",
"P  c #797C21",
"I  c #777620",
"U  c #656632",
"Y  c #6C743E",
"T  c #6E7022",
"R  c #1E3A44",
"E  c #1E3F4C",
"W  c #2E2A44",
"Q  c #342D46",
"!  c #273C44",
"~  c #3B3451",
"^  c #3E3A57",
"/  c #313D49",
"(  c #433D5B",
")  c #4E3A45",
"_  c #603E4A",
"`  c #1F4250",
"'  c #254548",
"]  c #39484C",
"[  c #375548",
"{  c #214655",
"}  c #244C55",
"|  c #2A4854",
" . c #204A59",
".. c #284551",
"X. c #344855",
"o. c #26535C",
"O. c #39545A",
"+. c #275C66",
"@. c #285A65",
"#. c #375F67",
"$. c #2C6A6D",
"%. c #2A6267",
"&. c #316773",
"*. c #2E7173",
"=. c #317A79",
"-. c #317874",
";. c #346F6B",
":. c #376155",
">. c #544746",
",. c #5A5648",
"<. c #49435C",
"1. c #444758",
"2. c #4D4F55",
"3. c #6F514C",
"4. c #406047",
"5. c #666258",
"6. c #796759",
"7. c #4B536B",
"8. c #57596D",
"9. c #525773",
"0. c #4C4C6A",
"q. c #4A6563",
"w. c #5D627B",
"e. c #56746A",
"r. c #6D6B70",
"t. c #695E69",
"y. c #85301E",
"u. c #993D1E",
"i. c #802E1C",
"p. c #873624",
"a. c #9A3724",
"s. c #A63C27",
"d. c #994326",
"f. c #8A533A",
"g. c #8A4A35",
"h. c #B8442C",
"j. c #AB512F",
"k. c #986233",
"l. c #C3462F",
"z. c #C84830",
"x. c #C74830",
"c. c #CC5435",
"v. c #CE5932",
"b. c #CA6C3D",
"n. c #D96936",
"m. c #D1602D",
"M. c #885D49",
"N. c #906657",
"B. c #A36A4A",
"V. c #B1704F",
"C. c #AA7758",
"Z. c #B67553",
"A. c #B56C52",
"S. c #8D6E6C",
"D. c #B26A56",
"F. c #CF6F42",
"G. c #7D8025",
"H. c #33817E",
"J. c #75856B",
"K. c #B6835E",
"L. c #809A7E",
"P. c #B68467",
"I. c #AF8F6B",
"U. c #C5825A",
"Y. c #CE975C",
"T. c #E78F4D",
"R. c #D08860",
"E. c #DB9E74",
"W. c #CB906B",
"Q. c #CFA877",
"!. c #E6AF7E",
"~. c #3B7986",
"^. c #5D6B85",
"/. c #67758A",
"(. c #6A7A91",
"). c #606680",
"_. c #368B84",
"`. c #3A8988",
"'. c #3A908A",
"]. c #459B99",
"[. c #4B8B8D",
"{. c #6D8397",
"}. c #7C889B",
"|. c #71898A",
" X c #4C9DA3",
".X c #7B8EA2",
"XX c #6A9FA3",
"oX c #58AAB2",
"OX c #58B4B8",
"+X c #52A8A9",
"@X c #6CB4B5",
"#X c #5EBBC1",
"$X c #67BAC6",
"%X c #6CCBD6",
"&X c #6BC9D5",
"*X c #78CEDD",
"=X c #7FD3DF",
"-X c #78D8E8",
";X c #74D3E2",
":X c #8C8D8E",
">X c #AE978B",
",X c #8597A9",
"<X c #8DA2B1",
"1X c #96A9B6",
"2X c #99AAB3",
"3X c #C29985",
"4X c #C8AC82",
"5X c #CFB68C",
"6X c #E4B282",
"7X c #F3CA93",
"8X c #F8D098",
"9X c #E4CDB9",
"0X c #93B9C3",
"qX c #A6BCC5",
"wX c #80D4DE",
"eX c #8CC7CA",
"rX c #ADC3CC",
"tX c #F1DDC8",
/* pixels */
"n n n n n n n n n n n n n n n n n n n n n n n n n n n n n n n n n n n n n n n n n n n n n n n n n n n n n n n n n n n n n n n n ",
"n n n n n n n n n n n n n n n n n n n n n n n n n n n n n n n n n n n n n n n n n n n n n n n n n n n n n n n n n n n n n n n n ",
"n n n n n n n n n n n n n n n n n n n n n n n n n n n n n n n n n n n n n n n n n n n n n n n n n n n n n n n n n n n n n n n n ",
"n n n n n n n n n n n n n n n n n n n n n T U U U U U Y Y Y U U U b n n n n n n n n n n n n n n n n n n n n n n n n n n n n n n ",
"n n n n n n n n n n n n n n n n n n n n n U <.<.<.<.8././.w.<.<.2.J n n n n n n n n n n n n n n n n n n n n n n n n n n n n n n ",
"n n n n n n n n n n n n n n n n n n n n N C <.7.^.}.,X<X<X,X,X/.8.,.C C J n n n n n n n n n n n n n n n n n n n n n n n n n n n ",
"n n n n n n n n n n n n n n n n n n n b w Q ^ 9.(.2XrXrXrXrXrX<X(.9.^ Q B v v I m n n n n n n n n n n n n n n n n n n n n n n n ",
"n n n n n n n n n n n n n n n n n n n b w W W ^ w.2XrXrXrXrXrXqX1X(.9.( q 3 3 k L n n n n n n n n n n n n n n n n n n n n n n n ",
"n n n n n n n n n n n n n n n n n n n n N w > ~ 9..X2XrXrXqX<X>X>XS.3.u y 6 e 9 N N N N J n n n n n n n n n n n n n n n n n n n ",
"n n n n n n n n n n n n n n n n n n n n n B > ~ 0.^.,XqXqX1X(.D.m.h.u.u.u.y Q W W W > > U n n n n n n n n n n n n n n n n n n n ",
"n n n n n n n n n n n n n n n n n n n n n B > ~ 0.^.{..X.X:XA.b.n.m.f._ _ 2.9.9.9.( Q > B n n n n n n n n n n n n n n n n n n n ",
"n n n n n n n n n n n n n n n n n n n n K D w ) 2.8.t.r.r.N.n.n.n.A.N.9.w./..X{.^.0.~ > B n n n n n n n n n n n n n n n n n n n ",
"n n n n n n n n n n n n n n n n n n n n f.f.g.f.S t y d.d.j.n.n.F.S./.(.<XqXqX,X^.0.~ > B n n n n n n n n n n n n n n n n n n n ",
"n n n n n n n n n n n n n n n n n n K f.B.V.V.V.B.g.p.u.h.F.3X3X>X<X<X<XqXqX,X/.7.^ w N J n n n n n n n n n n n n n n n n n n n ",
"n n n n n n n n n n n n n n n n n n K f.Z.U.R.K.C.M.S g.j.C.qXrXrXrXqXqX2X,X/.7.~ W C J b n n n n n n n n n n n n n n n n n n n ",
"n n n n n n n n n n n n n n n n n n K f.Z.R.R.6.O.X.X.] ] r.qXrXrXrX1X{.^.9.0.^ W E ..[ F n n n n n n n n n n n n n n n n n n n ",
"n n n n n n n n n n n n n n n n n n K f.Z.R.R.5.@.~.[.[.+.#.{.}.,X,X/.7.^ <.6.) : @.@...F n n n n n n n n n n n n n n n n n n n ",
"n n n n n n n n n n n n n n n n n n K f.V.U.U.5.&.$X-X*X~. . .X.( ( ~ > > >.R.A % -.*.} H b n n n n n n n n n n n n n n n n n n ",
"n n n n n n n n n n n n n n n n n n n K Z 0 0 ] &.$X-X*X~. . ./ Q Q ) A A N.6X3.% -._.-.:.G b n n n n n n n n n n n n n n n n n ",
"n n n n n n n n n n n n n n n n n n n c +     * o.oX%X;X[.@.` 1.3.t.3.t S C.7XI.,.;._._.+.[ b n n n n n n n n n n n n n n n n n ",
"n n n n n n n n n n n n n n n n n n n c +       * =.OX;X X-. .6.W.9X:XX Z C.7X7X4Xq.$._.+.[ b n n n n n n n n n n n n n n n n n ",
"n n n n n n n n n n n n n n n n n n n b ; #     $ o.`.oX].=. .N.E.tX:XX f.W.7X8X5Xq.$._.+.[ b n n n n n n n n n n n n n n n n n ",
"n n n n n n n n n n n n n n n n n n n b C ; o o - R %.'.'.=. .5.P.9X>X9 B.E.7X7X4X7.$._.o.p b n n n n n n n n n n n n n n n n n ",
"n n n n n n n n n n n n n n n n n n n n J z z z f - } '.'.=. ., C P.W.V.U.E.7X!.P.2.$._.' ; b n n n n n n n n n n n n n n n n n ",
"n n n n n n n n n n n n n n n n n n n n n n n n z o ' *.*.*.$., - A B.R.R.W.!.C.3.X.@.$.= + c n n n n n n n n n n n n n n n n n ",
"n n n n n n n n n n n n n n n n n n n n n n n n z o * {  .%._.'     A U.U.U.U.A - ' { ` % @ b n n n n n n n n n n n n n n n n n ",
"n n n n n n n n n n n n n n n n n n n n n n n n b g i * %.H.'.2.4 4 8 0 0 0 0 u u ] R % M l n n n n n n n n n n n n n n n n n n ",
"n n n n n n n n n n n n n n n n n n n n n n n n n n f @ [ $.=.q.A p.6 O O O 1 d.j.1.=   f n n n n n n n n n n n n n n n n n n n ",
"n n n n n n n n n n n n n n n n n n n n n n n n n n n x @ *  .*.e.j.a.5 5 y.h.F.U.2.=   f n n n n n n n n n n n n n n n n n n n ",
"n n n n n n n n n n n n n n n n n n n n n n n n n n n c + $ { *.[.:XC.s.j.b.F.K.J.O.p s x n n n n n n n n n n n n n n n n n n n ",
"n n n n n n n n n n n n n n n n n n n n n n n n n n n c + $ ` *.].%X<XA.W.E.Y.L.'.o.V n n n n n n n n n n n n n n n n n n n n n ",
"n n n n n n n n n n n n n n n n n n n n n n n n n n n c + $ { *.].%X*X0XeX@X[.@XoX' M n n n n n n n n n n n n n n n n n n n n n ",
"n n n n n n n n n n n n n n n n n n n n n n n n n n n b s p  .+.~.oX&X-X-X%XOXOX]., a n n n n m G.m n n n n n n n n n n n n n n ",
"n n n n n n n n n n n n n n n n n n n n n n n n n n n n n F ..{ @.=.+X*X=XwXwXoX;.< a n n n n n P P L n n n P G.m n n n n n n n ",
"n n n n n n n n n n n n n n n n n n n n n n n n n n n n n B - R | >.M.C.Q.Q.4XP.M.D z n n n n n b n L n n m G.m n n n n n n n n ",
"n n n n n n n n n n n n n n n n n n n n n n n n n n n n n f   : w 6 g.B.I.4X4XC.f.K n n n n n n n b x b m L L n n n n n n n n n ",
"n n n n n n n n n n n n n n n n n n n n n n n n n n n n n f   2 5 5 ,.[.$X=X=X[.[ J n n n n n n n n n n m L b b n n n n n n n n ",
"n n n n n n n n n n n n n n n n n n n n n n n n n n n b s ; = ] e.|.XX#X%X-X-X X;.4.F n n n n n n n n n b x b n n n n n n n n n ",
"n n n n n n n n n n n n n n n n n n n n n n n n n n n c + $ { $.'.$X%X%X%X&X$X X-.} V n n n n n n n n n n n n n n n n n n n n n ",
"n n n n n n n n n n n n P m n n n n n n n n n n n n n c + $ { o.%.'.].].].'.&.+.} % M n n n n n n n n n n n n n n n n n n n n n ",
"n n n n n n n n n n n n m L n n n n n n n n n n n n n c + & = E o.$.*.*.*.#.w >.3.t 3 s x n n n n n n n n n n n n n n n n n n n ",
"n n n n n n n n L G.P m b b n n n n n n n n n n n n n c @     , ..| | | ../ 5 s.z.z.y . f b n n n n n n n n n n n n n n n n n n ",
"n n n n n n n n n L P L b x b P G.P n n n n n n n n n n l h 4 8 t g.g.g.u 8 5 s.z.z.h.p.3 d b n n n n n n n n n n n n n n n n n ",
"n n n n n n m P L b n L n b n L P m n n n n n n n n n n n j 7 7 a.h.c.v.y 6 5 a.h.l.x.h.1 + c n n n n n n n n n n n n n n n n n ",
"n n n n n n n m P L b b n m L L n n n n n n n n n n n n n j 7 a.x.x.n.T.q O 5 7 y.h.z.h.1 + c n n n n n n n n n n n n n n n n n ",
"n n n n n n n b b L n b x b m b b n n n n n n n n n n n n j 7 s.z.F.T.T.,., w 8 7 p.p.r h f n n n n n n n n n n n n n n n n n n ",
"n n n n n n n n b b n n b c c b n n n n n n n n n n n n x k 5 s.v.T.T.T.5. . .w r 6 2 o g n n n n n n n n n n n n n n n n n n n ",
"n n n n n n n n n b b m L n n n n n n n n n n n n n n b a 2 5 s.v.T.T.T.5. . ...! - 9 z b n n n n n n n n n n n n n n n n n n n ",
"n n n n n n n n n n n m b b n n n n n n n n n n n n n c + 2 p.h.c.F.b.j.C R {  .` = ; s x n n n n n n n n n n n n n n n n n n n ",
"n n n n n n n n n n n b b n n n n n n n n n n n n n b x + 8 h.z.z.z.s.6 O % ` {  . .=   f n n n n n n n n n n n n n n n n n n n ",
"n n n n n n n n n n n n n n n n n n n n n n n n n n f + 1 y l.z.z.z.p.O d M % R  . .=   f n n n n n n n n n n n n n n n n n n n ",
"n n n n n n n n n n n n n n n n n n n n n n n n n n s   9 S s.s.s.s.r   f l @ < R R *   f n n n n n n n n n n n n n n n n n n n ",
"n n n n n n n n n n n n n n n n n n n n n n n n n n s   %.q.y 7 7 7 1   f n b i         f n n n n n n n n n n n n n n n n n n n ",
"n n n n n n n n n n n n n n n n n n n n n n n n n n N R *.[.|.|.r.9 2 s x n n g s s s s x n n n n n n n n n n n n n n n n n n n ",
"n n n n n n n n n n n n n n n n n n n n n n n n n n G  .=.+X;X-X$X, a n n n n n n n n n n n n n n n n n n n n n n n n n n n n n ",
"n n n n n n n n n n n n n n n n n n n n n n n n n n G  .=.+X;X-X$X, a n L G.m n n n n n n n n n n n n n n n n n n n n n n n n n ",
"n n n n n n n n n n n n n n n n n n n n n n n n n n N = +.`.OX%X$X, a n n P P L n n n P G.m n n n n n n n n n n n n n n n n n n ",
"n n n n n n n n n n n n n n n n n n n n n n n n n n s X R +._.OX@X! a n n b n L n n m G.m n n n n n n n n n n n n n n n n n n n ",
"n n n n n n n n n n n n n n n n n n n n n n n n n n x f < ' _.].].} V n n n b x b m L L n n n n n n n n n n n n n n n n n n n n ",
"n n n n n n n n n n n n n n n n n n n n n n n n n n n b d p -.=.*.o.V n n n n n n m L b b n n n n n n n n n n n n n n n n n n n ",
"n n n n n n n n n n n n n n n n n n n n n n n n n n n n b H }  . . .V n n n n n n b x b n n n n n n n n n n n n n n n n n n n n ",
"n n n n n n n n n n n n n n n n n n n n n n n n n n n n n J H G G G F n n n n n n n n n n n n n n n n n n n n n n n n n n n n n ",
"n n n n n n n n n n n n n n n n n n n n n n n n n n n n n n n n n n n n n n n n n n n n n n n n n n n n n n n n n n n n n n n n ",
"n n n n n n n n n n n n n n n n n n n n n n n n n n n n n n n n n n n n n n n n n n n n n n n n n n n n n n n n n n n n n n n n "
};
