/* XPM */
static const char *RV9BdGsyX1I_[] = {
/* columns rows colors chars-per-pixel */
"64 64 225 2 ",
"   c #2D3D1A",
".  c #263415",
"X  c #373D1C",
"o  c #3D2116",
"O  c #29292D",
"+  c #392E2D",
"@  c #363639",
"#  c #2E2E33",
"$  c #4C2414",
"%  c #592A18",
"&  c #542A1A",
"*  c #4A3B1C",
"=  c #6A331E",
"-  c #64341E",
";  c #493629",
":  c #443A38",
">  c #553227",
",  c #6C3521",
"<  c #673928",
"1  c #743B25",
"2  c #753E2A",
"3  c #7A3F28",
"4  c #783E27",
"5  c #6B3F30",
"6  c #2F401A",
"7  c #32421C",
"8  c #374A1B",
"9  c #3A501F",
"0  c #3B4523",
"q  c #3B4D22",
"w  c #394727",
"e  c #3D5321",
"r  c #394135",
"t  c #4B4D12",
"y  c #4E5113",
"u  c #465C1E",
"i  c #535514",
"p  c #565914",
"a  c #5B5D16",
"s  c #595B17",
"d  c #55431F",
"f  c #5E6116",
"g  c #566916",
"h  c #5A731E",
"j  c #616417",
"k  c #646618",
"l  c #666918",
"z  c #6A6D19",
"x  c #666C17",
"c  c #6E711A",
"v  c #72751B",
"b  c #76791F",
"n  c #474A28",
"m  c #594123",
"M  c #415424",
"N  c #475928",
"B  c #5E5823",
"V  c #444F33",
"C  c #57423E",
"Z  c #4A5736",
"A  c #565833",
"S  c #7D422C",
"D  c #78492E",
"F  c #635C23",
"G  c #675D2B",
"H  c #6A4234",
"J  c #734332",
"K  c #7A4836",
"L  c #635D3C",
"P  c #7A583A",
"I  c #4C642B",
"U  c #4E6B2A",
"Y  c #476226",
"T  c #53692C",
"R  c #57752B",
"E  c #5B6836",
"W  c #5B7532",
"Q  c #6C6627",
"!  c #736A2B",
"~  c #777A20",
"^  c #797C22",
"/  c #7B7E2A",
"(  c #777426",
")  c #69663A",
"_  c #736435",
"`  c #77693A",
"'  c #65773A",
"]  c #72762E",
"[  c #3C3D44",
"{  c #483F41",
"}  c #3F4147",
"|  c #42424A",
" . c #4B474C",
".. c #544544",
"X. c #514C51",
"o. c #575659",
"O. c #535051",
"+. c #6D574D",
"@. c #5E6A52",
"#. c #6E6343",
"$. c #7A6949",
"%. c #6D7240",
"&. c #757943",
"*. c #6F6E51",
"=. c #5E5D61",
"-. c #7A7676",
";. c #746667",
":. c #83452E",
">. c #834934",
",. c #884931",
"<. c #874F3A",
"1. c #8C523D",
"2. c #827B2D",
"3. c #836D3E",
"4. c #847C31",
"5. c #897E35",
"6. c #8C7D3C",
"7. c #847737",
"8. c #907F3D",
"9. c #975E48",
"0. c #8D5744",
"q. c #846D4D",
"w. c #8B6346",
"e. c #99674B",
"r. c #88774B",
"t. c #95794D",
"y. c #8A6754",
"u. c #9D6651",
"i. c #8D7D52",
"p. c #897454",
"a. c #9C7D56",
"s. c #987957",
"d. c #A1634C",
"f. c #A56A54",
"g. c #A9765A",
"h. c #B0795F",
"j. c #876C66",
"k. c #98766A",
"l. c #887770",
"z. c #A77A66",
"x. c #B47A64",
"c. c #A67F73",
"v. c #7E8125",
"b. c #7E802E",
"n. c #7C9820",
"m. c #6A8525",
"M. c #798762",
"N. c #97AD11",
"B. c #8E803A",
"V. c #878236",
"C. c #D7EB05",
"Z. c #C6DB09",
"A. c #8E8143",
"S. c #9B854B",
"D. c #978549",
"F. c #8F8356",
"G. c #938455",
"H. c #9B8454",
"J. c #988359",
"K. c #989A58",
"L. c #A28354",
"P. c #A58A54",
"I. c #A4845B",
"U. c #AA8B5B",
"Y. c #A8895C",
"T. c #A48A56",
"R. c #9F8C64",
"E. c #94946F",
"W. c #A78965",
"Q. c #B48D66",
"!. c #B6896D",
"~. c #AD9466",
"^. c #B6946C",
"/. c #A98879",
"(. c #B88B72",
"). c #AC9777",
"_. c #BA9D74",
"`. c #B99678",
"'. c #9EA17D",
"]. c #A9A972",
"[. c #BBA17C",
"{. c #C39577",
"}. c #C88D78",
"|. c #868584",
" X c #959599",
".X c #B99986",
"XX c #B89C93",
"oX c #B9A283",
"OX c #B4B287",
"+X c #AAAB8C",
"@X c #B2AFAF",
"#X c #B8B6B6",
"$X c #B4ADAA",
"%X c #C69B84",
"&X c #C5A389",
"*X c #C7AA93",
"=X c #D3B09A",
"-X c #CCBAA8",
";X c #D7B8A6",
":X c #CFB7AF",
">X c #D1C2B8",
",X c #E3C7BA",
"<X c #E5C9BC",
"1X c #E2C4B7",
"2X c #CBCBCC",
"3X c #C6C3C2",
"4X c #DBCCC7",
"5X c #D8D7D8",
"6X c #EACDC3",
"7X c #EDD4CC",
"8X c #EAD1C9",
"9X c #EFD9D1",
"0X c #E9D7D1",
"qX c #F0DCD5",
"wX c #F2DFD9",
"eX c #F2E1DA",
"rX c #E8E6E6",
"tX c #F8EEEA",
"yX c #F5E9E5",
"uX c #F8F0ED",
"iX c #F4F4F4",
"pX c #FBF5F3",
"aX c #FCF8F7",
"sX c #FFFFFF",
"dX c #F7F7F8",
/* pixels */
"v v v v v v v v v v v v v v v v v v v v v v v v v v v v v v v v v v v v v v v v v v v v v v v v v v v v v v v v v v v v v v v v ",
"v v v v v v v v v v v v v v v v v v v v v v v v v v v v v v v v v v v v v v v v v v v v v v v v v v v v v v v v v v v v v v v v ",
"v v v v v v v v v v v v v v v v v v v v v v v v v v v v v v v v v v v v v v v v v v v v v v v v v v v v v v v v v v v v v v v v ",
"v v v v v v v v v v v v v v v v v v v v v v v v v v v v v v v v v v v v v v v v v v v v v v v v v v v v v v v v v v v v v v v v ",
"v v v v v v v v v v v v v v v v v v v v v v v v v v v v v v v v v v v v v v v v v v v v v v v v v v v v v v v v v v v v v v v v ",
"v v v v v v v v v v v v v v v v v v v v v v v v v v v v v v v v v v v v v v v v v v v v v v v v v v v v v v v v v v v v v v v v ",
"v v v v v v v v v v v v v v v v v v v v v v v v v v v v v v v v v v v v v v v ^ b v v v v v v v v v v v v v v v v v v v v v v v ",
"v v v v v v / b.b.b.V.~.&X&X~.4.v v v v v v v v v v v v v v v v v v v v v v v b ~ v v v v v v v v v v v v v v v v v v v v v v v ",
"v v v v v P.;X6X6X6X6X6X0X4X:XoXS.v v v v v v v v v v v v v v v v v v ~ v.^ b c c v v v v v v v v v v v v v v v v v v v v v v v ",
"v v v 2.U.;XtXsXsXsXsXsXsXiX5X:X&XP.^ v v v v v v v v v v v v v v v v v ~ ^ ~ c x c ^ v.^ v v v v v v v v v v v v v v v v v v v ",
"v v S.;X7XpXsXsXsXsXsXsXsXsXrX3X$X:XoXS.v v v v v v v v v v v v v b ^ ~ c v ~ v c v ~ ^ b v v v v v v v v v v v v v v v v v v v ",
"v z &XeXaXsXsXsXsXsXsXsXsXsXaXrX@X#X4X*XS.v v v v v v v v v v v v v b ^ ~ c ] a.4.~ ~ v v v v v v v v v v v v v v v v v v v v v ",
"l H.;XtXsXsXsXsXsXsXsXsXsXsXsXiX2X@X3X>X*X&XS.v v v v v v v v v v v c v ~ v p.;.p./.L.c v v v v v v v v v v v v v v v v v v v v ",
"a &XuXsXsXsXsXsXsXsXsXsXsXsXsXsXiX5X$X#X#X+XR.W.P.v v v v 2.t.W.S.^ v z c v s.+.[  .{.v v v v v v v v v v v v v v v v v v v v v ",
"i &XuXsXsXsXsXsXsXsXsXsXsXsXsXsXsXdX2X$X|.V Y T ^.U.v v v U.#.M F.D.`.W.5.z B.s.@ | (.D.v v B.U.B.v v v v v v v v v v v v v v v ",
"t &XuXsXsXsXsXsXsXsXsXsXsXsXsXsXsXsXsXuX$XV   6 ' _.P.c v 2.` n e Y T &.G.H.4./.r @ O.a.A.v Q.&.Y.v v v v v v v v v v v v v v v ",
"t (.eXaXsXsXsXsXsXsXsXsXsXsXsXsXsXsXaX9X).#.A A E.+X&XA.l c t.q.0 6 e T W r.r.G.I r Z %.G.A.H.' W.v v v v v v v v v v v v v v v ",
"t ` *XwXaXsXsXsXsXsXsXsXsXsXsXsXsXsX9X_.` a.I.W.'.'.OX[.`.t.l t.$.0 7 e U I E E R I U W &.i.&.M !.v v v v v v v v v v v v v v v ",
"t t _ oXeXsXsXsXsXsXsXsXsXsXsXsXsXuX%XQ p j z D.^.).'.+XOX^.p Q t.p.n   8 Y N u n.n.U R m.T N 8 (.v v v v v v v v v v v v v v v ",
"t t t W.8XaXsXsXsXsXsXsXsXsXsXsXsXtX(.i i p j z 2.U.*.M.E.W.I.` i t.$.0   e e g Z.Z.u h N.h q n !.v v v v v v v v v v v v v v v ",
"i t t G ).yXaXsXsXsXsXsXsXsXsXsXsXtX{.j a p p f l Q.L Z E ' &.F.s.B q.$.7 7 7 g C.C.9 g N.g 8 q.S.v v v v v v v v v v v v v v v ",
"p y t t ` (.%X7XsXsXsXsXsXsXsXsXsXtX{.z l a i i a 7.Q.!.#.6 N R R.(.3.t.s.7 .   9 R Y 8 6   0 a.v v v v v v v v v v v v v v v v ",
"f i t t t t s.7XsXsXsXsXsXsXsXsXsXtX{.2.c k p y i a l ( H.!.) N ' ' G.t.z.  . .   8 U U Y N p.S.v v v v v v v v v v v v v v v v ",
"l f p i t t F W.qXaXsXsXsXsXsXsXsXaX7X[.2.z j p i i p j z 5.J.q.I U ' G.` 0 Z @..   9 I T P g.6.v v v v v v v v v v v v v v v v ",
"c z j p y t t G .XqXpXaXsXsXsXsXsXsXpX8X^.c z j a p i p f l ( r.#.N I ' r.L V Z   . 6 e N D 9.g.6.v v v v v v v v v v v v v v v ",
"v v z j i t t t G .X,XeXaXsXsXsXsXsXsXyX*X5.v c z j a i p a j 7.p.q.) I ' ' M w @.. 7 7 8 m S d.U.D.v v v v v v v v v v v v v v ",
"v v c l a i t t t t _ `.8XsXsXsXsXsXsXaXqX_.v v v c l a i i p a a ` s.$.q N N q Z . M.w . X D ,.&.Y.v v v v v v v v v v v v v v ",
"v v v c l a i y t t t B W.eXaXsXsXsXsXsXaX<XU.v v v c l a i i i i i F q.$.n d *   @ @.w   m S ,.n W.5.v v v v v v v v v v v v v ",
"v v v v c l j p i t t t _ *X<XqXsXsXsXsXsXtX,X_.5.v v c l j a i i y t B q.P < - ; } : ; m S >.,.X L r.Y.B.v v v v v v v v v v v ",
"v v v v v c z l a i t t t t _ `.9XsXsXsXsXsXaXqXQ.v v v c z l a i y t t _ w.2 = < @ > 2 :.,.,.,.y.n M %.H.B.v v v v v v v v v v ",
"v v v v v v v c l a i y t t t G `.7XeXaXsXsXsXaX<X^.4.v v v c l a i t t t u.S = < ; , 3 S :.,.,.}.p.n e %.Y.P.P.^ v v v v v v v ",
"v v v v v v v v c l f p i t t t F a.`.,X7XpXsXsXsX9X;X[.2.v v c l p y t t e.9.1 = = = = = 1 S u.U.S.p.A q &.F.F.A.B.v v v v v v ",
"v v v v v v v v v c z l a i t t t t i ! ^.9XaXsXsXsXpX8X_.2.v v z f i t t F w.H % % % % % % < z.5.v 6.p.#.A N N %.G.D.2.v v v v ",
"v v v v v v v v v v v c l f p i y t t i ! [.7XyXsXsXsXpX7X&X_.5.c j p y G s.j...o $ $ $ $ $ & g.k z c 4.U.$.N q M I i.U.v v v v ",
"v v v v v v v v v v v v c z l j p i t t i ! W.{.8X8XpXsXaXaXqX>X_.( a i s.;.X.[ + 1 1 4 S < H z.F s k k l L.F.T A L $.U.v v v v ",
"v v v v v v v v v v v v v v c z l a i y t y i Q ~.^.7XpXsXsXaXpX7X*X~.F c.X.| @ + 5 :.:.:.< C j.s.i y i s H.i.E q.i.$.2.v v v v ",
"v v v v v v v v v v v v v v v v c l f p i y y i a ! [.8XyXaXsXsXpXtX6XW./. .[ # O + J >.:.< { X.k.a.i y i Q ` $.6.c c v v v v v ",
"v v v v v v v v v v v v v v v v v c z l j p i y i p Q L.{.7XyXpXsXsXsXwX/.=.[ # O O + 5 S 2 C | | k.a.i y i f z v v v v v v v v ",
"v v v v v v v v v v v v v v v v v v v c z l a i y y y i Q I.(.,XsXsXsXsXsX@Xo.@ O O O : J ,.>...| | c.a f j z c v v v v v v v v ",
"v v v v v v v v v v v v ^ b v v v v v v v c l j p i y y i p f I.<XyXpXsXsXdXiX2X=.o...y.0.S J : | | c.l z z c v v v v v v v v v ",
"v v v v v v v v v v v v b ~ v v v v v v v v c z l j p i y y i p i.%X,XrXrXsXsXiX5X5X-./.y.H ; # [ | k.6.c v v v v v v v v v v v ",
"v v v v v v v v ~ v.^ b c c v v v v v v v v v v c z l f i y t y y t W.XX X5XrXdXsXsX5X4XXX+.@ O [ | =.p.D.v v v v v v v v v v v ",
"v v v v v v v v v ~ ^ ~ c x c ^ v.^ v v v v v v v v v z j p i t t t B $.X.o.|.3X5XsXsXaXtX>X-.O.@ [ | o.j.^ v v v v v v v v v v ",
"v v v v v v b ^ ~ c v ~ v c v ~ ^ b v v v v v v v v v c z l a i t t t k. .@ { o.-.pXpXaXsXiX5X2Xo.} |  .j.P.v v v v v v v v v v ",
"v v v v v v v b ^ ~ c c v b ~ ~ v v v v v v v v v v v v v c l a y t t z.K 5 > ;  .;X;X1XtXsXsXsX2X;.|  .j.P.v v v v v v v v v v ",
"v v v v v v v c c ~ v c x c b c c v v v v v v v v v v v v v z f i t t x.,.3 , = K (.t q.%X=X;XyXsXrX2X|.+.x.v v v v v v v v v v ",
"v v v v v v v v c c v v c z z c v v v v v v v v v v v v v v z f i t t x.,.3 = = >.(.t t t t ` &Xl.2XdX5X>X=XS.v v v v v v v v v ",
"v v v v v v v v v c c b ~ v v v v v v v v v v v v v v v v v z f i t t t.g.S = = >.(.i y t t t r.k.*X.X:XrX0X=X_.~.V.v v v v v v ",
"v v v v v v v v v v v b c c v v v v v v v v v v v v v v v v z f i t t t !.:., , <.!.f p y t t t p Q.9.y./..X=X,X6X*XV./ / ^ v v ",
"v v v v v v v v v v v c c v v v v v v v v v v v v v v v v v c j p t t _ g.:., 2 f.8.z j a i y t i W.0.= = S z.;X6X6X-XOXOXK.b.v ",
"v v v v v v v v v v v v v v v v v v v v v v v v v v v v v v c l a i t g.u.S , >.^.v v z l a i t y ! e.<.= 1 S f.U.~.].].].K./ v ",
"v v v v v v v v v v v v v v v v v v v v v v v v v v v v v v v c j i t x.>.1 = >.^.v v v v l a y t y t.9.= = 1 1.h.( ~ ~ ~ b v v ",
"v v v v v v v v v v v v v v v v v v v v v v v v v v v v v v v z f i _ e.:., S u.P.v v v v z f i t t F w.>.= , 4 g.L.c v v v v v ",
"v v v v v v v v v v v v v v v v v v v v v v v v v v v v v v c l ! s.h.d.:.>.u.L.^ v v v v c j p t t y 3.e.= = 1 9.g.6.v v v v v ",
"v v v v v v v v v v v v v v v v v v v v v v v v v v v v v v c j s.f.,.:.3 e.L.v v v v v v v l a i t t p e.1.S 1 S 9.Q.v v v v v ",
"v v v v v v v v v v v v v v v v v v v v v v v v v v v v v c l a e.f.f.f.e.t.2.v v v v v v v z j p t t i 7.Q.g.u.9.w.B.v v v v v ",
"v v v v v v v v v v v v v v v v v v v v v v v v v v v v c l f i F a.L.I.U.V.^ ~ v v v ^ v.b c l a i t y p k ( P.U.2.v v v v v v ",
"v v v v v v v v v v v v v v v v v v v v v v v v v v v v z j p i i a l c v c v ~ v v b v.b v v c l f p i p j z v v v v v v v v v ",
"v v v v v v v v v v v v v v v v v v v v v v v v v v v v z l f a j l z v v v c x c b ~ ~ v v v v c l j f f l c v v v v v v v v v ",
"v v v v v v v v v v v v v v v v v v v v v v v v v v v v c z z z z c v v v v v v v b ~ c c v v v v v c z z c v v v v v v v v v v ",
"v v v v v v v v v v v v v v v v v v v v v v v v v v v v v v v v v v v v v v v v v c x c v v v v v v v v v v v v v v v v v v v v ",
"v v v v v v v v v v v v v v v v v v v v v v v v v v v v v v v v v v v v v v v v v v v v v v v v v v v v v v v v v v v v v v v v ",
"v v v v v v v v v v v v v v v v v v v v v v v v v v v v v v v v v v v v v v v v v v v v v v v v v v v v v v v v v v v v v v v v ",
"v v v v v v v v v v v v v v v v v v v v v v v v v v v v v v v v v v v v v v v v v v v v v v v v v v v v v v v v v v v v v v v v "
};
