/* XPM */
static const char *RV9BdGsxX1I_[] = {
/* columns rows colors chars-per-pixel */
"64 64 214 2 ",
"   c #3F1C0E",
".  c #212E11",
"X  c #253314",
"o  c #2A3917",
"O  c #2C3B19",
"+  c #2B3619",
"@  c #323D1C",
"#  c #3A3D1C",
"$  c #3C200F",
"%  c #28292D",
"&  c #352C2B",
"*  c #382B29",
"=  c #38362A",
"-  c #2C2D31",
";  c #302E31",
":  c #2F3035",
">  c #34353B",
",  c #37383E",
"<  c #393C36",
"1  c #2E362A",
"2  c #4C2313",
"3  c #512615",
"4  c #512C1F",
"5  c #49371B",
"6  c #65331F",
"7  c #6A331E",
"8  c #4A2E25",
"9  c #452D26",
"0  c #49312B",
"q  c #5B3726",
"w  c #443B3B",
"e  c #433838",
"r  c #583C34",
"t  c #653321",
"y  c #6D3521",
"u  c #673C26",
"i  c #733A24",
"p  c #753C27",
"a  c #623F33",
"s  c #2F401A",
"d  c #32431C",
"f  c #354A1D",
"g  c #394D1E",
"h  c #374716",
"j  c #354223",
"k  c #3D4A29",
"l  c #3D5321",
"z  c #3B403C",
"x  c #4B4D12",
"c  c #48421B",
"v  c #4E5113",
"b  c #455818",
"n  c #525414",
"m  c #575914",
"M  c #5A5C15",
"N  c #57541C",
"B  c #5E6116",
"V  c #5A6416",
"C  c #616417",
"Z  c #666C17",
"A  c #646718",
"S  c #666918",
"D  c #6A6D19",
"F  c #6E711A",
"G  c #72751B",
"H  c #76791F",
"J  c #454B2A",
"K  c #4B4E2D",
"L  c #584426",
"P  c #425B24",
"I  c #46562A",
"U  c #5E5823",
"Y  c #48453A",
"T  c #475736",
"R  c #555738",
"E  c #7D412B",
"W  c #72472C",
"Q  c #695F2B",
"!  c #625B24",
"~  c #6C4131",
"^  c #7D4732",
"/  c #6C5A3D",
"(  c #4C662B",
")  c #4E6D2A",
"_  c #476226",
"`  c #506E2D",
"'  c #53722C",
"]  c #58742F",
"[  c #596A35",
"{  c #5A7632",
"}  c #696423",
"|  c #777A20",
" . c #797C22",
".. c #767523",
"X. c #6E6131",
"o. c #66603E",
"O. c #796738",
"+. c #647739",
"@. c #7D7230",
"#. c #697525",
"$. c #3C3D45",
"%. c #423F46",
"&. c #3F4048",
"*. c #41424A",
"=. c #474645",
"-. c #4A5541",
";. c #5D5355",
":. c #524849",
">. c #685B45",
",. c #675959",
"<. c #735E59",
"1. c #596649",
"2. c #696444",
"3. c #7D684D",
"4. c #737D42",
"5. c #797F47",
"6. c #776257",
"7. c #7B7257",
"8. c #667356",
"9. c #796462",
"0. c #7A7B73",
"q. c #756F66",
"w. c #83452E",
"e. c #884932",
"r. c #864B35",
"t. c #8F513A",
"y. c #91533B",
"u. c #837C2D",
"i. c #847C31",
"p. c #897D34",
"a. c #87773B",
"s. c #855543",
"d. c #925A45",
"f. c #876A45",
"g. c #9D624C",
"h. c #956A4B",
"j. c #8B7549",
"k. c #95794A",
"l. c #896C5C",
"z. c #826756",
"x. c #9E6853",
"c. c #8C7357",
"v. c #947B52",
"b. c #9C7A5C",
"n. c #977856",
"m. c #A2644E",
"M. c #A76C56",
"N. c #A5745A",
"B. c #AC735C",
"V. c #A47A59",
"C. c #B0735D",
"Z. c #947565",
"A. c #8F6E60",
"S. c #A37E69",
"D. c #B47A65",
"F. c #B37964",
"G. c #A67F71",
"H. c #7A8C0E",
"J. c #7A941D",
"K. c #7E8125",
"L. c #6C8A25",
"P. c #6A8448",
"I. c #7D885F",
"U. c #778665",
"Y. c #849B14",
"T. c #92AB17",
"R. c #90813D",
"E. c #8E803A",
"W. c #B3C507",
"Q. c #CCDF05",
"!. c #D1E504",
"~. c #ECFF00",
"^. c #948143",
"/. c #9C814A",
"(. c #988447",
"). c #9E8453",
"_. c #958558",
"`. c #878351",
"'. c #A58953",
"]. c #A58B5C",
"[. c #A78659",
"{. c #94936A",
"}. c #969972",
"|. c #84926C",
" X c #AC846B",
".X c #AD8C6B",
"XX c #A78664",
"oX c #BB836B",
"OX c #B38B6B",
"+X c #B48A67",
"@X c #B59065",
"#X c #B9916A",
"$X c #B48A71",
"%X c #B89476",
"&X c #AE8474",
"*X c #9BA67A",
"=X c #C29879",
"-X c #C19777",
";X c #91938B",
":X c #A09D9D",
">X c #B4968D",
",X c #AAAB94",
"<X c #ABADA5",
"1X c #B1AFAF",
"2X c #B1A5A1",
"3X c #B1B5AB",
"4X c #99AA85",
"5X c #CAA795",
"6X c #D5AEA0",
"7X c #CDB7AE",
"8X c #BAC19B",
"9X c #C4C7BF",
"0X c #D4C8C4",
"qX c gray82",
/* pixels */
"G G G G G G G G G G G G G G G G G G G G G G G G G G G G G G G G G G G G G G G G G G G G G G G G G G G G G G G G G G G G G G G G ",
"G G G G G G G G G G G G G G G G G G G G G G G G G G G G G G G G G G G G G G G G G G G G G G G G G G G G G G G G G G G G G G G G ",
"G G G G G G G G G G G G G G G G G G G G G G G G G G G G G G G G G G G G G G G G G G G G G G G G G G G G G G G G G G G G G G G G ",
"G G G G G G G G G G G G G G G G G G G G G G G G G G G G G G G G G G G G G G G G G G G G G G G G G G G G G G G G G G G G G G G G ",
"G G G G G G G G G G G G G G G G G G G G G G G G G G G G G G G G G G G G G G G G G G G G G G G G G G G G G G G G G G G G G G G G ",
"G G G G G G G G G G G G G G G G G G G G G G G G G G G G G G G G G G G G G G G G G G G G G G G G G G G G G G G G G G G G G G G G ",
"G G G G G G G G G G G G G G G G G G G G G G G G G G G G G G G G G G G G G G G  .H G G G G G G G G G G G G G G G G G G G G G G G ",
"G G G G G G G G G G G G G G G G G G G G G G G G G G G G G G G G G G G G G G G H | G G G G G G G G G G G G G G G G G G G G G G G ",
"G G G G G G G G G G G G G G G G G G G G G G G G G G G G G G G G G G G ^.OX(.H F F G G G G G G G G G G G G G G G G G G G G G G G ",
"G G G G G G G G G G G G G G G G G G G G G G G G G G G G G G G G G G G Z.9.OX@Xi.Z F  .K. .G G G G G G G G G G G G G G G G G G G ",
"G G G G G G G G G G G G G G G G G G G G G G G G G G G G G G G G G G  .Z.*.<.9.z.p.G |  .H G G G G G G G G G G G G G G G G G G G ",
"G G G G G G G G G G G G G G G G G G G G G G G  .k.XX.X'.G G G D D F H b.,.%.&.<.#X| | G G G G G G G G G G G G G G G G G G G G G ",
"G G G G G G G G G G G G G G G G G G G G G G G '.3.f ) XX#X#X#Xa.C A S a.XX=.$.,.+X^.F F G G R.@XR.G G G G G G G G G G G G G G G ",
"G G G G G G G G G G G G G G G G G G G G G F F '.3.O f [ 4.4.4._.a.m B C &X=.> %.,.XXi.G G G ).5.].i.G G G G G G G G G G G G G G ",
"G G G G G G G G G G G G G G G G G G G F D C A ..j.>.O g P P ` 5.j._.v.B OXR < > $.7._.p.G G .X{ ,X%X .G G G G G G G G G G G G G ",
"G G G G G G G G G G G G G G G G G G G F C m m B @.v.R d O s _ ) ' ' _..XXX+.T < < ( `.).^.)._.` <X7X'.G G G G G G G G G G G G G ",
"G G G G G G G G G G G G G G G G G G G D C n v n m a. XR O O O P ' ' J I { ' ' ` ` ' ] 4.+X`.( j 0.>X'. .G G G G G G G G G G G G ",
"G G G G G G G G G G G G G G G G G G G F S M n x x x O.c.2.O O d P ' _ P l ) ' ' ' ' ' ] o.[ _ @ 0.2X7X].G G G G G G G G G G G G ",
"G G G G G G G G G G G G G G G G G G G G F S M n x x x Q f.o.d O d P ) P h J.T.J.P ) L.J.b P l @ 0.1X0X=XG G G G G G G G G G G G ",
"G G G G G G G G G G G G G G G G G G G G G F S M n x x x X.b.R @ O O P P b !.~.W.O _ T.!.#.g O k 0.1X0X=XG G G G G G G G G G G G ",
"G G G G G G G G G G G G G G G G G G G G G G F S M n x x x O.b.>.O O d d b !.~.W.O d Y.Q.b O 1.3X;X1X0X=XG G G G G G G G G G G G ",
"G G G G G G G G G G G G G G G G G G G G G G G F S M n x x x Q f.2.O O O h H.T.Y.l d V H.h O 8.qX:X1X0X=XG G G G G G G G G G G G ",
"G G G G G G G G G G G G G G G G G G G G G G G G F S M n x x N h.n.O O O O O l ) ' l f d O J 0.qX:X1X0X=XG G G G G G G G G G G G ",
"G G G G G G G G G G G G G G G G G G G G G G G G G F S M n U v.B.W O . X O O O g ' ' ' ( s c.5XqX:X1X0X=XG G G G G G G G G G G G ",
"G G G G G G G G G G G G G G G G G G G G G G G G G G D A m n.M.r.t O . R |.j X s g ) ' +.c.j.6XqX:X1X0X=XG G G G G G G G G G G G ",
"G G G G G G G G G G G G G G G G G G G G G G G G G G F S n.F.y.u 5 O X T U.+ X O O l ( +.+Xx 6XqX:X1X0X=XG G G G G G G G G G G G ",
"G G G G G G G G G G G G G G G G G G G G G G G G G F S B D.e.e.L O O O X . + O O O O l +.+Xx 5X9X:X<X7X-XG G G G G G G G G G G G ",
"G G G G G G G G G G G G G G G G G G G G G G G G F S B n D.e.e.L O O O O k 4X1.X O O O K  XX._.P.3X;X2.#XG G G G G G G G G G G G ",
"G G G G G G G G G G G G G G G G G G G G G G G G D B n x D.e.e.W L L # O j 8.J k |.k X J  Xv.5.' 7.l.j.^.G G G G G G G G G G G G ",
"G G G G G G G G G G G G G G G G G G G G G G G F C m x x D.e.e.e.e.e.q @ O O + -.,XT X K %X{.P.' c / j.XX).G G G G G G G G G G G ",
"G G G G G G G G G G G G G G G G G G G G G G G F C n x x D.e.e.e.e.e.i 5 O O < *.*.1 O I ,X8X*X' ' P O O b.G G G G G G G G G G G ",
"G G G G G G G G G G G G G G G G G G G G G G G F C n x x D.e.e.e.e.e.w.L O O < $.> I l k }.*XI.g g d J n.).G G G G G G G G G G G ",
"G G G G G G G G G G G G G G G G G G G G G G G F C n x x D.e.e.e.w.E E u 5 5 < , 1 l g k |.}.I.[ j O K OXG G G G G G G G G G G G ",
"G G G G G G G G G G G G G G G G G G G G G G G F C n x x F.^ ^ w.E 7 7 7 7 7 0 = @ k J R {.}.}.}.K + K OXG G  .K.H G G G G G G G ",
"G G G G G G G G G G G G G G G G G G G G G G G F C n x O.l.=.=.r y 7 7 7 7 7 t t 6 N. X X%X%X%X$Xq $ q +XG H K.H G G G G G G G G ",
"G G G G G G G G G G G G G G G G G G G G G G G F C n O.l.,.*.*.e 9 3 3 3 3 3 3 4 r <.l.X.x x m +Xu   q +XH | | G G G G G G G G G ",
"G G G G G G G G G G G G G G G G G G G G G G G F C v.G.,.*.*.*.> & 2 2 2 2 2 2 8 *.*.6._..Xv.m b.s.~ s.'.H | F F G G G G G G G G ",
"G G G G G G G G G G G G G G G G G G G G G G G D j.Z.=.*.*.*.*.> * 7 7 7 7 7 7 q *.*.T ' ' XX+X+X'.@X[.u.F Z F G G G G G G G G G ",
"G G G G G G G G G G G G G G G G G G G G G G D a.l.;.*.*.$.: : - * E w.w.E y 7 q *.*.=.-.-.2.5.5.].G G G G G G G G G G G G G G G ",
"G G G G G G G G G G G G  .H G G G G G G G D j.Z.,.*.*.*., % % % & r ^ e.w.y q 0 > $.*.*.*.-.T I .XG G G G G G G G G G G G G G G ",
"G G G G G G G G G G G G H | G G G G G G D k. X;.*.*.$.$.> % % % % % ~ e.w.y 9 % % , &.*.*.*.z j  XG G G G G G G G G G G G G G G ",
"G G G G G G G G | K. .H F F G G G G G D a.A.:.*.*.$.- - % % % % % % ~ e.w.y 9 % % % > *.*.*.*.*.&XE.G G G G G G G G G G G G G G ",
"G G G G G G G G G |  .| F Z F  .K.| D @.z.,.*.> > : % % % % % % w z.s.e.w.y 9 % % % - > &.*.*.*.<.n.p.G G G G G G G G G G G G G ",
"G G G G G G H  .| F G | G F G |  .F C [.9.$., - % % % % % % % w <.XXg.e.w.p 0 % % % % - $.*.*.*.*.<.b.^.G G G G G G G G G G G G ",
"G G G G G G G H  .| F F G H | ..D A O.XX6., % % % % % % % % - l.f.XXm.e.e.e.r ; ; % % - $.*.*.*.*.*.;.OXG G G G G G G G G G G G ",
"G G G G G G G F F | G F Z F H D A m V.g.r.u q & % % % % % : A.j.x X.V.M.e.e.x.3.S.Y % % - $.*.*.> - :.OXG G G G G G G G G G G G ",
"G G G G G G G G F F G G F D D S B n oXt.e.E 6 8 * % % % w 6.j.v x x U h.t.M.h.U O.z.:.% % , $.> - % Y OXG G G G G G G G G G G G ",
"G G G G G G G G G F F H | G F A m k.F.e.e.E 7 7 8 % % e 6.k.C n x x n N.t.oX! x X.V.z.* & e e * * e >.[.G G G G G G G G G G G G ",
"G G G G G G G G G G G H F F D B n B.e.e.e.E 7 7 8 % % Z.(.F S m n n M x.E oXv Q V.m.r.E t t t 6 6 g.'.i.G G G G G G G G G G G G ",
"G G G G G G G G G G G F F F C m x C.e.e.E i 7 7 q a l.b.G G D B m M S k.B.k.} h.m.t.E i 7 7 7 7 7 x.'.G G G G G G G G G G G G G ",
"G G G G G G G G G G G G G D M n N f.e.e.p 7 7 7 ^ h./.G G G D C M C D G F } f.M.e.w.p 7 7 7 p d.d.h. .G G G G G G G G G G G G G ",
"G G G G G G G G G G G G F A m Q b.B.e.e.p 7 7 i M.(.G G G G F A C S G F S b.g.p w.i 7 7 7 y d.].@Xp.G G G G G G G G G G G G G G ",
"G G G G G G G G G G G G D } v.v.M.y.w.i 7 7 i B./.G G G G G F D D D F S M ! h.M.y 7 7 7 7 x.k.i.G G G G G G G G G G G G G G G G ",
"G G G G G G G G G G G G a.N.B.B.y.w.p 7 7 ^ h./.G G G G G G G G G F S M n x x D.7 7 7 7 7 B...G G G G G G G G G G G G G G G G G ",
"G G G G G G G G G G G (.oXg.e.e.w.p 7 7 E g.(.G G G G G G G G G G F S M v x x N.r.i 7 7 7 g.k.p.G G G G G G G G G G G G G G G G ",
"G G G G G G G G G F D oXy.e.e.e.i 7 7 7 B./.G G G G G G G G G G G F S M n n v O.+Xr.7 7 7 y d.@XG G G G G G G G G G G G G G G G ",
"G G G G G G G G D S C j.D.oXoXoXD.F.F.F.[.G G G G G G G G G G G G G F C n n n x O.N.F.D.D.F.V.p.G G G G G G G G G G G G G G G G ",
"G G G G G G G D A M n v x x x v n C D G G G G G G G G G G G G G G G G S M v x v n m D  .H G G G G G G G G G G G G G G G G G G G ",
"G G G G G G G D C m n n n n n m B D G G G G G G G G G G G G G G G G G F A M n x n B D ..G G G G G G G G G G G G G G G G G G G G ",
"G G G G G G G D S C C C C C C A D G G G G G G G G G G G G G G G G G G G F S C B C S F D F G G G G G G G G G G G G G G G G G G G ",
"G G G G G G G G F F F F F F F F G G G G G G G G G G G G G G G G G G G G G F F F F Z S F G G G G G G G G G G G G G G G G G G G G ",
"G G G G G G G G G G G G G G G G G G G G G G G G G G G G G G G G G G G G G G G G G G G G G G G G G G G G G G G G G G G G G G G G ",
"G G G G G G G G G G G G G G G G G G G G G G G G G G G G G G G G G G G G G G G G G G G G G G G G G G G G G G G G G G G G G G G G ",
"G G G G G G G G G G G G G G G G G G G G G G G G G G G G G G G G G G G G G G G G G G G G G G G G G G G G G G G G G G G G G G G G "
};
