/* XPM */
static const char *RV9BdGsyX0w_[] = {
/* columns rows colors chars-per-pixel */
"64 64 225 2 ",
"   c #2D3D1A",
".  c #263415",
"X  c #373D1C",
"o  c #3D2116",
"O  c #29292D",
"+  c #392E2D",
"@  c #363639",
"#  c #2E2E33",
"$  c #4C2414",
"%  c #592A18",
"&  c #542A1A",
"*  c #4A3B1C",
"=  c #6A331E",
"-  c #64341E",
";  c #493629",
":  c #443A38",
">  c #553227",
",  c #6C3521",
"<  c #673928",
"1  c #743B25",
"2  c #753E2A",
"3  c #7A3F28",
"4  c #783E27",
"5  c #6B3F30",
"6  c #2F401A",
"7  c #32421C",
"8  c #374A1B",
"9  c #3A501F",
"0  c #3B4523",
"q  c #3B4D21",
"w  c #394727",
"e  c #3D5321",
"r  c #394135",
"t  c #4B4D12",
"y  c #4F5113",
"u  c #465C1E",
"i  c #535514",
"p  c #565915",
"a  c #5A5D15",
"s  c #5B5B1B",
"d  c #55431F",
"f  c #5E6116",
"g  c #576717",
"h  c #5A731E",
"j  c #616417",
"k  c #646619",
"l  c #666918",
"z  c #6A6D19",
"x  c #666D17",
"c  c #6E711A",
"v  c #72751B",
"b  c #76791F",
"n  c #474A28",
"m  c #594123",
"M  c #415424",
"N  c #475928",
"B  c #444F33",
"V  c #57423E",
"C  c #4A5736",
"Z  c #565833",
"A  c #5B5620",
"S  c #7D422C",
"D  c #78492E",
"F  c #655D28",
"G  c #6A4234",
"H  c #734332",
"J  c #7A4836",
"K  c #635D3C",
"L  c #7A583A",
"P  c #4C642B",
"I  c #4E6B2A",
"U  c #476226",
"Y  c #53692C",
"T  c #57752B",
"R  c #5B6836",
"E  c #5B7532",
"W  c #686326",
"Q  c #766D2A",
"!  c #687620",
"~  c #777A21",
"^  c #797B22",
"/  c #7B752B",
"(  c #7D7C2B",
")  c #787425",
"_  c #69663B",
"`  c #756736",
"'  c #65773A",
"]  c #7D7633",
"[  c #3C3D44",
"{  c #483F41",
"}  c #3F4147",
"|  c #42424A",
" . c #4B474C",
".. c #544544",
"X. c #514C51",
"o. c #575659",
"O. c #535051",
"+. c #6D574D",
"@. c #5E6A52",
"#. c #6E6343",
"$. c #7D6A4B",
"%. c #766548",
"&. c #6D7240",
"*. c #757943",
"=. c #6C7352",
"-. c #5E5D61",
";. c #7A7676",
":. c #756767",
">. c #83452E",
",. c #834934",
"<. c #884931",
"1. c #874F3A",
"2. c #8C523D",
"3. c #827A2D",
"4. c #81772D",
"5. c #816E3E",
"6. c #867C33",
"7. c #897D35",
"8. c #8B7D3B",
"9. c #85743D",
"0. c #975E48",
"q. c #8D5744",
"w. c #866B48",
"e. c #98674A",
"r. c #8C744B",
"t. c #867848",
"y. c #937B4C",
"u. c #99784B",
"i. c #886855",
"p. c #9E6751",
"a. c #8A7554",
"s. c #967A57",
"d. c #A1634C",
"f. c #A26B53",
"g. c #A66A54",
"h. c #A57757",
"j. c #876C66",
"k. c #987869",
"l. c #877670",
"z. c #A77B65",
"x. c #B57A63",
"c. c #A57F73",
"v. c #7D8025",
"b. c #7E802E",
"n. c #7C9820",
"m. c #6A8525",
"M. c #798762",
"N. c #97AD11",
"B. c #8E803B",
"V. c #848235",
"C. c #90823D",
"Z. c #D7EB05",
"A. c #C6DB09",
"S. c #97854A",
"D. c #8E8256",
"F. c #9C8352",
"G. c #9A855B",
"H. c #978656",
"J. c #959858",
"K. c #A38554",
"L. c #A3855B",
"P. c #AA8B5A",
"I. c #A38B57",
"U. c #AD905F",
"Y. c #94956B",
"T. c #A48A63",
"R. c #AB8B62",
"E. c #AA8669",
"W. c #B98C6E",
"Q. c #B58967",
"!. c #AD9368",
"~. c #B3976E",
"^. c #A98874",
"/. c #B98C72",
"(. c #AA9474",
"). c #B59372",
"_. c #BB9C76",
"`. c #BD9C7B",
"'. c #B99978",
"]. c #9FA176",
"[. c #A2A272",
"{. c #C39478",
"}. c #868584",
"|. c #959599",
" X c #B99886",
".X c #B99C93",
"XX c #B3B187",
"oX c #AAAA8C",
"OX c #B2AFAF",
"+X c #BDB3AC",
"@X c #B8B6B6",
"#X c #ABA8A8",
"$X c #C49A83",
"%X c #C4A38C",
"&X c #C7A689",
"*X c #C9AB93",
"=X c #CFB098",
"-X c #CAB8A5",
";X c #D7B7A7",
":X c #CFB7AF",
">X c #D7C2AD",
",X c #D9C5BC",
"<X c #CCC2BF",
"1X c #E4C7BB",
"2X c #CBCBCC",
"3X c #C6C3C2",
"4X c #DBCCC7",
"5X c #D8D7D8",
"6X c #EACDC4",
"7X c #EDD4CC",
"8X c #EAD1C9",
"9X c #EFD9D1",
"0X c #E9D7D1",
"qX c #F0DCD5",
"wX c #F2DFD9",
"eX c #F2E1DA",
"rX c #E8E6E6",
"tX c #F8EEEA",
"yX c #F5E9E5",
"uX c #F8F0ED",
"iX c #F4F4F4",
"pX c #FBF5F3",
"aX c #FCF8F7",
"sX c #FFFFFF",
"dX c #F7F7F8",
/* pixels */
"v v v v v v v v v v v v v v v v v v v v v v v v v v v v v v v v v v v v v v v v v v v v v v v v v v v v v v v v v v v v v v v v ",
"v v v v v v v v v v v v v v v v v v v v v v v v v v v v v v v v v v v v v v v v v v v v v v v v v v v v v v v v v v v v v v v v ",
"v v v v v v v v v v v v v v v v v v v v v v v v v v v v v v v v v v v v v v v v v v v v v v v v v v v v v v v v v v v v v v v v ",
"v v v v v v v v v v v v v v v v v v v v v v v v v v v v v v v v v v v v v v v v v v v v v v v v v v v v v v v v v v v v v v v v ",
"v v v v v v v v v v v v v v v v v v v v v v v v v v v v v v v v v v v v v v v v v v v v v v v v v v v v v v v v v v v v v v v v ",
"v v v v v v v v v v v v v v v v v v v v v v v v v v v v v v v v v v v v v v v v v v v v v v v v v v v v v v v v v v v v v v v v ",
"v v v v v v v v v v v v v v v v v v v v v v v v v v v v v v v v v v v v v v v ^ b v v v v v v v v v v v v v v v v v v v v v v v ",
"v v v v v v v v v v v v v v v v v v v v v v v v v v v v v v v v v v v v b v v b ~ b v v v v v v 6.!.%X&X!.V.b.b.b.( v v v v v v ",
"v v v v v v v v v v v v v v v v v v v v v v v v v v v v v v v v v v v ^ v.^ b c c v v b v v v S.*X:X4X0X6X>X6X6X6X;XI.v v v v v ",
"v v v v v v v v v v v v v v v v v v v v v v v v v v v v v v v v v v v v ~ ^ ^ c x c ^ v.^ ^ K.%X:X5XiXsXsXsXsXsXsXtX;XU.3.v v v ",
"v v v v v v v v v v v v v v v v v v v v v v v v v v v v v v v v v b ^ ^ c v ~ b c v ^ ^ S.*X:X+X3XrXsXsXsXsXsXsXsXsXpX7X=XS.v v ",
"v v v v v v v v v v v v v v v v v v v v v v v 3.s.] v v v v v v v v ~ ^ ^ c c v b ~ ~ S.*X4X@XOXrXsXsXsXsXsXsXsXsXsXsXaXeX&Xv v ",
"v v v v v v v v v v v v v v v v v v v v v K.c.c.:.a.v v v v v v v v c c ~ b c x c F.%X;X,X3XOX2XiXsXsXsXsXsXsXsXsXsXsXsXtX>XI.v ",
"v v v v v v v v v v v v v v v v v v v v v {. .[ +.s.v v v v ^ S.T.y.3.c c v v K.T.(.oX@X@X#X5XdXsXsXsXsXsXsXsXsXsXsXsXsXsXuX&Xv ",
"v v v v v v v v v v v v v v v B.P.8.c z y.E.| @ ^.7.v C.R.'.'.D.M #.P.v c c P.).Y U B }.#X2XaXsXsXsXsXsXsXsXsXsXsXsXsXsXsXuX&Xv ",
"v v v v v v v v v v v v v v v P.*.R.l t.s.O.@ r ^.6.F.T.*.Y U e n w.3.v c I.'.' 6   B +XuXsXsXsXsXsXsXsXsXsXsXsXsXsXsXsXsXuX&Xv ",
"v v v v v v v v v v v v v v v R.' L.] D.' B r P G.G.t.E Y e 6 0 a.S.v z y.'.oXY.Z Z #.^.9XaXsXsXsXsXsXsXsXsXsXsXsXsXsXsXaXeX_.v ",
"v v v v v v v v v v v c c c v W.M *.t.*.E I P T R R Y I e 7 0 %.F.c S.'.&XXX].].s.s.s.` '.9XsXsXsXsXsXsXsXsXsXsXsXsXsXaXwX*XC.v ",
"v v v v v v v v v v v z l z c /.8 N Y m.T I n.n.u N U 8   n a.F.( z ).XXoX].(.L.5.t t t F E.uXsXsXsXsXsXsXsXsXsXsXsXsXeX&XC.v v ",
"v v v v v v v v v v v l j j l E.n q h N.! u A.A.g e e   0 $.F.c 8.T.G.Y.M.=.).Q a i t t t /.tXsXsXsXsXsXsXsXsXsXsXsXsX7X~.v v v ",
"v v v v v v v v v v v k a p a r.$.0 g N.g 8 Z.Z.g 7 7 7 $.y.) K.G.*.' R C K Q.z l a i t t /.tXsXsXsXsXsXsXsXsXsXsXaXyX*X6.v v v ",
"v v v v v v v v v v v k p y i y s.0   6 7 U T 8     7 k.K.) /.G.E N   %.y.Q.8.v z j p t t /.tXsXsXsXsXsXsXsXsXsX7XR.{.S.v v v v ",
"v v v v v v v v v v v l p y t t r.a.N U I I 8   . .   z.K.G.' ' N _ s.F.( v v v v l p t F s.tXsXsXsXsXsXsXsXsXsX7XP.v v v v v v ",
"v v v v v v v v v v v z f i t t ` e.L Y U 9   . @.C 0 s.D.' I P a.r.6.v v v v v v l a F ^.7XsXsXsXsXsXsXsXsXaXqX_.3.v v v v v v ",
"v v v v v v v v v v v c k p y ` h.0.D N e 6 .   C B K t.' Y N #.s.) c v v v v v v l a T.8XpXsXsXsXsXsXsXsXpXqX&X7.v v v v v v v ",
"v v v v v v v v v v v v z a 5.E.d.D m 8 6 7 . =.q M ' ' P _ %.r.6.v v v v v v v c j `  XyXsXsXsXsXsXsXsXeX>X&X7.v v v v v v v v ",
"v v v v v v v v v v v v z f L.*.<.D X . w M.. C q N N q $.r.8.v v v v v v v v c l a ).qXaXsXsXsXsXsXsX8X~.B.v v v v v v v v v v ",
"v v v v v v v v v v v c k ` t.n <.S m   w @.@   * d n %.y./ v v v v v v v v v z f G.,XaXsXsXsXsXsXsXeX`./ v v v v v v v v v v v ",
"v v v v v v v v v v c 9.G.s.K X <.<.D m ; : } ; - < L s./ v v v v v v v v v c ] ).1XtXsXsXsXsXsXqX>X*X8.v v v v v v v v v v v v ",
"v v v v v v v v v c 8.H.&.M n i.<.<.<.>.2 > @ - = 2 p.8.v v v v v v v v v c l R.qXaXsXsXsXsXsX9X).6.c v v v v v v v v v v v v v ",
"v v v v v v v ) K.K.L.&.e n a.r.<.<.>.S 4 , ; , = 2 f.v v v v v v v v v c / !.1XsXsXsXsXsXeX7X'.3.v v v v v v v v v v v v v v v ",
"v v v v v v 8.H.D.D.*.q Z $.w.h.p.S 1 = = = = = 1 0.u.v v v v v v v v ( '.1X9XsXsXsXpX7X-X`.L./ v v v v v v v v v v v v v v v v ",
"v v v v 3.S.T.&.N N Z #.%.` t F w.< % % % % % % G h.3.v v v v v v v 3.'.7XpXsXsXsXaX9X).Q z c ~ v.b v v v v v v v v v v v v v v ",
"v v v c K.a.U N q C $.L.W t t t h.% $ $ $ $ $ o ..j.L.6.v v v v 6.).;X7XpXsXsXsXyX7X`.] c v v v ^ ^ ~ b v v ^ v.b v v v v v v v ",
"v c z l K.%.K Z Y D.F.l a y t A w.G < S 4 1 1 + [ X.:.L.v v 3._.1XqXaXsXsXpX7X8XR.R.3.c v v v v c v ^ b v b v.b v v v v v v v v ",
"c l f p W ` r.w.R a.K.z j i t r.j.V < >.>.>.5 + @ | X.E.^ ~.;X7XpXaXsXsXpX7X!.!./ c v v v v v v v c x c b ^ ^ b v v v v v v v v ",
"z j p i y i a 9.$.` ) c j i s.c.X.{ < >.<.H + O # [  .^.`.6XtXpXsXsXaXyX7X`.) c v v v v v v v v v v v v b ^ c c v v v v v v v v ",
"z j p i i a l c v v v c j s.k.| | V 2 D 5 + O O # [ -..XwXsXsXsXpXyX7XR.K./ c v v v v v v v v v v v v v c x c v v v v v v v v v ",
"c z j f a j z v v v v l a c.| | ..,.<.H : O O O @ o.OXsXsXsXsXsX1XW.L./ c v v v v v v v v v v v v v v v v v v v v v v v v v v v ",
"v c z z l l c v v c z f a c.| | : H S q.i...o.-.2XiXaXsXsXpXyX>XL.l c v v v v v v v v v v v v v v v v v v v v v v v v v v v v v ",
"v v v c c c v v v z j i ` i.| [ # ; G i.k.;.5X5XdXsXsXrXrX1X&XS.z c v v v v v v v v v v v v v v v v v v v v v v v v v v v v v v ",
"v v v v v v v v b ! f w.j.-.| [ O @ %..X4X5XsXsXaXrX5X|..X~.z c v v v v v v v v v v v v v v v v v v v v v v v v v v v v v v v v ",
"v v v v v v v v c k W %.o.| [ @ O.;.3XtXsXsXsX5X3X}.o.X.k./ v v v v v v v v v v v v v v v v v v v v v v v v v v v v v v v v v v ",
"v v v v v v b ^ c a s.j. .| } o.2X5XdXsXaXpXpX;.o.{ @  .k.v v v v v v v v v v v v v v v v v v v v v v v v v v v v v v v v v v v ",
"v v v v v v v c l a y.j. .| :.2XsXsXsXtX;X;X;X .; > 5 J z.v v v v v v v v v v v v v v v v v v v v v v v v v v v v v v v v v v v ",
"v v v v v v c f p i x.+.}.2XrXsXyX%X=X$Xw.t W.J , , 3 <.x.v v v v v v v v v v v v v v v v v v v v v v v v v v v v v v v v v v v ",
"v v v v v v z j y w.%X3X5XdX2Xl.=X5.i y t t W.,.= , 3 <.x.v v v v v v v v v v v v v v v v v v v v v v v v v v v v v v v v v v v ",
"v v v v v v ] T.(.=X0XrX:X X Xk.y.j a i t t W.,.= , S h.K.v v v v v v v v v v v v v v v v v v v v v v v v v v v v v v v v v v v ",
"v b ) ( ( V.*X6X1X-X X^.i.0.Q.l z c k p t t Q.1., , >.W.v v v v v v v v v v v v v v v v v v v v v v v v v v v v v v v v v v v v ",
"v ( J.XXXX-X6X6X;Xz.S = = q.Q.v v v l a t t ` e.2 , >.Q.B.v v v v v v v v v v v v v v v v v v v v v v v v v v v v v v v v v v v ",
"v ^ J.[.[.[.T.y.g.S 1 = 1.f.7.v v v l a t t i W.,., S e.h.v v v v v v v v v v v v v v v v v v v v v v v v v v v v v v v v v v v ",
"z z z l k a s w.2.1 = = 0.h.v v v v z a y t i W.,.= 1 <.x.v v v v v v v v v v v v v v v v v v v v v v v v v v v v v v v v v v v ",
"l k k j p y r.h.3 = = ,.f.4.v v v v c j i t i u.p.S , >.x.7.v v v v v v v v v v v v v v v v v v v v v v v v v v v v v v v v v v ",
"l l l j p ` h.0.1 = = f.y.v v v v v v l p t y W u.f.,.>.d.p.h.3.v v v v v v v v v v v v v v v v v v v v v v v v v v v v v v v v ",
"c c z k p E.0.>.1 S 2.u.v v v v v v v z a y t i j h.e.3 >.<.g.K.v v v v v v v v v v v v v v v v v v v v v v v v v v v v v v v v ",
"v v z f i ` e.0.p.e.Q.B.v v v v v v v c j p y i a Q e.e.f.g.g.u.v v v v ^ v.b v v v v v v v v v v v v v v v v v v v v v v v v v ",
"v c k p y t F K.K.) v v v v v v v v v c z f i i i f ) P.P.P.P.3.v v v v v ^ ^ ~ b v v ^ v.b v v v v v v v v v v v v v v v v v v ",
"v z j p i p f l c v v v v v v v v v v v c l a i i p j z v v v v v v v v v c v ^ b v b v.b v v v v v v v v v v v v v v v v v v v ",
"v c l f f j l c v v v v v v v v v v v v v c l j a f k z v v v v v v v v v v c x c b ^ ^ b v v v v v v v v v v v v v v v v v v v ",
"v v c z z c v v v v v v v v v v v v v v v v c z z z z c v v v v v v v v v v v v v b ^ c c v v v v v v v v v v v v v v v v v v v ",
"v v v v v v v v v v v v v v v v v v v v v v v v v v v v v v v v v v v v v v v v v c x c v v v v v v v v v v v v v v v v v v v v ",
"v v v v v v v v v v v v v v v v v v v v v v v v v v v v v v v v v v v v v v v v v v v v v v v v v v v v v v v v v v v v v v v v ",
"v v v v v v v v v v v v v v v v v v v v v v v v v v v v v v v v v v v v v v v v v v v v v v v v v v v v v v v v v v v v v v v v ",
"v v v v v v v v v v v v v v v v v v v v v v v v v v v v v v v v v v v v v v v v v v v v v v v v v v v v v v v v v v v v v v v v "
};
