/* XPM */
static const char *RV9BdGsxX0w_[] = {
/* columns rows colors chars-per-pixel */
"64 64 214 2 ",
"   c #3F1C0E",
".  c #212E11",
"X  c #253314",
"o  c #2A3917",
"O  c #2C3B19",
"+  c #2B3619",
"@  c #323D1C",
"#  c #3A3D1C",
"$  c #3C200F",
"%  c #28292D",
"&  c #352C2B",
"*  c #382B29",
"=  c #38362A",
"-  c #2C2D31",
";  c #302E31",
":  c #2F3035",
">  c #3A3D34",
",  c #34353B",
"<  c #37383E",
"1  c #383B37",
"2  c #2E362A",
"3  c #4C2313",
"4  c #512615",
"5  c #512C1F",
"6  c #49371B",
"7  c #65331F",
"8  c #6A331E",
"9  c #4A2E25",
"0  c #452D26",
"q  c #49312B",
"w  c #5B3726",
"e  c #443B3B",
"r  c #433838",
"t  c #583C34",
"y  c #653321",
"u  c #6D3521",
"i  c #673C26",
"p  c #733A24",
"a  c #753C27",
"s  c #623F33",
"d  c #2F401A",
"f  c #32431C",
"g  c #354A1D",
"h  c #394D1E",
"j  c #374716",
"k  c #354223",
"l  c #3D4A29",
"z  c #3D5321",
"x  c #3B403C",
"c  c #4B4D12",
"v  c #474714",
"b  c #4E5113",
"n  c #455818",
"m  c #535614",
"M  c #565915",
"N  c #5A5C15",
"B  c #585A1A",
"V  c #5E6117",
"C  c #5A6516",
"Z  c #616317",
"A  c #636619",
"S  c #666918",
"D  c #6A6D19",
"F  c #646A17",
"G  c #6E711A",
"H  c #72751B",
"J  c #76791F",
"K  c #454B2A",
"L  c #4B4E2D",
"P  c #584426",
"I  c #425B24",
"U  c #46562A",
"Y  c #48453A",
"T  c #475736",
"R  c #555738",
"E  c #5B5620",
"W  c #7D412B",
"Q  c #72472C",
"!  c #665D2A",
"~  c #6C4131",
"^  c #7D4732",
"/  c #6C5A3D",
"(  c #4C662B",
")  c #4E6D2A",
"_  c #476226",
"`  c #506E2D",
"'  c #53722C",
"]  c #58742F",
"[  c #596A35",
"{  c #5A7632",
"}  c #6F6A24",
"|  c #766C2C",
" . c #777A20",
".. c #7A7C22",
"X. c #7D7829",
"o. c #6B6035",
"O. c #766636",
"+. c #647739",
"@. c #617E26",
"#. c #3C3D45",
"$. c #423F45",
"%. c #3F4048",
"&. c #454044",
"*. c #41424A",
"=. c #474846",
"-. c #4A5541",
";. c #5D5355",
":. c #524849",
">. c #695B45",
",. c #665859",
"<. c #685959",
"1. c #735D57",
"2. c #596649",
"3. c #696444",
"4. c #737D42",
"5. c #797F47",
"6. c #796357",
"7. c #7B7257",
"8. c #716E52",
"9. c #796461",
"0. c #7A7B73",
"q. c #756F66",
"w. c #83452E",
"e. c #884932",
"r. c #864B35",
"t. c #89583C",
"y. c #91533B",
"u. c #837B2D",
"i. c #857C31",
"p. c #8B7D39",
"a. c #816E3F",
"s. c #855543",
"d. c #925A45",
"f. c #836C42",
"g. c #8A6D4B",
"h. c #9E624C",
"j. c #96654C",
"k. c #8D744E",
"l. c #8B7548",
"z. c #96774A",
"x. c #856859",
"c. c #9E6753",
"v. c #8B7359",
"b. c #947B51",
"n. c #99795D",
"m. c #977758",
"M. c #A2644E",
"N. c #A26A53",
"B. c #AA6D58",
"V. c #AC735B",
"C. c #A57D5A",
"Z. c #B0735D",
"A. c #987867",
"S. c #946F64",
"D. c #AC7A68",
"F. c #B57B65",
"G. c #B57C68",
"H. c #7A8C0E",
"J. c #7A941D",
"K. c #7E8125",
"L. c #6C8A25",
"P. c #6A8448",
"I. c #7D885F",
"U. c #778665",
"Y. c #849B14",
"T. c #92AB17",
"R. c #8E803A",
"E. c #91813E",
"W. c #B3C507",
"Q. c #CCDF05",
"!. c #D1E504",
"~. c #ECFF00",
"^. c #948142",
"/. c #9B834A",
"(. c #9D8453",
"). c #978659",
"_. c #878351",
"`. c #A38453",
"'. c #A58954",
"]. c #A8885C",
"[. c #A98357",
"{. c #94936A",
"}. c #969972",
"|. c #84926C",
" X c #A78561",
".X c #AD8365",
"XX c #AC8469",
"oX c #AD8B6B",
"OX c #A78766",
"+X c #B38C64",
"@X c #BB826B",
"#X c #B38A6C",
"$X c #B9886D",
"%X c #B7906A",
"&X c #BB9176",
"*X c #B19873",
"=X c #AD8374",
"-X c #9BA67A",
";X c #91938B",
":X c #A09D9D",
">X c #B4968D",
",X c #99AA85",
"<X c #AAAB94",
"1X c #ABADA5",
"2X c #B1AFAF",
"3X c #B1A5A1",
"4X c #B1B5AB",
"5X c #D0AB9C",
"6X c #D5AEA0",
"7X c #CDB7AE",
"8X c #BAC19B",
"9X c #C4C7BF",
"0X c #D4C8C4",
"qX c gray82",
/* pixels */
"H H H H H H H H H H H H H H H H H H H H H H H H H H H H H H H H H H H H H H H H H H H H H H H H H H H H H H H H H H H H H H H H ",
"H H H H H H H H H H H H H H H H H H H H H H H H H H H H H H H H H H H H H H H H H H H H H H H H H H H H H H H H H H H H H H H H ",
"H H H H H H H H H H H H H H H H H H H H H H H H H H H H H H H H H H H H H H H H H H H H H H H H H H H H H H H H H H H H H H H H ",
"H H H H H H H H H H H H H H H H H H H H H H H H H H H H H H H H H H H H H H H H H H H H H H H H H H H H H H H H H H H H H H H H ",
"H H H H H H H H H H H H H H H H H H H H H H H H H H H H H H H H H H H H H H H H H H H H H H H H H H H H H H H H H H H H H H H H ",
"H H H H H H H H H H H H H H H H H H H H H H H H H H H H H H H H H H H H H H H H H H H H H H H H H H H H H H H H H H H H H H H H ",
"H H H H H H H H H H H H H H H H H H H H H H H H H H H H H H H H H H H H H H H ..J H H H H H H H H H H H H H H H H H H H H H H H ",
"H H H H H H H H H H H H H H H H H H H H H H H H H H H H H H H H H H H H J H H J  .J H H H H H H H H H H H H H H H H H H H H H H ",
"H H H H H H H H H H H H H H H H H H H H H H H H H H ^.oXz.H H H H H H  .K...J G G H H J H H H H H H H H H H H H H H H H H H H H ",
"H H H H H H H H H H H H H H H H H H H H H H H H i.]. X9.A.H H H H H H H  .....G S G ..K...H H H H H H H H H H H H H H H H H H H ",
"H H H H H H H H H H H H H H H H H H H H H H H p.x.9.1.*.S.H H H H J .. .G H  .J G H  ...J H H H H H H H H H H H H H H H H H H H ",
"H H H H H H H H H H H H H H H H H H H H H H G +X<.%.*.,.m.H H H H H J ..].oXA.z.X. . .H H H H H H H H H H H H H H H H H H H H H ",
"H H H H H H H H H H H H H H H E.%XE.H H G D p.#X<.#.&.#XR.H H H ^.%X#X%X).) g 6.'.J G G H H H H H H H H H H H H H H H H H H H H ",
"H H H H H H H H H H H H H H i.(.5.].H G S | m.,.$., &.#XH H H E.).4.4.4.[ g O 6.(.D G H H H H H H H H H H H H H H H H H H H H H ",
"H H H H H H H H H H H H H X.*X<X{ OXH D | b.7.#., 1 R #XH (.).).5.` I I h O >.k.X.H H H H H H H H H H H H H H H H H H H H H H H ",
"H H H H H H H H H H H G D `.7X1X` ).(.}  X_.( > 1 T +.OXoX).' ' ) _ d O f R ].i.G H H H H H H H H H H H H H H H H H H H H H H H ",
"H H H H H H H H H H G S } `.>X0.f ( _.b.4.] ' ` ` ' ' { U K ' ' I O O O R  Xp.G H H H H H H H H H H H H H H H H H H H H H H H H ",
"H H H H H H H H H G S N (.7X3X0.O _ [ o.] ' ' ' ' ' ) z I _ ' I f O O 3.l.R.H H H H H H H H H H H H H H H H H H H H H H H H H H ",
"H H H H H H H H H D Z m &X0X2X0.@ z I n J.L.) I J.T.J.j I ) I f O f / b.i.H H H H H H H H H H H H H H H H H H H H H H H H H H H ",
"H H H H H H H H G S N b &X0X2X0.l O h @.!.T._ O W.~.!.n I I O O @ R .Xp.H H H H H H H H H H H H H H H H H H H H H H H H H H H H ",
"H H H H H H H H D Z m c &X0X2X;X4X2.O n Q.Y.f O W.~.!.n f f O O >.b.^.H H H H H H H H H H H H H H H H H H H H H H H H H H H H H ",
"H H H H H H H H D N b c &X0X2X:XqX8.O j H.C f z Y.T.H.j O O O 3.l.i.H H H H H H H H H H H H H H H H H H H H H H H H H H H H H H ",
"H H H H H H H H S N c c &X0X2X:XqX0.K O f g z ' ) z O O o o O m.`.X.H H H H H H H H H H H H H H H H H H H H H H H H H H H H H H ",
"H H H H H H H H S N c c &X0X2X:XqX5Xg.d ( ' ' ' h O O O X . O Q V.'.u.H H H H H H H H H H H H H H H H H H H H H H H H H H H H H ",
"H H H H H H H H S N c c &X0X2X:XqX6Xk.n.+.' ) h d X k |.R . O y r.B.`.H H H H H H H H H H H H H H H H H H H H H H H H H H H H H ",
"H H H H H H H H S N c c &X0X2X:XqX6Xc #X+.( z O O X O U.T X O 6 i y.V.`.H H H H H H H H H H H H H H H H H H H H H H H H H H H H ",
"H H H H H H H H S N c c &X7X1X:X9X5Xc #X+.z O O o O O . X O O O P e.e.F.H H H H H H H H H H H H H H H H H H H H H H H H H H H H ",
"H H H H H H H H S N c c #X3.;X4XP.*Xo.XXL O O O X 2.,Xl O O O O P e.e.F.H H H H H H H H H H H H H H H H H H H H H H H H H H H H ",
"H H H H H H H H S N c c a.k.v.7.' 5.b.XXK X l |.l K 8.k O # P P Q e.e.F.H H H H H H H H H H H H H H H H H H H H H H H H H H H H ",
"H H H H H H H H S N c k.OXOX/ v ' P.{.OXK X T <X-.+ O O @ w e.e.e.e.e.F.H H H H H H H H H H H H H H H H H H H H H H H H H H H H ",
"H H H H H H H H D N m n.O O I ' ' -X8X<XU O 2 *.*.1 O O 6 p e.e.e.e.e.F.H H H H H H H H H H H H H H H H H H H H H H H H H H H H ",
"H H H H H H H H D Z m k.n.K f h h I.-X}.l z U < #.x o O w w.e.e.e.e.e.F.H H H H H H H H H H H H H H H H H H H H H H H H H H H H ",
"H H H H H H H D Z N m c XXL O k [ I.}.|.l h z 2 < > 6 6 i W W w.e.e.e.F.H H H H H H H H H H H  .K.J H H H H H H H H H H H H H H ",
"H H H H H H G D V M m c XXL + K }.}.}.{.R K l @ = q 8 8 8 8 8 W w.^ ^ F.H H H H H H H H H H H H .... .J H H ..K.J H H H H H H H ",
"H H H H H H H D V m c c .Xw $ w oX&X&X&XXXXXg.7 y y 8 8 8 8 8 u t =.=.A.E.H H H H H H H H H H H G H  .J H J K.J H H H H H H H H ",
"H H H H H H H G A N c c .Xw   i .Xc c c o.x.1.t 5 4 4 4 4 4 4 0 r *.*.,.v.^.H H H H H H H H H H H G S G J  . .J H H H H H H H H ",
"H H H H H H H H S N b b b.s.~ s.b.M b.oXoX6.*.*.9 3 3 3 3 3 3 & , *.*.*.,.A.`.H H H H H H H H H H H H H J  .G G H H H H H H H H ",
"H H H H H H H H S N b m } `.+X`.+X#X).' ' T *.*.w 8 8 8 8 8 8 * , *.*.*.*.=.=X^.H H H H H H H H H H H H G S G H H H H H H H H H ",
"H H H H H H H H D N m N D G G ].5.5.3.-.-.=.*.*.w 8 u W w.w.W * - : : #.*.*.;.S.E.H H H H H H H H H H H H H H H H H H H H H H H ",
"H H H H H H H H D A V A H J D oXU T -.*.*.*.#.< q w u w.e.^ t & % % % < *.*.*.<.v./.H H H H H H H H H H H H H H H H H H H H H H ",
"H H H H H H H H H G D D D D Z XXk x *.*.*.%.< % % 0 u w.e.~ % % % % % < #.#.*.*.;.OX(.H H H H H H H H H H H H H H H H H H H H H ",
"H H H H H H H H  .K...D N M O.m.*.*.*.*.*.< % % % 0 u w.e.s % % % % % % - - #.*.*.:.A.E.H H H H H H H H H H H H H H H H H H H H ",
"H H H H H H H H H  . .D M ! x.<.*.*.*.%., - % % % 0 u w.e.t.x.e % % % % % % : , < *.,.v.i.H H H H H H H H H H H H H H H H H H H ",
"H H H H H H J .. .G G S f.A.1.*.*.*.*.#.- % % % % q a w.e.h. X1.e % % % % % % % - < #.9.+XH H H H H H H H H H H H H H H H H H H ",
"H H H H H H H J  . .D V #X;.*.*.*.*.*.#.- % % ; ; t e.e.e.M. Xf.6.- % % % % % % % % < 6.+XR.H H H H H H H H H H H H H H H H H H ",
"H H H H H H H G G H S m XX:.: , *.*.#.- % % Y n.D.c.e.e.B.z.o.c g.S.: % % % % % & w i r.h..XH H H H H H H H H H H H H H H H H H ",
"H H H H H H H H S A N m XXY % - , #.< % % :.6.O.! z.B.r.V.! c c c g.x.e % % % & 5 8 W e.r.$XH H H H H H H H H H H H H H H H H H ",
"H H H H H H H H D N b b n.>.r & & r r * * x.z.o.m | C.y.V.m b c c c f.1.r % % 9 8 8 W e.r.F.`.H H H H H H H H H H H H H H H H H ",
"H H H H H H H H S N c c ! m.j.7 7 y y y W r.M. X| S $XW N.V m b c c c f.x.% % 9 8 8 W e.e.r.V.H H H H H H H H H H H H H H H H H ",
"H H H H H H H H S N b v v k.c.8 8 8 8 8 p W y.M.C.X./.V.z.D Z m b c c c k.S.s w 8 8 p W e.e.Z.H H H H H H H H H H H H H H H H H ",
"H H H H H H H H D Z m c c B t.d.d.a 8 8 8 p w.e.N.z.X.H H G D Z m b c c c f.j.^ 8 8 8 p e.e.Z.X.H H H H H H H H H H H H H H H H ",
"H H H H H H H H G S N b c c ! C.C.d.u 8 8 8 p w.a h.'.H H H H D V m b c c c f.j.p 8 8 p e.e.V.`.i.H H H H H H H H H H H H H H H ",
"H H H H H H H H H D Z m b c c c ! m.c.8 8 8 8 u B.b.X.H H H H H D V m b c c c g.V.p 8 8 p w.y.N.].'.X.H H H H H H H H H H H H H ",
"H H H H H H H H H G S Z N m c c c E t.8 8 8 8 8 G.H H H H H H H H D Z m c c c c g.N.^ 8 8 p w.y.B.V.z.R.H H H H H H H H H H H H ",
"H H H H H H H H H H G D S N m c ! m.h.8 8 8 p r.C.H H H H H H H H H D Z m b c c c f.j.W 8 8 a w.e.e.h.[./.H H H H H H H H H H H ",
"H H H H H H H H H H H H G S N b C.d.u 8 8 8 r.+X^.H H H H H H H H H H D A B m c c c l.N.8 8 8 p e.e.e.y.$XH H H H H H H H H H H ",
"H H H H H H H H H H H H H D N m ! j.D.F.F.F.C.E.H H H H H H H H H H H G D S B m c c c m.F.F.F.F.@X@X@XF./.H H H H H H H H H H H ",
"H H H H H H H H H H H H G S N b c c m N D H H H H H H H H H H H H H H H H S V B b c c m m m N A D H H H H H H H H H H H H H H H ",
"H H H H H H H H H H H H G S N m m m N A G H H H H H H H H H H H H H H H H G F M m M B B m m N Z D H H H H H H H H H H H H H H H ",
"H H H H H H H H H H H H G D Z Z Z Z D G H H H H H H H H H H H H H H H H H H G D A A S V V Z Z S D H H H H H H H H H H H H H H H ",
"H H H H H H H H H H H H H H G G G G G H H H H H H H H H H H H H H H H H H H H H G S F D G G G G H H H H H H H H H H H H H H H H ",
"H H H H H H H H H H H H H H H H H H H H H H H H H H H H H H H H H H H H H H H H H H H H H H H H H H H H H H H H H H H H H H H H ",
"H H H H H H H H H H H H H H H H H H H H H H H H H H H H H H H H H H H H H H H H H H H H H H H H H H H H H H H H H H H H H H H H ",
"H H H H H H H H H H H H H H H H H H H H H H H H H H H H H H H H H H H H H H H H H H H H H H H H H H H H H H H H H H H H H H H H "
};
