/* XPM */
static const char *RV9JZGxlX0w_[] = {
/* columns rows colors chars-per-pixel */
"64 64 221 2 ",
"   c #3F1C0E",
".  c #1E2B0F",
"X  c #212E10",
"o  c #263314",
"O  c #2A3917",
"+  c #2C3C19",
"@  c #2A3618",
"#  c #333D1B",
"$  c #3D391A",
"%  c #372716",
"&  c #29292D",
"*  c #362B2A",
"=  c #353D21",
"-  c #2D2E33",
";  c #302E31",
":  c #313136",
">  c #33343A",
",  c #3B393D",
"<  c #3A3735",
"1  c #2F3035",
"2  c #411E10",
"3  c #4C2415",
"4  c #512615",
"5  c #512B1D",
"6  c #493B1D",
"7  c #57381E",
"8  c #65331F",
"9  c #6A331E",
"0  c #4C322C",
"q  c #553122",
"w  c #59372A",
"e  c #453938",
"r  c #4E342D",
"t  c #6E3621",
"y  c #673725",
"u  c #733A24",
"i  c #793E27",
"p  c #763E2A",
"a  c #7A3F28",
"s  c #703722",
"d  c #2F401A",
"f  c #32441C",
"g  c #384D1F",
"h  c #364A1D",
"j  c #3A501F",
"k  c #3C4D21",
"l  c #384322",
"z  c #3C5321",
"x  c #3D4636",
"c  c #4B4D12",
"v  c #474814",
"b  c #4E5013",
"n  c #475917",
"m  c #525514",
"M  c #565915",
"N  c #5B5D15",
"B  c #5A581C",
"V  c #5E6116",
"C  c #616417",
"Z  c #636618",
"A  c #666A18",
"S  c #6A6D19",
"D  c #6E711A",
"F  c #667711",
"G  c #72751B",
"H  c #75791E",
"J  c #494C2C",
"K  c #5A4326",
"L  c #435C24",
"P  c #425327",
"I  c #5C5524",
"U  c #465435",
"Y  c #595636",
"T  c #565735",
"R  c #574937",
"E  c #77412B",
"W  c #7C412A",
"Q  c #665C2A",
"!  c #6A4437",
"~  c #7C4631",
"^  c #754939",
"/  c #675B3C",
"(  c #634529",
")  c #476226",
"_  c #4E6C29",
"`  c #4A6428",
"'  c #506E2C",
"]  c #53722C",
"[  c #586D32",
"{  c #5A7532",
"}  c #4F6530",
"|  c #6B6625",
" . c #747522",
".. c #767A20",
"X. c #7A7B23",
"o. c #7E7A29",
"O. c #69673A",
"+. c #7B693A",
"@. c #746632",
"#. c #67763A",
"$. c #736D29",
"%. c #3C3D45",
"&. c #3F4246",
"*. c #41424A",
"=. c #4A464A",
"-. c #5B5558",
";. c #574E51",
":. c #695958",
">. c #725B55",
",. c #6B5749",
"<. c #5B684B",
"1. c #7C694C",
"2. c #736744",
"3. c #777C45",
"4. c #677552",
"5. c #6E674C",
"6. c #7B6563",
"7. c #757375",
"8. c #6B696A",
"9. c #83452E",
"0. c #864831",
"q. c #894A32",
"w. c #844731",
"e. c #8C523C",
"r. c #91533B",
"t. c #837C2E",
"y. c #857C31",
"u. c #897E35",
"i. c #837339",
"p. c #8C7E39",
"a. c #817733",
"s. c #925A45",
"d. c #9D5F48",
"f. c #985D48",
"g. c #8B5845",
"h. c #866B48",
"j. c #9C624C",
"k. c #926A47",
"l. c #8E744D",
"z. c #897648",
"x. c #92734D",
"c. c #957A4A",
"v. c #9E6651",
"b. c #9B6D51",
"n. c #8A7054",
"m. c #897B53",
"M. c #9A7A55",
"N. c #95785A",
"B. c #987757",
"V. c #836A5C",
"C. c #A46C56",
"Z. c #A66952",
"A. c #A6785A",
"S. c #A16F4E",
"D. c #856B65",
"F. c #9A7868",
"G. c #8A7975",
"H. c #9E7A71",
"J. c #8F7067",
"K. c #A87B67",
"L. c #B47C66",
"P. c #728B1C",
"I. c #7E8125",
"U. c #708C21",
"Y. c #7E804A",
"T. c #778659",
"R. c #6D8348",
"E. c #738360",
"W. c #91A714",
"Q. c #8C8137",
"!. c #91803E",
"~. c #85812D",
"^. c #97A90C",
"/. c #B2C80D",
"(. c #ECFF00",
"). c #85824D",
"_. c #958242",
"`. c #9B844A",
"'. c #8A8451",
"]. c #998557",
"[. c #A28653",
"{. c #A48953",
"}. c #AC8B5C",
"|. c #A7875C",
" X c #A68A56",
".X c #9D8660",
"XX c #91966B",
"oX c #A58262",
"OX c #AB8867",
"+X c #B38265",
"@X c #B38D62",
"#X c #B58269",
"$X c #BB856C",
"%X c #B48C6A",
"&X c #BD8A6C",
"*X c #AC9469",
"=X c #B59066",
"-X c #BA916B",
";X c #B5936E",
":X c #AB8574",
">X c #AC987D",
",X c #9EA87D",
"<X c #A0A77F",
"1X c #928E8E",
"2X c #989696",
"3X c #8E8F80",
"4X c #AE9A89",
"5X c #B2B893",
"6X c #AAA8A8",
"7X c #B3AEAD",
"8X c #B9B1AE",
"9X c #B9B6B6",
"0X c #C8AF92",
"qX c #C7AA8C",
"wX c #CDB3AA",
"eX c #D3B5AA",
"rX c #C0BFBF",
"tX c #D4BEB7",
"yX c #C5AEA6",
"uX c #BCC19C",
"iX c #CBC9C9",
/* pixels */
"G G G G G G G G G G G G G G G G G G G G G G G G G G G G G G G G G G G G G G G G G G G G G G G G G G G G G G G G G G G G G G G G ",
"G G G G G G G G G G G G G G G G G G G G G G G G G G G G G G G G G G G G G G G G G G G G G G G G G G G G G G G G G G G G G G G G ",
"G G G G G G G G G G G G G G G G G G G G G G G G G G G G G G G G G G G G G G G G G G G G G G G G G G G G G G G G G G G G G G G G ",
"G G G G G G G G G G G G G G G G G G G G G G G G G G G G G G G G G G G G G G G G G G G G G G G G G G G G G G G G G G G G G G G G ",
"G G G G G G G G G G G G G G G G G G G G G G G G G G G G G G G G G G G G G G G G G G G G G G G G G G G G G G G G G G G G G G G G ",
"G G G G G G G G G G G G G G G G G G G G G G G G G G G G G G G G G G G G G G G G G G G G G G G G G G G G G G G G G G G G G G G G ",
"G G G G G G G G G G G G G G G G G G G G G G G G G G y.|.].o.G G G G G G G G G X.H G G G G G G G G G G G G G G G G G G G G G G G ",
"G G G G G G G G G G G G G G G G G G G G G G G G y.}.}.D.G.{.G G G G G G H G G H ..H G G G G G G G G G G G G G G G G G G G G G G ",
"G G G G G G G G G G G G G G G G G G G G G G G o.n.6.6.=.6.}.G G G G G ..I.X.H D D G G H G G G G G G G G G G G G G G G G G G G G ",
"G G G G G G G G G G G G G G G G G G G G G G D {.D.*.%.;.V.t.G G G G G G `.*XoXM.a.D X.I.X.G G G G G G G G G G G G G G G G G G G ",
"G G G G G G G G G G G G G G G y.}.y.G G D S o.|.D.%.: K._.G G G _.-X-X-XOX{ j / @XG X.X.H G G G G G G G G G G G G G G G G G G G ",
"G G G G G G G G G G G G G G G }.).'.G D A | M.6.=.> : K.G G G u.].3.3.3.#.k d / =XX...G G G G G G G G G G G G G G G G G G G G G ",
"G G G G G G G G G G G G G G G -X#.'.t.S | z.m.=.> < U :XG `.].].).] L L z + Y h.p.H D D G G G G G G G G G G G G G G G G G G G G ",
"G G G G G G G G G G G D D D G -X#.m.].i.].].' x < x ] ].%XoX#.] ] ` f + # J N.p.S S D G G G G G G G G G G G G G G G G G G G G G ",
"G G G G G G G G G G G S A A D %XT L 3.OX).{ ] ' ' ' ] { } k ' ] ) + + + J OX`...G G G G G G G G G G G G G G G G G G G G G G G G ",
"G G G G G G G G G G G A C C S %XJ L [ / [ ] ] ] ] ] ] L z ) ] L h + + Y l.`.H D D G G G G G G G G G G G G G G G G G G G G G G G ",
"G G G G G G G G G G G A V N A %XJ g L j P.U.] ) U.W.W.n z ] ) h + + Y l.p.G D D G G G G G G G G G G G G G G G G G G G G G G G G ",
"G G G G G G G G G G G A N m N OXY # h _ /./._ f ^.(.(.F z ` d + # l oX!.G G G G G G G G G G G G G G G G G G G G G G G G G G G G ",
"G G G G G G G G G G G A N b m +.M.2.+ f /.^.f + ^.(.(.F d f + + T |.`.G G G G G G G G G G G G G G G G G G G G G G G G G G G G G ",
"G G G G G G G G G G G A N b c c x.1.+ + F F + z P.^.W.n + + + Y z._.G G G G G G G G G G G G G G G G G G G G G G G G G G G G G G ",
"G G G G G G G G G G G S V m c c B / J + f h g _ _ L + + O @ + h.M.$X$X$X+X_.G G G G G G G G G G G G G G G G G G G G G G G G G G ",
"G G G G G G G G G G G D Z M b c c h.N.f L ] ] ] z + + + o X O ( q.q.q.q.f.&X@X@X@X@Xu.G G G G G G G G G G G G G G G G G G G G G ",
"G G G G G G G G G G G G S V m c c c l.F.#.] ' z f O X E.4.. O 7 a q.K I O.3.Y.Y.Y.Y.'.!.G G G G G G G G G G G G G G G G G G G G ",
"G G G G G G G G G G G G D Z M b c c c oXY._ L d + o . 4.<.o $ y W q.6 h L L L L L _ 3.'.OX[.G G G G G G G G G G G G G G G G G G ",
"G G G G G G G G G G G G G S C M b c c oX3.L + + O + = o o # y W q.9.6 + + + + + + ) _ ' ] .X[.o.G G G G G G G G G G G G G G G G ",
"G G G G G G G G G G G G G G S C m c c oXO.d + + o U 5XT + # E w.9.t $ + + + + + + f f g ] #.'.{.X.G G G G G G G G G G G G G G G ",
"G G G G G G G G G G G G G G G A N b c oX/ O + T.U l T.P $ 7 W q.9.a 7 6 K h./ n.n.n.Y d z ` T.0X XG G G G G G G G G G G G G G G ",
"G G G G G G G G G G G G G G G S N b l.*XY o + 3X<.@ + # 6 t 9.q.q.q.i t ~ #XB m M i.h.J + } XXuXqX*XG u.M.K.K.`.G G G G G G G G ",
"G G G G G G G G G G G G G G G S N +.].{ g + + &.*.x + 7 9 t 9.q.q.q.q.a ~ #Xb c b m z.M.l 4.<XuXuX0X=X=X^ 2 5 #XG G G G G G G G ",
"G G G G G G G G G G G G G G G A i.m.#.k + $ q < %.e 7 8 u 9.q.q.q.q.q.j.B.z.M b c b m c.K.XXXX<X5X5X>X^ 5   5 #XG G G G G G G G ",
"G G G G G G G G G G G G G G S z.].2.z + Y ^ y r e e 9 9 s W W 9.q.q.q.C.{.S C M b c c m i.*X>X>X5X,XT.v v K g.c.G G G G G G G G ",
"G G G G G G G G G G G _.%X;X%XOX#.z # J N.b.E t r 0 9 9 9 9 9 i 9.9.e.A.o.G S C M b c c m $.[.OXXXR.] ] _ m.}.o.G G G G G G G G ",
"G G G G G G G G G t.}.|.#.#.#.#.k + J K.h.h.L.E y y 9 9 9 9 9 t t t L.p.G G G S C M m b b m N.J [ { ] ] z 2.}.G G G G G G G G G ",
"G G G G G G G G _.'.'.3.P z z P 1.O.n.+.c c h.C.~ 4 4 4 4 4 4 4 4 4 >.N.p.G G G S Z V M m c N.+ g z z z 2.l.Q.I.H G G G G G G G ",
"G G G G G G G D %X#.) L g g P / M.| M b c c h.F.^ 3 3 3 3 3 3 3 3 % , >.N.:X].G G S Z N m c :X<.= @ + + F.Q.I.H G G G G G G G G ",
"G G G G G D S Z %XT + h _ ] ).}.a.S C M +.OXoX-.w 9 9 9 9 9 9 9 q & %.*.*.*.H.-X%Xp.A M b c eXiXR % + + F.X.X.H G G G G G G G G ",
"G G G G S A V M OXT ,.2.k ) ).@XG G S z.V.:.:.=.w 9 9 a 9.9.9.9.y & %.*.*.*.-.:.:.oXZ m c Q 4XiX3XR w N.[.X.D D G G G G G G G G ",
"G G G G S V m b +.1.h.@.1.T 2.@XG G M.J.-.*.*.*.e q 9 u 9.q.q.q.p & : > %.&.*.*.=.:XC m Q 4XwX7X2XG.H.-XD A D G G G G G G G G G ",
"G G G G A N m b c b N A {.1.1.{.S c.F.=.*.*.*.*.> * 9 9 u 9.q.~ y & & & - %.*.*.=.H.c.m A.tX9X1X2X8XtX=XG G G G G G G G G G G G ",
"G G G G S C N M m m N S ~.[.]. .z.D.=.*.*.*.*.*.> * 9 9 9 s 9.w & & & & - %.*.*.*.=.J.B M.tX9X1XrXeX}.u.G G G G G G G G G G G G ",
"G G G G S A A A C N C S H  .S c.D.-.*.*.*.*.&.> - & 0 q 9 t 9.r & & & & & : %.*.*.*.D..XtX8X7X9XwX*Xo.G G G G G G G G G G G G G ",
"G G G G G D D D D D D D S A M.H.;.*.*.*.*.*.%.- & & & q 9 t W 0 & & & & & & : %.*.*.6.>X9X7X7XtX;Xo.G G G G G G G G G G G G G G ",
"G G G G G G G G G G  . .A M H.*.*.*.*.*.*.*.%.- & ; ; w t 9 9 0 & & & & & & & : *.=.8.1X1X9XtX}.y.G G G G G G G G G G G G G G G ",
"G G G G G G H X.H D D D Z m F.- - , *.*.> - - & >.h.K.L.j.9 9 u w & & & & & & & > 2X6X2XrXwX*Xy.G G G G G G G G G G G G G G G G ",
"G G G G G G G H X...A V m m F.& & 1 , *.: & ; >.h.Q c I k.f.u u ^ >., & & & -.7.-.2X7X8XeX*XX.G G G G G G G G G G G G G G G G G ",
"G G G G G G G D D G Z m v c F.* * * < =.< * e A.x.c c c Q x.e.u e.oX>.< 1 =.2X7X7.G.4XyX&X[.G G G G G G G G G G G G G G G G G G ",
"G G G G G G G G D S C m v v K.8 8 8 t w.u 8 y u C.m c c c @.A.s.e.OXB.>.*.9X6X7.: w ~ e.e.L.G G G G G G G G G G G G G G G G G G ",
"G G G G G G G G G S V M c c x.A.p 9 s w.9.u 9 9 C.@.m b m m | x.b.@.c n.J.8.-.=.q 8 i q.q.L.t.G G G G G G G G G G G G G G G G G ",
"G G G G G G G G G D C M v v c l.v.s.e.W 9.9.u u d.A.i.M N V V m c c c c n.>.,.! 9 9 i q.q.Z.A.u.G G G G G G G G G G G G G G G G ",
"G G G G G G G G G D Z m c c c B x.A.A.E W q.q.q.q.d.%XC C A A V m c c c I M.A.b.9 9 u q.q.q.Z.@XG G G G G G G G G G G G G G G G ",
"G G G G G G G G G G S V m m c c c c h.#Xe.a q.q.q.d.%XS S D D A N m b c c c c L.9 9 t u q.q.Z.@XG G G G G G G G G G G G G G G G ",
"G G G G G G G G G G D S C N M m c c c +.b.s.a 9.q.d.-XG G G G D A C N m b c c h.v.E 9 s w.q.Z.@XG G G G G G G G G G G G G G G G ",
"G G G G G G G G G G G D D A C M m c c Q B.j.t W 9.d.-XG G G G G D S A N m c c B x.f.E t W 9.j.|.`.G G G G G G G G G G G G G G G ",
"G G G G G G G G G G G G G G S C M m Q A.s.t 9 9 a d.-XG G G G G G G D Z M c c c Q M.v.9 9 W q.r.$X%X{.o.G G G G G G G G G G G G ",
"G G G G G G G G G G G G G G G S C | k.s.p 9 9 9 t e.-XG G G G G G G G S V m c c c B x.C.s s W q.d.v.A.{.G G G G G G G G G G G G ",
"G G G G G G G G G G G G G G G D Z k.j.t 9 9 t g.s.k.!.G G G G G G G G D D A M c c c M $Xu 9 s W 9.q.r.A.c.G G G G G G G G G G G ",
"G G G G G G G G G G G G G G D A N v.p p p p w.+X}.y.G G G G G G G G G G G G Z M b c m +X~ p p W q.r.r.r.+XG G G G G G G G G G G ",
"G G G G G G G G G G G G G D A N m h.#X#X#X$X+X_.G G G G G G G G G G G G G S A C m c c z.+X$X$X$X&X&X&X&X`.G G G G G G G G G G G ",
"G G G G G G G G G G G G D A N m b c m M V A D G G G G G G G G G G G G G G G A N m b m m m m M C S G G G G G G G G G G G G G G G ",
"G G G G G G G G G G G G D A V M M M N C S D G G G G G G G G G G G G G G G G D A V N N m m M N C S G G G G G G G G G G G G G G G ",
"G G G G G G G G G G G G G S A Z Z Z A D G G G G G G G G G G G G G G G G G G G D A V V C Z Z Z A S G G G G G G G G G G G G G G G ",
"G G G G G G G G G G G G G G G G G G G G G G G G G G G G G G G G G G G G G G G G G G G G G G D D G G G G G G G G G G G G G G G G ",
"G G G G G G G G G G G G G G G G G G G G G G G G G G G G G G G G G G G G G G G G G G G G G G G G G G G G G G G G G G G G G G G G ",
"G G G G G G G G G G G G G G G G G G G G G G G G G G G G G G G G G G G G G G G G G G G G G G G G G G G G G G G G G G G G G G G G "
};
