/* XPM */
static const char *RV9JZGxlX1I_[] = {
/* columns rows colors chars-per-pixel */
"64 64 223 2 ",
"   c #3F1C0E",
".  c #1E2B0F",
"X  c #212E10",
"o  c #263314",
"O  c #2A3917",
"+  c #2C3C19",
"@  c #2A3618",
"#  c #333D1B",
"$  c #3D391A",
"%  c #372716",
"&  c #29292D",
"*  c #362B2A",
"=  c #353D21",
"-  c #2D2E33",
";  c #302E31",
":  c #313136",
">  c #33343A",
",  c #3B393D",
"<  c #3A3635",
"1  c #2F3035",
"2  c #411E10",
"3  c #4C2415",
"4  c #512615",
"5  c #512B1D",
"6  c #493B1D",
"7  c #57381E",
"8  c #65331F",
"9  c #6A331E",
"0  c #4C322C",
"q  c #553122",
"w  c #59372A",
"e  c #453938",
"r  c #4E342D",
"t  c #6E3621",
"y  c #673725",
"u  c #733A24",
"i  c #793E27",
"p  c #763E2A",
"a  c #7A3F28",
"s  c #703722",
"d  c #2F401A",
"f  c #32441C",
"g  c #384D1F",
"h  c #364A1D",
"j  c #3A501F",
"k  c #3C4D21",
"l  c #384322",
"z  c #3C5321",
"x  c #3D4636",
"c  c #4B4D12",
"v  c #474715",
"b  c #4E5113",
"n  c #475917",
"m  c #525414",
"M  c #565915",
"N  c #5A5C15",
"B  c #58591A",
"V  c #605C1F",
"C  c #5E6116",
"Z  c #5D6118",
"A  c #626417",
"S  c #636619",
"D  c #666918",
"F  c #6A6D19",
"G  c #6E711A",
"H  c #667711",
"J  c #72751B",
"K  c #76791F",
"L  c #494C2C",
"P  c #5A4326",
"I  c #435C24",
"U  c #425327",
"Y  c #5B5524",
"T  c #465435",
"R  c #595636",
"E  c #565635",
"W  c #574937",
"Q  c #77412B",
"!  c #7C412A",
"~  c #665D28",
"^  c #6A4437",
"/  c #7C4631",
"(  c #754939",
")  c #665A3D",
"_  c #634529",
"`  c #476226",
"'  c #4E6C29",
"]  c #4A6428",
"[  c #506E2C",
"{  c #53722C",
"}  c #586D32",
"|  c #5A7532",
" . c #4F6530",
".. c #6C6626",
"X. c #736C2B",
"o. c #767920",
"O. c #7A7B23",
"+. c #787525",
"@. c #6A6436",
"#. c #786936",
"$. c #67763B",
"%. c #7F7334",
"&. c #3C3D45",
"*. c #3F4246",
"=. c #41424A",
"-. c #4A464A",
";. c #5B5558",
":. c #574E51",
">. c #675847",
",. c #695958",
"<. c #715A56",
"1. c #73564E",
"2. c #5B684B",
"3. c #6E6048",
"4. c #7D6A4C",
"5. c #756745",
"6. c #7B7E47",
"7. c #767A44",
"8. c #677552",
"9. c #716952",
"0. c #7B6663",
"q. c #757375",
"w. c #6B696A",
"e. c #83452E",
"r. c #864831",
"t. c #894A32",
"y. c #844731",
"u. c #8C523C",
"i. c #91533B",
"p. c #827B2D",
"a. c #857B32",
"s. c #897E35",
"d. c #8A793D",
"f. c #816E3E",
"g. c #8A5943",
"h. c #925A45",
"j. c #9D5F48",
"k. c #985D48",
"l. c #836C4C",
"z. c #886A47",
"x. c #9C624C",
"c. c #96694B",
"v. c #877447",
"b. c #947B4C",
"n. c #9A7B4A",
"m. c #917748",
"M. c #856B59",
"N. c #9F6751",
"B. c #897455",
"V. c #927653",
"C. c #9C7B52",
"Z. c #967858",
"A. c #A46A53",
"S. c #A7795B",
"D. c #A1644D",
"F. c #866C65",
"G. c #997669",
"H. c #8A7975",
"J. c #8E7164",
"K. c #A97A65",
"L. c #B37B65",
"P. c #A37C71",
"I. c #728B1C",
"U. c #758823",
"Y. c #7E804A",
"T. c #778659",
"R. c #6D8348",
"E. c #738360",
"W. c #91A714",
"Q. c #8F803B",
"!. c #90813C",
"~. c #97A90C",
"^. c #B2C80D",
"/. c #ECFF00",
"(. c #83824C",
"). c #8C834B",
"_. c #988347",
"`. c #958655",
"'. c #9E8351",
"]. c #998658",
"[. c #888351",
"{. c #A28453",
"}. c #A5825B",
"|. c #A9865D",
" X c #AB8B5C",
".X c #A38956",
"XX c #A1844F",
"oX c #9F8B64",
"OX c #91966B",
"+X c #AD8565",
"@X c #AA846A",
"#X c #A78864",
"$X c #B28466",
"%X c #B38D63",
"&X c #B3836A",
"*X c #BB856D",
"=X c #B48C6A",
"-X c #BD896E",
";X c #AC926B",
":X c #B9916B",
">X c #B5916A",
",X c #AB8375",
"<X c #AE9B7C",
"1X c #BE8A74",
"2X c #9EA87D",
"3X c #A0A77F",
"4X c #928E8E",
"5X c #989696",
"6X c #8E8F80",
"7X c #B09A92",
"8X c #B6B18E",
"9X c #AAA8A8",
"0X c #B3AEAD",
"qX c #B9B1AE",
"wX c #B9B6B6",
"eX c #CDB3AA",
"rX c #D3B4A9",
"tX c #C0BFBF",
"yX c #D4BEB7",
"uX c #C5AEA6",
"iX c #C9AD91",
"pX c #BCC19C",
"aX c #CBC9C9",
/* pixels */
"J J J J J J J J J J J J J J J J J J J J J J J J J J J J J J J J J J J J J J J J J J J J J J J J J J J J J J J J J J J J J J J J ",
"J J J J J J J J J J J J J J J J J J J J J J J J J J J J J J J J J J J J J J J J J J J J J J J J J J J J J J J J J J J J J J J J ",
"J J J J J J J J J J J J J J J J J J J J J J J J J J J J J J J J J J J J J J J J J J J J J J J J J J J J J J J J J J J J J J J J ",
"J J J J J J J J J J J J J J J J J J J J J J J J J J J J J J J J J J J J J J J J J J J J J J J J J J J J J J J J J J J J J J J J ",
"J J J J J J J J J J J J J J J J J J J J J J J J J J J J J J J J J J J J J J J J J J J J J J J J J J J J J J J J J J J J J J J J ",
"J J J J J J J J J J J J J J J J J J J J J J J J J J J J J J J J J J J J J J J J J J J J J J J J J J J J J J J J J J J J J J J J ",
"J J J J J J J J J J J J J J J J J J J J J J J J J J J J J J J J J J O.'.}.a.J O.K J J J J J J J J J J J J J J J J J J J J J J J ",
"J J J J J J J J J J J J J J J J J J J J J J J J J J J J J J J J J J .XH.F.%X Xa.o.K J J J J J J J J J J J J J J J J J J J J J J ",
"J J J J J J J J J J J J J J J J J J J J J J J J J J J J J J J J J J  X0.-.0.0.B.O.J J K J J J J J J J J J J J J J J J J J J J J ",
"J J J J J J J J J J J J J J J J J J J J J J J s.C.#X#X'.J J G F F G p.4.:.&.=.F.{.G O.U.O.J J J J J J J J J J J J J J J J J J J ",
"J J J J J J J J J J J J J J J J J J J J J J J %X) j | =X:X:X:Xd.A D o._.Z.> &.F.{.s.o.O.K J a. Xa.J J J J J J J J J J J J J J J ",
"J J J J J J J J J J J J J J J J J J J J G G G %X) d k $.7.7.7.|.X.N S G P.> > -.0.#Xp.J J J ).[. XJ J J J J J J J J J J J J J J ",
"J J J J J J J J J J J J J J J J J J J G D A D a.v.R + z I I { (.6.].v.Z @XT > , -.Z._.+.J p.v.$.:XJ J J J J J J J J J J J J J J ",
"J J J J J J J J J J J J J J J J J J J F A M N A a.B.L # + f ] { { $.Z.@X].{ x < x [ `._.a. XB.$.:XJ J J J J J J J J J J J J J J ",
"J J J J J J J J J J J J J J J J J J J F C m m m N v.#XL + + + ` { [ k  .| { [ ' [ { | [. X6.I E =XJ J J J J J J J J J J J J J J ",
"J J J J J J J J J J J J J J J J J J J G D N m c c c v.Z.R + + h I { ` z I { { { { { { } ) } I L =XJ J J J J J J J J J J J J J J ",
"J J J J J J J J J J J J J J J J J J J J F A N b c c c #.l.R + + h ` { z n W.W.I.` { U.I.j I g L =XJ J J J J J J J J J J J J J J ",
"J J J J J J J J J J J J J J J J J J J J J F A N b c c c #.V.l + + f ] z H /./.~.f ] ^.^.' h # R %XJ J J J J J J J J J J J J J J ",
"J J J J J J J J J J J J J J J J J J J J J J F A N b c c c v.@XE + + f d H /./.~.+ f ~.^.f + >.C.Q.J J J J J J J J J J J J J J J ",
"J J J J J J J J J J J J J J J J J J J J J J J F A N b c c c #.l.R + + + n W.W.I.z + H H + + 4..XJ J J J J J J J J J J J J J J J ",
"J J J J J J J J J J J J J J J J J J J J J J J J F A v.L.*X*X*X*Xl.+ O + + + I ' ' g h f + L B.O.J J J J J J J J J J J J J J J J ",
"J J J J J J J J J J J J J J J J J J J J J s.%X%X%X%X+Xk.t.t.t.t._ + X o + + + z { { { I f #X_.J J J J J J J J J J J J J J J J J ",
"J J J J J J J J J J J J J J J J J J J J Q.`.Y.Y.Y.Y.6.@.Y P r.a 7 + . 8.E.X + f z { { $.V.'.J J J J J J J J J J J J J J J J J J ",
"J J J J J J J J J J J J J J J J J J '.#X#X6.' I I I I I h 6 r.! y $ o 2.8.. o + d I ] Y.%XJ J J J J J J J J J J J J J J J J J J ",
"J J J J J J J J J J J J J J J J O.'.].{ [ ' ` + + + + + + 6 e.r.! 8 # o o = + + + + I 6.%XJ J J J J J J J J J J J J J J J J J J ",
"J J J J J J J J J J J J J J J +.{.`.$.[ g f f + + + + + + $ t e.r.Q # + E 8XT o + + d @.%XJ J J J J J J J J J J J J J J J J J J ",
"J J J J J J J J J J J J J G F .XiXT.] z d R 5.B.B.B.l.P 6 7 a e.t.e.7 $ U T.l T T.+ O ) %XJ J J J J J J J J J J J J J J J J J J ",
"J J J J J J J J _.K.K.C.s.F #XiXpXOX .+ L l.#.c c B z./ t i t.t.t.e.t 6 # + @ 2.6X+ o R |.XXJ J J J J J J J J J J J J J J J J J ",
"J J J J J J J J &X5 2 ( %X%X8XpXpX3X8.l @Xf.b c c c &X/ a t.t.t.t.e.t 9 7 + x =.*.+ + g | >X_.J J J J J J J J J J J J J J J J J ",
"J J J J J G G J &X5   5 ( <XpX8X3XOXOXV.b.C N m c c z.S.x.t.t.t.t.r.e.u 8 7 e &.< q $ d k $.`.Q.J J J J J J J J J J J J J J J J ",
"J J J J F D D F n.g.P v v T.2X8X<X<XoXd.F F A M c c c V.A.t.t.t.e.! ! s 9 9 e e r y ( R + z 7.`._.J J J J J J J J J J J J J J J ",
"J J J J D C M C ..{.v.' { { R.OX#X{.p.J J J D N m c c Y z.u.e.e.i 9 9 9 9 9 0 r t Q S.V.L # z $.%X:X:X=X_.J J J J J J J J J J J ",
"J J J J D N m m N }.5.z { { | } L Z.J J J J F A M b c c @.c.t t t 9 9 9 9 9 y y ! K.b.b.@XL + k $.$.$.$.%X Xp.J J J J J J J J J ",
"J J J J F A m b c ~ l.5.z z z g + Z.J J J J J F N m c @.M.1.4 4 4 4 4 4 4 4 4 / c.v.N A m.V.B.4.U z z U 6.[.)._.K J J J J J J J ",
"J J J J G D N b c c ~ 5.+ + O = 2.,XJ J J J J G A Z.,X,X<., % 3 3 3 3 3 3 3 3 ( Z.v.m N C D X.b.) U h g I ` $.:XJ J J J J J J J ",
"J J J J J F A m c c c G.+ + % W aXrXJ J J J Q.=X=XJ.=.=.=.&.& q 9 9 9 9 9 9 9 w :.&X$X#.M M N #.+X(.{ ' h + E >XJ J J J J J J J ",
"J J J J J G D N b c c V.K.w W 6XaXrXs.J J J #X,.,.:.=.=.=.&.& y e.e.e.e.a 9 9 w -.,.,.0.v.b c m |.(.` k B.>.E =XJ J J J J J J J ",
"J J J J J J F C m c c c =XG.H.5X0XeX8Xs.G F ,X-.=.=.=., , > & ^ t.t.t.e.u 9 q e =.=.=.;.F.V.c c }.7.E 5.b.v.4._.J J J J J J J J ",
"J J J J J J G D N b c c #XyXqX5X4XwXyX%XD b.G.-.=.=.&.- & & & y / r.e.u 9 9 * > =.=.=.=.-.G.v.c V.4.4.{.J J J J J J J J J J J J ",
"J J J J J J J F C m c c #.;XeXtX4XwXyX#X..3.-.=.=.=.&.- & & & & w e.s 9 9 9 * > =.=.=.=.=.-.F.v...b.b.+.J J J J J J J J J J J J ",
"J J J J J J J J D N b c m ..;XeXwX0XqXyX#XF.=.=.=.&.: & & & & & r e.t 9 q 0 & - > *.=.=.=.=.;.M.b.D D F J J J J J J J J J J J J ",
"J J J J J J J J J F B b v m ..;XyXqX9XwX7X0.=.=.&.> & & & & & & 0 ! t 9 q & & & - &.=.=.=.=.=.:.G.'.G J J J J J J J J J J J J J ",
"J J J J J J J J J G S B c v M a.%XyXwX4X4Xw.-.=.: & & & & & & & 0 9 9 t w ; ; & - &.=.=.=.=.=.=.=.P.J J J J J J J J J J J J J J ",
"J J J J J J K O.o.F D A m c m S %.;XeXtX5X9X5X> & & & & & & & w u 9 9 x.z.P.P.<.& - - > =.=., - - G.J J J J J J J J J J J J J J ",
"J J J J J J J K O.o.F D N M m M M V oXrXqX0X5X;.q.;.& & & , <.( u u k.c.Y c ~ l.<.; & : =., 1 & & G.J J J J J J J J J J J J J J ",
"J J J J J J J G G o.J F C N m c c b m.1XuX7XH.q.9X5X-.- < <.C.u.u u.S.~ c c c z.K.e * < -.< * * * G.J J J J J J J J J J J J J J ",
"J J J J J J J J G G J J G C M m c c L.u.u./ w : q.9XwX=.M.V.+Xu.h.}.%.N m c c A.u y 8 u y.t 8 8 8 K.J J J J J J J J J J J J J J ",
"J J J J J J J J J G G K o.G D N m ~ c.t.t.i 8 q -.;.w.F.B.m %.S.C.p.F D N b ~ g.9 9 u e.r.s 9 ! A.{.J J J J J J J J J J J J J J ",
"J J J J J J J J J J J K G G D N ..C.A.t.t.i 9 9 ^ >.<.V.M N D G J J G D N #.S.j.u u e.e.! u.h.N.XXJ J J J J J J J J J J J J J J ",
"J J J J J J J J J J J G G G D N }.A.t.t.r.i 9 9 L. X.XX.A D G J J J G D M $Xj.t.t.t.r.! Q $X%X.XO.J J J J J J J J J J J J J J J ",
"J J J J J J J J J J J J J F C m S.A.t.r.u t 9 9 L.G G F F G J J J J F N m +Xj.t.t.t.a u.S.n.J J J J J J J J J J J J J J J J J J ",
"J J J J J J J J J J J J G D N b S.A.t.r.s 9 Q N.n.J J J J J J J J G D M b +Xj.t.e.a h.c.d.G J J J J J J J J J J J J J J J J J J ",
"J J J J J J J J J J J J F A m v.&Xx.e.! t Q k.|.O.J J J J J J J J F C m c +Xj.e.! t x.n.a.J J J J J J J J J J J J J J J J J J J ",
"J J J J J J J J J J J J +.C.+XS.i.t.! 9 9 N.{.p.J J J J J J J J J D N b c +Xj.a 9 9 t h.%Xs.J J J J J J J J J J J J J J J J J J ",
"J J J J J J J J J J J J '.S.D.j.t.! s s A.n.O.J J J J J J J J J J D N b c $Xu.t 9 9 9 p h.S.O.J J J J J J J J J J J J J J J J J ",
"J J J J J J J J J J J n.S.i.t.e.! s 9 u *XJ J J J J J J J J J J J D N b b #.c.k.g.t 9 9 t x.n.J J J J J J J J J J J J J J J J J ",
"J J J J J J J J J F D L.i.i.i.t.! p p / $XJ J J J J J J J J J J J D N b c m X.|.S.y.p p p p N.J J J J J J J J J J J J J J J J J ",
"J J J J J J J G F A N m.*X*X*X*X*X*X*X$X_.J J J J J J J J J J J J F C m b c c B v.$X*X-X*X*X_.J J J J J J J J J J J J J J J J J ",
"J J J J J J J F A M m b c c c M A G J J J J J J J J J J J J J J J G D C M m c v m A G o.K J J J J J J J J J J J J J J J J J J J ",
"J J J J J J J F A N M M M M M C D J J J J J J J J J J J J J J J J J G F A N M M N S G F G J J J J J J J J J J J J J J J J J J J ",
"J J J J J J J F D D D D D D S D G J J J J J J J J J J J J J J J J J J J G D D D D C A G J J J J J J J J J J J J J J J J J J J J ",
"J J J J J J J J J J J J J J G G J J J J J J J J J J J J J J J J J J J J J J J J J J J J J J J J J J J J J J J J J J J J J J J J ",
"J J J J J J J J J J J J J J J J J J J J J J J J J J J J J J J J J J J J J J J J J J J J J J J J J J J J J J J J J J J J J J J J ",
"J J J J J J J J J J J J J J J J J J J J J J J J J J J J J J J J J J J J J J J J J J J J J J J J J J J J J J J J J J J J J J J J "
};
