/* XPM */
static const char *RW5lbXlfQXR0YWNrX0xlZnRfMg__[] = {
/* columns rows colors chars-per-pixel */
"64 64 227 2 ",
"   c #2D3D1A",
".  c #263415",
"X  c #373D1C",
"o  c #3D2116",
"O  c #29292D",
"+  c #392E2D",
"@  c #363639",
"#  c #2E2E33",
"$  c #4C2414",
"%  c #592A18",
"&  c #542A1A",
"*  c #4A3B1C",
"=  c #6A331E",
"-  c #64341E",
";  c #493629",
":  c #443A38",
">  c #553227",
",  c #6C3521",
"<  c #673928",
"1  c #743B25",
"2  c #753E2A",
"3  c #7A3F28",
"4  c #783E27",
"5  c #6B3F30",
"6  c #2F401A",
"7  c #32421C",
"8  c #374A1B",
"9  c #3A501F",
"0  c #3B4523",
"q  c #3B4D21",
"w  c #394727",
"e  c #3D5321",
"r  c #394135",
"t  c #4B4D12",
"y  c #4F5113",
"u  c #465C1E",
"i  c #535514",
"p  c #565914",
"a  c #5A5D16",
"s  c #5A5A1B",
"d  c #55431F",
"f  c #5E6116",
"g  c #566916",
"h  c #5A731E",
"j  c #616417",
"k  c #636619",
"l  c #666918",
"z  c #6A6D19",
"x  c #666D17",
"c  c #6E711A",
"v  c #72751B",
"b  c #76791F",
"n  c #474A28",
"m  c #594123",
"M  c #415424",
"N  c #475928",
"B  c #444F33",
"V  c #565833",
"C  c #505135",
"Z  c #7D422C",
"A  c #78492E",
"S  c #655D27",
"D  c #6A4234",
"F  c #734332",
"G  c #7A4836",
"H  c #635D3C",
"J  c #7A583A",
"K  c #4C642B",
"L  c #4E6B2A",
"P  c #476226",
"I  c #53692C",
"U  c #57752B",
"Y  c #5B6836",
"T  c #5B7532",
"R  c #676528",
"E  c #766D2A",
"W  c #677622",
"Q  c #737423",
"!  c #767A21",
"~  c #797B22",
"^  c #7B752B",
"/  c #7D7C2B",
"(  c #757629",
")  c #69663B",
"_  c #756736",
"`  c #65773A",
"'  c #797935",
"]  c #3C3D44",
"[  c #483F41",
"{  c #3F4147",
"}  c #42424A",
"|  c #4B474C",
" . c #544544",
".. c #514C51",
"X. c #575659",
"o. c #535051",
"O. c #6D584D",
"+. c #5E6A52",
"@. c #6E6343",
"#. c #7D6A4B",
"$. c #766648",
"%. c #6D7240",
"&. c #757843",
"*. c #6C7352",
"=. c #5E5D61",
"-. c #7A7676",
";. c #756767",
":. c #83452E",
">. c #834934",
",. c #884931",
"<. c #874F3B",
"1. c #8A523D",
"2. c #827A2D",
"3. c #816E3E",
"4. c #867C33",
"5. c #8B7D3B",
"6. c #887A38",
"7. c #975C47",
"8. c #8D5845",
"9. c #856B49",
"0. c #97674A",
"q. c #8C744B",
"w. c #867748",
"e. c #937C4D",
"r. c #99774D",
"t. c #886855",
"y. c #9C6553",
"u. c #8A7554",
"i. c #977A57",
"p. c #A1634C",
"a. c #A46A54",
"s. c #A57758",
"d. c #886D66",
"f. c #987869",
"g. c #887771",
"h. c #B57A63",
"j. c #A57F73",
"k. c #AA7968",
"l. c #7E8125",
"z. c #7E802E",
"x. c #788D27",
"c. c #7E814B",
"v. c #798762",
"b. c #8A8139",
"n. c #90823D",
"m. c #97AD11",
"M. c #D7EB05",
"N. c #C6DB09",
"B. c #85854D",
"V. c #97854A",
"C. c #8D8358",
"Z. c #9C8352",
"A. c #9A855B",
"S. c #978656",
"D. c #959858",
"F. c #A38554",
"G. c #A3855B",
"H. c #AA8A59",
"J. c #A38B56",
"K. c #AD905F",
"L. c #889468",
"P. c #9B9979",
"I. c #948E6C",
"U. c #A48B64",
"Y. c #AB8B62",
"T. c #A98768",
"R. c #B98C6E",
"E. c #B58868",
"W. c #AB926A",
"Q. c #B3976E",
"!. c #AA8775",
"~. c #B98C73",
"^. c #A79778",
"/. c #B59372",
"(. c #BC9374",
"). c #BB9B76",
"_. c #BD9C7B",
"`. c #B69C79",
"'. c #9FA176",
"]. c #A2A272",
"[. c #C39478",
"{. c #868584",
"}. c #959599",
"|. c #A79B81",
" X c #B89985",
".X c #BA9B92",
"XX c #AAA68B",
"oX c #B3B187",
"OX c #ACA594",
"+X c #ADB08B",
"@X c #9CA5A6",
"#X c #B2AEAB",
"$X c #B8B6B6",
"%X c #B4ADAA",
"&X c #C39A84",
"*X c #C2A485",
"=X c #C9A58B",
"-X c #C8AA94",
";X c #CDB198",
":X c #CEAEA3",
">X c #CAB8A5",
",X c #D7B7A7",
"<X c #D4BAB7",
"1X c #D7C2AD",
"2X c #D5C4BD",
"3X c #E4C7BB",
"4X c #C9C8C8",
"5X c #DBCCC7",
"6X c #D8D7D8",
"7X c #EACDC4",
"8X c #EDD4CC",
"9X c #EAD1C9",
"0X c #EFD9D2",
"qX c #ECD7D1",
"wX c #F0DCD5",
"eX c #F2DFD9",
"rX c #F2E1DA",
"tX c #E8E6E6",
"yX c #F6E9E5",
"uX c #F8EEEA",
"iX c #F6EAE6",
"pX c #F8F0ED",
"aX c #F4F4F4",
"sX c #FBF5F3",
"dX c #FCF8F7",
"fX c #FFFFFF",
"gX c #F7F7F8",
/* pixels */
"v v v v v v v v v v v v v v v v v v v v v v v v v v v v v v v v v v v v v v v v v v v v v v v v v v v v v v v v v v v v v v v v ",
"v v v v v v v v v v v v v v v v v v v v v v v v v v v v v v v v v v v v v v v v v v v v v v v v v v v v v v v v v v v v v v v v ",
"v v v v v v v v v v v v v v v v v v v v v v v v v v v v v v v v v v v v v v v v v v v v v v v v v v v v v v v v v v v v v v v v ",
"v v v v v v v v v v v v v v v v v v v v v v v v v v v v v v v v v v v v v v v v v v v v v v v v v v v v v v v v v v v v v v v v ",
"v v v v v v v v v v v v v v v v v v v v v v v v v v v v v v v v v v v v v v v v v v v v v v v v v v v v v v v v v v v v v v v v ",
"v v v v v v v v v v v v v v v v v v v v v v v v v v v v v v v v v v v v v v v v v v v v v v v v v v v v v v v v v v v v v v v v ",
"v v v v v v v v v v v v v v v v v v v v v v v v v v v v v v v v v v v v v v v ~ b v v v v v v v v v v v v v v v v v v v v v v v ",
"v v v v v v v v v v v v v v v v v v v v v v v v v v v v v v v v v v v v b v v b ! b v v v v v v 4.W.=X*XY.b.z.z.z./ v v v v v v ",
"v v v v v v v v v v v v v v v v v v v v v v v v v v v v v v v v v v v ! l.~ b c c v v b v v v V.-X<X5XqX7X1X7X7X7X,XJ.v v v v v ",
"v v v v v v v v v v v v v v v v v v v v v v v v v v v v v v v v v v v v ! ~ ! c x c ~ l.~ ~ F.=X<X6XaXfXfXfXfXfXfXuX,XK.2.v v v ",
"v v v v v v v v v v v v v v v v v v v v v v v v v v v v v v v v v b ~ ! c v ! b c v ! ~ V.-X<X%X4XtXfXfXfXfXfXfXfXfXsX8X;XV.v v ",
"v v v v v v v v v v v v v v v v v v v v v v v 2.i.' v v v v v v v v ! ~ ! c c v b ! ! V.-X5X$X#XtXdXfXfXfXfXfXfXfXfXfXdXrX*Xv v ",
"v v v v v v v v v v v v v v ! z./ v v v v F.j.j.;.u.v v v v v v v v c c ! b c x c Z.*X,X2X4X#X4XaXfXfXfXfXfXfXfXfXfXfXfXuX1XJ.v ",
"v v v v v v v v v v v v v ! B.OX^.' v v v [.| ] O.i.v v v v ~ V.U.e.2.c c v v F.U.^.XX$X$X#X6XgXfXfXfXfXfXfXfXfXfXfXfXfXfXpX=Xv ",
"v v v v v v v v v v v v v ' |./.&X^.c z e.T.} @ !.4.v n.Y.(.(.C.M @.H.v c c H.(.I P B {.@X4XdXfXfXfXfXfXfXfXfXfXfXfXfXfXfXpX=Xv ",
"v v v v v v v v v v v v v v '  Xc.Y.l w.i.o.@ r !.4.Z.U.&.I P e n 9.2.v c J.`.` 6   B %XaXfXfXfXfXfXfXfXfXfXfXfXfXfXfXfXfXpX=Xv ",
"v v v v v v v v v v v v v v c U.` G._ C.` B r K A.A.w.T I e 6 0 u.V.v z e.`.+XL.V C @.!.0XdXfXfXfXfXfXfXfXfXfXfXfXfXfXfXdXrX).v ",
"v v v v v v v v v v v c c c v R.M &.w.&.U L L U Y Y I L e 7 0 $.Z.c V._.*XoXP.P.i.i.i._ `.0XfXfXfXfXfXfXfXfXfXfXfXfXfXdXeX-Xn.v ",
"v v v v v v v v v v v z l l c ~.8 N I x.U L x.x.u N P 8   n u.Z./ z /.oX+X'.^.G.3.t t t S T.pXfXfXfXfXfXfXfXfXfXfXfXfXrX=Xn.v v ",
"v v v v v v v v v v v l j j l E.n q h m.W u N.N.g e e   0 #.Z.c 5.U.A.L.v.*./.E a i t t t R.uXfXfXfXfXfXfXfXfXfXfXfXdX8XQ.v v v ",
"v v v v v v v v v v v k a p p q.#.0 g m.g 9 M.M.g 7 7 7 #.e.( F.A.&.` Y V H E.z l a i t t R.uXfXfXfXfXfXfXfXfXfXfXdXyX-X4.v v v ",
"v v v v v v v v v v v k p y i y i.0   6 7 P U 9     7 f.F.( (.A.U N   $.e.E.5.v c k p t t R.uXfXfXfXfXfXfXfXfXfX0XY.[.V.v v v v ",
"v v v v v v v v v v v l p y t t q.u.n P L L 8   . .   k.F.A.` ` N ) i.Z./ v v v v l p t S i.uXfXfXfXfXfXfXfXfXfX8XH.v v v v v v ",
"v v v v v v v v v v v z f i t t _ 0.J I P 9   . +.B 0 i.C.` L K 9.q.6.v v v v v v l a S !.8XdXfXfXfXfXfXfXfXsX0X).2.v v v v v v ",
"v v v v v v v v v v v c k p y _ s.7.A N e 6 .   B B H w.` I N @.i.( c v v v v v v l a U.9XsXfXfXfXfXfXfXdXsXwX*X5.v v v v v v v ",
"v v v v v v v v v v v v z a 3.T.p.A m 8 6 7 . *.q M ` ` K ) $.q.6.v v v v v v v c k _  XyXfXfXfXfXfXfXdXrX1X*X4.v v v v v v v v ",
"v v v v v v v v v v v v z f G.&.,.A X . w v.. C q N N q #.e.6.v v v v v v v v c l a /.eXdXfXfXfXfXfXfX9XQ.n.v v v v v v v v v v ",
"v v v v v v v v v v v c k _ w.n ,.Z m   w +.@   * d n $.e.^ v v v v v v v v v z f A.3XdXfXfXfXfXfXdXrX_.^ v v v v v v v v v v v ",
"v v v v v v v v v v c 6.A.i.H X ,.,.A m ; : { ; - < J i.^ v v v v v v v v v c ^ /.3XuXfXfXfXfXfXeX1X-X5.v v v v v v v v v v v v ",
"v v v v v v v v v c 6.S.%.M n t.,.,.,.:.2 > @ - = 2 y.5.v v v v v v v v v c l Y.wXdXfXfXfXfXfX0X/.6.c v v v v v v v v v v v v v ",
"v v v v v v v ~ F.F.G.%.e n u.q.,.,.:.Z 4 , ; , = 2 a.v v v v v v v v v c ^ W.3XdXfXfXfXdXrX8X`.2.v v v v v v v v v v v v v v v ",
"v v v v v v 5.S.C.C.&.q V #.9.s.y.Z 1 = = = = = 1 7.r.v v v v v v v v / `.3X0XfXfXfXsX8X>X_.G.^ v v v v v v v v v v v v v v v v ",
"v v v v 2.V.U.%.N N K @.$._ t S 0., % % % % % % D s.2.v v v v v v v 2.`.8XsXfXfXfXsX0X/.E z c v v v v v v v v v v v v v v v v v ",
"v v v c F.u.P M q C #.G.R t t t s.% $ $ $ $ $ o  .d.G.4.v v v v 4.).,X8XsXfXfXfXyX8X`.^ c v v v v v v v v v v v v v v v v v v v ",
"v c z l F.$.H V I C.Z.l a i t s 9.5 < Z 3 4 4 + ] ..;.G.v v 2.).3XwXdXdXfXsX8X9XY.Y.2.c v v v v v v v v v v v v v v v v v v v v ",
"c l f p R _ q.9.Y u.F.z j i t q.d.C < :.:.>.5 + @ } ..!.~ Q.,X8XsXdXfXfXsX8XW.W.^ c v v v v v v v v v v v v v v v v v v v v v v ",
"z k p i y i a 6.#._ ~ c k i i.j...[ < :.,.F + O # ] | !._.7XuXsXfXfXdXyX8X`.^ c v v v v v v v v v v v v v v v v v v v v v v v v ",
"z k p i i a l c v v v z j i.f.} } C 2 A 5 + O O # ] =..XeXfXfXfXsXyX8XY.F.^ c v v v v v v v v v v v v v v v v v v v v v v v v v ",
"c z k f a k z v v v v l a j.} }  .>.,.F : O O O @ X.#XfXfXfXfXfX3XR.G.^ c v v v v v v v v v v v v v v v v v v v ~ v v v v v v v ",
"v c z z l l c v v c z f i j.} } : F Z 8.t. .X.=.4XaXdXfXfXsXyX1XG.l c v v v v v v v v v v v v v v v v ! ~ b v v ~ b v v v v v v ",
"v v v c c c v v v z f i _ t.} ] # ; 5 t.f.-.6X6XgXfXfXtXtX3X*XV.z c v v v v v v v v v v v v v v v v v b l.~ b v c ! v v ~ v v v ",
"v v v v v v v v c k p 9.d.=.} ] O + O..X5X6XfXfXdXtX6X}..XQ.z c v v v v v v v v v v v v v v v v v v v v c ! ! L.L.( b b c v v v ",
"v v v v v v v v c j S $.X.} ] @ o.-.4XpXfXfXfX6X4X{.X...f.^ v v v v v v v v v v v v v v v v v v v v v ~ v c ! U.@X( ! ! x v v v ",
"v v v v v v ~ ! c a r.d.| } { X.4X6XgXfXdXsXsX-.X.[ @ | f.v v v v v v v v v v v v v v v v v v v v v v c I.P.( ( &.v c c c v v v ",
"v v v v v v b ! l s e.d.| } ;.4XfXfXfXuX<X,X,X| ; > 5 G k.v v v v v v v v v v v v v v v v v v v v v v I.W.W.P.W I.P.Q c v v v v ",
"v v v v v v c k s i h.O.{.4XtXfXyX:X,X&X9.t R.G , , 3 ,.h.v v v v v v v v v v v v v v v v v v v v v v ' |.OXB.P.W.%X~ v v v v v ",
"v v v v v v Q f y 9.=X4X6XgX6Xg.<XI.i y t t R.>.= , 3 ,.h.v v v v v v v v v v v v v v v v v v v v v v c ' ' v OXOXc.v v v v v v ",
"v v v v v v ' U./.;XqXtX>X.X-Xf.i.R a i t t R.>.= = Z s.F.v v v v v v v v v v v v v v v v v v v v v v v c c v ' ' c v v v v v v ",
"v b ~ / / b.-X7X3X:X X!.t.y.R.E P.L.k p t t E.<., , :.E.v v v v v v v v v v v v v v v v v v v v v v v v v v v c c v v v v v v v ",
"v / D.oXoX>X7X7X:Xk.Z = = 8./.^.U.W.C.a t t _ 0.2 , :.E.b.v v v v v v v v v v v v v v v v v v v v v v v v v v v v v v v v v v v ",
"v ( D.].].].U.i.k.Z 1 = <.!.|.B.OXP.R a t t i R.>.= Z 0.s.v v v v v v v v v v v v v v v v v v v v v v v v v v v v v v v v v v v ",
"z z z l k s s 0.8.1 = = y.~.XXQ ' ( l a y t i R.>.= 1 ,.h.v v v v v v v v v v v v v v v v v v v v v v v v v v v v v v v v v v v ",
"l l l j p y q.s.3 = = >.j.|.( v c v c k i t i r.y.Z , :.h.5.v v v v v v v v v v v v v v v v v v v v v v v v v v v v v v v v v v ",
"l l l k p _ s.7.4 = = a.e.( v v v v v l p t y R r.a.>.:.p.0.s.2.v v v v v v v v v v v v v v v v v v v v v v v v v v v v v v v v ",
"z c z k p T.7.Z 1 Z 1.r.v v v v v v v z a y t i k s.y.3 :.,.a.F.v v v v v v v v v v v v v v v v v v v v v v v v v v v v v v v v ",
"v v z f i _ 0.7.y.0.E.b.v v v v v v v z k p y i a E 0.0.a.a.a.r.v v v v ! l.b v v v v v v v v v v v v v v v v v v v v v v v v v ",
"v c k p y t S F.F.( v v v v v v v v v c z f i i i f ^ H.H.H.H.2.v v v v v ~ ~ ! b v v ~ l.b v v v v v v v v v v v v v v v v v v ",
"v z k p i p f l c v v v v v v v v v v v c l a i i p j z v v v v v v v v v c v ! b v b l.b v v v v v v v v v v v v v v v v v v v ",
"v c l f f k l c v v v v v v v v v v v v v c l j a f k z v v v v v v v v v v c x c b ! ! b v v v v v v v v v v v v v v v v v v v ",
"v v c z z c v v v v v v v v v v v v v v v v c z z z z c v v v v v v v v v v v v v b ! c c v v v v v v v v v v v v v v v v v v v ",
"v v v v v v v v v v v v v v v v v v v v v v v v v v v v v v v v v v v v v v v v v c x c v v v v v v v v v v v v v v v v v v v v ",
"v v v v v v v v v v v v v v v v v v v v v v v v v v v v v v v v v v v v v v v v v v v v v v v v v v v v v v v v v v v v v v v v ",
"v v v v v v v v v v v v v v v v v v v v v v v v v v v v v v v v v v v v v v v v v v v v v v v v v v v v v v v v v v v v v v v v ",
"v v v v v v v v v v v v v v v v v v v v v v v v v v v v v v v v v v v v v v v v v v v v v v v v v v v v v v v v v v v v v v v v "
};
