/* XPM */
static const char *RW5lbXlfQXR0YWNrX1JpZ2h0XzE_[] = {
/* columns rows colors chars-per-pixel */
"64 64 221 2 ",
"   c #3F1C0E",
".  c #212E11",
"X  c #253314",
"o  c #2A3917",
"O  c #2C3B19",
"+  c #2B3619",
"@  c #323D1C",
"#  c #3A3D1C",
"$  c #3C200F",
"%  c #28292D",
"&  c #352C2B",
"*  c #382B29",
"=  c #38362A",
"-  c #2C2D31",
";  c #302E31",
":  c #2F3035",
">  c #34353B",
",  c #37383E",
"<  c #393C36",
"1  c #2E362A",
"2  c #4C2313",
"3  c #512615",
"4  c #512C1F",
"5  c #49371B",
"6  c #6A331E",
"7  c #65331F",
"8  c #472D25",
"9  c #49312B",
"0  c #5B3726",
"q  c #443939",
"w  c #583C34",
"e  c #6D3521",
"r  c #663824",
"t  c #733A24",
"y  c #753C27",
"u  c #623F33",
"i  c #2F401A",
"p  c #32431C",
"a  c #354A1D",
"s  c #394D1E",
"d  c #374716",
"f  c #3A4726",
"g  c #3D5321",
"h  c #3B403C",
"j  c #4B4D12",
"k  c #48421B",
"l  c #4E5113",
"z  c #455818",
"x  c #525414",
"c  c #5A5C15",
"v  c #565717",
"b  c #5E6116",
"n  c #5A6416",
"m  c #616317",
"M  c #646619",
"N  c #666A18",
"B  c #6A6D19",
"V  c #666C17",
"C  c #6E711A",
"Z  c #72751B",
"A  c #76791F",
"S  c #454B2A",
"D  c #4B4E2D",
"F  c #584426",
"G  c #425B24",
"H  c #46562A",
"J  c #5E5823",
"K  c #48453A",
"L  c #475736",
"P  c #565937",
"I  c #7D412B",
"U  c #72472C",
"Y  c #665D29",
"T  c #6C4131",
"R  c #7D4732",
"E  c #6C5A3D",
"W  c #4E6D2A",
"Q  c #496428",
"!  c #506E2D",
"~  c #53722C",
"^  c #58742F",
"/  c #596A35",
"(  c #5A7632",
")  c #6A6B28",
"_  c #697628",
"`  c #757423",
"'  c #767A21",
"]  c #7A7C22",
"[  c #777A2B",
"{  c #77792A",
"}  c #6C6134",
"|  c #796738",
" . c #647739",
".. c #7B7E31",
"X. c #777736",
"o. c #706B24",
"O. c #3C3D45",
"+. c #423F46",
"@. c #3F4048",
"#. c #41424A",
"$. c #474645",
"%. c #5D5355",
"&. c #4F4D46",
"*. c #6A5C44",
"=. c #675959",
"-. c #735E59",
";. c #596649",
":. c #686646",
">. c #7D684D",
",. c #747D42",
"<. c #787E49",
"1. c #776257",
"2. c #6E7158",
"3. c #7B7963",
"4. c #7A7B73",
"5. c #756363",
"6. c #83452E",
"7. c #884932",
"8. c #864B35",
"9. c #8F513A",
"0. c #91533B",
"q. c #837C2D",
"w. c #897D34",
"e. c #867937",
"r. c #855543",
"t. c #925A45",
"y. c #866D47",
"u. c #9D624C",
"i. c #956A4B",
"p. c #8A7649",
"a. c #957949",
"s. c #896C5C",
"d. c #826756",
"f. c #9D6854",
"g. c #8C7357",
"h. c #947B52",
"j. c #95795C",
"k. c #987856",
"l. c #A2644E",
"z. c #A76B56",
"x. c #A4745A",
"c. c #AB725C",
"v. c #A47B59",
"b. c #847A67",
"n. c #957764",
"m. c #8F6E60",
"M. c #A37E69",
"N. c #B47A65",
"B. c #B47867",
"V. c #A67F71",
"C. c #7A941D",
"Z. c #7A8C0E",
"A. c #7E8125",
"S. c #7F8237",
"D. c #6C8A25",
"F. c #6A8448",
"G. c #7D8243",
"H. c #7D865A",
"J. c #778665",
"K. c #849B14",
"L. c #92AB17",
"P. c #90813D",
"I. c #8E803A",
"U. c #B3C507",
"Y. c #CCDF05",
"T. c #D1E504",
"R. c #ECFF00",
"E. c #83854C",
"W. c #938143",
"Q. c #9C814A",
"!. c #988447",
"~. c #9E8453",
"^. c #958558",
"/. c #8C8554",
"(. c #A58953",
"). c #A6875A",
"_. c #838C66",
"`. c #85926D",
"'. c #94946B",
"]. c #97966A",
"[. c #968B72",
"{. c #8B947B",
"}. c #859671",
"|. c #989977",
" X c #8F8872",
".X c #AC846B",
"XX c #A78967",
"oX c #BB826C",
"OX c #B38B6B",
"+X c #B48967",
"@X c #A5916D",
"#X c #B59065",
"$X c #B9916A",
"%X c #B58B74",
"&X c #A29C7E",
"*X c #B89476",
"=X c #AE8474",
"-X c #9BA67A",
";X c #C3997B",
":X c #C19779",
">X c #9A9A88",
",X c #93968F",
"<X c #A29D82",
"1X c #A09D9D",
"2X c #B4968D",
"3X c #98A58E",
"4X c #A8A189",
"5X c #ABA598",
"6X c #ACAE90",
"7X c #9CA5A6",
"8X c #B1AFAF",
"9X c #B2A9A2",
"0X c #AEB1A8",
"qX c #CAA795",
"wX c #D5AEA0",
"eX c #CDB7AE",
"rX c #C4998E",
"tX c #BAC19B",
"yX c #C4C7BF",
"uX c #D4C8C4",
"iX c gray82",
/* pixels */
"Z Z Z Z Z Z Z Z Z Z Z Z Z Z Z Z Z Z Z Z Z Z Z Z Z Z Z Z Z Z Z Z Z Z Z Z Z Z Z Z Z Z Z Z Z Z Z Z Z Z Z Z Z Z Z Z Z Z Z Z Z Z Z Z ",
"Z Z Z Z Z Z Z Z Z Z Z Z Z Z Z Z Z Z Z Z Z Z Z Z Z Z Z Z Z Z Z Z Z Z Z Z Z Z Z Z Z Z Z Z Z Z Z Z Z Z Z Z Z Z Z Z Z Z Z Z Z Z Z Z ",
"Z Z Z Z Z Z Z Z Z Z Z Z Z Z Z Z Z Z Z Z Z Z Z Z Z Z Z Z Z Z Z Z Z Z Z Z Z Z Z Z Z Z Z Z Z Z Z Z Z Z Z Z Z Z Z Z Z Z Z Z Z Z Z Z ",
"Z Z Z Z Z Z Z Z Z Z Z Z Z Z Z Z Z Z Z Z Z Z Z Z Z Z Z Z Z Z Z Z Z Z Z Z Z Z Z Z Z Z Z Z Z Z Z Z Z Z Z Z Z Z Z Z Z Z Z Z Z Z Z Z ",
"Z Z Z Z Z Z Z Z Z Z Z Z Z Z Z Z Z Z Z Z Z Z Z Z Z Z Z Z Z Z Z Z Z Z Z Z Z Z Z Z Z Z Z Z Z Z Z Z Z Z Z Z Z Z Z Z Z Z Z Z Z Z Z Z ",
"Z Z Z Z Z Z Z Z Z Z Z Z Z Z Z Z Z Z Z Z Z Z Z Z Z Z Z Z Z Z Z Z Z Z Z Z Z Z Z Z Z Z Z Z Z Z Z Z Z Z Z Z Z Z Z Z Z Z Z Z Z Z Z Z ",
"Z Z Z Z Z Z Z Z Z Z Z Z Z Z Z Z Z Z Z Z Z Z Z Z Z Z Z Z Z Z Z Z Z Z Z Z Z Z Z ] A Z Z Z Z Z Z Z Z Z Z Z Z Z Z Z Z Z Z Z Z Z Z Z ",
"Z Z Z Z Z Z Z Z Z Z Z Z Z Z Z Z Z Z Z Z Z Z Z Z Z Z Z Z Z Z Z Z Z Z Z Z A Z Z A ' A Z Z Z Z Z Z Z Z Z Z Z Z Z Z Z Z Z Z Z Z Z Z ",
"Z Z Z Z Z Z Z Z Z Z Z Z Z Z Z Z Z Z Z Z Z Z Z Z Z Z Z Z Z Z Z Z Z Z Z W.OX!.A C C Z Z A Z Z Z Z Z Z Z Z Z Z Z Z Z Z Z Z Z Z Z Z ",
"Z Z Z Z Z Z Z Z Z Z Z Z Z Z Z Z Z Z Z Z Z Z Z Z Z Z Z Z Z Z Z Z Z Z Z n.5.OX#Xq.V C ] A.] Z Z Z Z Z Z Z Z Z Z Z Z Z Z Z Z Z Z Z ",
"Z Z Z Z Z Z Z Z Z Z Z Z Z Z Z Z Z Z Z Z Z Z Z Z Z Z Z Z Z Z Z Z Z A ] n.#.-.5.d.w.Z ' ] A Z Z Z Z Z Z Z Z Z Z Z Z Z Z Z Z Z Z Z ",
"Z Z Z Z Z Z Z Z Z Z Z Z Z Z Z Z Z Z Z Z Z Z Z ] a.XXXX(.Z Z Z B B C A j.=.+.@.-.$X' ' Z Z Z Z Z Z Z Z Z Z Z Z Z Z Z Z Z Z Z Z Z ",
"Z Z Z Z Z Z Z Z Z Z Z Z Z Z ' S...Z Z Z Z Z Z (.>.a W XX$X$X$Xe.m M N e.XX$.O.=.+XW.C C Z Z P.#XP.Z Z Z Z Z Z Z Z Z Z Z Z Z Z Z ",
"Z Z Z Z Z Z Z Z Z Z Z Z Z ' /.5X&X..Z Z Z C C (.>.O a / ,.,.,.^.e.c b m =X$.> +.=.M.q.Z Z Z ~.,.).q.Z Z Z Z Z Z Z Z Z Z Z Z Z Z ",
"Z Z Z Z Z Z Z Z Z Z Z Z Z ..<XXX@X'.Z C B m M ` y.*.O s G G ! <.p.^.h.b OXP < > O.>.^.w.Z Z XX( 6X*X] Z Z Z Z Z Z Z Z Z Z Z Z Z ",
"Z Z Z Z Z Z Z Z Z Z Z Z Z Z X.<X'.B Z C m c c b X.h.P p O i Q W ~ ~ ^..XXX .L < < Q E.~.W.~.^.! 0XeX(.Z Z Z Z Z Z Z Z Z Z Z Z Z ",
"Z Z Z Z Z Z Z Z Z Z Z Z Z Z C V B Z Z B m x l x c e..XP O O O G ~ ~ S H ( ^ ~ ! ! ~ ^ ,.+X/.Q f 4.2X(.{ Z Z Z Z A A Z Z Z Z Z Z ",
"Z Z Z Z Z Z Z Z Z Z Z Z Z Z Z Z Z Z Z C N c x j j j | g.:.O O p G ~ Q G g W ~ ~ ~ ~ ~ ^ } / Q @ 4.9XeX).Z Z Z ' A.] Z Z Z Z Z Z ",
"Z Z Z Z Z Z Z Z Z Z Z Z Z Z Z Z Z Z Z Z C N c x j j j Y y.E p O p G W G d C.L.C.G W D.C.z G g @ 4.8XuX;XZ Z ' ' ] Z Z Z Z Z Z Z ",
"Z Z Z Z Z Z Z Z Z Z Z Z Z Z Z Z Z Z Z Z Z C N c x j j j } k.P @ O O G G z T.R.U.O Q L.T._ s O f 4.8XuX;XZ S.E.{ C Z Z Z Z Z Z Z ",
"Z Z Z Z Z Z Z Z Z Z Z Z Z Z Z Z Z Z Z Z Z Z C N c x j j j | k.*.O O p p z T.R.U.O p K.Y.z O ;.0X,X8XuX;XG.>X>XH.' Z Z Z Z Z Z Z ",
"Z Z Z Z Z Z Z Z Z Z Z Z Z Z Z Z Z Z Z Z Z Z Z C N c x j j j Y y.:.O O O d Z.L.K.g p n Z.d O 2.iX1X8XuX;X`.[.@X{.[ Z Z Z Z Z Z Z ",
"Z Z Z Z Z Z Z Z Z Z Z Z Z Z Z Z Z Z Z Z Z Z Z Z C N c x j j v i.k.O o o O O g W ~ g a p O S 3.iX1X8XuX;XV _.{.) B Z Z Z Z Z Z Z ",
"Z Z Z Z Z Z Z Z Z Z Z Z Z Z Z Z Z Z Z Z Z Z Z Z Z C N c x J h.c.U O . X O O O s ~ ~ ~ Q i g.qXiX1X8XuX:XV B C V Z Z Z Z Z Z Z Z ",
"Z Z Z Z Z Z Z Z Z Z Z Z Z Z Z Z Z Z Z Z Z Z Z Z Z Z B M v k.z.8.r O . P }.f X i s W ~  .g.p.wXiX1X8XuX:XB ' Z C Z Z Z Z Z Z Z Z ",
"Z Z Z Z Z Z Z Z Z Z Z Z Z Z Z Z Z Z Z Z Z Z Z Z Z Z C N k.N.0.r 5 O X L J.+ X O O g Q  .+Xj wXiX1X8XuX;XZ A C Z Z Z Z Z Z Z Z Z ",
"Z Z Z Z Z Z Z Z Z Z Z Z Z Z Z Z Z Z Z Z Z Z Z Z Z C N b N.7.7.F O O O X . + O o O O g  .+Xj qXuX5X0XeX:XZ Z Z Z Z Z Z Z Z Z Z Z ",
"Z Z Z Z Z Z Z Z Z Z Z Z Z Z Z Z Z Z Z Z Z Z Z Z C N b x N.7.7.F O O O o f 3X;.X O O O D .X} ^.F.0X,X:.$XZ Z Z Z Z Z Z Z Z Z Z Z ",
"Z Z Z Z Z Z Z Z Z Z Z Z Z Z Z Z Z Z Z Z Z Z Z Z B b x j N.7.7.U F F # O f 2.S f `.f X S .Xh.<.^ 2.s.p.W.Z Z Z Z Z Z Z Z Z Z Z Z ",
"Z Z Z Z Z Z Z Z Z Z Z Z Z Z Z Z Z Z Z Z Z Z Z C m v j j N.7.7.7.7.7.0 @ O O + &.6XL X D *X].F.~ k E p..X~.Z Z Z Z Z Z Z Z Z Z Z ",
"Z Z Z Z Z Z Z Z Z Z Z Z Z Z Z Z Z Z Z Z Z Z Z C m x j j N.7.7.7.7.7.t 5 O O < #.#.1 O H 6XtX-X~ ~ G O O j.Z Z Z Z Z Z Z Z Z Z Z ",
"Z Z Z Z Z Z Z Z Z Z Z Z Z Z Z Z Z Z Z Z Z Z Z C m x j j N.7.7.7.7.7.6.F O O < O.> H g f '.-XH.s s p S k.~.Z Z Z Z Z Z Z Z Z Z Z ",
"Z Z Z Z Z Z Z Z Z Z Z Z Z Z Z Z Z Z Z Z Z Z Z C m x j j N.7.7.7.6.I I r 5 5 < , 1 g s f _.'.H./ f O D OXZ Z Z Z Z Z Z Z Z Z Z Z ",
"Z Z Z Z Z Z Z Z Z Z Z Z Z Z Z Z Z Z Z Z Z Z Z C m x j j N.R R 6.I 6 6 6 6 6 9 = @ f S P '.|.|.'.D + D OXZ Z Z Z Z Z Z Z Z Z Z Z ",
"Z Z Z Z Z Z Z Z Z Z Z Z Z Z Z Z Z Z Z Z Z Z Z C m x j | s.$.$.w e 6 6 6 6 6 r r 7 x..X.X*X*X*X%X0 $ 0 +XZ Z Z Z Z Z Z Z Z Z Z Z ",
"Z Z Z Z Z Z Z Z Z Z Z Z Z Z Z Z Z Z Z Z Z Z Z C m x | s.=.#.#.q 8 3 3 3 3 3 3 4 w -.s.} j j c +Xr   0 +XZ Z Z Z Z Z Z Z Z Z Z Z ",
"Z Z Z Z Z Z Z Z Z Z Z Z Z Z Z Z Z Z Z Z Z Z Z C m h.V.=.#.#.#.> & 2 2 2 2 2 2 8 #.#.1./.OXh.c ~.r.T r.(.Z Z Z Z Z Z Z Z Z Z Z Z ",
"Z Z Z Z Z Z Z Z Z Z Z Z Z Z Z Z Z Z Z Z Z Z Z B p.n.$.#.#.#.#.> * 6 6 6 6 6 6 0 #.#.L ~ ~ XX+X+X(.#X).q.Z Z Z Z Z Z Z Z Z Z Z Z ",
"Z Z Z Z Z Z Z Z Z Z Z Z Z Z Z Z Z Z Z Z Z Z B e.s.%.#.#.O.: : - * I 6.6.I e 6 0 #.#.$.$.$.:.,.<.).Z Z Z Z Z Z Z ] Z Z Z Z Z Z Z ",
"Z Z Z Z Z Z Z Z Z Z Z Z Z Z Z Z Z Z Z Z Z B p.n.=.#.#.#., % % % & w R 7.6.e 0 9 > @.#.#.#.&.L H OXZ Z ' ] A Z Z ] A Z Z Z Z Z Z ",
"Z Z Z Z Z Z Z Z Z Z Z Z Z Z Z Z Z Z Z Z B a..X%.#.#.O.O.> % % % % % T 7.6.e 8 % % , @.#.#.#.h f .XZ Z A A.] A Z C ' Z Z ] Z Z Z ",
"Z Z Z Z Z Z Z Z Z Z Z Z Z Z Z Z Z Z Z B e.m.&.#.#.O.- - % % % % % % T 7.6.e 8 % % % > #.#.#.#.#.=XI.Z Z C ' ' `.{.{ A A C Z Z Z ",
"Z Z Z Z Z Z Z Z Z Z Z ] Z Z Z Z Z Z B X.d.=.#.> > : % % % % % % q d.r.7.6.e 8 % % % - > @.#.#.#.-.j.w.' Z C ' ].7X{ ' ' V Z Z Z ",
"Z Z Z Z Z Z ] ] A Z Z ] A Z Z Z C B m ).5.O., - % % % % % % % q -..Xu.7.6.y 9 % % % % - O.#.#.#.#.-.j.a.'.|.{ ` ,.Z C C C Z Z Z ",
"Z Z Z Z Z Z A A.' ' Z C ' Z ..{._.m | .X1., % % % % % % % % - s.y.XXl.7.7.7.w ; ; % % - O.#.#.#.#.#.%.rX@X@X|._ '.|.` C Z Z Z Z ",
"Z Z Z Z Z Z Z C ' ' Z B A A S.,Xb.2.v.u.8.u 0 & % % % % % : m.p.j } v.z.7.7.f.>.M.K % % - O.#.#.> - &.%X<X5XE.|.@X9X{ Z Z Z Z Z ",
"Z Z Z Z Z Z ] Z C ' ' [ 4X].{ <. X2.oX9.7.I 7 8 * % % % q 1.p.l j j J i.8.z.i.J | d.&.% % , O.> - % K OXX.,.Z 5X5XG.Z Z Z Z Z Z ",
"Z Z Z Z Z Z C ' Z C S.&XXX@X'.M P k.N.8.7.I 6 6 8 % % q 1.a.m x j j x x.9.oXY j } v.d.* & q q * * q =.).C C Z X.X.C Z Z Z Z Z Z ",
"Z Z Z Z Z Z C C ' V C E.5X&X) ) 3.B.8.7.7.I 6 6 8 % % m.!.C N c x x c f.I oXl Y v.l.8.I e r r 7 7 u.(.w.Z Z Z C C Z Z Z Z Z Z Z ",
"Z Z Z Z Z Z Z Z Z C C Z X.X.) 3.*.B.7.7.I t 6 6 0 u s.k.Z Z B b c c N a.c.a.) i.l.9.I t 6 6 6 6 6 f.(.Z Z Z Z Z Z Z Z Z Z Z Z Z ",
"Z Z Z Z Z Z Z { ,X{.Z Z [ |.3.P b.f.7.7.y 6 6 6 R i.!.Z Z Z B m c m B Z C o.i.l.7.6.y 6 6 6 y t.t.i.] Z Z Z Z Z Z Z Z Z Z Z Z Z ",
"Z Z Z Z Z Z Z ' @X3XZ ..>X^.3.Y n.c.7.7.y 6 6 t z.!.Z Z Z Z C M m N Z C N k.u.y 6.t 6 6 6 e t.).#Xw.Z Z Z Z Z Z Z Z Z Z Z Z Z Z ",
"Z Z Z Z Z Z Z Z o._ Z S.5X Xk.h.z.0.6.t 6 6 t c.Q.Z Z Z Z Z C B B B C N c Y i.z.e 6 6 6 6 f.a.w.Z Z Z Z Z Z Z Z Z Z Z Z Z Z Z Z ",
"Z Z Z Z Z Z Z Z Z Z Z Z p.x.c.c.0.6.y 6 6 R i.Q.Z Z Z Z Z Z Z Z Z C N c x j j N.6 6 6 6 6 c.{ Z Z Z Z Z Z Z Z Z Z Z Z Z Z Z Z Z ",
"Z Z Z Z Z Z Z Z Z Z Z !.oXu.7.7.6.y 6 6 I u.!.Z Z Z Z Z Z Z Z Z Z C N v l j j x.8.t 6 6 6 u.a.w.Z Z Z Z Z Z Z Z Z Z Z Z Z Z Z Z ",
"Z Z Z Z Z Z Z Z Z C B oX0.7.7.7.t 6 6 6 c.!.Z Z Z Z Z Z Z Z Z Z Z C N c x x l | +X8.6 6 6 e t.#XZ Z Z Z Z Z Z Z Z Z Z Z Z Z Z Z ",
"Z Z Z Z Z Z Z Z B N m p.N.oXoXoXN.N.N.N.(.Z Z Z Z Z Z Z Z Z Z Z Z Z C m x x x j | x.N.N.N.N.v.w.Z Z Z Z Z Z Z Z Z Z Z Z Z Z Z Z ",
"Z Z Z Z Z Z Z B M c x l j j j l x m B Z Z Z Z Z Z Z Z Z Z Z Z Z Z Z Z N c l j l x c B ] A Z Z Z Z Z Z Z Z Z Z Z Z Z Z Z Z Z Z Z ",
"Z Z Z Z Z Z Z B m c x x x x x v b B Z Z Z Z Z Z Z Z Z Z Z Z Z Z Z Z Z C M c x j x b B ` A Z Z Z Z Z Z Z Z Z Z Z Z Z Z Z Z Z Z Z ",
"Z Z Z Z Z Z Z B N m m m m m m M B Z Z Z Z Z Z Z Z Z Z Z Z Z Z Z Z Z Z Z C N m b m N C B C Z Z Z Z Z Z Z Z Z Z Z Z Z Z Z Z Z Z Z ",
"Z Z Z Z Z Z Z Z C C C C C C C C Z Z Z Z Z Z Z Z Z Z Z Z Z Z Z Z Z Z Z Z Z C C C C V N C Z Z Z Z Z Z Z Z Z Z Z Z Z Z Z Z Z Z Z Z ",
"Z Z Z Z Z Z Z Z Z Z Z Z Z Z Z Z Z Z Z Z Z Z Z Z Z Z Z Z Z Z Z Z Z Z Z Z Z Z Z Z Z Z Z Z Z Z Z Z Z Z Z Z Z Z Z Z Z Z Z Z Z Z Z Z ",
"Z Z Z Z Z Z Z Z Z Z Z Z Z Z Z Z Z Z Z Z Z Z Z Z Z Z Z Z Z Z Z Z Z Z Z Z Z Z Z Z Z Z Z Z Z Z Z Z Z Z Z Z Z Z Z Z Z Z Z Z Z Z Z Z ",
"Z Z Z Z Z Z Z Z Z Z Z Z Z Z Z Z Z Z Z Z Z Z Z Z Z Z Z Z Z Z Z Z Z Z Z Z Z Z Z Z Z Z Z Z Z Z Z Z Z Z Z Z Z Z Z Z Z Z Z Z Z Z Z Z "
};
