/* XPM */
static const char *RW5lbXlfSWRsZV9SaWdodCUyODElMjk_[] = {
/* columns rows colors chars-per-pixel */
"64 64 230 2 ",
"   c #3F1C0E",
".  c #1E2B0F",
"X  c #212E10",
"o  c #263314",
"O  c #2A3917",
"+  c #2C3C19",
"@  c #2A3618",
"#  c #333D1B",
"$  c #3D391A",
"%  c #372716",
"&  c #29292D",
"*  c #362B2A",
"=  c #353D21",
"-  c #2D2E33",
";  c #302E31",
":  c #33343A",
">  c #3B393D",
",  c #363435",
"<  c #2F3035",
"1  c #411E10",
"2  c #4C2415",
"3  c #512615",
"4  c #512B1D",
"5  c #493B1D",
"6  c #57381E",
"7  c #65331F",
"8  c #6A331E",
"9  c #4C322C",
"0  c #553122",
"q  c #59372A",
"w  c #453938",
"e  c #4E342D",
"r  c #6E3621",
"t  c #673725",
"y  c #733A24",
"u  c #763E2A",
"i  c #7A3F28",
"p  c #773C26",
"a  c #2F401A",
"s  c #32441C",
"d  c #384D1F",
"f  c #364A1D",
"g  c #3A501F",
"h  c #3C4D21",
"j  c #384322",
"k  c #3C5321",
"l  c #3D4636",
"z  c #4B4D12",
"x  c #484519",
"c  c #4E5013",
"v  c #475917",
"b  c #525414",
"n  c #575915",
"m  c #5A5C15",
"M  c #58591A",
"N  c #605C1F",
"B  c #5E6116",
"V  c #5D6118",
"C  c #626417",
"Z  c #636618",
"A  c #666A18",
"S  c #6A6D19",
"D  c #666C17",
"F  c #6E711A",
"G  c #667711",
"H  c #72751B",
"J  c #76791F",
"K  c #494C2C",
"L  c #5A4326",
"P  c #435C24",
"I  c #425327",
"U  c #575524",
"Y  c #465435",
"T  c #595636",
"R  c #575836",
"E  c #574937",
"W  c #77412B",
"Q  c #7C412A",
"!  c #665D29",
"~  c #7C4631",
"^  c #754939",
"/  c #665B3C",
"(  c #684432",
")  c #476226",
"_  c #4E6C29",
"`  c #4A6428",
"'  c #506E2C",
"]  c #5C602E",
"[  c #53722C",
"{  c #586D32",
"}  c #5A7532",
"|  c #4F6530",
" . c #696826",
".. c #746C2B",
"X. c #757523",
"o. c #767A21",
"O. c #7A7C23",
"+. c #79782A",
"@. c #6A6738",
"#. c #796937",
"$. c #67763A",
"%. c #7B7D31",
"&. c #777837",
"*. c #6D7229",
"=. c #3C3D45",
"-. c #3F4246",
";. c #41424A",
":. c #4A464A",
">. c #5B5558",
",. c #574E51",
"<. c #695958",
"1. c #715A56",
"2. c #6B5749",
"3. c #5D664D",
"4. c #6C644B",
"5. c #796849",
"6. c #777B45",
"7. c #677552",
"8. c #706A54",
"9. c #7B6663",
"0. c #7F7E67",
"q. c #757375",
"w. c #6B6B6A",
"e. c #83452E",
"r. c #864831",
"t. c #894A32",
"y. c #844731",
"u. c #8C523C",
"i. c #91533B",
"p. c #827B2D",
"a. c #867C32",
"s. c #897E35",
"d. c #8A793D",
"f. c #816E3E",
"g. c #8A5943",
"h. c #925A45",
"j. c #9D5F48",
"k. c #985D48",
"l. c #836C4C",
"z. c #886A47",
"x. c #98674C",
"c. c #887447",
"v. c #947B4C",
"b. c #9A7B4A",
"n. c #917748",
"m. c #856B59",
"M. c #9F6751",
"N. c #897455",
"B. c #927653",
"V. c #977957",
"C. c #A56B56",
"Z. c #A8785A",
"A. c #A1644D",
"S. c #866C65",
"D. c #887867",
"F. c #997669",
"G. c #8A7975",
"H. c #A87B66",
"J. c #B37B65",
"K. c #A37C71",
"L. c #728B1C",
"P. c #7E8125",
"I. c #7F8134",
"U. c #708C21",
"Y. c #7E804A",
"T. c #7D8243",
"R. c #788557",
"E. c #6D8348",
"W. c #738360",
"Q. c #91A714",
"!. c #8F803B",
"~. c #90813C",
"^. c #97A90C",
"/. c #B2C80D",
"(. c #ECFF00",
"). c #82824D",
"_. c #87854B",
"`. c #958243",
"'. c #99824A",
"]. c #9E8351",
"[. c #978657",
"{. c #888351",
"}. c #A28453",
"|. c #A5835B",
" X c #AB8A5C",
".X c #A58858",
"XX c #A1844F",
"oX c #878A68",
"OX c #9C8964",
"+X c #94936B",
"@X c #8B937A",
"#X c #9B9A7A",
"$X c #8E936A",
"%X c #AD8565",
"&X c #A78966",
"*X c #B28466",
"=X c #B38D63",
"-X c #B3836A",
";X c #BB856D",
":X c #B48C6A",
">X c #BD896E",
",X c #A7916B",
"<X c #B8906B",
"1X c #B5916D",
"2X c #AB8375",
"3X c #A99C7D",
"4X c #BD8A79",
"5X c #9EA87D",
"6X c #A0A77F",
"7X c #928E8E",
"8X c #999A89",
"9X c #989696",
"0X c #8E8F80",
"qX c #A29C82",
"wX c #B49891",
"eX c #ACA696",
"rX c #B4AF8E",
"tX c #AAA8A8",
"yX c #B3AEAA",
"uX c #B9B1AE",
"iX c #B9B6B6",
"pX c #99A39F",
"aX c #CDB3AA",
"sX c #D3B4A9",
"dX c #C0BFBF",
"fX c #D4BEB7",
"gX c #C5AEA6",
"hX c #C9AD91",
"jX c #BCC19C",
"kX c #CBC9C9",
/* pixels */
"H H H H H H H H H H H H H H H H H H H H H H H H H H H H H H H H H H H H H H H H H H H H H H H H H H H H H H H H H H H H H H H H ",
"H H H H H H H H H H H H H H H H H H H H H H H H H H H H H H H H H H H H H H H H H H H H H H H H H H H H H H H H H H H H H H H H ",
"H H H H H H H H H H H H H H H H H H H H H H H H H H H H H H H H H H H H H H H H H H H H H H H H H H H H H H H H H H H H H H H H ",
"H H H H H H H H H H H H H H H H H H H H H H H H H H H H H H H H H H H H H H H H H H H H H H H H H H H H H H H H H H H H H H H H ",
"H H H H H H H H H H H H H H H H H H H H H H H H H H H H H H H H H H H H H H H H H H H H H H H H H H H H H H H H H H H H H H H H ",
"H H H H H H H H H H H H H H H H H H H H H H H H H H H H H H H H H H H H H H H H H H H H H H H H H H H H H H H H H H H H H H H H ",
"H H H H H H H H H H H H H H H H H H H H H H H H H H H H H H H H H H +.].|.a.H O.J H H H H H H H H H H H H H H H H H H H H H H H ",
"H H H H H H H H H H H H H H H H H H H H H H H H H H H H H H H H H H }.G.S.=X Xa.o.J H H H H H H H H H H H H H H H H H H H H H H ",
"H H H H H H H H H H H H H H H H H H H H H H H H H H H H H H H H H H  X9.:.9.9.N.+.H H J H H H H H H H H H H H H H H H H H H H H ",
"H H H H H H H H H H H H H H H H H H H H H H H s.V.&X&X].H H F S S F p.5.,.=.;.S.}.F O.P.O.H H H H H H H H H H H H H H H H H H H ",
"H H H H H H H H H H H H H H H H H H H H H H H =X/ g } :X<X<X<Xd.C A X.`.V.: =.S.}.s.o.O.J H a. Xa.H H H H H H H H H H H H H H H ",
"H H H H H H H H H H H H H H H H H H H H F F F =X/ a h $.6.6.6..X..m Z F K.: : :.9.%Xp.H H H _.{. XH H H H H H H H H H H H H H H ",
"H H H H H H H H H H H H H H o.I.%.H H F A C A a.c.T + k P P [ ).6.[.c.V 2XY , > :.N.'.X.H p.c.6.<XH H H H H H H H H H H H H H H ",
"H H H H H H H H H H H H H o._.eX3X%.H S C n m C d.N.K # + s ` [ [ $.V.:X[.[ l > l ' [.'.a. XN.$.<XH H H H H H H H H H H H H H H ",
"H H H H H H H H H H H H H %.qX&X,X+XH S B b b b m c.&XK + + + ) [ ' h ` } [ [ ' [ [ } ). X6.P K :XH H H H H H H H H H H H H H H ",
"H H H H H H H H H H H H H H &.qX$XS H F Z m b z z z c.V.T + + f P [ ) k P [ [ [ [ [ [ { / { P K :XH H H H H H H H H H H H H H H ",
"H H H H H H H H H H H H H H F D S H H H S C m c z z z #.l.T + + f ) [ k v Q.Q.U.) [ U.L.g P d K :XH H H H H H H J J H H H H H H ",
"H H H H H H H H H H H H H H H H H H H H H S C m c z z z #.B.j + + s ` k G (.(.^.s ` /./._ f # T =XH H H H H H o.P.O.H H H H H H ",
"H H H H H H H H H H H H H H H H H H H H H H S C m c z z z c.%XT + + s a G (.(.^.+ s ^./.s + 4.V.~.H H H H H o.o.O.H H H H H H H ",
"H H H H H H H H H H H H H H H H H H H H H H H S C m c z z z #.l.T + + + v Q.Q.L.k + G G + + 5.}.H H J H H I._.+.F H H H H H H H ",
"H H H H H H H H H H H H H H H H H H H H H H H H S C c.J.;X;X;X;Xl.+ O + + + P _ _ d f s + K N.+.H H P.J T.8X8XR.o.H H H H H H H ",
"H H H H H H H H H H H H H H H H H H H H H s.=X=X=X=X%Xk.t.t.t.t.L + X o + + + k [ [ [ P s &X`.H H F O.O.oX+X,X@X+.H H H H H H H ",
"H H H H H H H H H H H H H H H H H H H H !.[.Y.Y.Y.Y.6.@.U L r.i 6 + . 7.W.X + s k [ [ $.B.].H H H H H o.D oX@X*.S H H H H H H H ",
"H H H H H H H H H H H H H H H H H H ].&X&X6._ P P P P P f 5 r.Q t $ o 3.7.. o + a P ` Y.=XH H H H H F H D S F D H H H H H H H H ",
"H H H H H H H H H H H H H H H H +.].[.[ ' _ ) + + + + + + 5 e.r.Q 7 # o o = + + + + P 6.=XH H H H H H F S o.H F H H H H H H H H ",
"H H H H H H H H H H H H H H H X.}.[.$.' d s s + + + + + + $ r e.r.W # + R rXY o + + a @.=XH H H H H H H H J F H H H H H H H H H ",
"H H H H H H H H H H H H H F S .XhXR.` k a T 5.N.N.N.l.L 5 6 i e.t.e.6 $ I R.j Y R.+ O / =XH H H H H H H H H H H H H H H H H H H ",
"H H H H H H H H '.H.H.V.s.S &XhXjX$X| + K l.#.z z M z.~ r p t.t.t.e.r 5 # + @ 3.0X= o T .XXXH H H H H H H H H H H H H H H H H H ",
"H H H H H H H H -X4 1 ^ =X=XrXjXjX6X7.j %Xf.c z z z -X~ i t.t.t.t.e.r 8 6 + l ;.-.+ + d } 1X`.H H H H H H H H H H H H H H H H H ",
"H H H H H F F H -X4   4 ^ 3XjXrX6X#X+XB.v.B m b z z z.Z.x.t.t.t.t.r.e.y 7 6 w =.> 0 $ a h $.[.~.H H H H H H H H H H H H H H H H ",
"H H H H S A Z S b.g.L x x R.5XrX3X3XOXd.S S C n z z z B.C.t.t.t.e.Q Q y 8 8 w w 9 t ^ T + k 6.[.'.H H H H H H H H H H H H H H H ",
"H H H H A B n B  .}.c._ [ [ E.$X&X}.p.H H H A m b z z U z.u.e.e.p 8 8 8 8 8 9 9 r W Z.B.K # k $.=X1X1X:X`.H H H H H H H H H H H ",
"H H H H A m b b m |.4.k [ [ } { K V.H H H H S C n c z z #.x.r r r 8 8 8 8 8 t t Q H.v.v.%XK + h $.$.$.$.=X Xp.H H H H H H H H H ",
"H H H H S C b c z ! l.5.k k g d + V.H H H H H S m b z @.m.1.3 3 3 3 3 3 3 3 3 ~ x.z.m C n.B.N.5.I k k I 6.{.).`.H H H H H H H H ",
"H H H H F A m c z z ! 5.+ + O = 3.2XH H H H H F C V.2X2X1.> % 2 2 2 2 2 2 2 2 ^ V.c.b m B A ..v./ I d d P ) $.<XH H H H H H H H ",
"H H H H H S C b z z z F.+ + % E kXsXH H H H !.:X:XS.;.;.;.=.& 0 8 8 8 8 8 8 8 q ,.-X*X#.n n m ..=X).[ _ f + T :XH H H H H H H H ",
"H H H H H F A m c z z B.H.q E 0XkXsXs.H H H &X<.<.,.;.;.;.=.& t e.e.e.e.i 8 8 q :.<.<.9.c.c z b |.).` h N.2.T :XH H H H H H H H ",
"H H H H H H S B b z z z :XF.G.9XyXaXrXs.F S 2X:.;.;.;.> > : & ( t.t.t.e.y 8 0 w ;.;.;.>.S.B.z z |.5.R 5.'.n.l.`.H H H H H H H H ",
"H H H H H H F Z m c z z %XfXuX9X7XiXfX=XA v.F.:.;.;.=.- & & & t ~ r.e.y 8 8 * : ;.;.;.;.:.F.c.z B.5.5.}.H H H H O.H H H H H H H ",
"H H H H H H H S B b z z  .&XsXdX7XiXfX%X .4.:.;.;.;.=.- & & & & q e.y 8 8 8 * : ;.;.;.;.;.:.S.c. .v.v.+.O.J H H O.J H H H H H H ",
"H H H H H H H H A m c z c  .,XaXiXyXuXfX&XS.;.;.;.=.< & & & & & e e.r 8 0 9 & - : -.;.;.;.;.>.m.v.A A H P.O.J H F o.H H O.H H H ",
"H H H H H H H H S C b z z b  .,XfXuXyXiXwX9.;.;.=.: & & & & & & 9 i 8 8 0 & & & - =.;.;.;.;.;.,.F.].F H F o.o.$X@X+.J J F H H H ",
"H H H H H H H H F A B M z c m +. XfXiX7X7Xw.:.;.< & & & & & & & 9 8 8 r q ; ; & - =.;.;.;.;.;.;.;.K.H O.H F o.OXpX+.o.o.D H H H ",
"H H H H H H O.O.J F A Z b c b B ..,XaXdX9XtX9X: & & & & & & & q y 8 8 x.z.K.K.1.& - - : ;.;.> - - F.H F +X#XX.X.6.H F F F H H H ",
"H H H H H H J P.o.J F Z Z b U 8.7.N OXsXuXyX9X>.q.>.& & & > 1.^ y y k.z.U z ! l.1.; & < ;.> < & & F.H +X,X,X#X*.+X#XX.F H H H H ",
"H H H H H H H F o.o.H D S C ] w.4.3.n.4XgX9XG.q.yX9X:.- , 1.V.u.y u.Z.! z z z z.H.w * , :., * * * F.H &.qXeX).#X,XyX+.H H H H H ",
"H H H H H H O.H F o.o.%.#XoX .R w.3.J.u.u.~ q < q.tXiX;.m.B.%Xu.h.|.#.m b z z C.y t 7 y y.r 7 7 7 H.H F &.&.H eXeXY.H H H H H H ",
"H H H H H H F o.H F I.3X&X,XoXM U / x.t.t.p 7 0 :.>.w.S.N.b #.Z.b.p.S Z m c ! g.8 8 y e.r.y 8 Q C.}.H H F F H &.&.F H H H H H H ",
"H H H H H H F F o.D F ).eX#X*. .G.K.C.t.t.i 8 8 ( 2.1.B.n m A F H H F A m #.Z.j.y y e.e.Q u.h.M.XXH H H H H H F F H H H H H H H ",
"H H H H H H H H H F F H &.*.*.D.4XC.t.r.r.p 8 8 J. X.X..C A F H H H F Z n *Xj.t.t.t.r.Q W *X=X}.+.H H H H H H H H H H H H H H H ",
"H H H H H H H +.8X@XH H %.8X0.R wXC.t.r.y r 8 8 J.F F S S F H H H H S m b %Xj.t.t.t.i u.Z.b.H H H H H H H H H H H H H H H H H H ",
"H H H H H H H X.,XpXH %.8XOX0.c H.A.t.r.r 8 W M.b.H H H H H H H H F Z n c %Xj.t.e.i h.x.d.F H H H H H H H H H H H H H H H H H H ",
"H H H H H H H H  .*.H I.eXoXU z.-Xj.e.Q r W k..X+.H H H H H H H H S B b z %Xj.e.Q 8 M.b.a.H H H H H H H H H H H H H H H H H H H ",
"H H H H H H H H H H H H &.V.%XZ.i.t.Q 8 8 M.}.p.H H H H H H H H H A m c z %Xj.i 8 8 r h.=Xs.H H H H H H H H H H H H H H H H H H ",
"H H H H H H H H H H H H ].Z.A.j.t.Q y r C.b.+.H H H H H H H H H H A m c z *Xu.r 8 8 8 u h.Z.+.H H H H H H H H H H H H H H H H H ",
"H H H H H H H H H H H b.Z.i.t.e.Q y 8 y ;XH H H H H H H H H H H H A m c c #.x.k.g.r 8 8 r M.b.H H H H H H H H H H H H H H H H H ",
"H H H H H H H H H S A J.i.i.i.t.Q u u ~ *XH H H H H H H H H H H H A m c z b ..|.Z.y.u u u u M.H H H H H H H H H H H H H H H H H ",
"H H H H H H H F S C m n.;X;X;X;X;X;X;X*X'.H H H H H H H H H H H H S B b c z z M c.*X;X>X;X;X'.H H H H H H H H H H H H H H H H H ",
"H H H H H H H S C n b c z z z n C F H H H H H H H H H H H H H H H F A B n b z z b C F o.J H H H H H H H H H H H H H H H H H H H ",
"H H H H H H H S C m n n n n n B A H H H H H H H H H H H H H H H H H F S C m n n m Z F S F H H H H H H H H H H H H H H H H H H H ",
"H H H H H H H S A Z Z Z Z Z Z A F H H H H H H H H H H H H H H H H H H H F A Z Z Z B C F H H H H H H H H H H H H H H H H H H H H ",
"H H H H H H H H H H H H H H H H H H H H H H H H H H H H H H H H H H H H H H H H H H H H H H H H H H H H H H H H H H H H H H H H ",
"H H H H H H H H H H H H H H H H H H H H H H H H H H H H H H H H H H H H H H H H H H H H H H H H H H H H H H H H H H H H H H H H ",
"H H H H H H H H H H H H H H H H H H H H H H H H H H H H H H H H H H H H H H H H H H H H H H H H H H H H H H H H H H H H H H H H "
};
