/* XPM */
static const char *RXhpdF8y[] = {
/* columns rows colors chars-per-pixel */
"64 64 189 2 ",
"   c #321612",
".  c #391F1A",
"X  c #3D2214",
"o  c #412114",
"O  c #432A16",
"+  c #44261A",
"@  c #45281C",
"#  c #4B311C",
"$  c #4B3815",
"%  c #57391D",
"&  c #472E24",
"*  c #4B2F23",
"=  c #4D3123",
"-  c #553722",
";  c #563D26",
":  c #503628",
">  c #563D2B",
",  c #5B3E2B",
"<  c #513C35",
"1  c #524516",
"2  c #584D17",
"3  c #574C18",
"4  c #5A4D1A",
"5  c #5D5719",
"6  c #5F5A18",
"7  c #61551C",
"8  c #655D1A",
"9  c #695F1C",
"0  c #656C17",
"q  c #6A651B",
"w  c #6D6C1B",
"e  c #666418",
"r  c #706F1C",
"t  c #72751B",
"y  c #574026",
"u  c #5B432D",
"i  c #5B4434",
"p  c #5E4936",
"a  c #5A4739",
"s  c #5D4A3B",
"d  c #554339",
"f  c #5F503B",
"g  c #614A26",
"h  c #634E2A",
"j  c #625321",
"k  c #6B5F27",
"l  c #68572D",
"z  c #6B5B2C",
"x  c #604733",
"c  c #624935",
"v  c #624D3C",
"b  c #675133",
"n  c #63513E",
"m  c #6A563F",
"M  c #685335",
"N  c #6B6223",
"B  c #6E6825",
"V  c #6F672D",
"C  c #6F6829",
"Z  c #716F21",
"A  c #726F28",
"S  c #727220",
"D  c #797625",
"F  c #777820",
"G  c #797B22",
"H  c #6F6431",
"J  c #72653B",
"K  c #736C34",
"L  c #5E5144",
"P  c #5F5049",
"I  c #614F40",
"U  c #655343",
"Y  c #6A5543",
"T  c #625A46",
"R  c #6A5947",
"E  c #635649",
"W  c #685748",
"Q  c #635B4A",
"!  c #6C5C4C",
"~  c #715D4C",
"^  c #705B44",
"/  c #605450",
"(  c #655D52",
")  c #6B5E51",
"_  c #625A58",
"`  c #64604B",
"'  c #6E614F",
"]  c #706145",
"[  c #73614E",
"{  c #676055",
"}  c #6D6254",
"|  c #6C6852",
" . c #6C655A",
".. c #6F695E",
"X. c #66625D",
"o. c #736454",
"O. c #776857",
"+. c #726659",
"@. c #746A5C",
"#. c #796C5D",
"$. c #4F5965",
"%. c #505A65",
"&. c #545E6A",
"*. c #56626E",
"=. c #576572",
"-. c #5A6673",
";. c #5C6976",
":. c #5E6D7A",
">. c #6F6960",
",. c #6A6568",
"<. c #6B686D",
"1. c #746C62",
"2. c #796E61",
"3. c #716F6D",
"4. c #6F716E",
"5. c #767166",
"6. c #7B7265",
"7. c #767169",
"8. c #7C7569",
"9. c #7C7B6E",
"0. c #616B76",
"q. c #626E7A",
"w. c #6E7276",
"e. c #64717D",
"r. c #6B747D",
"t. c #727474",
"y. c #787572",
"u. c #767977",
"i. c #7E7C72",
"p. c #767A7C",
"a. c #7B7C7C",
"s. c #737579",
"d. c #817566",
"f. c #817769",
"g. c #817B6D",
"h. c #817F72",
"j. c #897F71",
"k. c #817F7A",
"l. c #7F8226",
"z. c #858275",
"x. c #878577",
"c. c #858275",
"v. c #898577",
"b. c #898376",
"n. c #838178",
"m. c #838279",
"M. c #848279",
"N. c #858279",
"B. c #878578",
"V. c #878679",
"C. c #87857B",
"Z. c #868479",
"A. c #898679",
"S. c #8A877A",
"D. c #898679",
"F. c #8C877B",
"G. c #89877F",
"H. c #8B877D",
"J. c #89867B",
"K. c #8B887A",
"L. c #8B8879",
"P. c #8C897B",
"I. c #8D8A7B",
"U. c #8D8A7D",
"Y. c #8C897D",
"T. c #908A7D",
"R. c #657481",
"E. c #6A7682",
"W. c #6C7985",
"Q. c #6E7D89",
"!. c #727C85",
"~. c #787D81",
"^. c #727E8A",
"/. c #7D8185",
"(. c #75828D",
"). c #79848D",
"_. c #778590",
"`. c #798691",
"'. c #7C8A94",
"]. c #838482",
"[. c #8D8A82",
"{. c #8E8C83",
"}. c #8D8B83",
"|. c #84898C",
" X c #8A8E8E",
".X c #918E83",
"XX c #939287",
"oX c #939189",
"OX c #848B90",
/* pixels */
"t t t t t t t t t t t t t t t t t t t t t t t t t t t t t t t t t t t t t t t t t t t t t t t t t t t t t t t t t t t t t t t t ",
"t t h.9.9.9.9.9.9.9.9.9.9.9.t t t t t t t t t t t t t t t t t t t t B.B.B.B.B.B.B.B.B.B.B.B.t t t t 9.9.9.9.9.9.9.9.9.9.9.9.t t ",
"t c.9.9.9.9.9.9.9.9.9.9.9.9.n.t t t t t t t t t t t t t t t t t t {.B.B.B.B.B.B.B.B.B.B.B.B.{.t t M.9.9.9.9.9.9.9.9.9.9.9.9.M.t ",
"t n.9.9.9.9.9.9.9.9.9.9.9.9.m.t t t t t t t t t t t t t t t t t t {.B.B.B.B.B.B.B.B.B.B.B.B.{.t t M.9.9.9.9.9.9.9.9.9.9.9.9.M.t ",
"t m.9.9.9.9.9.9.9.9.9.9.9.9.m.t t t t t t t t t t t t t t t t t t {.B.B.B.B.B.B.B.B.B.B.B.B.{.t t M.9.9.9.9.9.9.9.9.9.9.9.9.M.t ",
"t m.9.9.9.9.9.9.9.9.9.9.9.9.m.t t t t t t t t t t t t t t t t t t {.B.B.B.B.B.B.B.B.B.B.B.B.{.t t M.9.9.9.9.9.9.9.9.9.9.9.9.M.t ",
"t m.9.9.9.9.9.9.9.9.9.9.9.9.m.t t t t t t t t t t S t t t S S S S G.c.c.z.h.i.c.B.B.B.B.B.B.{.t t M.9.9.9.9.9.9.9.9.9.9.9.9.M.t ",
"t M.9.9.9.9.9.9.9.9.9.9.9.9.m.t t t t t t t t t V [ ~ [ [ o.o.o.o.o.[ [ R & . E c.B.B.B.B.B.{.t t M.9.9.9.9.9.9.9.9.9.9.9.9.M.t ",
"t M.9.9.9.9.9.9.9.9.9.9.9.9.m.t t t t t t t t t J h.c.c.c.B.x.c.c.x.D.x.g.W + < i.B.B.B.B.B.{.t t M.9.9.9.9.9.9.9.9.9.9.9.9.M.t ",
"t M.9.9.9.9.9.9.9.9.9.9.9.9.m.t t t t t t t r r J b.B.D.D.c.].a.a.m.D.D.v.#.* < 6.c.B.B.B.B.{.t t M.9.9.9.9.9.9.9.9.9.9.9.9.M.t ",
"t M.9.9.9.9.9.9.9.9.9.9.9.9.m.t t t t Z B l b M ^ c.D.D.D.c./.a./.M.D.D.D.6., , U o.6.g.c.x.{.t t M.9.9.9.9.9.9.9.9.9.9.9.9.M.t ",
"t M.9.9.9.9.9.9.9.9.9.9.9.9.m.t t C H ] o.6.8.6.O.b.D.D.D.c.|.}. XH.K.D.K.d.! +.8.+.! o.+.6.[.t t M.9.9.9.9.9.9.9.9.9.9.9.9.M.t ",
"t M.9.9.9.9.9.9.9.9.9.9.9.9.h.A K #.9.g.5.! Y Y ^ z.D.K.K.D.P.P.F.D.K.K.K.d.Y Y Y O.8.g.8.O.h.t t M.9.9.9.9.9.9.9.9.9.9.9.9.M.t ",
"t M.9.9.9.9.9.9.9.9.9.9.5.+.o.6.d.8.#.~ #.g.v.z.#.h.v.K.K.D.K.P.K.K.K.K.K.d.6.B.B.8.#.o.8.O.~ l k 8.8.9.9.9.9.9.9.9.9.9.9.9.M.t ",
"t T G.G.G.G.G.G.G.G.M.g.o.#.h.c.8.o.o.5.h.z.z.z.6.g.K.K.P.P.P.P.P.U.P.K.D.6.6.B.B.B.c.g.O.#.+.#.o.Y +.h.B.G.G.G.G.G.G.G.G.[.` t ",
"t t T T T T T T T T U o.c.M.h.O.#.8.h.g.c.c.z.z.f.#.U.D.F.U.U.U.U.U.U.P.v.#.h.n.c.B.B.D.D.g.O.@.6.g.6.U f T T T T ` ` ` ` ` t t ",
"t t t t t t t t t k #.h.D.6.O.6.z.c.c.c.x.v.v.g.Y R g.9.@.@.1.1.2.2.9.M.h.+.c.B.c.c.B.B.c.c.c.O.! 5.z.8.m q t t t t t t t t t t ",
"t t h.h.h.h.h.8.+.+.2.6.8.+.h.c.c.c.c.x.x.c.h.+.i i Q ! W W R R W W } @.+.} 9.c.B.c.c.n.9.h.c.M.9.o.5.2.#.! +.9.h.h.h.h.h.h.t t ",
"t G.h.h.h.h.9.+.f.h.h.+.o.g.c.c.c.c.x.c.9.1.) ( U , s s c x c c v v U W W W 2.5.9.h.M.c.h.h.k.n.n.8.R 2.c.h.2.o.9.h.h.h.h.h.B.t ",
"t G.h.h.h.9.o.g.c.h.6.#.h.c.B.B.x.v.h.+.Q L s i i U U R } o.o.+.+.#.+.! U U W } +.1.7.i.n.n.h.h.h.h.5.o.8.c.c.+.+.i.h.h.h.h.C.t ",
"t G.h.h.h.6.! g.g.6.o.D.B.B.D.D.D.c.} L a i i W } +.@.5.7.t.u.u.p.a.a.y...E } @.) !  .>.9.M.n.h.h.h.h.8.! g.h.6.! 9.h.h.h.h.C.t ",
"t G.9.9.8.! O.8.8.~ 6.M.D.G.[.U.D.} s a s W  .1.u.!.(.^.^.!.Q.^.^.^.(.^.(.(.~.u.7.@.! )  .8.D.B.k.h.h.h.! 2.g.g.! +.8.9.9.h.C.t ",
"t G.@.+.O.R O.o.o.R #.#.g.c.D.F.} a u s } t.!.(.^.R.q.e.W.W.^.(.(.W.e.e.e.R.Q.`.(.p.7.} ! } 8.h.g.9.5.2.2.~ O.O.o.Y O.O.#.8.C.t ",
"t 2.f.c.h.g.9.8.8.5.5.8.#.#.} +.s i E 4.!.!.e.0.e.e.e.:.;.-.=.=.=.-.*.;.R.W.R.e.e.^.`./.2.W } 2.#.#.6.h.h.g.g.g.g.g.g.g.g.v ( t ",
"t Y U.c.c.k.k.h.h.i.i.h.h.h.8.! > U t.(.!.;.q.e.&.%.$.&.-.0.e.r.e.0.-.&.&.*.-.W.W.:.W.`.).@.c c.U.D.c.c.c.c.c.c.c.c.c.c.j.* . e ",
"t Y G.c.c.h.h.h.h.h.h.h.h.h.h.U i w.(.e.;.W.q.$.*.R.^.(.(.(.(.).).).).(.^.R.-.&.e.^.R.R._.).W 5.G.c.k.h.c.c.c.h.h.c.c.c.j.=   5 ",
"t Y H.c.c.m.].].h.n.n.k.h.n.h.i X.!.R.:.R.;.=.;.W.).).).).).`.`.`.`.`.`.`.`.^.-.&.R.(.R.R.`.t.! v.c.k.c.c.c.b./.].c.c.v.b.=   5 ",
"t Y U.c.c./.C.k.i.c.c.c.c.D.g.s r.(.;.E.R.*.-.W.^.`.`.`.`.).`.`.`.`.`.`.`.`.).W.*.;.^.^.:.W.(.E h.c.h.c.D.D.v./.]./.M.D.b.=   5 ",
"t Y [.M.c./.i.a.k.B.B.c.B.U.g./ r.R.q.Q.:.;.r.W.^.`.`.`.`.`.`.`.`.`.`.`.`.`.`.^.r.-.:.`.R.:.`.X.h.c.c.D.D.D.D./.k.k.B.D.b.*   5 ",
"t Y {.D.D.M.N.N.D.D.D.B.B.H.g._ W.e.R.^.;.e.(.!.(.`.'.'.'.'.`.`.`.'.'.`.`.`.`.^.(.-.;.`.W.-.`.<.z.D.B.D.D.D.D.M.C.D.K.D.b.*   5 ",
"t c .XH.D.D.H.H.D.D.D.D.D.D.g._ W.e.R.(.:.e.(.^.(.'.'.'.'.'.'.'.'.'.'.'.`.`.`.(.(.;.:.`.W.-._.,.c.D.D.D.D.D.U.U.U.U.U.H.b.*   5 ",
"t h XXU.D.D.G.D.D.D.D.D.c.g.2.P r.W.e._.R.:.W.(.(.'.'.'.'.'.'.'.'.'.'.'.'.'.`.(.R.;.W._.R.;.^._ f.h.D.D.D.U.U.U.P.z.v.H.b.*   5 ",
"t g XX.X{.U.U.U.H.g.2.5.6.6.+.c w.`.:.^.`.:.:.^.(.'.'.'.'.'.'.'.'.'.'.'.'.'.'.R.;.W._.^.;.e.r.@.5.5.2.#.2.5.c.U.F.b.b.[.h.*   5 ",
"t % h.9.8.7.7.7.5.O.6.8.h.B.c.#...).Q.R.(.(.e.:.W.`.'.'.'.'.'.'.'.'.'.'.'.`.Q.;.e._._.e.e.!.3.9.h.h.8.2.W ) @.1.5.5.7.7.#.+   5 ",
"t , 1. .{ ) ) ! W v f.B.c.n.z.h.8.y.`.Q.e.(.(.e.-.R.^.`.'.'.'.'.'.'.'._.Q.e.:.r.).(.R.e.W.s.5.9.g.g.h.h.) ! ! ! ! ) ) } ) o   6 ",
"t ,  .Q ! 8.6.2.+.U R U.c.c.c.c.c.h.y.).(.e.R.^.(.R.q.;.;.q.e.e.e.q.;.;.q.!.^.^.E.:.R.^.3.2.9.n.h.h.g.k.c +.5.g.g.h.U { Q o $ w ",
"t o.v p v c.h.g.8.+.v 9.M.M.c.c.c.B.h.7.~.).W.e.E.^.(.(.^.Q.W.W.W.W.W.!.(.^.W.e.R.^.!.1.@.g.c.c.c.n.h.+.v 8.h.M.D.k.i i u $ w t ",
"t [.+.o.i 5.c.h.g.8.! W 9.G.B.B.B.D.D.h.#.7.a.'.(.R.R.R.W.Q.^.^.^.^.R.e.e.R.Q.`.p.1.5.9.h.c.M.M.c.c.@.i ! 9.c.M.M.} * O 7 q t t ",
"t {.B.x.! Q i.k.h.g.5.U } i.M.D.D.D.D.D.z.6.+.o.7.~.)._.).(.Q.Q.^.(.(._.`.~.7.+.2.g.M.B.B.B.B.D.c.@.i v #.9.c.D.@.> X 1 t t t t ",
"t [.B.B.9.s 1.c.h.8.+.v I ..+.6.H.D.D.D.x.c.g.6.+.o.o.o.+.+.1.1.1.@.+.+.5.o.#.g.c.D.G.D.D.D.H.G.1.E i U ! h.B.h.E + X q t t t t ",
"t {.B.B.x.} W 2.6.d.g.+.R ! +.#.D.H.G.D.D.c.c.h.g.O.#.d.g.g.d.6.6.6.6.#.o.2.g.M.D.G.G.G.G.G.h.+.E v } #.#.+.5.) : X 1 t t t t t ",
"t {.B.B.B.h.U E 2.b.M.c.h.#.! o.5.h.G.D.D.v.c.c.g.d.b.F.P.D.v.c.c.c.c.h.h.#.h.c.D.G.G.G.c.6.Q I U +.8.8.8.6.U a O 3 w t t t t t ",
"t {.B.B.B.B.5.U ) 8.M.M.k.h.6.o.! +.5.h.b.D.U.c.6.z.v.v.D.v.v.v.c.c.c.c.c.6.6.D.U.D.h.5.} W U } 2.9.g.9.6.Q > # 2 w t t t t t t ",
"t {.B.B.B.B.x.2.!  .8.B.c.c.B.h.O.! ! } +.6.8.z.6.v.D.D.D.v.].c.M.M.c.b.b.d.6.h.6.#.) W I U } 5.g.g.9.8.) a = 3 w t t t t t t t ",
"t {.B.B.B.B.B.[.! v } 1.h.G.G.H.b.#.O.U U R } ' o.v.D.D.P.D.}.OX|.v.D.D.D.d.R ! W v v W +.#.8.9.g.g. .E a # 3 w t t t t t t t t ",
"t {.B.B.B.B.B.{.t q h n 1.7.D.D.6.h.h.8.@.! u u Y F.U.U.P.F.]./.].D.D.D.D.d.c , c o.@.h.c.h.8.h.8.} L y 4 8 w t t t t t t t t t ",
"t | oXoXoXoXoX| t t e 5 n ! ..) h.D.M.n.h.8.@.#.O.P.U.U.U.D.|.v.G.G.P.F.P.d.W o.8.g.z.D.H.D.8. .Q a u 8 w t t t t t t t t t t t ",
"t t | | | | | t t t t t N j u U 2.1.9.G.D.h.9.8.#.T.T.T.U.U.U.U.U.P.P.P.U.f.! 2.h.c.D.c.+.) I I ; 7 q t t t t t t t t t t t t t ",
"t t t t t t t t t t t t t w q j v Q  . . .2.2.@.! g.h.h.9.9.9.9.8.8.9.h.k.O.v ! @.o.! W U i y 5 q t t t t t t t t t t t t t t t ",
"t t h.h.h.h.h.h.h.t t t t t t w 9 g p E E Q ( E c @.1..... . . . .}  . ...W , v W U s p u U q t t t t t t t t t t t t t t t t t ",
"t G.h.h.h.h.h.h.h.t t t t t t t t w 9 j j u > ; ,  . . .} { { { { ( ( ( { I % - ; p W W @.8.C.t t t t t t t t t t t t t t t t t ",
"t G.h.h.h.h.h.h.h.h.t t t t t t t t t t t w q q h ) ( E W ( ( ( ( ( ( ( ( v @ d @.6.9.9.i.h.G.t t t t t t t t t t t t t t t t t ",
"t G.h.h.h.h.h.h.h.h.h.h.h.h.G.t t t t t t t t F N u ; ; ; > > > > > > > > = < 5.i.h.h.h.h.h.G.t t t t t t t t t t t t t t t t t ",
"t G.h.h.h.h.h.h.h.h.h.h.h.h.G.t t t t t t t t t G D q q Z D q q q 9.5.5.5.5.8.i.h.h.h.h.h.h.G.t t t t t t t t t t t t t t t t t ",
"t G.h.h.h.h.h.h.h.h.h.h.h.h.G.t t t t t t t t t G G t G G 0 t t t G.h.h.h.h.h.h.h.h.h.h.h.h.G.t t t t t t t t t t t t t t t t t ",
"t G.h.h.h.h.h.h.h.h.h.h.h.h.G.t t t t t t t t t 0 0 t G G 0 t t t G.h.h.h.h.h.h.h.h.h.h.h.h.G.t t t t t t t t t t t t t t t t t ",
"t G.h.h.h.h.h.h.h.h.h.h.h.h.G.t t t t t t t t t t t t 0 0 t t t t G.h.h.h.h.h.h.h.h.h.h.h.h.G.t t t t t t t t t t t t t t t t t ",
"t G.h.h.h.h.h.h.h.h.h.h.h.h.G.t t t t t t t t t t t t t t t t t t G.h.h.h.h.h.h.h.h.h.h.h.h.G.t t t t t t t t t t t t t t t t t ",
"t G.h.h.h.h.h.h.h.h.h.h.h.h.G.t t t t t t t t t t t t t t t t t t G.h.h.h.h.h.h.h.h.h.h.h.h.G.t t t t t t t t t t t t t t t t t ",
"t G.h.h.h.h.h.h.h.h.h.h.h.h.G.t t t t t t t t t t t t t t t t t t [.[.[.[.[.h.h.h.h.h.h.h.h.G.t t t t t t t t t t t t t t t t t ",
"t G.h.h.h.h.h.h.h.h.h.h.h.h.G.t t t t t t t t t t t t t t t t t t t t ` ` ` [.h.h.h.h.h.h.h.G.t t t t t t t t t t t t t t t t t ",
"t G.h.h.h.h.h.h.h.h.h.h.h.h.G.t t t t t t t t t t t t t t t t t t t t t t t ` [.h.h.h.h.h.h.G.t t t t t t t t t t t t t t t t t ",
"t ` [.[.[.[.[.[.[.[.[.[.[.[.` t t t t t t t t t t t t t t t t t t t t t t t t ` [.[.[.[.[.[.t t t t t t t t t t t t t t t t t t ",
"G l.l.` ` ` ` ` ` ` ` ` ` ` t t t t t t t t t t t t t t t t t t t t t t t t t t ` ` ` ` ` ` t t t t t t t t t t t t t t t t t t "
};
