/* XPM */
static const char *RXhpdF8z[] = {
/* columns rows colors chars-per-pixel */
"64 64 194 2 ",
"   c #331716",
".  c #331816",
"X  c #381E19",
"o  c #3C2018",
"O  c #3D2317",
"+  c #3B2425",
"@  c #43251A",
"#  c #472E1A",
"$  c #493818",
"%  c #452920",
"&  c #4D3125",
"*  c #4B332F",
"=  c #593A24",
"-  c #563B2A",
";  c #4D3936",
":  c #553C32",
">  c #4F401A",
",  c #55471C",
"<  c #5B531B",
"1  c #625C1E",
"2  c #676F1D",
"3  c #6A6C1E",
"4  c #69671D",
"5  c #6E701E",
"6  c #73761D",
"7  c #5B432C",
"8  c #5B4726",
"9  c #5F5124",
"0  c #5B4334",
"q  c #5C4539",
"w  c #5E4B3C",
"e  c #5E4937",
"r  c #604C2C",
"t  c #614B2A",
"y  c #695E25",
"u  c #645527",
"i  c #614637",
"p  c #624C3E",
"a  c #654D33",
"s  c #695838",
"d  c #6B6424",
"f  c #6E6A24",
"g  c #706E24",
"h  c #706C28",
"j  c #747721",
"k  c #757924",
"l  c #797D25",
"z  c #75752A",
"x  c #767B2A",
"c  c #7A7C29",
"v  c #726B3A",
"b  c #777930",
"n  c #757334",
"m  c #5E4C41",
"M  c #5F524E",
"N  c #614D42",
"B  c #655245",
"V  c #695343",
"C  c #64554B",
"Z  c #6A5649",
"A  c #655B4D",
"S  c #6C5B4C",
"D  c #6F5E45",
"F  c #715D4D",
"G  c #635750",
"H  c #665B53",
"J  c #6B5D52",
"K  c #675D5A",
"L  c #6A5F5A",
"P  c #715E51",
"I  c #64614D",
"U  c #736745",
"Y  c #646251",
"T  c #6C6156",
"R  c #6D6A55",
"E  c #676159",
"W  c #6B635C",
"Q  c #6F685F",
"!  c #726255",
"~  c #73655A",
"^  c #75695D",
"/  c #796B5F",
"(  c #6D6761",
")  c #6E6962",
"_  c #716662",
"`  c #746B63",
"'  c #7A6D62",
"]  c #746E68",
"[  c #767066",
"{  c #7B7166",
"}  c #76726B",
"|  c #7C746B",
" . c #7D7B6F",
".. c #7A7672",
"X. c #7E7D72",
"o. c #7C7B7A",
"O. c #767579",
"+. c #6C6D78",
"@. c #80766B",
"#. c #837A6F",
"$. c #807267",
"%. c #827D73",
"&. c #887F74",
"*. c #827F79",
"=. c #7F8226",
"-. c #7F812D",
";. c #7F8075",
":. c #818074",
">. c #898175",
",. c #85837B",
"<. c #89857D",
"1. c #8A8A7F",
"2. c #89897E",
"3. c #8A887E",
"4. c #3E638E",
"5. c #3F6591",
"6. c #416793",
"7. c #446995",
"8. c #476D99",
"9. c #496E9A",
"0. c #496C97",
"q. c #4C729D",
"w. c #52749F",
"e. c #6E7483",
"r. c #777B84",
"t. c #787D85",
"y. c #6F7B91",
"u. c #717C92",
"i. c #4E75A0",
"p. c #5176A1",
"a. c #5479A4",
"s. c #597CA6",
"d. c #5A7EA9",
"f. c #7D8184",
"g. c #7D828B",
"h. c #7C8593",
"j. c #7D8B9B",
"k. c #7E8B96",
"l. c #5D82AC",
"z. c #6185AE",
"x. c #788CA6",
"c. c #7F91A5",
"v. c #7D92AD",
"b. c #6387B0",
"n. c #668AB3",
"m. c #6A8DB6",
"M. c #6C8FB8",
"N. c #6E91B9",
"B. c #7295BD",
"V. c #7698BF",
"C. c #7D9ABE",
"Z. c #7C95B5",
"A. c #7699C1",
"S. c #7B9DC3",
"D. c #7497C0",
"F. c #7EA0C7",
"G. c #7FA2C9",
"H. c #878680",
"J. c #868781",
"K. c #898780",
"L. c #8A8A80",
"P. c #8B8980",
"I. c #8D8B83",
"U. c #8D8C83",
"Y. c #8E8D85",
"T. c #8C8B83",
"R. c #858A8D",
"E. c #8B8D8B",
"W. c #908F87",
"Q. c #918E85",
"!. c #908F88",
"~. c #919087",
"^. c #929087",
"/. c #919189",
"(. c #93928A",
"). c #898F92",
"_. c #828E9B",
"`. c #858D92",
"'. c #8C9192",
"]. c #86919B",
"[. c #8A949D",
"{. c #808FA0",
"}. c #8493A2",
"|. c #8196AD",
" X c #8A9BAC",
".X c #8B99A7",
"XX c #9099A3",
"oX c #8097B1",
"OX c #839AB4",
"+X c #819DBD",
"@X c #8B9EB4",
"#X c #89A0BB",
"$X c #81A1C5",
"%X c #83A5CC",
/* pixels */
"j j j 6 j j j j j j j j j j j j j j j j j j j j j j j j j j j j j j j j j j j j j j j j j j j 6 6 6 6 6 6 6 6 6 6 6 6 6 6 6 6 6 ",
"j j :.X.X.X.X.X.X.X.X.X.X.X.j j j j j j j j j x x x x x x j x x x x 3.3.3.3.3.3.3.3.3.3.3.3.j j 6 6 X.X.X.X.X. . . . . . . .6 6 ",
"j ,.X.X.X.X.X.X.X.X.X.X.X.X.,.j j x x x x x x x x x x x x x x x x (.3.3.3.3.3.3.3.3.3.3.3.3.Y.j j ,.X.X.X.X.X.X. . . . . . .,.6 ",
"j ,.X.X.X.X.X.X.X.X.X.X.X.X.,.x x x x x x x x x x x x x x x x x x (.T.T.3.3.3.T.3.3.3.3.3.3.W.j j ,.X.X.X.X.X.X. . . . . . .,.6 ",
"j ,.X.X.X.X.X.X.X.X.X.X.X.X.,.x x x x x x x x x x x x x x x x x x (.T.T.T.T.T.T.3.3.3.3.3.3.W.j j ,.X.X.X.X.X.X.X. . . . . .,.6 ",
"j ,.X.X.X.X.X.X.X.X.X.X.X.X.,.x x x x x x x x x x x x x x x x x x (.T.T.T.T.T.T.T.3.3.3.3.3.W.j j ,.X.X.X.X. . .X.X. . . . .,.6 ",
"j ,.X.X.X.X.X.X.X.X.X.X.X.X.,.x x x x x x x x x x x x x x x x x x Y.<.,.<.,.,.<.T.T.T.3.3.3.Y.j j ,.X.X.X.X.X. .X.X.X. . . .,.6 ",
"j ,.X.X.X.X.X.X.X.X.X.X.X.X.H.x x x x x x x x x v / / / / ' ' ' ' ' / / ~ * + M <.T.T.T.T.3.!.x j ,.X.X.X.X.X.X.X.X.X. . . .,.6 ",
"j ,.X.X.X.X.X.X.X.X.X.X.X.;.H.x x x x x x x x x U <.<.T.T.T.T.T.T.T.T.T.,.~ * ; ,.T.T.T.T.T.(.x x ,.X.X.X.X.X.X.X.X.X.X. . .,.6 ",
"j ,.X.X.X.X.X.X.X.X.X.X.;.:.H.x x x x x x x z n U Y.Y.Y.Y.T..X.X|.'.T.T.T.#.: ; %.2.T.T.T.T.(.x x ,.X.X.X.X.X.X.X.X.X.X. . .,.6 ",
"j ,.X.X.X.X.X.X.;.;.;.;.:.:.H.x x x x n v D D S F Y.Y.Y.Y.Y.@X.X X'.Y.Y.Y.&.p q S ~ | >.3.3.(.x x ,.X.X.X.X.X.X.X.X.X.X.X. .,.6 ",
"j ,.X.X.X.X.X.X.;.;.;.:.:.:.H.x x v U ^ ' *.,.,.^ Y.Y.Y.Y.Y.#XXX X'.Y.Y.Y.>.! { *.{ ~ ! ^ | Y.x x ,.X.X.X.X.X.X.X.X.X.X.X. .,.6 ",
"j ,.X.X.X.X.X.X.;.;.;.:.:.X.*.n U #.,.,.#.P F P P T.W.~.~.W.(.(.(.(.W.W.Y.>.S S J ^ %.,.,./ >.z z ,.X.X.X.X.X.X.X.X.X.X.X.X.,.6 ",
"j ,.X.X.X.X.X.X.;.;.:.X...^ ~ %.&.*.| ~ | 3.T.T.' T.W.~.~.Y.W.(.~.~.~.~.(.>.| Y.T.>.#.! &.' F s s %...X.X.X.X.X.X.X.X.X.X.X.,.6 ",
"j A T.T.T.T.T.T.T.T.K.%.~ | T.T.%.~ ^ *.T.T.T.T.@.T.~.~.~.(.(.(.(.(.(.(.(.%.| Y.Y.Y.T.3.' $.{ | ' Z ~ *.K.T.T.T.T.T.T.T.T.Y.I 6 ",
"j j I I I Y Y Y Y Y Z ^ T.T.<.^ | ,.,.,.T.T.T.T.T.@.(.~.(.(.(.(.(.(.(.(.(.` ,.T.T.Y.Y.Y.Y.,.' } *.>.| Z B A I I A I I I I I 6 6 ",
"j j j j x x x x z s @.T.Y.%.' &.K.T.T.T.Y.Y.Y.<.P ~ <.,.| } ........,.Y.T.^ Y.Y.T.T.T.T.<.T.T.' !  .,.>.S g k j j j j j 6 6 6 6 ",
"j j :.:.,.,.,.X./ ' | #.%.{ <.T.T.T.T.Y.Y.Y.K.} C C _ ` W T T ~ ~ ~ ] | ..~ ,.T.Y.Y.T.,.,.,.K.T.,.~ | } { S ! %.:.:.:.:.:.:.6 6 ",
"j T.:.:.:.:.%.^ >.<.T.' ` ,.T.T.T.T.Y.Y.,...) ) W p C C C B Z Z J J J J T J X.o.*.K.Y.T.,.,.,.,.,.*.Z @.<.<.| ! %.:.:.:.:.:.,.6 ",
"j T.:.,.:.:.! <.,.,...| H.T.Y.Y.Y.Y.T.] W K H N N ~ ~ ^ } | | | ......` T H J ` } ....,.T.,.,.,.,.,.*.~ %.<.,.{ ~ :.:.:.:.:.<.6 ",
"j T.:.,.:.{ ! ,.,.| ^ Y.T.T.Y.Y.Y.Y.] K C N N _ ] | ..f.h.j.j._.{.}._.R.O.T ] ..` ~ } } ,.T.T.,.,.,.,...P ,.,.%.Z *.:.:.:.:.<.6 ",
"j T.*.%...S ' *.*.~ %.T.Y.Y.(.(.(._ G C G ) ..f.c.+X$XS.A.V.B.B.B.V.A.A.S.$XOXk.f.*.~ _ ] o.Y.Y.,.,.,.<.~ | &.>.Z ^  .X.X.:.<.6 ",
"j T.^ P F V ! ! ! Z ` ` <.!.(.(._ G N J } j.+X$XA.l.a.l.n.m.B.B.B.m.b.l.a.d.N.%X$Xc.f.} T ` %.T.<.,.| ` ^ Z ! ! ! V F F !  .<.6 ",
"j / %.3.<.,.,.:.*.*.*.*.} | ^ | C N ( j.S.A.b.a.z.b.z.a.q.9.6.6.7.8.q.a.n.m.m.a.d.V.%X|.o.J ` ..} } %.<.<.,.,.>.>.>.>.>.#.q M 6 ",
"j V T.<.,.,.,.,.,.,.,.,.,.,.<._ w T x.$XV.p.s.m.w.7.4.0.s.z.N.N.m.z.a.7.6.9.s.V.m.q.b.%XOXo.N T.Y.T.<.<.,.<.<.<.<.<.<.>.&.& X 1 ",
"j V T.,.,.,.,.,.,.,.,.,.,.,.T.J C x.G.b.q.N.l.5.9.n.A.%X%X%X%X%X%X%X%X%XA.l.9.7.b.A.d.a.S.+XL | Y.,.,.<.<.<.<.<.>.<.<.<.>.& . < ",
"j V T.,.<.`.}.].H.,.<.,.,.H.K.m r.S.n.a.m.p.7.s.V.%X%X%X%X%X%X%X%X%X%X%X%X%XB.q.6.m.S.a.d.F.x.L !.<.,.<.3.<.<.|.}.T.<.<.>.& . < ",
"j V T.,.<.OX'.).R.T.K.T.T.Y.>.K C.F.9.n.n.5.q.S.$X%X%X%X%X%X%X%X%X%X%X%X%X%X%XV.7.8.B.V.q.m.$XK W.<.<.3.T.3.3.OX[.oXR.3.>.& . < ",
"j V Y.<.<.|.`._.R.T.T.T.Y.(.>.e.S.b.a.N.q.q.B.S.%X%X%X%X%X%X%X%X%X%X%X%X%X%X%XF.n.6.q.%Xl.9.%Xu.W.<.3.T.T.T.3.OXE.].E.3.>.& . < ",
"j V W.3.T.T.'.'.T.T.T.T.T.Y.>.u.S.p.l.B.7.p.%XF.%X%X%X%X%X%X%X%X%X%X%X%X%X%X%X%XS.6.7.%Xm.6.%Xx.W.T.T.T.T.3.T.).'.3.3.3.>.& . < ",
"j p (.T.T.T.T.T.T.Y.Y.T.Y.Y.>.y.S.p.l.D.9.i.F.%X%X%X%X%X%X%X%X%X%X%X%X%X%X%X%X%XS.6.q.%Xm.6.%Xx.W.T.T.T.T.T.Q.T.T.T.T.3.>.& . < ",
"j a (.Y.T.T.T.T.Y.Y.Y.T.T.<.&.+.S.l.p.A.d.8.m.%X%X%X%X%X%X%X%X%X%X%X%X%X%X%X%X%Xl.6.n.%Xl.8.S.e.T.<.T.T.T.T.T.T.T.<.<.3.>.&   < ",
"j t (.(.(.W.W.W.~.,.| | ..| ' B Z.F.9.m.S.q.9.A.%X%X%X%X%X%X%X%X%X%X%X%X%X%X%Xm.7.l.F.B.9.l.Z...| | } { | | >.W.3.<.<.W.&.&   < ",
"j = *.....| | | | ' &.&.,.T.T. .O.$Xn.a.B.B.a.q.m.G.%X%X%X%X%X%X%X%X%X%X%XS.m.9.a.S.S.p.a.V.j.,.,.,.%.| J ~ ] } } } } } ^ @   < ",
"j = ] W W T T T J V >.T.T.T.,.,.,.h.$Xz.q.B.S.l.8.d.m.S.%X%X%X%X%X%X%XA.m.p.q.b.F.B.a.i.B.v.*.,.,.,.,.,.^ ~ J J J J T W J @ . < ",
"j = ) A ! &.%. .{ S S !.T.T.T.T.T.T.g.+XB.q.a.A.S.n.a.q.9.p.d.d.s.p.9.q.a.B.S.V.l.9.d.S.h...*.,.,.,.>.,.N { %.,.>.<.p W J @ $ 3 ",
"j F p q B ,.,.*. .` B ,.T.T.T.T.T.T.K.t.oXV.l.q.l.B.S.A.N.m.b.b.n.m.N.A.F.B.b.i.p.N.Z.t.| ,.T.K.,.,.,.` B ..:.,.3.,.0 q 0 # 3 6 ",
"j Y./ ! q *.,.,.*.%.J J *.Y.T.T.Y.Y.Y.T.@.g.|.$XN.a.q.p.l.b.m.m.m.m.d.p.q.p.z.S.v.r.*.,.K.T.T.T.K.T.] m J :.,.,.<.~ & O < 4 6 6 ",
"6 Y.3.<.V H *.,.,.:...S W ,.Y.Y.Y.Y.Y.Y.T.%.' _ g.|.C.A.V.B.m.m.m.M.B.A.S.Z.g._ | ,.T.T.T.T.T.T.T.] w S { *.,.3.` : o $ 6 6 6 6 ",
"6 Y.3.3.%.0 ] <.,...' B C ] _ | !.Y.Y.Y.T.T.<.,.' ` ` ' | ..o.r.o.....| o.` | K.T.Y.Y.Y.Y.Y.Y.W.] C p Z ! ,.3.,.A @ X 4 6 6 6 6 ",
"6 Y.3.3.<.S C | { @.>.' C J [ { (.Y.Y.Y.Y.T.T.3.<.' @.>.>.>.>.&.%.%.*.| ! %.<.T.Y.Y.Y.Y.Y.T.<.] H N ~ { ' ! | T - o > 6 6 6 6 6 ",
"6 Y.3.3.3.>.p H } T.<.3.<.| J '  .,.!.W.Y.T.T.T.<.%.Y.W.~.Y.T.T.T.T.T.T.T.` K.T.Y.Y.Y.!.T...T C C ' ..%. . .B w @ , 5 6 6 6 6 6 ",
"6 Y.<.3.3.<.{ N ^ X.<.<.,.,.| ~ ~ ] ..<.T.Y.W.T.@.T.T.T.Y.T.T.T.T.T.T.T.T.%.%.T.!.T.<..._ H C ~ } *.*.%. .H 0 & , 5 6 6 6 6 6 6 ",
"6 Y.<.3.3.3.<.' S ) ..T.<.<.T.<./ P ~ ] ] &.>.W.{ W.T.T.Y.W.[.T.E.E.T.T.T.>.@.3.%.{ T H C A ~  .&.*.*.%.J w & , 5 6 6 6 6 6 6 6 ",
"6 Y.<.<.3.3.3.T.Y p W } ,.T.T.Y.T.{ ' Z J J ~ ~ ! W.W.W.W.W.XX#X@XT.T.T.T.>.S ~ T C C S { { %.*.*.*.W C w # , 5 6 6 6 6 6 6 6 6 ",
"6 Y.<.<.3.3.3.Y.j d r B ] | W.W.| ,.,.*.} ! i i Z ~.(.W.W.W.XXOX XY.Y.Y.T.>.p 0 i ` { <.3.<.| >.X.W C 7 8 1 5 6 j 6 6 6 6 6 6 6 ",
"6 R (.(.(.(.(.R j j 4 9 B W ` H <.T.3.,.,.%. . .~ ^.W.~.~.Q. X~.'.'.Q.Q.T.>.T ` >.,.,.T.T.T.%.^ H m 7 y j j j j 6 6 6 6 6 6 6 6 ",
"6 6 R R R R R j j j j j d r e C | } *.Y.Y.>.%.%.~ (.^.~.~.W.W.W.W.W.Q.Q.T.>.J { ,.3.T.T.` T B C - u d j j j 6 6 6 6 6 6 6 6 6 6 ",
"6 6 6 6 6 6 6 j j j j j j j d t B H ( ( ( | | } Z <.K.,.,.,.*.*.*.*.,.,.,.' B ~ | ^ S A C e 7 9 f j j j 6 6 6 6 6 6 6 6 6 6 6 6 ",
"6 6 :.:.:.:.:.:.:.j j j j j j j y r N C C W W H q } ] ] ] ] _ _ ) ) ) ) ] J 0 B S B p w 0 N d j j j j 6 6 6 6 6 6 6 6 6 6 6 6 6 ",
"6 <.:.:.:.:.:.:.:.j j j j j j j j j y u t e q 0 - ` ) ) W W W W W W W W W S = - 0 q N B ^  .T.j j j 6 6 6 6 6 6 6 6 6 6 6 6 6 6 ",
"6 <.:.:.:.:.:.:.:.:.6 j j j j j j j j j j z g d 8 Q W J J E E W E W W E E A % ; [  .X.%.:.:.T.j j 6 6 6 6 6 6 6 6 6 6 6 6 6 6 6 ",
"6 <.:.:.:.:.:.:.:.:.:.:.:.:.T.j j j j j j j j c y e 0 0 0 q q q q q q 0 0 : * } :.:.:.:.:.:.T.j 6 6 6 6 6 6 6 6 6 6 6 6 6 6 6 6 ",
"6 <.:.:.:.:.:.:.:.:.:.:.:.:.T.j j j j j j j j j -.x g g z x g g g %.| | | |  .:.:.:.:.:.:.:.<.6 6 6 6 6 6 6 6 6 6 6 6 6 6 6 6 6 ",
"6 <.:.:.:.:.:.:.:.:.:.:.:.:.<.j j j j j j j j j c c j c c 2 x j j T.:.:.:.:.:.:.:.:.:.:.:.:.<.6 6 6 6 6 6 6 6 6 6 6 6 6 6 6 6 6 ",
"6 <.:.:.:.:.:.:.:.:.:.:.:.:.<.6 6 j j j j j j j 2 2 j l l 2 j j j T.:.:.:.:.:.:.:.:.:.:.:.:.<.6 6 6 6 6 6 6 6 6 6 6 6 6 6 6 6 6 ",
"6 <.:.:.:.:.;.;.:.:.:.:.:.:.<.6 6 6 6 6 j j j j j j j 2 2 j j j j T.:.:.:.:.:.:.:.:.:.:.:.:.<.6 6 6 6 6 6 6 6 6 6 6 6 6 6 6 6 6 ",
"6 <.%.:.:.:.;.;.:.:.:.:.:.:.<.6 6 6 6 6 6 6 6 6 j j j j j j j j j T.:.:.:.:.:.:.:.:.:.:.:.:.<.6 6 6 6 6 6 6 6 6 6 6 6 6 6 6 6 6 ",
"6 <.%.%.%.:.:.:.:.:.:.:.:.:.<.6 6 6 6 6 6 6 6 6 6 6 6 6 6 6 6 6 6 <.:.:.:.:.:.:.:.:.:.:.:.:.<.6 6 6 6 6 6 6 6 6 6 6 6 6 6 6 6 6 ",
"6 <.%.%.%.%.%.:.:.:.:.:.:.:.<.6 6 6 6 6 6 6 6 6 6 6 6 6 6 6 6 6 6 Y.Y.Y.Y.Y.:.:.:.:.:.:.:.:.<.6 6 6 6 6 6 6 6 6 6 6 6 6 6 6 6 6 ",
"6 <.%.%.%.%.%.%.:.:.:.:.:.:.<.6 6 6 6 6 6 6 6 6 6 6 6 6 6 6 6 6 6 6 6 I I I Y.:.:.:.:.:.:.:.<.6 6 6 6 6 6 6 6 6 6 6 6 6 6 6 6 6 ",
"6 ,.%.%.%.%.:.:.%.%.:.:.:.:.<.6 6 6 6 6 6 6 6 6 6 6 6 6 6 6 6 6 6 6 6 6 6 6 I Y.:.:.:.:.:.:.<.6 6 6 6 6 6 6 6 6 6 6 6 6 6 6 6 6 ",
"6 I T.T.T.T.T.T.T.T.T.T.T.T.I 6 6 6 6 6 6 6 6 6 6 6 6 6 6 6 6 6 6 6 6 6 6 6 6 I T.T.T.T.T.T.6 6 6 6 6 6 6 6 6 6 6 6 6 6 6 6 6 6 ",
"j =.=.I I I I I I I I I I I 6 6 6 6 6 6 6 6 6 6 6 6 6 6 6 6 6 6 6 6 6 6 6 6 6 6 I I I I I I 6 6 6 6 6 6 6 6 6 6 6 6 6 6 6 6 6 6 "
};
