/* XPM */
static const char *RXhpdF80[] = {
/* columns rows colors chars-per-pixel */
"64 64 198 2 ",
"   c #341A19",
".  c #391D1B",
"X  c #3C201C",
"o  c #3D272D",
"O  c #44291B",
"+  c #43241B",
"@  c #48381C",
"#  c #472C27",
"$  c #4E3228",
"%  c #573928",
"&  c #4A3639",
"*  c #563D33",
"=  c #4F411F",
"-  c #574E1C",
";  c #52441E",
":  c #5A511D",
">  c #605B1E",
",  c #6E6F1F",
"<  c #73761D",
"1  c #5F4D2A",
"2  c #574424",
"3  c #5B4234",
"4  c #5D463A",
"5  c #5D493D",
"6  c #5F5722",
"7  c #604A2B",
"8  c #685C28",
"9  c #634B3D",
"0  c #614935",
"q  c #6B5A39",
"w  c #6B6A23",
"e  c #6C6529",
"r  c #726F2E",
"t  c #6A7122",
"y  c #737720",
"u  c #757924",
"i  c #73732A",
"p  c #767B2A",
"a  c #787D2E",
"s  c #787B21",
"d  c #797E32",
"f  c #7B7E3B",
"g  c #777832",
"h  c #5E4B41",
"j  c #574140",
"k  c #5E504B",
"l  c #624E43",
"z  c #644F4B",
"x  c #635245",
"c  c #6B5344",
"v  c #65534B",
"b  c #6A564B",
"n  c #66594E",
"m  c #6D594D",
"M  c #715C4E",
"N  c #655A52",
"B  c #6B5C53",
"V  c #6C5D5A",
"C  c #675755",
"Z  c #715D54",
"A  c #65614D",
"S  c #756A4A",
"D  c #787444",
"F  c #666353",
"G  c #6B6154",
"H  c #6E6B56",
"J  c #6C635C",
"K  c #6B6959",
"L  c #726156",
"P  c #73645C",
"I  c #75695E",
"U  c #78665F",
"Y  c #797153",
"T  c #6C6461",
"R  c #6E6964",
"E  c #6E696A",
"W  c #69636F",
"Q  c #736662",
"!  c #746A64",
"~  c #7A6D65",
"^  c #736D6A",
"/  c #796D69",
"(  c #7B7067",
")  c #76726C",
"_  c #7C736C",
"`  c #7D796E",
"'  c #757373",
"]  c #7C7673",
"[  c #7E7D73",
"{  c #7D7B7C",
"}  c #81766F",
"|  c #807771",
" . c #827C74",
".. c #837E79",
"X. c #7C802D",
"o. c #7F8226",
"O. c #7A8036",
"+. c #7B8138",
"@. c #7F8076",
"#. c #818333",
"$. c #818175",
"%. c #898175",
"&. c #84837B",
"*. c #89867D",
"=. c #8A897E",
"-. c #2B66AA",
";. c #2F69AD",
":. c #316BAF",
">. c #336DB1",
",. c #3771B3",
"<. c #3A73B6",
"1. c #3E76B9",
"2. c #3F78BA",
"3. c #7E7E81",
"4. c #437BBD",
"5. c #467FC0",
"6. c #487FC1",
"7. c #7E818A",
"8. c #7B8597",
"9. c #7A8BA5",
"0. c #7A93BA",
"q. c #7C91AB",
"w. c #4C83C4",
"e. c #548BCB",
"r. c #588FCE",
"t. c #5C93D1",
"y. c #5A90CF",
"u. c #6197D5",
"i. c #6399D6",
"p. c #669BD9",
"a. c #699EDB",
"s. c #7C99C2",
"d. c #6CA1DE",
"f. c #7EA2D1",
"g. c #6FA4E0",
"h. c #71A6E2",
"j. c #74A9E4",
"k. c #79ACE7",
"l. c #7AAEE9",
"z. c #77ABE8",
"x. c #7EB1EC",
"c. c #868581",
"v. c #898681",
"b. c #878884",
"n. c #8C8D84",
"m. c #8D8E86",
"M. c #8D8D87",
"N. c #8B8B84",
"B. c #8E8F89",
"V. c #8D8E89",
"C. c #83858A",
"Z. c #908D86",
"A. c #908E8A",
"S. c #8F908C",
"D. c #919086",
"F. c #91908A",
"G. c #92928D",
"H. c #92928D",
"J. c #828B9B",
"K. c #838A93",
"L. c #8C959A",
"P. c #83909F",
"I. c #959591",
"U. c #949591",
"Y. c #979893",
"T. c #999995",
"R. c #9C9D9A",
"E. c #91999D",
"W. c #8E9BA5",
"Q. c #8695A7",
"!. c #929DA3",
"~. c #919EA9",
"^. c #839BB6",
"/. c #8A9EB2",
"(. c #869EBB",
"). c #818FA4",
"_. c #88A1BD",
"`. c #89A0BA",
"'. c #95A7BB",
"]. c #809FC6",
"[. c #85A6CC",
"{. c #88A6C8",
"}. c #93ADCA",
"|. c #93ADC7",
" X c #86AAD4",
".X c #8DAED3",
"XX c #84ACDB",
"oX c #83A7D3",
"OX c #8DB2DC",
"+X c #82AFE3",
"@X c #86B3E6",
"#X c #83B4EC",
"$X c #88B6EA",
"%X c #89B9EE",
"&X c #88B2E2",
"*X c #83B6F1",
"=X c #86B9F3",
"-X c #8ABDF5",
/* pixels */
"u u u u u u u u u u u u u u u p p p p p p p p p p p p p p p p p p p p p p p p u u u u u u u u u u u y y y < < < < < < < < < < < ",
"u u $.[ [ [ [ @.[ [ [ [ [ @.p p p p p p p p p a a a a a a a a a a a N.N.N.N.b.b.b.b.b.=.=.=.u u u u [ [ [ [ [ [ [ [ [ [ [ [ < < ",
"u &.[ [ [ [ [ [ [ [ [ @.@.$.&.p p p p a a a a a a a a a a a a a a G.M.M.M.n.N.N.N.n.b.b.b.b.F.u u &.[ [ [ [ [ [ ` ` ` ` [ [ &.< ",
"u &.[ [ [ [ [ [ [ @.$.$.$.$.v.p p a a a a a a d d d d d d d d d d G.M.M.M.M.M.M.n.n.n.N.b.b.F.u u &.[ [ [ [ [ [ [ [ ` ` [ [ &.< ",
"u &.[ [ [ [ [ [ @.$.$.$.$.$.b.a a a a a d d d d d d d d d d d d d U.M.M.M.M.M.M.M.n.N.N.N.b.F.u u &.[ [ [ [ [ [ [ [ ` ` [ [ &.< ",
"u &.[ [ [ [ @.@.$.$.$.$.$.$.N.a a a d d d d d d d d +.d +.+.+.+.d U.V.V.V.M.M.M.M.M.n.n.N.N.F.p u v.[ [ [ [ [ [ [ [ [ ` [ [ &.< ",
"u &.[ [ @.@.@.$.$.$.@.$.$.$.N.d d d d d d d +.+.d f f f f f f f f G.N.N.b.v.&.b.M.M.M.n.M.N.F.p p v.@.[ [ [ [ [ [ [ [ [ [ [ &.< ",
"u &.@.@.@.@.$.$.$.$.$.$.$.$.N.d d d d d +.+.+.+.S _ _ _ _ } } } } } } _ ~ & o k N.M.M.M.M.n.G.p p b.$.[ [ [ [ [ [ [ [ [ [ [ &.< ",
"u v.@.@.@.$.$.$.$.$.$.$.$.$.N.d d d +.+.+.+.+.f L V.V.V.V.G.G.G.G.F.F.F.N.~ & & v.V.M.M.M.M.G.a p b.$.$.[ [ [ [ [ [ [ [ [ [ &.< ",
"u v.@.@.$.$.$.$.$.$.$.&.$.&.N.d +.+.+.+.+.f f f L I.G.G.G.G.|.|..X!.G.F.F.*.j & $.N.M.V.M.M.G.a a b.$.$.@.[ [ [ [ [ [ [ [ [ &.< ",
"u v.$.$.$.$.$.$.$.$.&.&.&.&.N.+.+.+.f D D L L P Z U.G.G.G.G.OX|.}.!.G.G.G.Z.z l L U _ &.M.M.G.d a b.$.$.$.@.[ [ [ [ [ [ [ [ &.< ",
"u v.@.$.$.$.$.$.$.$.&.&.&.&.M.+.f S S ~ _ N.N.M.U U.G.G.I.U.OX'.}.E.G.G.G.Z.Q [ N. .~ U P _ G.d a N.$.$.$.$.[ [ [ [ [ [ [ [ &.< ",
"u v.$.$.$.$.$.$.$.&.&.&.&.&.c.D Y &.V.N...P P P Z U.G.U.U.U.T.R.R.U.U.U.I.Z.Z L L ~ ..M.M.~ v.g g N.$.$.$.$.@.[ [ [ [ [ [ [ &.< ",
"u v.$.$.$.$.$.$.&.&.&.&...! Q &.v.v.| Q ..F.G.U.~ U.U.U.U.I.U.U.U.U.U.U.U.A.| G.G.b.*.P *._ m c q .. .$.$.$.$.[ [ [ [ [ [ [ &.< ",
"u F M.M.V.V.V.V.V.V.V...U  .G.V.&.~ ( v.S.S.F.G.| H.U.U.U.Y.Y.Y.Y.Y.Y.U.U.v. .G.G.G.G.G._ | } .._ m P ..N.V.M.N.N.N.N.b.b.M.A < ",
"u p F F F F F F F K n ~ V.V.V.~ ..N.V.N.G.G.G.G.Y...Y.U.R.R.R.R.R.R.R.Y.T.Q V.V.V.G.G.G.G.b._ [ &.&. .b x F F F F F F F F F y < ",
"u p p p a a a d g q &.G.G.&.~ v.V.V.S.G.G.G.I.A.Q / V.V.{ { { { { { b.U.U.Q Y.I.V.S.S.S.V.V.S.( L  .b.b.L r p p u u u u u y y < ",
"p p &.&.&.&.&. .~ _  ....._ V.V.V.V.G.G.I.I.V.{ T V ' ] ^ ! ! / / / ] { c.Q V.V.U.U.V.V.b.N.V.V.v.U | _ _ Z L $.&.$.$.$.$.$.y y ",
"u N.&.&.&.&.$.I v.M.S._ / V.V.V.S.G.U.U.V.{ ' ' ' v V V V B V V P P Q Q / Q b.b.c.V.U.U.V.N.N.N.N.b.b ..N.M.| Z $.&.$.$.$.$.&.y ",
"p N.&.&.&.&.L V.b.b...| V.V.G.G.G.U.G.' E E T z z ] ] ] ....&.&.c.c.b.] ^ Q P / ] 3.{ b.S.V.N.N.N.v.v.P ..b.*.| P &.$.$.$.$.*.y ",
"p N.&.&.&._ L b.v.| ~ G.S.G.U.G.U.Y.' E J C C ] ] ..c.J.Q.^.(.(._._./.Q.7.^ ' c.) ! { { b.G.V.N.v.b.b. .L v.&.%.c $.$.$.$.$.b.y ",
"u M.$.$. .B ( &.&.! *.G.G.U.T.Y.T.^ J C T ] C.).{.$X=X#Xl.z.j.j.h.j.l.x.*X%X XQ.K.M.Q ) ' c.U.G.N.b.N.N.~ | &.&.m I  . . .$.b.y ",
"u N.P b m l Z Z Z m Q ! A.R.R.R.^ T C Q 3._.&X-Xl.r.w.e.u.p.j.j.j.p.i.r.6.e.a.-X$X{.J...! ' ..U.G.V.] Q P c M M M 9 c c M ` b.y ",
"u I &.M.M.v.v.v.v.&.v.b.] ..Q { V C ' ^.%Xx.u.w.t.u.t.w.4.<.;.;.:.<.4.e.i.a.p.w.e.k.=X[.C.J ) ..] ] &.M.M.b.b.=.=.*.*.*. .3 h y ",
"u c V.b.b.b.v.b.v.b.N.N.N.V.A.^ z R {.%Xl.4.e.j.w.<.:.4.r.p.j.j.j.i.w.<.>.2.r.l.p.4.t.=X XK.v G.G.V.N.b.b.b.b.=.=.*.*.*.%.$   > ",
"u c M.*.*.b.b.b.b.N.N.N.M.V.S.V T [.-Xu.4.g.t.:.4.p.x.-X-X-X-X-X-X-X-X-Xl.r.<.,.u.k.e.w.x.@X^ ] U.N.N.b.b.N.b.=.=.*.*.*.%.$   - ",
"u c Z.b.b.Q._./.V.N.N.M.V.V.A.v q.=Xi.w.d.w.>.e.l.-X-X-X-X-X-X-X-X-X-X-X-X=Xj.4.>.p.x.w.e.*X].T T.N.N.N.M.N.N. X_.V.N.*.%.$   - ",
"u c Z.b.b.XXW.W.W.M.V.V.V.G.v.E $X=X<.p.i.;.5.-X-X-X-X-X-X-X-X-X-X-X-X-X-X-X-Xx.<.,.j.j.1.u.=XW T.N.N.M.Z.M.N.XX/. XL.=.%.$   - ",
"u c Z.b.N.[.W./.L.V.V.V.G.U.v.9.-Xt.w.g.<.<.j.-X-X-X-X-X-X-X-X-X-X-X-X-X-X-X-X-Xa.-.1.-Xr.<.=X0.T.N.M.M.Z.M.Z.XXW./.L.n.%.$   - ",
"u c F.n.M.G.~.!.A.S.F.S.G.I.v.s.-X4.r.j.;.4.=X-X-X-X-X-X-X-X-X-X-X-X-X-X-X-X-X-X=X-.;.-Xi.-.=XXXT.V.V.V.M.n.Z.!.W.Z.n.N.%.$   - ",
"u 9 G.M.M.Z.V.A.A.F.F.G.G.G.v.0.=X4.r.j.,.4.#X-X-X-X-X-X-X-X-X-X-X-X-X-X-X-X-X-Xx.-.<.-Xi.-.=Xf.T.V.V.V.M.Z.D.Z.Z.M.M.n.%.$   - ",
"u 9 G.D.M.Z.Z.A.F.F.F.G.G.G.v.8.-Xr.4.z.w.>.a.-X-X-X-X-X-X-X-X-X-X-X-X-X-X-X-X-Xr.-.t.-Xe.,.=X9.T.V.A.S.F.F.D.D.D.=.=.n.%.$   - ",
"u 0 T.I.I.H.G.G.G.*.]  . ._ _ C @Xx.>.i.x.,.<.l.-X-X-X-X-X-X-X-X-X-X-X-X-X-X-Xa.:.e.*Xj.<.r.#X7.] ] _ _ | | *.G.Z.=.=.F.%.$   - ",
"u %  .[ [ ] ] ] ] _ v.v.N.V.V...8.$Xt.4.g.d.5.4.a.*X-X-X-X-X-X-X-X-X-X-X-Xl.u.<.w.x.x.4.w.x.(.N.N.v.&. .P Q ) ) ) ) ( ) P O   - ",
"u % ^ R J J J P J c N.M.V.V.V.V.M.).*Xr.<.j.#Xr.,.w.p.x.-X-X-X-X-X-X=Xk.u.2.<.i.*Xj.4.2.j.oXN.v.v.&.&.b._ ! G G G G J J B +   - ",
"u % ! n L *.&. .| B C U.V.V.V.V.G.U.).@Xd.<.4.z.*Xp.w.<.<.4.e.e.w.4.,.1.w.j.=Xl.r.>.w.#X^...&.V.N.v.&.v.x | &.b.N.Z.9 J B + O , ",
"u b l 3 b N.&.&. .( v b.V.V.V.V.S.G.A.J. Xj.e.<.e.j.x.l.d.p.t.t.t.p.g.x.=Xj.t.1.4.d.+X9.{ N.S.M.N.b.N.) v $.&.b.b.&.3 5 3 O , y ",
"u Z.~ L 4 &.*.&.&.&.B V v.G.V.S.G.G.U.U...J.[.@Xa.5.1.2.w.y.u.u.u.u.w.4.<.4.r.k.oX8.M.V.V.V.V.V.N.M.^ z B &.&.=.N.~ $ . : w y y ",
"u V.=.=.9 J ..&.&.&.$.L ! N.T.G.G.G.U.G.G.&._ ^ ). X+Xl.j.d.u.u.u.p.j.z.l. X9.^ ..N.G.V.V.G.V.V.V.) l L ` &.&.N.! 3 X @ y y y < ",
"u A.=.b. .* ) b.&. ._ b B ' !  .U.G.G.G.G.S.V.V.] _ _ ] { C.K.J.8.7.3.{ b./  .G.U.G.G.G.G.F.F.G.) N x b P *.b.*.N +   w u y y < ",
"u Z.=.=.=.b v ] _ } v.~ v J ] _ T.G.G.G.G.S.V.V.V._ ..N.N.Z.N.v.v.v.v. .L &.V.G.G.G.G.G.G.F.A.^ V l I _ ( B } J * . @ y y y < < ",
"u Z.=.=.=.&.9 J [ V.b.M.V.| Z (  .N.U.G.G.F.F.F.A.*.G.U.U.U.G.G.G.G.S.V.I.! A.A.G.G.G.U.F...J v v _ $. . ...b v X ; t u y y < < ",
"y Z.=.=.=.=.( 9 ! $.N.N.v.v.| I ! ) ..N.F.G.G.F.} H.G.G.G.G.G.G.G.A.V.V.G.&...S.G.F.M...^ V N ! _ &.&.&. .B 4 $ ; y u y y y < < ",
"y Z.=.=.=.=.=.~ b ^ [ V.b.N.V.V.~ L Q ) ) v.*.U.( U.F.H.G.H.`.G.L.L.A.A.V.Z.| G.*._ J J N N I  .&.&.&...J x $ = t u u y y < < < ",
"y M.=.=.=.b.b.M.G l ! ) &.V.V.F.F.} _ b P P ! ! Z Y.H.H.G.G.'.OX.XU.G.A.V.Z.B I I B N B _ _ &.&.&.&.Q v h O 2 y u u y y < < < < ",
"y M.=.=.=.=.b.F.u e 3 v ) ] G.U._ b.N.*._ U 9 9 m U.G.G.G.G.'.OX.XY.F.F.V.Z.l 0 4 ( ( M.M.b.[ v.&.T n * 2 6 y u u y y y < < < < ",
"< H H.H.H.G.G.H u u w 1 v T ^ N A.M.N.b.v.&.&.&.P T.G.G.G.H.}.T.!.E.F.F.F.Z.P _ b.v.&.M.M.M.&.Q N x 3 8 y u u u u y y < < < < < ",
"< < H H H H H u u u u p e 0 l N ] ] v.G.G.&.&.&.L T.H.H.H.H.G.H.H.H.F.F.A.Z.L ( v.M.H.H.( J x B % 1 e i u u u u y y y < < < < < ",
"< < < y y u u u u u u u p i e 7 v J R R R .... .b V.V.N.v.v.v.&.&.&.v.N.N.| b P  .~ G B n h 3 2 w u u u u u u y y y < < < < < < ",
"< < $.$.$.$.$.$.$.u u u u u p p 8 0 x N N J J V 3 ] ) ^ ^ ^ ^ ^ ^ R ! ^ ^ P 3 v G n x x 3 9 e i u u u u u u y y y < < < < < < < ",
"< *.$.$.$.$.$.$.$.u u u u u u p p i 8 7 1 h h 5 % ) ^ ^ R R R R R R R R T J % 3 4 3 9 9 I [ b.u u u u u u y < y < < < < < < < < ",
"< *.$.$.$.$.$.$.$.$.u u u u u u u p p p p i r r % ^ R B J T J T T T T J J J # & ( [  .$.$.$.b.u u u u u y y y < < < < < < < < < ",
"< *.$.$.$.$.$.$.$.$.$.$.$.$.b.u u p u p p p p a 8 l 4 4 5 h h h h h h 5 5 4 # _ &.&.$.$.$.$.b.u u u u y y y < < < < < < < < < < ",
"< *.$.$.$.$.$.$.$.$.$.$.$.$.b.u u u u u u p p p #.d i i g d i i i ..` ` ` _ [ $.&.&.$.$.$.$.b.u u u y y y < < < < < < < < < < < ",
"< *.$.$.$.$.$.$.$.$.$.$.$.$.b.u u u u u u u u u X.X.p X.X.t p p p N.&.&.&.$.$.$.&.&.$.$.$.$.b.u y y y y < < < < < < < < < < < < ",
"< *.$.$.$.$.$.$.$.$.$.$.$.$.b.u u u u u u u u u t t u a X.t u u u N.&.&.&.$.$.$.&.$.$.$.$.$.b.y y y y < < < < < < < < < < < < < ",
"< *.$.$.$.$.$.$.$.$.$.$.$.$.b.u u u u u u u u u u u u t t u u u u b.$.$.$.$.$.$.$.$.$.$.$.$.b.y y < < < < < < < < < < < < < < < ",
"< *.$.$.$.$.$.$.$.$.$.$.$.$.b.y y u u u u u u u u u u u u u u u u b.$.$.$.$.$.$.$.$.$.$.$.$.b.< < < < < < < < < < < < < < < < < ",
"< *.$.$.$.$.$.$.$.$.$.$.$.$.=.< y y y y y u u u u u u u u u u u u b.$.$.$.$.$.$.$.$.$.$.$.$.*.< < < < < < < < < < < < < < < < < ",
"< *. .$.$.$.$.$.$.$.$.$.$.$.*.< < y y y y y y y u u u u u u u u u M.M.M.M.M.$.$.$.$.$.$.$.$.*.< < < < < < < < < < < < < < < < < ",
"< *. . . .$.$.$.$.$.$.$.$.$.*.< < < < < y y y y y y y y y y y y y y y A A A M.$.$.$.$.$.$.$.*.< < < < < < < < < < < < < < < < < ",
"< *. . . . .$.$.$.$.$.$.$.$.*.< < < < < < < < < < y y < y y y y y y < < < < A M.$.$.$.$.$.$.*.< < < < < < < < < < < < < < < < < ",
"< A N.N.N.N.N.n.n.n.n.n.n.n.A < < < < < < < < < < < < < < < < < < < < < y y < A M.M.M.M.M.M.< < < < < < < < < < < < < < < < < < ",
"s o.o.A A A A A A A A A A A < < < < < < < < < < < < < < < < < < < < < < < < < < A A A A A A < < < < < < < < < < < < < < < < < < "
};
