/* XPM */
static const char *R3Jhc3MtRXhpdA__[] = {
/* columns rows colors chars-per-pixel */
"64 64 35 1 ",
"  c #72751B",
". c #807F72",
"X c #7C7B6E",
"o c #878679",
"O c #848377",
"+ c #828076",
"@ c #8E8C83",
"# c #848279",
"$ c #828077",
"% c #838178",
"& c #838279",
"* c #838278",
"= c #605C48",
"- c #89877F",
"; c #6C6852",
": c #939189",
"> c #8D8B83",
", c #64604B",
"< c #88867D",
"1 c #7F8226",
"2 c #787B21",
"3 c #87867D",
"4 c #86847A",
"5 c #656C17",
"6 c #86847B",
"7 c #87857C",
"8 c #87867C",
"9 c #8A8A7D",
"0 c #8C8A80",
"q c #8C8A81",
"w c #8D8B82",
"e c #8D8C83",
"r c #8D8C82",
"t c #7F8124",
"y c #686F16",
/* pixels */
"                                                                ",
"  .XXXXXXXXXXX                    oooooooooooo    XXXXXXXXXXXX  ",
" OXXXXXXXXXXXX+                  @oooooooooooo@  #XXXXXXXXXXXX# ",
" $XXXXXXXXXXXX%                  @oooooooooooo@  #XXXXXXXXXXXX# ",
" %XXXXXXXXXXXX&                  @oooooooooooo@  #XXXXXXXXXXXX# ",
" *XXXXXXXXXXXX&                  @oooooooooooo@  #XXXXXXXXXXXX# ",
" &XXXXXXXXXXXX&                  @oooooooooooo@  #XXXXXXXXXXXX# ",
" #XXXXXXXXXXXX&                  @oooooooooooo@  #XXXXXXXXXXXX# ",
" #XXXXXXXXXXXX&                  @oooooooooooo@  #XXXXXXXXXXXX# ",
" #XXXXXXXXXXXX&                  @oooooooooooo@  #XXXXXXXXXXXX# ",
" #XXXXXXXXXXXX%                  @oooooooooooo@  #XXXXXXXXXXXX# ",
" #XXXXXXXXXXXX%                  @oooooooooooo@  #XXXXXXXXXXXX# ",
" #XXXXXXXXXXXX%                  @oooooooooooo@  #XXXXXXXXXXXX# ",
" #XXXXXXXXXXXX%                  @oooooooooooo@  #XXXXXXXXXXXX# ",
" =------------=                  ;::::::::::::;  =----------->, ",
"  ============                    ;;;;;;;;;;;;    ,======,,,,,  ",
"                                                                ",
"  ............                    ............    ............  ",
" <............<    12            <............3  O............4 ",
" <............12  215            <............<  6............7 ",
" <............522 22             <............<  7............3 ",
" <............<52225             <............<  8............3 ",
" <............<5225              <............<  3............3 ",
" <............< 52               <............<  <............3 ",
" <............<                  <............<  <............3 ",
" <............<                  <............<  <............3 ",
" <............<                  <............<  <............7 ",
" <............<                  <............<  <............7 ",
" <............<                  <............<  <............7 ",
" <............<                  <............<  <............7 ",
" ,>>>>>>>>>>>>,                  ,>>>>>>>>>>>>,  ,>>>>>>>>>>>>, ",
"  ,,,,,,,,,,,,                    ,,,,,,,,,,,,    ,,,,,,,,,,,,  ",
"                                                                ",
"  oooooooooooo                                                  ",
" 9oooooooooooo0                                                 ",
" qoooooooooooow                                                 ",
" wooooooooooooe                                                 ",
" rooooooooooooe                                                 ",
" eooooooooooooe                                                 ",
" @ooooooooooooe                                                 ",
" @oooooooootooe                                                 ",
" @ooooooooootoe                                                 ",
" @oooooooooo22;                                                 ",
" @oooooo:::y22                                                  ",
" @ooooo@;;t2yy                                                  ",
" @ooooo@  22                                                    ",
" ;:::::;  yy                                                    ",
"  ;;;;;                                                         ",
"                                                                ",
"  .......                         ............                  ",
" <.......                        <............<                 ",
" <........                       <............<                 ",
" <............<        21    11  <............<                 ",
" <............<         11  21   <............<                 ",
" <............<         22 225   <............<                 ",
" <............<         55 225   <............<                 ",
" <............<            55    <............<                 ",
" <............<                  <............<                 ",
" <............<                  <............<                 ",
" <............<                  >>>>>........<                 ",
" <............<                    ,,,>.......<                 ",
" <............<                       ,>......<                 ",
" ,>>>>>>>>>>>>,                        ,>>>>>>                  ",
"211,,,,,,,,,,,                          ,,,,,,                  "
};
