/* XPM */
static const char *R3Jhc3MlMjgyJTI5JTI4MSUyOQ__[] = {
/* columns rows colors chars-per-pixel */
"64 64 54 1 ",
"  c #72751B",
". c #73761C",
"X c #7A7D21",
"o c #777A1F",
"O c #74771C",
"+ c #74781E",
"@ c #777A21",
"# c #74771D",
"$ c #787B20",
"% c #7E8125",
"& c #7B7E23",
"* c #75781E",
"= c #6A7019",
"- c #6F741C",
"; c #73761D",
": c #777B20",
"> c #797D22",
", c #787B21",
"< c #6D731B",
"1 c #666C17",
"2 c #6E721A",
"3 c #7A7D22",
"4 c #7F8226",
"5 c #6D721A",
"6 c #70741D",
"7 c #777A20",
"8 c #6C711A",
"9 c #72771E",
"0 c #767A1F",
"q c #797C22",
"w c #6E731C",
"e c #72751C",
"r c #75781F",
"t c #767920",
"y c #6C7119",
"u c #6F731C",
"i c #767A20",
"p c #666D17",
"a c #74781F",
"s c #6F731A",
"d c #686E18",
"f c #6E741C",
"g c #6E731A",
"h c #7D8025",
"j c #76791F",
"k c #7A7D23",
"l c #71761E",
"z c #7D8024",
"x c #71751B",
"c c #6B7019",
"v c #676D18",
"b c #71741B",
"n c #6C721B",
"m c #666D18",
/* pixels */
"                                                                ",
"                                                                ",
"                                                                ",
"                                                                ",
"                                                                ",
"                                       .                        ",
"                                       Xo                       ",
"                                   .O. +@#                      ",
"                                   $%&*=-;.O.                   ",
"                                  ..:>,<12343.                  ",
"                                 *&$567#89,&*                   ",
"                                  0q,w-er,t.                    ",
"                                  yui#yp-a8s                    ",
"                                   y-;.5dds                     ",
"                                    y2oi.                       ",
"                                      0fg                       ",
"                                      y2                        ",
"                                                                ",
"                                                                ",
"                                                                ",
"                                                                ",
"                                                                ",
"                                                                ",
"                                                                ",
"                                                                ",
"                                                                ",
"                                                                ",
"                                                                ",
"                                                                ",
"                                                                ",
"                                                                ",
"                                                                ",
"                                               $hj              ",
"                                               .3k7#  3h*       ",
"                                                8l,# jzo        ",
"                                                xcv2j,,#        ",
"                                                 xb j,ng        ",
"                                                    =m2         ",
"            .                                                   ",
"            Xo                                                  ",
"        .O. +@#                                                 ",
"        $%&*=-;.O.                                              ",
"       ..:>,<12343.                                             ",
"      *&$567#89,&*                                              ",
"       0q,w-er,t.                                               ",
"       yui#yp-a8s                                               ",
"        y-;.5dds                                                ",
"         y2oi.                                                  ",
"           0fg                                                  ",
"           y2                                                   ",
"                                                                ",
"                                                                ",
"                                                                ",
"                                                                ",
"                                                                ",
"                                    $hj                         ",
"                                    .3k7#  3h*                  ",
"                                     8l,# jzo                   ",
"                                     xcv2j,,#                   ",
"                                      xb j,ng                   ",
"                                         =m2                    ",
"                                                                ",
"                                                                ",
"                                                                "
};
