/* XPM */
static const char *UF9kb3duXzE_[] = {
/* columns rows colors chars-per-pixel */
"64 64 221 2 ",
"   c #181919",
".  c #371E19",
"X  c #261C18",
"o  c #222218",
"O  c #29281A",
"+  c #35241D",
"@  c #363719",
"#  c #1C2628",
"$  c #1C2E33",
"%  c #1D343C",
"&  c #1E302F",
"*  c #2A2623",
"=  c #2D3325",
"-  c #2E273D",
";  c #372B3A",
":  c #21383A",
">  c #3A3536",
",  c #372D24",
"<  c #1C1F1C",
"1  c #5A271B",
"2  c #4E2D1B",
"3  c #692A1B",
"4  c #732B19",
"5  c #7A2C1B",
"6  c #74361A",
"7  c #66351B",
"8  c #4A2A25",
"9  c #553527",
"0  c #423C33",
"q  c #443F3F",
"w  c #543836",
"e  c #4F3129",
"r  c #753C35",
"t  c #6D3426",
"y  c #26413C",
"u  c #374731",
"i  c #494B1A",
"p  c #444619",
"a  c #4E501B",
"s  c #53551A",
"d  c #585A1B",
"f  c #514B1A",
"g  c #714319",
"h  c #71541A",
"j  c #665D1A",
"k  c #666B1A",
"l  c #6B6D1C",
"z  c #65671A",
"x  c #726D1B",
"c  c #6E721B",
"v  c #72751B",
"b  c #76791F",
"n  c #544B2A",
"m  c #54522A",
"M  c #5B5C25",
"N  c #4A4536",
"B  c #43583D",
"V  c #565134",
"C  c #634927",
"Z  c #7A5D2C",
"A  c #6A4637",
"S  c #7B4A37",
"D  c #64563B",
"F  c #7A513B",
"G  c #6A5D20",
"H  c #4C6037",
"J  c #4B6039",
"K  c #5B652F",
"L  c #636422",
"P  c #686A25",
"I  c #796627",
"U  c #6D7120",
"Y  c #777A20",
"T  c #797C22",
"R  c #737623",
"E  c #636332",
"W  c #5E601A",
"Q  c #1E3D48",
"!  c #342C45",
"~  c #393449",
"^  c #3D3854",
"/  c #2B3142",
"(  c #4B3B4A",
")  c #433D5D",
"_  c #473C54",
"`  c #593E50",
"'  c #6C3E41",
"]  c #453F60",
"[  c #1F414F",
"{  c #35454A",
"}  c #224C5B",
"|  c #254954",
" . c #24525F",
".. c #34494F",
"X. c #346459",
"o. c #265963",
"O. c #285C65",
"+. c #2B5A69",
"@. c #2C6969",
"#. c #366A6B",
"$. c #2E7274",
"%. c #327877",
"&. c #316C73",
"*. c #48464B",
"=. c #544847",
"-. c #565549",
";. c #47455A",
":. c #4C5A58",
">. c #545958",
",. c #534554",
"<. c #754C44",
"1. c #6C504C",
"2. c #4D6452",
"3. c #6B614E",
"4. c #4A4A66",
"5. c #53546D",
"6. c #555C77",
"7. c #4E4F6A",
"8. c #665A6D",
"9. c #526E70",
"0. c #707271",
"q. c #822F1D",
"w. c #92381C",
"e. c #893725",
"r. c #993926",
"t. c #AA3E29",
"y. c #A23C28",
"u. c #A03F1D",
"i. c #9F421F",
"p. c #8A4935",
"a. c #855435",
"s. c #994736",
"d. c #B44528",
"f. c #BA5429",
"g. c #A74935",
"h. c #9F603D",
"j. c #A4421E",
"k. c #C7522F",
"l. c #D5632F",
"z. c #DA6A3B",
"x. c #845A51",
"c. c #915A45",
"v. c #B65B42",
"b. c #856A54",
"n. c #966B56",
"m. c #916F54",
"M. c #A8674A",
"N. c #AB755B",
"B. c #B37858",
"V. c #A96D53",
"C. c #837B77",
"Z. c #897569",
"A. c #C46D43",
"S. c #CB764F",
"D. c #7E8125",
"F. c #34827E",
"G. c #668377",
"H. c #568179",
"J. c #9A946A",
"K. c #A88778",
"L. c #AD8F70",
"P. c #CC855A",
"I. c #D9884B",
"U. c #EE934E",
"Y. c #F09850",
"T. c #E78649",
"R. c #C98963",
"E. c #D2956C",
"W. c #D5A574",
"Q. c #E2A97A",
"!. c #3B7684",
"~. c #5C6983",
"^. c #407E8C",
"/. c #62748C",
"(. c #6C758A",
"). c #657991",
"_. c #697990",
"`. c #6B758B",
"'. c #388985",
"]. c #399189",
"[. c #459999",
"{. c #468E8E",
"}. c #75869B",
"|. c #6C908F",
" X c #549DAD",
".X c #7892A1",
"XX c #4EA9A9",
"oX c #53ACAE",
"OX c #59ADB7",
"+X c #58B4B8",
"@X c #70B3B2",
"#X c #5EBBC1",
"$X c #63BCC5",
"%X c #6BCAD5",
"&X c #72D1DE",
"*X c #6DC5D1",
"=X c #76D6E5",
"-X c #78D8E8",
";X c #7BD5E3",
":X c #A2988E",
">X c #B7AB8B",
",X c #869BAC",
"<X c #8EA3B2",
"1X c #95A9B7",
"2X c #9CB1BD",
"3X c #8BADAA",
"4X c #B2B0AF",
"5X c #9DA191",
"6X c #EBB986",
"7X c #CCB69E",
"8X c #9AC6BD",
"9X c #F6CE96",
"0X c #F3C791",
"qX c #F8D098",
"wX c #EAC38F",
"eX c #E1C0A7",
"rX c #A9BEC8",
"tX c #A7BBC5",
"yX c #9FB5C1",
"uX c #ADC3CC",
"iX c #F3EADA",
/* pixels */
"v v v v v v v v v v v v v v v v v v v v v v v v v v v v v v v v v v v v v v v v v v v v v v v v v v v v v v v v v v v v v v v v ",
"v v v v v v v v v v v v v v v v v v v v v v v v v v v v v v v v U E E E E E P v v v v v v v v v v v v v v v v v v v v v v v v v ",
"v v v v v v v v v v v v v v v v v v v v v v v v v v v v v v v v P -.;.;.;.;.E v v v v v v v v v v v v v v v v v v v v v v v v v ",
"v v v v v v v v v v v v v v v v v v v v v v v v v v v v v v v E -.5.6.6.7.;.D v v v v v v v v v v v v v v v v v v v v v v v v v ",
"v v v v v v v v v v v v v v v v v v v v v v v v v v v v v v U -.7.~.).).6.;.E v v v v v v v v v v v v v v v v v v v v v v v v v ",
"v v v v v v v v v v v v v v v v v v v v v v v v v v v v v E -.;.7.~.}.<X}.6.>.D P v v v v v v v v v v v v v v v v v v v v v v v ",
"v v v v v v v v v v v v v v v v v v v v v v v v v v v c P -.4.5.6._.,XrX<X/.5.*.E v v v v v v v v v v v v v v v v v v v v v v v ",
"v v v v v v v v v v v v v v v v v v v v v v v v v v v M 0 :.~.}.<X1XyXuX,X/.4.~ E v v v v v v v v v v v v v v v v v v v v v v v ",
"v v v v v v v v v v v v v v v v v v v v v v v v v l L N ! 6..X2XuXuXtX2X.X~...; M v v v v v v v v v v v v v v v v v v v v v v v ",
"v v v v v v v v v v v v v v v v v v v v v v v v v L 0 ~ ) _.tXrXuXuX2X}.~.4.~ ; M c T D.T v v v v v v v v v v v v v v v v v v v ",
"v v v v v v v v v v v v v v v v v v v v v v v c M N ; ^ 5._.<X<X<X<X,X).6.) ^ ~ N M R T b v v v v v v v v v v v v v v v v v v v ",
"v v v v v v v v v v v v v v v v v v v v v v v k 0 - - ;././.).).).).)./.6.] ) ) ! 0 P v v v v v v v v v v v v v v v v v v v v v ",
"v v v v v v v v v v v v v v v v v v v v v v v P 0 ! ~ ,.x.n.n.b.x.x.b.n.x.r ` ) ! 0 L c v v v v v v v v v v v v v v v v v v v v ",
"v v v v v v v v v v v v v v v v v v v v v v c L 0 ! _ ' i.k.l.d.u.u.f.l.f.w.' _ ! > L c v v v v v v v v v v v v v v v v v v v v ",
"v v v v v v v v v v v v v v v v v v v v v v m 0 8 9 r s.k.l.l.d.j.f.l.l.f.w.t e 8 e 0 m v v v v v v v v v v v v v v v v v v v v ",
"v v v v v v v v v v v v v v v v v v l L L L 0 ; 1 6 i.f.A.S.S.M.M.S.S.A.g.e.6 3 1 8 ; 0 L l v v v v v v v v v v v v v v v v v v ",
"v v v v v v v v v v v v v v v v v v M 0 > > 8 1 5 i.k.M.C.:X4X4X4X4X5XC.8.` r q.3 8 - ; > M v v v v v v v v v v v v v v v v v v ",
"v v v v v v v v v v v v v v v v v v M ; ! ! ( 1.x.N.R.K.,X1XuXuXuXuX2X,X/.5.1.r A =.;.~ - m v v v v v v v v v v v v v v v v v v ",
"v v v v v v v v v v v v v v v v v v M ; ~ ) 6._.<X4X4XtXtXrXuXuXuXuXuXtX,X/.5.4.6.~.~.7./ m v v v v v v v v v v v v v v v v v v ",
"v v v v v v v v v v v v v v v v v v L n N ^ 4.~..X1XrXuXuXuXuXuXtX1X<X,X}.6.4.^ 7.6.6.4./ m v v v v v v v v v v v v v v v v v v ",
"v v v v v v v v v v v v v v v v v v v v m - ^ 4.~.}.2XrXrXrXrXrX2X}././.6.) ~ ! ^ ) ] ^ - m v v v v v v v v v v v v v v v v v v ",
"v v v v v v v v v v v v v v v v v v v v L m D 1.,.7.6.~.(.(.(.0.6.4.;.;.^ ~ 1.x.( ~ ~ q m L v v v v v v v v v v v v v v v v v v ",
"v v v v v v v v v v v v v v v v v v v v v v Z S w ; ; _ 8.4.^ _ ( ( ; - ~ ,.n.V.=.; ; n v v v v v v v v v v v v v v v v v v v v ",
"v v v v v v v v v v v v v v v v v v v v v v Z a.S A A Z.4X0.; Z.L.N.<.* 8.4XK.c.F A A Z v v v v v v v v v v v v v v v v v v v v ",
"v v v v v v v v v v v v v v v v v v v v v v I a.a.a.A K.iXC.* L.0XQ.n.* C.iXK.A S a.a.I v v v v v v v v v v v v v v v v v v v v ",
"v v v v v v v v v v v v v v v v v v v v v v v I a.A , 0.iXC.* L.9X0XL.* C.iX0., A a.I v v v v v v v v v v v v v v v v v v v v v ",
"v v v v v v v v v v v v v v v v v v v v v v v v I C O 3.eXL.b.W.qXqXW.F K.eX3.O C I v v v v v v v v v v v v v v v v v v v v v v ",
"v v v v v v v v v v v v v v v v v v v v v v v v v d O A R.Q.0X9XqXqX6XR.R.R.A O d v v v v v v v v v v v v v v v v v v v v v v v ",
"v v v v v v v v v v v v v v v v v v v v v v v v v k a n A n.R.W.Q.Q.E.V.c.A n a k v v v v v v v v v v v v v v v v v v v v v v v ",
"v v v v v v v v v v v v v v v v v v v v v v v v v x x f X 9 a.V.P.P.V.a.9 X f x x v v v v v v v v v v v v v v v v v v v v v v v ",
"v v v v v v v v v v v v v v v v v v v v v v v x h g g 7 1 8 8 F M.M.F 8 8 1 7 g g h x v v v v v v v v v v v v v v v v v v v v v ",
"v v v v v v v v v v v v v v v v v v v v v v x h 6 4 q.q.q.1 8 S h.h.S 8 1 q.q.q.4 6 h x v v v v v v v v v v v v v v v v v v v v ",
"v v v v v v v v v v v v v v v v v v v v v v h 6 4 q.t.d.d.t.g.A.I.I.A.g.t.d.d.t.q.4 6 h v v v Y D.b v v v v v v v v v v v v v v ",
"v v v v v v v v v v v v v v v v v v v v P K V A t 5 y.d.k.k.z.T.Y.Y.T.z.k.k.d.y.q.3 9 C v v v v T T Y v v v T D.b v v v v v v v ",
"v v v v v v v v v v v v v v v v v v v v H | #.9.A 4 4 r.k.z.U.U.Y.Y.U.U.z.k.r.4 4 9 { B v v v v c v Y v v b D.b v v v v v v v v ",
"v v v v v v v v v v v v v v v v v v v v J } {.oX|.8.=.w <.m.J.J.J.J.J.J.m.<.1.>.0.9.#.X.J P v v v c k c b Y Y v v v v v v v v v ",
"v v v v v v v v v v v v v v v v v v v v J }  X-X=XOX+.} } $.].].].].].].$.} $.[.*X*X[.$.} H v v v v v v b Y c c v v v v v v v v ",
"v v v v v v v v v v v v v v v v v v P B X.%.OX&X+X[.O.o.$.[.#X#X#X#X#X#X[.$.&.%.$X&X$X{.} H v v v v v v c k c v v v v v v v v v ",
"v v v v v v v v v v v v v v v v v v K ..9.{.@X*X[.$...@.].oX&X=X-X-X=X&XoXF.o.o.OX&X=X X} H v v v v v v v v v v v v v v v v v v ",
"v v v v v v v v v v v v T b v v v v I D b.L.L.:X9...w :.].[.XX*X-X-X*XXX'.o.Q : '.+X&X X} J v v v v v v v v v v v v v v v v v v ",
"v v v v v v v v v v v v b Y v v v v P C M.W.E.B.>.{ w =.9.9.G.3X8X8X3XG.:.{ 0 N 9.|.3X|.} B v v v v v v v v v v v v v v v v v v ",
"v v v v v v v v Y D.T b c c v v v v d + b.0XW.B.>.| | q t p.v.P.W.W.P.v.p.t h.B.L.L.E.Z.| B v v v v v v v v v v v v v v v v v v ",
"v v v v v v v v v Y T Y c k c T D.T s o b.9X6XE.-.[ O.9.0.C.K.>X>X>XL.n.<.w N.Q.Q.W.R.n.=.E v v v v v v v v v v v v v v v v v v ",
"v v v v v v b T Y c v Y v c v Y T b s o b.qX9X6XV : %.oX&X;X;X;X;X;X$X{.&.| K.9X9X6XE.V.a.I v v v v v v v v v v v v v v v v v v ",
"v v v v v v v b T Y c c v b Y Y v v s o N b.b.3., & O.'.OX*X-X-X-X-X&X+X[.$.5XqXqX6XE.B.a.I v v v v v v v v v v v v v v v v v v ",
"v v v v v v v c c Y v c k c b c c v d O o o o     # [ @.'.oX&X&X&X&X&X&X+X].5XwXwXQ.R.M.a.I v v v v v v v v v v v v v v v v v v ",
"v v v v v v v v c c v v c k k c v v k d s s s a y Q |  .@.&.^.[.XXXXXXXX[.].H.0.3.D n A a.I v v v v v v v v v v v v v v v v v v ",
"v v v v v v v v v c c b Y v v v v v v v v v v P B { *.*.*.*.;.#.F.F.F.F.%.%.O.[ $ # O 9 a.I v v v v v v v v v v v v v v v v v v ",
"v v v v v v v v v v v b c c v v v v v v v v v l C t s.g.g.g.s.>.o.o.o.o.o.o.} | [ y M z I v v v v v v v v v v v v v v v v v v v ",
"v v v v v v v v v v v c c v v v v v v v v v v l 7 3 r.t.t.t.y.S *./ / ~ *.=.*.{ { J U v v v v v v v v v v v v v v v v v v v v v ",
"v v v v v v v v v v v v v v v v v v v v v v v z @ . 3 4 4 5 5 y.r., + 3 e.d.e.7 G c v v v v v v v v v v v v v v v v v v v v v v ",
"v v v v v v v v v v v v v v v v v v v v v v K 2.9.9.0.0.0.<.4 e.e.. . 3 q.r.3 2 j v v v v v v v v v v v v v v v v v v v v v v v ",
"v v v v v v v v v v v v v v v v v v v v v c B +.OX=X=X=X=X0.4 3 1 X . 3 3 3 + O d v v v v v v v v v v v v v v v v v v v v v v v ",
"v v v v v v v v v v v v v v v v v v v v v c B O.[.oXoXoXoX X|.>.> * = :.2.2.{ : = i k v v v v v v v v v v v v v v v v v v v v v ",
"v v v v v v v v v v v v v v v v v v v v v c B | $.'.].].].oX*X!.Q # y F.].].&.| # @ z v v v v v v v v v v v v v v v v v v v v v ",
"v v v v v v v v v v v v v v v v v v v v v c u $ | &.'.].].[.[.&.Q # [ F.].].'.@.& @ z v v v v v v v v v v v v v v v v v v v v v ",
"v v v v v v v v v v v v v v v v v v v v v v i = : | @.$.%.%.%.o.Q # & @.@.@.@.X.& @ z T D.b v v v v v v v v v v v v v v v v v v ",
"v v v v v v v v v v v v v v v v v v v v v v k d = # # :  . . .} Q #   # # # # #   @ k D.b v v v v v v v v v v v v v v v v v v v ",
"v v v v v v v v v v v v v v v v v v v v v v d p O     # % % % % $ <         O @ @ a U T v v v v v v v v v v v v v v v v v v v v ",
"v v v v v v v v v v v v v v v v v v v v v c @                               i c c b T c c v v v v v v v v v v v v v v v v v v v ",
"v v v v v v v v v v v v v v v v v v v v v v d i i i i @             O p i i z v v c k c v v v v v v v v v v v v v v v v v v v v ",
"v v v v v v v v v v v v v v v v v v v v v v v v v v v s o o o o o o @ k v v v v v v v v v v v v v v v v v v v v v v v v v v v v ",
"v v v v v v v v v v v v v v v v v v v v v v v v v v v k s s s s s s W c v v v v v v v v v v v v v v v v v v v v v v v v v v v v ",
"v v v v v v v v v v v v v v v v v v v v v v v v v v v v v v v v v v v v v v v v v v v v v v v v v v v v v v v v v v v v v v v v "
};
