/* XPM */
static const char *UF9kb3duXzI_[] = {
/* columns rows colors chars-per-pixel */
"64 64 224 2 ",
"   c #191919",
".  c #2E1E19",
"X  c #212218",
"o  c #2B2B19",
"O  c #2A261C",
"+  c #333319",
"@  c #3D3E19",
"#  c #35241D",
"$  c #1C1D22",
"%  c #1C2728",
"&  c #1C2E33",
"*  c #1D343C",
"=  c #1E302F",
"-  c #2B2624",
";  c #2D3425",
":  c #2C263C",
">  c #352A39",
",  c #21383A",
"<  c #373239",
"1  c #3B3636",
"2  c #373025",
"3  c #1F2019",
"4  c #5A271B",
"5  c #553318",
"6  c #692A1B",
"7  c #732B19",
"8  c #7A2C1B",
"9  c #74361A",
"0  c #66351B",
"q  c #492B26",
"w  c #483D2B",
"e  c #593328",
"r  c #413C34",
"t  c #443F3F",
"y  c #553935",
"u  c #572D28",
"i  c #753C35",
"p  c #6B3627",
"a  c #26413C",
"s  c #374731",
"d  c #4B4C1A",
"f  c #45471A",
"g  c #53551A",
"h  c #585A1B",
"j  c #504E1A",
"k  c #714319",
"l  c #71541A",
"z  c #665D1A",
"x  c #5F611C",
"c  c #666B1A",
"v  c #6B6D1C",
"b  c #65671A",
"n  c #726D1B",
"m  c #6E721B",
"M  c #72751B",
"N  c #76791F",
"B  c #5C5D25",
"V  c #53522A",
"C  c #575826",
"Z  c #4A4536",
"A  c #5B4536",
"S  c #43583D",
"D  c #5C5A3A",
"F  c #4D4928",
"G  c #684738",
"H  c #784B38",
"J  c #695030",
"K  c #4B6038",
"L  c #4E6136",
"P  c #5B652F",
"I  c #636323",
"U  c #676A24",
"Y  c #796627",
"T  c #767A20",
"R  c #797C22",
"E  c #7B7721",
"W  c #66682B",
"Q  c #1E3D48",
"!  c #342C45",
"~  c #37314D",
"^  c #393647",
"/  c #3E3A55",
"(  c #3B3551",
")  c #2C3142",
"_  c #483948",
"`  c #443C5A",
"'  c #573E4B",
"]  c #6C3E41",
"[  c #453F60",
"{  c #1F414F",
"}  c #35454A",
"|  c #224C5B",
" . c #254954",
".. c #24525F",
"X. c #304B4C",
"o. c #346459",
"O. c #265963",
"+. c #295B66",
"@. c #2C6969",
"#. c #366A6B",
"$. c #2E7274",
"%. c #327877",
"&. c #316C73",
"*. c #48464B",
"=. c #544646",
"-. c #42455C",
";. c #4C5A58",
":. c #535958",
">. c #554F4D",
",. c #754C44",
"<. c #6E524D",
"1. c #4D6452",
"2. c #72654F",
"3. c #494765",
"4. c #555C77",
"5. c #51526A",
"6. c #645B6B",
"7. c #526F6F",
"8. c #6F7272",
"9. c #822F1D",
"0. c #92381C",
"q. c #893725",
"w. c #9A3926",
"e. c #AA3E29",
"r. c #A23C28",
"t. c #A03F1D",
"y. c #9F421F",
"u. c #895139",
"i. c #855739",
"p. c #934B36",
"a. c #B44528",
"s. c #BA5429",
"d. c #A74935",
"f. c #976C37",
"g. c #A4421E",
"h. c #C7522F",
"j. c #D5632F",
"k. c #DA6A3B",
"l. c #845A51",
"z. c #8F5A47",
"x. c #B65B42",
"c. c #856A54",
"v. c #956B57",
"b. c #8A745B",
"n. c #996F56",
"m. c #A66649",
"M. c #AA775B",
"N. c #B47858",
"B. c #A86E52",
"V. c #837B77",
"C. c #89766C",
"Z. c #C46D43",
"A. c #C47C57",
"S. c #CA754E",
"D. c #7E8125",
"F. c #34827D",
"G. c #668377",
"H. c #568179",
"J. c #9A946A",
"K. c #9E897C",
"L. c #A98779",
"P. c #AE8F72",
"I. c #B79857",
"U. c #CA845B",
"Y. c #D9884B",
"T. c #EE934E",
"R. c #F09850",
"E. c #E78649",
"W. c #CA8963",
"Q. c #D3946B",
"!. c #D5A474",
"~. c #E2A97A",
"^. c #3B7684",
"/. c #5D6B84",
"(. c #407E8C",
"). c #636D86",
"_. c #67748B",
"`. c #657991",
"'. c #737E93",
"]. c #388985",
"[. c #399189",
"{. c #459999",
"}. c #468E8E",
"|. c #748499",
" X c #6C908F",
".X c #549EAE",
"XX c #7D91A4",
"oX c #7096A0",
"OX c #4EA9A9",
"+X c #53ACAE",
"@X c #58ACB6",
"#X c #58B4B8",
"$X c #70B3B2",
"%X c #5EBBC1",
"&X c #63BCC5",
"*X c #6BCAD5",
"=X c #72D1DE",
"-X c #6DC5D1",
";X c #76D6E5",
":X c #78D8E8",
">X c #7BD5E3",
",X c #A2988E",
"<X c #B7AB8B",
"1X c #8599AA",
"2X c #838DA0",
"3X c #8FA4B3",
"4X c #9CB1BE",
"5X c #90ACB1",
"6X c #B2B0AF",
"7X c #9DA191",
"8X c #D5B083",
"9X c #EBB986",
"0X c #C3BBB8",
"qX c #9AC6BD",
"wX c #F6CE96",
"eX c #F3C791",
"rX c #F8D098",
"tX c #EAC38F",
"yX c #E2C1A8",
"uX c #A9BFC9",
"iX c #A6BAC4",
"pX c #9FB5C1",
"aX c #ADC3CC",
"sX c #F3EADB",
/* pixels */
"M M M M M M M M M M M M M M M M M M M M M M M M M M M M M M M M M M M M M M M M M M M M M M M M M M M M M M M M M M M M M M M M ",
"M M M M M M M M M M M M M M M M M M M M M M M M M M M M M M M M M M M M M M M M M M M M M M M M M M M M M M M M M M M M M M M M ",
"M M M M M M M M M M M M M M M M M M M M M M M M M M M M M M W D D D D D D V V U M M M M M M M M M M M M M M M M M M M M M M M M ",
"M M M M M M M M M M M M M M M M M M M M M M M M M M M M M U >.3.3.3.3.3.3.~ < B M M M M M M M M M M M M M M M M M M M M M M M M ",
"M M M M M M M M M M M M M M M M M M M M M M M M M M M M W >.5.).|.2X2X'.4./ < B M M M M M M M M M M M M M M M M M M M M M M M M ",
"M M M M M M M M M M M M M M M M M M M M M M M M M M m U >.5.).XXpXuXiX1X/.-.< B M M M M M M M M M M M M M M M M M M M M M M M M ",
"M M M M M M M M M M M M M M M M M M M M M M M M M M B r ;.).1X4XuX4XXX).5.( < W N M M M M M M M M M M M M M M M M M M M M M M M ",
"M M M M M M M M M M M M M M M M M M M M M M M M m I Z ! 4.XX4XaXaX4XXX).5.( < I T N M M M M M M M M M M M M M M M M M M M M M M ",
"M M M M M M M M M M M M M M M M M M M M M M M M I r ^ ` '.iXuXaXaXuXiX1X/.-.< C m M M N M M M M M M M M M M M M M M M M M M M M ",
"M M M M M M M M M M M M M M M M M M M M M M m B Z > / 5.'.3X3X3X3X3X3X|.4.3.^ Z C v R D.R M M M M M M M M M M M M M M M M M M M ",
"M M M M M M M M M M M M M M M M M M M M M M U r : : -._.`.`.`.`.`.`.`.4.3.[ ` ! r U T R N M M M M M M M M M M M M M M M M M M M ",
"M M M M M M M M M M M M M M M M M M M M M M U r ! ~ =.<.v.n.c.l.l.l.n.z.i ' ` ! r U T M M M M M M M M M M M M M M M M M M M M M ",
"M M M M M M M M M M M M M M M M M M M M M m I r ! ` ] t.h.j.a.t.y.s.j.s.0.] ` ! r I v m M M M M M M M M M M M M M M M M M M M M ",
"M M M M M M M M M M M M M M M M M M M M M C r q u i p.h.j.j.a.g.s.j.j.s.0.p u q q r V M M M M M M M M M M M M M M M M M M M M M ",
"M M M M M M M M M M M M M M M M M v I I I w > 4 8 y.s.Z.S.S.m.m.S.S.Z.d.q.9 6 4 q > r I v M M M M M M M M M M M M M M M M M M M ",
"M M M M M M M M M M M M M M M M M B r 1 1 q 4 8 y.h.m.8.,X6X6X6X6X7XV.6.' i 9.6 q > > 1 C M M M M M M M M M M M M M M M M M M M ",
"M M M M M M M M M M M M M M M M M C > ! ~ _ ,.z.M.W.,XXX4XaXaXaXaX4X1X`.5.<.i G =.-.~ : V M M M M M M M M M M M M M M M M M M M ",
"M M M M M M M M M M M M M M M M M C > ~ ` 4.'.3X6X6XiXiXaXaXaXaXaXaXiX1X).5.3.4.)./.5.! V M M M M M M M M M M M M M M M M M M M ",
"M M M M M M M M M M M M M M M M M I V Z ( 3./.XX5XuXaXaXaXaXaXiX3X1X1X|.4.3./ 5.4.4.3.! V M M M M M M M M M M M M M M M M M M M ",
"M M M M M M M M M M M M M M M M M M M V : / 3./.|.4XuXuXuXuXuX4X|._._.4.` ~ ! / ` ` ( : V M M M M M M M M M M M M M M M M M M M ",
"M M M M M M M M M M M M M M M M M M M I C b.K.6.5.4.)._._._.8.4.5.-.-./ ~ <.l.' ~ ~ t V I M M M M M M M M M M M M M M M M M M M ",
"M M M M M M M M M M M M M M M M M M M M N I.8X<.> > ` 6.3./ _ _ _ _ : ^ >.v.B.' : : F M M M M M M M M M M M M M M M M M M M M M ",
"M M M M M M M M M M M M M M M M M M M M N I.W.z.G G C.0X8.> ,.M.P.b.- 6.6XL.u.q $ $ f m M M M M M M M M M M M M M M M M M M M M ",
"M M M M M M M M M M M M M M M M M M M M N f.N.f.u.u.P.sXV.- n.~.eXP.- V.sXL.e #   o d M M M M M M M M M M M M M M M M M M M M M ",
"M M M M M M M M M M M M M M M M M M M M M E f.i.u.u.P.sXV.- P.eXwXP.- V.sX8.O   o h c M M M M M M M M M M M M M M M M M M M M M ",
"M M M M M M M M M M M M M M M M M M M M M M M Y J p n.yXL.H !.rXrX!.2.P.yX2.  + d c M M M M M M M M M M M M M M M M M M M M M M ",
"M M M M M M M M M M M M M M M M M M M M M M M M h o G W.W.W.9XrXrXwXeX~.W.G O h M M M M M M M M M M M M M M M M M M M M M M M M ",
"M M M M M M M M M M M M M M M M M M M M M M M M c j V G B.W.!.~.~.~.~.M.G V j c M M M M M M M M M M M M M M M M M M M M M M M M ",
"M M M M M M M M M M M M M M M M M M M M M M M M n n j 3 H A.U.U.U.U.A.H 3 j n n M M M M M M M M M M M M M M M M M M M M M M M M ",
"M M M M M M M M M M M M M M M M M M M M M M n l k k 0 4 e A i.m.m.i.A e 4 0 k k l n M M M M M M M M M M M M M M M M M M M M M M ",
"M M M M M M M M M M M M M M M M M M M M M n l 9 7 9.9.9.4 q H m.f.H q 4 9.9.9.7 9 l n M M M M M M M M M M M M M M M M M M M M M ",
"M M M M M M M M M M M M M M M M M M M M M l 9 7 9.e.a.a.e.d.Z.Y.Y.Z.d.e.a.a.e.9.7 9 l M M M M M M M M M M M M M M M M M M M M M ",
"M M M M M M M M M M M M M M M M M M M M M C e 6 9.r.a.h.h.k.E.R.R.E.k.h.h.a.r.9.p G D P U M M T D.N M M M M M M M M M M M M M M ",
"M M M M M M M M M M M M M M M M M M M M M S } e 7 7 w.h.k.T.T.R.R.T.T.k.h.w.8 7 G 7.#. .L M M M R R T N M M R D.N M M M M M M M ",
"M M M M M M M M M M M M M M M M M M M W K o.#.7.8.:.<.,.b.J.J.J.J.J.J.b.,.y =.6. X+X}.| K M M M m M T N M N D.N M M M M M M M M ",
"M M M M M M M M M M M M M M M M M M M K | $.{.-X-X{.$.| $.[.[.[.[.[.[.$.| | +.@X;X:X.X| K M M M M m c m N T T N M M M M M M M M ",
"M M M M M M M M M M M M M M M M M M M K | }.&X=X&X%.@.$.{.%X%X%X%X%X%X{.$.O.+.{.#X=X@X%.o.S U M M M M M N T m m M M M M M M M M ",
"M M M M M M M M M M M M M M M M M M M K | .X;X=X@X+.O.F.+X=X;X:X:X;X*X@X[.@. .$.{.-X$X}.#.X.P M M M M M m c m M M M M M M M M M ",
"M M M M M M M M M M M M M M M M M M M K | .X=X#X]., Q O.].OX-X:X:X-XOX{.[.;.y X.7.,XP.P.c.G Y M M M M M M M M M M M M M M M M M ",
"M M M M M M M M M M M M R N M M M M M K |  X5X X7.Z r ^ ;.G.5XqXqX5XG.7.7.=.y } :.N.Q.!.m.J U M M M M M M M M M M M M M M M M M ",
"M M M M M M M M M N M M N T N M M M M K | C.Q.P.I.N.z.p p.x.U.!.!.U.x.p.p t  . .:.N.!.eXc.o h M M M M M M M M M M M M M M M M M ",
"M M M M M M M M T D.R N m m M M N M M P >.n.W.!.~.~.M.y ,.v.P.<X<X<XL.C.8.7.+.{ >.Q.9XrXc.3 g M M M M M M M M M M M M M M M M M ",
"M M M M M M M M M T R T m c m R D.R M Y u.N.Q.9XwXwXK. .&.}.&X>X>X>X>X>X=XOX%., A 8XwXrXc.X g M M M M M M M M M M M M M M M M M ",
"M M M M M M N R T m M T N m M T R N M Y u.N.Q.9XrXrX7X$.{.#X*X:X:X:X:X-X@X].O.& 2 2.c.c.Z X g M M M M M M M M M M M M M M M M M ",
"M M M M M M M N R T m m M N T T M M M Y u.m.W.~.tXtX7X[.#X=X;X=X=X=X=X+X].@.{ %   3 X X X o h M M M M M M M M M M M M M M M M M ",
"M M M M M M M m m T N m c m N m m M M Y u.G A D 2.8.H.[.{.OXOXOXOX{.(.&.@.O. .Q a d g g g h c M M M M M M M M M M M M M M M M M ",
"M M M M M M M M m m M M m c c m M M M Y i.w o % & { +.%.%.%.F.F.F.#.*.*.*.*.*.} S U M M M M M M M M M M M M M M M M M M M M M M ",
"M M M M M M M M M m m N T M M M M M M M Y b C a {  .| O.O.O.O.O.O.:.p.d.d.d.p.p k v M M M M M M M M M M M M M M M M M M M M M M ",
"M M M M M M M M M M M N m m M M M M M M M M v K } } *.=.*.^ ) ) *.H r.e.e.e.w.6 5 v M M M M M M M M M M M M M M M M M M M M M M ",
"M M M M M M M M M M M m m M M M M M M M M M M m z 0 q.a.q.6 # # w.r.8 8 8 8 6 # + b M M M M M M M M M M M M M M M M M M M M M M ",
"M M M M M M M M M M M M M M M M M M M M M M M M z 5 6 w.9.6 # # q.q.7 ,.8.8.8.7.7.1.P M M M M M M M M M M M M M M M M M M M M M ",
"M M M M M M M M M M M M M M M M M M M M M M M M h o # 6 6 6 # . 4 6 7 8.;X;X;X;X@X+.S m M M M M M M M M M M M M M M M M M M M M ",
"M M M M M M M M M M M M M M M M M M M M M M v d ; , X.1.1.;.; - 1 :. XoX+X+X+X+X{.+.S m M M M M M M M M M M M M M M M M M M M M ",
"M M M M M M M M M M M M M M M M M M M M M M b + %  .&.[.[.F.a % Q ^.-X@X[.[.[.].$. .S m M M M M M M M M M M M M M M M M M M M M ",
"M M M M M M M M M M M M M M M M M M M M M M b + & @.].[.[.F.a % Q &.{.{.[.[.].&. .& s m M M M M M M M M M M M M M M M M M M M M ",
"M M M M M M M M M M M M M M M M M M M M M M b + = O.@.@.@.@., % Q O.%.%.%.$.@. ., ; d M M M M M M M M M M M M M M M M M M M M M ",
"M M M M M M M M M M M M M M M M M M M M M M b +   % % % % %   % Q | ......, % % ; h c R D.N M M M M M M M M M M M M M M M M M M ",
"M M M M M M M M M M M M M M M M M M M M M M c d @ @ o         $ & * * * * %     o f x R N M M M M M M M M M M M M M M M M M M M ",
"M M M M M M M M M M M M M M M M M M M M M M M M m m d                               f T N M M M M M M M M M M M M M M M M M M M ",
"M M M M M M M M M M M M M M M M M M M M M M M M M M b d d f o             + f f d d h m m M M M M M M M M M M M M M M M M M M M ",
"M M M M M M M M M M M M M M M M M M M M M M M M M M M M M c @ X X X X X X g M M M m c m M M M M M M M M M M M M M M M M M M M M ",
"M M M M M M M M M M M M M M M M M M M M M M M M M M M M M m x g g g g g g c M M M M M M M M M M M M M M M M M M M M M M M M M M ",
"M M M M M M M M M M M M M M M M M M M M M M M M M M M M M M M M M M M M M M M M M M M M M M M M M M M M M M M M M M M M M M M M ",
"M M M M M M M M M M M M M M M M M M M M M M M M M M M M M M M M M M M M M M M M M M M M M M M M M M M M M M M M M M M M M M M M "
};
