/* XPM */
static const char *UF9JZGxl[] = {
/* columns rows colors chars-per-pixel */
"64 64 225 2 ",
"   c #1B1C1B",
".  c #271A18",
"X  c #282819",
"o  c #3B3D19",
"O  c #34331A",
"+  c #362A1F",
"@  c #191F22",
"#  c #1E2828",
"$  c #292825",
"%  c #362824",
"&  c #2E263C",
"*  c #352A39",
"=  c #3B3638",
"-  c #293630",
";  c #4A2519",
":  c #57251A",
">  c #463B1D",
",  c #772B1A",
"<  c #773A1A",
"1  c #683019",
"2  c #492C28",
"3  c #572D27",
"4  c #573629",
"5  c #413C33",
"6  c #453F3F",
"7  c #5B3D36",
"8  c #463729",
"9  c #67382C",
"0  c #753C35",
"q  c #6D362A",
"w  c #3F401C",
"e  c #2F4C3C",
"r  c #494B1A",
"t  c #41421C",
"y  c #56581B",
"u  c #4E501A",
"i  c #74451A",
"p  c #6D501A",
"a  c #5E611A",
"s  c #6A6D1B",
"d  c #66691A",
"f  c #72691B",
"g  c #6D721B",
"h  c #72751B",
"j  c #76791F",
"k  c #5C5C26",
"l  c #53522A",
"z  c #59582A",
"x  c #484636",
"c  c #574439",
"v  c #5D5C3B",
"b  c #4F4E2C",
"n  c #67483A",
"m  c #784632",
"M  c #7A543E",
"N  c #71542D",
"B  c #4C6037",
"V  c #5B692B",
"C  c #636422",
"Z  c #696B23",
"A  c #6B7527",
"S  c #767A20",
"D  c #797C22",
"F  c #777724",
"G  c #69682F",
"H  c #1E3A46",
"J  c #2E2741",
"K  c #342C45",
"L  c #233E49",
"P  c #393549",
"I  c #3E3954",
"U  c #3B3552",
"Y  c #493A45",
"T  c #443C5A",
"R  c #573E4B",
"E  c #6C3E41",
"W  c #453F60",
"Q  c #364349",
"!  c #214A5A",
"~  c #2A4753",
"^  c #29575B",
"/  c #355D5C",
"(  c #314F4B",
")  c #245460",
"_  c #285A66",
"`  c #365B67",
"'  c #2A656C",
"]  c #376766",
"[  c #2E7274",
"{  c #317C7B",
"}  c #387B78",
"|  c #30706F",
" . c #2C605C",
".. c #5A4949",
"X. c #45455A",
"o. c #4C5857",
"O. c #54514B",
"+. c #644846",
"@. c #764743",
"#. c #75574A",
"$. c #675850",
"%. c #70544F",
"&. c #576740",
"*. c #57704C",
"=. c #484764",
"-. c #52526E",
";. c #565C77",
":. c #4D4E69",
">. c #645B6B",
",. c #4E716F",
"<. c #6A6972",
"1. c #746754",
"2. c #832F1D",
"3. c #87321E",
"4. c #9A3C1C",
"5. c #8B3422",
"6. c #983924",
"7. c #A73C27",
"8. c #A03F1D",
"9. c #9F421F",
"0. c #98563A",
"q. c #8F4732",
"w. c #B4412B",
"e. c #B7482A",
"r. c #BA5429",
"t. c #AE4E36",
"y. c #9D6A3B",
"u. c #A4421E",
"i. c #C2462E",
"p. c #C9542F",
"a. c #D5632F",
"s. c #D96B3E",
"d. c #D56539",
"f. c #845A51",
"g. c #8B5747",
"h. c #B05A42",
"j. c #886755",
"k. c #936C55",
"l. c #917358",
"z. c #A6664A",
"x. c #A16D59",
"c. c #AC7757",
"v. c #B67553",
"b. c #817B78",
"n. c #92766F",
"m. c #CC7449",
"M. c #CA6F47",
"N. c #7E8125",
"B. c #3B897D",
"V. c #57814C",
"C. c #548B7B",
"Z. c #668377",
"A. c #998668",
"S. c #9A946A",
"D. c #9E897C",
"F. c #B6917C",
"G. c #AB8C70",
"H. c #B79857",
"J. c #D38852",
"K. c #ED944E",
"L. c #F09850",
"P. c #E8894A",
"I. c #CC8862",
"U. c #DB9D71",
"Y. c #D48F65",
"T. c #D5A372",
"R. c #E2AD7E",
"E. c #377A81",
"W. c #5D6982",
"Q. c #467E83",
"!. c #62748C",
"~. c #6B748A",
"^. c #667991",
"/. c #6B758B",
"(. c #398E86",
"). c #398785",
"_. c #3A918A",
"`. c #3F9491",
"'. c #449898",
"]. c #4C908B",
"[. c #77879B",
"{. c #699799",
"}. c #559CA9",
"|. c #4D9BA3",
" X c #7C8FA2",
".X c #4CA6A5",
"XX c #59A6AE",
"oX c #5AB5BA",
"OX c #57ACB5",
"+X c #69ACB8",
"@X c #6FA9AE",
"#X c #5EBBC1",
"$X c #64BBC3",
"%X c #6ECDD9",
"&X c #69C7D1",
"*X c #65C3CC",
"=X c #75D4E3",
"-X c #78D8E8",
";X c #7CD6E3",
":X c #8F909A",
">X c #B9B28E",
",X c #879CAD",
"<X c #838DA0",
"1X c #89ADA4",
"2X c #8FA4B3",
"3X c #95A9B7",
"4X c #9CB2BE",
"5X c #97A3AC",
"6X c #B2B0AF",
"7X c #A39B9A",
"8X c #EBB986",
"9X c #CBB39D",
"0X c #9AC6BD",
"qX c #F2C48F",
"wX c #F4CA94",
"eX c #F8D098",
"rX c #EDC48F",
"tX c #E4D1A4",
"yX c #E3C1A8",
"uX c #9FB5C1",
"iX c #A9BEC8",
"pX c #A7BBC5",
"aX c #9CD6D1",
"sX c #ADC3CC",
"dX c #F5EBDB",
/* pixels */
"h h h h h h h h h h h h h h h h h h h h h h h h h h h h h h h h h h h h h h h h h h h h h h h h h h h h h h h h h h h h h h h h ",
"h h h h h h h h h h h h h h h h h h h h h h h h h h h h h h h h h h h h h h h h h h h h h h h h h h h h h h h h h h h h h h h h ",
"h h h h h h h h h h h h h h h h h h h h h h h h h h h h h h h h h h h h h h h h h h h h h h h h h h h h h h h h h h h h h h h h ",
"h h h h h h h h h h h h h h h h h h h h h h h h h h h h h h h h Z v v v v v v v v G Z h h h h h h h h h h h h h h h h h h h h h ",
"h h h h h h h h h h h h h h h h h h h h h h h h h h h h h h h h G O.=.=.=.=.=.=.W O.Z h h h h h h h h h h h h h h h h h h h h h ",
"h h h h h h h h h h h h h h h h h h h h h h h h h h h h h G O.O.O.;.!.[.<X<X/.;.=.X.x k h h h h h h h h h h h h h h h h h h h h ",
"h h h h h h h h h h h h h h h h h h h h h h h h h h h g Z O.=.-.;.^.,XpXiXuX XW.=.U J x h h h h h h h h h h h h h h h h h h h h ",
"h h h h h h h h h h h h h h h h h h h h h h h h h h h k 5 o.W.[.2X3XuXsX3X[.W.=.U K & x h h h h h h h h h h h h h h h h h h h h ",
"h h h h h h h h h h h h h h h h h h h h h h h h h s C x K ;. X4XsXsXsXsX,X!.:.I = 5 5 l h h h h h h h h h h h h h h h h h h h h ",
"h h h h h h h h h h h h h h h h h h h h h h h h h C 5 P T /.pXiXsXsXsXsX,X!.=.= l C Z F D h h h h h h h h h h h h h h h h h h h ",
"h h h h h h h h h h h h h h h h h h h h h h h g k x * I -.^.2X2X2X2X2X2X[.;.X.P x k F D j h h h h h h h h h h h h h h h h h h h ",
"h h h h h h h h h h h h h h h h h h h h h h h Z 5 & & X.!.!.^.^.^.^.^.^.;.=.W T K 5 Z h h h h h h h h h h h h h h h h h h h h h ",
"h h h h h h h h h h h h h h h h h h h h h h h d 5 J P ..#.k.x.j.f.f.j.k.g.0 R T K 5 C g h h h h h h h h h h h h h h h h h h h h ",
"h h h h h h h h h h h h h h h h h h h h h h g C 5 K T E 9.p.a.e.4.8.r.a.r.4.E T K = C g h h h h h h h h h h h h h h h h h h h h ",
"h h h h h h h h h h h h h h h h h h h h h h z 5 2 3 0 q.p.a.a.e.u.r.a.a.r.4.q 3 2 2 5 l h h h h h h h h h h h h h h h h h h h h ",
"h h h h h h h h h h h h h h h h h h s C C C 8 * 3 < 9.r.M.m.m.z.z.m.m.M.t.5.< 1 : 2 & 5 C s h h h h h h h h h h h h h h h h h h ",
"h h h h h h h h h h h h h h h h h h k 5 = = 2 : < 9.p.z.b.7X6X6X6X6X7Xb.>.R 0 3.1 2 * * = z h h h h h h h h h h h h h h h h h h ",
"h h h h h h h h h h h h h h h h h h k * J K Y +.f.c.I.7X X3XsXsXsXsX4X,X!.-.+.0 n ..X.U & l h h h h h h h h h h h h h h h h h h ",
"h h h h h h h h h h h h h h h h h h k * P T ;./.5X6X6XpXpXiXsXsXsXsXsXpX,X!.-.=.;.W.W.:.J l h h h h h h h h h h h h h h h h h h ",
"h h h h h h h h h h h h h h h h h h C b 6 U :.W. X3XiXsXsXsXsXsXpX2X,X,X[.;.=.I :.;.;.=.J l h h h h h h h h h h h h h h h h h h ",
"h h h h h h h h h h h h h h h h h h h h l & I :.W.[.4XiXiXiXiXiX4X[.!.!.;.T P K I T W U & l h h h h h h h h h h h h h h h h h h ",
"h h h h h h h h h h h h h h h h h h h h C z l.D.>.:.;.W.~.~.~.<.;.:.X.X.I P %.f.R P P 6 l C h h h h h h h h h h h h h h h h h h ",
"h h h h h h h h h h h h h h h h h h h h h j H.8X$.& * T >.=.I Y Y Y * & P X.k.c.R & * b h h h h h h h h h h h h h h h h h h h h ",
"h h h h h h h h h h h h h h h h h h h h h j H.H.c % 7 n.6X<.* #.x.x.@.$ >.6XG.0.8 % 7 N h h h h h h h h h h h h h h h h h h h h ",
"h h h h h h h h h h h h h h h h h h h h h j y.z.8 % m F.dXb.$ k.U.U.k.$ b.dXF.m % + N f h h h h h h h h h h h h h h h h h h h h ",
"h h h h h h h h h h h h h h h h h h h h h h F Z O % m F.dXb.$ G.qXqXG.$ b.dXF.m % O d h h h h h h h h h h h h h h h h h h h h h ",
"h h h h h h h h h h h h h h h h h h h h h h h s r > 4 l.yXG.j.T.eXeXT.M A.yXl.4 > r s h h h h h h h h h h h h h h h h h h h h h ",
"h h h h h h h h h h h h h h h h h h h h h h h h h y X n I.R.wXeXeXeX8XI.I.I.n X y h h h h h h h h h h h h h h h h h h h h h h h ",
"h h h h h h h h h h h h h h h h h h h h h h h g p 1 ; 4 n c.R.qXeXeX8XY.z.n 4 ; i p f h h h h h h h h h h h h h h h h h h h h h ",
"h h h h h h h h h h h h h h h h h h h h h h h f < , , : . M I.R.rXrXR.I.M . : , , < f h h h h h h h h h h h h h h h h h h h h h ",
"h h h h h h h h h h h h h h h h h h h h h h p i 6.6., 1 : m z.c.c.c.c.z.m : 1 , 6.6.i p h h h h h h h h h h h h h h h h h h h h ",
"h h h h h h h h h h h h h h h h h h h h h h i , 7.7.3.2.2.q.0.0.y.y.0.0.q.2.2.3.7.7., i h h h h h h h h h h h h h h h h h h h h ",
"h h h h h h h h h h h h h h h h h h h h h h i , , 5.7.w.w.e.r.m.J.J.m.r.e.w.w.7.5., , i h h h S N.j h h h h h h h h h h h h h h ",
"h h h h h h h h h h h h h h h h h h h h A *.&.c 7 q 6.w.i.p.s.P.L.L.P.s.p.i.w.6.q 7 c &.*.A h j D D S j h h D N.j h h h h h h h ",
"h h h h h h h h h h h h h h h h h h h h V.B.B.} ^ P q 6.i.s.K.K.L.L.L.K.s.i.6.q P ^ } B.B.V.h h g h S j h j N.j h h h h h h h h ",
"h h h h h h h h h h h h h h h h h h h h V._..X.XE./ 6 7 @.l.S.S.S.S.S.S.l.@.7 6 / E..X.X_.V.h h h g d g j S S j h h h h h h h h ",
"h h h h h h h h h h h h h h h h h h h h V._.#X%X.X{ ) ! ! [ _._._._._._.[ ! ! ) { .X%X#X_.V.h h h h h h j S g g h h h h h h h h ",
"h h h h h h h h h h h h h h h h h h h h &.' OX=X*X|._ _ [ '.#X#X#X#X#X#X'.[ _ _ |.*X=XOX' &.h h h h h h g d g h h h h h h h h h ",
"h h h h h h h h h h h h h h h h h h h h B ! }.-X-X+X` ] (.OX%X=X-X-X=X%XOX(.] ` +X-X-X}.! B h h h h h h h h h h h h h h h h h h ",
"h h h h h h h h h h h h D j h h h h h h B ! }.-X-X@X..o.(.'..X&X-X-X&X.X'.(.o...@X-X-X}.! B h h h h h h h h h h h h h h h h h h ",
"h h h h h h h h h j h h j S j h h h h h B L {.aXaX1X$.O.,.,.Z.1X0X0X1XZ.,.,.O.$.1XaXaX{.L B h h h h h h h h h h h h h h h h h h ",
"h h h h h h h h S N.D j g g h h j h h h r $ A.tXtX>XC.o.9 q.h.J.U.U.J.h.q.9 o.C.>XtXtXA.# r h h h h h h h h h h h h h h h h h h ",
"h h h h h h h h h S D S g d g D N.D h h r   A.wX8X>X].,.O.#.k.F.>X>XF.k.#.O.,.].>X8XwXA.  r h h h h h h h h h h h h h h h h h h ",
"h h h h h h j D S g h S j g h S D j h h r   A.qXU.G.].(.(.(.].$X;X;X$X].(.(.(.].G.U.qXA.  r h h h h h h h h h h h h h h h h h h ",
"h h h h h h h j D S g g h j S S h h h h r   k.U.v.j.,.{ (..XoX%X-X-X%XoX.X(.{ ] j.v.U.k.  r h h h h h h h h h h h h h h h h h h ",
"h h h h h h h g g S j g d g j g g h h h r X #.v.g.+.~ ' ).OX=X=X-X-X=X=XOX).' ~ n 0.v.M X r h h h h h h h h h h h h h h h h h h ",
"h h h h h h h h g g h h g s s g h h h h d y b c O.Q ~ ^ ' ).OX&X-X-X&XOX).' ^ ~ = 2 4 b y d h h h h h h h h h h h h h h h h h h ",
"h h h h h h h h h g g j S h h h h h h h h g r $ - L Q Q X.,.C.{.+X+X}.,./ Q L L $ X X r h h h h h h h h h h h h h h h h h h h h ",
"h h h h h h h h h h h j g g h h h h h h h h d y O $ 3 0 t.t.h.g.+.Q x n 9 3 % $ r a a d h h h h h h h h h h h h h h h h h h h h ",
"h h h h h h h h h h h g g h h h h h h h h h h d > ; 2.w.d.p.e.5.: . ; 3.5.5.2 - k h h h h h h h h h h h h h h h h h h h h h h h ",
"h h h h h h h h h h h h h h h h h h h h h h h f < 2.w.d.P.s.i.5.: . : w.e.e...( V h h h h h h h h h h h h h h h h h h h h h h h ",
"h h h h h h h h h h h h h h h h h h h h h h h f < 3.e.s.K.s.e.5.: - = @.@.@.o.] V h h h h h h h h h h h h h h h h h h h h h h h ",
"h h h h h h h h h h h h h h h h h h h h h h h f < 5.w.d.K.s.e.5.3 Q ! ! ! ! [ C.A h h h h h h h h h h h h h h h h h h h h h h h ",
"h h h h h h h h h h h h h h h h h h h h h h h Z x Y ..$.1.$.+.Y P ~ ) | ].}.'.B.e r s h h h h h h h h h h h h h h h h h h h h h ",
"h h h h h h h h h h h h h h h h h h h h h h Z V / ) ) ) ^ ^ ^ ! ! ! ' `.oX=XoX).( O y s h h h h h h h h h h h h h h h h h h h h ",
"h h h h h h h h h h h h h h h h h h h h h h B / | { { { { { { _ ! ! E.#X%X-X%XoX)./ O r h h h h h h h h h h h h h h h h h h h h ",
"h h h h h h h h h h h h h h h h h h h h d y ( ' `..X.X'._._.).^ H H ` }.XXXXXX}.} ^ # t D j h h h h h h h h h h h h h h h h h h ",
"h h h h h h h h h h h h h h h h h h h h u X / _.#X%X%XoX_._.B.~ @ @ # - - - - - - #   t j h h h h h h h h h h h h h h h h h h h ",
"h h h h h h h h h h h h h h h h h h h h r   e ] Q.].].,. .^ ^ # X O o o o o o o o o o y h h h h h h h h h h h h h h h h h h h h ",
"h h h h h h h h h h h h h h h h h h h h r                       X y g g g g g g g h S s g h h h h h h h h h h h h h h h h h h h ",
"h h h h h h h h h h h h h h h h h h h h a r r r r r r r r r r r u s h h h h h h h s d g h h h h h h h h h h h h h h h h h h h h ",
"h h h h h h h h h h h h h h h h h h h h h h h h h h h h h h h h h h h h h h h h h h h h h h h h h h h h h h h h h h h h h h h h ",
"h h h h h h h h h h h h h h h h h h h h h h h h h h h h h h h h h h h h h h h h h h h h h h h h h h h h h h h h h h h h h h h h ",
"h h h h h h h h h h h h h h h h h h h h h h h h h h h h h h h h h h h h h h h h h h h h h h h h h h h h h h h h h h h h h h h h "
};
