/* XPM */
static const char *UF9MX0lkbGU_[] = {
/* columns rows colors chars-per-pixel */
"64 64 224 2 ",
"   c #1B1C1B",
".  c #271E1B",
"X  c #391E18",
"o  c #262718",
"O  c #2A241D",
"+  c #323319",
"@  c #3D3E19",
"#  c #38371C",
"$  c #3F241E",
"%  c #1B2529",
"&  c #1C3038",
"*  c #282B26",
"=  c #362922",
"-  c #2D263E",
";  c #2E283D",
":  c #332C3C",
">  c #263A36",
",  c #3A3638",
"<  c #323629",
"1  c #191E20",
"2  c #42241A",
"3  c #59271A",
"4  c #513719",
"5  c #6D2C1C",
"6  c #6A2819",
"7  c #742D1D",
"8  c #7A341C",
"9  c #452C26",
"0  c #55382A",
"q  c #423C35",
"w  c #523837",
"e  c #4D2F2C",
"r  c #702E20",
"t  c #683729",
"y  c #703E31",
"u  c #344436",
"i  c #494B1A",
"p  c #454419",
"a  c #4E501A",
"s  c #595B1A",
"d  c #54561A",
"f  c #57461E",
"g  c #6D511A",
"h  c #666B19",
"j  c #6B6D1B",
"k  c #65661A",
"l  c #6E721B",
"z  c #72751B",
"x  c #76791F",
"c  c #75651B",
"v  c #544B27",
"b  c #5C5C26",
"n  c #54532A",
"m  c #565928",
"M  c #484532",
"N  c #4E4C31",
"B  c #69402F",
"V  c #7C5E2A",
"C  c #674439",
"Z  c #774835",
"A  c #62512E",
"S  c #5B682C",
"D  c #5A6325",
"F  c #656723",
"G  c #7A6726",
"H  c #777A20",
"J  c #797C22",
"K  c #727625",
"L  c #636433",
"P  c #6D763F",
"I  c #5E611A",
"U  c #1E3A43",
"Y  c #322B44",
"T  c #352D46",
"R  c #3E3C44",
"E  c #39324E",
"W  c #3A3552",
"Q  c #3E3955",
"!  c #2E3142",
"~  c #413C5A",
"^  c #443A55",
"/  c #543B42",
"(  c #6B3E41",
")  c #1F404E",
"_  c #1F4553",
"`  c #2D4F4E",
"'  c #274646",
"]  c #204959",
"[  c #224655",
"{  c #364A51",
"}  c #2A5658",
"|  c #3C4943",
" . c #275964",
".. c #355B60",
"X. c #29646A",
"o. c #3B7678",
"O. c #306D6E",
"+. c #4A4647",
"@. c #584746",
"#. c #575648",
"$. c #47435C",
"%. c #485758",
"&. c #515355",
"*. c #654546",
"=. c #775856",
"-. c #70544C",
";. c #6B7446",
":. c #70654D",
">. c #494463",
",. c #4D4C6B",
"<. c #474664",
"1. c #4A526A",
"2. c #525773",
"3. c #55586C",
"4. c #59617B",
"5. c #54746C",
"6. c #6D706F",
"7. c #4D6258",
"8. c #89371E",
"9. c #9A3C1C",
"0. c #822F1D",
"q. c #8B3621",
"w. c #9E3925",
"e. c #973A28",
"r. c #864A35",
"t. c #8B543A",
"y. c #91583D",
"u. c #994930",
"i. c #AA452C",
"p. c #B5482B",
"a. c #B94933",
"s. c #B15736",
"d. c #8A672D",
"f. c #B46437",
"g. c #A7441F",
"h. c #CC4F33",
"j. c #C5592C",
"k. c #D86838",
"l. c #CD6836",
"z. c #885B46",
"x. c #995B44",
"c. c #835A53",
"v. c #996549",
"b. c #956B56",
"n. c #A76B4C",
"m. c #AA7959",
"M. c #B87856",
"N. c #B36F4E",
"B. c #997366",
"V. c #8E766F",
"C. c #B55B42",
"Z. c #D27C53",
"A. c #CB7848",
"S. c #E27C45",
"D. c #7E8125",
"F. c #33817E",
"G. c #3D827A",
"H. c #6D8374",
"J. c #54837E",
"K. c #A58676",
"L. c #B58B6F",
"P. c #9E8765",
"I. c #CD865C",
"U. c #F09850",
"Y. c #EB8E4C",
"T. c #D08961",
"R. c #D8986C",
"E. c #D89D75",
"W. c #CA936B",
"Q. c #DAA779",
"!. c #D3A370",
"~. c #E2AA7A",
"^. c #3B7885",
"/. c #5D6983",
"(. c #407D8D",
"). c #626E86",
"_. c #67758A",
"`. c #727989",
"'. c #657991",
"]. c #697D94",
"[. c #368B84",
"{. c #3B8584",
"}. c #3B928D",
"|. c #518A93",
" X c #429896",
".X c #4D8A95",
"XX c #75899E",
"oX c #7A8697",
"OX c #658B83",
"+X c #7A8CA0",
"@X c #7D92A4",
"#X c #4EA9AA",
"$X c #59B3B8",
"%X c #54AAAD",
"&X c #60A2A3",
"*X c #69BDC6",
"=X c #5EBBC1",
"-X c #6CC9D5",
";X c #6ECDD9",
":X c #78D8E8",
">X c #76D4E3",
",X c #94918B",
"<X c #84A68C",
"1X c #879AAA",
"2X c #8993A2",
"3X c #8FA4B3",
"4X c #94A9B7",
"5X c #9DB2BF",
"6X c #86ACA3",
"7X c #B6AEAA",
"8X c #ABA9A9",
"9X c #DEAC8C",
"0X c #EABB88",
"qX c #D8BDA9",
"wX c #9AC6BD",
"eX c #EEC18D",
"rX c #F4CB94",
"tX c #F8D098",
"yX c #EFC691",
"uX c #E5C0A5",
"iX c #9FB5C1",
"pX c #A6BBC6",
"aX c #ADC3CC",
"sX c #F4E6D4",
/* pixels */
"z z z z z z z z z z z z z z z z z z z z z z z z z z z z z z z z z z z z z z z z z z z z z z z z z z z z z z z z z z z z z z z z ",
"z z z z z z z z z z z z z z z z z z z z z z z z z z z z z z z z z z z z z z z z z z z z z z z z z z z z z z z z z z z z z z z z ",
"z z z z z z z z z z z z z z z z z z z z z z z z z z z z z z z z K P ;.;.L L L L L F z z z z z z z z z z z z z z z z z z z z z z ",
"z z z z z z z z z z z z z z z z z z z z z z z z z z z z z z z z P 6._._.3.$.$.$.$.#.z z z z z z z z z z z z z z z z z z z z z z ",
"z z z z z z z z z z z z z z z z z z z z z z z z z z z z z L #.;.H.2X1X1XoX`.4.2.>.+.N F z z z z z z z z z z z z z z z z z z z z ",
"z z z z z z z z z z z z z z z z z z z z z z z z z z z z K #.,./.@XpXaXaXaXiXXX/.>.W Y n z z z z z z z z z z z z z z z z z z z z ",
"z z z z z z z z z z z z z z z z z z z z z z z z z z z L #.3.).1X5XaXaXaX4X+X/.,.W Y ; n z z z z z z z z z z z z z z z z z z z z ",
"z z z z z z z z z z z z z z z z z z z z z z z z z l F #.,.).@XiXaXaXpXiX+X/.,.Q , , , n z z z z z z z z z z z z z z z z z z z z ",
"z z z z z z z z z z z z z z z z z z z z z z z z z b q &.).1X5XpXaXaX4XXX/.<.W , n b b F z z z z z z z z z z z z z z z z z z z z ",
"z z z z z z z z z z z z z z z z z z z z z z c k k v T 1.].1X5XpXaXaX4XXX/.<.W , n F J D.J z z z z z z z z z z z z z z z z z z z ",
"z z z z z z z z z z z z z z z z z z z z z j f 4 4 w ~ 2.'.].@XiXaXaXpXiX+X/.<.Q , N H J x z z z z z z z z z z z z z z z z z z z ",
"z z z z z z z z z z z z z z z z F m n n n v e 3 5 t ( -.=.V.V.2X3X3X3X3XXX/.,.Q Y M K z z z z z z z z z z z z z z z z z z z z z ",
"z z z z z z z z z z z z z z z z b : ; ; ; ; ; e q.9.9.9.g.j.N.6.'.'.'.'.'./.,.Q Y M h l z z z z z z z z z z z z z z z z z z z z ",
"z z z z z z z z z z z z z z z z b : Y W $.1.1.&.*.y y u.j.l.l.N.b.c.c.c.-.@./ e 9 v l z z z z z z z z z z z z z z z z z z z z z ",
"z z z z z z z z z z z z z z z z b : E >.4.'.].).2.,.>.x.k.k.k.k.j.g.9.9.8 3 3 3 3 f j l z z z z z z z z z z z z z z z z z z z z ",
"z z z z z z z z z z z z z z z z b : E >.4.].1X3X1XoX4.6.B.A.k.k.k.j.p.9.8.8 6 3 9 , M b z z z z z z z z z z z z z z z z z z z z ",
"z z z z z z z z z z z z z z z z b q R ~ 2.'.1XpXaX4XXXXXoXL.Z.Z.Z.Z.N.x.x.y.B w T Y Y N F F F l z z z z z z z z z z z z z z z z ",
"z z z z z z z z z z z z z z z z j F M Y ~ 2.'.1XpXpX5X5X5X8X7X7X7X7X8X8X8X8X`.3.~ Q ~ R , , M F z z z z z z z z z z z z z z z z ",
"z z z z z z z z z z z z z z z z z z b M ^ ~ 2._.2X1X4XpXaXaXaXaXaXaXaXaXiX1X'.2.>.~ Q T ; ; , F z z z z z z z z z z z z z z z z ",
"z z z z z z z z z z z z z z z z z z l j M Y ~ >.,.4.].3XaXaXaXaXaXaXaXaX1X'.2.>.>.W Y ; ; ; , F z z z z z z z z z z z z z z z z ",
"z z z z z z z z z z z z z z z z z z z z A / =.=.^ ~ 1.).oXoXoXoXoX`.`.`.4.<.Q W W T ; ; ; q n j z z z z z z z z z z z z z z z z ",
"z z z z z z z z z z z z z z z z z z z z V y.M.n./ ; ; W $.>.>.>.^ Y Y Y ; ; ; ; ; ; ; ; : b z z z z z z z z z z z z z z z z z z ",
"z z z z z z z z z z z z z z z z z z z z v 0 n.M.b.-.C *.-.c.B.K.K.b.B.K.=.y y w * < n n m F z z z z z z z z z z z z z z z z z z ",
"z z z z z z z z z z z z z z z z z z z l @ = v.T.T.N.Z z.b.M.R.eX0XR.Q.0Xm.Z r.B O @ l z z z z z z z z z z z z z z z z z z z z z ",
"z z z z z z z z z z z z z z z z z z z l @ = v.T.T.v.= V.qXE.R.eXrX0XW.n.C 9 Z B O @ l z z z z z z z z z z z z z z z z z z z z z ",
"z z z z z z z z z z z z z z z z z z z z f 0 m.E.R.v.  ,XsX9XR.eXrX0XL.r.9 . 0 0 # i z z z z z z z z z z z z z z z z z z z z z z ",
"z z z z z z z z z z z z z z z z z z z z V z.!.yXyXB.  ,XsX9XR.eX0XR.N.r.9   . # s h z z z z z z z z z z z z z z z z z z z z z z ",
"z z z z z z z z z z z z z z z z z z z z V v.Q.tXtX!.:.L.uXE.T.W.W.M.t.0 =   + i h z z z z z z z z z z z z z z z z z z z z z z z ",
"z z z z z z z z z z z z z z z z z z z z V v.Q.tXtXtXrX~.T.T.Z.x.t.t.0     o s z z z z z z z z z z z z z z z z z z z z z z z z z ",
"z z z z z z z z z z z z z z z z z z z z V x.W.0XrXtXtX~.I.M.n.y.Z 0 =   + a h z z z z z z z z z z z z z z z z z z z z z z z z z ",
"z z z z z z z z z z z z z z z z z z z z G y.M.R.0XeXeXE.M.x.Z r.t .     i z z z z z z z z z z z z z z z z z z z z z z z z z z z ",
"z z z z z z z z z z z z z z z z z z z z G d.y.n.m.m.m.-.0 9 9 t 5 3 X   i z z z z z z z z z z z z z z z z z z z z z z z z z z z ",
"z z z z z z z z z z z z z z z z z z z z z z G r.r.r.u.t $ 9 0 8 q.0.3 . p k j z z z z z z z z H D.x z z z z z z z z z z z z z z ",
"z z z z z z z z z z z z z z z z z z z z z z G V 8 e.a.i.i.f.A.A.l.p.q.3 2 # I z z z z z z z z z J J H z z z J D.x z z z z z z z ",
"z z z z z z z z z z z z z z z z z z z z z z c g 8.i.k.k.k.S.S.S.k.i.q.6 X o s z z z z z z z z z l z H z z x D.x z z z z z z z z ",
"z z z z z z z z z z z z z z z z z z z z z c g 8.p.l.Y.Y.Y.k.h.h.i.0.7 6 X o s z z z z z z z z z z l h l x H H z z z z z z z z z ",
"z z z z z z z z z z z z z z z z z z z z z j 4 3 q.i.f.f.f.i.w.w.r.#.#.#.u > D z z z z z z z z z z z z z x H l l z z z z z z z z ",
"z z z z z z z z z z z z z z z z z z z z z k + . 6 5 5 5 5 5 5 5 @..X}.}.X.` S z z z z z z z z z z z z z l h l z z z z z z z z z ",
"z z z z z z z z z z z z z z z z z z z z d # o * %.5.oX6.7.+.+.%.J.$X=X$X^.` S z z z z z z z z z z z z z z z z z z z z z z z z z ",
"z z z z z z z z z z z z J x z z z z z l @   . , 5.&X*X#X[.X. .F.#X>X:X>X.X` S z z z z z z z z z z z z z z z z z z z z z z z z z ",
"z z z z z z z z z z z z x H z z z z z l @ . 0 Z x.z.=.5.[.X. .F.#X>X:X>X.X` S z z z z z z z z z z z z z z z z z z z z z z z z z ",
"z z z z z z z z H D.J x l l z z z z z l @ O B y.x.u.q.-.5.%.{ O. X=X-X*Xo.u D z z z z z z z z z z z z z z z z z z z z z z z z z ",
"z z z z z z z z z H J H l h l J D.J z l @ O B :.5.:.p.a.s.y 0 { O.}. X X` * s z z z z z z z z z z z z z z z z z z z z z z z z z ",
"z z z z z z x J H l z H z l z H J x z z d 4 0 #.G.OXK.B.c.C w -.6.<X<X<X+.o s z z z z z z z z z z z z z z z z z z z z z z z z z ",
"z z z z z z z x J H l l z x H H z z z z z k + > o.%X>X$X{. .%.m.E.yXrXyX:.o s z z z z z z z z z z z z z z z z z z z z z z z z z ",
"z z z z z z z l l H z l h l x l l z z z z j d M X. X>X$X[.X.%.m.Q.rX0XQ.-.o s z z z z z z z z z z z z z z z z z z z z z z z z z ",
"z z z z z z z z l l z z l h h l z z z z z z z S ` (.-X%X[.X.%.B.W.0XQ.M.C o s z z z z z z z z z z z z z z z z z z z z z z z z z ",
"z z z z z z z z z l l x H z z z z z z z z z z S `  .^.{.[.F.o.7.6.6.6.&., o s z z z z z z z z z z z z z z z z z z z z z z z z z ",
"z z z z z z z z z z z x l l z z z z z z z z z F | [ ] X.F.F.O. .] ] ] _ & o s z z z z z z z z z z z z z z z z z z z z z z z z z ",
"z z z z z z z z z z z l l z z z z z z z z z z c t q ] ]  . . .] ] ] ] _ & o s z z z z z z z z z z z z z z z z z z z z z z z z z ",
"z z z z z z z z z z z z z z z z z z z z z z z c 8.t R R R +.@.@.+.R ! U < p k z z z z z z z z z z z z z z z z z z z z z z z z z ",
"z z z z z z z z z z z z z z z z z z z z z z z d.p.w.5 5 r w.a.a.w.r 2   i h z z z z z z z z z z z z z z z z z z z z z z z z z z ",
"z z z z z z z z z z z z z z z z z z z z z h d v Z r.e.0.8 s.k.k.j.w.5 2 4 a h z z z z z z z z z z z z z z z z z z z z z z z z z ",
"z z z z z z z z z z z z z z z z z z z z z k + % ) *.a.e.8 l.U.U.S.h.w.6 X o s z z z z z z z z z z z z z z z z z z z z z z z z z ",
"z z z z z z z z z z z z z z z z z z z z d # > U _ { *.@.@.N.U.U.S.h.w.6 X o s z z z z z z z z z z z z z z z z z z z z z z z z z ",
"z z z z z z z z z z z z z z z z z z z l @ 1 & ) ) _ ] ] ..P.R.R.I.C.r.t = * D z z z z z z z z z z z z z z z z z z z z z z z z z ",
"z z z z z z z z z z z z z z z z z z z l @   % % % & ] X.{.&XwXwX6XH.5.5.` ' L x z z z J D.x z z z z z z z z z z z z z z z z z z ",
"z z z z z z z z z z z z z z z z z z z z i + + + % U  .{.#X-X:X:X-X#X X[.X.` S H z z x D.x z z z z z z z z z z z z z z z z z z z ",
"z z z z z z z z z z z z z z z z z z z z h k k m '  .F.%X;X>X:X:X>X;X$X[.X.` S h l x H J z z z z z z z z z z z z z z z z z z z z ",
"z z z z z z z z z z z z z z z z z z z z z z z D > ' } o.|.|.|.|.|.|.o.} ' > u s j x H l l z z z z z z z z z z z z z z z z z z z ",
"z z z z z z z z z z z z z z z z z z z z z z z s o                             + k l h l z z z z z z z z z z z z z z z z z z z z ",
"z z z z z z z z z z z z z z z z z z z z z z z h a i i i i i i i i i i i i i i d h z z z z z z z z z z z z z z z z z z z z z z z ",
"z z z z z z z z z z z z z z z z z z z z z z z z z z z z z z z z z z z z z z z z z z z z z z z z z z z z z z z z z z z z z z z z ",
"z z z z z z z z z z z z z z z z z z z z z z z z z z z z z z z z z z z z z z z z z z z z z z z z z z z z z z z z z z z z z z z z "
};
