/* XPM */
static const char *UF9MZWZ0XzM_[] = {
/* columns rows colors chars-per-pixel */
"64 64 224 2 ",
"   c #191A19",
".  c #221C1A",
"X  c #2C1D1A",
"o  c #351E18",
"O  c #232318",
"+  c #29211D",
"@  c #2A2B1A",
"#  c #38261C",
"$  c #3C3D19",
"%  c #363619",
"&  c #191F22",
"*  c #1B2428",
"=  c #1D343D",
"-  c #1E353A",
";  c #1B2C33",
":  c #372A24",
">  c #39362A",
",  c #2D263C",
"<  c #352B3B",
"1  c #3B3639",
"2  c #272E2D",
"3  c #201E1E",
"4  c #44231B",
"5  c #56271A",
"6  c #41361F",
"7  c #6C2B1B",
"8  c #622819",
"9  c #712D1E",
"0  c #703A19",
"q  c #472927",
"w  c #582E25",
"e  c #58372B",
"r  c #443C37",
"t  c #4F362F",
"y  c #65392A",
"u  c #713629",
"i  c #3F401C",
"p  c #494B1A",
"a  c #42441B",
"s  c #53531B",
"d  c #5A5C1A",
"f  c #56591A",
"g  c #514B1B",
"h  c #6E511A",
"j  c #666A1A",
"k  c #6A6D1C",
"l  c #65681A",
"z  c #72681B",
"x  c #6E721B",
"c  c #72751B",
"v  c #76791F",
"b  c #4E4C2B",
"n  c #534E2B",
"m  c #54532A",
"M  c #595A26",
"N  c #484336",
"B  c #594536",
"V  c #5C5B3A",
"C  c #4D5F3B",
"Z  c #68412F",
"A  c #67402F",
"S  c #675924",
"D  c #784A39",
"F  c #754E30",
"G  c #5A662C",
"H  c #556530",
"J  c #636422",
"K  c #686A23",
"L  c #7C6429",
"P  c #786B24",
"I  c #767A20",
"U  c #797C22",
"Y  c #727625",
"T  c #6A6F2B",
"R  c #5E611A",
"E  c #1E3B45",
"W  c #1D3944",
"Q  c #352E4A",
"!  c #322B44",
"~  c #293B43",
"^  c #393548",
"/  c #3B3551",
"(  c #3D3854",
")  c #463947",
"_  c #433D5D",
"`  c #463A54",
"'  c #402F40",
"]  c #633E48",
"[  c #453F60",
"{  c #294B4C",
"}  c #204959",
"|  c #274952",
" . c #285858",
".. c #36514C",
"X. c #275964",
"o. c #3B5E62",
"O. c #2B656C",
"+. c #396869",
"@. c #336977",
"#. c #337C7B",
"$. c #2E6D73",
"%. c #2F5450",
"&. c #574846",
"*. c #565A48",
"=. c #46455B",
"-. c #504850",
";. c #744B45",
":. c #6F534D",
">. c #486859",
",. c #716A4F",
"<. c #4C4C6A",
"1. c #484564",
"2. c #56566A",
"3. c #535874",
"4. c #574E65",
"5. c #5A637E",
"6. c #517170",
"7. c #687D74",
"8. c #6E6E6E",
"9. c #85331C",
"0. c #91371C",
"q. c #883924",
"w. c #983B23",
"e. c #A33D27",
"r. c #A03F1D",
"t. c #A3411E",
"y. c #9A4A34",
"u. c #8A523A",
"i. c #845733",
"p. c #8B4C31",
"a. c #B5442B",
"s. c #B15330",
"d. c #B46336",
"f. c #C24B31",
"g. c #C65931",
"h. c #D1602D",
"j. c #D86938",
"k. c #C56238",
"l. c #865744",
"z. c #905A46",
"x. c #AE5641",
"c. c #976449",
"v. c #986756",
"b. c #896657",
"n. c #A56A4C",
"m. c #B37355",
"M. c #A87964",
"N. c #BD7D61",
"B. c #927667",
"V. c #C87449",
"C. c #E17A44",
"Z. c #7E8125",
"A. c #33807D",
"S. c #558478",
"D. c #718072",
"F. c #B7825E",
"G. c #898F6D",
"H. c #BB9A78",
"J. c #BA8B66",
"K. c #D48755",
"L. c #E9914E",
"P. c #E9914E",
"I. c #CD8765",
"U. c #D38E64",
"Y. c #D79D71",
"T. c #CF976D",
"R. c #D9A779",
"E. c #C0A87F",
"W. c #E2A97A",
"Q. c #387681",
"!. c #5C6882",
"~. c #636D84",
"^. c #68748A",
"/. c #657991",
"(. c #717A90",
"). c #388785",
"_. c #3B938C",
"`. c #3D9690",
"'. c #44868A",
"]. c #438A94",
"[. c #439A98",
"{. c #74899A",
"}. c #6F8C91",
"|. c #47A19E",
" X c #7B8DA1",
".X c #7D92A4",
"XX c #52A8AD",
"oX c #56ACB3",
"OX c #50AAAC",
"+X c #64A7A7",
"@X c #4D9EA5",
"#X c #5FBCC2",
"$X c #64BBC7",
"%X c #66C4CD",
"&X c #6BC8D5",
"*X c #71D0DD",
"=X c #78D8E8",
"-X c #75D4E3",
";X c #888B93",
":X c #AEAC96",
">X c #869AAA",
",X c #808CA0",
"<X c #96ABB8",
"1X c #9CB1BD",
"2X c #8FA4B3",
"3X c #ACB7BC",
"4X c #B1BABE",
"5X c #B0BAA1",
"6X c #9A9683",
"7X c #DDB387",
"8X c #E9B786",
"9X c #E3B99C",
"0X c #F1C38E",
"qX c #EAC691",
"wX c #F5CC95",
"eX c #F5CB94",
"rX c #F8D098",
"tX c #F5DCB7",
"yX c #9FB5C1",
"uX c #A6BBC5",
"iX c #A9BEC8",
"pX c #ACBBC2",
"aX c #ADC3CC",
"sX c #ECE1D2",
/* pixels */
"c c c c c c c c c c c c c c c c c c c c c c c c c c c c c c c c c c c c c c c c c c c c c c c c c c c c c c c c c c c c c c c c ",
"c c c c c c c c c c c c c c c c c c c c c c c c c c c c c c c c c c c c c c c c c c c c c c c c c c c c c c c c c c c c c c c c ",
"c c c c c c c c c c c c c c c c c c c c c c c c c c c c c c c c c c c c c c c c c c c c c c c c c c c c c c c c c c c c c c c c ",
"c c c c c c c c c c c c c c c c c c c c c c c c c c c c c c c c Y ,.,.,.,.V V V V V m M c c c c c c c c c c c c c c c c c c c c ",
"c c c c c c c c c c c c c c c c c c c c c c c c c c c c c c c c T 7././.5.1.1.1.[ ( ! N c c c c c c c c c c c c c c c c c c c c ",
"c c c c c c c c c c c c c c c c c c c c c c c c c c c c c G *.,.7.>X2X2X>X,X^.3.<.( ! N c c c c c c c c c c c c c c c c c c c c ",
"c c c c c c c c c c c c c c c c c c c c c c c c c c c x T *.<.~..XyXaXaXiXyX X!.<.( 1 b c c c c c c c c c c c c c c c c c c c c ",
"c c c c c c c c c c c c c c c c c c c c c c c c c c c G -.2.~.>X1XiXaXaX<X{.!.<./ 1 M K c c c c c c c c c c c c c c c c c c c c ",
"c c c c c c c c c c c c c c c c c c c c c c c c c k J *.<.~..X1XaXaXuX1X X!.<.( 1 b K c c c c c c c c c c c c c c c c c c c c c ",
"c c c c c c c c c c c c c c c c c c c c c c c c c J r =.!.>XuXiXaXaX<X{.!.1./ 1 m j I Z.U c c c c c c c c c c c c c c c c c c c ",
"c c c c c c c c c c c c c c c c c c K M m m S h h n ^ <./. X2XuXaXaX1X>X(.3._ ^ N M Y U v c c c c c c c c c c c c c c c c c c c ",
"c c c c c c c c c c c c c c c c c c M < , , q 5 5 e ` 3././.{.<XaXaXaXaX>X/.3._ Q r T c c c c c c c c c c c c c c c c c c c c c ",
"c c c c c c c c c c c c c c c c k m N / / / < q 7 u u ;.l.v.M.;X>X>X>X>X{./.3._ Q r J c c c c c c c c c c c c c c c c c c c c c ",
"c c c c c c c c c c c c c c c c J 1 Q _ 1.1./ ' u w.w.w.t.g.j.B.^.^.~.~.~.~.2.` ! 1 J x c c c c c c c c c c c c c c c c c c c c ",
"c c c c c c c c c c c c c c c c J 1 Q _ <.5.3.2.-.] ] u.g.h.j.V.n.z.l.l.;.&.t t q q r m c c c c c c c c c c c c c c c c c c c c ",
"c c c c c c c c c c c c c c c c J 1 Q _ 3./.{.{.~.3.<.:.m.j.j.j.h.a.t.r.9.7 8 5 5 q < r J J J k c c c c c c c c c c c c c c c c ",
"c c c c c c c c c c c c c c c c J 1 Q _ 3./.>X1X<X>X^.~.8.m.j.j.j.h.s.r.0.0.9 5 q < , < 1 1 r G c c c c c c c c c c c c c c c c ",
"c c c c c c c c c c c c c c c c K b r / <.!. X<XuXyX>X.X.X6XI.I.I.I.N.n.v.v.:.&.) Q Q Q Q ! < M c c c c c c c c c c c c c c c c ",
"c c c c c c c c c c c c c c c c c k m < / 1.!.{.1XaXuXuXuXpX4X4X4X4X4X3X3X3X,X5.<._ _ _ _ Q < M c c c c c c c c c c c c c c c c ",
"c c c c c c c c c c c c c c c c c c J n N / <.5.(.,X>X<XaXaXaXaXaXaXaXaX1X>X(.3.1.[ [ _ / N n J c c c c c c c c c c c c c c c c ",
"c c c c c c c c c c c c c c c c c c c c n , / 1._ <.!..XiXiXiXiXiXiXiXiX>X^.3._ _ _ _ / , m c c c c c c c c c c c c c c c c c c ",
"c c c c c c c c c c c c c c c c c c c c b * :.b.` / =.3.^.(.(.(.^.5.5.5.2.=.( Q Q Q Q r m J c c c c c c c c c c c c c c c c c c ",
"c c c c c c c c c c c c c c c c c c c c p   l.N.:.' < ) =.4.4.4.4.) ) ) ^ , < < , , < b c c c c c c c c c c c c c c c c c c c c ",
"c c c c c c c c c c c c c c c c c c c c p   l.I.m.c.D D ;.v.M.H.H.M.M.H.,.& t y : : m K c c c c c c c c c c c c c c c c c c c c ",
"c c c c c c c c c c c c c c c c c c c c s : c.U.Y.F.D l.M.F.U.8X0XW.R.R.,.  q y 6 a j c c c c c c c c c c c c c c c c c c c c c ",
"c c c c c c c c c c c c c c c c c c c c L D n.U.8XH.t 8.tX7XU.8XwXwXR.n.B   . # s j c c c c c c c c c c c c c c c c c c c c c c ",
"c c c c c c c c c c c c c c c c c c c c L u.F.W.0XH.> 8.sX9XU.8XwX8XJ.Z :     @ d c c c c c c c c c c c c c c c c c c c c c c c ",
"c c c c c c c c c c c c c c c c c c c c L u.T.wXrXH.> 8.sX9XU.8X0XY.c.+       @ d c c c c c c c c c c c c c c c c c c c c c c c ",
"c c c c c c c c c c c c c c c c c c c c L u.T.rXrX7XG.:XtX8XU.Y.Y.m.D +     % s l c c c c c c c c c c c c c c c c c c c c c c c ",
"c c c c c c c c c c c c c c c c c c c c L u.T.0XwXrXrXwXeXW.I.I.m.u.e X . . s c c c c c c c c c c c c c c c c c c c c c c c c c ",
"c c c c c c c c c c c c c c c c c c c c L u.n.J.8XrXrX8XR.T.I.m.u.e 4 5 5 5 h c c c c c c c c c c c c c c c c c c c c c c c c c ",
"c c c c c c c c c c c c c c c c c c c c P i.i.c.T.8X7XY.V.V.m.u.y q w q.q.9.h z c c c c c c c c c c c c c c c c c c c c c c c c ",
"c c c c c c c c c c c c c c c c c c c c c P i.u.c.n.n.c.c.c.u.e q q.s.V.k.a.q.h z c c c c c c I Z.v c c c c c c c c c c c c c c ",
"c c c c c c c c c c c c c c c c c c c c c c L F Z y F p.y.y.y.F F d.j.C.k.e.u e J c c c c c c c U U I c c c U Z.v c c c c c c c ",
"c c c c c c c c c c c c c c c c c c c c c c c l % # 8 w.f.f.f.V.L.P.C.g.e.9 r ..G c c c c c c c x c I c c v Z.v c c c c c c c c ",
"c c c c c c c c c c c c c c c c c c c c P L L S % o 8 9.w.w.e.s.d.d.s.e.D *.6.'.>.H x c c c c c c x j x v I I c c c c c c c c c ",
"c c c c c c c c c c c c c c c c c c c c L u.u.D : o 8 7 9 9 9 9 9 9 7 7 *._.#X&XQ...K c c c c c c c c c v I x x c c c c c c c c ",
"c c c c c c c c c c c c c c c c c c c c L u.u.u.A w 4 -.}.}.}.}.}.6.*.) 6.#X*X&X].+...H c c c c c c c c x j x c c c c c c c c c ",
"c c c c c c c c c c c c c c c c c c c c L u.u.u.u.y + +.-X=X=X*X$X[.#.} '.&X&X%X|.A.o.*.P c c c c c c c c c c c c c c c c c c c ",
"c c c c c c c c c c c c U v c c c c c c L u.u.u.u.y + +.-X=X-XoX|._.#.} X.Q.].|.`.S.B.c.i.P c c c c c c c c c c c c c c c c c c ",
"c c c c c c c c c c c c v I c c c c c c S Z Z Z A t . o.$X%X$X|.'.S.>...~ E o.S.}.6XT.N.u.L c c c c c c c c c c c c c c c c c c ",
"c c c c c c c c I Z.U v x x c c c c c c g + + + + .   { [.[.[._.S.c.y.u q * B b.E.qXqXT.u.L c c c c c c c c c c c c c c c c c c ",
"c c c c c c c c c I U I x j x U Z.U c c d $ $ $ $ % # B G.G.G.7.,.y.q.e :   e c.R.eX8XF.e S c c c c c c c c c c c c c c c c c c ",
"c c c c c c v U I x c I c x c I U v c c c x x x x z 0 y.L.P.L.j.a.9.e | -   e c.R.8XT.l.. p c c c c c c c c c c c c c c c c c c ",
"c c c c c c c v U I x x c v I I c c c c c c c c c J N 8.5X5X5X:X;X8.>.$. .- > e :.,.D t   p c c c c c c c c c c c c c c c c c c ",
"c c c c c c c x x I c x j x v x x c c c c c c c c G { '.*X-X=X=X&X|._._.$.} -           O p c c c c c c c c c c c c c c c c c c ",
"c c c c c c c c x x c c x k k x c c c c c c c c c G { @.OX%X=X=X-X%XoX_.).#. .- q 4 . % s l c c c c c c c c c c c c c c c c c c ",
"c c c c c c c c c x x v I c c c c c c c c c c c z S -.o.#.@X$X$X$X$XXX).A.#.o.^ w 5 + > d k c c c c c c c c c c c c c c c c c c ",
"c c c c c c c c c c c v x x c c c c c c c c c z h 0 y.;. .X.@.@.@.@.O.X.X.X.r w 7 w ~ - @ s c c c c c c c c c c c c c c c c c c ",
"c c c c c c c c c c c x x c c c c c K G H H K z 0 q.g.n.,.:.&.-.^ ~ W W ~ ^ w 7 w r | =   p c c c c c c c c c c c c c c c c c c ",
"c c c c c c c c c c c c c c c c c c G %.| | H z 0 p.K.L.L.V.a.q.5 +     # 7 7 7 ^ | } =   p c c c c c c c c c c c c c c c c c c ",
"c c c c c c c c c c c c c c c c c c H | X.O.>.C *.,.V.L.P.j.a.9 o .     X 4 q r | } } =   p c c c c c c c c c c c c c c c c c c ",
"c c c c c c c c c c c c c c c c c c H | O.).O.X.#.7.x.j.P.j.a.w             = } } } } =   p c c c c c c c c c c c c c c c c c c ",
"c c c c c c c c c c c c c c c c c c M 2  ._.[.XXoX+X7.v.j.y.w g p p p p %   = } } } } =   p c c c c c c c c c c c c c c c c c c ",
"c c c c c c c c c c c c c c c c c c s O { ).oX*X-X&X|.7.x.y O s c c x l a * W } } } } =   p c c c c c c c c c c c c c c c c c c ",
"c c c c c c c c c c c c c c c c c c s O - X.).OX&X-X&X+X7...O s c c d % 2 E } } } } } =   p c c c c c c c c c c c c c c c c c c ",
"c c c c c c c c c c c c c c c c c c d % 2 E O.).oX%X%XXX#.{   a d d a   ; E E E E E E ;   $ d d R k c c c c c c c c c c c c c c ",
"c c c c c c c c c c c c c c c c c c x l a * E X.).[.[.Q.X.-   O @ @ O     & & & & & &     O @ @ % l c c c c c c c c c c c c c c ",
"c c c c c c c c c c c c c c x d p p p p %   ; W  . . .{ = *             @ $ $ $ $ i i i $ $ $ $ p l c c c c c c c c c c c c c c ",
"c c c c c c c c c c c c c c k $                                         a x x x x c I k x x x x c c c c c c c c c c c c c c c c ",
"c c c c c c c c c c c c c c x f p p p p p p p p p p p p p p p p p p p p d c c c c x j x c c c c c c c c c c c c c c c c c c c c ",
"c c c c c c c c c c c c c c c c c c c c c c c c c c c c c c c c c c c c c c c c c c c c c c c c c c c c c c c c c c c c c c c c ",
"c c c c c c c c c c c c c c c c c c c c c c c c c c c c c c c c c c c c c c c c c c c c c c c c c c c c c c c c c c c c c c c c ",
"c c c c c c c c c c c c c c c c c c c c c c c c c c c c c c c c c c c c c c c c c c c c c c c c c c c c c c c c c c c c c c c c "
};
