/* XPM */
static const char *UF9MZWZ0XzE_[] = {
/* columns rows colors chars-per-pixel */
"64 64 228 2 ",
"   c #1A1A19",
".  c #221C19",
"X  c #291B18",
"o  c #381E18",
"O  c #242518",
"+  c #2A291A",
"@  c #38251B",
"#  c #313219",
"$  c #3C3D19",
"%  c #39371A",
"&  c #191F21",
"*  c #1B2628",
"=  c #1C2E34",
"-  c #1F3231",
";  c #1D343C",
":  c #1F302F",
">  c #282729",
",  c #352924",
"<  c #35362A",
"1  c #2D263F",
"2  c #2C2839",
"3  c #392A38",
"4  c #253737",
"5  c #3B3739",
"6  c #27352D",
"7  c #1F2018",
"8  c #41231D",
"9  c #562619",
"0  c #573018",
"q  c #6D2B1B",
"w  c #652919",
"e  c #722D1E",
"r  c #773219",
"t  c #492B26",
"y  c #542B22",
"u  c #473127",
"i  c #59382B",
"p  c #493938",
"a  c #583A38",
"s  c #402832",
"d  c #693729",
"f  c #6E3628",
"g  c #411F18",
"h  c #3F401C",
"j  c #35452D",
"k  c #41441B",
"l  c #494B1A",
"z  c #49411E",
"x  c #4E501A",
"c  c #53541A",
"v  c #5A5C1A",
"b  c #57591A",
"n  c #574819",
"m  c #745D1B",
"M  c #69551A",
"N  c #666A1A",
"B  c #6A6D1C",
"V  c #63661B",
"C  c #736C1D",
"Z  c #6E721B",
"A  c #72751B",
"S  c #76791F",
"D  c #49482B",
"F  c #524F2B",
"G  c #5A4721",
"H  c #53522A",
"J  c #5C5A25",
"K  c #454232",
"L  c #4B4733",
"P  c #5C5A3A",
"I  c #515233",
"U  c #7F5F2C",
"Y  c #7A572E",
"T  c #684931",
"R  c #74483B",
"E  c #6C4C2F",
"W  c #566431",
"Q  c #54612F",
"!  c #656722",
"~  c #746F20",
"^  c #7A6726",
"/  c #767A20",
"(  c #797C22",
")  c #737624",
"_  c #6B6E2D",
"`  c #1E3C47",
"'  c #322C46",
"]  c #362F48",
"[  c #3A3647",
"{  c #3B3452",
"}  c #3C3953",
"|  c #3F3C58",
" . c #2E2741",
".. c #443744",
"X. c #423D5B",
"o. c #583C47",
"O. c #453F60",
"+. c #623F4A",
"@. c #1F4452",
"#. c #1F414E",
"$. c #274648",
"%. c #204656",
"&. c #204959",
"*. c #284A53",
"=. c #2A5957",
"-. c #364A52",
";. c #325F68",
":. c #275C64",
">. c #2A6569",
",. c #31766F",
"<. c #327878",
"1. c #326E6E",
"2. c #2C625D",
"3. c #594846",
"4. c #464558",
"5. c #504F4F",
"6. c #674845",
"7. c #655458",
"8. c #7A5B56",
"9. c #775245",
"0. c #526356",
"q. c #76685B",
"w. c #6A6E50",
"e. c #464262",
"r. c #4C4D6B",
"t. c #494664",
"y. c #57566B",
"u. c #515673",
"i. c #535B76",
"p. c #585D78",
"a. c #525269",
"s. c #6F5D64",
"d. c #57627B",
"f. c #506E65",
"g. c #76666D",
"h. c #89361C",
"j. c #893A23",
"k. c #973824",
"l. c #A13D26",
"z. c #A1401D",
"x. c #864736",
"c. c #825A30",
"v. c #89523A",
"b. c #87533B",
"n. c #91482D",
"m. c #AA4924",
"M. c #B3452A",
"N. c #B1522F",
"B. c #B66739",
"V. c #CA5C2B",
"C. c #C54A31",
"Z. c #C95234",
"A. c #D06736",
"S. c #895744",
"D. c #945C42",
"F. c #844E42",
"G. c #9C6649",
"H. c #8E6656",
"J. c #AA6C4D",
"K. c #AA7453",
"L. c #B57554",
"P. c #AF6D50",
"I. c #AC7962",
"U. c #867374",
"Y. c #CF7342",
"T. c #E37E46",
"R. c #7E8125",
"E. c #34837E",
"W. c #46867D",
"Q. c #658B77",
"!. c #B2845A",
"~. c #938C6E",
"^. c #B08B6D",
"/. c #CA845E",
"(. c #D38C51",
"). c #E78A4A",
"_. c #EE944E",
"`. c #ED9852",
"'. c #CA8864",
"]. c #D08961",
"[. c #C89269",
"{. c #D39972",
"}. c #D3AB7E",
"|. c #5D6C85",
" X c #5C6A85",
".X c #62748C",
"XX c #687589",
"oX c #6A7C93",
"OX c #6B758B",
"+X c #3A8985",
"@X c #3A928B",
"#X c #3E9791",
"$X c #429B97",
"%X c #4C928B",
"&X c #6C8197",
"*X c #76879C",
"=X c #778F90",
"-X c #4F9CA5",
";X c #798DA1",
":X c #7594A3",
">X c #4EA6A7",
",X c #5BB5BB",
"<X c #58AFB5",
"1X c #5EBBC1",
"2X c #62BEC5",
"3X c #66C4CD",
"4X c #71D0DD",
"5X c #76D6E6",
"6X c #8B8C8E",
"7X c #8196A8",
"8X c #899EAE",
"9X c #8599AA",
"0X c #8EA2B2",
"qX c #95A9B7",
"wX c #9DB2BF",
"eX c #A9B6BB",
"rX c #B1BABE",
"tX c #DAAB88",
"yX c #CFBB90",
"uX c #E7B886",
"iX c #E1B496",
"pX c #F0C28D",
"aX c #E2CEBC",
"sX c #9FB4C1",
"dX c #A9BFC9",
"fX c #A5B9C3",
"gX c #ACC2CB",
"hX c #F4E6D4",
/* pixels */
"A A A A A A A A A A A A A A A A A A A A A A A A A A A A A A A A A A A A A A A A A A A A A A A A A A A A A A A A A A A A A A A A ",
"A A A A A A A A A A A A A A A A A A A A A A A A A A A A A A A A A A A A A A A A A A A A A A A A A A A A A A A A A A A A A A A A ",
"A A A A A A A A A A A A A A A A A A A A A A A A A A A A A A A A A A A A A A A A A A A A A A A A A A A A A A A A A A A A A A A A ",
"A A A A A A A A A A A A A A A A A A A A A A A A A A A A A A A A A _ w.w.P P P P P H ! A A A A A A A A A A A A A A A A A A A A A ",
"A A A A A A A A A A A A A A A A A A A A A A A A A A A A A A A A A w..Xi.e.e.e.O.{ 1 H A A A A A A A A A A A A A A A A A A A A A ",
"A A A A A A A A A A A A A A A A A A A A A A A A A A A A A ~ P 0.w.=X0X9X*X|.u.t.{ 1 H A A A A A A A A A A A A A A A A A A A A A ",
"A A A A A A A A A A A A A A A A A A A A A A A A A A A A ~ _ 5.p.oX0XgXgXfX;X Xe.{ 5 H A A A A A A A A A A A A A A A A A A A A A ",
"A A A A A A A A A A A A A A A A A A A A A A A A A A A ~ P 5.d.oXqXfXgXgXfX;Xd.} K J ! A A A A A A A A A A A A A A A A A A A A A ",
"A A A A A A A A A A A A A A A A A A A A A A A A A A ! J 5.p.oX8XdXgXgXfX0XoXu.] K A A A A A A A A A A A A A A A A A A A A A A A ",
"A A A A A A A A A A A A A A A A A A A A A A A A A A H [ y.oXqXfXgXgXgX8XoXi.X.' K Z ( R.( A A A A A A A A A A A A A A A A A A A ",
"A A A A A A A A A A A A A A A A A A A ! H H J M M M L { p.&X9XwXgXgXgXqX;X Xt.' K A ( ( S A A A A A A A A A A A A A A A A A A A ",
"A A A A A A A A A A A A A A A A A A A D 1 1 3 9 9 9 p e. X.XoX:XfXgXgXgXsX*Xi.] L / / A A A A A A A A A A A A A A A A A A A A A ",
"A A A A A A A A A A A A A A A A A ! L ..{ { ] s y r f f 9.8.y..X7X9X9X9X7X&Xd.X...L J Z A A A A A A A A A A A A A A A A A A A A ",
"A A A A A A A A A A A A A A A A A F 1 { e.e.X.] a k.k.z.z.n.+.a.d.XXXXXXXX|.d.t.{ 1 F A A A A A A A A A A A A A A A A A A A A A ",
"A A A A A A A A A A A A A A A A A F 1 { t.i.d.i.a.+.n.V.V.N.n.x.F.9.3.9.F.6.a a t t J A A A A A A A A A A A A A A A A A A A A A ",
"A A A A A A A A A A A A A A A A A F 1 { r. XoX*XOXp.H.Y.A.V.m.m.m.h.q r h.r w 9 9 y G ! ! ! ! ! A A A A A A A A A A A A A A A A ",
"A A A A A A A A A A A A A A A A A F 1 { r. X*XqXqXqX6XU.P.A.V.V.V.m.h.r q h.r w t 3 3 5 5 5 5 F B A A A A A A A A A A A A A A A ",
"A A A A A A A A A A A A A A A A A J K [ X.u.OX8XsXgXqX7X^.'.'.'.'.I.K.H.8.H.H.8.7.4.-.| { '  .K B A A A A A A A A A A A A A A A ",
"A A A A A A A A A A A A A A A A A Z B K ' X.u..X9XgXdXfXdXrXrXrXrXrXeXeXeXeXeXeX9X.X|. Xr.} ' K B A A A A A A A A A A A A A A A ",
"A A A A A A A A A A A A A A A A A A A J L [ X.u.OX8XwXgXgXgXgXgXgXgXgXgXdXqX8X8X;XoX Xi.r.X.' K B A A A A A A A A A A A A A A A ",
"A A A A A A A A A A A A A A A A A A A A ! p ] X.u..X8XdXdXdXgXgXgXgXgXgXsX;X.X.X.X.Xi.O.X.| ' K B A A A A A A A A A A A A A A A ",
"A A A A A A A A A A A A A A A A A A A A ~ T a [ } 4.p.OXOXoX;X7X7X7X7X7X;X&X|.i.u.u.r.X.{ [ L J Z A A A A A A A A A A A A A A A ",
"A A A A A A A A A A A A A A A A A A A A ~ c.R o...3 ..4.X.t.d.|.|.|.|.|.|. Xi.e.X.} } } [ K ! A A A A A A A A A A A A A A A A A ",
"A A A A A A A A A A A A A A A A A A A A ~ c.D.G.S.R R 6...] } 4.r.r.r.r.r.4.} ] 1 > > > D ! Z A A A A A A A A A A A A A A A A A ",
"A A A A A A A A A A A A A A A A A A A A ~ c.G.[.K.T H.I.8.3.7.7.g.s.7.4.[ ..3 2 > # # % v A A A A A A A A A A A A A A A A A A A ",
"A A A A A A A A A A A A A A A A A A A A ~ c.K.uX!., ~.aX{.!.}.iXiX{.L.T > a a > % V V N Z A A A A A A A A A A A A A A A A A A A ",
"A A A A A A A A A A A A A A A A A A A A ~ c.K.uX~.  6XhXtX{.uXpXuX[.P.i . u u . $ Z A A A A A A A A A A A A A A A A A A A A A A ",
"A A A A A A A A A A A A A A A A A A A A ~ c.K.uX~.  6XhXtX{.uXuX].P.v.u         $ Z A A A A A A A A A A A A A A A A A A A A A A ",
"A A A A A A A A A A A A A A A A A A A A ~ c.J.{.!.9.^.iX{.].'.!.J.R u +     O k v A A A A A A A A A A A A A A A A A A A A A A A ",
"A A A A A A A A A A A A A A A A A A A A C Y D.L./.].]././.L.v.x.x.i     . . % N A A A A A A A A A A A A A A A A A A A A A A A A ",
"A A A A A A A A A A A A A A A A A A A A B D i D.L./.]./.S.i u y f w 9 9 9 n v Z A A A A A A A A A A A A A A A A A A A A A A A A ",
"A A A A A A A A A A A A A A A A A A A A N k % T b.J.L.J.d 8 u d j.j.h.e r m A A A A A A A A A A A A A A A A A A A A A A A A A A ",
"A A A A A A A A A A A A A A A A A A A A Z V c # , u d j.k.m.B.Y.Y.A.M.j.r m A A A A A A A A A ( R.S A A A A A A A A A A A A A A ",
"A A A A A A A A A A A A A A A A A A A A A A v O X o w k.N.Y.)._.T.A.C.k.q n v Z A A A A A A A A ( ( / A A A ( R.S A A A A A A A ",
"A A A A A A A A A A A A A A A A A A A A A A v O o w k.C.T._._.T.Z.C.C.k.w @ % V A A A A A A A A Z A ( A A S R.S A A A A A A A A ",
"A A A A A A A A A A A A A A A A A A A A A A v O > p f l.N.B.B.N.l.k.k.q 8 > 6 k v A A A A A A A A Z N Z S ( ( A A A A A A A A A ",
"A A A A A A A A A A A A A A A A A A A A A A b + = &.p e e e q q q q q @ * ` ` * $ A A A A A A A A A A A S ( Z Z A A A A A A A A ",
"A A A A A A A A A A A A A A A A A A A ^ ^ ^ P 4 ;.-X:X=X=XXX5.5.0.0.0.4 * ` $.a E U ^ A A A A A A A A A Z N Z A A A A A A A A A ",
"A A A A A A A A A A A A A A A A A A A ^ v.D.8.=.%X5X5X5X4X<X;.:.+X+XE.$.& ; -.R v.v.^ A A A A A A A A A A A A A A A A A A A A A ",
"A A A A A A A A A A A A ( S A A A A A c.D.[.^.W.>X5X5X5X,X+X$.$.E.<.:.;   * < R v.v.^ A A A A A A A A A A A A A A A A A A A A A ",
"A A A A A A A A A A A A S / A A A A A U G.}.yX%X>X3X3X2X%X=.; $.,.;.[ >     + i E c.^ A A A A A A A A A A A A A A A A A A A A A ",
"A A A A A A A A ( R.( S Z Z A A A A A U G.}.yX%X@X$X$X@X*.= ` %.&.4.w @       X z C A A A A A A A A A A A A A A A A A A A A A A ",
"A A A A A A A A A / ( ( Z N Z ( R.( A J R [.}.~.Q.f.f.=.< t a 6.6.3.3.<   # $ $ c A A A A A A A A A A A A A A A A A A A A A A A ",
"A A A A A A S ( ( Z A / A Z A ( ( S Z $ , G.].].K.b.u . 9 h.M.C.C.H.+X$.O b Z Z A A A A A A A A A A A A A A A A A A A A A A A A ",
"A A A A A A A S ( ( Z Z A S ( / A A A v l T 9.q.7.5.[ 4 5 3.q.q.q.f.>.; O v A A A A A A A A A A A A A A A A A A A A A A A A A A ",
"A A A A A A A Z Z / A Z N Z S B N B B Z V # * ` %.@.&.&.&.:.E.+X+X1.*.> + v A A A A A A A A A A A A A A A A A A A A A A A A A A ",
"A A A A A A A A Z Z A A Z B B v $ % $ v V #   * ; &.>.<.<.<.+X<.>.5.x.f 0 M A A A A A A A A A A A A A A A A A A A A A A A A A A ",
"A A A A A A A A A Z Z S / A A c 7   * k c #   X > ` =.,.,.,.,.;.4.F.Z.m.n.m C A A A A A A A A A A A A A A A A A A A A A A A A A ",
"A A A A A A A A A A A S Z Z A c O = ` 6 +   X 9 8 * : - - - : p n.Y.).).A.n.M C A A A A A A A A A A A A A A A A A A A A A A A A ",
"A A A A A A A A A A A Z Z A A c O = %.; = = , w 9 o X     . X f A.T.`.[.!.8.P W W W ! A A A A A A A A A A A A A A A A A A A A A ",
"A A A A A A A A A A A A A A A c O = &.%.@.@.[ w q w o     X 9 n.)._.`.~.%XE.,.=.*.*.Q A A A A A A A A A A A A A A A A A A A A A ",
"A A A A A A A A A A A A A A A c O = &.&.&.&.$.p i q g     . o f A.!.~.Q.@X>X-X<.:.&.Q A A A A A A A A A A A A A A A A A A A A A ",
"A A A A A A A A A A A A A A A c O = %.&.&.&.@.@.5 q 8         y M.H.@X@X$X3X3X$X,.&.Q A A A A A A A A A A A A A A A A A A A A A ",
"A A A A A A A A A A A A A A A N c < = ` %.&.@.@.$.5 >   $ l l F 6.f.@X>X2X4X3X$X>.= F A A A A A A A A A A A A A A A A A A A A A ",
"A A A A A A A A A A A A A A A A A x + 4 @.%.&.&.@.#.6 # b A A Q $.>.@X1X5X4X,X+X=.+ x A A A A A A A A A A A A A A A A A A A A A ",
"A A A A A A A A A A A A A A A A A N b < = ` &.&.` * h v B A A J > =.@X1X4X<X+X$.j b N A A A A A A A A A A A A A A A A A A A A A ",
"A A A A A A A A A A A A A A A A A N b #   ; ` ` =   $ v v v v D 4 2.@X<X,X+X=.* # b v V ) S A A A A A A A A A A A A A A A A A A ",
"A A A A A A A A A A A A A A A A A x O       & &     7 O O O O j ,.E.@X#X+X$.*     O O # v A A A A A A A A A A A A A A A A A A A ",
"A A A A A A A A A A A A A A A A A v $ $ $ $ $ $ $ $ +         : =.2.=.2.=.: O # $ h h k V A A A A A A A A A A A A A A A A A A A ",
"A A A A A A A A A A A A A A A A A A Z Z Z Z Z Z Z Z k                       # V Z A / Z Z A A A A A A A A A A A A A A A A A A A ",
"A A A A A A A A A A A A A A A A A A A A A A A A A A v l l l l l l l l l l l c B A Z N Z A A A A A A A A A A A A A A A A A A A A ",
"A A A A A A A A A A A A A A A A A A A A A A A A A A A A A A A A A A A A A A A A A A A A A A A A A A A A A A A A A A A A A A A A ",
"A A A A A A A A A A A A A A A A A A A A A A A A A A A A A A A A A A A A A A A A A A A A A A A A A A A A A A A A A A A A A A A A ",
"A A A A A A A A A A A A A A A A A A A A A A A A A A A A A A A A A A A A A A A A A A A A A A A A A A A A A A A A A A A A A A A A "
};
