/* XPM */
static const char *UF9MZWZ0XzI_[] = {
/* columns rows colors chars-per-pixel */
"64 64 222 2 ",
"   c #1A1A19",
".  c #231C1A",
"X  c #2C1D19",
"o  c #371E18",
"O  c #252518",
"+  c #2D291B",
"@  c #3E231B",
"#  c #333319",
"$  c #3D3D19",
"%  c #373918",
"&  c #1C2B2F",
"*  c #382A24",
"=  c #2D283B",
"-  c #332D3B",
";  c #213735",
":  c #3B3535",
">  c #38353A",
",  c #32302B",
"<  c #432119",
"1  c #4D2219",
"2  c #462D18",
"3  c #54251A",
"4  c #5D2918",
"5  c #56281C",
"6  c #5E3818",
"7  c #423F19",
"8  c #6C2A1A",
"9  c #632819",
"0  c #712B19",
"q  c #792C1B",
"w  c #7A331A",
"e  c #452A27",
"r  c #5A2D25",
"t  c #483326",
"y  c #57392B",
"u  c #4C2D33",
"i  c #443B38",
"p  c #563E31",
"a  c #563937",
"s  c #622B21",
"d  c #65392B",
"f  c #773726",
"g  c #742E20",
"h  c #3E4019",
"j  c #2E4B3E",
"k  c #424319",
"l  c #4A4C1A",
"z  c #48451A",
"x  c #57481C",
"c  c #5A5C1A",
"v  c #56551A",
"b  c #4E501A",
"n  c #75451A",
"m  c #6C5A1A",
"M  c #71561A",
"N  c #735F1B",
"B  c #634619",
"V  c #5E611B",
"C  c #63651B",
"Z  c #666B1A",
"A  c #6B6D1C",
"S  c #686A18",
"D  c #6E721B",
"F  c #72751B",
"G  c #76791F",
"H  c #726C1B",
"J  c #554B27",
"K  c #5C5C26",
"L  c #575629",
"P  c #484534",
"I  c #455B3D",
"U  c #514E31",
"Y  c #7C5E2B",
"T  c #69483B",
"R  c #6E4930",
"E  c #556631",
"W  c #656C24",
"Q  c #666723",
"!  c #767A20",
"~  c #797C22",
"^  c #717526",
"/  c #636433",
"(  c #6D763F",
")  c #1F3943",
"_  c #322B44",
"`  c #342D49",
"'  c #39324D",
"]  c #3A3549",
"[  c #3E3955",
"{  c #3C3854",
"}  c #2A3346",
"|  c #453A46",
" . c #423C5C",
".. c #483B54",
"X. c #533C49",
"o. c #683D43",
"O. c #284847",
"+. c #334449",
"@. c #234C58",
"#. c #2C5F5A",
"$. c #2A505A",
"%. c #3A4E58",
"&. c #305C67",
"*. c #2D6C72",
"=. c #337573",
"-. c #347975",
";. c #2F6968",
":. c #405A40",
">. c #48445A",
",. c #525252",
"<. c #694747",
"1. c #775348",
"2. c #6D5251",
"3. c #6C4F4D",
"4. c #6E6A50",
"5. c #494967",
"6. c #4B526C",
"7. c #5B5566",
"8. c #515572",
"9. c #565D76",
"0. c #574F66",
"q. c #59627C",
"w. c #537A78",
"e. c #4D7671",
"r. c #646474",
"t. c #727472",
"y. c #636452",
"u. c #89351D",
"i. c #973C1D",
"p. c #883724",
"a. c #9F3A25",
"s. c #913E25",
"d. c #A33E2B",
"f. c #A1401D",
"g. c #8F4E39",
"h. c #AB4629",
"j. c #B7482C",
"k. c #B65630",
"l. c #B6673B",
"z. c #C94C31",
"x. c #C85B2A",
"c. c #D7673A",
"v. c #CE6A39",
"b. c #855844",
"n. c #965D42",
"m. c #825854",
"M. c #9B664B",
"N. c #A67459",
"B. c #BE7E59",
"V. c #B97754",
"C. c #B26A4A",
"Z. c #93776B",
"A. c #AF7B62",
"S. c #DA7B44",
"D. c #D27C53",
"F. c #C27E52",
"G. c #7E8125",
"H. c #548B7C",
"J. c #658A7A",
"K. c #6A8B78",
"L. c #B7875D",
"P. c #B48E6C",
"I. c #9C8B6E",
"U. c #CE8E5C",
"Y. c #EC914D",
"T. c #EA8B4B",
"R. c #D18B62",
"E. c #CF9269",
"W. c #DDA375",
"Q. c #D4AA7C",
"!. c #C2A177",
"~. c #E0A577",
"^. c #3B7684",
"/. c #5E6B85",
"(. c #5C6A84",
"). c #656D86",
"_. c #62758D",
"`. c #6A768E",
"'. c #657991",
"]. c #6A7E94",
"[. c #737C92",
"{. c #388B85",
"}. c #3B938C",
"|. c #3E9791",
" X c #449998",
".X c #478C88",
"XX c #79889C",
"oX c #789383",
"OX c #46A09D",
"+X c #7B8CA0",
"@X c #7C91A4",
"#X c #4EA9AA",
"$X c #55A9AC",
"%X c #58B5B9",
"&X c #5EADBC",
"*X c #6EB2B5",
"=X c #69BFC8",
"-X c #66C3CD",
";X c #6BCAD5",
":X c #72D2DF",
">X c #76D5E4",
",X c #8E948F",
"<X c #8A9EAE",
"1X c #8497A8",
"2X c #8FA4B3",
"3X c #95A9B7",
"4X c #9DB2BF",
"5X c #B7AFAA",
"6X c #ABB1B4",
"7X c #A19F88",
"8X c #CAA484",
"9X c #E8B98F",
"0X c #D4BEAC",
"qX c #9DC4B5",
"wX c #F4CC95",
"eX c #EBC28F",
"rX c #E4C2A8",
"tX c #9FB5C1",
"yX c #A6BBC6",
"uX c #A5BAC5",
"iX c #ACC2CC",
"pX c #F1E9DA",
/* pixels */
"F F F F F F F F F F F F F F F F F F F F F F F F F F F F F F F F F F F F F F F F F F F F F F F F F F F F F F F F F F F F F F F F ",
"F F F F F F F F F F F F F F F F F F F F F F F F F F F F F F F F F F F F F F F F F F F F F F F F F F F F F F F F F F F F F F F F ",
"F F F F F F F F F F F F F F F F F F F F F F F F F F F F F F F F ^ ( ( / / / / Q F F F F F F F F F F F F F F F F F F F F F F F F ",
"F F F F F F F F F F F F F F F F F F F F F F F F F F F F F F F F ( t.9.>.>.>.>.,.^ F F F F F F F F F F F F F F F F F F F F F F F ",
"F F F F F F F F F F F F F F F F F F F F F F F F F F F F F / y.4.K.1X+X[.).8.5.>.U K F F F F F F F F F F F F F F F F F F F F F F ",
"F F F F F F F F F F F F F F F F F F F F F F F F F F F F ^ ,.6./.@XyXiXiX1X/.6.[ _ P F F F F F F F F F F F F F F F F F F F F F F ",
"F F F F F F F F F F F F F F F F F F F F F F F F F F F / ,.7.).1X4XiXiXiX1X/.6.[ _ P F F F F F F F F F F F F F F F F F F F F F F ",
"F F F F F F F F F F F F F F F F F F F F F F F F F D Z ,.6.).@XtXiXiXyXtX+X(.5.{ > U F F F F F F F F F F F F F F F F F F F F F F ",
"F F F F F F F F F F F F F F F F F F F F F F F F F K i ,.).1X4XyXiXiX3XXX/.5.' > L Q F F F F F F F F F F F F F F F F F F F F F F ",
"F F F F F F F F F F F F F F F F F F F F F F S m m U ` 6.].1X4XyXiXiX3XXX/.5.` : V D ~ G.~ F F F F F F F F F F F F F F F F F F F ",
"F F F F F F F F F F F F F F F F F F F F F A B 6 6 a  .9.'.].@XtXiXiXyXtX+Xq.{ i Q F ! ~ G F F F F F F F F F F F F F F F F F F F ",
"F F F F F F F F F F F F F F F F Q L L L L J t r 8 f o.2.4.r.).1X2X2X2X2XXX/.>.] U Q ! F F F F F F F F F F F F F F F F F F F F F ",
"F F F F F F F F F F F F F F F F K - = = = = = u u.i.i.i.s.<.6./.'.'.'.'.'./.6.[ _ P Z D F F F F F F F F F F F F F F F F F F F F ",
"F F F F F F F F F F F F F F F F K - _ ' >.6.6.0.<.g.k.k.k.g.<.1.2.3.2.m.2.<.X.u e J D F F F F F F F F F F F F F F F F F F F F F ",
"F F F F F F F F F F F F F F F F K - ' 5.9._.].).8.m.v.c.c.j.f.f.u.9 w i.q 4 4 4 5 x A D F F F F F F F F F F F F F F F F F F F F ",
"F F F F F F F F F F F F F F F F K - ' 5.9.].1X2X1X,XZ.C.c.x.x.x.h.u.w 0 w w 9 3 e : P K F F F F F F F F F F F F F F F F F F F F ",
"F F F F F F F F F F F F F F F F K i ]  .8._.<XuXiX3XXXI.D.D.D.D.C.g.R p f p.d u _ _ _ P Q Q Q D F F F F F F F F F F F F F F F F ",
"F F F F F F F F F F F F F F F F A Q P _  .8.`.1XuXyX4X6X5X5X5X5X,Xt.r.r.0.X..... . . .] : : P Q F F F F F F F F F F F F F F F F ",
"F F F F F F F F F F F F F F F F F F K i ]  .8.`.<XtXiXiXiXiXiXiX4X1X@X@X[.).).).).q.8. .` _ : Q F F F F F F F F F F F F F F F F ",
"F F F F F F F F F F F F F F F F F F D A P _  .8._.1XiXiXiXiXiXiXiXyXyXyXuXuXuXuXuX<X_.8. .` : Q F F F F F F F F F F F F F F F F ",
"F F F F F F F F F F F F F F F F F F F F L a | [ 5.q.XXXXXX1X<X<X<X<X<X<X<X<X<X1XXX`.9.5.' P L A F F F F F F F F F F F F F F F F ",
"F F F F F F F F F F F F F F F F F F F F Y R i = = '  . .5.q._._._._._._._._._.(.5. . .' - K F F F F F F F F F F F F F F F F F F ",
"F F F F F F F F F F F F F F F F F F F F J y 1.m.T <.<.X.' [ 5.6.8.8.8.8.8.8.5.%.' ` ' P L Q F F F F F F F F F F F F F F F F F F ",
"F F F F F F F F F F F F F F F F F F F D $ * N.B.g.b.M.3.| | >.7.7.0.>.[ ...._ = - > > L F F F F F F F F F F F F F F F F F F F F ",
"F F F F F F F F F F F F F F F F F F F F $ , P.P.p 4.0X8XN.P.8X8XP.A.3.& a T * , L K K Q F F F F F F F F F F F F F F F F F F F F ",
"F F F F F F F F F F F F F F F F F F F F J U !.P.: t.pX9XR.9XwXeXW.F.T   t y + # C F F F F F F F F F F F F F F F F F F F F F F F ",
"F F F F F F F F F F F F F F F F F F F F Y b.Q.P.: t.pX9XR.9XeXW.B.n.y   . .   # C F F F F F F F F F F F F F F F F F F F F F F F ",
"F F F F F F F F F F F F F F F F F F F F Y n.E.E.1.Z.rX8XR.W.W.L.n.d *       # l Z F F F F F F F F F F F F F F F F F F F F F F F ",
"F F F F F F F F F F F F F F F F F F F F Y g.V.R.U.R.R.R.R.R.F.n.d .       O v F F F F F F F F F F F F F F F F F F F F F F F F F ",
"F F F F F F F F F F F F F F F F F F F F J y n.V.U.R.R.V.M.g.T y *       # b Z F F F F F F F F F F F F F F F F F F F F F F F F F ",
"F F F F F F F F F F F F F F F F F F F F k + d g.V.F.B.M.R *     . .     l F F F F F F F F F F F F F F F F F F F F F F F F F F F ",
"F F F F F F F F F F F F F F F F F F F F C b t t p p p t * . . < 3 3 o   l F F F F F F F F F F F F F F F F F F F F F F F F F F F ",
"F F F F F F F F F F F F F F F F F F F F F Z k + + O   X < e y f p.u.5 X v F F F F F F F F F F ! G.G F F F F F F F F F F F F F F ",
"F F F F F F F F F F F F F F F F F F F F F D C V V k   s h.l.F.S.v.j.p.4 m F F F F F F F F F F F ~ ~ ! F F F ~ G.G F F F F F F F ",
"F F F F F F F F F F F F F F F F F F F F F F F F F v @ g h.l.v.S.c.z.a.0 M F F F F F F F F F F F D F ! F F G G.G F F F F F F F F ",
"F F F F F F F F F F F F F F F F F F F F F F F F F M 8 0 q w p.j.z.z.a.0 M F F F F F F F F F F F F D Z D G ! ! F F F F F F F F F ",
"F F F F F F F F F F F F F F F F F F F F F F F F F M 0 1.t.t.t.g.a.a.u.0 M F F F F F F F F F F F F F F F G ! D D F F F F F F F F ",
"F F F F F F F F F F F F F F F F F F F F F F F F F M 8 oX>X>X*X3.8 8 8 8 M F F F F F F F F F F F F F F F D Z D F F F F F F F F F ",
"F F F F F F F F F F F F F F F F F F F F F F F F F K i e.%X;X=Xw.,.| * @ v F F F F F F F F F F F F F F F F F F F F F F F F F F F ",
"F F F F F F F F F F F F ~ G F F F F F F F F F D W I @.*.|.%X=X X=.@.;   l F F F F F F F F F F F F F F F F F F F F F F F F F F F ",
"F F F F F F F F F F F F G ! F F F F F F F F F W :.O.@.*.}. X X}.-.@.;   l F F F F F F F F F F F F F F F F F F F F F F F F F F F ",
"F F F F F F F F ! G.~ G D D F F F F F F F D W I #.&.,.w.J.J.H..X=.+.,   l F F F F F F F F F F F F F F F F F F F F F F F F F F F ",
"F F F F F F F F F ! ~ ! D Z D ~ G.~ F F F W :.#.-.K.A.L.P.P.I..Xe.y <   l F F F F F F F F F F F F F F F F F F F F F F F F F F F ",
"F F F F F F G ~ ! D F ! F D F ! ~ G F F W I e..X}.oXW.~.W.E.L.e.%.e 2 h c F F F F F F F F F F F F F F F F F F F F F F F F F F F ",
"F F F F F F F G ~ ! D D F G ! ! F F F F I &.&X-X X,XwXwXwXW.A.,.)   k D F F F F F F F F F F F F F F F F F F F F F F F F F F F F ",
"F F F F F F F D D ! F D Z D G D D F F D I &. X%X%XqXwX9X~.E.N.:., k c F F F F F F F F F F F F F F F F F F F F F F F F F F F F F ",
"F F F F F F F F D D F F D Z Z D F F F D I $.=. X-XqXeXW.B.B.M.e $ Z F F F F F F F F F F F F F F F F F F F F F F F F F F F F F F ",
"F F F F F F F F F D D G ! F F F F F F F J a %.*.^.w.t.y.p p y 5 x A F F F F F F F F F F F F F F F F F F F F F F F F F F F F F F ",
"F F F F F F F F F F F G D D F F F F F F n s > ) +.+.+.: @ @ 1 0 n N H F F F F F F F F F F F F F F F F F F F F F F F F F F F F F ",
"F F F F F F F F F F F D D F F F F F F F n 9 * + r r r p.d.d.d.h.a.w M F F F F F F F F F F F F F F F F F F F F F F F F F F F F F ",
"F F F F F F F F F F F F F F F F F F F F x 1 o o 1 8 p.j.c.c.c.c.l.T U E W F F F F F F F F F F F F F F F F F F F F F F F F F F F ",
"F F F F F F F F F F F F F F F F F F F D 7 X 3 3 X s j.c.Y.Y.Y.Y.L.H.;.$.E F F F F F F F F F F F F F F F F F F F F F F F F F F F ",
"F F F F F F F F F F F F F F F F F F F F v 7 2 < < 5 g k.S.T.Y.P.,X$X X;.j b Z F F F F F F F F F F F F F F F F F F F F F F F F F ",
"F F F F F F F F F F F F F F F F F F F F F C # o 9 1   g z.S.U.J.#X:X%X{.O.O c F F F F F F F F F F F F F F F F F F F F F F F F F ",
"F F F F F F F F F F F F F F F F F F F F F A c z @ < 1 5 d 4.oX*X-X>X%X{.O.O c F F F F F F F F F F F F F F F F F F F F F F F F F ",
"F F F F F F F F F F F F F F F F F F F F F F F c O o 4 * ; =.#X;X>X:X$X-.j % C F F F F F F F F F F F F F F F F F F F F F F F F F ",
"F F F F F F F F F F F F F F F F F F F F F F F c O . o +.=.$X;X>X-X#X=.; l Q ^ ! F F F ~ G.G F F F F F F F F F F F F F F F F F F ",
"F F F F F F F F F F F F F F F F F F F F C c c z O & ; ;.}.%X-X-X$X=.O.  h v c C F F G G.G F F F F F F F F F F F F F F F F F F F ",
"F F F F F F F F F F F F F F F F F F F F k O O O   j -.{.}.|. X X=.;     O O O % C G ! ! F F F F F F F F F F F F F F F F F F F F ",
"F F F F F F F F F F F F F F F F F F F F v % O     ; #.#.#.#.#.#.O.  + $ $ $ $ l Z G ! D D F F F F F F F F F F F F F F F F F F F ",
"F F F F F F F F F F F F F F F F F F F F F C #                       k D D D D F F D Z D F F F F F F F F F F F F F F F F F F F F ",
"F F F F F F F F F F F F F F F F F F F F F Z v l z z z z l l l l l l c F F F F F F F F F F F F F F F F F F F F F F F F F F F F F ",
"F F F F F F F F F F F F F F F F F F F F F F F F F F F F F F F F F F F F F F F F F F F F F F F F F F F F F F F F F F F F F F F F ",
"F F F F F F F F F F F F F F F F F F F F F F F F F F F F F F F F F F F F F F F F F F F F F F F F F F F F F F F F F F F F F F F F "
};
