/* XPM */
static const char *UF9SX0lkbGUlMjgyJTI5[] = {
/* columns rows colors chars-per-pixel */
"64 64 222 2 ",
"   c #1B1A19",
".  c #251C1A",
"X  c #341E18",
"o  c #212218",
"O  c #2A271A",
"+  c #313219",
"@  c #3B3C19",
"#  c #37241A",
"$  c #191F21",
"%  c #1E343B",
"&  c #1B272B",
"*  c #2A2B2A",
"=  c #372822",
"-  c #363926",
";  c #2C253E",
":  c #2F283E",
">  c #352B3A",
",  c #26383A",
"<  c #303331",
"1  c #201D23",
"2  c #5B2819",
"3  c #4A311B",
"4  c #66291A",
"5  c #712A1A",
"6  c #76321A",
"7  c #472B27",
"8  c #483828",
"9  c #593829",
"0  c #463A38",
"q  c #553835",
"w  c #562B23",
"e  c #68382A",
"r  c #71372B",
"t  c #3D401C",
"y  c #384536",
"u  c #46461A",
"i  c #53551A",
"p  c #5A5C1A",
"a  c #57591A",
"s  c #4F521C",
"d  c #66561A",
"f  c #72591B",
"g  c #64661B",
"h  c #666A1A",
"j  c #6A6C1C",
"k  c #666D17",
"l  c #736B1E",
"z  c #6D721B",
"x  c #72751B",
"c  c #76791F",
"v  c #4D482E",
"b  c #544A26",
"n  c #5C5C26",
"m  c #52512B",
"M  c #5D5928",
"N  c #454233",
"B  c #4A4732",
"V  c #5D5C3B",
"C  c #4F5034",
"Z  c #6A4636",
"A  c #754633",
"S  c #774A39",
"D  c #724C33",
"F  c #56622F",
"G  c #636423",
"H  c #656C23",
"J  c #6A6B23",
"K  c #746F20",
"L  c #7E612B",
"P  c #767A20",
"I  c #797C22",
"U  c #767321",
"Y  c #6C6F2B",
"T  c #1E3A46",
"R  c #2E2741",
"E  c #322C45",
"W  c #362E48",
"Q  c #3B3548",
"!  c #3C3754",
"~  c #483845",
"^  c #433E5D",
"/  c #483A50",
"(  c #633F49",
")  c #453F60",
"_  c #1F414E",
"`  c #1F4250",
"'  c #284547",
"]  c #3D484C",
"[  c #375446",
"{  c #214A5A",
"}  c #234855",
"|  c #3B4754",
" . c #305557",
".. c #275A65",
"X. c #29636A",
"o. c #2D6C71",
"O. c #357775",
"+. c #336B73",
"@. c #54495A",
"#. c #485C5C",
"$. c #585959",
"%. c #4F4949",
"&. c #6A4744",
"*. c #764C45",
"=. c #77594E",
"-. c #546558",
";. c #6A7655",
":. c #6B6753",
">. c #464161",
",. c #494865",
"<. c #594E64",
"1. c #535A75",
"2. c #545874",
"3. c #4E546D",
"4. c #496A66",
"5. c #5A6178",
"6. c #457279",
"7. c #517168",
"8. c #606579",
"9. c #76727E",
"0. c #605568",
"q. c #963B1C",
"w. c #82301E",
"e. c #8B3521",
"r. c #9B3925",
"t. c #933823",
"y. c #A23B26",
"u. c #82511E",
"i. c #A1401D",
"p. c #874A37",
"a. c #865734",
"s. c #8E4C2F",
"d. c #A84924",
"f. c #B6452B",
"g. c #AD5033",
"h. c #8D642E",
"j. c #C4472F",
"k. c #CB5C2B",
"l. c #C64931",
"z. c #C45835",
"x. c #DA6B38",
"c. c #D06635",
"v. c #875746",
"b. c #975B43",
"n. c #88594D",
"m. c #9A6348",
"M. c #896756",
"N. c #986856",
"B. c #9D775F",
"V. c #A46A4B",
"C. c #A26C58",
"Z. c #A87453",
"A. c #B57757",
"S. c #B66D4E",
"D. c #917971",
"F. c #B07F66",
"G. c #DB7341",
"H. c #C57149",
"J. c #E07843",
"K. c #7E8125",
"L. c #33807E",
"P. c #4A8379",
"I. c #BF825F",
"U. c #8F8D72",
"Y. c #BA8967",
"T. c #B49173",
"R. c #CB845D",
"E. c #D2864A",
"W. c #F09850",
"Q. c #E88E4C",
"!. c #CB8764",
"~. c #D08860",
"^. c #D99D78",
"/. c #CD956C",
"(. c #C9A77A",
"). c #DDA375",
"_. c #E2A97A",
"`. c #E5B07F",
"'. c #397181",
"]. c #5B6781",
"[. c #5F6882",
"{. c #69748A",
"}. c #6B7C93",
"|. c #657991",
" X c #677188",
".X c #378883",
"XX c #3B938C",
"oX c #459997",
"OX c #518B8F",
"+X c #76869B",
"@X c #6D8B90",
"#X c #7D92A4",
"$X c #7B8DA0",
"%X c #52A8AD",
"&X c #58B3B8",
"*X c #4EA9A9",
"=X c #72ACAE",
"-X c #5EBBC1",
";X c #61B9C3",
":X c #6BC8D5",
">X c #77D7E7",
",X c #9EB291",
"<X c #ABA69B",
"1X c #869AAA",
"2X c #8EA3B2",
"3X c #95A9B7",
"4X c #9BABB5",
"5X c #ADB8BC",
"6X c #B1BABE",
"7X c #9A9390",
"8X c #D2AC86",
"9X c #E7B785",
"0X c #F5CB94",
"qX c #F8D098",
"wX c #F0C28D",
"eX c #E2C6B0",
"rX c #9FB4C1",
"tX c #A9BEC9",
"yX c #A5BAC5",
"uX c #ACC2CC",
"iX c #8BCED0",
"pX c #EFD9C4",
/* pixels */
"x x x x x x x x x x x x x x x x x x x x x x x x x x x x x x x x x x x x x x x x x x x x x x x x x x x x x x x x x x x x x x x x ",
"x x x x x x x x x x x x x x x x x x x x x x x x x x x x x x x x x x x x x x x x x x x x x x x x x x x x x x x x x x x x x x x x ",
"x x x x x x x x x x x x x x x x x x x x x x Y V V V V :.;.;.;.Y x x x x x x x x x x x x x x x x x x x x x x x x x x x x x x x x ",
"x x x x x x x x x x x x x x x x x x x x x z V ) >.>.>.3. X|.|.;.x x x x x x x x x x x x x x x x x x x x x x x x x x x x x x x x ",
"x x x x x x x x x x x x x x x x x x x x G v %.>.3.[.+X1X2X2X2X@X;.$.V J x x x x x x x x x x x x x x x x x x x x x x x x x x x x ",
"x x x x x x x x x x x x x x x x x x x x n > W ^ 1.}.2XyXuXuXuX2X}.1.@.V J x x x x x x x x x x x x x x x x x x x x x x x x x x x ",
"x x x x x x x x x x x x x x x x x x x x n > R W >.2.}.1XyXuXuXyX2X}.5.$.V J x I c x x x x x x x x x x x x x x x x x x x x x x x ",
"x x x x x x x x x x x x x x x x x x x x G N 0 0 Q ^ 1.}.2XyXuXuXtX1X}.1.$.M J c P x x x x x x x x x x x x x x x x x x x x x x x ",
"x x x x x x x x x x x x x x x x x x x x z J J G N W ^ 2.}.1XuXuXuXyX3X}.1.Q m z z x x x x x x x x x x x x x x x x x x x x x x x ",
"x x x x x x x x x x x x x x x x x x x x x x G m 0 ! ,.[.$X3XuXuXuX4X1X+X1.! B d d d U K.I x x x x x x x x x x x x x x x x x x x ",
"x x x x x x x x x x x x x x x x x x x x x x m : ! ,.].+XrXuXuXuXyX#X|.|.5.>.q 2 2 4 l I c x x x x x x x x x x x x x x x x x x x ",
"x x x x x x x x x x x x x x x x x x x x x x m ; ! ,.].+X1X1X1X1X1XD.N.n.*.S r 6 w 7 B v v v v G x x x x x x x x x x x x x x x x ",
"x x x x x x x x x x x x x x x x x x x x x x m : Q >.5. X X X X{.9.S.k.d.q.t.t.t.q E E E R R ; m x x x x x x x x x x x x x x x x ",
"x x x x x x x x x x x x x x x x x x x x x x a 7 7 q q &.v.v.v.m.S.c.c.k.g.&.( ( <.1.1.3.! W ; m x x x x x x x x x x x x x x x x ",
"x x x x x x x x x x x x x x x x x x x x j G b 2 2 2 4 6 q.i.d.k.x.x.x.H.N.<.3.1.|.+X}.].,.! ; m x x x x x x x x x x x x x x x x ",
"x x x x x x x x x x x x x x x x x x x x n 0 > > 7 4 6 q.q.d.k.c.x.x.H.D.9.[.+X3X4X3X+X].,.! ; m x x x x x x x x x x x x x x x x ",
"x x x x x x x x x x x x x x x x x G n n B Q W W ~ &.n.C.C.A.!.!.!.!.T.7X#X#X3XuXrX1X|.2.^ Q N n x x x x x x x x x x x x x x x x ",
"x x x x x x x x x x x x x x x x j B > > Q ^ ^ ^ 2.}.2X5X5X5X6X6X6X6XtXyXyXyXtXuX1X|.2.^ E N j z x x x x x x x x x x x x x x x x ",
"x x x x x x x x x x x x x x x x j N ; ; E Q ! >.3.[.$X3XtXuXuXuXuXuXuXuXyX2X1X+X X2.^ Q B n x x x x x x x x x x x x x x x x x x ",
"x x x x x x x x x x x x x x x x j N ; ; ; ; W ^ ^ ,.].+X4XtXtXtXtXtXtXtX2X}.2.^ >.^ W 0 H x x x x x x x x x x x x x x x x x x x ",
"x x x x x x x x x x x x x x x x z n v > ; ; E W W Q | ,.5.8.8. X{.{.{.{.8.,.! Q =.M.*.Z K x x x x x x x x x x x x x x x x x x x ",
"x x x x x x x x x x x x x x x x x x G N > > > ; > > > Q / ~ ~ @.0.<.@.@./ W Q ~ N.H.b.D l x x x x x x x x x x x x x x x x x x x ",
"x x x x x x x x x x x x x x x x x x z G n n 8 1 8 Z Z n.T.T.C.T.8XY.N.v.S Z v.C.A.A.Z 8 j x x x x x x x x x x x x x x x x x x x ",
"x x x x x x x x x x x x x x x x x x x x x x u   9 p.A v./.).^.9X0X).!.F.N.Z m.~.~.A.8 + g x x x x x x x x x x x x x x x x x x x ",
"x x x x x x x x x x x x x x x x x x x x x x u   9 S 7 8 v.Y.wX0X0X).^.eX7X- S ~.~.A.8 + g x x x x x x x x x x x x x x x x x x x ",
"x x x x x x x x x x x x x x x x x x x x x x p @ 8 8 O = A A.`.wX0X).^.pX<X* =._._./.S b j x x x x x x x x x x x x x x x x x x x ",
"x x x x x x x x x x x x x x x x x x x x x x x j @     = A V.~.`.0X).^.pX<X* M.0X0X9XZ.a.l x x x x x x x x x x x x x x x x x x x ",
"x x x x x x x x x x x x x x x x x x x x x x x x p u O . 7 D V.A.Y.!./.9X8XB.(.qXqX9XZ.a.K x x x x x x x x x x x x x x x x x x x ",
"x x x x x x x x x x x x x x x x x x x x x x x x x g @     7 S p.a.S.R.R.).0XqXqX0X9XZ.a.K x x x x x x x x x x x x x x x x x x x ",
"x x x x x x x x x x x x x x x x x x x x x x x x x z p u o O = e a.b.V.R.).0XqX0X9X/.m.a.K x x x x x x x x x x x x x x x x x x x ",
"x x x x x x x x x x x x x x x x x x x x x x x x x x x p O . . 9 p.A S m.Y.).9X9X/.A.h.L x x x x x x x x x x x x x x x x x x x x ",
"x x x x x x x x x x x x x x x x x x x x x x x x x x x p O X 2 4 5 7 = = Z m.V.V.m.h.h.K x x x x x x x x x x x x x x x x x x x x ",
"x x x x x x x x x x x x x x x x x x x x x x x x x z p u # 2 e.i.s.A 9 w r s.s.p.a.L l x x x x P K.c x x x x x x x x x x x x x x ",
"x x x x x x x x x x x x x x x x x x x x x x x x x g @ X 2 e.f.x.Q.Q.G.z.f.l.r.5 f x x x x x x x I I P x x x I K.c x x x x x x x ",
"x x x x x x x x x x x x x x x x x x x x x x x x x g + X 4 w.r.z.G.G.G.x.x.x.g.r.u.f l x x x x x z x P x x c K.c x x x x x x x x ",
"x x x x x x x x x x x x x x x x x x x x x x x x x g + X 4 5 5 r.j.j.z.Q.W.W.x.j.t.6 f x x x x x x z k z c P P x x x x x x x x x ",
"x x x x x x x x x x x x x x x x x x x x x x x x x H y ' #.-.-.S t.t.r.d.g.g.d.t.2 3 d x x x x x x x x x c P z z x x x x x x x x ",
"x x x x x x x x x x x x x x x x x x x x x x x x x H [ ..XXoXoX-.e e 4 e e Z e e = O s h x x x x x x x x z k z x x x x x x x x x ",
"x x x x x x x x x x x x x x x x x x x x x x x x x H [ +.&X:X:XoX4.| ] 4.OX=XOX4.,   O u h x x x x x x x x x x x x x x x x x x x ",
"x x x x x x x x x x x x I c x x x x x x x x x x x H [ '.:X>X>X&X.XX...O.oX=X@X7.%.= . + g x x x x x x x x x x x x x x x x x x x ",
"x x x x x x x x x x x x c P x x x x x x x x x x x H [ '.:X>X>X&X.XX...L.7.&.p.g.s.Z = + g x x x x x x x x x x x x x x x x x x x ",
"x x x x x x x x P K.I c z z x x x x x x x x x x x H y ..%X-X-XoXo.| %.:.=.t.p.M.v.A = + g x x x x x x x x x x x x x x x x x x x ",
"x x x x x x x x x P I P z k z I K.I x x x x x x x g + , O.XXXXo.} q e.f.l.j.M..X:.A = + g x x x x x x x x x x x x x x x x x x x ",
"x x x x x x c I P z x P x z x P I c x x x x x x x g + y U.,X,XU.:.%.%.:.D.7X@X.X#.8 u i k x x x x x x x x x x x x x x x x x x x ",
"x x x x x x x c I P z z x c P P x x x x x x x x x g + C 8X0XqX_.I.$...L.*X>X&X.X' + p x x x x x x x x x x x x x x x x x x x x x ",
"x x x x x x x z z P x z k z c z z x x x x x x x x g + q Y.9X0X_.I.$...L.*X>X%XX.C p k x x x x x x x x x x x x x x x x x x x x x ",
"x x x x x x x x z z x x z k k z x x x x x x x x x g + 8 N.T.8XT.B.-.X..XoX;XOX} F x x x x x x x x x x x x x x x x x x x x x x x ",
"x x x x x x x x x z z c P x x x x x x x x x x x x g + * ] #.4.#.#.O..X.X.X+...} F x x x x x x x x x x x x x x x x x x x x x x x ",
"x x x x x x x x x x x c z z x x x x x x x x x x x g + & _ { { { { X.O.O.X.{ ' Q n x x x x x x x x x x x x x x x x x x x x x x x ",
"x x x x x x x x x x x z z x x x x x x x x x x x x g + & _ { { { { { { { { { 0 4 f x x x x x x x x x x x x x x x x x x x x x x x ",
"x x x x x x x x x x x x x x x x x x x x x x x x x k i - , , 0 &.&.&.&.q 0 0 e r.u.x x x x x x x x x x x x x x x x x x x x x x x ",
"x x x x x x x x x x x x x x x x x x x x x x x x x x x a O X 5 y.l.l.f.w.5 5 r.f.h.x x x x x x x x x x x x x x x x x x x x x x x ",
"x x x x x x x x x x x x x x x x x x x x x x x x x k s 3 3 5 y.z.G.G.c.e.w.y.p.&.v u g x x x x x x x x x x x x x x x x x x x x x ",
"x x x x x x x x x x x x x x x x x x x x x x x x x g + X 4 t.j.G.W.W.E.p.r g.&.} % * s h x x x x x x x x x x x x x x x x x x x x ",
"x x x x x x x x x x x x x x x x x x x x x x x x x g + X 4 t.j.G.W.W.E.&.] %.| } _ , * u h x x x x x x x x x x x x x x x x x x x ",
"x x x x x x x x x x x x x x x x x x x x x x x x x g - * B S b.Y.(.(.T.4...{ ` T T % $ + g x x x x x x x x x x x x x x x x x x x ",
"x x x x x x x x x x x x x x x x x x x x x x x x x H [  .O.P.P.=XiXiX=XoXo.{ % $ $     + J c x x x x x x x x x x x x x x x x x x ",
"x x x x x x x x x x x x x x x x x x x x x x x x x H [ ...XoX%X:X>X>X:X&XoXo.} & - @ t i z x x x x x x x x x x x x x x x x x x x ",
"x x x x x x x x x x x x x x x x x x x x x x x x x H [ ...X%X>X>X>X>X>X>X;XXXo.} F x P P x x x x x x x x x x x x x x x x x x x x ",
"x x x x x x x x x x x x x x x x x x x x x x x x i t < % '  .6.6.6.6.6.6.+. .' % m c I z z x x x x x x x x x x x x x x x x x x x ",
"x x x x x x x x x x x x x x x x x x x x x x x x u o o o o o o o o o o o o o o o i z k z x x x x x x x x x x x x x x x x x x x x ",
"x x x x x x x x x x x x x x x x x x x x x x x x g i i i i i i i i i i i i i i i g x x x x x x x x x x x x x x x x x x x x x x x ",
"x x x x x x x x x x x x x x x x x x x x x x x x x x x x x x x x x x x x x x x x x x x x x x x x x x x x x x x x x x x x x x x x ",
"x x x x x x x x x x x x x x x x x x x x x x x x x x x x x x x x x x x x x x x x x x x x x x x x x x x x x x x x x x x x x x x x "
};
