/* XPM */
static const char *UF9SaWdodF8y[] = {
/* columns rows colors chars-per-pixel */
"64 64 229 2 ",
"   c #191919",
".  c #211C1B",
"X  c #331C18",
"o  c #1F2018",
"O  c #222318",
"+  c #2A281A",
"@  c #37251D",
"#  c #323219",
"$  c #3D3E19",
"%  c #201D23",
"&  c #192225",
"*  c #1C2A2B",
"=  c #1D343A",
"-  c #1C2E34",
";  c #282725",
":  c #372A23",
">  c #2A2639",
",  c #352C3C",
"<  c #25383B",
"1  c #393638",
"2  c #353429",
"3  c #49251C",
"4  c #5C291A",
"5  c #54291E",
"6  c #41361F",
"7  c #6D2B1B",
"8  c #602818",
"9  c #702A19",
"0  c #683718",
"q  c #482927",
"w  c #572E27",
"e  c #49332A",
"r  c #58362A",
"t  c #433C36",
"y  c #553938",
"u  c #602D23",
"i  c #67392A",
"p  c #713B2F",
"a  c #3E401A",
"s  c #494B1A",
"d  c #45461A",
"f  c #4F511C",
"g  c #53551A",
"h  c #5A5C1B",
"j  c #575B1A",
"k  c #57411C",
"l  c #665619",
"z  c #71581A",
"x  c #64491B",
"c  c #63651B",
"v  c #6A6C1C",
"b  c #666A19",
"n  c #6D721B",
"m  c #72751B",
"M  c #76791F",
"N  c #726A1A",
"B  c #4B4A2C",
"V  c #584E28",
"C  c #5C5B26",
"Z  c #565428",
"A  c #494635",
"S  c #5B5B39",
"D  c #5D4031",
"F  c #7E5D2C",
"G  c #6B4434",
"H  c #784A39",
"J  c #704F2D",
"K  c #5C6628",
"L  c #566833",
"P  c #676A21",
"I  c #696A22",
"U  c #646425",
"Y  c #7A6527",
"T  c #6C7424",
"R  c #777A20",
"E  c #797C22",
"W  c #707527",
"Q  c #657A39",
"!  c #646432",
"~  c #1E3B47",
"^  c #322C45",
"/  c #352E4A",
"(  c #383648",
")  c #3B3552",
"_  c #3E3852",
"`  c #2B3142",
"'  c #463848",
"]  c #433D5D",
"[  c #463A54",
"{  c #402F40",
"}  c #633E48",
"|  c #453F60",
" . c #1F4352",
".. c #1F404D",
"X. c #274846",
"o. c #35454B",
"O. c #28514D",
"+. c #204858",
"@. c #254854",
"#. c #395253",
"$. c #315251",
"%. c #295A63",
"&. c #2A636A",
"*. c #327174",
"=. c #336059",
"-. c #584A46",
";. c #585748",
":. c #45455C",
">. c #574456",
",. c #4A5655",
"<. c #4F5650",
"1. c #73504A",
"2. c #4E6658",
"3. c #76644D",
"4. c #7A685A",
"5. c #68714E",
"6. c #494564",
"7. c #4C4C6A",
"8. c #474664",
"9. c #56566A",
"0. c #525874",
"q. c #515165",
"w. c #58647B",
"e. c #4E6F65",
"r. c #6A6F6F",
"t. c #8D371B",
"y. c #A03F1D",
"u. c #963822",
"i. c #873A27",
"p. c #A53E29",
"a. c #A3411E",
"s. c #8A533A",
"d. c #855536",
"f. c #8D4C2F",
"g. c #B74D35",
"h. c #B4512D",
"j. c #A46536",
"k. c #C74B32",
"l. c #C4512E",
"z. c #D1612D",
"x. c #DB6832",
"c. c #D5693A",
"v. c #865644",
"b. c #955A43",
"n. c #815851",
"m. c #A65A46",
"M. c #976349",
"N. c #956455",
"B. c #88615D",
"V. c #A46A4B",
"C. c #B87957",
"Z. c #AB7055",
"A. c #A87964",
"S. c #BD7D61",
"D. c #947169",
"F. c #CE7346",
"G. c #E07843",
"H. c #7E8125",
"J. c #38827C",
"K. c #498977",
"L. c #6A8277",
"P. c #5B8046",
"I. c #BB815D",
"U. c #BA9978",
"Y. c #B48B67",
"T. c #C9845D",
"R. c #DF8D4B",
"E. c #D38D64",
"W. c #D89E74",
"Q. c #CF916A",
"!. c #D7A477",
"~. c #E3A97A",
"^. c #E98F4C",
"/. c #3C7A88",
"(. c #5B6681",
"). c #5E6B84",
"_. c #636D85",
"`. c #62748C",
"'. c #6B7489",
"]. c #657991",
"[. c #717A90",
"{. c #388984",
"}. c #3A928B",
"|. c #3F9591",
" X c #458695",
".X c #439998",
"XX c #588E8B",
"oX c #73889B",
"OX c #6D8197",
"+X c #47A19E",
"@X c #7B8DA1",
"#X c #7D91A4",
"$X c #51ABAC",
"%X c #5BB4BA",
"&X c #4DA7A7",
"*X c #69A8AC",
"=X c #499EA0",
"-X c #61BEC5",
";X c #5DB8C0",
":X c #65C2CB",
">X c #6BC9D4",
",X c #75D4E4",
"<X c #849194",
"1X c #84A88E",
"2X c #869AAA",
"3X c #808CA0",
"4X c #96ABB8",
"5X c #9CB1BD",
"6X c #8FA4B3",
"7X c #ACB7BC",
"8X c #B1BABE",
"9X c #A78C83",
"0X c #DEB887",
"qX c #DBAD90",
"wX c #E9B583",
"eX c #ECBB87",
"rX c #E2B89B",
"tX c #F1C38E",
"yX c #F5CC95",
"uX c #F4CC96",
"iX c #F8D098",
"pX c #EAC591",
"aX c #9FB5C1",
"sX c #A6BBC5",
"dX c #A9BEC8",
"fX c #ACBBC2",
"gX c #ADC3CC",
"hX c #F1E9DA",
"jX c #E1D1C0",
/* pixels */
"m m m m m m m m m m m m m m m m m m m m m m m m m m m m m m m m m m m m m m m m m m m m m m m m m m m m m m m m m m m m m m m m ",
"m m m m m m m m m m m m m m m m m m m m m m m m m m m m m m m m m m m m m m m m m m m m m m m m m m m m m m m m m m m m m m m m ",
"m m m m m m m m m m m m m m m m m m m m m T ! S S S S 5.5.5.5.W m m m m m m m m m m m m m m m m m m m m m m m m m m m m m m m m ",
"m m m m m m m m m m m m m m m m m m m m m I <.| 6.6.6.w.].].r.Q m m m m m m m m m m m m m m m m m m m m m m m m m m m m m m m m ",
"m m m m m m m m m m m m m m m m m m m m C A :.8.0.'.3X2X6X6X2XL.5.;.! m m m m m m m m m m m m m m m m m m m m m m m m m m m m m ",
"m m m m m m m m m m m m m m m m m m m m A ^ ) 8.(.@XaXdXgXgXsX#X_.7.;.I n m m m m m m m m m m m m m m m m m m m m m m m m m m m ",
"m m m m m m m m m m m m m m m m m m m m A > ^ ) 8.).oX4XgXgXdX5X2X_.9.<.! m m E M m m m m m m m m m m m m m m m m m m m m m m m ",
"m m m m m m m m m m m m m m m m m m m m Z t t 1 _ 7.w.@X5XsXgXgX5X#X_.7.;.U v M R m m m m m m m m m m m m m m m m m m m m m m m ",
"m m m m m m m m m m m m m m m m m m m m v v P Z 1 ) 8.(.oX4XgXgXdXsX2X).:.t U n n m m m m m m m m m m m m m m m m m m m m m m m ",
"m m m m m m m m m m m m m m m m m m m m m n C A ( ] 0.[.2XaXgXgXsX6X@X`.7.( V l l c E H.E m m m m m m m m m m m m m m m m m m m ",
"m m m m m m m m m m m m m m m m m m m m m v t ^ ] 0.`.2XgXgXgXgX4XOX].`.0.[ w 4 4 x R E M m m m m m m m m m m m m m m m m m m m ",
"m m m m m m m m m m m m m m m m m m m m m P t ^ ] 0.`.oX2X2X2X2X<XA.N.n.1.p p 7 q e A B B B Z v m m m m m m m m m m m m m m m m ",
"m m m m m m m m m m m m m m m m m m m m m P t ^ [ q._._.'.'.'.'.D.c.l.y.u.u.u.p { ^ ^ ^ ^ ^ 1 U m m m m m m m m m m m m m m m m ",
"m m m m m m m m m m m m m m m m m m m m m v r q w y D 1.v.v.b.V.F.x.z.l.s.} } >.9.0.0.8.) ^ 1 U m m m m m m m m m m m m m m m m ",
"m m m m m m m m m m m m m m m m m m m m I C r 5 4 8 7 t.y.a.h.z.x.x.c.C.4.7.0._.OXOX].0.] / 1 U m m m m m m m m m m m m m m m m ",
"m m m m m m m m m m m m m m m m m m m m Z 1 , q 5 7 t.t.y.h.z.x.x.x.Z.r._.'.2X4X5X2X].0.] / 1 U m m m m m m m m m m m m m m m m ",
"m m m m m m m m m m m m m m m m v C C Z t / / ' } 1.N.Z.Z.S.E.E.E.E.9X#X#X2XaXsX4X@X(.7.) t B I m m m m m m m m m m m m m m m m ",
"m m m m m m m m m m m m m m m m C 1 , , ) ] ] 7.w.3X7X7X7X8X8X8X8X8XfXsXsXsXgX5XoX(.8.) , Z v m m m m m m m m m m m m m m m m m ",
"m m m m m m m m m m m m m m m m C , ^ ) ] 6.0.w.`.oX2X5XgXgXgXgXgXgXgXgX4X2X3X[.w.7.) A B P m m m m m m m m m m m m m m m m m m ",
"m m m m m m m m m m m m m m m m C , ) ] ] 8.(.`.`.`.`.2XdXdXdXdXdXdXdXsX#X).7.| 6.) , Z m m m m m m m m m m m m m m m m m m m m ",
"m m m m m m m m m m m m m m m m I Z A / / ) o.:.:.:.:.9.w.w.w.'.'.'.'.'.0.:.) >.B.n.G U m m m m m m m m m m m m m m m m m m m m ",
"m m m m m m m m m m m m m m m m m m Z 1 1 1 > > , , > ( ' ' ' q.9.q.>.>.' , { 1.C.Z.H Y m m m m m m m m m m m m m m m m m m m m ",
"m m m m m m m m m m m m m m m m m m I C C Z : : i e % 3.U.A.A.U.U.A.N.1.H H M.Z.T.M.: g m m m m m m m m m m m m m m m m m m m m ",
"m m m m m m m m m m m m m m m m m m m m m b d 6 i e   n.!.!.~.tXwXE.I.A.v.H I.W.E.v.  s m m m m m m m m m m m m m m m m m m m m ",
"m m m m m m m m m m m m m m m m m m m m m m b g @ .   D V.!.tXyXwXE.qXjX4.e U.wXE.v.  s m m m m m m m m m m m m m m m m m m m m ",
"m m m m m m m m m m m m m m m m m m m m m m m h +     : G Y.eXyXwXE.rXhXr.2 U.tX~.Z.e C m m m m m m m m m m m m m m m m m m m m ",
"m m m m m m m m m m m m m m m m m m m m m m m h +       ; M.W.tXwXE.rXhXr.2 U.iXyXQ.s.Y m m m m m m m m m m m m m m m m m m m m ",
"m m m m m m m m m m m m m m m m m m m m m m m b f #     O H C.W.W.E.W.rXU.Y.0XiXiXQ.s.Y m m m m m m m m m m m m m m m m m m m m ",
"m m m m m m m m m m m m m m m m m m m m m m m m m g O   . r s.C.T.T.T.E.wXiXiXyXyXQ.s.Y m m m m m m m m m m m m m m m m m m m m ",
"m m m m m m m m m m m m m m m m m m m m m m m m m b g #   @ r s.V.V.C.E.wXiXiXtX~.I.s.Y m m m m m m m m m m m m m m m m m m m m ",
"m m m m m m m m m m m m m m m m m m m m m m m m m N N k 3 @ q i G G b.F.W.0X0X!.T.V.d.Y m m m m m m m m m m m m m m m m m m m m ",
"m m m m m m m m m m m m m m m m m m m m m m m m m z 0 i.p.p.i.q @ @ i b.M.V.V.M.b.d.Y m m m m m m m m m m m m m m m m m m m m m ",
"m m m m m m m m m m m m m m m m m m m m m m m m m z 9 u.k.z.g.H r w i H p G J F d.Y m m m m m R H.M m m m m m m m m m m m m m m ",
"m m m m m m m m m m m m m m m m m m m m m m m m m z 9 u.k.G.^.R.F.g.u.9 3 + h m m m m m m m m m E E R m m m E H.M m m m m m m m ",
"m m m m m m m m m m m m m m m m m m m m m m m W P.5.;.H p.h.z.c.c.c.g.u.3 + h m m m m m m m m m n m R m m M H.M m m m m m m m m ",
"m m m m m m m m m m m m m m m m m m m m m m m Q K.}.}.<.7 7 i.p.c.^.G.k.u + j m m m m m m m m m m n b n M R R m m m m m m m m m ",
"m m m m m m m m m m m m m m m m m m m m m m m Q K.+X%XXX2.<.y i.a.h.a.u.7 3 A L T m m m m m m m m m m m M R n n m m m m m m m m ",
"m m m m m m m m m m m m m m m m m m m m m m m Q J.$X,X%X.X&.` w u i p G i w o.$.I m m m m m m m m m m m n b n m m m m m m m m m ",
"m m m m m m m m m m m m m m m m m m m m m m m L =..X,X>X%X=.> ( #.e.XX*Xe.o.@.#.J Y m m m m m m m m m m m m m m m m m m m m m m ",
"m m m m m m m m m m m m E M m m m m m m m m m K O./.:X:X%X$.& ~ &.{.%X,X X@.o.-.H F m m m m m m m m m m m m m m m m m m m m m m ",
"m m m m m m m m m m m m M R m m m m m m m m m K O.*..X.X}.X.& ~ &.{.%X,X X$.-.H s.F m m m m m m m m m m m m m m m m m m m m m m ",
"m m m m m m m m R H.E M n n m m m m m m m m m K < 2.1X1X1X;.2 < O.{.XXoX,.< G s.s.F m m m m m m m m m m m m m m m m m m m m m m ",
"m m m m m m m m m R E R n b n E H.E m m m m m h + 3.pXuXpXZ.G : X.J.2.7 @ + G s.s.F m m m m m m m m m m m m m m m m m m m m m m ",
"m m m m m m M E R n m R m n m R E M m m m m m h + 3.uXeX!.V.H 5 r 4.b.u.5 . : e e V m m m m m m m m m m m m m m m m m m m m m m ",
"m m m m m m m M E R n n m M R R m m m m m m m h + 3.0X!.C.M.H p i.g.g.g.w         d m m m m m m m m m m m m m m m m m m m m m m ",
"m m m m m m m n n R m n b n M n n m m m m m m j + 1 r.r.2.<.,.2.e.r.r.r.#.= & + s c m m m m m m m m m m m m m m m m m m m m m m ",
"m m m m m m m m n n m m n v v n m m m m m m m h @ ; ( @.+.+.%.J.}..X+X.X*.+.* # c m m m m m m m m m m m m m m m m m m m m m m m ",
"m m m m m m m m m n n M R m m m m m m m m m m z 4 4 w ( +.+.%.J.+X:X>X>X=X*.< # c m m m m m m m m m m m m m m m m m m m m m m m ",
"m m m m m m m m m m m M n n m m m m m m m n K Z y u 7 e ~ ( o.&..X;X-X-X.X&.- # c m m m m m m m m m m m m m m m m m m m m m m m ",
"m m m m m m m m m m m n n m m m m m m m m I #.@.@.t 7 3 . 3 r o.&.}.|.|.*.@.* # c m m m m m m m m m m m m m m m m m m m m m m m ",
"m m m m m m m m m m m m m m m m m m m m h B X.+.+.1 3 1 O.,.;.1.1.4.4.4.-.1 ; # c m m m m m m m m m m m m m m m m m m m m m m m ",
"m m m m m m m m m m m m m m m m m m m n $ & ~ +.+.=   O.}.}.K.m.k.k.k.k.u.8 X # c m m m m m m m m m m m m m m m m m m m m m m m ",
"m m m m m m m m m m m m m m m m m m m n $ & ~ +.+.=   O.}.$X*XL.N.k.p.u.4 X . # c m m m m m m m m m m m m m m m m m m m m m m m ",
"m m m m m m m m m m m m m m m m m m m n d ; <  .+.~ & O.J.%X:X&XL.m.f.u @   O $ b m m m m m m m m m m m m m m m m m m m m m m m ",
"m m m m m m m m m m m m m m m m m m m m c f 2 -  . .~ = X.J.$X-X*XL.,.( ; O d c n m m m m m m m m m m m m m m m m m m m m m m m ",
"m m m m m m m m m m m m m m m m m m m m m b d 2 < ..+.~ - O.J.%X%X&X{.%.= + h m m m m m m m m m m m m m m m m m m m m m m m m m ",
"m m m m m m m m m m m m m m m m m m m m m m b f ; = +. .~ = X.J.$X>X$XJ.X.+ K R m m m E H.M m m m m m m m m m m m m m m m m m m ",
"m m m m m m m m m m m m m m m m m m m m h s s a O & = = = & * O.*.%X&X{.X.O a h n m M H.M m m m m m m m m m m m m m m m m m m m ",
"m m m m m m m m m m m m m m m m m m m n $                       X.{.}.{.X.    # c M R R m m m m m m m m m m m m m m m m m m m m ",
"m m m m m m m m m m m m m m m m m m m m h s s s s s s #         * O.O.O.*     + $ d d j n m m m m m m m m m m m m m m m m m m m ",
"m m m m m m m m m m m m m m m m m m m m m m m m m m m d O O O O O O O O O O o O O O o s m m m m m m m m m m m m m m m m m m m m ",
"m m m m m m m m m m m m m m m m m m m m m m m m m m m c g g g g g g g g g g g g g g g c m m m m m m m m m m m m m m m m m m m m ",
"m m m m m m m m m m m m m m m m m m m m m m m m m m m m m m m m m m m m m m m m m m m m m m m m m m m m m m m m m m m m m m m m ",
"m m m m m m m m m m m m m m m m m m m m m m m m m m m m m m m m m m m m m m m m m m m m m m m m m m m m m m m m m m m m m m m m "
};
