/* XPM */
static const char *UF9SaWdodF8x[] = {
/* columns rows colors chars-per-pixel */
"64 64 226 2 ",
"   c #1A1A19",
".  c #221C19",
"X  c #291B18",
"o  c #381E18",
"O  c #242518",
"+  c #2C2B19",
"@  c #2B261C",
"#  c #38251B",
"$  c #323319",
"%  c #373819",
"&  c #3C3D19",
"*  c #3F331F",
"=  c #191F22",
"-  c #1B2629",
";  c #1C2E34",
":  c #1E3337",
">  c #1F302F",
",  c #282729",
"<  c #352924",
"1  c #36362A",
"2  c #2C273C",
"3  c #392A38",
"4  c #253737",
"5  c #3B3739",
"6  c #27352D",
"7  c #41231C",
"8  c #562619",
"9  c #573018",
"0  c #6D2B1B",
"q  c #652919",
"w  c #722D1E",
"e  c #773219",
"r  c #492B26",
"t  c #542B22",
"y  c #473127",
"u  c #59382B",
"i  c #493938",
"p  c #583A38",
"a  c #402832",
"s  c #693729",
"d  c #6E3628",
"f  c #3F401C",
"g  c #314632",
"h  c #41431B",
"j  c #494B1A",
"k  c #48401E",
"l  c #4E501A",
"z  c #53541A",
"x  c #5A5C1A",
"c  c #57591A",
"v  c #574819",
"b  c #68581C",
"n  c #745D1B",
"m  c #714A19",
"M  c #666A1A",
"N  c #6A6D1C",
"B  c #63671A",
"V  c #736C1D",
"C  c #6E721B",
"Z  c #72751B",
"A  c #76791F",
"S  c #4A492A",
"D  c #544D29",
"F  c #53522B",
"G  c #5B5927",
"H  c #454132",
"J  c #4A4531",
"K  c #4A4636",
"L  c #5C5A3A",
"P  c #515233",
"I  c #7F5F2C",
"U  c #7A572E",
"Y  c #684931",
"T  c #74483B",
"R  c #6C4C2F",
"E  c #566431",
"W  c #546130",
"Q  c #656623",
"!  c #746F20",
"~  c #7A6726",
"^  c #767A20",
"/  c #797C22",
"(  c #717321",
")  c #6A6C30",
"_  c #5E601A",
"`  c #1E3B47",
"'  c #322C46",
"]  c #362F48",
"[  c #3A3647",
"{  c #3B3452",
"}  c #3C3953",
"|  c #3F3C58",
" . c #2E2741",
".. c #443744",
"X. c #423D5B",
"o. c #503942",
"O. c #613F4B",
"+. c #453F60",
"@. c #1F4452",
"#. c #1F414E",
"$. c #274648",
"%. c #204656",
"&. c #204959",
"*. c #2A4A52",
"=. c #2A5957",
"-. c #354A52",
";. c #325F68",
":. c #275C64",
">. c #2A6569",
",. c #31766F",
"<. c #327878",
"1. c #326E6E",
"2. c #2C625D",
"3. c #594846",
"4. c #464558",
"5. c #504F4F",
"6. c #674845",
"7. c #655458",
"8. c #7A5B56",
"9. c #775245",
"0. c #526356",
"q. c #76685B",
"w. c #6A6E50",
"e. c #464262",
"r. c #4C4D6B",
"t. c #494664",
"y. c #515673",
"u. c #535B76",
"i. c #585D78",
"p. c #55556A",
"a. c #6F5D64",
"s. c #57627B",
"d. c #506E65",
"f. c #76666D",
"g. c #89361C",
"h. c #893A23",
"j. c #973824",
"k. c #A13D26",
"l. c #A1401D",
"z. c #864736",
"x. c #825A30",
"c. c #89523A",
"v. c #87523B",
"b. c #91482D",
"n. c #AA4924",
"m. c #B3452A",
"M. c #B1522F",
"N. c #B66739",
"B. c #C54A31",
"V. c #CA5630",
"C. c #D06736",
"Z. c #895744",
"A. c #945C42",
"S. c #844E42",
"D. c #936652",
"F. c #A96C4D",
"G. c #AA7452",
"H. c #B57554",
"J. c #AE6D50",
"K. c #AC7962",
"L. c #867374",
"P. c #CF7342",
"I. c #E37E46",
"U. c #7E8125",
"Y. c #34837E",
"T. c #47867D",
"R. c #658B77",
"E. c #B3845A",
"W. c #938C6E",
"Q. c #B18B6D",
"!. c #CA845E",
"~. c #D38C51",
"^. c #E78A4A",
"/. c #EE944E",
"(. c #ED9852",
"). c #CA8864",
"_. c #D08961",
"`. c #C89269",
"'. c #D59970",
"]. c #D3AB7E",
"[. c #5D6C85",
"{. c #5C6A85",
"}. c #62748C",
"|. c #687589",
" X c #697B92",
".X c #6B758B",
"XX c #398A84",
"oX c #3A928B",
"OX c #3E9791",
"+X c #438C87",
"@X c #429B97",
"#X c #51948F",
"$X c #6C8197",
"%X c #76879C",
"&X c #778F90",
"*X c #4F9CA5",
"=X c #798DA1",
"-X c #7594A3",
";X c #4EA6A7",
":X c #5BB5BB",
">X c #58AFB6",
",X c #5EBBC1",
"<X c #62BEC6",
"1X c #66C4CD",
"2X c #71D0DD",
"3X c #76D6E6",
"4X c #8B8C8E",
"5X c #899EAE",
"6X c #8498A9",
"7X c #8EA2B2",
"8X c #95A9B7",
"9X c #9DB2BF",
"0X c #A9B6BB",
"qX c #B1BABE",
"wX c #DAAB88",
"eX c #CFBB91",
"rX c #E7B886",
"tX c #E1B496",
"yX c #C79980",
"uX c #F0C28D",
"iX c #E2CEBC",
"pX c #9FB4C1",
"aX c #A9BFC9",
"sX c #A5B9C3",
"dX c #ACC2CB",
"fX c #F4E6D4",
/* pixels */
"Z Z Z Z Z Z Z Z Z Z Z Z Z Z Z Z Z Z Z Z Z Z Z Z Z Z Z Z Z Z Z Z Z Z Z Z Z Z Z Z Z Z Z Z Z Z Z Z Z Z Z Z Z Z Z Z Z Z Z Z Z Z Z Z ",
"Z Z Z Z Z Z Z Z Z Z Z Z Z Z Z Z Z Z Z Z Z Z Z Z Z Z Z Z Z Z Z Z Z Z Z Z Z Z Z Z Z Z Z Z Z Z Z Z Z Z Z Z Z Z Z Z Z Z Z Z Z Z Z Z ",
"Z Z Z Z Z Z Z Z Z Z Z Z Z Z Z Z Z Z Z Z Z Z Z Z Z Z Z Z Z Z Z Z Z Z Z Z Z Z Z Z Z Z Z Z Z Z Z Z Z Z Z Z Z Z Z Z Z Z Z Z Z Z Z Z ",
"Z Z Z Z Z Z Z Z Z Z Z Z Z Z Z Z Z Z Z Z Z Q F L L L L L w.w.) Z Z Z Z Z Z Z Z Z Z Z Z Z Z Z Z Z Z Z Z Z Z Z Z Z Z Z Z Z Z Z Z Z ",
"Z Z Z Z Z Z Z Z Z Z Z Z Z Z Z Z Z Z Z Z Z F 2 { +.e.e.e.u.}.w.Z Z Z Z Z Z Z Z Z Z Z Z Z Z Z Z Z Z Z Z Z Z Z Z Z Z Z Z Z Z Z Z Z ",
"Z Z Z Z Z Z Z Z Z Z Z Z Z Z Z Z Z Z Z Z Z F 2 { t.y.[.%X6X7X&Xw.0.L ( Z Z Z Z Z Z Z Z Z Z Z Z Z Z Z Z Z Z Z Z Z Z Z Z Z Z Z Z Z ",
"Z Z Z Z Z Z Z Z Z Z Z Z Z Z Z Z Z Z Z Z Z F 5 { e.{.=XsXdXdX7X Xi.5.) ( Z Z Z / A Z Z Z Z Z Z Z Z Z Z Z Z Z Z Z Z Z Z Z Z Z Z Z ",
"Z Z Z Z Z Z Z Z Z Z Z Z Z Z Z Z Z Z Z Z Z Q G H } s.=XsXdXdXsX8X Xs.5.L ( Z Z A ^ Z Z Z Z Z Z Z Z Z Z Z Z Z Z Z Z Z Z Z Z Z Z Z ",
"Z Z Z Z Z Z Z Z Z Z Z Z Z Z Z Z Z Z Z Z Z Z Z J ] y. X7XsXdXdXaX5X Xu.5.) ( A C C Z Z Z Z Z Z Z Z Z Z Z Z Z Z Z Z Z Z Z Z Z Z Z ",
"Z Z Z Z Z Z Z Z Z Z Z Z Z Z Z Z Z Z Z Z Z Z Z J ' X.u. X5XdXdXdXsX8X Xp.[ F / C M C / U./ Z Z Z Z Z Z Z Z Z Z Z Z Z Z Z Z Z Z Z ",
"Z Z Z Z Z Z Z Z Z Z Z Z Z Z Z Z Z Z Z Z Z Z Z J ' t.{.=X8XdXdXdX9X6X$Xu.{ K b b b G G G Q Z Z Z Z Z Z Z Z Z Z Z Z Z Z Z Z Z Z Z ",
"Z Z Z Z Z Z Z Z Z Z Z Z Z Z Z Z Z Z Z Z Z Z Z J ] u.%XpXdXdXdXsX=X}.}.s.e.i 9 9 8 3 2 2 J Z Z Z Z Z Z Z Z Z Z Z Z Z Z Z Z Z Z Z ",
"Z Z Z Z Z Z Z Z Z Z Z Z Z Z Z Z Z Z Z Z Z Q J ..X.s.$X6X6X6X6X6X}.p.8.9.T d e t a ] { { ..J Q Z Z Z Z Z Z Z Z Z Z Z Z Z Z Z Z Z ",
"Z Z Z Z Z Z Z Z Z Z Z Z Z Z Z Z Z Z Z Z Z F 2 { 4.s.[.|.|.|.|.[.p.O.b.l.l.j.j.p ] X.e.e.{ 2 F Z Z Z Z Z Z Z Z Z Z Z Z Z Z Z Z Z ",
"Z Z Z Z Z Z Z Z Z Z Z Z Z Z Z Z Z Z Z Z Z G r r p p 6.S.9.3.9.S.z.b.M.V.V.b.O.p.u.s.u.t.{ 2 F Z Z Z Z Z Z Z Z Z Z Z Z Z Z Z Z Z ",
"Z Z Z Z Z Z Z Z Z Z Z Z Z Z Z Z Q Q Q Q Q D t 8 8 q e g.e 0 g.n.n.m.C.C.P.D.i..X%X X{.t.{ 2 F Z Z Z Z Z Z Z Z Z Z Z Z Z Z Z Z Z ",
"Z Z Z Z Z Z Z Z Z Z Z Z Z Z Z N S 5 5 5 5 3 3 r q e g.0 e g.n.V.V.C.C.J.L.4X8X9X8X%X{.t.{ 2 F Z Z Z Z Z Z Z Z Z Z Z Z Z Z Z Z Z ",
"Z Z Z Z Z Z Z Z Z Z Z Z Z Z Z N H  .' { | -.4.7.8.D.D.8.D.G.K.).).).).Q.6X8XdXpX5X.Xy.X.[ H G Z Z Z Z Z Z Z Z Z Z Z Z Z Z Z Z Z ",
"Z Z Z Z Z Z Z Z Z Z Z Z Z Z Z N H ' } r.{.[.}.6X0X0X0X0X0X0XqXqXqXqXqXsXsXaXdX6X}.y.X.' J M C Z Z Z Z Z Z Z Z Z Z Z Z Z Z Z Z Z ",
"Z Z Z Z Z Z Z Z Z Z Z Z Z Z Z N H ' X.r.u.{.}.=X5X5X8XaXdXdXdXdXdXdXdXdXdX9X5X.Xy.X.[ J G Z Z Z Z Z Z Z Z Z Z Z Z Z Z Z Z Z Z Z ",
"Z Z Z Z Z Z Z Z Z Z Z Z Z Z Z N H ' | X.X.u.}.}.}.}.=XpXdXdXdXdXdXdXaXaXaX5X}.y.X.] i Q Z Z Z Z Z Z Z Z Z Z Z Z Z Z Z Z Z Z Z Z ",
"Z Z Z Z Z Z Z Z Z Z Z Z Z Z Z C G P [ { X.r.y.y.u.[.$X=X6X6X6X6X6X=X X.X.Xi.4.} [ p Y ! Z Z Z Z Z Z Z Z Z Z Z Z Z Z Z Z Z Z Z Z ",
"Z Z Z Z Z Z Z Z Z Z Z Z Z Z Z Z Z Q H [ } } } X.e.u.{.[.[.[.[.[.[.s.e.X.4...3 ..o.T x.! Z Z Z Z Z Z Z Z Z Z Z Z Z Z Z Z Z Z Z Z ",
"Z Z Z Z Z Z Z Z Z Z Z Z Z Z Z Z Z C Q S , , , 2 ] } 4.r.r.r.r.r.4.} ] ..6.T T Z.D.A.x.! Z Z Z Z Z Z Z Z Z Z Z Z Z Z Z Z Z Z Z Z ",
"Z Z Z Z Z Z Z Z Z Z Z Z Z Z Z Z Z Z Z x % $ $ , 2 3 ..[ 4.7.a.f.a.7.3.8.K.D.Y G.`.F.x.! Z Z Z Z Z Z Z Z Z Z Z Z Z Z Z Z Z Z Z Z ",
"Z Z Z Z Z Z Z Z Z Z Z Z Z Z Z Z Z Z Z C M B B % , p p , Y H.'.tXeXwXE.yXiXW.< E.rXG.x.! Z Z Z Z Z Z Z Z Z Z Z Z Z Z Z Z Z Z Z Z ",
"Z Z Z Z Z Z Z Z Z Z Z Z Z Z Z Z Z Z Z Z Z Z C & . y y . u J.`.rXuXuX'.wXfX4X  W.rXG.x.! Z Z Z Z Z Z Z Z Z Z Z Z Z Z Z Z Z Z Z Z ",
"Z Z Z Z Z Z Z Z Z Z Z Z Z Z Z Z Z Z Z Z Z Z C &         y c.J.'.rXuX'.wXfX4X. W.rXG.x.! Z Z Z Z Z Z Z Z Z Z Z Z Z Z Z Z Z Z Z Z ",
"Z Z Z Z Z Z Z Z Z Z Z Z Z Z Z Z Z Z Z Z Z Z Z x f O     @ y T F.E.).).'.tXQ.9.E.'.F.x.! Z Z Z Z Z Z Z Z Z Z Z Z Z Z Z Z Z Z Z Z ",
"Z Z Z Z Z Z Z Z Z Z Z Z Z Z Z Z Z Z Z Z Z Z Z Z B % . . . . u z.z.c.J.!.!._._.!.H.A.U V Z Z Z Z Z Z Z Z Z Z Z Z Z Z Z Z Z Z Z Z ",
"Z Z Z Z Z Z Z Z Z Z Z Z Z Z Z Z Z Z Z Z Z Z Z Z N x v 8 8 8 q d t y u Z.!._.!.H.A.u y M Z Z Z Z Z Z Z Z Z Z Z Z Z Z Z Z Z Z Z Z ",
"Z Z Z Z Z Z Z Z Z Z Z Z Z Z Z Z Z Z Z Z Z Z Z Z Z Z n e w g.h.h.s y 7 s J.J.F.v.Y * f M Z Z Z Z Z Z Z Z Z Z Z Z Z Z Z Z Z Z Z Z ",
"Z Z Z Z Z Z Z Z Z Z Z Z Z Z Z Z Z Z Z Z Z Z Z Z Z Z n e h.m.C.P.P.N.M.j.h.s y < $ z B Z Z Z Z ^ U.A Z Z Z Z Z Z Z Z Z Z Z Z Z Z ",
"Z Z Z Z Z Z Z Z Z Z Z Z Z Z Z Z Z Z Z Z Z Z Z Z C x v 0 j.B.C.I./.^.P.M.j.q o . O x Z Z Z Z Z Z / / ^ Z Z Z / U.A Z Z Z Z Z Z Z ",
"Z Z Z Z Z Z Z Z Z Z Z Z Z Z Z Z Z Z Z Z Z Z Z Z M % # q j.B.B.V.^././.I.B.j.q o O x Z Z Z Z Z Z C Z ^ Z Z A U.A Z Z Z Z Z Z Z Z ",
"Z Z Z Z Z Z Z Z Z Z Z Z Z Z Z Z Z Z Z Z Z Z Z x h 6 , 7 0 j.j.k.M.N.N.M.k.d i , O x Z Z Z Z Z Z Z C M C A ^ ^ Z Z Z Z Z Z Z Z Z ",
"Z Z Z Z Z Z Z Z Z Z Z Z Z Z Z Z Z Z Z Z Z Z Z & - ` ` = # 0 0 0 0 0 0 0 w i &.; @ x Z Z Z Z Z Z Z Z Z Z A ^ C C Z Z Z Z Z Z Z Z ",
"Z Z Z Z Z Z Z Z Z Z Z Z Z Z Z Z Z Z Z Z Z ~ I R p $.` = 6 0.0.0.5.5.|.&X&X-X*X;.4 Y I I ~ Z Z Z Z Z Z Z C M C Z Z Z Z Z Z Z Z Z ",
"Z Z Z Z Z Z Z Z Z Z Z Z Z Z Z Z Z Z Z Z Z ~ c.c.T -.: = $.Y.XXXX:.;.>X2X3X3X3X+X=.8.A.c.I Z Z Z Z Z Z Z Z Z Z Z Z Z Z Z Z Z Z Z ",
"Z Z Z Z Z Z Z Z Z Z Z Z / A Z Z Z Z Z Z Z ~ c.c.T 1 -   : :.<.Y.$.$.XX:X3X3X3X;XT.Q.`.A.I Z Z Z Z Z Z Z Z Z Z Z Z Z Z Z Z Z Z Z ",
"Z Z Z Z Z Z Z Z Z Z Z Z A ^ Z Z Z Z Z Z Z ~ x.R u @     , [ ;.<.$.: =.+X<X1X1X;X#XeX].A.~ Z Z Z Z Z Z Z Z Z Z Z Z Z Z Z Z Z Z Z ",
"Z Z Z Z Z Z Z Z ^ U./ A C C Z Z Z Z Z Z Z Z V k .       # q 4.&.%.` ; *.oX@X@XoX#XeX].D.~ Z Z Z Z Z Z Z Z Z Z Z Z Z Z Z Z Z Z Z ",
"Z Z Z Z Z Z Z Z Z ^ / ^ C M C / U./ Z Z Z Z Z z & & $   1 3.6.6.6.p r 1 =.d.d.R.W.].`.T b Z Z Z Z Z Z Z Z Z Z Z Z Z Z Z Z Z Z Z ",
"Z Z Z Z Z Z A / ^ C Z ^ Z C Z ^ / A Z Z Z Z Z Z C C c O $.XXD.B.B.m.g.8 . y v.G.)._.F.< & Z Z Z Z Z Z Z Z Z Z Z Z Z Z Z Z Z Z Z ",
"Z Z Z Z Z Z Z A / ^ C C Z A ^ ^ Z Z Z Z Z Z Z Z Z Z x O : >.d.q.q.q.3.5 4 [ 5.7.q.9.Y j x Z Z Z Z Z Z Z Z Z Z Z Z Z Z Z Z Z Z Z ",
"Z Z Z Z Z Z Z C C ^ Z C M C A C C Z Z Z Z Z Z Z Z Z x + , *.1.XXXXY.:.&.&.&.&.%.` - $ B C N N N C Z Z Z Z Z Z Z Z Z Z Z Z Z Z Z ",
"Z Z Z Z Z Z Z Z C C Z Z C N N C Z Z Z Z Z Z Z Z Z Z b 9 d z.5.>.Y.XX<.<.<.>.%.: -   $ B x % % & _ Z Z Z Z Z Z Z Z Z Z Z Z Z Z Z ",
"Z Z Z Z Z Z Z Z Z C C A ^ Z Z Z Z Z Z Z Z Z Z Z Z V n b.n.V.S.4.;.,.,.,.,.=.` , X   + z h -   O z Z Z Z Z Z Z Z Z Z Z Z Z Z Z Z ",
"Z Z Z Z Z Z Z Z Z Z Z A C C Z Z Z Z Z Z Z Z Z Z V m b.C.^.^.P.b.i > > > > - - 7 8 X   + 6 ` ; O z Z Z Z Z Z Z Z Z Z Z Z Z Z Z Z ",
"Z Z Z Z Z Z Z Z Z Z Z C C Z Z Z Z Z Z Z Z Q E E E L 8.E.`.(.I.V.d X       X o 8 q < - - ` %.; O z Z Z Z Z Z Z Z Z Z Z Z Z Z Z Z ",
"Z Z Z Z Z Z Z Z Z Z Z Z Z Z Z Z Z Z Z Z Z W *.*.=.,.T.+XW.(./.^.b.8 X     o q 0 q [ @.@.%.@.; O z Z Z Z Z Z Z Z Z Z Z Z Z Z Z Z ",
"Z Z Z Z Z Z Z Z Z Z Z Z Z Z Z Z Z Z Z Z Z W &.:.<.*X;XoXR.W.E.C.d # .     7 0 u i $.&.&.@.@.; O z Z Z Z Z Z Z Z Z Z Z Z Z Z Z Z ",
"Z Z Z Z Z Z Z Z Z Z Z Z Z Z Z Z Z Z Z Z Z W &.,.@X1X1X@XoXoXD.m.t         7 0 i &.&.&.&.%.%.; O z Z Z Z Z Z Z Z Z Z Z Z Z Z Z Z ",
"Z Z Z Z Z Z Z Z Z Z Z Z Z Z Z Z Z Z Z Z Z S ; >.@X1X2X<X;XoXd.6.D j j &   , 5 $.&.&.&.&.` ; 1 z M Z Z Z Z Z Z Z Z Z Z Z Z Z Z Z ",
"Z Z Z Z Z Z Z Z Z Z Z Z Z Z Z Z Z Z Z Z Z l @ =.XX:X2X3X,XoX>.$.W Z Z x + 6 #.@.&.&.%.#.4 O l Z Z Z Z Z Z Z Z Z Z Z Z Z Z Z Z Z ",
"Z Z Z Z Z Z Z Z Z Z Z Z Z Z Z Z Z Z Z Z Z M c g $.XX>X2X,XoX=., G Z Z N B S - ` &.&.` ; 1 c M Z Z Z Z Z Z Z Z Z Z Z Z Z Z Z Z Z ",
"Z Z Z Z Z Z Z Z Z Z Z Z Z Z Z Z Z Z Z N x x c $ - =.XX:X>XoX2.4 S x x x x &   ; ` ` :   % x M Z Z Z Z Z Z Z Z Z Z Z Z Z Z Z Z Z ",
"Z Z Z Z Z Z Z Z Z Z Z Z Z Z Z Z Z Z Z x + O O     - $.XXOXoXY.,.g O @ O O       = =       O l Z Z Z Z Z Z Z Z Z Z Z Z Z Z Z Z Z ",
"Z Z Z Z Z Z Z Z Z Z Z Z Z Z Z Z Z Z Z B h & & & % O > =.=.=.=.=.>         + & % & f f f & & x Z Z Z Z Z Z Z Z Z Z Z Z Z Z Z Z Z ",
"Z Z Z Z Z Z Z Z Z Z Z Z Z Z Z Z Z Z Z Z Z C C C B $                       h C C C Z ^ N C C Z Z Z Z Z Z Z Z Z Z Z Z Z Z Z Z Z Z ",
"Z Z Z Z Z Z Z Z Z Z Z Z Z Z Z Z Z Z Z Z Z Z Z Z N z j j j j j j j j j j j x Z Z Z C M C Z Z Z Z Z Z Z Z Z Z Z Z Z Z Z Z Z Z Z Z ",
"Z Z Z Z Z Z Z Z Z Z Z Z Z Z Z Z Z Z Z Z Z Z Z Z Z Z Z Z Z Z Z Z Z Z Z Z Z Z Z Z Z Z Z Z Z Z Z Z Z Z Z Z Z Z Z Z Z Z Z Z Z Z Z Z ",
"Z Z Z Z Z Z Z Z Z Z Z Z Z Z Z Z Z Z Z Z Z Z Z Z Z Z Z Z Z Z Z Z Z Z Z Z Z Z Z Z Z Z Z Z Z Z Z Z Z Z Z Z Z Z Z Z Z Z Z Z Z Z Z Z ",
"Z Z Z Z Z Z Z Z Z Z Z Z Z Z Z Z Z Z Z Z Z Z Z Z Z Z Z Z Z Z Z Z Z Z Z Z Z Z Z Z Z Z Z Z Z Z Z Z Z Z Z Z Z Z Z Z Z Z Z Z Z Z Z Z "
};
