/* XPM */
static const char *UF9SaWdodF8z[] = {
/* columns rows colors chars-per-pixel */
"64 64 222 2 ",
"   c #1A1A19",
".  c #221D1B",
"X  c #3A1E18",
"o  c #1F2018",
"O  c #222318",
"+  c #29211D",
"@  c #2D2C19",
"#  c #3D3E19",
"$  c #35341B",
"%  c #372A1C",
"&  c #191F22",
"*  c #1B2529",
"=  c #1C2E34",
"-  c #1C323A",
";  c #342722",
":  c #2D263C",
">  c #362B39",
",  c #263635",
"<  c #393638",
"1  c #312A26",
"2  c #48251E",
"3  c #572719",
"4  c #573018",
"5  c #6C2B1B",
"6  c #68291A",
"7  c #702D1E",
"8  c #7A2C1B",
"9  c #74331A",
"0  c #4B2A26",
"q  c #522B26",
"w  c #493229",
"e  c #593729",
"r  c #473838",
"t  c #563634",
"y  c #652D22",
"u  c #68392A",
"i  c #79372C",
"p  c #3D4221",
"a  c #4A4C1A",
"s  c #444519",
"d  c #53551A",
"f  c #595A1B",
"g  c #504A1C",
"h  c #6E551A",
"j  c #5E611A",
"k  c #6A6D1C",
"l  c #64681A",
"z  c #72681A",
"x  c #6E721B",
"c  c #72751B",
"v  c #76791F",
"b  c #49462D",
"n  c #534D2B",
"m  c #5B5B26",
"M  c #57562A",
"N  c #464335",
"B  c #594436",
"V  c #5C5B38",
"C  c #4C5A34",
"Z  c #69412F",
"A  c #644929",
"S  c #7F5F2C",
"D  c #77572C",
"F  c #684737",
"G  c #734A3B",
"H  c #6F522B",
"J  c #556434",
"K  c #57662F",
"L  c #636423",
"P  c #686A24",
"I  c #7A6726",
"U  c #777A20",
"Y  c #797C22",
"T  c #70752E",
"R  c #67692C",
"E  c #1E3A46",
"W  c #1E3B47",
"Q  c #342C46",
"!  c #263B45",
"~  c #36314C",
"^  c #39324C",
"/  c #3B3C44",
"(  c #3B3552",
")  c #3E3956",
"_  c #2F2842",
"`  c #453A46",
"'  c #443D5E",
"]  c #413854",
"[  c #523D43",
"{  c #633E48",
"}  c #453F60",
"|  c #22444B",
" . c #204958",
".. c #244854",
"X. c #2B5A59",
"o. c #364F4E",
"O. c #265963",
"+. c #2B666C",
"@. c #2E6771",
"#. c #336D73",
"$. c #2B5659",
"%. c #435845",
"&. c #5B574B",
"*. c #504C56",
"=. c #635548",
"-. c #744F4A",
";. c #4F6453",
":. c #6C6D4E",
">. c #464262",
",. c #4B4968",
"<. c #4D526B",
"1. c #535874",
"2. c #595065",
"3. c #59627B",
"4. c #4C726C",
"5. c #6F7370",
"6. c #605367",
"7. c #85361D",
"8. c #983C1C",
"9. c #9A3B26",
"0. c #853A24",
"q. c #AA3F2B",
"w. c #A5421E",
"e. c #974B34",
"r. c #885138",
"t. c #855337",
"y. c #8C482C",
"u. c #A74329",
"i. c #AE5132",
"p. c #B36336",
"a. c #C44B31",
"s. c #C85A31",
"d. c #D76636",
"f. c #CE6336",
"g. c #8A5445",
"h. c #915C49",
"j. c #8B634A",
"k. c #9A6548",
"l. c #98785B",
"z. c #976656",
"x. c #A46B4D",
"c. c #AF704F",
"v. c #A87455",
"b. c #B06D51",
"n. c #8E7572",
"m. c #B17D65",
"M. c #A65945",
"N. c #D87742",
"B. c #C7734B",
"V. c #E07B44",
"C. c #7E8125",
"Z. c #33807D",
"A. c #4F897C",
"S. c #728876",
"D. c #8E8970",
"F. c #B48E71",
"G. c #C9835D",
"H. c #D98A4E",
"J. c #E68B4B",
"K. c #E9914E",
"L. c #EA9852",
"P. c #CA8865",
"I. c #CA956C",
"U. c #D8976B",
"Y. c #DB9D71",
"T. c #D38E64",
"R. c #D8A579",
"E. c #3A7A84",
"W. c #5E6D86",
"Q. c #4C7E86",
"!. c #636D86",
"~. c #6D768D",
"^. c #667388",
"/. c #677A91",
"(. c #767F94",
"). c #378885",
"_. c #3B928D",
"`. c #3D9690",
"'. c #419B96",
"]. c #439998",
"[. c #52878C",
"{. c #6D8197",
"}. c #748599",
"|. c #759194",
" X c #679790",
".X c #4C98A2",
"XX c #7D92A4",
"oX c #7F8EA1",
"OX c #59B5BA",
"+X c #53A8AF",
"@X c #5FB7C1",
"#X c #64BBC8",
"$X c #66C4CD",
"%X c #6CC8D5",
"&X c #71D0DD",
"*X c #70CFDC",
"=X c #78D8E8",
"-X c #75D5E4",
";X c #8C8E8F",
":X c #8194A6",
">X c #879BAC",
",X c #8EA3B2",
"<X c #97ACB9",
"1X c #9CB2BE",
"2X c #8BA0AB",
"3X c #B1BABE",
"4X c #ACB6B1",
"5X c #A3A591",
"6X c #D6AF87",
"7X c #E9B885",
"8X c #EEC18C",
"9X c #F1C48F",
"0X c #F4CA94",
"qX c #F8D098",
"wX c #E4C693",
"eX c #ECD3B7",
"rX c #A5BBC6",
"tX c #A9BFC9",
"yX c #A7B9C2",
"uX c #9FB5C1",
"iX c #ADC3CC",
"pX c #F4E6D4",
/* pixels */
"c c c c c c c c c c c c c c c c c c c c c c c c c c c c c c c c c c c c c c c c c c c c c c c c c c c c c c c c c c c c c c c c ",
"c c c c c c c c c c c c c c c c c c c c c c c c c c c c c c c c c c c c c c c c c c c c c c c c c c c c c c c c c c c c c c c c ",
"c c c c c c c c c c c c c c c c c c c c c c c c c c c c c c c c c c c c c c c c c c c c c c c c c c c c c c c c c c c c c c c c ",
"c c c c c c c c c c c c c c c c c c c c L n V V V V V :.:.:.:.T c c c c c c c c c c c c c c c c c c c c c c c c c c c c c c c c ",
"c c c c c c c c c c c c c c c c c c c c n : ( } >.>.>.1././.^.:.c c c c c c c c c c c c c c c c c c c c c c c c c c c c c c c c ",
"c c c c c c c c c c c c c c c c c c c c n : ( >.1.!.}.>X,X,X2XS.:.&.V c c c c c c c c c c c c c c c c c c c c c c c c c c c c c ",
"c c c c c c c c c c c c c c c c c c c c M < ^ >.3.{.<XtXiXiXtX>X^.1.&.R x c c Y v c c c c c c c c c c c c c c c c c c c c c c c ",
"c c c c c c c c c c c c c c c c c c c c P m N ~ >.3.}.,XiXiXiXuX>X~.1.*.V c c v U c c c c c c c c c c c c c c c c c c c c c c c ",
"c c c c c c c c c c c c c c c c c c c c c c M r ( >.3.}.<XrXiXiXyX>X~.1.&.R P x x c c c c c c c c c c c c c c c c c c c c c c c ",
"c c c c c c c c c c c c c c c c c c c c c c k m r ~ >.3.{.,XiXiXiXrX>X^.<.< m x l x Y C.Y c c c c c c c c c c c c c c c c c c c ",
"c c c c c c c c c c c c c c c c c c c c c c L n / ) <.^.:X<XiXiXtX<X:X/.<.~ n h h m m M M L c c c c c c c c c c c c c c c c c c ",
"c c c c c c c c c c c c c c c c c c c c c c b _ ) <.W.:XtXiXiXiX1X}././.1.' t 3 3 0 > : : n c c c c c c c c c c c c c c c c c c ",
"c c c c c c c c c c c c c c c c c c c c c c b _ ) <.W.}.>X>X>X>X;Xn.z.j.-.i i 9 q r ^ ( ( N n L c c c c c c c c c c c c c c c c ",
"c c c c c c c c c c c c c c c c c c c c x k b > ] ,.3.!.^.^.^.^.n.B.s.w.8.9.9.0.r ^ >.>.} ~ > m c c c c c c c c c c c c c c c c ",
"c c c c c c c c c c c c c c c c c c c c m N w 0 q t B -.g.g.g.x.b.d.d.s.e.{ { *.2.1.3.1.>.~ > m c c c c c c c c c c c c c c c c ",
"c c c c c c c c c c c c c c c c x L L L b : 0 3 3 3 6 8 8.w.u.s.d.d.d.B.j.,.1.3./.{./.3.>.^ > m c c c c c c c c c c c c c c c c ",
"c c c c c c c c c c c c c c c c L b < < > : : > q 6 7.8.8.i.s.d.d.d.b.n.5.W.oX<X<X,X{.3.>.^ > m c c c c c c c c c c c c c c c c ",
"c c c c c c c c c c c c c c c c L < _ Q Q Q Q ^ [ -.z.x.z.m.P.P.P.P.F.:XXXXX<XtX1X:X!.<.) ` b L c c c c c c c c c c c c c c c c ",
"c c c c c c c c c c c c c c c c L < Q ' ' ' ' >.3.}.<X3X3X3X3X3X3X3XyXrXtXtXiXyXXX!.<.) _ n k c c c c c c c c c c c c c c c c c ",
"c c c c c c c c c c c c c c c c k M N ^ ) } } >.1.!.:X<XiXiXiXiXiXiXiXiX1X>X:X(.!.<.) ` b L c c c c c c c c c c c c c c c c c c ",
"c c c c c c c c c c c c c c c c c c m > ^ ' ' ' ' <.W.XXrXrXrXrXtXtXtXtX>X^.1.' >.] _ b c c c c c c c c c c c c c c c c c c c c ",
"c c c c c c c c c c c c c c c c c c P M N ~ ~ ~ ~ ( >.<.3.3.3.^.~.~.~.~.1.>.) ` -.-.> b x c c c c c c c c c c c c c c c c c c c ",
"c c c c c c c c c c c c c c c c c c c c M < : : > > : Q ` ` ` *.6.2.*.*.` > ` =.v.k.; # x c c c c c c c c c c c c c c c c c c c ",
"c c c c c c c c c c c c c c c c c c c c P m $ + t t 1 =.F.F.v.F.F.m.z.-.G G h.v.G.k.; # x c c c c c c c c c c c c c c c c c c c ",
"c c c c c c c c c c c c c c c c c c c c c c a $ e e . =.R.R.R.7X8XU.P.m.j.Z v.U.T.x.w g c c c c c c c c c c c c c c c c c c c c ",
"c c c c c c c c c c c c c c c c c c c c c c k f $ .   w k.I.9X0X8XU.6XeXD.; D.7XU.c.r.D c c c c c c c c c c c c c c c c c c c c ",
"c c c c c c c c c c c c c c c c c c c c c c c l $     ; e v.7X9X8XU.6XpX;X  D.0X7XP.h.S c c c c c c c c c c c c c c c c c c c c ",
"c c c c c c c c c c c c c c c c c c c c c c c l $         -.T.7X8XU.6XpX;X  D.qX0XR.k.S c c c c c c c c c c c c c c c c c c c c ",
"c c c c c c c c c c c c c c c c c c c c c c c k d # o     F c.I.R.T.R.eX6Xl.6XqXqXR.k.S c c c c c c c c c c c c c c c c c c c c ",
"c c c c c c c c c c c c c c c c c c c c c c c c c f @ . . e r.c.G.P.Y.9X0XqXqX0X9XR.k.I c c c c c c c c c c c c c c c c c c c c ",
"c c c c c c c c c c c c c c c c c c c c c c c c c h 4 3 3 2 w G x.G.T.Y.7XqXqX8XI.x.r.S c c c c c c c c c c c c c c c c c c c c ",
"c c c c c c c c c c c c c c c c c c c c c c c c z h 7.7.y.y 2 e t.c.m.B.I.6X6XR.x.t.t.I c c c c c c c c c c c c c c c c c c c c ",
"c c c c c c c c c c c c c c c c c c c c c c c z h 7.u.s.N.p.9.q w t.h.h.k.x.x.k.r.t.I c c c c U C.v c c c c c c c c c c c c c c ",
"c c c c c c c c c c c c c c c c c c c c c c c k n u 9.s.V.d.f.r.Z e.e.e.e.G u Z D I c c c c c c Y Y U c c c Y C.v c c c c c c c ",
"c c c c c c c c c c c c c c c c c c c c c c c P o./ y 9.a.N.K.J.N.s.a.a.9.7 2 @ f c c c c c c c x c U c c v C.v c c c c c c c c ",
"c c c c c c c c c c c c c c c c c c c c c c K ;.4.Q.;.G 9.i.p.p.i.u.9.9.7.5 X + A I I I c c c c c x l x v U U c c c c c c c c c ",
"c c c c c c c c c c c c c c c c c c c c c x %.+.@X$X].;.5 5 5 7 7 7 7 7 5 6 X + Z r.r.S c c c c c c c c v U x x c c c c c c c c ",
"c c c c c c c c c c c c c c c c c c c c K %.+.).#X&X$X[.` %.4.{.|.|.|.|.&.X q u G r.r.S c c c c c c c c x l x c c c c c c c c c ",
"c c c c c c c c c c c c c c c c c c c c J o.#.'.@X%X%X.X .#.`.OX*X-X=X=XQ.  e r.r.r.r.S c c c c c c c c c c c c c c c c c c c c ",
"c c c c c c c c c c c c Y v c c c c I t.j.l.S._.].].E.@. .#._.].+X*X=X=XQ.  e r.r.r.r.S c c c c c c c c c c c c c c c c c c c c ",
"c c c c c c c c c c c c v U c c c c I t.c.Y.5X XA.4.| ! / ;.4.A.'.OX$X$X4.  w Z Z Z Z H c c c c c c c c c c c c c c c c c c c c ",
"c c c c c c c c U C.Y v x x c c c c I t.F.9XwX6Xl.B 1 ; y y.M.5._.'.'.'.X.  . + + + + s c c c c c c c c c c c c c c c c c c c c ",
"c c c c c c c c c U Y U x l x Y C.Y L e l.7X9X7Xv.Z + 1 t i u.j.5.S.D.D.=.X $ # # # # d c c c c c c c c c c c c c c c c c c c c ",
"c c c c c c v Y U x c U c x c U Y v d O G T.7X7Xv.u + =  .r 8 q.f.J.L.L.p.5 h x x x x c c c c c c c c c c c c c c c c c c c c c ",
"c c c c c c c v Y U x x c v U U c c d O w G -.:.B < , ..@.4.;.D.5X4X4X4X5.r m c c c c c c c c c c c c c c c c c c c c c c c c c ",
"c c c c c c c x x U c x l x v x x c f @           = ..+.)._.].$X=X=X-X-X.X..J c c c c c c c c c c c c c c c c c c c c c c c c c ",
"c c c c c c c c x x c c x k k x c c k f #   X 2 , ..@.Z.).+X$X*X=X=X%X+XE...J c c c c c c c c c c c c c c c c c c c c c c c c c ",
"c c c c c c c c c x x v U c c c c c k l p * 2 6 r $.#.Z.Z..X#X#X#X#X+X).#.*.V z c c c c c c c c c c c c c c c c c c c c c c c c ",
"c c c c c c c c c c c v x x c c c c f $ , ! w 5 y r X.O.O.+.#.#.#.#.+.O.&.e.0.h z c c c c c c c c c c c c c c c c c c c c c c c ",
"c c c c c c c c c c c x x c c c c c d O =  .< e 5 y r ! E E ! / ` *.&.:.k.f.9.9 z k K K K P c c c c c c c c c c c c c c c c c c ",
"c c c c c c c c c c c c c c c c c c d O =  ...o.e 5 5 2     . 2 8 u.f.H.K.J.i.9 z K o.....J c c c c c c c c c c c c c c c c c c ",
"c c c c c c c c c c c c c c c c c c d O =  . .../ w 2 X       X 6 q.d.K.J.N.j.&.C %.+.O. .C c c c c c c c c c c c c c c c c c c ",
"c c c c c c c c c c c c c c c c c c d O =  . . . .E &           2 9.f.J.N.i.5.).+.+.).#...C c c c c c c c c c c c c c c c c c c ",
"c c c c c c c c c c c c c c c c c c d O =  . . . .E & @ a a a a g e y.f.x.5. XOX+X.X_.+.= n c c c c c c c c c c c c c c c c c c ",
"c c c c c c c c c c c c c c c c c c d O =  . . . .W * # l k c c j @ q i.5.].#X-X&X@X_.X.  a c c c c c c c c c c c c c c c c c c ",
"c c c c c c c c c c c c c c c c c c d O =  . . . ...W , $ d c c j @ < 4. X$X*X&XOX].@.|   a c c c c c c c c c c c c c c c c c c ",
"c c c c c c c c c c c c c c c l f f s   * E E E E E E =   # f f a O , #..X$X$X@X].@.| , $ f c c c c c c c c c c c c c c c c c c ",
"c c c c c c c c c c c c c c k s O O O     & & & & & &     o O O O   =  .#.'.'._.@.| * p l k c c c c c c c c c c c c c c c c c c ",
"c c c c c c c c c c c c c c x d # # # # # # # # # # # @             * - | X.X.X.| =   @ a a a a d k c c c c c c c c c c c c c c ",
"c c c c c c c c c c c c c c c c x x x x x x x x x x x a                                         @ j c c c c c c c c c c c c c c ",
"c c c c c c c c c c c c c c c c c c c c c c c c c c c l a a a a a a a a a a a a a a s a a a a a d k c c c c c c c c c c c c c c ",
"c c c c c c c c c c c c c c c c c c c c c c c c c c c c c c c c c c c c c c c c c c c c c c c c c c c c c c c c c c c c c c c c ",
"c c c c c c c c c c c c c c c c c c c c c c c c c c c c c c c c c c c c c c c c c c c c c c c c c c c c c c c c c c c c c c c c ",
"c c c c c c c c c c c c c c c c c c c c c c c c c c c c c c c c c c c c c c c c c c c c c c c c c c c c c c c c c c c c c c c c "
};
