/* XPM */
static const char *UF9VcF8z[] = {
/* columns rows colors chars-per-pixel */
"64 64 221 2 ",
"   c #1A1B1C",
".  c #241D1A",
"X  c #311D18",
"o  c #212118",
"O  c #29261B",
"+  c #352B1B",
"@  c #343419",
"#  c #3B3D19",
"$  c #1E1C22",
"%  c #1A2529",
"&  c #1C2E35",
"*  c #1D3239",
"=  c #24272A",
"-  c #382922",
";  c #2B263A",
":  c #352A3A",
">  c #3A3738",
",  c #2E362D",
"<  c #231F2E",
"1  c #502B19",
"2  c #672A1A",
"3  c #752B1B",
"4  c #7B2D1B",
"5  c #77361B",
"6  c #6D3D1C",
"7  c #482B28",
"8  c #4B3527",
"9  c #58352A",
"0  c #443B36",
"q  c #503337",
"w  c #662D21",
"e  c #70372C",
"r  c #3F4421",
"t  c #4A4C1B",
"y  c #43451B",
"u  c #53551A",
"i  c #5A5D1A",
"p  c #514F1A",
"a  c #71501A",
"s  c #5D6119",
"d  c #63651B",
"f  c #666A1B",
"g  c #6A6D1C",
"h  c #676B18",
"j  c #71691B",
"k  c #6D721B",
"l  c #72751B",
"z  c #76791F",
"x  c #464726",
"c  c #5B5B26",
"v  c #53522B",
"b  c #59582B",
"n  c #494536",
"m  c #5D5C3A",
"M  c #4B5131",
"N  c #7B5E2A",
"B  c #664735",
"V  c #744735",
"C  c #645D31",
"Z  c #4D6137",
"A  c #576730",
"S  c #676925",
"D  c #776D21",
"F  c #786C23",
"G  c #6D7023",
"H  c #777A20",
"J  c #797C22",
"K  c #777424",
"L  c #6B6536",
"P  c #1E3A44",
"I  c #1E3D49",
"U  c #2F2A41",
"Y  c #312B45",
"T  c #342F49",
"R  c #263D46",
"E  c #36324C",
"W  c #393649",
"Q  c #3D3B55",
"!  c #3C3754",
"~  c #423945",
"^  c #413B59",
"/  c #553E51",
"(  c #673D41",
")  c #1F404E",
"_  c #1F4452",
"`  c #26454C",
"'  c #214959",
"]  c #244752",
"[  c #25535D",
"{  c #364D4D",
"}  c #275965",
"|  c #29646A",
" . c #2D6468",
".. c #2D6D71",
"X. c #32797A",
"o. c #326D6F",
"O. c #3F6158",
"+. c #44474A",
"@. c #585747",
"#. c #47455C",
"$. c #4E5957",
"%. c #554F53",
"&. c #6A4A47",
"*. c #74504F",
"=. c #4D635A",
"-. c #464362",
";. c #494563",
":. c #4A4A66",
">. c #4A4C68",
",. c #4D526C",
"<. c #4E5C6D",
"1. c #535368",
"2. c #535975",
"3. c #4F5470",
"4. c #785F61",
"5. c #685761",
"6. c #55617A",
"7. c #5A647E",
"8. c #4F7167",
"9. c #646677",
"0. c #6F7472",
"q. c #626344",
"w. c #832F1D",
"e. c #87361D",
"r. c #983D1E",
"t. c #893A25",
"y. c #9A3A25",
"u. c #A73D28",
"i. c #815C2F",
"p. c #864834",
"a. c #954832",
"s. c #8B523A",
"d. c #835832",
"f. c #8F4C31",
"g. c #A7482A",
"h. c #B5442C",
"j. c #A54735",
"k. c #B75229",
"l. c #846F2D",
"z. c #B0552B",
"x. c #C64C34",
"c. c #C85835",
"v. c #CC5531",
"b. c #C86C3B",
"n. c #DC6A34",
"m. c #D56B3A",
"M. c #D1713E",
"N. c #8C5848",
"B. c #B35C42",
"V. c #9A6645",
"C. c #8B6453",
"Z. c #A56748",
"A. c #B67554",
"S. c #AE6F54",
"D. c #8C736D",
"F. c #A3786A",
"G. c #DD7341",
"H. c #C67F59",
"J. c #C86A40",
"K. c #E07A44",
"L. c #7E8125",
"P. c #33807E",
"I. c #4A8276",
"U. c #65897B",
"Y. c #978675",
"T. c #AF856D",
"R. c #CB855D",
"E. c #C28651",
"W. c #D18147",
"Q. c #F09850",
"!. c #E98A4B",
"~. c #D08860",
"^. c #CA8862",
"/. c #DDA268",
"(. c #3D7888",
"). c #5D6A83",
"_. c #5B6882",
"`. c #547585",
"'. c #62748D",
"]. c #69778F",
"[. c #697A91",
"{. c #6D778C",
"}. c #887C84",
"|. c #378C85",
" X c #398986",
".X c #389089",
"XX c #3E9791",
"oX c #459C9B",
"OX c #4C8A93",
"+X c #76899B",
"@X c #718A90",
"#X c #549CA9",
"$X c #788CA0",
"%X c #7C95A3",
"&X c #4AA4A3",
"*X c #52ADAF",
"=X c #56ACB4",
"-X c #5AB4BA",
";X c #61A2A4",
":X c #62BDC7",
">X c #77BEC9",
",X c #5FBCC2",
"<X c #6ECDD9",
"1X c #71CADA",
"2X c #69C6D1",
"3X c #78D8E8",
"4X c #78D5E3",
"5X c #949997",
"6X c #BAA790",
"7X c #838DA0",
"8X c #879AAA",
"9X c #96A8B5",
"0X c #9EB3BF",
"qX c #8AA7AA",
"wX c #AD9389",
"eX c #C09E8D",
"rX c #9AC6BD",
"tX c #A1B7C2",
"yX c #A6BCC6",
"uX c #9FB5C1",
"iX c #ACC2CB",
/* pixels */
"l l l l l l l l l l l l l l l l l l l l l l l l l l l l l l l l l l l l l l l l l l l l l l l l l l l l l l l l l l l l l l l l ",
"l l l l l l l l l l l l l l l l l l l l l l l l l l l l l l l l l l l l l l l l l l l l l l l l l l l l l l l l l l l l l l l l ",
"l l l l l l l l l l l l l l l l l l l l l l l l l l l l l S m m m m m m m m S l l l l l l l l l l l l l l l l l l l l l l l l l ",
"l l l l l l l l l l l l l l l l l l l l l l l l l l l l l @.;.;.;.;.-.-.-.#.m l l l l l l l l l l l l l l l l l l l l l l l l l ",
"l l l l l l l l l l l l l l l l l l l l l l l l l l l S @.0.7X7X7X7X[.7.,.#.m l l l l l l l l l l l l l l l l l l l l l l l l l ",
"l l l l l l l l l l l l l l l l l l l l l l l l l l G q.3.7XiXiXiXyX8X'.2.^ m l l l l l l l l l l l l l l l l l l l l l l l l l ",
"l l l l l l l l l l l l l l l l l l l l l l l l l S @.0.8X0XiXiXtX8X].2.^ T b J z l l l l l l l l l l l l l l l l l l l l l l l ",
"l l l l l l l l l l l l l l l l l l l l l l l l S q.1.[.yXtX9X9X7X).,.^ W 0 c z H l l l l l l l l l l l l l l l l l l l l l l l ",
"l l l l l l l l l l l l l l l l l l l l l l l G @.1._.%XiXqX[.7.>.Q T Y n G G k k l l l l l l l l l l l l l l l l l l l l l l l ",
"l l l l l l l l l l l l l l l l l l l l l l l S +.-.).+XqX8X%X+X).,.Q E n b S k h k J L.J l l l l l l l l l l l l l l l l l l l ",
"l l l l l l l l l l l l l l l l l l l l l l l S 0 Q ).[.[.8XiXyX9X+X7.-.! : b l k l H J z l l l l l l l l l l l l l l l l l l l ",
"l l l l l l l l l l l l l l l l l l l l l l c n : E ,._.'.+X8X8X$X_.:.! Y ; 0 v S H H l l l l l l l l l l l l l l l l l l l l l ",
"l l l l l l l l l l l l l l l l l l l l l l n ; U E #.2.'.'.'.'.7.:.! Y ; : : : c G f g l l l l l l l l l l l l l l l l l l l l ",
"l l l l l l l l l l l l l l l l l l l l l l n U E -.2.2.3.3.,.-.Q E E ! 0 7 7 7 0 0 n v l l l l l l l l l l l l l l l l l l l l ",
"l l l l l l l l l l l l l l l l l l l l G S 0 Y ~ #.7.2.>.3.2.>.#.Q ^ / 9 2 2 1 : Y Y n S g l l l l l l l l l l l l l l l l l l ",
"l l l l l l l l l l l l l l l l l l l l b > : : 7 q ;.2.).+X9X9X7X'.5.p.t.e.3 1 ~ ^ ^ W > b l l l l l l l l l l l l l l l l l l ",
"l l l l l l l l l l l l l l l l l l g c n T : 7 w e ( *.D.wX6X6XwXD.C.g.g.r.e q #.,.-.! ; v l l l l l l l l l l l l l l l l l l ",
"l l l l l l l l l l l l l l l l l l c > W ^ q 2 e.r.y.g.m.m.M.M.m.m.m.n.k.r.e ;.7.7.:.! ; v l l l l l l l l l l l l l l l l l l ",
"l l l l l l l l l l l l l l l l l l c : Q 2.1.&.&.e y.g.k.v.n.n.n.n.J.S.F.F.}.{.[._.:.! ; v l l l l l l l l l l l l l l l l l l ",
"l l l l l l l l l l l l l l l l l l c : :.'.'.).,.%.t.r.y.k.n.n.n.n.S.{.8XiXiXtX+X_.:.! ; v l l l l l l l l l l l l l l l l l l ",
"l l l l l l l l l l l l l l l l l l c : Q 2.).'._.9.4.4.4.Y.eXeXeXeX6X9X0XiX9X+X_.:.! 0 v S l l l l l l l l l l l l l l l l l l ",
"l l l l l l l l l l l l l l l l l l c > W Q 3.).).'.'.'.'.8XtXtXtXtXtXtX0X9X+X6.:.! > v l l l l l l l l l l l l l l l l l l l l ",
"l l l l l l l l l l l l l l l l l l g S x = T Q :.2.'.'.'.+X$X$X$X$X$X$X{.9.:.! E > b S l l l l l l l l l l l l l l l l l l l l ",
"l l l l l l l l l l l l l l l l l l l l u - = ; T Q ,.<.<.<.<.6.6.6.6.6.>.! Y ; ; > f l l l l l l l l l l l l l l l l l l l l l ",
"l l l l l l l l l l l l l l l l l l l l N V 7   $ = = = = = = U E E E E T U =     @ d l l l l l l l l l l l l l l l l l l l l l ",
"l l l l l l l l l l l l l l l l l l l l F N B - . . - 8 B B B &.*.*.&.q : < $   @ t h l l l l l l l l l l l l l l l l l l l l l ",
"l l l l l l l l l l l l l l l l l l l l l l N V - - V Z.R.R.R.R.R.R.A.s.9     o u l l l l l l l l l l l l l l l l l l l l l l l ",
"l l l l l l l l l l l l l l l l l l l l l l F a + . 7 V Z.A.~.~.~.~.A.s.9   @ p f l l l l l l l l l l l l l l l l l l l l l l l ",
"l l l l l l l l l l l l l l l l l l l l l l l d @ . . 7 p.Z.H.H.H.H.S.s.9 . p j g g l l l l l l l l l l l l l l l l l l l l l l ",
"l l l l l l l l l l l l l l l l l l l l l l l j 6 1 1 2 5 p.f.f.f.f.a.j.g.t.5 a 8 t h l l l l l l l l l l l l l l l l l l l l l ",
"l l l l l l l l l l l l l l l l l l l l l l S S 6 3 w.w.w.w.w.t.f.f.g.c.c.c.g.3 1 + u f l l l l l l l l l l l l l l l l l l l l ",
"l l l l l l l l l l l l l l l l l l l l l l Z { 9 w.u.h.h.h.h.b.W.G.W.!.!.!.c.u.3 1 + t l l l l l l l l l l l l l l l l l l l l ",
"l l l l l l l l l l l l l l l l l l l l S A 8.`.9.N.j.h.x.v.m.!.Q.Q.Q.Q.!.K.c.y.V n = r k l l H L.z l l l l l l l l l l l l l l ",
"l l l l l l l l l l l l l l l l l l l l Z [ #X1X1X%XV y.x.m.!.Q.Q.Q.Q.Q.G.x.y.e 8.o.' Z k l l l J J H l l l J L.z l l l l l l l ",
"l l l l l l l l l l l l l l l l l l l l Z ' OX,X<X>X@XC.y.k.G.G.G.G.M.B.g.y.V =.I..XOX8.t s l l k l H l l z L.z l l l l l l l l ",
"l l l l l l l l l l l l l l l l l l l l Z ' X.oX2X4X4X@X3 y.x.x.x.x.g.3 3 3 =..X.X&X<XOX  t l l l k h k z H H l l l l l l l l l ",
"l l l l l l l l l l l l l l l l l l S Z 8.#X-X-X=X*X*X`.~ @.0.5X5X5X@X8.$.~ o.XX*X2X4XOX  t l l l l l l z H k k l l l l l l l l ",
"l l l l l l l l l l l l l l l l l l A ] OX<X4X<X&X|. X..' ..XX2X3X3X:XXXo.`  . X-X<X<XOX- t f k l l l l k h k l l l l l l l l l ",
"l l l l l l l l l l l l l l l l l l A ] X.&X2X<X&XP.| } ' ..XX:X3X3X:XXX=.9 > `  X&X&XU.V.B @ i l l l l l l l l l l l l l l l l ",
"l l l l l l l l l l l l J z l l l D L $.8.U.;X=X X| ` R W $.U.qXrXrXqXU.@.9 + = O.I.U.Y.^.V o u l l l l l l l l l l l l l l l l ",
"l l l l l l l l l l l l z H l l D i.V.A.T.T.0.} } ` % - w a.B.R././.R.B.&.` = O B C.T.^.^.V o u l l l l l l l l l l l l l l l l ",
"l l l l l l l l H L.J z k k l l F d.Z.R.~.R.C.+.R * & > @.D.T.6X6X6X6XT.0.| ` , B s.S.A.A.B o u l l l l l l l l l l l l l l l l ",
"l l l l l l l l l H J H k h k J l.d.Z.R.~.R.Z.V - % I |  X-X4X4X4X4X4X4X-X|.| { &.s.s.s.s.8 o u l l l l l l l l l l l l l l l l ",
"l l l l l l z J H k l H l k l H K d.Z.R.A.Z.s.V - % ) | |.&X-X<X3X3X3X3X-X|.| ] 0 8 8 8 8 8 t d l l l l l l l l l l l l l l l l ",
"l l l l l l l z J H k k l z H H F i.V.H.Z.s.p.V - % R  . X X.X-X1X1X1X1X=X X .R = o o o o t l l l l l l l l l l l l l l l l l l ",
"l l l l l l l k k H l k h k z k l F l.V.s.s.9 - . O 7 +.} | | X.(.(.(.(.o.} +.9 p u u u u d l l l l l l l l l l l l l l l l l l ",
"l l l l l l l l k k l l k h h k l l F i.d.d.8 O   X 2 9 +.+.+.{ { +.$.$.$.$.9 5 j l l l l l l l l l l l l l l l l l l l l l l l ",
"l l l l l l l l l k k z H l l l l l l D D D f u O X 2 t.j.j.a.e e a.B.E.E.E.f.5 j l l l l l l l l l l l l l l l l l l l l l l l ",
"l l l l l l l l l l l z k k l l l l l l l l d t , = 8 e u.u.u.w.4 y.k.b.b.b.g.t.a j l l l l l l l l l l l l l l l l l l l l l l ",
"l l l l l l l l l l l k k l l l l l l l l l y = P ] ] 0 3 3 3 3 3 3 4 4 4 4 u.h.e.a j l l l l l l l l l l l l l l l l l l l l l ",
"l l l l l l l l l l l l l l l l l l l l l k # % P ' ' { @.@.@.n +.0.0.0.0.0.N.y.4 6 j l l l l l l l l l l l l l l l l l l l l l ",
"l l l l l l l l l l l l l l l l l l l l l k # % P ' ' | |.|. X| o.:X4X4X4X4X0.3 3 6 j l l l l l l l l l l l l l l l l l l l l l ",
"l l l l l l l l l l l l l l l l l l l l l l i t , * _ } | | | [ } oX*X*X*X*X;X@X$.M G l l l l l l l l l l l l l l l l l l l l l ",
"l l l l l l l l l l l l l l l l l l l l l l l f # = R ) ) ) ) ] } P..X.X.X.X-X:X(.{ A G l l l l l l l l l l l l l l l l l l l l ",
"l l l l l l l l l l l l l l l l l l l l l l l k d t = % % % % I } P..X.X.X.XoXoX Xo.{ Z l l l l l l l l l l l l l l l l l l l l ",
"l l l l l l l l l l l l l l l l l l l l l l l l l d # @ @ o   P } ..X.X.X.X.X.X. XX.] M k l l l l l l l l l l l l l l l l l l l ",
"l l l l l l l l l l l l l l l l l l l l l l l l l k f d d #   P ' [ [ [ [ [ [ } X.o.& x J z l l l l l l l l l l l l l l l l l l ",
"l l l l l l l l l l l l l l l l l l l l l l l l l l l l l y   & P _ ' ' ' ' ' ' | [ % y l l l l l l l l l l l l l l l l l l l l ",
"l l l l l l l l l l l l l l l l l l l l l l l l l l l l l y     % I ' ' ' ' ' ' ' I % # l l l l l l l l l l l l l l l l l l l l ",
"l l l l l l l l l l l l l l l l l l l l l l l l l l l l l i y O   % & & & & & & & , x u k l l l l l l l l l l l l l l l l l l l ",
"l l l l l l l l l l l l l l l l l l l l l l l l l l l l l l h # o o o o o o o o o @ s k l l l l l l l l l l l l l l l l l l l l ",
"l l l l l l l l l l l l l l l l l l l l l l l l l l l l l l k s u u u u u u u u u i k l l l l l l l l l l l l l l l l l l l l l ",
"l l l l l l l l l l l l l l l l l l l l l l l l l l l l l l l l l l l l l l l l l l l l l l l l l l l l l l l l l l l l l l l l ",
"l l l l l l l l l l l l l l l l l l l l l l l l l l l l l l l l l l l l l l l l l l l l l l l l l l l l l l l l l l l l l l l l "
};
