/* XPM */
static const char *UF9VcF8x[] = {
/* columns rows colors chars-per-pixel */
"64 64 212 2 ",
"   c #1B1B1A",
".  c #311E19",
"X  c #252619",
"o  c #2A2A19",
"O  c #3C221D",
"+  c #3C3D1A",
"@  c #34351B",
"#  c #1C1C21",
"$  c #1C2628",
"%  c #1C3139",
"&  c #272727",
"*  c #372722",
"=  c #2A352A",
"-  c #2D263E",
";  c #282633",
":  c #342B3B",
">  c #283637",
",  c #39373A",
"<  c #353623",
"1  c #202020",
"2  c #47221A",
"3  c #4B2619",
"4  c #5E2A18",
"5  c #73291A",
"6  c #7A2C1B",
"7  c #7B351C",
"8  c #652A1B",
"9  c #452A2A",
"0  c #572C25",
"q  c #453A37",
"w  c #573935",
"e  c #4F362C",
"r  c #682F22",
"t  c #68372B",
"y  c #7B3B28",
"u  c #6F3A33",
"i  c #32473A",
"p  c #42441A",
"a  c #484A1B",
"s  c #46481C",
"d  c #4F521C",
"f  c #585A1A",
"g  c #74451A",
"h  c #6D501A",
"j  c #5E611A",
"k  c #666B1A",
"l  c #6A6D1C",
"z  c #63671A",
"x  c #73691B",
"c  c #6D721B",
"v  c #72751B",
"b  c #76791F",
"n  c #4C492E",
"m  c #554E2C",
"M  c #5B5B27",
"N  c #56552A",
"B  c #4A4631",
"V  c #474535",
"C  c #5D5C3B",
"Z  c #515031",
"A  c #6F4B34",
"S  c #4C6038",
"D  c #666824",
"F  c #6C7425",
"G  c #777A20",
"H  c #797C22",
"J  c #646432",
"K  c #7A6927",
"L  c #1E3D48",
"P  c #2E2841",
"I  c #322B44",
"U  c #332C48",
"Y  c #243D46",
"T  c #38354A",
"R  c #3B3653",
"E  c #3D3A55",
"W  c #423846",
"Q  c #543D48",
"!  c #453C5A",
"~  c #673D41",
"^  c #453F60",
"/  c #1F404E",
"(  c #1F4350",
")  c #24434B",
"_  c #214B5A",
"`  c #234B54",
"'  c #27545D",
"]  c #375D5F",
"[  c #36464F",
"{  c #245461",
"}  c #2A5C6A",
"|  c #385A66",
" . c #29636B",
".. c #2C696A",
"X. c #326466",
"o. c #2E7174",
"O. c #317B7B",
"+. c #367875",
"@. c #347170",
"#. c #594748",
"$. c #575647",
"%. c #494658",
"&. c #505451",
"*. c #644847",
"=. c #6A564C",
"-. c #765750",
";. c #576740",
":. c #57704C",
">. c #776452",
",. c #494564",
"<. c #4B4B69",
"1. c #474563",
"2. c #4D526D",
"3. c #54566D",
"4. c #545B75",
"5. c #545B77",
"6. c #504D68",
"7. c #685A68",
"8. c #45766C",
"9. c #59657C",
"0. c #4E7069",
"q. c #88321E",
"w. c #983C1C",
"e. c #8A3924",
"r. c #993A25",
"t. c #A83D28",
"y. c #A4421E",
"u. c #8A533A",
"i. c #8F4734",
"p. c #A84328",
"a. c #B44728",
"s. c #B65632",
"d. c #AF4C37",
"f. c #827132",
"g. c #AE703A",
"h. c #CA4D32",
"j. c #CD5C37",
"k. c #D35D38",
"l. c #C95B2B",
"z. c #DC6831",
"x. c #D4633B",
"c. c #C3713D",
"v. c #CE6434",
"b. c #875B49",
"n. c #AC5942",
"m. c #9B6146",
"M. c #896A59",
"N. c #B37352",
"B. c #B87858",
"V. c #AB6F53",
"C. c #8A7A70",
"Z. c #AE7E6C",
"A. c #D67441",
"S. c #CA754D",
"D. c #E27C45",
"F. c #7E8125",
"G. c #3D8C7E",
"H. c #57814C",
"J. c #48897E",
"K. c #558275",
"L. c #668377",
"P. c #9E8F76",
"I. c #AE987A",
"U. c #CB845B",
"Y. c #E78749",
"T. c #ED914E",
"R. c #F09850",
"E. c #C49378",
"W. c #DDA268",
"Q. c #377E82",
"!. c #5C6982",
"~. c #5F7089",
"^. c #63758D",
"/. c #68738A",
"(. c #687B92",
"). c #687388",
"_. c #398E86",
"`. c #388685",
"'. c #3A918B",
"]. c #449898",
"[. c #498E90",
"{. c #79889C",
"}. c #628B8F",
"|. c #549EAE",
" X c #4D9BA3",
".X c #7D90A3",
"XX c #4EA9A9",
"oX c #4CA5A5",
"OX c #58ACB6",
"+X c #59B4B9",
"@X c #69ACB8",
"#X c #5EBAC1",
"$X c #5FB0C0",
"%X c #66BDC3",
"&X c #6DCBD7",
"*X c #72D1DF",
"=X c #65C3CC",
"-X c #78D8E8",
";X c #77D5E4",
":X c #83969D",
">X c #A59997",
",X c #BFB28E",
"<X c #8397A9",
"1X c #8B95A3",
"2X c #94A8B7",
"3X c #8EAAAE",
"4X c #AFAEAD",
"5X c #9AC6BD",
"6X c #9FB5C1",
"7X c #A7BDC7",
"8X c #91C1C2",
"9X c #ACC2CB",
/* pixels */
"v v v v v v v v v v v v v v v v v v v v v v v v v v v v v v v v v v v v v v v v v v v v v v v v v v v v v v v v v v v v v v v v ",
"v v v v v v v v v v v v v v v v v v v v v v v v v v v v v v v v v v v v v v v v v v v v v v v v v v v v v v v v v v v v v v v v ",
"v v v v v v v v v v v v v v v v v v v v v v v v v v v v v v v v v v v v v v v v v v v v v v v v v v v v v v v v v v v v v v v v ",
"v v v v v v v v v v v v v v v v v v v v v F J C C C C C C C J F v v v v v v v v v v v v v v v v v v v v v v v v v v v v v v v v ",
"v v v v v v v v v v v v v v v v v v v v v D &.^ ^ 1.,.,.,.1.&.J v v v v v v v v v v v v v v v v v v v v v v v v v v v v v v v v ",
"v v v v v v v v v v v v v v v v v v v v M V %.<.5./.:X:X{./.4.&.$.$.J v v v v v v v v v v v v v v v v v v v v v v v v v v v v v ",
"v v v v v v v v v v v v v v v v v v v v B P R <.!.{.6X7X7X<X(.5.2.<.$.D c v v H b v v v v v v v v v v v v v v v v v v v v v v v ",
"v v v v v v v v v v v v v v v v v v v v B - I R <.!.{.2X9X6X2X2X{.~.3.&.J v v b G v v v v v v v v v v v v v v v v v v v v v v v ",
"v v v v v v v v v v v v v v v v v v v v N q q , R 2.^..X2X7X9X9X2X(.5.%.$.D F c c v v v v v v v v v v v v v v v v v v v v v v v ",
"v v v v v v v v v v v v v v v v v v v v l D D N , 1.^.(.{.2X9X9X2X(.5.! T q D c k c H F.H v v v v v v v v v v v v v v v v v v v ",
"v v v v v v v v v v v v v v v v v v v v v c M B : E 5.!.(.<X2X2X.X!.<.R I : n M l v G H b v v v v v v v v v v v v v v v v v v v ",
"v v v v v v v v v v v v v v v v v v v v v D q - - T 1.5.^.(.(.(.!.,.R P - - - q D G G v v v v v v v v v v v v v v v v v v v v v ",
"v v v v v v v v v v v v v v v v v v v v v D , I T 1.5.5.4.4.3.<.%.R T R q 9 9 9 B Z n n m D v v v v v v v v v v v v v v v v v v ",
"v v v v v v v v v v v v v v v v v v c l l D , U ! 2.~.4.,.<.,.E U U R ! w 4 4 0 : P P - : M v v v v v v v v v v v v v v v v v v ",
"v v v v v v v v v v v v v v v v v v M V V q : : e Q 2.5.!.{.1X:X(.5.=.y e.7 8 0 W E E U : M v v v v v v v v v v v v v v v v v v ",
"v v v v v v v v v v v v v v v v v v m - U T : 9 8 t Q 7.C.>X4X4X>XC.b.p.y.w.r w ,.,.^ T : M v v v v v v v v v v v v v v v v v v ",
"v v v v v v v v v v v v v v v v v v m P 1.3.w 8 q.e.e.d.S.S.S.S.S.S.v.l.a.e.~ ,.9.5.1.T : M v v v v v v v v v v v v v v v v v v ",
"v v v v v v v v v v v v v v v v v v m P 2.~.&.A u e.w.a.l.z.z.z.z.z.A.N.V.M.7.4.9.2.E W B D v v v v v v v v v v v v v v v v v v ",
"v v v v v v v v v v v v v v v v v v m P 2.^.).9.,.~ w.w.y.l.z.z.z.z.V./.1X2X{.!.<.E P n l v v v v v v v v v v v v v v v v v v v ",
"v v v v v v v v v v v v v v v v v v D n &.2.4.5.4.7.-.b.b.Z.E.E.E.E.>X<X<X<X~.2.E W n D v v v v v v v v v v v v v v v v v v v v ",
"v v v v v v v v v v v v v v v v v v v v B I E <.!.^.^.^.(.2X9X9X9X9X9X7X.X!.<.E I B v v v v v v v v v v v v v v v v v v v v v v ",
"v v v v v v v v v v v v v v v v v v v v f.-.q I [ <.3.!.(.{.<X<X<X<X{./.9.2.E W w A v v v v v v v v v v v v v v v v v v v v v v ",
"v v v v v v v v v v v v v v v v v v v v g.V.e # ; U E 2.9.9.9.!.!.!.2.! ! E I q A K v v v v v v v v v v v v v v v v v v v v v v ",
"v v v v v v v v v v v v v v v v v v v v f.K @   # 1 & ; > > I R E E T U U P & < D x v v v v v v v v v v v v v v v v v v v v v v ",
"v v v v v v v v v v v v v v v v v v v v v k p o   1 * 9 e e e Q #.#.Q q : ; * p k v v v v v v v v v v v v v v v v v v v v v v v ",
"v v v v v v v v v v v v v v v v v v v v v v k d X * A m.N.N.N.B.B.B.m.A 9 X d k v v v v v v v v v v v v v v v v v v v v v v v v ",
"v v v v v v v v v v v v v v v v v v v v v v v f X * e b.N.N.N.N.N.N.u.e * X f v v v v v v v v v v v v v v v v v v v v v v v v v ",
"v v v v v v v v v v v v v v v v v v v v v v v f X     e u.u.u.u.u.u.e     X f v v v v v v v v v v v v v v v v v v v v v v v v v ",
"v v v v v v v v v v v v v v v v v v v v v c h g 3 2 2 r y y y y y y r 2 2 3 g h c v v v v v v v v v v v v v v v v v v v v v v v ",
"v v v v v v v v v v v v v v v v v v v v v x 7 5 5 5 6 6 6 7 7 7 7 6 6 6 5 5 5 7 x v v v v v v v v v v v v v v v v v v v v v v v ",
"v v v v v v v v v v v v v v v v v v v v h g r.r.6 q.t.t.p.s.c.c.s.p.t.t.q.6 r.r.g h v v v v v v v v v v v v v v v v v v v v v v ",
"v v v v v v v v v v v v v v v v v v v v g 6 t.t.q.p.j.k.k.Y.R.R.Y.x.k.j.p.q.t.t.6 g v v v v v v v v v v v v v v v v v v v v v v ",
"v v v v v v v v v v v v v v v v v v v v g 5 6 e.t.j.Y.Y.Y.T.R.R.T.Y.Y.Y.j.t.e.6 5 g v v v v v G F.b v v v v v v v v v v v v v v ",
"v v v v v v v v v v v v v v v v v v F :.;.Z w t r.s.c.A.D.D.D.D.D.D.A.c.s.r.t w Z ;.:.F v v v v H H G v v v H F.b v v v v v v v ",
"v v v v v v v v v v v v v v v v v v H.G.G.+.' T r 6 7 p.h.h.h.h.h.h.p.7 6 r T ' +.G.G.H.v v v v c v G v v b F.b v v v v v v v v ",
"v v v v v v v v v v v v v v v v v v H.'.oXXXQ.] q q q =.M.M.M.M.M.M.=.q q V ] Q.XXoX'.H.v v v v v c k c b G G v v v v v v v v v ",
"v v v v v v v v v v v v v v v v v v H.'.+X&XoXO.{ _ _ o.'.'.'.'.'.'.o._ _ { O.oX&X#X'.H.v v v v v v v v b G c c v v v v v v v v ",
"v v v v v v v v v v v v v v v v v v ;...OX;X=X X} { o.].#X#X#X#X#X#X].o.{ }  X=X;XOX..;.v v v v v v v v c k c v v v v v v v v v ",
"v v v v v v v v v v v v v v v v v v S _ |.-X-X@X| X._.OX&X;X-X-X;X&XOX_.X.| @X-X-X|._ S v v v v v v v v v v v v v v v v v v v v ",
"v v v v v v v v v v v v H b v v v v S _ |.-X-X@X#.&._.].XX=X-X-X=XXX]._.&.#.@X-X-X|._ S v v v v v v v v v v v v v v v v v v v v ",
"v v v v v v v v v v v v b G v v v v S Y }.8X8X:X=.$.0.0.L.3X5X5X3XL.0.0.$.=.:X8X8X}.Y S v v v v v v v v v v v v v v v v v v v v ",
"v v v v v v v v G F.H b c c v v v v a $ >.E.E.P.K.&.t i.n.U.W.W.U.n.i.t &.K.P.E.E.>.$ a v v v v v v v v v v v v v v v v v v v v ",
"v v v v v v v v v G H G c k c H F.H a   b.U.B.C.J.8.$.-.M.I.,X,XI.M.-.$.8.J.C.B.U.b.  a v v v v v v v v v v v v v v v v v v v v ",
"v v v v v v b H G c v G v c v G H b a   b.S.m.>.J._._._.[.%X;X;X%X[._._._.J.>.m.U.b.  a v v v v v v v v v v v v v v v v v v v v ",
"v v v v v v v b H G c c v b G G v v j a m A e V X.O._.oX+X&X-X-X&X+XoX_.O.X.V e A m a j v v v v v v v v v v v v v v v v v v v v ",
"v v v v v v v c c G v c k c b c c v v v p     $ (  .`.OX;X;X;X*X*X*XOX`. .( $     p v v v v v v v v v v v v v v v v v v v v v v ",
"v v v v v v v v c c v v c l l c v v v v z m i L ` '  .`.XXXXXXXXXXXX`. .' L $ o a z v v v v v v v v v v v v v v v v v v v v v v ",
"v v v v v v v v v c c b G v v v v v v v v D i Y [ [ %.0.K.8.8.@.+.8.] [ Y Y = p k v v v v v v v v v v v v v v v v v v v v v v v ",
"v v v v v v v v v v v b c c v v v v v v v z < & 0 y d.d.n.A w = , w t 0 * & a z c v v v v v v v v v v v v v v v v v v v v v v v ",
"v v v v v v v v v v v c c v v v v v v v v z @ O 6 p.x.x.j.p.5 . . 8 6 q.2 X p f c v v v v v v v v v v v v v v v v v v v v v v v ",
"v v v v v v v v v v v v v v v v v v v v v z @ 2 t.x.T.T.Y.j.r.O . 8 r.a.0     @ k v v v v v v v v v v v v v v v v v v v v v v v ",
"v v v v v v v v v v v v v v v v v v v v f p = , *.n.A.Y.T.x.t.O 2 e.t.h.t % # X p f v v v v v v v v v v v v v v v v v v v v v v ",
"v v v v v v v v v v v v v v v v v v v l + $ L _ _ *.a.A.T.x.r.O 0 a.h.a.*.( $     + c v v v v v v v v v v v v v v v v v v v v v ",
"v v v v v v v v v v v v v v v v v v f + = L  . ._ [ *.=.>.=.#.Y T #.*.*.0...) %   + c v v v v v v v v v v v v v v v v v v v v v ",
"v v v v v v v v v v v v v v v v v v a   % { O.`...} } } } { ' _ _ ' { { o.O.' > & p v v v v v v v v v v v v v v v v v v v v v v ",
"v v v v v v v v v v v v v v v v v v a   % { O.].OX$X$X$XOX[.o.{ { O.O.O...' % = d z v v v v v v v v v v v v v v v v v v v v v v ",
"v v v v v v v v v v v v v v v v v v f @ > ) ..'.#X&X-X-X*XXXO.` ` ......` Y = s l v v H F.b v v v v v v v v v v v v v v v v v v ",
"v v v v v v v v v v v v v v v v v v l z + $ )  .'.+X-X-X*XXX+.> $ $ $ $ $ & d F v v b F.b v v v v v v v v v v v v v v v v v v v ",
"v v v v v v v v v v v v v v v v v v v v d + > ) ' @.[.[.[.@.` $ X @ + + + p j k c b G G v v v v v v v v v v v v v v v v v v v v ",
"v v v v v v v v v v v v v v v v v v v v v z @                   @ k c c c v v v v b G c c v v v v v v v v v v v v v v v v v v v ",
"v v v v v v v v v v v v v v v v v v v v v l f a a a a a a a a a f c v v v v v v v c k c v v v v v v v v v v v v v v v v v v v v ",
"v v v v v v v v v v v v v v v v v v v v v v v v v v v v v v v v v v v v v v v v v v v v v v v v v v v v v v v v v v v v v v v v ",
"v v v v v v v v v v v v v v v v v v v v v v v v v v v v v v v v v v v v v v v v v v v v v v v v v v v v v v v v v v v v v v v v ",
"v v v v v v v v v v v v v v v v v v v v v v v v v v v v v v v v v v v v v v v v v v v v v v v v v v v v v v v v v v v v v v v v "
};
