/* XPM */
static const char *UF9VcF8y[] = {
/* columns rows colors chars-per-pixel */
"64 64 226 2 ",
"   c #191A19",
".  c #271C1A",
"X  c #3C1E18",
"o  c #232318",
"O  c #2A2B19",
"+  c #2A211D",
"@  c #37361A",
"#  c #362A1F",
"$  c #1A2428",
"%  c #1C2C32",
"&  c #1D343D",
"*  c #272525",
"=  c #372923",
"-  c #2D263D",
";  c #2C2838",
":  c #342B3B",
">  c #2A3437",
",  c #3A3838",
"<  c #31362A",
"1  c #1C1E23",
"2  c #51301B",
"3  c #652A1B",
"4  c #7A2C1B",
"5  c #742919",
"6  c #7A371C",
"7  c #6F3419",
"8  c #452928",
"9  c #483529",
"0  c #59392A",
"q  c #482D34",
"w  c #463937",
"e  c #573A35",
"r  c #572C25",
"t  c #683529",
"y  c #773E32",
"u  c #6C382C",
"i  c #394123",
"p  c #494B1A",
"a  c #45441B",
"s  c #5A5C1B",
"d  c #53551A",
"f  c #4F511A",
"g  c #6E501A",
"h  c #5E611A",
"j  c #676B19",
"k  c #6A6D1C",
"l  c #64671A",
"z  c #6D721B",
"x  c #72751B",
"c  c #76791F",
"v  c #726A1B",
"b  c #49482A",
"n  c #524D2A",
"m  c #5B5B25",
"M  c #56542A",
"N  c #494536",
"B  c #5D473C",
"V  c #465B39",
"C  c #5C5B3B",
"Z  c #69402F",
"A  c #6B4336",
"S  c #784936",
"D  c #745531",
"F  c #4C6038",
"G  c #5A6734",
"H  c #636423",
"J  c #676A21",
"K  c #686B28",
"L  c #796824",
"P  c #777A20",
"I  c #797C22",
"U  c #737524",
"Y  c #636332",
"T  c #6D7121",
"R  c #1F3D49",
"E  c #2E2741",
"W  c #322B45",
"Q  c #39324F",
"!  c #39334A",
"~  c #3B3552",
"^  c #3C3C54",
"/  c #233D47",
"(  c #543D48",
")  c #453B57",
"_  c #413847",
"`  c #673D41",
"'  c #453F60",
"]  c #1F4351",
"[  c #1F404E",
"{  c #354549",
"}  c #204655",
"|  c #214959",
" . c #2C4753",
".. c #334755",
"X. c #26525B",
"o. c #385257",
"O. c #24444E",
"+. c #38655F",
"@. c #275C65",
"#. c #275965",
"$. c #2A636B",
"%. c #2C696C",
"&. c #326263",
"*. c #2D6E71",
"=. c #337978",
"-. c #347074",
";. c #564549",
":. c #575548",
">. c #47445A",
",. c #47534A",
"<. c #6E564F",
"1. c #464261",
"2. c #494564",
"3. c #4A4B68",
"4. c #484A65",
"5. c #4E526D",
"6. c #52546B",
"7. c #545B75",
"8. c #555D79",
"9. c #565A76",
"0. c #504D68",
"q. c #695A67",
"w. c #476A65",
"e. c #58657C",
"r. c #467477",
"t. c #587071",
"y. c #736661",
"u. c #777271",
"i. c #5D6355",
"p. c #822F1D",
"a. c #983C1C",
"s. c #86321D",
"d. c #883A26",
"f. c #973924",
"g. c #A93D27",
"h. c #A4421E",
"j. c #884026",
"k. c #894A3A",
"l. c #885337",
"z. c #9A563B",
"x. c #94492C",
"c. c #A94228",
"v. c #B6462A",
"b. c #AD5034",
"n. c #A86738",
"m. c #CB4E33",
"M. c #C85434",
"N. c #C95B2B",
"B. c #DC6831",
"V. c #D8673C",
"C. c #C4723D",
"Z. c #CE6536",
"A. c #955945",
"S. c #895C52",
"D. c #9A6147",
"F. c #946C57",
"G. c #AC6C4C",
"H. c #A36C4A",
"J. c #B97958",
"K. c #AB7254",
"L. c #867676",
"P. c #B17968",
"I. c #D87842",
"U. c #C9754D",
"Y. c #E27C45",
"T. c #7D8025",
"R. c #3D867D",
"E. c #4A867C",
"W. c #6D8176",
"Q. c #978774",
"!. c #AF8666",
"~. c #F09850",
"^. c #F09750",
"/. c #EC8F4D",
"(. c #D08860",
"). c #C69678",
"_. c #C88B68",
"`. c #CEAA7B",
"'. c #CE865F",
"]. c #3B7985",
"[. c #5B6A82",
"{. c #5C6882",
"}. c #5F7089",
"|. c #63758D",
" X c #667289",
".X c #687B92",
"XX c #697288",
"oX c #348480",
"OX c #368B85",
"+X c #3B8B87",
"@X c #399189",
"#X c #488999",
"$X c #449B99",
"%X c #55968F",
"&X c #78889D",
"*X c #6D8692",
"=X c #46A09E",
"-X c #519AA6",
";X c #7B8DA0",
":X c #7F94A6",
">X c #4CA6A6",
",X c #52ACAE",
"<X c #5BADB6",
"1X c #5AB5BB",
"2X c #57B3B7",
"3X c #72B0B5",
"4X c #6DB9C7",
"5X c #65C2CB",
"6X c #6CCAD5",
"7X c #76CAD7",
"8X c #76D6E5",
"9X c #78D8E8",
"0X c #78D1E0",
"qX c #828E9F",
"wX c #A49490",
"eX c #8297A8",
"rX c #8B95A3",
"tX c #94A8B6",
"yX c #9CB2BE",
"uX c #8FA4B3",
"iX c #B3B1B0",
"pX c #9FB5C1",
"aX c #A7BCC6",
"sX c #86C6CD",
"dX c #8BCED0",
"fX c #ACC2CB",
/* pixels */
"x x x x x x x x x x x x x x x x x x x x x x x x x x x x x x x x x x x x x x x x x x x x x x x x x x x x x x x x x x x x x x x x ",
"x x x x x x x x x x x x x x x x x x x x x x x x x x x x x x x x x x x x x x x x x x x x x x x x x x x x x x x x x x x x x x x x ",
"x x x x x x x x x x x x x x x x x x x x x x x x x x x x x x x x x x x x x x x x x x x x x x x x x x x x x x x x x x x x x x x x ",
"x x x x x x x x x x x x x x x x x x x x x x x T Y C C C C C C C Y T x x x x x x x x x x x x x x x x x x x x x x x x x x x x x x ",
"x x x x x x x x x x x x x x x x x x x x x x x K :.' 1.1.2.2.2.1.,.K x x x x x x x x x x x x x x x x x x x x x x x x x x x x x x ",
"x x x x x x x x x x x x x x x x x x x x x x m N >.3.8.XXqXqX&X X7.:.:.:.Y x x x x x x x x x x x x x x x x x x x x x x x x x x x ",
"x x x x x x x x x x x x x x x x x x x x x x N E ~ 4.{.;XpXaXaXeX.X8.6.3.:.K T I c x x x x x x x x x x x x x x x x x x x x x x x ",
"x x x x x x x x x x x x x x x x x x x x x x N - W ~ 4.{.&XtXfXpXtXuX&X}.6.:.Y c P x x x x x x x x x x x x x x x x x x x x x x x ",
"x x x x x x x x x x x x x x x x x x x x x x M w w , ^ 5.|.:XyXaXfXfXtX.X8.>.C m k x x x x x x x x x x x x x x x x x x x x x x x ",
"x x x x x x x x x x x x x x x x x x x x x x k J J M , 4.|..X&XtXfXfXtX.X8.) ! , m z I T.I x x x x x x x x x x x x x x x x x x x ",
"x x x x x x x x x x x x x x x x x x x x x x x z m b : ^ 8.[..XeXuXuX;X{.3.~ W : b m U I c x x x x x x x x x x x x x x x x x x x ",
"x x x x x x x x x x x x x x x x x x x x x x x J w - - Q 1.8.|..X.X.X{.2.~ - - - - w K x x x x x x x x x x x x x x x x x x x x x ",
"x x x x x x x x x x x x x x x x x x x x x x x J w W Q 1.8.7.7.7.7.3.>.~ Q Q q 8 8 9 b b b H x x x x x x x x x x x x x x x x x x ",
"x x x x x x x x x x x x x x x x x x x x x x z H , W ) 6.}.7.2.3.2.^ ! W Q ) e 3 3 r : E E n k x x x x x x x x x x x x x x x x x ",
"x x x x x x x x x x x x x x x x x x x x x x M w : : q ( 5.8.{.&XrXqX.X8.<.y d.6 3 r _ ~ ~ _ N H x x x x x x x x x x x x x x x x ",
"x x x x x x x x x x x x x x x x x x x x k H N W : 8 3 t ( q.L.wXiXiXwXL.S.c.h.a.t e 2.2.' Q : m x x x x x x x x x x x x x x x x ",
"x x x x x x x x x x x x x x x x x x x x m , ! ) q 3 s.d.d.b.U.U.U.U.U.U.Z.N.v.d.` 2.e.7.1.Q : m x x x x x x x x x x x x x x x x ",
"x x x x x x x x x x x x x x x x x x x x n - >.0.;.A y d.a.v.N.B.B.B.B.B.U.G.K.F.u. X|.e.1.Q : m x x x x x x x x x x x x x x x x ",
"x x x x x x x x x x x x x x x x x x x x n - 5. X Xe.2.` a.a.h.N.B.B.B.B.K.XXrXyXaXtX*Xe.1.Q : m x x x x x x x x x x x x x x x x ",
"x x x x x x x x x x x x x x x x x x x x n E 1.e.}.}.8.q.<.S.S.P.).).).).wXeXpXaXtX;X{.3.~ N n H x x x x x x x x x x x x x x x x ",
"x x x x x x x x x x x x x x x x x x x x n - ~ 2.e.|.|.|.|.|..XtXfXfXfXfXfXfXaXyX&X{.2.~ - n x x x x x x x x x x x x x x x x x x ",
"x x x x x x x x x x x x x x x x x x x x H M , : ^ 4.5.e.|.|..X&XeXeXeXeXeXeX&X X0.>.Q w M H x x x x x x x x x x x x x x x x x x ",
"x x x x x x x x x x x x x x x x x x x x x x a * ; E ~ 4.e.e.e.e.e.[.[.[.[.[.3.) ! : ; b x x x x x x x x x x x x x x x x x x x x ",
"x x x x x x x x x x x x x x x x x x x x x x D 0 = 1 * ; > > > > > ~ ^ ^ ^ ^ Q ! e e * b z x x x x x x x x x x x x x x x x x x x ",
"x x x x x x x x x x x x x x x x x x x x x x L D # . = = = 8 9 9 e ( ;.;.( q q q e 0 @ p x x x x x x x x x x x x x x x x x x x x ",
"x x x x x x x x x x x x x x x x x x x x x x x l @ = Z S S A.J.J.J.J.J.J.D.S S A 8 @ s k x x x x x x x x x x x x x x x x x x x x ",
"x x x x x x x x x x x x x x x x x x x x x x x k p 9 0 Z l.G.(.(.(.(.(.(.G.l.Z 0 9 p k x x x x x x x x x x x x x x x x x x x x x ",
"x x x x x x x x x x x x x x x x x x x x x x x x x s O 9 l.G.(.(.(.(.(.(.G.l.9 O s x x x x x x x x x x x x x x x x x x x x x x x ",
"x x x x x x x x x x x x x x x x x x x x x x d a g g 6 d.b.b.z.z.z.z.z.z.x.6 r 2 h x x x x x x x x x x x x x x x x x x x x x x x ",
"x x x x x x x x x x x x x x x x x x x x z l @ . 3 f.v.m.m.c.6 6 6 4 4 4 4 5 5 7 g z x x x x x x x x x x x x x x x x x x x x x x ",
"x x x x x x x x x x x x x x x x x x x x d @ 2 3 f.v.I.Y.Y.I.C.C.C.v.g.g.g.g.s.3 N F T x x x x x x x x x x x x x x x x x x x x x ",
"x x x x x x x x x x x x x x x x x x x x b $ 9 y c.M.I./.^.~.~.~./.V.M.m.v.v.k.<.w.w.G T x x x x x x x x x x x x x x x x x x x x ",
"x x x x x x x x x x x x x x x x x x x x V R &.w.S f.M.I.^.~.~.^././.V.m.g.d.u.3X4X-X+.F x x x P T.c x x x x x x x x x x x x x x ",
"x x x x x x x x x x x x x x x x x x j d ,.].+XR.i.S f.b.C.I.Y.Y.Y.Y.Z.c.A.y.3X8X6X-X@.,.z x x x I I P x x x I T.c x x x x x x x ",
"x x x x x x x x x x x x x x x x x x d O r.6X>X+XOXw.u 4 6 c.m.m.m.m.c.p.u.7X0X6X>XoX#.V z x x x z x P x x c T.c x x x x x x x x ",
"x x x x x x x x x x x x x x x x x x d o r.8X5X,X$X-.;.N :.L.wXwXQ.F.<.e t.1X1X1X2X,X#Xr.F K x x x z j z c P P x x x x x x x x x ",
"x x x x x x x x x x x x x x x x x z d o r.8X8X6X>X=.X.$.OX1X9X9X6X=X=.| %.OX@X$X5X9X8X-X| F x x x x x x c P z z x x x x x x x x ",
"x x x x x x x x x x x x x x x x l p n D W.,X,X$X&.{ w ,.+X1X9X9X6X=X=.X.#.%.=.$X5X6X2X+X| F x x x x x x z j z x x x x x x x x x ",
"x x x x x x x x x x x x x x x x h O B J.Q.%XE.-.> . r :.E.3XdXdX3X%Xw...O.] %.@X1X1X%Xr.o.C x x x x x x x x x x x x x x x x x x ",
"x x x x x x x x x x x x I c x x h O B U.!.!.F.:.= * , ;.A.!.`.`.).K.k.t = $ O.@.-.t.Q.!.K.D.l.L x x x x x x x x x x x x x x x x ",
"x x x x x x x x x x x x c P x x h O 0 G.J.J.D.S < & X.q.P.).`.`.).P.F.A , $ & / { <.J.(.(.G.l.L x x x x x x x x x x x x x x x x ",
"x x x x x x x x P T.I c z z x x l O 8 l.z.z.l.S { X.=.-XsXsXdXdXsXsX3XE.&.R % * B A.U.(.(.G.l.L x x x x x x x x x x x x x x x x ",
"x x x x x x x x x P I P z j z I U p 9 0 0 0 0 e { @.oX,X8X9X9X9X0X5X,X@X*.} % + Z A.G.J.(.G.l.L x x x x x x x x x x x x x x x x ",
"x x x x x x c I P z x P x z x P I x d o       $ R @.oX,X8X9X9X9X6X=X@X@X*.} % + Z l.l.H.'.G.l.L x x x x x x x x x x x x x x x x ",
"x x x x x x x c I P z z x c P P x x l p p p p p 9 ,.&.].#X#X#X#X#X-.%.%.o.w * . = 0 S A.G.D.L L x x x x x x x x x x x x x x x x ",
"x x x x x x x z z P x z j z c z z x x x x x x v 7 0 { o.o... . . . .....e 5 X     = S l.l.L x x x x x x x x x x x x x x x x x x ",
"x x x x x x x x z z x x z k k z x x x x x x x v 7 j.H.K.K.D.k.u 0 k.k.k.d.5 X o a s L L L L x x x x x x x x x x x x x x x x x x ",
"x x x x x x x x x z z c P x x x x x x x x x v v 6 x.C.I.I.M.g.s.4 g.v.v.d.r = * p l z x x x x x x x x x x x x x x x x x x x x x ",
"x x x x x x x x x x x c z z x x x x x x x x g 6 g.c.j.j.j.d.p.4 5 4 p.p.e { / / < a l x x x x x x x x x x x x x x x x x x x x x ",
"x x x x x x x x x x x z z x x x x x x x x x g 4 f.x.y.y.y.y.y.A e B B B ,.| | [ $ @ l x x x x x x x x x x x x x x x x x x x x x ",
"x x x x x x x x x x x x x x x x x x x x x x g 5 5 <.3X7X7X7X4Xr.X.=.R.R.*.| | [ $ @ l x x x x x x x x x x x x x x x x x x x x x ",
"x x x x x x x x x x x x x x x x x x x x x x M ;.y.*X<X1X1X1X,X-.X.$.*.*.#.} R > @ f k x x x x x x x x x x x x x x x x x x x x x ",
"x x x x x x x x x x x x x x x x x x x x x z ,.@.1X5X$X@X@X@XoX$.| } } } } } % O s x x x x x x x x x x x x x x x x x x x x x x x ",
"x x x x x x x x x x x x x x x x x x x x G ,.+.=.$X>X@X@X@X@XoX$.] & % % % % i d j x x x x x x x x x x x x x x x x x x x x x x x ",
"x x x x x x x x x x x x x x x x x x x x V } *.OXoXoXoXoXoXoX=.@.R $   o o O d x x x x x x x x x x x x x x x x x x x x x x x x x ",
"x x x x x x x x x x x x x x x x x x x x p % &.oX*.@.@.@.@.@.#.| R $ O d s H k x x x x x x x x x x x x x x x x x x x x x x x x x ",
"x x x x x x x x x x x x x x x x x x x x p   X.-.#.| | | | | } R & $ @ k x I I P x x x I T.c x x x x x x x x x x x x x x x x x x ",
"x x x x x x x x x x x x x x x x x x x x p   R X.| | | | | | ] % 1   @ k x z x P x x c T.c x x x x x x x x x x x x x x x x x x x ",
"x x x x x x x x x x x x x x x x x x x x s @ < & & & & & & & & $ o @ f z x x z j z c P P x x x x x x x x x x x x x x x x x x x x ",
"x x x x x x x x x x x x x x x x x x x x x k @                   O s x x x x x x x c P z z x x x x x x x x x x x x x x x x x x x ",
"x x x x x x x x x x x x x x x x x x x x x x s p p p p p p p p p f k x x x x x x x z j z x x x x x x x x x x x x x x x x x x x x ",
"x x x x x x x x x x x x x x x x x x x x x x x x x x x x x x x x x x x x x x x x x x x x x x x x x x x x x x x x x x x x x x x x ",
"x x x x x x x x x x x x x x x x x x x x x x x x x x x x x x x x x x x x x x x x x x x x x x x x x x x x x x x x x x x x x x x x ",
"x x x x x x x x x x x x x x x x x x x x x x x x x x x x x x x x x x x x x x x x x x x x x x x x x x x x x x x x x x x x x x x x "
};
