/* XPM */
static const char *UXVpdF81[] = {
/* columns rows colors chars-per-pixel */
"64 64 200 2 ",
"   c #341A19",
".  c #391D1B",
"X  c #3C201C",
"o  c #44291B",
"O  c #43241B",
"+  c #48381C",
"@  c #472C27",
"#  c #4E3228",
"$  c #573928",
"%  c #583F31",
"&  c #4A3836",
"*  c #574E1C",
"=  c #52441E",
"-  c #5A511D",
";  c #4F411F",
":  c #605B1E",
">  c #6E6F1F",
",  c #73761D",
"<  c #5F4D2A",
"1  c #574424",
"2  c #5B4234",
"3  c #5D463A",
"4  c #5D493D",
"5  c #5F5722",
"6  c #604A2B",
"7  c #685C28",
"8  c #634B3D",
"9  c #614935",
"0  c #6A5A37",
"q  c #6B6A23",
"w  c #6C6529",
"e  c #6A7122",
"r  c #737720",
"t  c #757924",
"y  c #73732A",
"u  c #767B29",
"i  c #7A7D2B",
"p  c #747533",
"a  c #7A7C32",
"s  c #706F36",
"d  c #5E4B41",
"f  c #5E5045",
"g  c #624E43",
"h  c #634E4A",
"j  c #6B5344",
"k  c #64534B",
"l  c #6A564B",
"z  c #6D584C",
"x  c #645549",
"c  c #715C4E",
"v  c #655A52",
"b  c #6B5D53",
"n  c #6B5F5A",
"m  c #655657",
"M  c #705D54",
"N  c #65614D",
"B  c #6F6F40",
"V  c #666353",
"C  c #6B6154",
"Z  c #6E6B56",
"A  c #6C645C",
"S  c #6B6959",
"D  c #726156",
"F  c #72655C",
"G  c #75695E",
"H  c #574C7F",
"J  c #5E566B",
"K  c #635D61",
"L  c #6B6560",
"P  c #6E6964",
"I  c #6C666E",
"U  c #726762",
"Y  c #746B63",
"T  c #7A6D63",
"R  c #736D6A",
"E  c #796E69",
"W  c #7B7067",
"Q  c #76726C",
"!  c #7B736C",
"~  c #7D796E",
"^  c #7C7672",
"/  c #7E7D72",
"(  c #7E7B7D",
")  c #797377",
"_  c #81766F",
"`  c #817D74",
"'  c #827E79",
"]  c #807771",
"[  c #7C802D",
"{  c #7F8226",
"}  c #7F8076",
"|  c #818333",
" . c #818175",
".. c #898175",
"X. c #84837A",
"o. c #89867D",
"O. c #8A897E",
"+. c #4938A5",
"@. c #432DB5",
"#. c #4935BE",
"$. c #4E3894",
"%. c #2B66AA",
"&. c #2E68AC",
"*. c #346EB1",
"=. c #3463B6",
"-. c #3771B4",
";. c #3A73B6",
":. c #3E76B9",
">. c #3F78BA",
",. c #326BAF",
"<. c #574D81",
"1. c #53478B",
"2. c #645798",
"3. c #7D7D81",
"4. c #6F679B",
"5. c #5343B3",
"6. c #5949B9",
"7. c #5D50AE",
"8. c #6255A5",
"9. c #437CBD",
"0. c #746BA6",
"q. c #371DD6",
"w. c #3F29C1",
"e. c #3B22CC",
"r. c #3B23D0",
"t. c #3C2CD6",
"y. c #412BCB",
"u. c #4130DA",
"i. c #4633CB",
"p. c #3F5EC5",
"a. c #4947D9",
"s. c #4C4FD9",
"d. c #467FC0",
"f. c #526AD7",
"g. c #514FE0",
"h. c #616CE4",
"j. c #7E828B",
"k. c #7B8597",
"l. c #7A8BA5",
"z. c #7A93BA",
"x. c #7C91AB",
"c. c #4C83C4",
"v. c #548BCB",
"b. c #598FCF",
"n. c #5D93D1",
"m. c #5A90CF",
"M. c #7E9AC5",
"N. c #6197D5",
"B. c #6399D6",
"V. c #669BD9",
"C. c #699EDB",
"Z. c #6CA1DE",
"A. c #7EA2D1",
"S. c #7193E9",
"D. c #6FA4E0",
"F. c #71A6E3",
"G. c #75A9E5",
"H. c #7AAEE9",
"J. c #7AACE7",
"K. c #7EB1EC",
"L. c #878680",
"P. c #8A8681",
"I. c #8A8982",
"U. c #8B8B84",
"Y. c #8D8D87",
"T. c #8C8B84",
"R. c #8D8E89",
"E. c #848686",
"W. c #908D86",
"Q. c #908F8A",
"!. c #8F908B",
"~. c #919086",
"^. c #92928D",
"/. c #818A9B",
"(. c #808592",
"). c #8C959A",
"_. c #949591",
"`. c #999994",
"'. c #94999B",
"]. c #8E9BA5",
"[. c #8694A4",
"{. c #929DA5",
"}. c #8B9EB2",
"|. c #829BB9",
" X c #818FA4",
".X c #8AA2BA",
"XX c #95A7BB",
"oX c #809FC6",
"OX c #88A7CC",
"+X c #85AAD3",
"@X c #84ACDB",
"#X c #89ABD2",
"$X c #8CB2DE",
"%X c #82AFE3",
"&X c #86B3E6",
"*X c #83B4EB",
"=X c #88B6EC",
"-X c #83B6F1",
";X c #86B9F3",
":X c #8ABDF5",
/* pixels */
"t t t t t t t t t t t t t t t u u u u u u u u u B K <.+.+.w.q.q.q.q.q.w.+.+.H n s t t t t t t t t t r r r , , , , , , , , , , , ",
"t t  ./ / / / } / / / / / } u u u u u u u K 1.w.q.q.q.q.q.q.q.q.q.q.q.q.q.q.q.q.q.y.7.4.O.O.t t t t / / / / / / / / / / ~ / , , ",
"t X./ / / / } / / / / } }  .X.u u u p <.w.q.q.q.q.q.q.q.q.q.q.q.q.q.q.q.q.q.q.q.q.q.q.q.y.8.R.t t X./ / / / / / / ~ ~ ~ ~ / X., ",
"t X./ / / / / / / }  . . . .L.u p <.q.q.q.q.q.q.q.q.q.q.q.q.q.q.q.q.q.q.q.q.q.q.q.q.q.q.q.q.q.H p X./ / / / / / / / / ~ / / X., ",
"t X./ / / / / / }  . . . . .I.K e.q.q.q.q.q.q.q.q.q.q.q.q.q.q.q.q.q.q.q.q.q.q.q.q.q.q.q.q.q.q.q.e.4./ / / / / / / / ~ ~ / / X., ",
"t X./ / / / } }  . . . . . .5.q.q.q.q.q.q.q.q.q.q.q.q.q.q.q.q.q.q.q.q.q.q.q.q.q.q.q.q.q.q.q.q.q.q.q.5./ / / / / / / / ~ / / X., ",
"t X./ / } } }  . . . . . .5.q.q.q.q.q.q.q.q.q.q.q.q.q.q.q.q.q.q.q.q.q.q.q.q.q.q.q.q.q.q.q.q.q.q.q.q.q.5./ / / / / / / / / / X., ",
"t X.} } } }  . . . . . .5.q.q.q.q.q.q.q.q.q.q.q.q.q.q.q.q.q.q.q.q.q.q.q.q.q.q.q.q.q.q.q.q.q.q.q.q.q.q.q.5./ / / / / / / / / X., ",
"t L.} } }  . . . . . .8.q.q.q.q.q.q.q.q.q.q.q.q.q.q.q.q.q.q.q.q.q.q.q.q.q.q.q.q.q.q.q.q.q.q.q.q.q.q.q.q.q.2./ / / / / / / / X., ",
"t L.} }  . . . . . .3.r.q.q.q.q.q.q.q.q.q.q.q.q.q.q.q.q.q.q.q.q.q.q.q.q.q.q.q.q.q.q.q.q.q.q.q.q.q.q.q.q.q.r.( / / / / / / / X., ",
"t L. . . . . . . . .8.q.q.q.q.q.q.q.q.q.q.q.q.q.q.q.q.q.q.q.q.q.q.q.q.q.q.q.q.q.q.q.q.q.q.q.q.q.q.q.q.q.q.q.2./ / / / / / / X., ",
"t L.}  . . . . . . .i.q.q.q.q.q.q.q.q.q.q.q.q.q.q.q.q.q.q.q.q.q.q.q.q.q.q.q.q.q.q.q.q.q.q.q.q.q.q.q.q.q.q.q.#./ / / / / / / X., ",
"t L. . . . . . . .X.q.q.q.q.q.q.q.q.q.q.q.q.q.q.q.q.q.q.q.q.q.q.q.q.q.q.q.q.q.q.q.q.q.q.q.q.q.q.q.q.q.q.q.q.q./ / / / / / / X., ",
"t L. . . . . . .X.X.q.q.q.q.q.q.q.q.q.q.q.q.q.q.q.q.q.q.q.q.q.q.q.q.q.q.q.q.q.q.q.q.q.q.q.q.q.q.q.q.q.q.q.q.q./ / / / / / / X., ",
"t V Y.Y.Y.Y.Y.Y.Y.Y.q.q.q.q.q.q.q.q.q.q.q.q.q.q.q.q.q.q.q.q.q.q.q.q.q.q.q.q.q.q.q.q.q.q.q.q.q.q.q.q.q.q.q.q.q.T.T.U.U.I.I.Y.N , ",
"u u V V V V V V V S @.q.q.q.q.q.q.q.q.q.q.q.q.q.q.q.q.q.q.q.q.q.q.q.q.q.q.q.q.q.q.q.q.q.q.q.q.q.q.q.q.q.q.q.@.V V V V V V V r , ",
"t u u u i i i a a 0 8.q.q.q.q.q.q.q.q.q.q.q.q.q.q.q.q.q.q.q.q.q.q.q.q.q.q.q.q.q.q.q.q.q.q.q.q.q.q.q.q.q.q.q.J u t t t t t r r , ",
"u u X.X.X.X.X.` T ! ) r.q.q.q.q.q.q.q.q.q.q.q.q.q.q.q.q.q.q.q.q.q.q.q.q.q.q.q.q.q.q.q.q.q.q.q.q.q.q.q.q.q.e.n  .X. . . . . .r r ",
"u U.X.X.X.X. .G P.Y.!.2.q.q.q.q.q.q.q.q.q.q.q.q.q.q.q.q.q.q.q.q.q.q.q.q.q.q.q.q.q.q.q.q.q.q.q.q.q.q.q.q.q.0.] b  . . . . . .X.r ",
"u U.X.X.X.X.D Y.I.I.' ] 6.q.q.q.q.q.q.q.q.q.q.q.q.q.q.q.q.q.q.q.q.q.q.q.q.q.q.q.q.q.q.q.q.q.q.q.q.q.q.q.5.I.o.] G X. . . . .o.r ",
"u U.X.X.X.! D I.P.] T ^.!.6.q.q.q.q.q.q.q.q.q.q.q.q.q.q.q.q.q.q.q.q.q.q.q.q.q.q.q.q.q.q.q.q.q.q.q.q.q.5.D P.X...j  . . . . .I.r ",
"t Y. . .` b W X.X.Y o.^.^._.s.q.q.q.q.q.q.q.q.q.q.q.q.q.q.q.q.q.q.q.q.q.q.q.q.q.q.q.q.q.q.q.q.q.q.q.6.U.T ] X.X.z G ` ` `  .I.r ",
"t U.G z z g M M M z U Y Q.`.`.0.r.q.q.q.q.q.q.q.q.q.q.q.q.q.q.q.q.q.q.q.q.q.q.q.q.q.q.q.q.q.q.q.r.0.^ F F j c c c 8 j j c ~ I.r ",
"t G ..Y.Y.P.P.P.L.X.L.E.^ ' U ( K $.q.q.q.q.q.q.q.q.q.q.q.q.q.q.q.q.q.q.q.q.q.q.q.q.q.q.q.q.q.7.) ^ X.Y.Y.I.I.O.O.o.o.o.` 2 d r ",
"t j Y.I.I.I.P.I.P.U.U.U.U.Y.Q.R h P M.h.t.q.q.q.q.q.q.q.q.q.q.q.q.q.q.q.q.q.q.q.q.q.q.q.u.7.m ^.^.Y.U.I.I.I.I.O.O.o.o.o...#   : ",
"t j Y.o.o.I.I.I.U.U.U.U.Y.R.!.n L OX;Xn.9.h.s.r.q.q.q.q.q.q.q.q.q.q.q.q.q.q.q.q.q.t.a.f.K.&XR ^ _.U.U.I.I.T.I.O.O.o.o.o...#   * ",
"t j Y.I.I.[..X}.R.U.U.Y.R.R.R.k x.;XB.c.Z.c.*.v.S.S.h.g.a.u.q.q.q.q.q.u.a.g.f.p.=.B.K.c.v.-XoXL `.U.U.T.Y.T.T.#X.XR.U.o...#   * ",
"t j W.I.I.@X].].[.Y.Y.Y.Y.^.P.I =X;X;.B.B.&.d.:X:X:X:X:X:X:X:X:X:X:X:X:X:X:X:XK.;.-.F.G.:.N.;XI `.U.U.Y.Y.Y.T.@X}.+X).O...#   * ",
"t j W.I.T.OX].}.).Y.Y.Y.^._.P.l.:Xn.c.D.;.;.G.:X:X:X:X:X:X:X:X:X:X:X:X:X:X:X:X:XC.%.:.:Xv.;.;Xz.`.T.Y.Y.Y.Y.Y.@X].}.).T...#   * ",
"t j ^.T.Y._.{.{.Y.!.!.!.^._.P.M.:X9.v.F.&.9.;X:X:X:X:X:X:X:X:X:X:X:X:X:X:X:X:X:X;X%.&.:XB.%.;X@X`.Y.Y.Y.Y.Y.W.].].W.T.T...#   * ",
"t 8 ^.Y.Y.Y.Y.Q.Q.^.^.^.^.^.P.z.:X9.v.G.-.9.*X:X:X:X:X:X:X:X:X:X:X:X:X:X:X:X:X:XK.%.;.:XB.%.;XA.`.Y.Y.Y.Y.W.~.W.W.Y.Y.T...#   * ",
"t 8 ^.~.Y.Y.W.Q.^.^.^.^.^.^.P.k.:Xb.9.J.c.*.C.:X:X:X:X:X:X:X:X:X:X:X:X:X:X:X:X:Xv.%.n.:Xv.-.;Xl.`.Y.Q.!.^.^.~.~.~.O.O.T...#   * ",
"t 9 `.^._.^.^.^.^.o.^ ] ] ! ! v &XK.*.B.K.-.;.J.:X:X:X:X:X:X:X:X:X:X:X:X:X:X:XC.,.v.-XF.;.b.*Xj.^ ^ ! ! ] ] o.^.W.O.O.^...#   * ",
"t $ ` / ^ ^ ^ ^ ^ W P.P.U.Y.Y.' k.=Xn.9.D.Z.d.9.C.-X:X:X:X:X:X:X:X:X:X:X:XH.N.;.c.K.K.9.c.K.|.U.U.P.X.] F U Q Q Q Q Q Q F o   * ",
"t $ R P A A A F A j T.Y.Y.Y.Y.Y.Y. X-Xv.;.F.*Xv.-.c.V.K.:X:X:X:X:X:X;XJ.N.>.;.B.-XF.9.>.G.+XU.L.L.X.X.I.W Y C C C C A A b O   * ",
"t $ Y v D o.X.` ] b b _.Y.Y.Y.Y.^._. X&XZ.;.9.J.-XB.c.;.;.9.v.v.c.9.-.:.c.G.;XJ.v.*.c.*X|.' X.R.U.L.X.L.k ] X.I.T.W.8 A b O o > ",
"t z g 2 l U.X.X.` W k U.Y.Y.Y.R.!.^.Q./.+XG.v.;.v.F.K.J.Z.V.n.n.n.V.D.K.;XF.n.:.9.Z.%Xl.( T.!.Y.U.I.U.! k  .X.I.I.X.2 4 2 o > r ",
"t W.T D 3 X.o.X.X.X.b n L.^.R.!.^._._._.' /.OX&XC.d.:.>.c.m.N.N.N.N.c.9.;.9.v.J.+Xk.Y.Y.Y.Y.Y.Y.T.Y.R g b X.X.O.T.T # . - q r r ",
"t Y.O.O.8 A ' X.X.X. .D Y U.`._.^.^._.^.^.X.! R  X#X%XJ.G.D.N.N.N.V.F.J.H.#Xl.R ' T._.R.Y.^.Y.Y.Y.Q g D ~ X.X.T.Y 2 X + r r r , ",
"t Q.O.O.` % Q I.X.] W l b ) R ] _.^.^.^.^.!.Y.Y.^ ! ! ^ ( E.(./.k.j.3.( E.E ] ^._.^._.^.^.^.^.^.Q v x l F o.I.o.v O   q t r r , ",
"t W.O.O.O.l k ^ W _ T.E k A ^ ! `.^.^.^.^.!.Y.Y.Y.! ' T.T.W.T.P.P.P.P.] D X.Y.^.^.^.^.^.^.^.Q.R n g G ! ! b _ A % . + r r r , , ",
"t W.O.O.O.X.8 A ^ Y.U.Y.Y.] M ! ' U.`._.^.^.^.^.Y.o.^._._._.^.^.^.^.!.R._.Y Q.Q.^.^.^._.^.' A k k W  .` ` ' l k X = e t r r , , ",
"r W.O.O.O.O.W 8 Y  .U.U.P.P.] G Y Q ' T.^.^.^.^._ ^.^.^.^.^.^.^.^.Q.Y.Y.^.X.' !.^.^.Y.' R n v Y ! X.X.X.` b 3 # = r t r r r , , ",
"r W.O.O.O.O.O.T l R / Y.I.T.Y.Y.T D U Q Q P.o._.W _.^.^.^.^..X^.).).Q.Q.Y.W.] ^.o.! A A v v G ` X.X.X.' A f # ; e t t r r , , , ",
"r Y.O.O.O.I.I.Y.C g Y Q X.Y.Y.^.^._ W l F F Y Y M _.^.^.^.^.XX$X#X_.^.Q.Y.W.b G G v v b ! ! X.X.X.X.U k d o 1 r t t r r , , , , ",
"r Y.O.O.O.O.I.^.t w 2 k Q ^ ^._.W I.U.X.! F 8 8 z _.^.^.^.^.XX$X#X`.^.^.Y.W.g 9 3 ! ! Y.Y.I.^ P.X.L v % 1 5 r t t r r r , , , , ",
", Z ^.^.^.^.^.Z t t q < k L R v Q.Y.U.I.P.X.X.X.G `.^.^.^.^.OX`.{.'.^.^.^.W.F ! I.P.X.Y.Y.Y.X.U v k 2 7 r t t t t r r , , , , , ",
", , Z Z Z Z Z t t t t u w 9 g v ^ ^ L.^.^.X.X.X.D `.^.^.^.^.^.^.^.^.^.^.Q.W.D ! P.Y.^.^.! A k b $ < w y t t t t r r r , , , , , ",
", , , r r t t t t t t t u y w 6 k A P P P ' ' ] l Y.Y.U.P.P.L.X.X.X.L.U.T.] l F ] T b b v d 2 1 q t t t t t t r r r , , , , , , ",
", ,  . . . . . . .t t t t t u u 7 9 x v v A A n 2 ^ Q R R R R R R P R R R F 2 k C v x g 2 8 w y t t t t t t r r r , , , , , , , ",
", o. . . . . . . .t t t t t t u u y 7 6 < d d 4 $ Q R R P P P P P P P P L A $ 2 3 2 8 8 G / I.t t t t t t r r , , , , , , , , , ",
", o. . . . . . . . .t t t t t t u u u u u y y w $ R P b A L A L L L L A A A @ & ! / `  . .X.I.t t t t t r r r , , , , , , , , , ",
", o. . . . . . . . . . . . .I.t t t t u u u u a 0 g 3 3 4 d d d d d d 4 4 3 @ ! X.X. .X. . .I.t t t t r r r , , , , , , , , , , ",
", o. . . . . . . . . . . . .I.t t t t t t u u u | a y y p a y y y ' ~ ~ ~ ! /  .X.X.X.X. . .I.t t t r r r , , , , , , , , , , , ",
", o. . . . . . . . . . . . .I.t t t t t t t t u [ [ u [ [ e u u u U.X.X. . . . . .X. . . . .I.t r r r r , , , , , , , , , , , , ",
", o. . . . . . . . . . . . .I.t t t t t t t t t e e t i [ e t t t U.X.X. . . . . . . . . . .I.r r r r , , , , , , , , , , , , , ",
", o. . . . . . . . . . . . .I.t t t t t t t t t t t t e e t t t t I. . . . . . . . . . . . .I.r r , , , , , , , , , , , , , , , ",
", o. . . . . . . . . . . . .I.r r t t t t t t t t t t t t t t t t I. . . . . . . . . . . . .I., , , , , , , , , , , , , , , , , ",
", o. . . . . . . . . . . . .O., r r r r r t t t t t t t t t t t t I. . . . . . . . . . . . .o., , , , , , , , , , , , , , , , , ",
", o.`  . . . . . . . . . . .o., , r r r r r r r t t t t t t t t t Y.Y.Y.Y.Y. . . . . . . . .o., , , , , , , , , , , , , , , , , ",
", o.` ` `  . . . . . . . . .o., , , , , r r r r r r r r r r r r r r r N N N Y. . . . . . . .o., , , , , , , , , , , , , , , , , ",
", o.` ` ` `  . . . . . . . .o., , , , , , , , , , r r , r r r r r r , , , , N Y. . . . . . .o., , , , , , , , , , , , , , , , , ",
", N T.T.T.T.T.T.T.T.T.T.Y.T.N , , , , , , , , , , , , , , , , , r , , , , r , N Y.Y.Y.Y.Y.Y., , , , , , , , , , , , , , , , , , ",
"t { { N N N N N N N N N N N , , , , , , , , , , , , , , , , , , , , , , , , , , N N N N N N , , , , , , , , , , , , , , , , , , "
};
