/* XPM */
static const char *UXVpdF80[] = {
/* columns rows colors chars-per-pixel */
"64 64 212 2 ",
"   c #341A19",
".  c #391D1B",
"X  c #3C201C",
"o  c #44291B",
"O  c #43241B",
"+  c #48381C",
"@  c #482C28",
"#  c #4E3228",
"$  c #573928",
"%  c #583F31",
"&  c #4B323B",
"*  c #7D3B2F",
"=  c #4D491F",
"-  c #574E1C",
";  c #52441E",
":  c #4E511F",
">  c #5A511D",
",  c #605B1E",
"<  c #6E6F1F",
"1  c #73761D",
"2  c #5B4827",
"3  c #595921",
"4  c #5B4234",
"5  c #5D463A",
"6  c #5D493D",
"7  c #57563C",
"8  c #604A2B",
"9  c #685C28",
"0  c #634B3D",
"q  c #614935",
"w  c #6B5A39",
"e  c #5F6323",
"r  c #6B6B23",
"t  c #696726",
"y  c #726F2E",
"u  c #6C7123",
"i  c #737721",
"p  c #757924",
"a  c #73732A",
"s  c #767B2A",
"d  c #787D2E",
"f  c #787B21",
"g  c #6E7237",
"h  c #767A32",
"j  c #797E32",
"k  c #7A7E3B",
"l  c #757638",
"z  c #6C6D3B",
"x  c #332C46",
"c  c #3A344C",
"v  c #3E3955",
"b  c #2E2741",
"n  c #3A2A6F",
"m  c #443748",
"M  c #463D57",
"N  c #4F304F",
"B  c #653D45",
"V  c #572A7E",
"C  c #4C2961",
"Z  c #4B474A",
"A  c #5E4B41",
"S  c #58484B",
"D  c #5A534A",
"F  c #494557",
"G  c #585559",
"H  c #574C53",
"J  c #624E43",
"K  c #6D494B",
"L  c #6A5344",
"P  c #64544B",
"I  c #6A564B",
"U  c #6D594D",
"Y  c #645448",
"T  c #715C4E",
"R  c #655A52",
"E  c #6B5C53",
"W  c #695E59",
"Q  c #645759",
"!  c #705D53",
"~  c #705D58",
"^  c #65614D",
"/  c #626442",
"(  c #74694A",
")  c #787444",
"_  c #666353",
"`  c #6B6154",
"'  c #6E6B56",
"]  c #6C645C",
"[  c #696759",
"{  c #726156",
"}  c #73645B",
"|  c #75695E",
" . c #797153",
".. c #494663",
"X. c #4A4866",
"o. c #4E516E",
"O. c #57576A",
"+. c #585D78",
"@. c #525169",
"#. c #605D66",
"$. c #5C6278",
"%. c #6B6660",
"&. c #6E6964",
"*. c #676469",
"=. c #746B63",
"-. c #7A6C64",
";. c #736E69",
":. c #756A68",
">. c #7B7067",
",. c #76736C",
"<. c #7C736C",
"1. c #7C796E",
"2. c #686572",
"3. c #6C6B75",
"4. c #7B7672",
"5. c #7E7D73",
"6. c #7E7C7B",
"7. c #767574",
"8. c #736971",
"9. c #A4431E",
"0. c #894637",
"q. c #B34C24",
"w. c #A84621",
"e. c #C95B2B",
"r. c #8B5648",
"t. c #90594A",
"y. c #9F604B",
"u. c #A26651",
"i. c #A0644F",
"p. c #81766F",
"a. c #817D74",
"s. c #837E79",
"d. c #807771",
"f. c #7C802D",
"g. c #7F8226",
"h. c #7A8036",
"j. c #7B8138",
"k. c #7F8076",
"l. c #818333",
"z. c #818175",
"x. c #898175",
"c. c #84837B",
"v. c #89867D",
"b. c #8A897E",
"n. c #39218E",
"m. c #3B1EBF",
"M. c #4E349B",
"N. c #562BA8",
"B. c #4F3CAB",
"V. c #5B498C",
"C. c #60528F",
"Z. c #5E6882",
"A. c #616B83",
"S. c #6C7486",
"D. c #66728A",
"F. c #7C7883",
"G. c #6D6399",
"H. c #707D93",
"J. c #5848BA",
"K. c #5645B5",
"L. c #5B51B3",
"P. c #6559AB",
"I. c #6559B5",
"U. c #6E64A5",
"Y. c #726BA2",
"T. c #6B6BB0",
"R. c #371DD6",
"E. c #371FC4",
"W. c #3B23C9",
"Q. c #3C24D1",
"!. c #3F2ED8",
"~. c #4626C5",
"^. c #4C37C2",
"/. c #412FD7",
"(. c #463FD9",
"). c #4C47D9",
"_. c #5958D1",
"`. c #5C66DD",
"'. c #6E7ED4",
"]. c #827E83",
"[. c #778598",
"{. c #7E818B",
"}. c #7B89A3",
"|. c #878680",
" X c #898681",
".X c #8C8B84",
"XX c #8E8E89",
"oX c #858587",
"OX c #908E86",
"+X c #908F8A",
"@X c #8F908B",
"#X c #919086",
"$X c #92928D",
"%X c #878893",
"&X c #8C959A",
"*X c #959591",
"=X c #999993",
"-X c #90989C",
";X c #8E9BA5",
":X c #899DAD",
">X c #8695A5",
",X c #929DA5",
"<X c #8B9EB2",
"1X c #8CA2B8",
"2X c #97AABA",
"3X c #9DB3BF",
"4X c #88ACD6",
"5X c #8CB2DE",
"6X c #92ADC8",
"7X c #A5BBC6",
"8X c #A8BEC8",
"9X c #ADC3CC",
/* pixels */
"p p p p p p p p p p p p p p p s s s s s s s s s s s s s s s s s s s s s s s s s s s p p p p p p p p i i i 1 1 1 1 1 1 1 1 1 1 1 ",
"p p z.5.5.5.5.k.5.5.5.5.5.k.s s s s s s s s s d d d d d d d d d h z 3.2.2.2.2.2.2.3.6.v.b.b.p p p p 5.5.5.5.5.5.5.5.5.5.5.5.1 1 ",
"p c.5.5.5.5.5.5.5.5.5.k.k.z.c.s s s s d d d d d d d d d d h h h g 3.X.X.X.X.X.....@.3.c.b..X$Xp p c.5.5.5.5.5.5.1.1.1.1.5.5.c.1 ",
"p c.5.5.5.5.5.5.5.k.z.z.z.z.|.s s d d d d d d j j j j j j g ^ D G $.A.[.>X>X[.Z.o...F O.5.b.$Xp p c.5.5.5.5.5.5.5.5.1.1.5.5.c.1 ",
"p c.5.5.5.5.5.5.k.z.z.z.z.z. Xd d d d d j j j j j j j h g / G o.+.D.}.2X8X7X:XD.o.v x F 7..X$Xp p c.5.5.5.5.5.5.5.5.1.1.5.5.c.1 ",
"p c.5.5.5.5.k.k.z.z.z.z.z.z..Xd d d j j j j j j j.j j g 7 Z $.H.:X2X3X7X3X>XD.o.M c x F 7..X$Xs p |.5.5.5.5.5.5.5.5.5.1.5.5.c.1 ",
"p c.5.5.k.k.k.z.k.z.k.z.z.z..Xj j j j j j j j.j.j.k z 7 m ..H.1X7X9X9X9X3X[.+.F F F F O.6..X$Xs s |.k.5.5.5.5.5.5.5.5.5.5.5.c.1 ",
"p c.k.k.k.k.z.z.k.z.z.z.z.z..Xj j j j j j.j.j.j.( :.H c v +.>X7X7X8X8X8X2X[.o.v G 7.6.c..XXX$Xs s  Xz.5.5.5.5.5.5.5.5.5.5.5.c.1 ",
"p |.k.k.k.z.z.z.z.z.z.z.z.z..Xj j j j.j.j.j.j.k P #.M c ..A.}.:X:X:X:X:X[.Z.X.v F *.6..XXXXX$Xd s .Xz.z.5.5.5.5.5.5.5.5.5.5.c.1 ",
"p |.k.k.z.z.z.z.z.z.z.c.z.c..Xj j.j.j.j.j.k k l S c b c O.S.S.S.S.S.S.S.3.@.M M c m 8..XXXXX$Xd d .Xz.z.k.5.5.5.5.5.5.5.5.5.c.1 ",
"p |.z.z.z.z.z.z.z.z.c.c.c.c..Xj.j.j.k ) ) { { ` S m x m K t.u.i.r.r.t.u.y.0.B M c c Q a.XXXX$Xj d .Xz.z.z.k.5.5.5.5.5.5.5.5.c.1 ",
"p |.k.z.z.z.z.z.z.z.c.c.c.c..Xj.k ( ( -.<..XoX7.S m m B 0.q.e.e.9.9.q.e.e.w.* N m m H Q { <.$Xj d .Xz.z.z.z.5.5.5.5.5.5.5.5.c.1 ",
"p |.z.z.z.z.z.z.z.c.c.c.c.c.|.)  .c.XX.X4.~ Q Z m C V N.N.~.R.R.R.R.R.~.N.N.V C & @ & G 6.-.v.h j .Xz.z.z.z.k.5.5.5.5.5.5.5.c.1 ",
"p |.z.z.z.z.z.z.c.c.c.c.s.=.=.c. X X4.W *.C.M.W.R.R.R.R.R.R.R.R.R.R.R.R.R.R.R.R.R.m.n.n G %.I L w s.a.z.z.z.z.5.5.5.5.5.5.5.c.1 ",
"p _ XXXXXXXXXXXXXXXXXXs.} a.$XXXc.-.8.M.W.R.R.R.R.R.R.R.R.R.R.R.R.R.R.R.R.R.R.R.R.R.R.R.E.M.8.s.<.U } s..XXXXX.X.X.X.X.X.XXX^ 1 ",
"s s _ _ _ _ _ [ [ [ U -.XXXXXX-.6.P.R.R.R.R.R.R.R.R.R.R.R.R.R.R.R.R.R.R.R.R.R.R.R.R.R.R.R.R.R.L.].c.a.I Y _ _ _ _ _ _ _ _ _ i 1 ",
"p s s s d d d j h w c.$X$Xc.-.G.Q.R.R.R.R.R.R.R.R.R.R.R.R.R.R.R.R.R.R.R.R.R.R.R.R.R.R.R.R.R.R.R.Q.G..X.X{ y s s p p p p p i i 1 ",
"s s c.c.c.c.c.a.-.<.a.s.s.<.J.R.R.R.R.R.R.R.R.R.R.R.R.R.R.R.R.R.R.R.R.R.R.R.R.R.R.R.R.R.R.R.R.R.R.R.K.<.p.! { z.c.z.z.z.z.z.i i ",
"p .Xc.c.c.c.z.|  XXX@X<.>.J.R.R.R.R.R.R.R.R.R.R.R.R.R.R.R.R.R.R.R.R.R.R.R.R.R.R.R.R.R.R.R.R.R.R.R.R.R.K..XXXd.E z.c.z.z.z.z.c.i ",
"s .Xc.c.c.c.{ XX.X.Xs.d.J.R.R.R.R.R.R.R.R.R.R.R.R.R.R.R.R.R.R.R.R.R.R.R.R.R.R.R.R.R.R.R.R.R.R.R.R.R.R.R.K..Xv.d.| c.z.z.z.z.v.i ",
"s .Xc.c.c.<.{ .X Xd.-.P.R.R.R.R.R.R.R.R.R.R.R.R.R.R.R.R.R.R.R.R.R.R.R.R.R.R.R.R.R.R.R.R.R.R.R.R.R.R.R.R.R.P.c.x.L z.z.z.z.z..Xi ",
"p XXz.z.a.E >.c.c.=.].Q.R.R.R.R.R.R.R.R.R.R.R.R.R.R.R.R.R.R.R.R.R.R.R.R.R.R.R.R.R.R.R.R.R.R.R.R.R.R.R.R.R.Q.].c.U | a.a.a.z..Xi ",
"p .X| I U J ! ! ! U V.R.R.R.R.R.R.R.R.R.R.R.R.R.R.R.R.R.R.R.R.R.R.R.R.R.R.R.R.R.R.R.R.R.R.R.R.R.R.R.R.R.R.R.V.T T 0 L L T 1..Xi ",
"p | c.XXXX X X X|.c.^.R.R.R.R.R.R.R.R.R.R.R.R.R.R.R.R.R.R.R.R.R.R.R.R.R.R.R.R.R.R.R.R.R.R.R.R.R.R.R.R.R.R.R.^.b.b.v.v.v.a.4 S i ",
"p L XX.X.X.X X.X X.XR.R.R.R.R.R.R.R.R.R.R.R.R.R.R.R.R.R.R.R.R.R.R.R.R.R.R.R.R.R.R.R.R.R.R.R.R.R.R.R.R.R.R.R.R.b.b.v.v.v.x.#   , ",
"p L XXv.v..X.X.X.X.XR.R.R.R.R.R.R.R.R.R.R.R.R.R.R.R.R.R.R.R.R.R.R.R.R.R.R.R.R.R.R.R.R.R.R.R.R.R.R.R.R.R.R.R.R.b.b.v.v.v.x.#   - ",
"p L XX.X X>X1X<XXX.XR.R.R.R.R.R.R.R.R.R.R.R.R.R.R.R.R.R.R.R.R.R.R.R.R.R.R.R.R.R.R.R.R.R.R.R.R.R.R.R.R.R.R.R.R.4X1XXX.Xv.x.#   - ",
"p L OX.X.X4X;X;X>XXX^.R.R.R.R.R.R.R.R.R.R.R.R.R.R.R.R.R.R.R.R.R.R.R.R.R.R.R.R.R.R.R.R.R.R.R.R.R.R.R.R.R.R.R.^.4X<X4X&Xb.x.#   - ",
"p L OX.X.X4X;X<X&XXXP.R.R.R.R.R.R.R.R.R.R.R.R.R.R.R.R.R.R.R.R.R.R.R.R.R.R.R.R.R.R.R.R.R.R.R.R.R.R.R.R.R.R.R.U.5X;X<X&X.Xx.#   - ",
"p 0 $X.XXX$X,X;X+X@X%XQ.R.R.R.R.R.R.R.R.R.R.R.R.R.R.R.R.R.R.R.R.R.R.R.R.R.R.R.R.R.R.R.R.R.R.R.R.R.R.R.R.R.Q.oX;X;XOX.X.Xx.#   - ",
"p 0 $XXX.XXXXX+X+X$X$XU.R.R.R.R.R.R.R.R.R.R.R.R.R.R.R.R.R.R.R.R.R.R.R.R.R.R.R.R.R.R.R.R.R.R.R.R.R.R.R.R.R.U.$XOXOXXXXX.Xx.#   - ",
"p 0 $X#XXXXXOX+X$X$X$X$XJ.R.R.R.R.R.R.R.R.R.R.R.R.R.R.R.R.R.R.R.R.R.R.R.R.R.R.R.R.R.R.R.R.R.R.R.R.R.R.R.J.$X#X#X#Xb.b..Xx.#   - ",
"p q =X$X$X$X$X$X$Xv.4.a.s.B.R.R.R.R.R.R.R.R.R.R.R.R.R.R.R.R.R.R.R.R.R.R.R.R.R.R.R.R.R.R.R.R.R.R.R.R.R.B.d.d.v.$XOXb.b.$Xx.#   - ",
"p $ a.a.4.4.4.4.4.>. X X.XXXJ.R.R.R.R.R.R.R.R.R.R.R.R.R.R.R.R.R.R.R.R.R.R.R.R.R.R.R.R.R.R.R.R.R.R.R.K.a.} =.,.,.,.,.,.,.} o   - ",
"p $ ,.&.] ] ] } ` L .XXXXXXXXXY.Q.R.R.R.R.R.R.R.R.R.R.R.R.R.R.R.R.R.R.R.R.R.R.R.R.R.R.R.R.R.R.R.Q.G.c..X>.=.` ` ` ` ] ] E O   - ",
"p $ :.R { v.c.a.d.E E *XXXXXXXXX%XI.R.R.R.R.R.R.R.R.R.R.R.R.R.R.R.R.R.R.R.R.R.R.R.R.R.R.R.R.R.P.oX|.c.|.Y d.c..X.XOX0 ] E O o < ",
"p I J 4 I .Xc.c.a.>.P .XXXXXXXXX@X$X%XL./.R.R.R.R.R.R.R.R.R.R.R.R.R.R.R.R.R.R.R.R.R.R.R.~.P.%XXX.X.X.X<.P z.c..X.Xc.4 6 4 o < i ",
"p OX-.{ 5 c.v.c.c.c.E W |.$XXX@X$X$X*X*Xs.T._./.R.R.R.R.R.R.R.R.R.R.R.R.R.R.R.R.R.Q.L.Y.XXXXXXXX.XXX;.J E c.c.b..X=.# . > r i i ",
"p XXb.b.0 ] s.c.c.c.z.{ :..X=X$X$X$X*X$X$Xc.<.:.}.'.`.).(.!.R.R.R.R.R.!.).).L.C.F..X$XXXXX$XXXXXXX,.J { 1.c.c..X=.4 X + i i i 1 ",
"p +Xb.b.a.% ,..Xc.a.>.I E 7.=.a.*X$X$X$X$X@XXXXX4.<.<.4.6.oX%X%X[.{.F.6.oX>.a.$X*X$X$X$X$X$X$X$X,.R Y I } v..Xv.R O   r p i i 1 ",
"p OXb.b.b.I P 4.>.p. X-.P ` 4.<.=X$X$X$X$X@XXXXXXX<.s..X.X.X.X X X X Xa.{ c.XX$X$X$X$X$X$X$X+X;.W J | <.<.E p.` % . + i i i 1 1 ",
"p OXb.b.b.c.0 ] 4.XX.XXXXXd.! <.s..X=X*X$X$X$X$XXXv.$X*X*X*X$X$X$X$X@XXX*X:.+X+X$X$X$X*X$Xs.] P P >.z.a.a.s.I P X ; u p i i 1 1 ",
"i OXb.b.b.b.>.0 :.z..X.X X Xd.| =.,.s..X$X$X$X$Xp.$X$X$X$X$X$X$X$X+XXXXX$Xc.s.@X$X$XXXs.;.W R =.<.c.c.c.a.E 5 # ; i p i i i 1 1 ",
"i OXb.b.b.b.b.-.I ;.5.XX.X.XXXXX-.{ =.,.,. Xv.*X>.*X$X$X$X$X1X$X-X&X+X+XXXOXd.$Xv.<.] ] R R | a.c.c.c.s.] A # ; u p p i i 1 1 1 ",
"i XXb.b.b..X.XXX` J :.,.c.XXXX$X$Xp.>.I } } =.=.! *X$X$X$X$X2X5X4X*X$X+XXXOXE | | R R E <.<.c.c.c.c.=.P A o 2 i p p i i 1 1 1 1 ",
"i XXb.b.b.b..X$Xp t 4 P ,.4.$X*X>..X.Xc.<.} 0 0 U *X$X$X$X$X2X5X4X=X$X$XXXOXJ q 4 <.<.XXXX.X4. Xc.%.R % 2 3 i p p i i i 1 1 1 1 ",
"1 ' $X$X$X$X$X' p p r 2 P %.;.R +XXX.X.X Xc.c.c.| =X$X$X$X$X6X=X,X-X$X$X$XOX} <..Xv.c.XXXXXXc.=.R Y 4 9 i p p p p i i 1 1 1 1 1 ",
"1 1 ' ' ' ' ' p p p p a t q J R 4.4.|.$X$Xc.c.c.{ =X$X$X$X$X$X$X$X$X$X$X+XOX{ <.v.XX$X$X<.] Y E $ 2 t a p p p p i i i 1 1 1 1 1 ",
"1 1 1 i i p p p p p p p s a t 8 P ] &.&.&.s.s.a.I XXXX.X X X|.c.c.c.|..X.Xd.I } d.=.E E R A 4 2 r p p p p p p i i i 1 1 1 1 1 1 ",
"1 1 z.z.z.z.z.z.z.p p p p p s a 9 q Y R R ] ] W 4 4.,.;.;.;.;.;.;.&.=.;.;.} 4 P ` R Y J 4 0 t a p p p p p p i 1 i 1 1 1 1 1 1 1 ",
"1 v.z.z.z.z.z.z.z.p p p p p p s s a 9 8 2 A A 6 $ ,.;.;.&.&.&.&.&.&.&.&.%.` $ 4 6 5 0 0 | 5..Xp p p p p p i 1 1 1 1 1 1 1 1 1 1 ",
"1 v.z.z.z.z.z.z.z.z.p p p p p p p s s a a a y y % ;.&.E ] %.] %.%.%.] ] ] ` @ & <.5.z.z.z.z..Xp p p p p i i i 1 1 1 1 1 1 1 1 1 ",
"1 v.z.z.z.z.z.z.z.z.z.z.z.z..Xp p s p s s s s d 9 J 5 5 6 A A A A A A 6 6 5 @ <.z.c.z.c.z.z..Xp p p p i i i 1 1 1 1 1 1 1 1 1 1 ",
"1 v.z.z.z.z.z.z.z.z.z.z.z.z..Xp p p p p p s s s l.j a a h j a a a s.1.1.1.<.5.z.z.z.z.c.5.z..Xp p p i i i 1 1 1 1 1 1 1 1 1 1 1 ",
"1 v.z.z.z.z.z.z.z.z.z.z.z.z..Xp p p p p p p p p d d s f.f.u s s s .Xc.c.z.z.z.z.z.5.,._ ,.z..Xp i i i i 1 1 1 1 1 1 1 1 1 1 1 1 ",
"1 v.z.z.z.z.z.z.z.z.z.z.z.z..Xp p p p p p p p p u u p d f.u p p p .Xc.c.z.z.5.,.&.D Z D ,.z..Xi i i i 1 1 1 1 1 1 1 1 1 1 1 1 1 ",
"1 v.z.z.z.z.z.z.z.z.z.z.z.z..Xp p p p p p p p p p p p r r u e e e 7.5.z.5.5.5.5.4.1.1.5.a.z..Xi i 1 1 1 1 1 1 1 1 1 1 1 1 1 1 1 ",
"1 v.z.z.z.z.z.z.z.z.z.z.z.z..Xi i p p p p p i u r t 3 3 3 : : = : ;.5.z.z.z.z.z.z.z.z.z.z.z..X1 1 1 1 1 1 1 1 1 1 1 1 1 1 1 1 1 ",
"1 v.z.z.z.z.z.z.z.z.z.z.z.z.b.1 i i i i i p i i i i i i i i i i i  Xz.z.z.z.z.z.z.z.z.z.z.z.v.1 1 1 1 1 1 1 1 1 1 1 1 1 1 1 1 1 ",
"1 v.a.z.z.z.z.z.z.z.z.z.z.z.v.1 1 i i i i i i i p p p p p p p p p XXXXXXXXXXz.z.z.z.z.z.z.z.v.1 1 1 1 1 1 1 1 1 1 1 1 1 1 1 1 1 ",
"1 v.a.a.a.z.z.z.z.z.z.z.z.z.v.1 1 1 1 1 i i i i i i i i i i i i i i i ^ ^ ^ XXz.z.z.z.z.z.z.v.1 1 1 1 1 1 1 1 1 1 1 1 1 1 1 1 1 ",
"1 v.a.a.a.a.z.z.z.z.z.z.z.z.v.1 1 1 1 1 1 1 1 1 1 1 i i i i i i i i 1 1 1 1 ^ XXz.z.z.z.z.z.v.1 1 1 1 1 1 1 1 1 1 1 1 1 1 1 1 1 ",
"1 ^ .X.X.X.X.X.X.X.X.X.XXXXX^ 1 1 1 1 1 1 1 1 1 1 1 1 1 1 1 1 1 1 1 1 1 1 1 1 ^ XXXXXXXX.X.X1 1 1 1 1 1 1 1 1 1 1 1 1 1 1 1 1 1 ",
"f g.g.^ ^ ^ ^ ^ ^ ^ ^ ^ ^ ^ 1 1 1 1 1 1 1 1 1 1 1 1 1 1 1 1 1 1 1 1 1 1 1 1 1 1 ^ ^ ^ ^ ^ ^ 1 1 1 1 1 1 1 1 1 1 1 1 1 1 1 1 1 1 "
};
