/* XPM */
static const char *UXVpdF8y[] = {
/* columns rows colors chars-per-pixel */
"64 64 243 2 ",
"   c #341A19",
".  c #391D1B",
"X  c #3C201C",
"o  c #362F32",
"O  c #45261A",
"+  c #4F301E",
"@  c #712C1B",
"#  c #552D27",
"$  c #4D3229",
"%  c #43352D",
"&  c #563627",
"*  c #483A34",
"=  c #553B33",
"-  c #462D33",
";  c #763627",
":  c #67372D",
">  c #574E1C",
",  c #52441E",
"<  c #574B1E",
"1  c #73761D",
"2  c #6E6F1F",
"3  c #5A4826",
"4  c #5A4438",
"5  c #4F4A36",
"6  c #654B39",
"7  c #6F5337",
"8  c #6C6826",
"9  c #737720",
"0  c #757924",
"q  c #767B2A",
"w  c #787D2E",
"e  c #757727",
"r  c #797E32",
"t  c #767A36",
"y  c #6E7031",
"u  c #605B1E",
"i  c #342D46",
"p  c #3A3549",
"a  c #3E3954",
"s  c #2D3344",
"d  c #352A63",
"f  c #453948",
"g  c #433C52",
"h  c #473D59",
"j  c #543C47",
"k  c #653D45",
"l  c #482873",
"z  c #324851",
"x  c #315C65",
"c  c #285868",
"v  c #356166",
"b  c #326B75",
"n  c #367578",
"m  c #356E6E",
"M  c #464747",
"N  c #584948",
"B  c #59544C",
"V  c #494659",
"C  c #554C56",
"Z  c #495857",
"A  c #595559",
"S  c #664B45",
"D  c #6B5344",
"F  c #64534B",
"G  c #6A564B",
"H  c #69574B",
"J  c #715A4D",
"K  c #6B5C54",
"L  c #675A57",
"P  c #725A54",
"I  c #624A52",
"U  c #4F6459",
"Y  c #64614B",
"T  c #626442",
"R  c #666353",
"E  c #6C635B",
"W  c #6C6656",
"Q  c #73655B",
"!  c #75645A",
"~  c #776D49",
"^  c #494764",
"/  c #4A5669",
"(  c #595566",
")  c #565B75",
"_  c #52506C",
"`  c #625D65",
"'  c #795C66",
"]  c #5A637A",
"[  c #497A74",
"{  c #526C69",
"}  c #6B6667",
"|  c #746A64",
" . c #796C64",
".. c #746D6A",
"X. c #756765",
"o. c #7C736C",
"O. c #77736A",
"+. c #686674",
"@. c #766874",
"#. c #7B7673",
"$. c #7E7D73",
"%. c #7D7D7B",
"&. c #767474",
"*. c #85321C",
"=. c #993825",
"-. c #85382A",
";. c #AC3E2A",
":. c #A4431E",
">. c #894436",
",. c #8E4730",
"<. c #B54529",
"1. c #AC502E",
"2. c #C75833",
"3. c #C6552C",
"4. c #D46A3B",
"5. c #C96032",
"6. c #895B4A",
"7. c #8F5949",
"8. c #A35942",
"9. c #996A53",
"0. c #90654F",
"q. c #A36649",
"w. c #AB775B",
"e. c #B3704D",
"r. c #83756D",
"t. c #817D74",
"y. c #837E79",
"u. c #807771",
"i. c #91746E",
"p. c #AD7D63",
"a. c #DC7040",
"s. c #7A8036",
"d. c #7B8138",
"f. c #7F8226",
"g. c #568275",
"h. c #438178",
"j. c #7F8076",
"k. c #7F817E",
"l. c #64937D",
"z. c #B6815C",
"x. c #818175",
"c. c #84837B",
"v. c #89867D",
"b. c #8A897E",
"n. c #898175",
"m. c #89947A",
"M. c #B38F6F",
"N. c #BBA17C",
"B. c #C1955E",
"V. c #C3845F",
"C. c #E88D4C",
"Z. c #C59D78",
"A. c #CD946C",
"S. c #D1A579",
"D. c #E3AC7C",
"F. c #4E3493",
"G. c #4A2FB0",
"H. c #367587",
"J. c #346FAE",
"K. c #365983",
"L. c #5B6A85",
"P. c #626A82",
"I. c #6A7487",
"U. c #717890",
"Y. c #5545B1",
"T. c #6256A7",
"R. c #457CBB",
"E. c #4A76AD",
"W. c #6C74A2",
"Q. c #504299",
"!. c #371DD6",
"~. c #3C1FC0",
"^. c #3B23CA",
"/. c #3C23D0",
"(. c #4328C8",
"). c #3B8787",
"_. c #3D938E",
"`. c #3C8894",
"'. c #439795",
"]. c #4E8B8F",
"[. c #758498",
"{. c #708F8E",
"}. c #6BA39D",
"|. c #528AB1",
" X c #798AA5",
".X c #758FB0",
"XX c #4EA7A8",
"oX c #56B0B5",
"OX c #6DB0B7",
"+X c #4A82C2",
"@X c #558CCB",
"#X c #5C92D1",
"$X c #6398D6",
"%X c #7297C4",
"&X c #5FBAC1",
"*X c #63B8C4",
"=X c #72A5D9",
"-X c #77ABE7",
";X c #64C1CA",
":X c #6BC9D4",
">X c #72CCDA",
",X c #72D2DF",
"<X c #76D6E5",
"1X c #858581",
"2X c #898781",
"3X c #8B8B84",
"4X c #8D8E89",
"5X c #848786",
"6X c #908E86",
"7X c #908F8A",
"8X c #928681",
"9X c #8F908B",
"0X c #8A9E8A",
"qX c #92928D",
"wX c #919086",
"eX c #949591",
"rX c #989995",
"tX c #9C9B9A",
"yX c #899098",
"uX c #94A48C",
"iX c #B5A297",
"pX c #8999A8",
"aX c #879CB4",
"sX c #8C98A5",
"dX c #8AA2B9",
"fX c #96A8B6",
"gX c #93B4B9",
"hX c #ABADAE",
"jX c #B79585",
"kX c #CDAF8A",
"lX c #EBBC89",
"zX c #C8B7A7",
"xX c #AAC5B2",
"cX c #F1C993",
"vX c #CAD3B4",
"bX c #819CC4",
"nX c #85ABD8",
"mX c #8CAACA",
"MX c #A7BCC6",
"NX c #86B5EA",
"BX c #86B9F3",
"VX c #8CCCCD",
"CX c #ADC3CC",
/* pixels */
"0 0 0 0 0 0 0 0 0 0 0 0 0 0 0 0 0 q q q q q q q q q q q q q q q q q q q q q q q q q 0 0 0 0 0 0 0 0 9 9 9 1 1 1 1 1 1 1 1 1 1 1 ",
"0 0 x.$.$.$.$.j.$.$.$.$.$.j.q q q q q q q q q w w w w w w w w w t y +.+.+.+.+.+.+.+.%.v.b.b.0 0 0 0 $.$.$.$.$.$.$.$.$.$.$.$.1 1 ",
"0 c.$.$.$.$.$.$.$.$.$.j.j.x.c.q q q q w w w w w w w w w w w t t y +.^ ^ ^ ^ ^ ^ ^ _ +.x.b.2XqX0 0 c.$.$.$.$.$.$.$.$.$.$.$.$.c.1 ",
"0 c.$.$.$.$.$.$.$.j.x.x.x.x.2Xq q w w w w w w r r r r r r y Y B A ] P.[.sXsX[.L._ ^ V ( %.2XqX0 0 c.$.$.$.$.$.$.$.$.$.$.$.$.c.1 ",
"0 c.$.$.$.$.$.$.j.x.x.x.x.x.2Xw w w w w r r r r r r s.w y T A _ ) I. XgXMXMXpXI._ a i V #.2XqX0 0 c.$.$.$.$.$.$.$.$.$.$.$.$.c.1 ",
"0 c.$.$.$.$.j.j.x.x.x.x.x.x.3Xw w w r r r r r r r r r y 5 M ] U.pXfXMXMXgXpXI._ h i i V #.2XqXq 0 2X$.$.$.$.$.$.$.$.$.$.$.$.c.1 ",
"0 c.$.$.j.j.j.x.x.x.j.x.x.x.3Xr r r r r r r d.d.r t y 6 M ^ U.dXMXCXCXCXgX[.) V V V V ( %.3XqXq q 2Xj.$.$.$.$.$.$.$.$.$.$.$.c.1 ",
"0 c.j.j.j.j.x.x.x.x.x.x.x.x.3Xr r r r r d.d.d.d.~ | C a a ) pXMXMXMXMXMXfX[.) a A &.%.c.2X4XqXq q 2Xx.$.$.$.$.$.$.$.$.$.$.$.c.1 ",
"0 2Xj.j.j.x.x.x.x.x.x.x.x.x.3Xr r r d.d.d.d.d.t F ( g p ^ P. XpXpXpXpXpX[.L.^ a V } %.3X4X4XqXw q 2Xx.x.$.$.$.$.$.$.$.$.$.$.c.1 ",
"0 2Xj.j.x.x.x.x.x.x.x.c.x.c.3Xr d.d.d.d.d.t t t N a i p _ I.I.I.I.I.I.I.+.( V h p g +.3X4X4XqXw w 2Xx.x.j.$.$.$.$.$.$.$.$.$.c.1 ",
"0 2Xx.x.x.x.x.x.x.x.c.c.c.c.3Xd.d.d.t ~ ~ ! ! E N g i g S 7.q.q.7.6.7.q.q.>.k h p p L t.4X4XqXr w 2Xx.x.x.j.$.$.$.$.$.$.$.$.c.1 ",
"0 2Xj.x.x.x.x.x.x.x.c.c.c.c.4Xd.t ~ ~  .o.3X2X&.N f f k ,.<.5.3.:.:.<.3.3.:.; j p f C K ! o.qXr w 3Xx.x.j.x.$.$.$.$.$.$.$.$.c.1 ",
"0 2Xx.x.x.x.x.x.x.c.c.c.c.c.1X~ ~ c.4X3X#.P L j - # ; ,.1.5.4.2.1.1.2.4.2.:.-.: # $ * A %. .v.t r 3Xx.x.x.x.j.$.$.$.$.$.$.$.c.1 ",
"0 2Xx.x.x.x.x.x.c.c.c.c.%.| X.c.2X2X#.L } +.` j # @ =.1.q.e.V.p.w.p.V.w.q.>.; @ @ + o i A } G D 7 y.t.x.x.x.x.$.$.$.$.$.$.$.c.1 ",
"0 R 4X4X4X4X4X4X4X4X4Xy.Q t.qX4Xc. .| ` g a f = : ,.1.e.i.4XhXhXhXhXhXeX&.( k ; ; # o i i C ..y.o.J ! y.3X4X4X3X3X3X3X2X2X4XY 1 ",
"0 q R R R R R W W W H  .4X4X4X .c.3X1X( i i g C ! i.M.jXtXfXMXCXCXCXMXfX XP.( S S C ^ V i C | $.c.c.t.G D R R R R R R R R R 9 1 ",
"0 q q q w w w r t 7 c.qXqXc. .2X4X4X5X} g a ^ ] [.fXhXMXMXMXCXCXCXMXMXMXdXU.) ^ _ ] L._ p C 1X .! t.2X2X! y q q 0 0 0 0 0 9 0 1 ",
"0 q c.c.c.c.c.t. .o.t.y.y.o.4X4X4X4X4X%.+.V a _ P. XfXMXCXCXCXCXMXfXpX X[.] ^ a V _ _ ^ i C %.4X2XQ u.o.o.P ! x.c.x.x.x.x.x.0 9 ",
"0 3Xc.c.c.c.x.! 2X4X9Xo. .4X4X4X9XqXeXeX1XA g ( +.P.[.pXfXfXfXfXpX[.L.] ) ^ g f g g a g g ( 1X4X3X2XG y.4X4Xu.K x.c.x.x.x.x.c.9 ",
"q 3Xc.c.c.c.! 4X2X2Xy.u.4X4XqXqXqXeXqX&.} ` X.M.i.C V ( +.P.+.) ( V V a a a I 6.I p i g } %.5X3X3X2X2XQ y.2Xv.u.! c.x.x.x.x.v.9 ",
"q 3Xc.c.c.o.! 2X2Xu. .qX9XqXeXqXeXrX&.} E L r.Z.p.f o j @.@.V f N S N o p ` i.9.S o - N #.qX4X3X2X2X2Xt.! 2Xc.n.D x.x.x.x.x.2X9 ",
"0 4Xx.x.t.K  .c.c.| v.qXqXeXrXrXrX..E L } #.8XM.0.% $ 6.iXiXC 4 9.p.9.= N iXiX0.= o = J X.c.eXqX3X2X3X3X .u.c.c.G Q t.t.t.x.2X9 ",
"0 3X! G G S P P P J X.| 7XrXtXtX..} F X.U.dXmXfX@.o $ 0.zXzXB 6 B.D.B.4 B zXzX0.$ o F ! X.&.y.eXqX4X#.Q Q D P J J 6 D D J o.2X9 ",
"0 ! n.4X4X2X2X2X2Xc.2X5X#.y.X.%.L F &.aXNX-X$X|.L.z * 6.kXzXQ 0.kXcXS.J K zXkX6.* z .XaX5XK O.y.#.#.c.4X4X2X2Xb.b.b.v.v.t.4 N 9 ",
"0 D 4X2X2X2X2X2X2X2X3X3X3X4X7X..F } bXBX-XR.@X=XE.c a N M.kXN.Z.cXcXlXz.w.Z.p.N V K.|.BXnX5XF 7XeX4X3X2X2X2X2Xb.b.b.v.v.n.$   u ",
"0 D 4Xv.v.2X2X2X2X3X3X3X4X4X9XK } mXBX$XR.=X#XJ.E.W.( * D z.D.cXcXcXcXS.V.w.7 % ^ .X|.+X-XNX} #.eX3X3X2X2X3X2Xb.b.b.v.v.n.$   > ",
"0 D 4X2X2XpXdXaX4X3X3X4X4X4X4XF .XBX$X+X$X+XJ.|. X' : # + 6 z.D.cXcXlXS.w.6 # # # L .XR.@XBX%X} rX3X3X3X4X3X3XmXdX4X3Xv.n.$   > ",
"0 D 6X2X2XnXsXsXsX4X4X4X4XqX2X+.NXBXJ.$X$XJ.E.aXr.>.@ @ O & 7.z.A.S.A.z.7.& O @ *.-.@. XE.$XBX+.rX3X3X4X4X4X3XnXaXnXyXb.n.$   > ",
"0 D 6X2X3XmXsXaXyX4X4X4XqXeX2X XBX#X+X=XJ.J.%X@.>.=.=.@ @ ; ,.q.q.q.q.q.,.; @ @ =.=.-.@.E.J.BX.XrX3X4X4X4X4X4XnXsXaXyX3Xn.$   > ",
"0 6 qX3X4XeXsXsX7X9XqX9XqXeX2X%XBXR.@X-XJ.R.bXP *.=.=.=.=.=.1.1.e.e.e.1.1.=.=.=.=.=.@ P .XJ.BXnXrX4X4X4X4X4X6XsXsX6X3X3Xn.$   > ",
"0 6 qX4X4X4X9XqX7XqXqXqXqXqX2X.XBXR.@X-XJ.R..XL : ; -.;.<.3.2.4.C.C.C.4.2.3.<.;.-.; : L |.J.BX=XrX4X4X4X4X6XqX6X6X4X4X3Xn.$   > ",
"0 6 qXwX4X4X6XqXqXqXqXqXqXqX2X[.BX#XR.-X+XJ.].[ Z M : =.<.2.a.C.C.C.C.C.a.2.<.=.: M Z [ ].J.NX XrX4X7X9XqXwXwXwXwXb.b.3Xn.$   > ",
"0 6 rXeXeXqXqXqXqXv.#.t.t.o.o.G NX-XJ.$X=X`._.'.).v M : >.8.z.B.B.B.B.B.z.8.>.: M v ).'._.'.-X[.#.#.o.o.u.u.v.qX6Xb.b.qXn.$   > ",
"0 & t.$.$.#.#.#.#.o.2X2X3X4X4Xy.[.NX#XR.$X|.'.oXoX).v z M Z g.l.l.l.l.l.g.Z M z v ).oXoX'.XX.X3X3X2Xc.t.Q X...O...o.....Q O   > ",
"0 & ..| E E Q Q E D 3X4X4X4X4X4X4XpXBX@XJ.].`.*X:XXXH.c c n '.XXXXXXXXXX'.b c c H.XX:X*X`.].{.2X2Xc.c.2Xo.| E E E W W E K O   > ",
"0 & | H ! v.c.x.$.K K eX4X4X4X4X9XeXpXNX#XK.n *X<X;X].x m '.oX:X:X:X:X:XoX'.m x ].;X<X*Xn { %.4X3X2Xc.2XF u.c.2X3X6X6 E K O O 2 ",
"0 G S 4 G 2Xc.c.t. .F 2X4X4X4X4X9XqX7XyX%XH.b *X<X>X].Z m '.oX;X<X<X,X;XXX_.m Z {.>X<X*Xb / 1X4X3X2X3Xo.F x.c.2X2Xc.4 4 4 O 2 9 ",
"0 4X .! 4 c.v.c.c.c.K K 2XqX4X9XqXeXeXeX&./ v OXVXVX{.B U h.].}.VXVXVX}.].[ U B {.VXVXOXx / 1X4X3X4X..S K c.c.b.3X| $ . > 8 1 1 ",
"0 4Xb.b.6 E y.c.c.c.x.! | 3XrXqXqXeXeXqXk.M M uXvXxX0X{ B D 6.p.N.kXN.p.6.D B { 0XxXvXuXz Z c.4X4XO.S ! o.c.c.3X..4 X + 9 1 1 1 ",
"0 7Xb.2Xt.= ..2Xc.t.o.G K &.| t.eXqXeXqX%.M 5 N.cXkXuXg.U D 7.w.Z.kXZ.w.6.D U g.uXkXcXN.5 M c.qXO.L F G Q v.2Xv.K O   8 9 1 1 1 ",
"0 6Xb.b.b.G F $.o.u.2X .F E #.o.rXqXqXqXk.M 5 N.lXS.m.].h.[ g.{.gXVXgX{.g.[ h.].m.S.lXN.* M y...K S ! o.o.K u.E = . + 9 9 9 9 1 ",
"0 6Xb.b.b.c.6 E $.4X2X4X4Xu.P o.t.3XeXeXc.M * z.S.z.O.n )._.XX*X>X<X>XoXXX_.).n O.z.S.z.% 5 L F F o.x.t.t.y.G F X , 2 0 9 9 9 1 ",
"9 6Xb.b.b.b.o.6 | x.3X3X2X2Xu.! | O.y.3Xx.M % 9.w.6.B x n '.*X>X<X<X<X>X&X'.n x B 6.w.9.% o B ! o.c.c.c.t.K 4 $ , 9 0 9 9 9 1 1 ",
"9 6Xb.b.b.b.b. .G ..$.4X2X3X4X4X .! | O.| E N D S N z z c H.XX;X<X<X,X;XXXH.c z p = 6 6 * 5 E t.c.c.c.y.E B $ , 2 0 0 9 9 1 1 1 ",
"9 4Xb.b.b.2Xb.6XW S | ..c.4X4XqXqXu.o.G E K L * o z z z z / [ }.OX*XOX'.[ x z s o o o % E ..t.c.c.c.| F N O 3 9 0 0 0 0 1 1 1 1 ",
"9 4Xb.b.b.b.b.qX0 8 4 F O.#.qXeXo.2X3Xc.o.Q 4 * o o o = 7 7.7.0.Q { Z B 4 = o o o N B ..c.2X$.2Xc.| L = 3 u 9 0 0 9 9 9 1 1 1 1 ",
"1 W qXqXqXqXqXW 0 0 8 3 F | ..K 7X4X3X2X2Xc.x.$.C h l F.G.(.!.!.!.!.!.^.G.F.l d / #.y.2X4X4Xc.| L F 4 u 9 0 0 0 0 9 9 1 1 1 1 1 ",
"1 1 W W W W W 0 0 0 0 e 8 6 S K #.#.2XqXqXW.Y.^.!.!.!.!.!.!.!.!.!.!.!.!.!.!.!.!.!.(.T.W.o.E F K & 3 8 e 0 0 0 0 9 9 9 1 1 1 1 1 ",
"1 1 1 9 9 0 0 0 0 0 0 0 q e 8 3 F E } Q.^.!.!.!.!.!.!.!.!.!.!.!.!.!.!.!.!.!.!.!.!.!.!.!.^.F.= 3 8 e 0 0 0 0 0 9 9 9 1 1 1 1 1 1 ",
"1 1 x.x.x.x.x.x.x.0 0 0 0 0 q e 7 F.!.!.!.!.!.!.!.!.!.!.!.!.!.!.!.!.!.!.!.!.!.!.!.!.!.!.!.!.!._ y 0 0 0 0 0 9 9 9 1 1 1 1 1 1 1 ",
"1 b.x.x.x.x.x.x.x.0 0 0 0 0 0 L ^.!.!.!.!.!.!.!.!.!.!.!.!.!.!.!.!.!.!.!.!.!.!.!.!.!.!.!.!.!.!.!.^.L 0 0 0 9 9 9 1 1 1 1 1 1 1 1 ",
"1 v.x.x.x.x.x.x.x.x.0 0 0 0 Q.!.!.!.!.!.!.!.!.!.!.!.!.!.!.!.!.!.!.!.!.!.!.!.!.!.!.!.!.!.!.!.!.!.!.!.F.0 9 9 9 1 1 1 1 1 1 1 1 1 ",
"1 v.x.x.x.x.x.x.x.x.x.x.x.Y.!.!.!.!.!.!.!.!.!.!.!.!.!.!.!.!.!.!.!.!.!.!.!.!.!.!.!.!.!.!.!.!.!.!.!.!.!.F.9 9 1 1 1 1 1 1 1 1 1 1 ",
"1 v.x.x.x.x.x.x.x.x.x.x.Y.!.!.!.!.!.!.!.!.!.!.!.!.!.!.!.!.!.!.!.!.!.!.!.!.!.!.!.!.!.!.!.!.!.!.!.!.!.!.!.F.1 1 1 1 1 1 1 1 1 1 1 ",
"1 v.x.x.x.x.x.x.x.x.x.T.!.!.!.!.!.!.!.!.!.!.!.!.!.!.!.!.!.!.!.!.!.!.!.!.!.!.!.!.!.!.!.!.!.!.!.!.!.!.!.!.!.( 1 1 1 1 1 1 1 1 1 1 ",
"1 v.x.x.x.x.x.x.x.x.%./.!.!.!.!.!.!.!.!.!.!.!.!.!.!.!.!.!.!.!.!.!.!.!.!.!.!.!.!.!.!.!.!.!.!.!.!.!.!.!.!.!.^.y 1 1 1 1 1 1 1 1 1 ",
"1 v.x.x.x.x.x.x.x.x.T.!.!.!.!.!.!.!.!.!.!.!.!.!.!.!.!.!.!.!.!.!.!.!.!.!.!.!.!.!.!.!.!.!.!.!.!.!.!.!.!.!.!.!.( 1 1 1 1 1 1 1 1 1 ",
"1 v.x.x.x.x.x.x.x.x.G.!.!.!.!.!.!.!.!.!.!.!.!.!.!.!.!.!.!.!.!.!.!.!.!.!.!.!.!.!.!.!.!.!.!.!.!.!.!.!.!.!.!.!.G.1 1 1 1 1 1 1 1 1 ",
"1 v.x.x.x.x.x.x.x.x.!.!.!.!.!.!.!.!.!.!.!.!.!.!.!.!.!.!.!.!.!.!.!.!.!.!.!.!.!.!.!.!.!.!.!.!.!.!.!.!.!.!.!.!.!.1 1 1 1 1 1 1 1 1 ",
"1 v.t.x.x.x.x.x.x.x.!.!.!.!.!.!.!.!.!.!.!.!.!.!.!.!.!.!.!.!.!.!.!.!.!.!.!.!.!.!.!.!.!.!.!.!.!.!.!.!.!.!.!.!.!.1 1 1 1 1 1 1 1 1 ",
"1 v.t.t.t.x.x.x.x.x.!.!.!.!.!.!.!.!.!.!.!.!.!.!.!.!.!.!.!.!.!.!.!.!.!.!.!.!.!.!.!.!.!.!.!.!.!.!.!.!.!.!.!.!.!.1 1 1 1 1 1 1 1 1 ",
"1 v.t.t.t.t.x.x.x.x.G.!.!.!.!.!.!.!.!.!.!.!.!.!.!.!.!.!.!.!.!.!.!.!.!.!.!.!.!.!.!.!.!.!.!.!.!.!.!.!.!.!.!.!.G.1 1 1 1 1 1 1 1 1 ",
"1 Y 3X3X3X3X3X3X4X4XT.!.!.!.!.!.!.!.!.!.!.!.!.!.!.!.!.!.!.!.!.!.!.!.!.!.!.!.!.!.!.!.!.!.!.!.!.!.!.!.!.!.!.!.( 1 1 1 1 1 1 1 1 1 ",
"0 f.f.Y Y Y Y Y Y Y L /.!.!.!.!.!.!.!.!.!.!.!.!.!.!.!.!.!.!.!.!.!.!.!.!.!.!.!.!.!.!.!.!.!.!.!.!.!.!.!.!.!.^.8 1 1 1 1 1 1 1 1 1 "
};
