/* XPM */
static const char *UXVpdF8z[] = {
/* columns rows colors chars-per-pixel */
"64 64 236 2 ",
"   c #341A19",
".  c #391D1B",
"X  c #3C201C",
"o  c #3C2B36",
"O  c #392F2D",
"+  c #45251A",
"@  c #4F301E",
"#  c #712C1B",
"$  c #552D27",
"%  c #4D3228",
"&  c #43302C",
"*  c #563627",
"=  c #4A3635",
"-  c #553B33",
";  c #462D33",
":  c #763627",
">  c #663932",
",  c #683529",
"<  c #574E1C",
"1  c #52441E",
"2  c #574B1E",
"3  c #73761D",
"4  c #6E6F1F",
"5  c #5B4438",
"6  c #57563C",
"7  c #654B3A",
"8  c #74573E",
"9  c #6F7126",
"0  c #737720",
"q  c #757925",
"w  c #767B2A",
"e  c #787D2E",
"r  c #72742A",
"t  c #797E32",
"y  c #777B37",
"u  c #6D6D31",
"i  c #605B1E",
"p  c #342D46",
"a  c #3A344A",
"s  c #3D3953",
"d  c #3F3A59",
"f  c #2E2741",
"g  c #453948",
"h  c #433C52",
"j  c #473D59",
"k  c #543C47",
"l  c #653D45",
"z  c #473465",
"x  c #394651",
"c  c #346165",
"v  c #356F7B",
"b  c #31547D",
"n  c #464548",
"m  c #594849",
"M  c #494659",
"N  c #564D56",
"B  c #58555A",
"V  c #4D5955",
"C  c #664A46",
"Z  c #6B5344",
"A  c #64524B",
"S  c #6A564B",
"D  c #6A584C",
"F  c #715A4D",
"G  c #6C5D54",
"H  c #625A5A",
"J  c #695857",
"K  c #735954",
"L  c #624A52",
"P  c #65614C",
"I  c #626442",
"U  c #666353",
"Y  c #6C635C",
"T  c #6C6656",
"R  c #726156",
"E  c #73655B",
"W  c #78675E",
"Q  c #776D49",
"!  c #494764",
"~  c #4E506E",
"^  c #595567",
"/  c #575A75",
"(  c #534E71",
")  c #625D65",
"_  c #795C66",
"`  c #5A637A",
"'  c #4B7171",
"]  c #6B6568",
"[  c #746A64",
"{  c #796C64",
"}  c #746D6B",
"|  c #756765",
" . c #7C736C",
".. c #79736A",
"X. c #686572",
"o. c #686776",
"O. c #766874",
"+. c #7C7673",
"@. c #7E7D73",
"#. c #7D7D7B",
"$. c #767475",
"%. c #802E1C",
"&. c #933E1E",
"*. c #993825",
"=. c #85382A",
"-. c #AC3E2A",
";. c #A4431E",
":. c #894436",
">. c #8E4730",
",. c #B54529",
"<. c #AC502E",
"1. c #C75833",
"2. c #C6552C",
"3. c #D46A3B",
"4. c #C96032",
"5. c #86594B",
"6. c #8F5C4B",
"7. c #A35942",
"8. c #996A53",
"9. c #91654E",
"0. c #A36649",
"q. c #B76943",
"w. c #AB7558",
"e. c #B17152",
"r. c #85746D",
"t. c #817D74",
"y. c #837E79",
"u. c #807771",
"i. c #91746E",
"p. c #B07D64",
"a. c #DC7040",
"s. c #7A8036",
"d. c #7B8138",
"f. c #7F8226",
"g. c #5D8172",
"h. c #7F8076",
"j. c #64937D",
"k. c #B8825C",
"l. c #818075",
"z. c #898175",
"x. c #83837B",
"c. c #89867D",
"v. c #8A897E",
"b. c #B18B70",
"n. c #C1955E",
"m. c #C3845F",
"M. c #EB924E",
"N. c #E68A4B",
"B. c #C8946F",
"V. c #D3A679",
"C. c #E3AC7C",
"Z. c #3233B0",
"A. c #4C3E95",
"S. c #4834A9",
"D. c #4731B0",
"F. c #304D8C",
"G. c #377596",
"H. c #3973B5",
"J. c #316DAB",
"K. c #3747AD",
"L. c #55468C",
"P. c #655A94",
"I. c #5E6982",
"U. c #4F6D92",
"Y. c #626A82",
"T. c #6A7487",
"R. c #71748E",
"E. c #5444B4",
"W. c #544BAB",
"Q. c #6457AE",
"!. c #457CBB",
"~. c #4A76AD",
"^. c #6B74A3",
"/. c #371DD6",
"(. c #3B25C8",
"). c #3D28D1",
"_. c #3C35D0",
"`. c #4029CA",
"'. c #526DDC",
"]. c #3E8789",
"[. c #3C8D91",
"{. c #479197",
"}. c #758498",
"|. c #7D8388",
" X c #5482BA",
".X c #5092A8",
"XX c #798AA5",
"oX c #758FB0",
"OX c #56B0B5",
"+X c #4A82C2",
"@X c #548BCB",
"#X c #5C92D1",
"$X c #6398D6",
"%X c #7196C5",
"&X c #6AA1DA",
"*X c #6EB1D1",
"=X c #7EB2EC",
"-X c #73A8E4",
";X c #6AC8D3",
":X c #868581",
">X c #8A8781",
",X c #8B8B84",
"<X c #8D8E89",
"1X c #858688",
"2X c #908E86",
"3X c #908F8A",
"4X c #928681",
"5X c #8F908B",
"6X c #92928D",
"7X c #919086",
"8X c #939591",
"9X c #989995",
"0X c #9C9B9A",
"qX c #8A8F96",
"wX c #B5A297",
"eX c #8999A8",
"rX c #879CB4",
"tX c #8C98A5",
"yX c #8AA2B9",
"uX c #96A8B6",
"iX c #9BAEBA",
"pX c #ABADAE",
"aX c #B79585",
"sX c #CCA98B",
"dX c #E9BD8A",
"fX c #C6B6A5",
"gX c #CBBBAB",
"hX c #F2C992",
"jX c #819CC4",
"kX c #85ABD8",
"lX c #8CAACA",
"zX c #A5BBC6",
"xX c #A8BDC6",
"cX c #86B5EA",
"vX c #86B9F3",
"bX c #ADC3CC",
/* pixels */
"q q q q q q q q q q q q q q q q w w w w w w w w w w w w w w w w w w w w w w w w w w q q q q q q q q 0 3 0 3 3 3 3 3 3 3 3 3 3 3 ",
"q q l.@.@.@.@.h.@.@.@.@.@.h.w w w w w w w w w e e e e e e e e e y u o.X.X.X.X.X.X.o.#.c.v.v.q q q q @.@.@.@.@.@.@.@.@.+.@.@.3 3 ",
"q x.@.@.@.@.@.@.@.@.@.h.h.l.x.w w w w e e e e e e e e e e e y y u o.! ! ! ! ! ! ! ! X.x.v.>X6Xq q x.@.@.@.@.@.@.@.@.@.@.@.@.x.3 ",
"q x.@.@.@.@.@.@.@.h.l.l.l.l.>Xw w e e e e e e t t t t t t y P B B ` Y.}.tXtX}.I.~ ! M ^ #.>X6Xq q x.@.@.@.@.@.@.@.@.@.@.@.@.x.3 ",
"q x.@.@.@.@.@.@.h.l.l.l.l.l.>Xe e e e e t t t t t t s.e u I B ~ / T.XXiXzXzXeXT.~ d p M +.>X6Xq q x.@.@.@.@.@.@.@.@.@.@.@.@.x.3 ",
"q x.@.@.@.@.h.h.l.l.l.l.l.l.,Xe e e t t t t t t t d.t u 6 n ` R.eXuXzXxXiXeXT.~ j p p M +.>X6Xw q >X@.@.@.@.@.@.@.@.@.@.@.@.x.3 ",
"q x.@.@.h.h.h.l.h.l.h.l.l.l.,Xt t t t t t t d.d.d.y u 6 g ! R.yXzXbXbXbXiX}./ M M M M ^ #.,X6Xw w >Xh.@.@.@.@.@.@.@.@.@.@.@.x.3 ",
"q x.h.h.h.h.l.l.l.l.l.l.l.l.,Xt t t t t d.d.d.d.Q [ N s s / eXzXxXxXxXxXuX}./ s B $.#.x.>X<X6Xw w >Xl.@.@.@.@.@.@.@.@.@.@.@.x.3 ",
"q >Xh.h.h.l.l.l.l.l.l.l.l.l.,Xt t t d.d.d.d.d.y A ) h a ! Y.XXeXeXeXeXeX}.I.~ s M ] #.,X<X<X6Xe w >Xl.l.@.@.@.@.@.@.@.@.@.@.x.3 ",
"q >Xh.h.l.l.l.l.l.l.l.x.l.x.,Xt d.d.d.d.d.y y y m s f a ^ T.T.T.T.T.T.T.o.^ j j a h X.,X<X<X6Xe e >Xl.l.h.@.@.@.@.@.@.@.@.@.x.3 ",
"q >Xl.l.l.l.l.l.l.l.x.x.x.x.,Xd.d.d.y Q Q R R Y m h p h C 6.0.0.6.5.6.0.0.:.l j a a H t.<X<X6Xt e >Xl.l.l.h.@.@.@.@.@.@.@.@.x.3 ",
"q >Xh.l.l.l.l.l.l.l.x.x.x.x.,Xd.y Q Q {  .,X:X$.m g g l >.,.4.2.;.;.,.4.2.;.: k g g m J R  .6Xt e ,Xl.l.l.l.@.@.@.@.@.@.@.@.x.3 ",
"q >Xl.l.l.l.l.l.x.x.x.x.x.x.x.Q Q x.<X,X+.K J k ; $ , >.<.4.3.1.<.<.1.3.1.;.=., $ % = B #.{ c.y t ,Xl.l.l.l.h.@.@.@.@.@.@.@.x.3 ",
"q >Xl.l.l.l.l.l.x.x.x.x.#.[ | x.>X>X+.J ] X.) k $ # &.<.q.e.m.p.w.p.m.e.0.:.: # # @ o p B ] D Z 8 y.t.l.l.l.l.@.@.@.@.@.@.@.x.3 ",
"q U <X<X<X<X<X<X<X<X<Xy.W t.6X<Xx.{ [ ) h s g - , >.<.q.i.<XpXpXpXpXpXqX$.^ l : : $ o p p N } y. .F E y.,X<X<X,X,X,X,X>X>X<XP 3 ",
"q w U U U U U T T Y D { <X<X<X{ x.,X:X^ p p h N | i.b.aX0XuXzXbXbXbXzXuXXXY.^ C C N ! M p N [ +.x.x.t.S A U U U U U U U U U 0 3 ",
"q w w w e e e e y 8 x.6X6Xx.{ >X<X<X:X] h s ! ` }.uXiXxXxXxXbXbXbXxXzXzXyXR./ ! ~ ` I.~ a N :X..R t.>X>XR u w w q q q q q 0 q 3 ",
"q w x.x.x.x.x.t.{  .t.y.y. .<X<X<X<X<X#.X.M s ~ Y.XXuXxXbXbXbXbXxXuXeXXX}.` ! s M ~ ~ ! p N #.<X>XW u. .u.K R l.x.l.l.l.l.l.q 0 ",
"q ,Xx.x.x.x.l.W >X<X5X .{ <X<X<X5X6X8X8X:XB h ^ X.Y.}.eXuXuXuXuXeX}.I.` / ! h g h h d h h ^ :X,X,X>XS y.<X<Xu.G l.x.l.l.l.l.x.3 ",
"w ,Xx.x.x.x.R <X>X>Xy.u.<X<X6X6X6X8X6X$.] ) | b.i.N M ^ o.Y.o./ ^ M M s s s L 5.C a p h X.#.:X,X,X>X>XE y.>Xc.u.E x.l.l.l.l.c.0 ",
"w ,Xx.x.x. .R >X>Xu.{ 6X5X6X8X6X8X9X$.] Y J r.B.b.g o m O.O.M g m C m o a ) i.8.C o ; m +.5X<X,X>X>X>Xt.R >Xx.z.Z l.l.l.l.l.>X0 ",
"q <Xl.l.t.G ..x.x.[ c.6X6X8X0X9X9X} Y J ] +.4Xb.9.= % 5.wXwXN 5 8.p.8.- m wXwX9.- O - F } :X8X6X,X>X,X,X{ u.x.x.D W t.t.t.l.>X0 ",
"q ,XE D D C K K G F | [ 3X9X0X0X} ] A | R.yXlXuXO.O % 9.gXfXN 7 B.C.B.5 B gXfX9.% O A W | $.y.8X6X<X+.| E Z F F F 7 Z Z F +.>X0 ",
"q W x.<X<X>X>X>X>Xx.>X:X+.y.| #.H A $.rXcX=X$X XU.x = 5.sXfXE 9.sXhXV.F T fXsX5.= x oXrX1XY ..y.+.+.x.<X<X>X>Xv.v.c.c.c.t.5 m 0 ",
"q Z <X>X>X>X>X>X>X>X,X,X,X<X3X} A ] jXvX=X!.@X&X~.b a 5 b.sXb.V.hXhXdXk.w.B.p.m M F. XvXkX1XA 3X6X<X,X>X>X>X>Xv.v.v.c.c.z.%   i ",
"q Z <Xc.c.>X>X>X>X>X,X,X,X<X5XJ ] lXvX$X!.&X#XJ.~.^.^ = 8 k.V.hXhXhXhXV.m.w.8 & ! oX X+X=XcX] +.8X,X,X>X>X,X>Xv.v.v.c.c.z.%   < ",
"q Z 2X>X>XeXyXrX<X,X,X,X<X<X<XA oXvX$X+X&X+XJ. XXX_ > $ % 7 k.C.hXhXdXV.w.7 % $ $ J oX!.@XvXjX] 9X,X,X,X<X,X,XlXyX<X,Xc.z.%   < ",
"q Z 2X>X>XkXtXtXtX<X<X<X<X6X>XX.cXvXH.$X$XJ.~.rXr.:.# # + * 6.k.B.V.B.k.6.* + # %.=.O.XX~.$XvXX.9X,X,X<X<X<X,XkXrXkXqXv.z.%   < ",
"q Z 2X>X,XlXtXrXtX<X<X<X6X8X>XXXvX#X+X-XH.H.%XO.:.*.*.# # : >.0.0.0.0.0.>.: # # *.*.=.O.~.H.vXoX9X,X<X<X<X<X<XkXtXrXqX,Xz.%   < ",
"q 7 6X,X<X8XtXtX3X5X6X5X6X8X>X%XvX!.@X-XJ.!.jXK %.*.*.*.*.*.<.<.q.q.q.<.<.*.*.*.*.*.# K oXJ.vXkX9X<X<X<X<X<X2XtXtX2X,X,Xz.%   < ",
"q 7 6X<X<X<X5X6X3X6X6X6X6X6X>XoXvX!.@X-XH.!.oXJ , : =.-.,.2.1.3.N.M.N.3.1.2.,.-.=.: , J .XJ.vX%X9X<X<X<X<X2X6X2X2X<X<X,Xz.%   < ",
"q 7 6X7X<X<X2X6X6X6X6X6X6X6X>X}.vX#X!.-X+XG.{.' V n > *.,.1.3.N.M.M.M.N.3.1.,.*.> n V ' {.G.cXXX9X<X3X5X6X7X7X7X7Xv.v.,Xz.%   < ",
"q 7 9X6X8X6X6X6X6Xc.+.t.t. . .J cX=XJ.$X-X[.[.{.].c n > :.7.k.n.n.n.n.n.e.7.:.> n c ].{.[..X-X|.+.+. . .u.u.c.6X2Xv.v.6Xz.%   < ",
"q * t.@.+.+.+.+.+. .>X>X,X<X<Xy.}.cX#X!.$X.X{.OXOX].c x n V g.j.j.j.j.j.g.V n x c ].OXOX{..XoX,X,X>Xx.t.E | } ..........E +   < ",
"q * } [ Y Y Y E Y Z ,X<X<X<X<X<X,XeXvX@XH.{.[.*X*X!.K.Z.Z.(./././././._._.Z.Z.F.G.OX;X*X[.{.|.>X>Xx.x.>X .[ T T T U Y Y G +   < ",
"q * ] D R c.x.t.u.G G 8X<X<X<X<X6X8XeXcX#XF.K._./././././././././././././././././._.'.@Xv ' #.,X,X>Xx.>XA u.x.>X,X2X7 Y G + + 4 ",
"q D C 5 S >Xx.x.t...A >X<X<X<X<X5X6XqXQ.)./././././././././././././././././././././././.(.W.|.<X,X>X,X..A l.x.>X>Xx.5 5 5 + 4 0 ",
"q 2X{ R 5 x.c.x.x.x.G G >X6X<X5XqXQ./././././././././././././././././././././././././././././.Q.1X<X} A G x.x.v.>X[ % . < 4 0 0 ",
"q <Xv.v.7 Y y.x.x.x.l.R [ ,X9X^.)./././././././././././././././././././././././././././././././.).P.A R +.x.x.,X[ 5 X @ 0 0 0 3 ",
"q 3Xv.>Xt.- ..>Xx.t. .S G $.S./././././././././././././././././././././././././././././././././././.S.S E c.>Xc.G +   4 0 0 0 3 ",
"q 2Xv.v.v.S A @. .u.>X{ A S./././././././././././././././././././././././././././././././././././././.S...G u.Y - . @ 0 0 0 3 3 ",
"q 2Xv.v.v.x.7 Y +.<X>X<XE./././././././././././././././././././././././././././././././././././././././.E.y.S A X 1 9 q 0 0 3 3 ",
"0 2Xv.v.v.v...7 [ l.,XQ./././././././././././././././././././././././././././././././././././././././././.L.5 % 1 0 q 0 0 0 3 3 ",
"0 2Xv.v.v.v.v.{ S } #.)./././././././././././././././././././././././././././././././././././././././././.(.= 1 9 q q 0 0 3 3 3 ",
"0 <Xv.v.v.>Xv.<XT C L./././././././././././././././././././././././././././././././././././././././././././.z 0 q q 0 q 3 3 3 3 ",
"0 <Xv.v.v.v.v.6Xq u D./././././././././././././././././././././././././././././././././././././././././././.S.q q 0 3 3 3 3 3 3 ",
"3 T 6X6X6X6X6XT q q /././././././././././././././././././././././././././././././././././././././././././././.q q 3 0 3 3 3 3 3 ",
"3 3 T T T T T q q q /././././././././././././././././././././././././././././././././././././././././././././.q 3 0 0 3 3 3 3 3 ",
"3 3 3 0 0 q q q q q /././././././././././././././././././././././././././././././././././././././././././././.0 0 0 3 3 3 3 3 3 ",
"3 3 l.l.l.l.l.l.l.q S./././././././././././././././././././././././././././././././././././././././././././.S.0 0 3 3 3 3 3 3 3 ",
"3 v.l.l.l.l.l.l.l.q ( /././././././././././././././././././././././././././././././././././././././././././.^ 0 3 3 3 3 3 3 3 3 ",
"3 c.l.l.l.l.l.l.l.l.r (./././././././././././././././././././././././././././././././././././././././././.(.r 3 3 3 3 3 3 3 3 3 ",
"3 c.l.l.l.l.l.l.l.l.l.P./././././././././././././././././././././././././././././././././././././././././.^ 3 3 3 3 3 3 3 3 3 3 ",
"3 c.l.l.l.l.l.l.l.l.l.l.E./././././././././././././././././././././././././././././././././././././././.A.3 3 3 3 3 3 3 3 3 3 3 ",
"3 c.l.l.l.l.l.l.l.l.l.l.l.E./././././././././././././././././././././././././././././././././././././.A.3 3 3 3 3 3 3 3 3 3 3 3 ",
"3 c.l.l.l.l.l.l.l.l.l.l.l.l.E./././././././././././././././././././././././././././././././././././.A.3 3 3 3 3 3 3 3 3 3 3 3 3 ",
"3 c.l.l.l.l.l.l.l.l.l.l.l.l.>XH (./././././././././././././././././././././././././././././././.(.H 3 3 3 3 3 3 3 3 3 3 3 3 3 3 ",
"3 c.l.l.l.l.l.l.l.l.l.l.l.l.>X0 r ( /././././././././././././././././././././././././././././.( r 3 3 3 3 3 3 3 3 3 3 3 3 3 3 3 ",
"3 c.l.l.l.l.l.l.l.l.l.l.l.l.v.3 0 0 r ( (./././././././././././././././././././././././.`.W.:X3 3 3 3 3 3 3 3 3 3 3 3 3 3 3 3 3 ",
"3 c.t.l.l.l.l.l.l.l.l.l.l.l.c.3 0 0 0 0 0 H L.(./././././././././././././././././.`.W.P.l.l.c.3 3 3 3 3 3 3 3 3 3 3 3 3 3 3 3 3 ",
"3 c.t.t.t.l.l.l.l.l.l.l.l.l.c.3 0 0 3 3 0 0 0 0 u H ( A.S.(./././././.(.D.D.Q.P.R.l.l.l.l.l.c.3 3 3 3 3 3 3 3 3 3 3 3 3 3 3 3 3 ",
"3 c.t.t.t.t.l.l.l.l.l.l.l.l.c.3 3 3 3 3 3 3 3 3 3 0 0 0 0 0 0 0 0 0 3 3 3 3 P <Xl.l.l.l.l.l.c.3 3 3 3 3 3 3 3 3 3 3 3 3 3 3 3 3 ",
"3 P ,X,X,X,X,X,X,X,X,X,X<X<XP 3 3 3 3 3 3 3 3 3 3 3 3 3 0 0 0 0 3 3 3 3 3 3 3 P <X<X<X<X,X,X3 3 3 3 3 3 3 3 3 3 3 3 3 3 3 3 3 3 ",
"q f.f.P P P P P P P P P P P 3 3 3 3 3 3 3 3 3 3 3 3 3 3 0 0 0 0 3 3 3 3 3 3 3 3 P P P P P P 3 3 3 3 3 3 3 3 3 3 3 3 3 3 3 3 3 3 "
};
