/* XPM */
static const char *UXVpdF8x[] = {
/* columns rows colors chars-per-pixel */
"64 64 250 2 ",
"   c #191C1C",
".  c #341A19",
"X  c #391D1B",
"o  c #372A1C",
"O  c #1D2525",
"+  c #1F3537",
"@  c #3B2C35",
"#  c #383735",
"$  c #2F2F2F",
"%  c #1A201F",
"&  c #45261A",
"*  c #512F1E",
"=  c #722C1B",
"-  c #562D27",
";  c #4D3329",
":  c #43352D",
">  c #563627",
",  c #473A35",
"<  c #553A32",
"1  c #462B2D",
"2  c #773728",
"3  c #653933",
"4  c #663529",
"5  c #431F18",
"6  c #364037",
"7  c #47491E",
"8  c #4E481F",
"9  c #564C1D",
"0  c #59541E",
"q  c #73761D",
"w  c #6E6F1F",
"e  c #5B4827",
"r  c #43423C",
"t  c #5A4438",
"y  c #55532F",
"u  c #654A3A",
"i  c #6E5233",
"p  c #6A6826",
"a  c #737721",
"s  c #757924",
"d  c #767B2A",
"f  c #787D2E",
"g  c #747629",
"h  c #797E32",
"j  c #777B37",
"k  c #6D7030",
"l  c #595E28",
"z  c #342D46",
"x  c #3A3549",
"c  c #3E3954",
"v  c #2D3344",
"b  c #1E3C48",
"n  c #453948",
"m  c #443C54",
"M  c #543C47",
"N  c #653D45",
"B  c #2A4248",
"V  c #384749",
"C  c #264A57",
"Z  c #374954",
"A  c #2B525D",
"S  c #335859",
"D  c #30625C",
"F  c #275965",
"G  c #335D64",
"H  c #31547D",
"J  c #346466",
"K  c #326C74",
"L  c #2F7576",
"P  c #367678",
"I  c #316869",
"U  c #464747",
"Y  c #594A47",
"T  c #58544C",
"R  c #494659",
"E  c #564D56",
"W  c #495857",
"Q  c #585658",
"!  c #664A45",
"~  c #6B5344",
"^  c #64534B",
"/  c #69564A",
"(  c #72594C",
")  c #6B5D54",
"_  c #675956",
"`  c #725A54",
"'  c #6B4C4C",
"]  c #4F6455",
"[  c #65614D",
"{  c #626442",
"}  c #666353",
"|  c #6C635C",
" . c #6C6656",
".. c #73655B",
"X. c #74645A",
"o. c #776D49",
"O. c #494764",
"+. c #4A576A",
"@. c #585567",
"#. c #565B75",
"$. c #515269",
"%. c #625D65",
"&. c #795C66",
"*. c #5A637A",
"=. c #4E726E",
"-. c #6C6766",
";. c #746A64",
":. c #796C64",
">. c #746D6A",
",. c #756765",
"<. c #7C736C",
"1. c #77746B",
"2. c #686674",
"3. c #766874",
"4. c #7C7672",
"5. c #7E7D73",
"6. c #7D7D7B",
"7. c #767474",
"8. c #85321C",
"9. c #863624",
"0. c #993825",
"q. c #803931",
"w. c #A93D28",
"e. c #A4431E",
"r. c #884538",
"t. c #8E4730",
"y. c #A94728",
"u. c #B5452A",
"i. c #B05233",
"p. c #C85734",
"a. c #C6552C",
"s. c #D46B3C",
"d. c #C96032",
"f. c #895B4A",
"g. c #8F5949",
"h. c #916650",
"j. c #A36649",
"k. c #AB775B",
"l. c #B3704D",
"z. c #817D74",
"x. c #827E79",
"c. c #807771",
"v. c #8B746D",
"b. c #AD7D63",
"n. c #A35942",
"m. c #DD7643",
"M. c #E17B44",
"N. c #7A8036",
"B. c #7B8138",
"V. c #7F8226",
"C. c #568275",
"Z. c #438178",
"A. c #7F8076",
"S. c #7F817E",
"D. c #64937D",
"F. c #B6815C",
"G. c #818175",
"H. c #84837B",
"J. c #89867D",
"K. c #8A897E",
"L. c #898175",
"P. c #89947A",
"I. c #B38F6F",
"U. c #BBA17C",
"Y. c #C1955E",
"T. c #C3845F",
"R. c #E78B4B",
"E. c #C59D78",
"W. c #CD946C",
"Q. c #D1A579",
"!. c #E3AC7C",
"~. c #367587",
"^. c #346FAE",
"/. c #365983",
"(. c #5B6A85",
"). c #626A82",
"_. c #6A7487",
"`. c #727D8E",
"'. c #457CBB",
"]. c #4A76AD",
"[. c #6179A1",
"{. c #3A8886",
"}. c #3C938E",
"|. c #3C8894",
" X c #4A898A",
".X c #449797",
"XX c #4E8B93",
"oX c #758498",
"OX c #708F8E",
"+X c #528AB1",
"@X c #798AA5",
"#X c #758FB0",
"$X c #4EA6A7",
"%X c #55A7AD",
"&X c #5AB2B8",
"*X c #6BAEB6",
"=X c #6BA39D",
"-X c #4A82C2",
";X c #558CCB",
":X c #5C92D1",
">X c #6898CF",
",X c #5FBAC1",
"<X c #63B9C5",
"1X c #72A5D9",
"2X c #77ABE7",
"3X c #65C1CA",
"4X c #6BCAD5",
"5X c #72CCDA",
"6X c #72D2DF",
"7X c #76D6E5",
"8X c #858581",
"9X c #898781",
"0X c #8B8B84",
"qX c #8D8E89",
"wX c #848786",
"eX c #908E86",
"rX c #908F8A",
"tX c #928681",
"yX c #8F908B",
"uX c #8A9E8A",
"iX c #92928D",
"pX c #919086",
"aX c #949591",
"sX c #989995",
"dX c #9C9B9A",
"fX c #899098",
"gX c #94A48C",
"hX c #B5A297",
"jX c #8999A8",
"kX c #879CB4",
"lX c #8C98A5",
"zX c #8AA2B9",
"xX c #96A8B6",
"cX c #93B4B9",
"vX c #ABADAE",
"bX c #B79585",
"nX c #CDAF8A",
"mX c #EBBC89",
"MX c #C8B7A7",
"NX c #AAC5B2",
"BX c #F1C993",
"VX c #CAD3B4",
"CX c #819CC4",
"ZX c #85ABD8",
"AX c #8CAACA",
"SX c #A7BCC6",
"DX c #86B5EA",
"FX c #86B9F3",
"GX c #8CCCCD",
"HX c #ADC3CC",
/* pixels */
"s s s s s s s s s s s s s s s d d d d d d d d d d d d d d d d d d d d d d d d d d d s s s s s s s s a a a q q q q q q q q q q q ",
"s s G.5.5.5.5.A.5.5.5.5.5.A.d d d d d d d d d f f f f f f f f f j k 2.2.2.2.2.2.2.2.6.J.K.K.s s s s 5.5.5.5.5.5.5.5.5.5.5.5.q q ",
"s H.5.5.5.5.A.5.5.5.5.A.A.G.H.d d d d f f f f f f f f f f f j j k 2.O.O.O.O.O.O.O.$.2.G.K.9XiXs s H.5.5.5.5.5.5.5.5.5.5.5.5.H.q ",
"s H.5.5.5.5.5.5.5.A.G.G.G.G.9Xd d f f f f f f h h h h h h k [ T Q *.).oXlXlXoX(.$.O.R @.6.9XiXs s H.5.5.5.5.5.5.5.5.5.5.5.5.H.q ",
"s H.5.5.5.5.5.5.A.G.G.G.G.G.9Xf f f f f h h h h h h h j k { Q $.#._.@XcXSXSXjX_.$.c z R 4.9XiXs s H.5.5.5.5.5.5.5.5.5.5.5.5.H.q ",
"s H.5.5.5.5.A.A.G.G.G.G.G.G.0Xf f f h h h h h h h h h k y U *.`.jXxXSXSXSXjX_.$.m x z R 4.9XiXd s 9X5.5.5.5.5.5.5.5.5.5.5.5.H.q ",
"s H.5.5.A.A.A.G.A.G.A.G.G.G.0Xh h h h h h h B.B.h j k y n O.`.zXSXHXHXHXcXoX#.R R R R @.6.0XiXd d 9XA.5.5.5.5.5.5.5.5.5.5.5.H.q ",
"s H.A.A.A.A.G.G.A.G.G.G.G.G.0Xh h h h h B.B.B.B.o.;.E c c #.jXSXSXSXSXSXxXoX#.c Q 7.6.H.9XqXiXd d 9XG.5.5.5.5.5.5.5.5.5.5.5.H.q ",
"s 9XA.A.A.G.G.G.G.G.G.G.G.G.0Xh h h B.B.B.B.B.j ^ %.m x O.).@XjXjXjXjXjXoX(.O.c R -.6.0XqXqXiXf d 9XG.G.5.5.5.5.5.5.5.5.5.5.H.q ",
"s 9XA.A.G.G.G.G.G.G.G.H.G.H.0Xh B.B.B.B.B.j j j Y c z x $._._._._._._._.2.$.R m x m -.0XqXqXiXf f 9XG.G.A.5.5.5.5.5.5.5.5.5.H.q ",
"s 9XG.G.G.G.G.G.G.G.H.H.H.H.0XB.B.B.j o.o.X.X.| Y m z m ' g.j.j.g.f.g.j.j.r.N m x x _ z.qXqXiXh f 9XG.G.G.A.5.5.5.5.5.5.5.5.H.q ",
"s 9XA.G.G.G.G.G.G.G.H.H.H.H.qXB.j o.o.:.<.0X9X7.Y n n N t.u.d.a.e.e.u.a.a.y.2 M x n E _ X.<.iXh f 0XG.G.G.G.5.5.5.5.5.5.5.5.H.q ",
"s 9XG.G.G.G.G.G.G.H.H.H.H.H.8Xo.o.H.qX0Xz.` _ M 1 - 4 t.i.d.s.p.y.i.p.s.d.y.9.4 - 1 , Q 6.:.J.j h 0XG.G.G.G.A.5.5.5.5.5.5.5.H.q ",
"s 9XG.G.G.G.G.G.H.H.H.H.6.;.,.H.9X9X4._ -.2.%.M - = 0.y.j.l.T.b.k.b.b.k.j.r.2 = = * @ z Q -./ ~ i x.x.G.G.G.G.5.5.5.5.5.5.5.H.q ",
"s } qXqXqXqXqXqXqXqXqXx...z.iXqXH.:.;.%.m c n < 4 t.i.l.v.qXvXvXvXvXvXaX7.@.N 2 2 - @ z z E >.x.<.( X.x.0XqXqX0X0X0X0X9X9XqX[ q ",
"s d } } } } }  . . .) :.qXqXqX:.x.0X8X@.z z m E X.v.I.bXdXxXSXHXHXHXSXxX@X).@.' ! E $.R z E ;.4.H.H.z./ ^ } } } } } } } } } a q ",
"s d d d f f f h j i H.iXiXH.:.9XqXqXwX-.m c O.*.oXxXvXSXSXSXHXHXHXSXSXSXzX`.#.O.$.*.(.+.x E 8X:.X.z.9X9XX.k d d s s s s s a s q ",
"s d H.H.H.H.H.z.:.<.z.x.x.<.qXqXqXqXqX6.2.R c $.).@XxXSXHXHXHXHXSXxXjX@XoX*.O.c R $.$.O.z E 6.qX9X..c.<.c.` X.G.H.G.G.G.G.G.s q ",
"s 0XH.H.H.H.G.X.9XqXyX<.:.qXqXqXyXiXaXaX8XQ m @.2.).oXjXxXxXxXxXjXoX).*.#.O.m n m m c c m @.8XqX0X9X/ x.qXqXc.) G.H.G.G.G.G.H.a ",
"d 0XH.H.H.H.X.qX9X9Xx.c.qXqXiXiXiXaXiX7.-.%.,.I.v.E R $.2.).2.#.@.R R c c c ' f.' x z m 2.6.wX0X0X9X9X..x.9XJ.c.X.H.G.G.G.G.J.a ",
"d 0XH.H.H.<.X.9X9Xc.:.iXyXiXaXiXaXsX7.-.-._ v.E.b.n @ M 3.3.R n Y ' Y @ x %.v.j.! @ @ Y 4.yXqX0X9X9X9Xz.X.9XH.G.~ G.G.G.G.G.9Xs ",
"s qXG.G.z.) :.H.H.;.J.iXiXaXsXsXsX>.| _ -.4.tXI.h.: ; f.hXhXE t h.b.h.< E hXhXh.< @ < ( ,.H.aXiX0X9X0X0X:.c.H.H./ ..z.z.z.G.9Xs ",
"s 0XX./ / ! ` ` ` ( ,.;.rXdXdXdX>.-.^ ,.`.zXAXxX3.# ; h.MXMXT u W.!.I.t T MXMXh.; @ ^ X.,.7.x.aXiXqX4.....~ ` ( ( u ~ ~ ( 4.9Xa ",
"s X.L.qXqX9X9X9X9XH.9XwX4.x.,.6._ ^ 7.kXDX2X>X+X(.Z , f.nXMX..h.nXBXQ.( ) MXnXf., Z #XkXwX| 1.x.4.4.H.qXqX9X9X9XK.K.J.J.z.t Y a ",
"s ~ qX9X9X9X9X9X9X9X0X0X0XqXrX>.^ -.CXFX2X'.;X1X].H x t I.nXU.E.BXBXmXF.k.E.b.Y R /.+XFXZXwX^ rXaXqX0X9X9X9X9XK.K.K.J.J.L.; . 0 ",
"s ~ qXJ.J.9X9X9X9X0X0X0XqXqXyX) %.AXFX:X'.1X:X^.].[.$., i F.!.BXBXBXBXQ.T.k.i : O.#X+X-X2XDX-.4.aX0X0X9X9X0X9XK.K.K.J.J.L.; . 9 ",
"s ~ qX9X9XjXzXkXqX0X0XqXqXqXqX^ #XFX>X-X1X-X^.+X@X&.3 - ; u F.!.BXBXmXQ.k.u - * - _ #X'.;XDX1X-.sX0X0X0XqX0X0XAXzXqX0XJ.L.; . 9 ",
"d ~ eX9X9XZXlXlXlXqXqXqXqXiX9X-.DXFX^.>X>X^.].kXv.r.= = & > g.F.W.Q.W.F.g.> & = 8.q.3.@X].>XFX2.sX0X0XqXqXqX0XZXkXZXfXK.L.; . 9 ",
"s ~ eX9X0XAXlXkXfXqXqXqXiXaX9X@XFX:X-X1X^.^.>X3.r.0.0.= = 2 t.j.j.j.j.j.t.2 = = 0.0.q.3.[.^.FX#XsX0XqXqXqXqXqXZXlXkXfX0XL.; . 9 ",
"s u iX0XqXaXlXlXrXyXiXyXiXaX9X>XFX'.;X2X^.'.CX` 8.0.0.0.0.0.y.i.l.l.l.i.y.0.0.0.0.0.= ` #X^.FXZXsXqXqXqXqXqXeXlXlXeX0X0XL.; . 9 ",
"s u iXqXqXqXyXiXrXiXiXiXiXiX9X#XFX'.;X2X^.'.#X_ 4 2 9.w.u.a.p.s.R.R.R.m.p.a.u.w.9.2 4 _ +X^.FX1XsXqXqXqXqXeXiXeXeXqXqX0XL.; . 9 ",
"s u iXpXqXqXeXiXiXiXiXiXiXiX9XoXFX:X'.2X-X^.XX=.W U 3 0.u.p.m.R.R.R.R.R.s.p.w.0.3 U W =. X^.DX@XsXqXrXyXiXpXpXpXpXK.K.0XL.; . 9 ",
"s u sXaXaXiXiXiXiXJ.4.z.z.<.<._ DX2X^.>X1X|.}..X{.J U 3 r.n.F.Y.Y.Y.Y.Y.k.n.r.3 U J {..X}..X2XoX4.4.<.<.c.c.J.iXeXK.K.iXL.; . 9 ",
"s > z.z.4.4.4.4.4.<.9X9X0XqXqXx.oXDX:X'.>X+X.X&X&X{.J Z U W C.D.D.D.D.D.C.W U V J {.&X&X.X%X#X0X0X9XH.z...,.>.1.>.<.>.>...& . 9 ",
"s > >.;.| | ....| ~ 0XqXqXqXqXqXqXjXFX;X^.XX|.<X4X%X~.F F P .X$X$X$X$X$X.XL F F ~.%X4X<X|.XXOX9X9XH.H.9X<.;.| | |  . .| ) & . 0 ",
"s > ;./ X.J.H.z.4.) ) aXqXqXqXqXiXaXjXDX:X/.P <X7X<XXXG K .X&X4X4X4X4X4X&X.XK G XX3X7X<XP +.6.qX0X9XH.9X^ c.H.9X0XeXu | ) & & w ",
"s / ! t / 9XH.H.z.:.^ 9XqXqXqXqXiXiXrXfX>X~.K <X7X4XXXW P .X%X3X7X7X6X3X%X}.P W OX5X7X<XK +.8XqX0X9X0X<.^ G.H.9X9XH.t t t & w a ",
"s qX:.X.t H.J.H.H.H.) ) 9XiXqXyXiXiXaXaX7.+.J *XGXGXOXT ] Z. X=XGXGXGX=X X=.] T OXGXGX*XG +.8XqX0XqX>.! ) H.H.K.0X;.> X 0 p q q ",
"s qXK.K.u | x.H.H.H.G.X.;.0XsXiXiXiXaXiXS.U U gXVXNXuX=.T ~ f.b.U.nXU.b.f.~ T =.gXVXVXgXV W H.qXqX1.! X.4.H.H.0X>.t X * a q q q ",
"s rXK.9Xz.< 1.9XH.z.<./ ) 7.;.z.aXiXaXiXx.U r U.BXnXgXC.] ~ g.k.E.nXE.k.f.~ ] C.gXnXBXU.r U H.iX1._ ^ / ..J.9XJ._ & . p s q q q ",
"s eXK.K.K./ ^ 5.<.c.9X:.^ | 4.<.sXiXiXiXS.U r U.mXQ.P. XZ.=.C.=XcXGXcXOXC.=.Z. XP.Q.mXU., U x.>.) ! X.<.<.) c.| < X * a a a q q ",
"s eXK.K.K.H.u | 4.qX9XqXqXc.` <.z.0XsXaXH.U , F.Q.F.1.P {.}.$X<X6X7X6X&X$X}.{.P 1.F.Q.F.: r _ ^ ^ <.G.z.z.x./ ^ X 8 w s a a q q ",
"a eXK.K.K.K.<.u ;.G.0X0X9X9Xc.X.;.1.x.0XG.U : h.k.f.T G L .X<X5X7X7X7X5X&X.XL G T f.k.h.: # T X.<.H.H.G.z.) t ; 8 a s a a a q q ",
"a eXK.K.K.K.K.:./ >.5.qX9X0XqXqX:.X.;.1.;.| Y ~ ~ Y Z C F ~.$X3X7X7X6X3X$X~.F C x < u u , t | z.H.H.H.x.| Y ; 8 w s s a a q q q ",
"a qXK.K.K.9XK.eX .! ;.>.H.qXqXiXiXc.<./ | | _ , # v B B Z +.=.=X*X<X*X.X=.S C B + $ o : | >.z.H.H.H.;.^ Y & e a s s s s q q q q ",
"a qXK.K.K.K.9XiXs p t ^ 1.4.iXaX<.9X0XH.<...t , # # @ < i g.g.h...%.W T t < @ $ $ T T >.H.9X4.9XH.-.^ < e 0 a s s a a a q q q q ",
"q  .iXiXiXiXiX .s s p e ^ -.>._ rXqX0X9X9XH.G.4.Y : * 9.i.p.i.y.2 & o 4 9.9.- $ W 4.x.9XqXqXH.;._ ^ t l a s s s s a a q q q q q ",
"q q  . . . . .s s s s g p u ! _ 4.4.9XiXiXH.G.z.u 2 9.u.s.M.p.w.= & X 2 u.u.i V @.H.iXiX<.| ^ ) > e p g s s s s a a a q q q q q ",
"q q q a a s s s s s s s d g p e / | ;.;.-.x.x.4.u 2 0.p.M.R.p.w.= 1 @ 3 r.r.^ G =.;.} ) / Y t e p s s s s s s a a a q q q q q q ",
"q q G.G.G.G.G.G.G.s s s s s d g p u ^ _ _ | | _ 4 2 0.p.M.R.p.w.2 , B C Z Z J P =._ ^ ! t u p g s s s s s s a q a q q q q q q q ",
"q K.G.G.G.G.G.G.G.s s s s s s d d g p e e Y Y t < Y t ' f.f.( ! , V C F P XX.X{.S , t t X.5.9Xs s s s s s a q q q q q q q q q q ",
"q J.G.G.G.G.G.G.G.G.s s s s s s d d d g g g k k U S A A A A A C C C F P $X3X<X.XD V Q >.A.H.9Xs s s s s a a a q q q q q q q q q ",
"q J.G.G.G.G.G.G.G.G.G.G.G.G.9Xs s s s s d d k ] S K L L L L L I A C G .X3X7X5X<X.XJ V T 1.G.9Xs s s s a a a q q q q q q q q q q ",
"q J.G.G.G.G.G.G.G.G.G.G.G.G.9Xs s s s s s p l D P .X.X.X}.{.{.K C b A  X%X&X%X%X XJ + # ;.G.9Xs s s a a a q q q q q q q q q q q ",
"q J.G.G.G.G.G.G.G.G.G.G.G.G.9Xs s s s s p 7 6 I .X<X4X<X$X}.{.I + O O + v B B B + + O # ;.G.9Xs a a a a q q q q q q q q q q q q ",
"q J.G.G.G.G.G.G.G.G.G.G.G.G.9Xs s s s s p o O C P  XXX XP D D B O $ # r r r r r r r r T 1.G.9Xa a a a q q q q q q q q q q q q q ",
"q J.G.G.G.G.G.G.G.G.G.G.G.G.9Xs s s s s p o   % O O O O O O % % % U >.4.4.4.4.4.5.5.5.5.z.G.9Xa a q q q q q q q q q q q q q q q ",
"q J.G.G.G.G.G.G.G.G.G.G.G.G.9Xa s s s s w 0 7 7 7 7 7 7 7 7 7 7 8 >.5.G.G.G.G.G.G.G.G.G.G.G.9Xq q q q q q q q q q q q q q q q q ",
"q J.G.G.G.G.G.G.G.G.G.G.G.G.K.q q q s s a a a a a a a a a a a a a 9XG.G.G.G.G.G.G.G.G.G.G.G.J.q q q q q q q q q q q q q q q q q ",
"q J.z.G.G.G.G.G.G.G.G.G.G.G.J.q q a a a a a a a s s s s s s s s s qXqXqXqXqXG.G.G.G.G.G.G.G.J.q q q q q q q q q q q q q q q q q ",
"q J.z.z.z.G.G.G.G.G.G.G.G.G.J.q q q q q a a a a a a a a a a a a s s a [ [ [ qXG.G.G.G.G.G.G.J.q q q q q q q q q q q q q q q q q ",
"q J.z.z.z.z.G.G.G.G.G.G.G.G.J.q q q q q q q q q q a a a a a a a a a q q q q [ qXG.G.G.G.G.G.J.q q q q q q q q q q q q q q q q q ",
"q [ 0X0X0X0X0X0X0X0X0X0XqX0X[ q q q q q q q q q q q q q q q q q q q q q q q q [ qXqXqXqX0X0Xq q q q q q q q q q q q q q q q q q ",
"s V.V.[ [ [ [ [ [ [ [ [ [ [ q q q q q q q q q q q q q q q q q q q q q q q q q q [ [ [ [ [ [ q q q q q q q q q q q q q q q q q q "
};
