/* XPM */
static const char *V2FsbF9M[] = {
/* columns rows colors chars-per-pixel */
"64 64 93 2 ",
"   c black",
".  c #55321C",
"X  c #56341F",
"o  c #573723",
"O  c #583622",
"+  c #583724",
"@  c #583824",
"#  c #666D17",
"$  c #676C18",
"%  c #686E18",
"&  c #6B711A",
"*  c #6C721B",
"=  c #6E731C",
"-  c #70731A",
";  c #72751B",
":  c #72761E",
">  c #74771D",
",  c #75781E",
"<  c #654935",
"1  c #6E6E23",
"2  c #6F7423",
"3  c #6E742E",
"4  c #707420",
"5  c #777723",
"6  c #777A20",
"7  c #787B21",
"8  c #797C22",
"9  c #70742B",
"0  c #70752F",
"q  c #777B28",
"w  c #787B2D",
"e  c #737733",
"r  c #747731",
"t  c #747832",
"y  c #727834",
"u  c #797D32",
"i  c #7C7E31",
"p  c #7D7F35",
"a  c #757938",
"s  c #72793E",
"d  c #6C5847",
"f  c #6D5A4B",
"g  c #6F6050",
"h  c #6B6256",
"j  c #736E62",
"k  c #746F63",
"l  c #746F64",
"z  c #747064",
"x  c #7E8125",
"c  c #7F8131",
"v  c #7E8035",
"b  c #7F843F",
"n  c #7D8354",
"m  c #80824A",
"M  c #82834D",
"N  c #8B8A4E",
"B  c #888F66",
"V  c #939369",
"C  c #969569",
"Z  c #98976E",
"A  c #9A996F",
"S  c #868579",
"D  c #8E977D",
"F  c #9C9071",
"G  c #9A9A78",
"H  c #9F997C",
"J  c #A68C63",
"K  c #A68D66",
"L  c #A08D6B",
"P  c #A6926D",
"I  c #A89270",
"U  c #A39D7F",
"Y  c #8E8D83",
"T  c #8F8D84",
"R  c #908E86",
"E  c #8F9881",
"W  c #919A85",
"Q  c #94928B",
"!  c #939D8E",
"~  c #A29B80",
"^  c #A39D83",
"/  c #A59D80",
"(  c #A09F86",
")  c #A69F85",
"_  c #96A097",
"`  c #9DA09A",
"'  c #9DA19D",
"]  c #A2A083",
"[  c #A3A28A",
"{  c #A4A289",
"}  c #AFA593",
"|  c #AFA696",
" . c #B2AEA6",
/* pixels */
"                                        o X X X X X X X ; ; ; ; ; ; ; ; ; ; ; ; ; ; ; ; ; ; ; ; ; ; ; ; ; ; ; ; ; ; ; ; ; ; ; ; ",
"                                        + Q S S S S S X ; ; ; ; ; ; ; ; ; ; ; ; ; ; ; ; ; ; ; ; ; ; ; ; ; ; ; ; ; ; ; ; ; ; ; ; ",
"                                        + Q S S S S S X ; ; ; ; ; ; ; ; ; ; ; ; ; ; ; ; ; ; ; ; ; ; ; ; ; ; ; ; ; ; ; ; ; ; ; ; ",
"                                        + Q S S S S S X ; ; ; ; ; ; ; ; ; ; ; ; ; ; ; ; ; ; ; ; ; ; ; ; ; ; ; ; ; ; ; ; ; ; ; ; ",
"                                        + Q S S S S S X ; ; ; ; ; ; ; ; ; ; ; ; ; ; ; ; ; ; ; ; ; ; ; ; ; ; ; ; ; ; ; ; ; ; ; ; ",
"                                        + Q S S S S S X ; ; ; ; ; ; ; ; ; ; ; ; ; ; ; ; ; ; ; ; ; ; ; ; ; ; ; ; ; ; ; ; ; ; ; ; ",
"                                        + Q S S S S S X ; ; ; ; ; ; ; ; ; ; ; ; ; ; ; ; ; ; ; ; ; ; ; ; ; ; ; ; ; ; ; ; ; ; ; ; ",
"                                        + Q S S S S S X ; ; ; ; ; ; ; ; ; ; ; ; ; ; ; ; ; ; ; ; ; ; ; ; ; ; ; ; ; ; ; ; ; ; ; ; ",
"                                        + Q S S S S S X ; ; ; ; ; ; ; ; ; ; ; ; ; ; ; ; ; ; ; ; ; ; ; ; ; ; ; ; ; ; ; ; ; ; ; ; ",
"                                        + Q S S S S S X ; ; ; ; ; ; ; ; ; ; ; ; ; ; ; ; ; ; ; ; ; ; ; ; ; ; ; ; ; ; ; ; ; ; ; ; ",
"                                        + Q S S S S S X ; ; ; ; ; ; ; ; ; ; ; ; ; ; ; ; ; ; ; ; ; ; ; ; ; ; ; ; ; ; ; ; ; ; ; ; ",
"                                        + Q S S S S S X ; ; ; ; ; ; ; ; ; ; ; ; ; ; ; ; ; ; ; ; ; ; ; ; ; ; ; ; ; ; ; ; ; ; ; ; ",
"                                        + Q S S S S S X ; ; ; ; ; ; ; ; ; ; ; ; ; ; 6 v u ; ; ; ; ; ; ; ; ; ; ; ; ; ; ; ; ; ; ; ",
"                                        + Q S S S S S X ; ; ; ; ; ; ; ; ; ; ; ; ; 6 N | U i ; ; ; ; ; ; ; ; ; ; ; ; ; ; ; ; ; ; ",
"                                        + Q R R R R R X ; ; ; ; ; ; ; ; ; ; ; ; ; i ~ J P C ; ; ; ; ; ; ; ; ; ; ; ; ; ; ; ; ; ; ",
"                                        + o < < < < X X ; ; ; ; ; ; ; ; ; ; ; ; ; - r ( V % ; ; ; ; ; ; ; ; ; ; ; ; ; ; ; ; ; ; ",
"                                        @ Q S S S S S X ; ; ; ; ; ; ; ; ; ; ; ; ; ; * $ % ; ; ; ; ; ; ; ; ; ; ; ; ; ; ; ; ; ; ; ",
"                                        @ Q S S S S S o ; ; ; ; ; ; ; ; ; ; ; ; ; ; ; ; ; ; ; ; ; ; ; ; ; ; ; ; ; ; ; ; ; ; ; ; ",
"                                        O Q S S S S S . ; ; ; ; ; ; ; ; ; ; ; ; ; ; ; ; ; ; ; ; ; ; ; ; ; ; ; ; ; ; ; ; ; ; ; ; ",
"                                        X Q S S S S S X ; ; ; ; ; ; ; ; ; ; ; ; ; ; ; ; ; ; ; ; ; ; ; ; ; ; ; ; ; ; ; ; ; ; ; ; ",
"                                        + Q S S S S S X ; ; ; ; ; ; ; ; ; ; ; ; ; ; ; ; ; ; ; ; ; ; ; ; ; ; ; ; ; ; ; ; ; ; ; ; ",
"                                        + Q S S S S S X ; ; ; ; ; ; ; ; ; ; ; ; ; ; ; ; ; ; ; ; ; ; ; ; ; ; ; ; ; ; ; ; ; ; ; ; ",
"                                        + Q S S S S S X ; ; ; ; ; ; ; ; ; ; ; ; ; ; ; ; ; ; ; ; ; ; ; ; ; ; ; ; ; ; ; ; ; ; ; ; ",
"                                        + Q S S S S S X ; ; ; ; ; ; ; ; ; ; ; ; ; ; ; ; ; ; ; ; ; ; ; ; ; ; ; ; ; ; ; ; ; ; ; ; ",
"                                        + Q S S S S S X ; ; ; ; ; ; ; ; ; ; ; ; ; ; ; ; ; ; ; ; ; ; ; ; ; ; ; ; ; ; ; ; ; ; ; ; ",
"                                        + Q S S S S S X ; ; ; ; ; ; ; ; ; ; ; ; ; ; ; ; ; ; ; ; ; ; ; ; ; ; ; ; ; ; ; ; ; ; ; ; ",
"                                        + Q S S S S S X ; ; ; ; ; ; ; ; ; ; ; ; ; ; ; ; ; ; ; ; ; ; ; ; ; ; ; ; ; ; ; ; ; ; ; ; ",
"                                        + Q S S S S S X ; ; ; ; ; ; ; ; ; ; ; ; ; ; ; ; ; ; ; ; ; ; ; ; ; ; ; ; ; ; ; ; ; ; ; ; ",
"                                        + Q S S S S Q X ; ; ; ; ; ; ; ; ; ; ; ; ; ; ; ; ; ; ; ; ; ; ; ; ; ; ; ; ; ; ; ; ; ; ; ; ",
"                                        + Q S S Q Q g X ; ; ; ; ; ; ; ; ; ; ; ; ; ; ; ; ; ; ; ; ; ; ; ; ; ; ; ; ; ; ; ; ; ; ; ; ",
"                                        + Q Q Q d f j X ; ; ; ; ; ; ; ; ; ; ; ; ; ; ; ; ; ; ; ; ; ; ; ; ; ; ; ; ; ; ; ; ; ; ; ; ",
"                                        + o < < z k j X ; ; ; ; ; ; ; ; ; ; ; ; ; ; ; ; ; ; ; ; ; ; ; ; ; ; ; ; ; ; ; ; ; ; ; ; ",
"                                        + Q S S X l h X ; ; ; ; ; ; ; ; ; ; ; ; ; ; ; ; ; ; ; ; ; ; ; ; ; ; ; ; ; ; ; ; ; ; ; ; ",
"                                        + Q S S S X h X ; ; ; ; ; ; ; ; ; ; ; ; ; ; ; ; ; ; ; ; ; ; ; ; ; ; ; ; ; ; ; ; ; ; ; ; ",
"                                        + Q S S S X h X ; ; ; ; ; ; ; ; ; ; ; ; ; ; ; ; ; ; ; ; ; ; ; ; ; ; ; ; ; ; ; ; ; ; ; ; ",
"                                        + Q S S S S X X ; ; ; ; ; ; ; ; ; ; ; ; ; ; ; ; ; ; ; ; ; ; ; ; ; ; ; ; ; ; ; ; ; ; ; ; ",
"                                        + Q S S S S S X ; ; ; ; ; ; ; ; ; ; ; ; ; ; ; ; ; ; ; ; ; ; ; ; ; ; ; ; ; ; ; ; ; ; ; ; ",
"                                        + Q S S S S S X ; ; ; ; ; ; ; ; ; ; ; ; ; ; ; ; ; ; ; ; ; ; ; ; ; ; ; ; ; ; ; ; ; ; ; ; ",
"                                        + Q S S S S S X ; ; ; ; ; ; ; ; ; ; ; ; ; ; ; ; ; ; ; ; ; ; ; ; ; ; ; ; ; ; ; ; ; ; ; ; ",
"                                        + Q S S S S S X ; ; ; ; ; ; ; ; ; ; ; ; ; ; ; ; ; ; ; ; ; ; ; ; ; ; ; ; ; ; ; ; ; ; ; ; ",
"                                        + Q S S S S S X ; ; ; ; ; ; ; ; ; ; ; ; ; ; ; ; ; ; ; ; ; ; ; ; ; ; ; ; ; ; ; ; ; ; ; ; ",
"                                        + Q S S S S S X ; ; ; ; ; ; ; ; ; ; ; ; ; ; ; ; ; ; ; ; ; ; ; ; ; ; ; ; ; ; ; ; ; ; ; ; ",
"                                        + Q S S S S S X ; ; ; ; ; ; ; ; ; ; : 8 ; ; ; ; ; ; ; ; ; ; ; ; ; ; ; ; ; ; ; ; ; ; ; ; ",
"                                        + Q S S S S S X ; ; ; ; ; : 8 8 , ; : 8 , ; ; ; ; ; ; ; ; ; ; ; ; ; ; ; ; ; ; ; ; ; ; ; ",
"                                        + Q S S S S S X ; ; ; ; ; ; , x 7 , ; * 6 ; u E B ; ; ; ; ; ; ; ; ; ; ; ; ; ; ; ; ; ; ; ",
"                                        + Q S S S S S X ; ; ; ; ; ; ; = 7 7 : % > , b ' F B ; ; ; ; ; ; ; ; ; ; ; ; ; ; ; ; ; ; ",
"                                        + Q R T T T T X ; ; ; ; ; : 8 : * 7 6 w ] A q n ` W ; ; ; ; ; ; ; ; ; ; ; ; ; ; ; ; ; ; ",
"                                        + o < < < < X X ; ; ; ; ; ; * 6 : * c U K P Z 2 s y ; ; ; ; ; ; ; ; ; ; ; ; ; ; ; ; ; ; ",
"                                        @ Q S S S S S X ; ; ; ; ; ; * & 6 # = m } ^ t p ( V ; ; ; ; ; ; ; ; ; ; ; ; ; ; ; ; ; ; ",
"                                        @ Q S S S S S o ; ; ; ; ; ; ; - : * * : a t u / J P C ; ; ; ; ; ; ; ; ; ; ; ; ; ; ; ; ; ",
"                                        O Q S S S S S . ; ; ; ; ; ; ; q ! D ; ; u [ G M | H 0 ; ; ; ; ; ; ; ; ; ; ; ; ; ; ; ; ; ",
"                                        X Q S S S S S X ; ; ; ; ; ; ; 5 L _ ; u ) I { 4 e 0 - ; ; ; ; ; ; ; ; ; ; ; ; ; ; ; ; ; ",
"                                        + Q S S S S S X ; ; ; ; ; ; ; : 1 3 ; v  .^ 0 ; * - ; ; ; ; ; ; ; ; ; ; ; ; ; ; ; ; ; ; ",
"                                        + Q S S S S S X ; ; ; ; ; ; ; ; - - ; : 0 9 - ; ; ; ; ; ; ; ; ; ; ; ; ; ; ; ; ; ; ; ; ; ",
"                                        + Q S S S S S X ; ; ; ; ; ; ; ; ; ; ; ; - ; ; ; ; ; ; ; ; ; ; ; ; ; ; ; ; ; ; ; ; ; ; ; ",
"                                        + Q S S S S S X ; ; ; ; ; ; ; ; ; ; ; ; ; ; ; ; ; ; ; ; ; ; ; ; ; ; ; ; ; ; ; ; ; ; ; ; ",
"                                        + Q S S S S S X ; ; ; ; ; ; ; ; ; ; ; ; ; ; ; ; ; ; ; ; ; ; ; ; ; ; ; ; ; ; ; ; ; ; ; ; ",
"                                        + Q S S S S S X ; ; ; ; ; ; ; ; ; ; ; ; ; ; ; ; ; ; ; ; ; ; ; ; ; ; ; ; ; ; ; ; ; ; ; ; ",
"                                        + Q S S S S S X ; ; ; ; ; ; ; ; ; ; ; ; ; ; ; ; ; ; ; ; ; ; ; ; ; ; ; ; ; ; ; ; ; ; ; ; ",
"                                        + Q S S S S S X ; ; ; ; ; ; ; ; ; ; ; ; ; ; ; ; ; ; ; ; ; ; ; ; ; ; ; ; ; ; ; ; ; ; ; ; ",
"                                        + Q S S S S S X ; ; ; ; ; ; ; ; ; ; ; ; ; ; ; ; ; ; ; ; ; ; ; ; ; ; ; ; ; ; ; ; ; ; ; ; ",
"                                        + Q S S S S S X ; ; ; ; ; ; ; ; ; ; ; ; ; ; ; ; ; ; ; ; ; ; ; ; ; ; ; ; ; ; ; ; ; ; ; ; ",
"                                        + Q Y T T T T X ; ; ; ; ; ; ; ; ; ; ; ; ; ; ; ; ; ; ; ; ; ; ; ; ; ; ; ; ; ; ; ; ; ; ; ; ",
"                                        + o X X X X X X ; ; ; ; ; ; ; ; ; ; ; ; ; ; ; ; ; ; ; ; ; ; ; ; ; ; ; ; ; ; ; ; ; ; ; ; "
};
