/* XPM */
static const char *V2FsbF9VcF9SaWdodA__[] = {
/* columns rows colors chars-per-pixel */
"64 64 192 2 ",
"   c black",
".  c #120B07",
"X  c #261911",
"o  c #4C230C",
"O  c #4F2812",
"+  c #4F2913",
"@  c #502C17",
"#  c #512D18",
"$  c #52311D",
"%  c #53311D",
"&  c #53321E",
"*  c #52321F",
"=  c #4E3524",
"-  c #4F3524",
";  c #4F3625",
":  c #4F3A2C",
">  c #533421",
",  c #553621",
"<  c #543522",
"1  c #543523",
"2  c #553622",
"3  c #563825",
"4  c #563826",
"5  c #573A27",
"6  c #593B27",
"7  c #5A3B27",
"8  c #523A2A",
"9  c #563928",
"0  c #573D2D",
"q  c #573F2F",
"w  c #5B3C28",
"e  c #5B3C29",
"r  c #583E2D",
"t  c #72751B",
"y  c #5A412E",
"u  c #584030",
"i  c #594131",
"p  c #5A4230",
"a  c #5B4330",
"s  c #5B4231",
"d  c #584132",
"f  c #594233",
"g  c #5C4333",
"h  c #5D4532",
"j  c #594234",
"k  c #594435",
"l  c #5A4537",
"z  c #5A4638",
"x  c #5C493B",
"c  c #5C493C",
"v  c #604532",
"b  c #604633",
"n  c #654A39",
"m  c #654B3A",
"M  c #664C3B",
"N  c #634E3D",
"B  c #654F3D",
"V  c #5D4E43",
"C  c #5C4F43",
"Z  c #5D4F44",
"A  c #5B5146",
"S  c #5E5045",
"D  c #5C5146",
"F  c #5C5147",
"G  c #5D5147",
"H  c #5E5147",
"J  c #5C5247",
"K  c #5F5247",
"L  c #5D5248",
"P  c #5D5349",
"I  c #5F5349",
"U  c #5F544A",
"Y  c #655343",
"T  c #655444",
"R  c #665444",
"E  c #675747",
"W  c #6C5545",
"Q  c #605248",
"!  c #60544A",
"~  c #60554B",
"^  c #61564D",
"/  c #61574D",
"(  c #60574E",
")  c #60584E",
"_  c #61584E",
"`  c #61594F",
"'  c #6D5A4A",
"]  c #635A50",
"[  c #645B51",
"{  c #665C51",
"}  c #665F58",
"|  c #665F59",
" . c #666057",
".. c #686057",
"X. c #6F6355",
"o. c #666059",
"O. c #676059",
"+. c #666159",
"@. c #676159",
"#. c #676259",
"$. c #676359",
"%. c #67605A",
"&. c #67615A",
"*. c #67615B",
"=. c #67625A",
"-. c #67625B",
";. c #67625C",
":. c #696158",
">. c #68625A",
",. c #69625A",
"<. c #68635A",
"1. c #69635A",
"2. c #68635B",
"3. c #69635B",
"4. c #69645B",
"5. c #6A645B",
"6. c #6F6659",
"7. c #68635C",
"8. c #68635E",
"9. c #68645C",
"0. c #69645D",
"q. c #6A645C",
"w. c #6A655C",
"e. c #6A655D",
"r. c #6B655D",
"t. c #6A665C",
"y. c #6B665D",
"u. c #6C665E",
"i. c #6C675E",
"p. c #6B685D",
"a. c #6C685E",
"s. c #6D685F",
"d. c #6D695F",
"f. c #726555",
"g. c #726859",
"h. c #74685A",
"j. c #74685B",
"k. c #786D61",
"l. c #7B6D60",
"z. c #786F60",
"x. c #786E61",
"c. c #7C6E62",
"v. c #7A7366",
"b. c #7A7466",
"n. c #757368",
"m. c #767469",
"M. c #77766B",
"N. c #7D796C",
"B. c #7E796C",
"V. c #81776B",
"C. c #81786C",
"Z. c #84796E",
"A. c #827B71",
"S. c #857B71",
"D. c #827C71",
"F. c #828076",
"G. c #858075",
"H. c #868076",
"J. c #868176",
"K. c #868077",
"L. c #85837A",
"P. c #858478",
"I. c #868579",
"U. c #87867A",
"Y. c #87867B",
"T. c #87877B",
"R. c #88877B",
"E. c #88887C",
"W. c #88887D",
"Q. c #88897D",
"!. c #89897D",
"~. c #89897E",
"^. c #898A7E",
"/. c #8B8A7F",
"(. c #8A8B80",
"). c #8D8980",
"_. c #8B8D82",
"`. c #8C8C82",
"'. c #8D8C82",
"]. c #8C8D82",
"[. c #8D8D83",
"{. c #8F8D85",
"}. c #8E8E84",
"|. c #8E9186",
" X c #8F9187",
".X c #939188",
"XX c #939189",
"oX c #94928B",
"OX c #96958F",
"+X c #96968F",
"@X c #989891",
"#X c #9A9B95",
/* pixels */
"                                                                                                                                ",
"                                                                                                                                ",
"                                                                                                                                ",
"                                                                                                                                ",
"                                                                                                                                ",
"v v v v v v v v v v v v v v v v v v v v v v v v v v v v v v v v v v v v v v v v v .                                             ",
"I.I.I.I.I.I.I.I.I.I.I.I.I.I.I.I.I.I.I.6 }././././././././././././././././././././.' X                                           ",
"I.I.I.I.I.I.I.I.I.I.I.I.I.I.I.I.I.I.I.N /.I.I.I.I.I.I.I.I.I.I.I.I.I.I.I.I.I.I.I.I.(.6                                           ",
"oXoXoXoXoXoXoXoXoXoXoXoXoXoXoXoXoXoXoXR .X.X.X}.}.}.}.}.}.}.}.}.}.}.}.).I.I.I.I.I.I.6                                           ",
"a.a.a.a.a.a.a.a.a.a.a.a.a.a.a.a.a.a.a.s a.a.a.i.a.a.a.a.a.a.a.a.a.a.a.y oXI.I.I.I.I.6                                           ",
"i.i.a.a.a.a.a.a.a.a.a.a.a.a.a.a.a.p.p.s i.i.i.i.i.i.y.a.a.a.a.a.a.a.a.s oXI.I.I.I.I.e                                           ",
"i.y.a.a.a.a.a.a.a.a.a.y.y.y.y.y.y.y.y.s y.y.y.y.y.y.y.a.a.a.a.a.a.a.a.s +XI.I.I.I./.e                                           ",
"y.y.i.i.i.i.i.i.i.i.i.y.y.y.y.y.y.y.y.s y.y.y.y.y.y.y.i.i.i.i.i.i.i.i.y S.H.H.H.H.C.e                                           ",
"y.y.y.y.y.y.y.y.y.y.y.y.y.y.y.y.y.y.y.g y.y.y.y.y.y.y.y.y.y.y.y.y.y.y.4 m X.X.X.X.v e                                           ",
"4.4.y.y.y.y.y.y.y.y.y.4.4.4.4.4.4.y.4.4 y.y.y.y.4.4.4.y.y.y.y.y.y.y.y.4 #X/./././._.e                                           ",
"4.4.4.4.4.4.y.4.4.4.4.4.3.4.4.4.4.4.3.$ 4.4.4.3.3.3.3.4.y.4.4.4.4.4.4.1 oXI.I.I.I.I.e                                           ",
"3.3.3.3.3.3.3.3.3.3.3.3.3.3.3.3.3.3.3.$ 3.3.3.3.3.3.3.3.3.3.3.3.3.3.3.1 oXI.I.I.I.I.e                                           ",
"3.=.=.=.=.=.=.=.=.=.=.=.=.=.=.=.3.3.3.$ 3.3.3.3.3.3.3.=.=.=.=.=.=.=.=.# oXI.I.I.I.I.e                                           ",
"=.=.=.=.=.=.=.=.=.=.=.=.=.=.=.=.=.3.=.$ 3.3.3.3.3.3.3.=.=.=.=.=.=.=.=.+ oXI.I.I.I.I.e                                           ",
"> > > > > > > > > > > > > > > > > > > C > > > > > > $ > > > > > > > > + oXI.I.I.I.I.e                                           ",
"G G G G G G G G G G G G G G G G G G G L G G G G G G : G G G G G G G G + oXI.I.I.I.I.e                                           ",
"L L L L L L L L L L L L L L L L L L L L L L L L L L = G G G G G G G G + oXI.I.I.I.I.e                                           ",
"L L L L L L L L L L L L L L L L L L L L L L L L L L = G G G G G G G G + oXI.I.I.I.I.e                                           ",
"G G G G G G G G G G G G G G G G G G G G G G G G G G = A A A A A A A A + oXI.I.I.I.I.e                                           ",
") ) ) ) ) ) ) ) ) ) ) ) ) ) ) ) ) ) ) ) ( ( ( ( ( ( 8 ) ) ) ) ) ) ) ) + #X`.`.`.`.|.e                                           ",
"3.3.3.3.3.3.7.7.y.y.7.7.7.7.3.3.3.3.3.3.=.} } } =.=.s 7.7.3.3.3.3.3.3.+ M j.j.j.j.m e                                           ",
"( ( ( ( ( ( x x s r x x x x ( ( ( ( ( ( ( ( ( ( ( x k x x ( ( ( ( ( ( + Z.N.N.N.N.l.e                                           ",
"y.y.y.y.y.y.y.y.4.1 y.y.y.y.y.y.y.y.y.y.y.y.y.y.y.y.y.y.y.y.y.y.y.y.y.+ +XI.I.I.I./.e                                           ",
"=.=.=.=.=.=.=.=.=.0 =.=.=.=.=.=.=.=.=.=.=.=.=.=.=.=.=.=.=.=.=.=.=.=.=.+ oXI.I.I.I.I.e                                           ",
"=.=.=.=.=.=.=.=.=.C =.=.=.=.=.=.=.=.=.=.=.=.=.=.=.=.=.=.=.=.=.=.=.=.=.+ oXI.I.I.I.I.e                                           ",
"=.=.=.=.=.=.=.=.=.L =.=.=.=.=.=.=.=.=.=.=.=.=.=.=.=.=.=.=.=.=.=.=.=.=.+ oXI.I.I.I.I.e                                           ",
"=.=.=.=.=.=.=.=.=.L =.=.=.=.=.=.=.=.=.=.=.=.=.=.=.=.=.=.=.=.=.=.=.=.=.+ oXI.I.I.I.I.e                                           ",
"=.=.=.=.=.=.=.=.=.L =.=.=.=.=.=.=.=.=.=.=.=.=.=.3.3.y.3.3.=.=.=.=.=.=.+ oXI.I.I.I.I.e                                           ",
"( ( ( ( ( ( ( ( ( ! ( ( ( ( ( ( ( ( ( ( ( ( ( ( c c 1 c c ( ( ( ( ( ( + oXI.I.I.I.I.e                                           ",
"y.y.y.y.y.y.y.y.y.y.y.y.y.y.y.y.y.y.y.y.y.y.y.y.3.3.o 3.3.y.y.y.y.y.y.+ oXI.I.I.I.I.e                                           ",
"} } } } } } } } } } } } } } } } } } } } } } } } } } $ } } } } } } } } + oXI.I.I.I.I.e                                           ",
"} } } } } } } } } } } } } } } } } } } } } } } } } } j } } } } } } } } + oXI.I.I.I.I.e                                           ",
"} } } } } } } } } } } } } } } } } } } } } } } } } } G } } } } } } } } + @X/./././.(.e                                           ",
"} } } } } } } } } } } } } } } } } } } } } } } } } } Z } } } } } } } } + c.A.D.D.D.l.e                                           ",
"=.=.=.=.=.=.=.=.=.;.=.=.=.=.=.=.=.=.=.=.=.=.=.=.=.=.s =.=.=.=.=.=.=.=.+ W g.g.g.g.B e                                           ",
"G G G G G Q ( c c s z c ( ( ( ( ( ( ( ( ( ( ( ( c c s c c c c c c c c + #X/./././._.e                                           ",
"3.3.3.3.3.3.4.3.3.1 ..3.4.4.4.4.4.4.4.4.4.4.4.4.3.3.3.3.3.3.3.3.3.3.3.+ oXI.I.I.I.I.e                                           ",
"} } } } } } } } } k } } } } } } } } } } } } } } } } } } } } } } } } } + oXI.I.I.I.I.e                                           ",
"} } } } } } } } } ! } } } } } } } } } } } } } } } } } } } } } } } } } + oXI.I.I.I.I.e                                           ",
"} } } } } } } } } U } } } } } } } } } } } } } } } } } } } } } } } } } + oXI.I.I.I.I.e                                           ",
"} } } } } } } } } G } } } } } } } } } } } } } } } } } } } } } } } } } + oXI.I.I.I.I.e                                           ",
"} } } } } } } } } 0 7.7.7.7.7.7.7.7.7.=.7.7.7.7.7.7.7.7.7.7.7.7.7.7.7.+ oXI.I.I.I.I.e                                           ",
"9 9 9 9 9 9 9 9 9 @ 9 9 9 9 9 9 9 9 9 ] 9 9 9 9 9 9 9 9 9 9 9 9 9 9 9 + oXI.I.I.I.I.e                                           ",
"m.m.m.m.m.m.m.m.m.m.m.m.m.m.m.m.m.m.m.$ 6.6.6.6.6.6.6.6.6.6.6.6.6.6.6.+ oXI.I.I.I.I.e                                           ",
"m.m.m.m.m.m.m.m.m.m.m.m.m.m.m.m.m.m.m.Y m.m.m.m.m.m.m.m.m.m.m.m.m.m.m.+ #X`.`.`.`.|.e                                           ",
"m.m.m.m.m.m.m.m.m.m.m.m.m.m.m.m.m.m.m.R n.n.n.n.n.n.n.n.n.n.n.n.n.n.n.+ W l.l.l.l.W e                                           ",
"L.L.L.L.L.L.L.L.L.L.L.L.L.L.L.L.L.L.L.R F.F.F.F.F.F.F.F.F.F.F.F.F.F.F.+ c.b.v.v.v.f.e                                           ",
" . . . . . . . . . . . . . . . . . . .R 3.3.3.3.3.3.3.3.3.3.3.3.3.{ { + @X/././././.e                                           ",
" . . . . . . . . . . . . . . . . . . .h y.y.y.y.y.y.y.y.y.y.y.y.y.[ [ + oXI.I.I.I.I.e                                           ",
"$ $ $ $ $ $ $ $ $ $ $ $ $ $ $ $ $ $ $ $ $ $ $ $ $ $ $ $ $ $ $ $ $ $ $ $ oXI.I.I.I.I.e                                           ",
"+ + + + + + + + + + + + + + + + + + + + + + + + + + + + + + + + + + + + oXI.I.I.I.I.e                                           ",
"t t t t t t t t t t t t t t t t t t t t t t t t t t t t t t t t t t t + oXI.I.I.I.I.e                                           ",
"t t t t t t t t t t t t t t t t t t t t t t t t t t t t t t t t t t t + oXI.I.I.I.I.e                                           ",
"t t t t t t t t t t t t t t t t t t t t t t t t t t t t t t t t t t t + oXI.I.I.I.I.e                                           ",
"t t t t t t t t t t t t t t t t t t t t t t t t t t t t t t t t t t t + oXI.I.I.I.I.e                                           ",
"t t t t t t t t t t t t t t t t t t t t t t t t t t t t t t t t t t t + oXI.I.I.I.I.e                                           ",
"t t t t t t t t t t t t t t t t t t t t t t t t t t t t t t t t t t t + oXI.I.I.I.I.e                                           ",
"t t t t t t t t t t t t t t t t t t t t t t t t t t t t t t t t t t t + +XR.R.R.R./.e                                           ",
"t t t t t t t t t t t t t t t t t t t t t t t t t t t t t t t t t t t + Z.H.H.H.H.V.e                                           "
};
