/* XPM */
static const char *V2FsbF9VcF9MZWZ0[] = {
/* columns rows colors chars-per-pixel */
"64 64 133 2 ",
"   c black",
".  c #120B07",
"X  c #261911",
"o  c #4D240E",
"O  c #4E2610",
"+  c #4F2913",
"@  c #4C2C1A",
"#  c #502D18",
"$  c #53311C",
"%  c #4C2F20",
"&  c #4E3124",
"*  c #4F362A",
"=  c #533421",
"-  c #563926",
";  c #5A3B27",
":  c #503628",
">  c #553A2A",
",  c #5B3C29",
"<  c #533D32",
"1  c #72751B",
"2  c #5C412E",
"3  c #544137",
"4  c #5C4535",
"5  c #55443B",
"6  c #5A4639",
"7  c #5D4B3D",
"8  c #604532",
"9  c #654C3B",
"0  c #574A43",
"q  c #5C4D43",
"w  c #5A4E48",
"e  c #5C5146",
"r  c #5D524B",
"t  c #5E5650",
"y  c #5F5951",
"u  c #665545",
"i  c #6C5545",
"p  c #61554B",
"a  c #6E5748",
"s  c #60584E",
"d  c #6D5A4A",
"f  c #605750",
"g  c #645C54",
"h  c #665F58",
"j  c #666057",
"k  c #6F6354",
"l  c #676159",
"z  c #6B655D",
"x  c #6A655C",
"c  c #6B665D",
"v  c #6C675E",
"b  c #6D675F",
"n  c #69635B",
"m  c #6C685E",
"M  c #6C685F",
"N  c #6D685F",
"B  c #6D695F",
"V  c #726555",
"C  c #73665A",
"Z  c #73675A",
"A  c #726859",
"S  c #6D6960",
"D  c #6E6860",
"F  c #6E6960",
"G  c #6E6A60",
"H  c #6E6B60",
"J  c #6F6A61",
"K  c #6F6B61",
"L  c #6F6C62",
"P  c #706B62",
"I  c #786F60",
"U  c #7D6E63",
"Y  c #7B7265",
"T  c #767469",
"R  c #7C776A",
"E  c #7D786B",
"W  c #7E796C",
"Q  c #80766C",
"!  c #84796F",
"~  c #857B71",
"^  c #817F73",
"/  c #857E74",
"(  c #828074",
")  c #838074",
"_  c #838175",
"`  c #838176",
"'  c #848276",
"]  c #848376",
"[  c #858377",
"{  c #828076",
"}  c #858478",
"|  c #868478",
" . c #868578",
".. c #868579",
"X. c #868679",
"o. c #86867A",
"O. c #87867B",
"+. c #87877B",
"@. c #868579",
"#. c #8A847B",
"$. c #8A867F",
"%. c #89857B",
"&. c #88887C",
"*. c #88887D",
"=. c #89897D",
"-. c #89897E",
";. c #89887F",
":. c #89897D",
">. c #8A8680",
",. c #8B8781",
"<. c #8A8980",
"1. c #8A8B80",
"2. c #8B8A81",
"3. c #8E8A81",
"4. c #8D8982",
"5. c #8C8B82",
"6. c #8E8B83",
"7. c #8B8D82",
"8. c #8F8C85",
"9. c #8F8D85",
"0. c #8E8F86",
"q. c #8D8E83",
"w. c #918F88",
"e. c #91908A",
"r. c #92918A",
"t. c #93918A",
"y. c #93928B",
"u. c #94918A",
"i. c #94928B",
"p. c #96958F",
"a. c #94928B",
"s. c #9A9B95",
"d. c #999A93",
/* pixels */
"                                                                                                                                ",
"                                                                                                                                ",
"                                                                                                                                ",
"                                                                                                                                ",
"                                                                                                                                ",
"                                          . 8 8 8 8 8 8 8 8 8 8 8 8 8 8 8 8 8 8 8 8 8 8 8 8 8 8 8 8 8 8 8 8 8 8 8 8 8 8 8 8 8 8 ",
"                                        X d -.-.-.-.-.-.-.-.-.-.-.-.-.-.-.-.-.-.-.-.-.o ........................................",
"                                        ; 1...........................................4 ........................................",
"                                        , ............3.3.9.9.9.9.9.9.9.9.9.9.9.9.9.9.u w.w.w.w.w.w.w.w.w.w.w.w.w.w.w.w.w.w.w.w.",
"                                        , ..........i.6 s P P P H H H N N N N N N N N , P P P P P P P P H H H H H H N N N N N N ",
"                                        , ..........i.4 s L H H H N N N N N N N N N N , H H H H H H H H H H H N N N N N N N N N ",
"                                        , -.........p.4 s g H H H N N N N N N N N N N , H H H H H H H H H H H N N N N N N N N N ",
"                                        , ~ #.#.#.#.~ 4 s s H H N N v v v v v v v v v , H H H H H H H H N N v N N v v v v v v v ",
"                                        , 8 k k k k 9 2 s s N v v v x x x x x x x x x , v v v v v v v v v v v v v x x x x x x x ",
"                                        , 7.-.-.-.-.s., r r g x x x x x x x x x x x x , x x x x x x x x x x x x x x x x x x x x ",
"                                        , ..........i.$ r r r x x n n x x x x x x x x , x x x x x x n x x x x x x x x x x x x x ",
"                                        , ..........t.$ r r r g n n n n n n n n n n n 2 n n n n n n n n n n n n n n n n n n n n ",
"                                        , ..........t.$ r r r r g g g j j l l l n l l = l l l l l l l l l l l l l l l l l l l l ",
"                                        , ..........w.$ r r r r g g g g j g l l l l l O l l l l l l l n l l l l l l l l l l l l ",
"                                        , ........] 9.= & : > > > > > > > > - - - = = # = = = = = = = $ = = = = = = = = = = = = ",
"                                        , ........) 3.= q q e e e e e e e e e e e e e r e e e e r e e @ e e e e e e e e e e e e ",
"                                        , ......] ) >.- e e e e e e e e e e e e e e e e e e e e e r e & r e e e e e e e e e e e ",
"                                        , ....] ] ) $.- e e e e e e e e e e e e e e e e e e e e e r e & r e e e e e e e e e e e ",
"                                        , ....] ) ^ >.- e e e e e e e e e e e e e e e e e e e e e r r & r e e e e e e e e e e e ",
"                                        , 9.3.1.1.-.t.- q q e e e r r r r r s s s s s s s s s s s f f > s s s s s s s s s s s s ",
"                                        , 9 Z Z Z Z 9 - r r r r r r g g g l l l n n n n n n n n n n n 6 n n n n n n n n n n n n ",
"                                        , I W W E R Q = 3 5 5 5 5 < 4 4 7 7 p p p p p p p p p p 7 7 7 6 7 p p p p p p p p p p p ",
"                                        , -.........t.= r r r r r r % n x x x x x x x x x x x x x x x x x x x x x x x x x x x x ",
"                                        , ..........t.$ r r r r r r & l l l l l l l l l l l l l l l l l l l l l l l l l l l l l ",
"                                        , ..........i.$ w r r r r r 3 l l l l l l l l l l l l l l l l l l l l l l l l l l l l l ",
"                                        , ..........i.$ r r r r r r 5 s l l l l l l l l l l l l l l l l l l l l l l l l l l l l ",
"                                        , ..........i.$ r r r r r r 5 r n l l l l l l l l l l l l l l l l l l l l l l l l l l l ",
"                                        , ..........i.$ r r r r r r 5 r g n n n n n n n n n n n n n n n n n n n n n n n n n n n ",
"                                        , ..........i.$ 5 5 5 5 5 5 5 5 5 p p p p p p p p p p p p p q 6 4 6 6 e e q q q q q q 6 ",
"                                        , ..........i.$ r r r r r r r r r x n n n n n n n n n n n n n n = n n n n n l l l l l g ",
"                                        , ..........i.$ w w r r r r r r r g h h h h h h g g g g h h h h > h h h h h h h h h h h ",
"                                        , ..........i.$ w r r r r r t f f t h h h h h h g h h h h h h h e h h h h h h h h h h h ",
"                                        , 7.-.-.-.-.d.$ w r r r r r t f f f g h h h h h g h h h h h h h r h h h h h h h h h h h ",
"                                        , U / / / / U $ w r r r r r s f f f t h h h h h h h h h h h h h r h h h h h h h h h h h ",
"                                        , 9 A A A A i $ r r r r r t f f t f u l l l l l l l l n l l l l r l l l l l l l l l l h ",
"                                        , 7.-.-.-.-.s.$ < 5 5 5 > > < < < < 6 p p p p p p p s s s s s s r s s s s s s s s s s e ",
"                                        , ..........i.$ w r r r q q & r r r r r n n n n n n x x x x x x x x x x x x x x x x x n ",
"                                        , ..........i.$ w w w w w w * r r r r r l h h h g g h h h h h h h h h h h h h h h h h h ",
"                                        , ..........i.$ w w w w w w 3 r r r r r f h h h h g h h h h h h h h h h h h h h h h h h ",
"                                        , ..........i.$ w w w w w w 5 r r r r r r h h h h h h h h h h h h h h h h h h h h h h h ",
"                                        , ..........i.$ w w w w w w * r r r r r r l h h h h h h h h h g h h h h h h h h h h h h ",
"                                        , ..........i.$ r r r r r r * t r t t t t g h h h h h h h h h h h h h h h h h h h h h h ",
"                                        , ..........i.$ & & & & & & @ & & & & & & & > > f > > > > > > > > > > > > > > > > > > > ",
"                                        , ..........i.$ 0 q p p p p p p p p p p p p c c $ T T T T T T T T T T T T T T T T T T T ",
"                                        , t.9.9.9.9.s.$ s s j j j j j j j j j j j j T T u T T T T T T T T T T T T T T T T T T T ",
"                                        , a Y Y Y Y i $ p r g g g g g g g g g g g g T T u T T T T T T T T T T T T T T T T T T T ",
"                                        , V Y Y Y Y U $ g g v v v v v v v v v v v v ) ) u @.@.@.@.@.@.@.@.@.@.@.@.@.@.@.@.@.@.@.",
"                                        , -.-.-.-.-.d.$ 0 0 r s f f f f f f f f f f n n u j j j j j j j j j j j j j j j j j j j ",
"                                        , ..........i.$ 0 0 t y f f f g g g g g g g x x 4 j j j j j j j j j j j j j j j j j j j ",
"                                        , ..........i.$ : : > > > > > > > > > > > > $ $ o $ $ $ $ $ $ $ $ $ $ $ $ $ $ $ $ $ $ $ ",
"                                        , ..........i.$ + + + + + + + + + + + + + + + + + + + + + + + + + + + + + + + + + + + + ",
"                                        , ..........i.$ 1 1 1 1 1 1 1 1 1 1 1 1 1 1 1 1 1 1 1 1 1 1 1 1 1 1 1 1 1 1 1 1 1 1 1 1 ",
"                                        , ..........i.$ 1 1 1 1 1 1 1 1 1 1 1 1 1 1 1 1 1 1 1 1 1 1 1 1 1 1 1 1 1 1 1 1 1 1 1 1 ",
"                                        , ..........i.$ 1 1 1 1 1 1 1 1 1 1 1 1 1 1 1 1 1 1 1 1 1 1 1 1 1 1 1 1 1 1 1 1 1 1 1 1 ",
"                                        , ..........i.$ 1 1 1 1 1 1 1 1 1 1 1 1 1 1 1 1 1 1 1 1 1 1 1 1 1 1 1 1 1 1 1 1 1 1 1 1 ",
"                                        , ..........i.$ 1 1 1 1 1 1 1 1 1 1 1 1 1 1 1 1 1 1 1 1 1 1 1 1 1 1 1 1 1 1 1 1 1 1 1 1 ",
"                                        , ..........i.$ 1 1 1 1 1 1 1 1 1 1 1 1 1 1 1 1 1 1 1 1 1 1 1 1 1 1 1 1 1 1 1 1 1 1 1 1 ",
"                                        , -.$.$.$.$.p.$ 1 1 1 1 1 1 1 1 1 1 1 1 1 1 1 1 1 1 1 1 1 1 1 1 1 1 1 1 1 1 1 1 1 1 1 1 ",
"                                        , ! #.#.#.#.! $ 1 1 1 1 1 1 1 1 1 1 1 1 1 1 1 1 1 1 1 1 1 1 1 1 1 1 1 1 1 1 1 1 1 1 1 1 "
};
