/* XPM */
static const char *V2FsbF9Eb3duX0w_[] = {
/* columns rows colors chars-per-pixel */
"64 64 233 2 ",
"   c black",
".  c #4B2511",
"X  c #4C2611",
"o  c #4D2712",
"O  c #4D2713",
"+  c #4E2812",
"@  c #4F2913",
"#  c #4F2B17",
"$  c #502A15",
"%  c #502C16",
"&  c #502D18",
"*  c #512D18",
"=  c #512E19",
"-  c #522E19",
";  c #512E1A",
":  c #512F1B",
">  c #522E1A",
",  c #522F1A",
"<  c #4F311E",
"1  c #53301A",
"2  c #52301C",
"3  c #52301D",
"4  c #52311D",
"5  c #53321E",
"6  c #55321C",
"7  c #54321D",
"8  c #55321D",
"9  c #54321E",
"0  c #54331F",
"q  c #56331E",
"w  c #55341E",
"e  c #55341F",
"r  c #56341E",
"t  c #56351E",
"y  c #56341F",
"u  c #56351F",
"i  c #4F3625",
"p  c #4F3626",
"a  c #533320",
"s  c #543421",
"d  c #563521",
"f  c #573521",
"g  c #543523",
"h  c #573722",
"j  c #543624",
"k  c #543625",
"l  c #553726",
"z  c #583622",
"x  c #583724",
"c  c #573925",
"v  c #583824",
"b  c #593A26",
"n  c #593B27",
"m  c #5A3B27",
"M  c #563B2B",
"N  c #573C2D",
"B  c #573D2E",
"V  c #573F30",
"C  c #676C18",
"Z  c #6A6E19",
"A  c #6F731A",
"S  c #70731A",
"D  c #72751B",
"F  c #5A402E",
"G  c #5B4130",
"H  c #5B4230",
"J  c #5B4231",
"K  c #584132",
"L  c #5C4330",
"P  c #5C4332",
"I  c #5D4432",
"U  c #594435",
"Y  c #594537",
"T  c #5A4436",
"R  c #5A4536",
"E  c #5A4537",
"W  c #5F4735",
"Q  c #5A4739",
"!  c #5B483B",
"~  c #5B493C",
"^  c #5B4A3D",
"/  c #5C4A3E",
"(  c #654935",
")  c #644E3C",
"_  c #757821",
"`  c #747731",
"'  c #7B7E30",
"]  c #7C7E31",
"[  c #7C7E32",
"{  c #5C4C40",
"}  c #5D4D41",
"|  c #5D4D42",
" . c #5D4E42",
".. c #5E5146",
"X. c #5C5247",
"o. c #5D5349",
"O. c #5E5349",
"+. c #5F5349",
"@. c #5E5449",
"#. c #5D544A",
"$. c #5E544A",
"%. c #5E554A",
"&. c #5F554A",
"*. c #5E554B",
"=. c #5F554B",
"-. c #5E554C",
";. c #5F554C",
":. c #5E564C",
">. c #5F564D",
",. c #645141",
"<. c #675341",
"1. c #675443",
"2. c #695645",
"3. c #655E55",
"4. c #655F55",
"5. c #655F56",
"6. c #655F57",
"7. c #665F56",
"8. c #665F57",
"9. c #665F58",
"0. c #666057",
"q. c #666058",
"w. c #676058",
"e. c #666158",
"r. c #676158",
"t. c #676159",
"y. c #676258",
"u. c #676259",
"i. c #686159",
"p. c #686259",
"a. c #686359",
"s. c #68625A",
"d. c #69625A",
"f. c #68635A",
"g. c #69635A",
"h. c #69635B",
"j. c #6A635B",
"k. c #68645A",
"l. c #69645B",
"z. c #6A645B",
"x. c #69645C",
"c. c #6A645C",
"v. c #6B645C",
"b. c #6A655C",
"n. c #6B655C",
"m. c #6A655D",
"M. c #6B655D",
"N. c #6A665D",
"B. c #6B665D",
"V. c #6B675D",
"C. c #6B665E",
"Z. c #6B675E",
"A. c #6C665D",
"S. c #6C665E",
"D. c #6C675E",
"F. c #6C675F",
"G. c #6D675F",
"H. c #6C685C",
"J. c #6D685C",
"K. c #6D685D",
"L. c #6C695D",
"P. c #6D695D",
"I. c #6C685E",
"U. c #6D695E",
"Y. c #6C685F",
"T. c #6D685F",
"R. c #6D695F",
"E. c #6E695E",
"W. c #6D6A5F",
"Q. c #6E6A5E",
"!. c #6E6A5F",
"~. c #6F6A5F",
"^. c #6E6B5F",
"/. c #6F6B5F",
"(. c #6D6860",
"). c #6D6960",
"_. c #6E6860",
"`. c #6E6960",
"'. c #6D6A60",
"]. c #6E6A60",
"[. c #6F6B60",
"{. c #6E6A61",
"}. c #6F6A61",
"|. c #6F6B61",
" X c #6F6A62",
".X c #6F6C60",
"XX c #6F6C61",
"oX c #6F6C62",
"OX c #706B60",
"+X c #706A62",
"@X c #706B62",
"#X c #706B63",
"$X c #716B63",
"%X c #706C60",
"&X c #706C61",
"*X c #706D61",
"=X c #706C62",
"-X c #706D62",
";X c #706C63",
":X c #716C63",
">X c #726E62",
",X c #76736B",
"<X c #7A776C",
"1X c #7F7C74",
"2X c #807D75",
"3X c #807E76",
"4X c #7F8137",
"5X c #8B8A4E",
"6X c #919269",
"7X c #94946A",
"8X c #838178",
"9X c #848179",
"0X c #85837B",
"qX c #86837B",
"wX c #868579",
"eX c #A68C63",
"rX c #A5916D",
"tX c #A39D7E",
"yX c #908E86",
"uX c #918F87",
"iX c #918F88",
"pX c #929088",
"aX c #939189",
"sX c #93918A",
"dX c #93928A",
"fX c #94928A",
"gX c #94928B",
"hX c #99978F",
"jX c #9A9891",
"kX c #9C9A92",
"lX c #A29B80",
"zX c #A09F86",
"xX c #AFA696",
/* pixels */
"                                        x gXwXwXwXwXwXr D D D D D D D D D D D D D D D D D D D D D D D D D D D D D D D D D D D D ",
"                                        x gXwXwXwXwXwXr D D D D D D D D D D D D D D D D D D D D D D D D D D D D D D D D D D D D ",
"                                        x gXgXgXgXgXgXr D D D D D D D D D D D D D D D D D D D D D D D D D D D D D D D D D D D D ",
"                                        x f ( ( ( ( r r D D D D D D D D D D D D D D D D D D D D D D D D D D D D D D D D D D D D ",
"                                        x gXwXwXwXwXwXr D D D D D D D D D D D D D D D D D D D D D D D D D D D D D D D D D D D D ",
"                                        x gXwXwXwXwXwXr D D D D D D D D D D D D D D D D D D D D D D D D D D D D D D D D D D D D ",
"                                        x gXwXwXwXwXwXr D D D D D D D D D D D D D D D D D D D D D D D D D D D D D D D D D D D D ",
"                                        x gXwXwXwXwXwXr D D D D D D D D D D D D D D D D D D D D D D D D D D D D D D D D D D D D ",
"                                        x gXwXwXwXwXwXr D D D D D D D D D D D D D D D D D D D D D D D D D D D D D D D D D D D D ",
"                                        x gXwXwXwXwXwXr D D D D D D D D D D D D D D D D D D D D D D D D D D D D D D D D D D D D ",
"                                        x gXwXwXwXwXwXr D D D D D D D D D D D D D D D D D D D D D D D D D D D D D D D D D D D D ",
"                                        x gXwXwXwXwXwXr D D D D D D D D D D D D D D D D D D D D D D D D D D D D D D D D D D D D ",
"                                        x gXwXwXwXwXwXr D D D D D D D D D D D D _ 4X' D D D D D D D D D D D D D D D D D D D D D ",
"                                        x gXwXwXwXwXwXr D D D D D D D D D D D _ 5XxXtX] D D D D D D D D D D D D D D D D D D D D ",
"                                        x gXwXwXwXwXwXr D D D D D D D D D D D ] lXeXrX7XD D D D D D D D D D D D D D D D D D D D ",
"                                        x gXwXwXwXwXwXr D D D D D D D D D D D S ` zX6XZ D D D D D D D D D D D D D D D D D D D D ",
"                                        x gXwXwXwXwXwXr D D D D D D D D D D D D A C Z D D D D D D D D D D D D D D D D D D D D D ",
"                                        x gXwXwXwXwXwXr D D D D D D D D D D D D D D D D D D D D D D D D D D D D D D D D D D D D ",
"                                        x gXgXgXgXgXgXr D D D D D D D D D D D D D D D D D D D D D D D D D D D D D D D D D D D D ",
"                                        x f ( ( ( ( r r D D D D D D D D D D D D D D D D D D D D D D D D D D D D D D D D D D D D ",
"                                        v gXwXwXwXwXwXr D D D D D D D D D D D D D D D D D D D D D D D D D D D D D D D D D D D D ",
"                                        v gXwXwXwXwXwXf D D D D D D D D D D D D D D D D D D D D D D D D D D D D D D D D D D D D ",
"                                        z gXwXwXwXwXwX6 D D D D D D D D D D D D D D D D D D D D D D D D D D D D D D D D D D D D ",
"                                        r gXwXwXwXwXwXr D D D D D D D D D D D D D D D D D D D D D D D D D D D D D D D D D D D D ",
"                                        6 gXwXwXwXwXwXr 1 6 v v v v v v v v v m v D v m v v v v v v v v v v v v v v v v v v v m ",
"                                        6 jXwXwXwXwXwXwXwXwXwXwXwXwXwXwXwXwXwXwXwX) wXwXwXwXwXwXwXwXwXwXwXwXwXwXwXwXwXwXwXwXwXwX",
"                                        6 jXwXwXwXwXwXwXwXwXwXwXwXwXwXwXwXwXwXwXwX,.wXwXwXwXwXwXwXwXwXwXwXwXwXwXwXwXwXwXwXwXwXwX",
"                                        6 jXwXwXwXwXwXwXwXwXwXwXwXwXwXwXwXwXwXwXwX2.wXwXwXwXwXwXwXwXwXwXwXwXwXwXwXwXwXwXwXwXwXwX",
"                                        + 9XjXkXkXkXkXgXgXdXdXdXdXdXdXdXdXdXgXhXhX1.hXhXhXgXpXuXuXuXuXiXdXdXiXiXiXiXiXiXiXiXiXdX",
"                                        + 9X X X X X X X X@X@X@X@X@X%X%X%X%X%X%X%XJ @X@X@X@X@X@X X X X XT.T.T.T.T.T.T.T.T.T.T.T.",
"                                        + 9X X XT.T.T.T. X X X X X X X X X X X.X.XL  X X X X X X X X XT.T.T.T.T.T.T.T.T.T.T.T.T.",
"                                        + 9XG.T.T.T.G.G.T.T.T.T.T. XT. X X X X X XL  X X X X X X X XT.T.T.T.T.T.T.T.T.T.T.T.T.T.",
"                                        + 3Xc.c.G.c.G.G.G.G.G.G.G.T.T.T. X X X X XJ  X X X X X X X XT.T.T.T.T.T.T.T.T.T.T.T.T.T.",
"                                        + 3Xc.c.c.c.c.c.c.c.G.G.G.G.G.G.G.T.T.T.T.J T. X X X X XT.T.T.G.G.G.G.G.G.G.G.G.G.G.G.V.",
"                                        + 1Xk.p.p.p.p.k.c.c.c.c.c.c.c.c.c.c.c.G.G.F G.T.T.G.G.G.T.T.G.G.c.c.c.c.c.c.c.c.c.c.c.c.",
"                                        + 1Xp.p.p.p.p.p.k.c.c.c.k.c.c.c.c.c.c.c.c.f c.G.G.G.G.c.c.c.c.c.c.c.c.c.c.c.c.c.c.c.c.c.",
"                                        + ,Xr.r.p.p.p.p.p.k.k.k.k.p.k.c.c.c.k.k.k.5 k.c.k.k.k.c.c.c.c.c.c.c.c.c.c.c.c.c.c.c.c.c.",
"                                        X ,X8.0.r.r.r.p.p.p.p.p.p.p.p.p.p.h.k.k.k.5 k.k.k.k.k.k.k.k.c.c.k.k.c.k.k.k.k.k.k.k.k.k.",
"                                        X ,X0.8.0.r.r.r.p.p.p.p.p.p.p.p.p.p.p.p.p.* p.p.p.p.p.p.p.p.p.p.p.p.p.p.p.k.k.p.p.p.p.p.",
"                                        X ,X8.8.8.8.0.r.r.r.r.r.r.r.r.r.r.r.r.r.r.# r.r.r.r.r.r.r.r.r.r.r.r.r.r.r.r.r.p.r.p.p.p.",
"                                        + ,X8.8.8.8.0.0.0.0.0.r.r.r.r.r.r.r.r.r.r.X r.r.r.r.r.r.r.r.r.r.r.r.r.r.r.r.r.r.r.r.r.r.",
"                                          + 8.8.8.8.8.0.r.0.0.r.r.r.r.r.r.r.r.r.r.+ r.r.r.r.r.r.r.r.r.r.r.r.r.r.r.r.r.r.r.r.r.r.",
"                                            X . . . . . . . . . . . . . . . . X X o.+ + + + + + + + + + + + + + + + + + + + + + ",
"                                            + <XH.H.T.T.T.T.H.+ -.-.@.@.@.@.o.@.@.o.o.< X.X.o.X.X.X.X.X.X.X.X.X.X.X.X.X.X.X.X.X.",
"                                            + <XT.T.T.T.T.T.T.+ -.@.@.@.@.@.@.@.@.o.o.< o.X.X.X.X.X.X.X.X.X.X.X.X.X.X.X.X.X.X.X.",
"                                            + <XT.T.T.T.T.T.H.+ -.-.@.@.@.@.@.@.@.@.o.p o.X.X.X.X.X.X.X.X.X.X.X.X.X.X.X.X.X.X.X.",
"                                            + <XH.H.H.H.H.H.H.+ -.-.@.@.@.@.@.@.@.@.o.p X.X.X.X.X.X.X.X.X.X.X.X.X.X.X.X.X.X.X.X.",
"                                            + <XH.T.T.T.T.T.T.+ -.-.-.@.@.@.@.@.@.@.@.p o.X.X.X.X.X.X.X.X.X.X.X.X.X.X.X.X.X.X.X.",
"                                            $ <XT.T.T.T.T.T.T.+ -.-.-.-.@.@.@.@.@.@.@.p o.X.X.X.X.X.X.X.X.X.X.X.X.X.X.X.X.X.X.X.",
"                                            % <XT.T.T.T.T.T.T.+ ;X9.8.8.8.8.8.8.8.8.8.U r.r.r.r.r.r.r.r.r.r.r.r.r.r.r.r.r.r.r.r.",
"                                            * <XT.T.T.T.T.T.T.+ ;X9.8.8.8.8.8.8.8.8.8.Q r.r.r.r.r.r.r.r.r.r.r.r.r.r.r.r.r.r.r.r.",
"                                            * <XT.T.T.T.T.T.T.T.# 5 5 U U U U U U U U U U X.X.X.X.X.X.X.X.X.X.X.X.| | | X.X.X.o.",
"                                            * <XT.T.T.T.T.T.T.+ %X%X%X%XT.T.T.T.T.T.T.T.T.T.T.T.T.T.T.T.T.T.T.T.T.T.| G.G.G.G.G.",
"                                            * <XT.T.T.T.T.T.T.+ %Xr.r.r.r.r.r.r.r.r.r.r.r.r.r.r.r.r.r.r.r.r.r.r.r.r.| r.r.r.r.r.",
"                                            * <XT.T.T.T.T.T.T.* ;Xr.r.r.r.r.r.r.r.r.r.r.r.r.r.r.r.r.r.r.r.r.r.r.r.r.| r.r.r.r.r.",
"                                            * <X/././././././.* ;Xr.r.r.r.r.r.r.r.r.r.r.r.r.r.r.r.r.r.r.r.r.r.r.r.r.| r.r.r.r.r.",
"                                            * <XT.T.T.T.T.T.T.+ ;Xr.r.r.r.r.r.r.r.r.r.r.r.r.r.r.r.r.r.r.r.r.r.r.r.r.| r.r.r.r.r.",
"                                            * <XT.T.T.T.T. XT.+ ;Xr.r.r.r.r.r.r.r.r.r.r.r.r.r.r.r.r.r.r.r.r.r.r.r.r.| r.r.r.r.r.",
"                                            * <X/./.T.T..X XT.+ %Xr.r.r.r.r.r.r.r.r.r.r.r.r.r.r.r.r.r.r.r.r.r.r.r.r.J r.r.r.r.r.",
"                                            * <X%X.X.X.X.X.X@X+ %Xr.r.r.r.r.r.r.r.r.r.r.r.r.r.r.r.r.r.r.r.r.r.r.r.r.V r.r.r.r.r.",
"                                            * <X%X%X.X%X%X%X%X%X* : 5 a | | | | | | U B M M M | ^ ^ ^ ! ! ! ! B B k f k B o.o.o.",
"                                            * <X<X<X<X<X<X<X<X+  Xc.c.G.G.G.G.G.G.G.G.G.k G.G.G.G.G.c.c.c.c.c.c.c.c.c.c.c.c.c.c.",
"                                            6 ,.( I I L c 6 6 *  X9.9.9.9.9.9.9.9.9.9.9.k 9.9.9.9.9.9.9.9.9.9.9.9.9.9.9.9.9.9.9.",
"                                            f 8X%X%X%X%X%X%X%X+ ;X9.9.9.9.9.9.9.9.9.9.9./ 9.9.9.9.9.9.9.9.9.9.9.9.9.9.9.9.9.9.9."
};
